<?xml version="1.0" encoding="UTF-8"?><svg id="a" xmlns="http://www.w3.org/2000/svg" xmlns:xlink="http://www.w3.org/1999/xlink" viewBox="0 0 389.88 119.28"><defs><style>.ax,.ay,.b`,.ba,.bb,.bc,.bd,.be,.bf,.bg,.bh,.bi,.bj,.bk,.bl,.bm,.bn,.bo,.bp,.bq,.br,.bs,.bt,.bu,.bv,.bw,.bx,.by,.c`,.ca,.cb,.cc,.cd,.ce,.cf,.cg,.ch,.ci,.cj,.ck,.cl,.cm,.cn,.co,.cp,.cq,.cr,.cs{stroke-miterlimit:10;}.ax,.ay,.bb,.bc,.be,.bh,.bi,.bj,.bk,.bn,.bo,.bp,.bs,.bu,.bv,.bw,.bx,.c`,.cb,.cc,.ce,.cf,.cg,.ch,.ci,.cl,.cn,.co,.cp,.cq,.cr{stroke:#231f20;}.ax,.ba,.bd,.bl,.bm,.br,.cd,.cj,.ck{fill:none;}.ay{fill:url(#aj);}.ay,.bb,.bc,.bh,.bi,.bj,.bk,.bn,.bo,.bp,.bs,.bu,.bv,.bw,.bx,.c`,.cb,.cc,.ce,.cf,.cg,.ch,.ci,.cl,.cn,.co,.cq,.cr{stroke-width:.25px;}.b`{filter:url(#l);}.b`,.bd{stroke:#b5d435;}.b`,.be,.bf,.bg,.bq,.bt,.by,.ca,.cm,.cp,.cs{fill:#fff;}.ba,.by{stroke:#35b779;}.bb{fill:url(#ae);}.bc{fill:url(#aw);}.be{filter:url(#t);}.bf{filter:url(#d);}.bf,.ck{stroke:#482c79;}.bg{filter:url(#j);}.bg,.bm{stroke:#1c9e89;}.bh{fill:url(#a`);}.bi{fill:url(#ar);}.bj{fill:#939598;}.bk{fill:url(#ah);}.bl,.cm{stroke:#27828e;}.bn{fill:url(#au);}.bo{fill:url(#ag);}.bp{fill:url(#ab);}.bq{filter:url(#b);}.bq,.cd{stroke:#431853;}.br,.ca{stroke:#77c15a;}.bs{fill:url(#ap);}.bt{filter:url(#f);stroke:#31688e;}.bu{fill:url(#as);}.bv{fill:url(#am);}.bw{fill:url(#af);}.bx{fill:url(#aa);}.by{filter:url(#h);}.c`{fill:url(#ak);}.ca{filter:url(#p);}.cb{fill:url(#ac);}.cc{fill:url(#x);}.ce{fill:url(#ai);}.cf{fill:url(#av);}.cg{fill:url(#aq);}.ch{fill:url(#ao);}.ci{fill:url(#an);}.cj,.cs{stroke:#fce61f;}.cl{fill:url(#ad);}.cm{filter:url(#n);}.ct{fill:#231f20;}.cn{fill:url(#y);}.co{fill:url(#at);}.cp{filter:url(#v);}.cq{fill:#d2d3d4;}.cr{fill:url(#al);}.cs{filter:url(#r);}</style><filter id="b" filterUnits="userSpaceOnUse"><feOffset dx="0" dy="1"/><feGaussianBlur result="c" stdDeviation="2"/><feFlood flood-color="#000" flood-opacity=".5"/><feComposite in2="c" operator="in"/><feComposite in="SourceGraphic"/></filter><filter id="d" filterUnits="userSpaceOnUse"><feOffset dx="0" dy="1"/><feGaussianBlur result="e" stdDeviation="2"/><feFlood flood-color="#000" flood-opacity=".5"/><feComposite in2="e" operator="in"/><feComposite in="SourceGraphic"/></filter><filter id="f" filterUnits="userSpaceOnUse"><feOffset dx="0" dy="1"/><feGaussianBlur result="g" stdDeviation="2"/><feFlood flood-color="#000" flood-opacity=".5"/><feComposite in2="g" operator="in"/><feComposite in="SourceGraphic"/></filter><filter id="h" filterUnits="userSpaceOnUse"><feOffset dx="0" dy="1"/><feGaussianBlur result="i" stdDeviation="2"/><feFlood flood-color="#000" flood-opacity=".5"/><feComposite in2="i" operator="in"/><feComposite in="SourceGraphic"/></filter><filter id="j" filterUnits="userSpaceOnUse"><feOffset dx="0" dy="1"/><feGaussianBlur result="k" stdDeviation="2"/><feFlood flood-color="#000" flood-opacity=".5"/><feComposite in2="k" operator="in"/><feComposite in="SourceGraphic"/></filter><filter id="l" filterUnits="userSpaceOnUse"><feOffset dx="0" dy="1"/><feGaussianBlur result="m" stdDeviation="2"/><feFlood flood-color="#000" flood-opacity=".5"/><feComposite in2="m" operator="in"/><feComposite in="SourceGraphic"/></filter><filter id="n" filterUnits="userSpaceOnUse"><feOffset dx="0" dy="1"/><feGaussianBlur result="o" stdDeviation="2"/><feFlood flood-color="#000" flood-opacity=".5"/><feComposite in2="o" operator="in"/><feComposite in="SourceGraphic"/></filter><filter id="p" filterUnits="userSpaceOnUse"><feOffset dx="0" dy="1"/><feGaussianBlur result="q" stdDeviation="2"/><feFlood flood-color="#000" flood-opacity=".5"/><feComposite in2="q" operator="in"/><feComposite in="SourceGraphic"/></filter><filter id="r" filterUnits="userSpaceOnUse"><feOffset dx="0" dy="1"/><feGaussianBlur result="s" stdDeviation="2"/><feFlood flood-color="#000" flood-opacity=".5"/><feComposite in2="s" operator="in"/><feComposite in="SourceGraphic"/></filter><filter id="t" filterUnits="userSpaceOnUse"><feOffset dx="0" dy="1"/><feGaussianBlur result="u" stdDeviation="3"/><feFlood flood-color="#000" flood-opacity=".5"/><feComposite in2="u" operator="in"/><feComposite in="SourceGraphic"/></filter><filter id="v" filterUnits="userSpaceOnUse"><feOffset dx="0" dy="1"/><feGaussianBlur result="w" stdDeviation="3"/><feFlood flood-color="#000" flood-opacity=".5"/><feComposite in2="w" operator="in"/><feComposite in="SourceGraphic"/></filter><radialGradient id="x" cx="23.67" cy="26.12" fx="23.67" fy="26.12" r="8.7" gradientTransform="translate(-7.13 -9.72) scale(1.29 1.36)" gradientUnits="userSpaceOnUse"><stop offset="0" stop-color="#fff"/><stop offset=".75" stop-color="#f2f2f2"/><stop offset=".81" stop-color="#eee"/><stop offset=".86" stop-color="#e4e4e4"/><stop offset=".9" stop-color="#d3d3d3"/><stop offset=".94" stop-color="#bcbcbc"/><stop offset=".98" stop-color="#9d9d9d"/><stop offset="1" stop-color="#8c8c8c"/></radialGradient><radialGradient id="y" cx="52.76" cy="45.45" fx="52.76" fy="45.45" r="8.7" gradientTransform="translate(-20.17 36.03) rotate(-25) scale(1.29 1.36)" xlink:href="#x"/><radialGradient id="a`" cx="57.61" cy="-19.95" fx="57.61" fy="-19.95" r="8.7" gradientTransform="translate(3.75 123.4) rotate(-50) scale(1.29 1.36)" xlink:href="#x"/><radialGradient id="aa" cx="75.45" cy="-43.39" fx="75.45" fy="-43.39" r="8.7" gradientTransform="translate(76.1 204.3) rotate(-75) scale(1.29 1.36)" xlink:href="#x"/><radialGradient id="ab" cx="198.57" cy="-45.54" fx="198.57" fy="-45.54" r="8.7" gradientTransform="translate(197.89 268.8) rotate(-100) scale(1.29 1.36)" xlink:href="#x"/><radialGradient id="ac" cx="218.82" cy="155.59" fx="218.82" fy="155.59" r="8.7" gradientTransform="translate(431.31 -22.52) rotate(125) scale(1.29 1.36)" xlink:href="#x"/><radialGradient id="ad" cx="138.5" cy="147.52" fx="138.5" fy="147.52" r="8.7" gradientTransform="translate(326.1 -78.13) rotate(100) scale(1.29 1.36)" xlink:href="#x"/><radialGradient id="ae" cx="18.61" cy="68.49" fx="18.61" fy="68.49" r="8.7" gradientTransform="translate(110.06 -49.84) rotate(50) scale(1.29 1.36)" xlink:href="#x"/><radialGradient id="af" cx="19.16" cy="72.06" fx="19.16" fy="72.06" r="8.7" gradientTransform="translate(42.39 -21.91) rotate(25) scale(1.29 1.36)" xlink:href="#x"/><radialGradient id="ag" cx="131.97" fx="131.97" r="8.7" xlink:href="#x"/><radialGradient id="ah" cx="150.92" cy="88.9" fx="150.92" fy="88.9" r="8.7" gradientTransform="translate(-20.17 36.03) rotate(-25) scale(1.29 1.36)" xlink:href="#x"/><radialGradient id="ai" cx="127.23" cy="58.81" fx="127.23" fy="58.81" r="8.7" gradientTransform="translate(3.75 123.4) rotate(-50) scale(1.29 1.36)" xlink:href="#x"/><radialGradient id="aj" cx="132.3" cy="143.41" fx="132.3" fy="143.41" r="8.7" gradientTransform="translate(76.1 204.3) rotate(-75) scale(1.29 1.36)" xlink:href="#x"/><radialGradient id="ak" cx="179.77" cy="55.71" fx="179.77" fy="55.71" r="8.7" gradientTransform="translate(197.89 268.8) rotate(-100) scale(1.29 1.36)" xlink:href="#x"/><radialGradient id="al" cx="156.7" cy="71.37" fx="156.7" fy="71.37" r="8.7" gradientTransform="translate(431.31 -22.52) rotate(125) scale(1.29 1.36)" xlink:href="#x"/><radialGradient id="am" cx="119.69" cy="46.27" fx="119.69" fy="46.27" r="8.7" gradientTransform="translate(326.1 -78.13) rotate(100) scale(1.29 1.36)" xlink:href="#x"/><radialGradient id="an" cx="88.23" cy="-10.27" fx="88.23" fy="-10.27" r="8.7" gradientTransform="translate(110.06 -49.84) rotate(50) scale(1.29 1.36)" xlink:href="#x"/><radialGradient id="ao" cx="117.32" cy="28.61" fx="117.32" fy="28.61" r="8.7" gradientTransform="translate(42.39 -21.91) rotate(25) scale(1.29 1.36)" xlink:href="#x"/><radialGradient id="ap" cx="160.38" cy="-92.97" fx="160.38" fy="-92.97" r="8.7" gradientTransform="translate(110.06 -49.84) rotate(50) scale(1.29 1.36)" xlink:href="#x"/><radialGradient id="aq" cx="244.83" cy="127.01" fx="244.83" fy="127.01" r="8.7" gradientTransform="translate(-20.17 36.03) rotate(-25) scale(1.29 1.36)" xlink:href="#x"/><radialGradient id="ar" cx="97.77" cy="-10.86" fx="97.77" fy="-10.86" gradientTransform="translate(431.31 -22.52) rotate(125) scale(1.29 1.36)" xlink:href="#x"/><radialGradient id="as" cx="126.07" cy="-31.46" fx="126.07" fy="-31.46" r="8.7" gradientTransform="translate(326.1 -78.13) rotate(100) scale(1.29 1.36)" xlink:href="#x"/><radialGradient id="at" cx="160.58" cy="155.79" fx="160.58" fy="155.79" r="8.7" gradientTransform="translate(197.89 268.8) rotate(-100) scale(1.29 1.36)" xlink:href="#x"/><radialGradient id="au" cx="244.35" cy="28.08" fx="244.35" fy="28.08" xlink:href="#x"/><radialGradient id="av" cx="190.63" cy="141.77" fx="190.63" fy="141.77" r="8.7" gradientTransform="translate(3.75 123.4) rotate(-50) scale(1.29 1.36)" xlink:href="#x"/><radialGradient id="aw" cx="256.45" cy="-48.32" fx="256.45" fy="-48.32" r="8.7" gradientTransform="translate(42.39 -21.91) rotate(25) scale(1.29 1.36)" xlink:href="#x"/></defs><rect class="bq" x="358.22" y="77.1" width="25" height="25"/><rect class="bf" x="326.91" y="76.87" width="25" height="25"/><rect class="bt" x="296.22" y="77.1" width="25" height="25"/><rect class="by" x="358.22" y="46.1" width="25" height="25"/><rect class="bg" x="327.22" y="46.1" width="25" height="25"/><rect class="b`" x="296.22" y="46.1" width="25" height="25"/><rect class="cm" x="358.22" y="15.1" width="25" height="25"/><rect class="ca" x="327.22" y="15.1" width="25" height="25"/><rect class="cs" x="296.22" y="15.1" width="25" height="25"/><rect class="be" x="149.72" y="8.6" width="100" height="100"/><rect class="cp" x="9.72" y="8.6" width="100" height="100"/><path class="cc" d="M35,25.84c0,6.18-4.76,11.54-11.16,11.54s-11.91-5.68-11.91-11.86,5.19-11.22,11.59-11.22,11.49,5.36,11.49,11.54Z"/><path class="cq" d="M19.11,26.43c.6-1.8,2.47-4.08,3.11-4.65,.71-.63,2.22-1.72,2.22-1.72,0,0,1.23-.1,2.1,.08,3.09,.79,4.28,3.89,4.41,5.72,.03,1.49-.47,3.43-1.22,4.52s-2.22,2.37-3.78,2.89c-3.81,1.25-5.97-1.55-5.97-1.55,0,0-1.22-1.52-1.27-2.3-.1-1.45,.4-3,.4-3Z"/><path class="bj" d="M18.71,29.43s-2.88-.57-3.53-3.79c-.67-4.97,3.7-7.49,4.87-7.59,2.43-.28,4.39,2.01,4.39,2.01,0,0-2.81,1.98-3.97,3.85-1.87,3.08-1.75,5.52-1.75,5.52Z"/><g><path class="cn" d="M78.25,58.42c2.61,5.6,.56,12.47-5.24,15.18s-13.2-.11-15.81-5.71-.04-12.36,5.76-15.07,12.67,0,15.29,5.6Z"/><path class="cq" d="M64.1,65.67c-.22-1.89,.51-4.74,.85-5.52,.37-.87,1.29-2.5,1.29-2.5,0,0,1.07-.61,1.94-.82,3.14-.59,5.52,1.72,6.42,3.32,.66,1.33,1.03,3.31,.81,4.61s-1.01,3.08-2.2,4.22c-2.93,2.74-6.07,1.12-6.07,1.12,0,0-1.74-.86-2.12-1.55-.7-1.27-.91-2.89-.91-2.89Z"/><path class="bj" d="M65.01,68.55s-2.85,.7-4.8-1.94c-2.71-4.22,.18-8.35,1.2-8.94,2.08-1.29,4.83-.03,4.83-.03,0,0-1.71,2.98-1.97,5.16-.4,3.58,.75,5.74,.75,5.74Z"/></g><g><path class="bh" d="M38.22,40.05c4.73,3.97,5.78,11.06,1.66,15.97s-12.01,5.48-16.74,1.5-5.26-11.19-1.14-16.09,11.49-5.35,16.22-1.38Z"/><path class="cq" d="M28.46,52.6c-.99-1.62-1.54-4.51-1.56-5.37-.03-.95,.11-2.81,.11-2.81,0,0,.72-1,1.41-1.56,2.59-1.86,5.73-.78,7.22,.3,1.16,.93,2.33,2.56,2.68,3.84s.39,3.22-.21,4.76c-1.49,3.72-5.03,3.58-5.03,3.58,0,0-1.94-.04-2.57-.51-1.18-.86-2.04-2.23-2.04-2.23Z"/><path class="bj" d="M30.5,54.83s-2.28,1.84-5.17,.27c-4.24-2.68-3.37-7.65-2.69-8.61,1.34-2.04,4.36-2.07,4.36-2.07,0,0-.29,3.42,.39,5.51,1.15,3.41,3.11,4.89,3.11,4.89Z"/></g><g><path class="bx" d="M47.25,83.66c5.97,1.6,9.91,7.59,8.26,13.77s-8.57,10.04-14.54,8.44c-5.97-1.6-9.49-7.92-7.84-14.1s8.15-9.71,14.12-8.11Z"/><path class="cq" d="M43.71,99.16c-1.59-1.05-3.3-3.44-3.68-4.2-.43-.84-1.09-2.59-1.09-2.59,0,0,.23-1.21,.62-2.01,1.56-2.78,4.86-3.12,6.67-2.78,1.44,.36,3.19,1.34,4.05,2.34s1.71,2.76,1.82,4.4c.22,4-3.04,5.37-3.04,5.37,0,0-1.78,.78-2.54,.63-1.43-.28-2.79-1.16-2.79-1.16Z"/><path class="bj" d="M46.5,100.32s-1.29,2.63-4.57,2.43c-4.97-.64-6.28-5.51-6.07-6.66,.35-2.42,3.08-3.72,3.08-3.72,0,0,1.18,3.22,2.69,4.83,2.49,2.61,4.88,3.12,4.88,3.12Z"/></g><g><path class="bp" d="M90.24,15.43c6.09-1.07,12.19,2.69,13.3,8.99,1.11,6.3-3.52,12.72-9.61,13.79s-11.95-3.16-13.06-9.47c-1.11-6.3,3.28-12.24,9.37-13.32Z"/><path class="cq" d="M93.58,30.97c-1.88-.28-4.44-1.72-5.12-2.25-.75-.58-2.08-1.89-2.08-1.89,0,0-.31-1.19-.29-2.08,.24-3.18,3.09-4.89,4.87-5.34,1.46-.29,3.46-.14,4.66,.41s2.72,1.78,3.51,3.22c1.89,3.54-.49,6.15-.49,6.15,0,0-1.28,1.46-2.04,1.64-1.41,.35-3.02,.13-3.02,.13Z"/><path class="bj" d="M96.6,30.84s-.06,2.93-3.11,4.14c-4.77,1.52-8.02-2.34-8.32-3.47-.7-2.34,1.22-4.67,1.22-4.67,0,0,2.43,2.42,4.48,3.24,3.35,1.31,5.74,.76,5.74,.76Z"/></g><g><path class="cb" d="M88.9,97.11c-5.06-3.54-6.72-10.52-3.05-15.76s11.48-6.5,16.55-2.96,6.21,10.69,2.54,15.93-10.98,6.34-16.04,2.79Z"/><path class="cq" d="M97.53,83.76c1.13,1.53,1.92,4.36,2.03,5.21,.11,.94,.14,2.81,.14,2.81,0,0-.63,1.06-1.27,1.68-2.42,2.08-5.64,1.27-7.22,.33-1.23-.83-2.54-2.35-3.01-3.59s-.66-3.18-.2-4.76c1.16-3.84,4.69-4,4.69-4,0,0,1.94-.13,2.61,.28,1.25,.75,2.23,2.04,2.23,2.04Z"/><path class="bj" d="M95.3,81.71s2.11-2.03,5.13-.72c4.45,2.3,4.02,7.33,3.43,8.34-1.16,2.15-4.16,2.44-4.16,2.44,0,0,0-3.43-.87-5.46-1.44-3.3-3.52-4.6-3.52-4.6Z"/></g><g><path class="cl" d="M95.18,74.66c-6.09-1.07-10.54-6.69-9.42-13,1.11-6.3,7.66-10.75,13.75-9.67s10.15,7.06,9.04,13.36-7.27,10.38-13.36,9.31Z"/><path class="cq" d="M97.36,58.91c1.67,.9,3.58,3.14,4.04,3.87,.5,.8,1.31,2.49,1.31,2.49,0,0-.12,1.23-.44,2.06-1.32,2.91-4.57,3.54-6.4,3.35-1.47-.23-3.3-1.05-4.24-1.98s-1.94-2.6-2.19-4.23c-.57-3.97,2.56-5.61,2.56-5.61,0,0,1.71-.93,2.48-.85,1.45,.15,2.89,.91,2.89,.91Z"/><path class="bj" d="M94.48,58s1.06-2.73,4.34-2.82c5.01,.2,6.74,4.94,6.63,6.11-.14,2.44-2.74,3.97-2.74,3.97,0,0-1.46-3.11-3.1-4.58-2.7-2.38-5.13-2.68-5.13-2.68Z"/></g><g><path class="bb" d="M61.5,37.38c-4.73,3.97-11.9,3.77-16.01-1.13s-3.31-12.78,1.43-16.75,11.93-3.24,16.05,1.67,3.28,12.24-1.46,16.22Z"/><path class="cq" d="M50.84,25.58c1.77-.7,4.71-.73,5.56-.61,.94,.13,2.75,.59,2.75,.59,0,0,.86,.88,1.29,1.66,1.38,2.88-.23,5.78-1.55,7.06-1.12,.98-2.93,1.85-4.24,1.97s-3.24-.18-4.65-1.04c-3.41-2.12-2.65-5.57-2.65-5.57,0,0,.38-1.91,.95-2.44,1.05-1.01,2.55-1.63,2.55-1.63Z"/><path class="bj" d="M48.29,27.21s-1.42-2.57,.63-5.14c3.37-3.71,8.12-1.99,8.94-1.15,1.78,1.68,1.28,4.65,1.28,4.65,0,0-3.32-.88-5.5-.57-3.56,.54-5.36,2.21-5.36,2.21Z"/></g><g><path class="bw" d="M33.83,82.36c-2.61,5.6-9.19,8.45-14.99,5.74s-8.4-10.18-5.79-15.78,9.44-7.98,15.25-5.27,8.15,9.71,5.53,15.31Z"/><path class="cq" d="M19.18,76.17c1.31-1.38,3.96-2.65,4.78-2.9,.91-.27,2.74-.62,2.74-.62,0,0,1.16,.43,1.87,.96,2.47,2.02,2.23,5.33,1.58,7.05-.6,1.36-1.87,2.91-3.01,3.58s-3.01,1.21-4.65,1.02c-3.98-.48-4.76-3.93-4.76-3.93,0,0-.46-1.89-.18-2.62,.52-1.36,1.63-2.55,1.63-2.55Z"/><path class="bj" d="M17.55,78.72s-2.37-1.73-1.6-4.92c1.49-4.78,6.52-5.23,7.62-4.82,2.32,.77,3.13,3.68,3.13,3.68,0,0-3.38,.6-5.22,1.81-3,2-3.92,4.27-3.92,4.27Z"/></g><path class="bo" d="M175,25.84c0,6.18-4.76,11.54-11.16,11.54s-11.91-5.68-11.91-11.86,5.19-11.22,11.59-11.22,11.49,5.36,11.49,11.54Z"/><path class="cq" d="M159.11,26.43c.6-1.8,2.47-4.08,3.11-4.65,.71-.63,2.22-1.72,2.22-1.72,0,0,1.23-.1,2.1,.08,3.09,.79,4.28,3.89,4.41,5.72,.03,1.49-.47,3.43-1.22,4.52s-2.22,2.37-3.78,2.89c-3.81,1.25-5.97-1.55-5.97-1.55,0,0-1.22-1.52-1.27-2.3-.1-1.45,.4-3,.4-3Z"/><path class="bj" d="M158.71,29.43s-2.88-.57-3.53-3.79c-.67-4.97,3.7-7.49,4.87-7.59,2.43-.28,4.39,2.01,4.39,2.01,0,0-2.81,1.98-3.97,3.85-1.87,3.08-1.75,5.52-1.75,5.52Z"/><g><path class="bk" d="M218.25,58.42c2.61,5.6,.56,12.47-5.24,15.18s-13.2-.11-15.81-5.71-.04-12.36,5.76-15.07,12.67,0,15.29,5.6Z"/><path class="cq" d="M204.1,65.67c-.22-1.89,.51-4.74,.85-5.52,.37-.87,1.29-2.5,1.29-2.5,0,0,1.07-.61,1.94-.82,3.14-.59,5.52,1.72,6.42,3.32,.66,1.33,1.03,3.31,.81,4.61s-1.01,3.08-2.2,4.22c-2.93,2.74-6.07,1.12-6.07,1.12,0,0-1.74-.86-2.12-1.55-.7-1.27-.91-2.89-.91-2.89Z"/><path class="bj" d="M205.01,68.55s-2.85,.7-4.8-1.94c-2.71-4.22,.18-8.35,1.2-8.94,2.08-1.29,4.83-.03,4.83-.03,0,0-1.71,2.98-1.97,5.16-.4,3.58,.75,5.74,.75,5.74Z"/></g><g><path class="ce" d="M178.22,40.05c4.73,3.97,5.78,11.06,1.66,15.97s-12.01,5.48-16.74,1.5-5.26-11.19-1.14-16.09,11.49-5.35,16.22-1.38Z"/><path class="cq" d="M168.46,52.6c-.99-1.62-1.54-4.51-1.56-5.37-.03-.95,.11-2.81,.11-2.81,0,0,.72-1,1.41-1.56,2.59-1.86,5.73-.78,7.22,.3,1.16,.93,2.33,2.56,2.68,3.84s.39,3.22-.21,4.76c-1.49,3.72-5.03,3.58-5.03,3.58,0,0-1.94-.04-2.57-.51-1.18-.86-2.04-2.23-2.04-2.23Z"/><path class="bj" d="M170.5,54.83s-2.28,1.84-5.17,.27c-4.24-2.68-3.37-7.65-2.69-8.61,1.34-2.04,4.36-2.07,4.36-2.07,0,0-.29,3.42,.39,5.51,1.15,3.41,3.11,4.89,3.11,4.89Z"/></g><g><path class="ay" d="M311.97,78.51c5.97,1.6,9.91,7.59,8.26,13.77s-8.57,10.04-14.54,8.44c-5.97-1.6-9.49-7.92-7.84-14.1,1.66-6.18,8.15-9.71,14.12-8.11Z"/><path class="cq" d="M308.43,94.01c-1.59-1.05-3.3-3.44-3.68-4.2-.43-.84-1.09-2.59-1.09-2.59,0,0,.23-1.21,.62-2.01,1.56-2.78,4.86-3.12,6.67-2.78,1.44,.36,3.19,1.34,4.05,2.34s1.71,2.76,1.82,4.4c.22,4-3.04,5.37-3.04,5.37,0,0-1.78,.78-2.54,.63-1.43-.28-2.79-1.16-2.79-1.16Z"/><path class="bj" d="M311.22,95.16s-1.29,2.63-4.57,2.43c-4.97-.64-6.28-5.51-6.07-6.66,.35-2.42,3.08-3.72,3.08-3.72,0,0,1.18,3.22,2.69,4.83,2.49,2.61,4.88,3.12,4.88,3.12Z"/></g><g><path class="c`" d="M230.24,15.43c6.09-1.07,12.19,2.69,13.3,8.99,1.11,6.3-3.52,12.72-9.61,13.79s-11.95-3.16-13.06-9.47c-1.11-6.3,3.28-12.24,9.37-13.32Z"/><path class="cq" d="M233.58,30.97c-1.88-.28-4.44-1.72-5.12-2.25-.75-.58-2.08-1.89-2.08-1.89,0,0-.31-1.19-.29-2.08,.24-3.18,3.09-4.89,4.87-5.34,1.46-.29,3.46-.14,4.66,.41s2.72,1.78,3.51,3.22c1.89,3.54-.49,6.15-.49,6.15,0,0-1.28,1.46-2.04,1.64-1.41,.35-3.02,.13-3.02,.13Z"/><path class="bj" d="M236.6,30.84s-.06,2.93-3.11,4.14c-4.77,1.52-8.02-2.34-8.32-3.47-.7-2.34,1.22-4.67,1.22-4.67,0,0,2.43,2.42,4.48,3.24,3.35,1.31,5.74,.76,5.74,.76Z"/></g><g><path class="cr" d="M228.9,97.11c-5.06-3.54-6.72-10.52-3.05-15.76s11.48-6.5,16.55-2.96,6.21,10.69,2.54,15.93-10.98,6.34-16.04,2.79Z"/><path class="cq" d="M237.53,83.76c1.13,1.53,1.92,4.36,2.03,5.21,.11,.94,.14,2.81,.14,2.81,0,0-.63,1.06-1.27,1.68-2.42,2.08-5.64,1.27-7.22,.33-1.23-.83-2.54-2.35-3.01-3.59s-.66-3.18-.2-4.76c1.16-3.84,4.69-4,4.69-4,0,0,1.94-.13,2.61,.28,1.25,.75,2.23,2.04,2.23,2.04Z"/><path class="bj" d="M235.3,81.71s2.11-2.03,5.13-.72c4.45,2.3,4.02,7.33,3.43,8.34-1.16,2.15-4.16,2.44-4.16,2.44,0,0,0-3.43-.87-5.46-1.44-3.3-3.52-4.6-3.52-4.6Z"/></g><g><path class="bv" d="M235.18,74.66c-6.09-1.07-10.54-6.69-9.42-13,1.11-6.3,7.66-10.75,13.75-9.67s10.15,7.06,9.04,13.36-7.27,10.38-13.36,9.31Z"/><path class="cq" d="M237.36,58.91c1.67,.9,3.58,3.14,4.04,3.87,.5,.8,1.31,2.49,1.31,2.49,0,0-.12,1.23-.44,2.06-1.32,2.91-4.57,3.54-6.4,3.35-1.47-.23-3.3-1.05-4.24-1.98s-1.94-2.6-2.19-4.23c-.57-3.97,2.56-5.61,2.56-5.61,0,0,1.71-.93,2.48-.85,1.45,.15,2.89,.91,2.89,.91Z"/><path class="bj" d="M234.48,58s1.06-2.73,4.34-2.82c5.01,.2,6.74,4.94,6.63,6.11-.14,2.44-2.74,3.97-2.74,3.97,0,0-1.46-3.11-3.1-4.58-2.7-2.38-5.13-2.68-5.13-2.68Z"/></g><g><path class="ci" d="M201.5,37.38c-4.73,3.97-11.9,3.77-16.01-1.13s-3.31-12.78,1.43-16.75c4.73-3.97,11.93-3.24,16.05,1.67,4.11,4.9,3.28,12.24-1.46,16.22Z"/><path class="cq" d="M190.84,25.58c1.77-.7,4.71-.73,5.56-.61,.94,.13,2.75,.59,2.75,.59,0,0,.86,.88,1.29,1.66,1.38,2.88-.23,5.78-1.55,7.06-1.12,.98-2.93,1.85-4.24,1.97s-3.24-.18-4.65-1.04c-3.41-2.12-2.65-5.57-2.65-5.57,0,0,.38-1.91,.95-2.44,1.05-1.01,2.55-1.63,2.55-1.63Z"/><path class="bj" d="M188.29,27.21s-1.42-2.57,.63-5.14c3.37-3.71,8.12-1.99,8.94-1.15,1.78,1.68,1.28,4.65,1.28,4.65,0,0-3.32-.88-5.5-.57-3.56,.54-5.36,2.21-5.36,2.21Z"/></g><g><path class="ch" d="M173.83,82.36c-2.61,5.6-9.19,8.45-14.99,5.74s-8.4-10.18-5.79-15.78,9.44-7.98,15.25-5.27,8.15,9.71,5.53,15.31Z"/><path class="cq" d="M159.18,76.17c1.31-1.38,3.96-2.65,4.78-2.9,.91-.27,2.74-.62,2.74-.62,0,0,1.16,.43,1.87,.96,2.47,2.02,2.23,5.33,1.58,7.05-.6,1.36-1.87,2.91-3.01,3.58s-3.01,1.21-4.65,1.02c-3.98-.48-4.76-3.93-4.76-3.93,0,0-.46-1.89-.18-2.62,.52-1.36,1.63-2.55,1.63-2.55Z"/><path class="bj" d="M157.55,78.72s-2.37-1.73-1.6-4.92c1.49-4.78,6.52-5.23,7.62-4.82,2.32,.77,3.13,3.68,3.13,3.68,0,0-3.38,.6-5.22,1.81-3,2-3.92,4.27-3.92,4.27Z"/></g><rect class="br" x="181.01" y="16.05" width="25" height="25"/><g><path class="bs" d="M347.71,36.43c-4.73,3.97-11.9,3.77-16.01-1.13s-3.31-12.78,1.43-16.75c4.73-3.97,11.93-3.24,16.05,1.67,4.11,4.9,3.28,12.24-1.46,16.22Z"/><path class="cq" d="M337.05,24.63c1.77-.7,4.71-.73,5.56-.61,.94,.13,2.75,.59,2.75,.59,0,0,.86,.88,1.29,1.66,1.38,2.88-.23,5.78-1.55,7.06-1.12,.98-2.93,1.85-4.24,1.97s-3.24-.18-4.65-1.04c-3.41-2.12-2.65-5.57-2.65-5.57,0,0,.38-1.91,.95-2.44,1.05-1.01,2.55-1.63,2.55-1.63Z"/><path class="bj" d="M334.5,26.26s-1.42-2.57,.63-5.14c3.37-3.71,8.12-1.99,8.94-1.15,1.78,1.68,1.28,4.65,1.28,4.65,0,0-3.32-.88-5.5-.57-3.56,.54-5.36,2.21-5.36,2.21Z"/></g><rect class="bm" x="195.28" y="50.37" width="25" height="25"/><g><path class="cg" d="M350.2,54.15c2.61,5.6,.56,12.47-5.24,15.18s-13.2-.11-15.81-5.71-.04-12.36,5.76-15.07,12.67,0,15.29,5.6Z"/><path class="cq" d="M336.04,61.4c-.22-1.89,.51-4.74,.85-5.52,.37-.87,1.29-2.5,1.29-2.5,0,0,1.07-.61,1.94-.82,3.14-.59,5.52,1.72,6.42,3.32,.66,1.33,1.03,3.31,.81,4.61s-1.01,3.08-2.2,4.22c-2.93,2.74-6.07,1.12-6.07,1.12,0,0-1.74-.86-2.12-1.55-.7-1.27-.91-2.89-.91-2.89Z"/><path class="bj" d="M336.95,64.28s-2.85,.7-4.8-1.94c-2.71-4.22,.18-8.35,1.2-8.94,2.08-1.29,4.83-.03,4.83-.03,0,0-1.71,2.98-1.97,5.16-.4,3.58,.75,5.74,.75,5.74Z"/></g><rect class="cd" x="222.8" y="75.28" width="25" height="25"/><g><path class="bi" d="M364.32,98.93c-5.06-3.54-6.72-10.52-3.05-15.76s11.48-6.5,16.55-2.96,6.21,10.69,2.54,15.93-10.98,6.34-16.04,2.79Z"/><path class="cq" d="M372.95,85.58c1.13,1.53,1.92,4.36,2.03,5.21,.11,.94,.14,2.81,.14,2.81,0,0-.63,1.06-1.27,1.68-2.42,2.08-5.64,1.27-7.22,.33-1.23-.83-2.54-2.35-3.01-3.59s-.66-3.18-.2-4.76c1.16-3.84,4.69-4,4.69-4,0,0,1.94-.13,2.61,.28,1.25,.75,2.23,2.04,2.23,2.04Z"/><path class="bj" d="M370.72,83.54s2.11-2.03,5.13-.72c4.45,2.3,4.02,7.33,3.43,8.34-1.16,2.15-4.16,2.44-4.16,2.44,0,0,0-3.43-.87-5.46-1.44-3.3-3.52-4.6-3.52-4.6Z"/></g><rect class="ck" x="224.1" y="50.37" width="25" height="25"/><g><path class="bu" d="M337.99,101.16c-6.09-1.07-10.54-6.69-9.42-13,1.11-6.3,7.66-10.75,13.75-9.67s10.15,7.06,9.04,13.36-7.27,10.38-13.36,9.31Z"/><path class="cq" d="M340.17,85.41c1.67,.9,3.58,3.14,4.04,3.87,.5,.8,1.31,2.49,1.31,2.49,0,0-.12,1.23-.44,2.06-1.32,2.91-4.57,3.54-6.4,3.35-1.47-.23-3.3-1.05-4.24-1.98s-1.94-2.6-2.19-4.23c-.57-3.97,2.56-5.61,2.56-5.61,0,0,1.71-.93,2.48-.85,1.45,.15,2.89,.91,2.89,.91Z"/><path class="bj" d="M337.29,84.5s1.06-2.73,4.34-2.82c5.01,.2,6.74,4.94,6.63,6.11-.14,2.44-2.74,3.97-2.74,3.97,0,0-1.46-3.11-3.1-4.58-2.7-2.38-5.13-2.68-5.13-2.68Z"/></g><rect class="bl" x="219.7" y="14.33" width="25" height="25"/><g><path class="co" d="M368.76,16.19c6.09-1.07,12.19,2.69,13.3,8.99,1.11,6.3-3.52,12.72-9.61,13.79s-11.95-3.16-13.06-9.47c-1.11-6.3,3.28-12.24,9.37-13.32Z"/><path class="cq" d="M372.09,31.74c-1.88-.28-4.44-1.72-5.12-2.25-.75-.58-2.08-1.89-2.08-1.89,0,0-.31-1.19-.29-2.08,.24-3.18,3.09-4.89,4.87-5.34,1.46-.29,3.46-.14,4.66,.41s2.72,1.78,3.51,3.22c1.89,3.54-.49,6.15-.49,6.15,0,0-1.28,1.46-2.04,1.64-1.41,.35-3.02,.13-3.02,.13Z"/><path class="bj" d="M375.11,31.61s-.06,2.93-3.11,4.14c-4.77,1.52-8.02-2.34-8.32-3.47-.7-2.34,1.22-4.67,1.22-4.67,0,0,2.43,2.42,4.48,3.24,3.35,1.31,5.74,.76,5.74,.76Z"/></g><rect class="cj" x="150.96" y="12.42" width="25" height="25"/><path class="bn" d="M320.26,28.52c0,6.18-4.76,11.54-11.16,11.54s-11.91-5.68-11.91-11.86,5.19-11.22,11.59-11.22,11.49,5.36,11.49,11.54Z"/><path class="cq" d="M304.37,29.11c.6-1.8,2.47-4.08,3.11-4.65,.71-.63,2.22-1.72,2.22-1.72,0,0,1.23-.1,2.1,.08,3.09,.79,4.28,3.89,4.41,5.72,.03,1.49-.47,3.43-1.22,4.52s-2.22,2.37-3.78,2.89c-3.81,1.25-5.97-1.55-5.97-1.55,0,0-1.22-1.52-1.27-2.3-.1-1.45,.4-3,.4-3Z"/><path class="bj" d="M303.97,32.1s-2.88-.57-3.53-3.79c-.67-4.97,3.7-7.49,4.87-7.59,2.43-.28,4.39,2.01,4.39,2.01,0,0-2.81,1.98-3.97,3.85-1.87,3.08-1.75,5.52-1.75,5.52Z"/><rect class="bd" x="158" y="36.26" width="25" height="25"/><g><path class="cf" d="M317.44,49.89c4.73,3.97,5.78,11.06,1.66,15.97s-12.01,5.48-16.74,1.5-5.26-11.19-1.14-16.09,11.49-5.35,16.22-1.38Z"/><path class="cq" d="M307.68,62.44c-.99-1.62-1.54-4.51-1.56-5.37-.03-.95,.11-2.81,.11-2.81,0,0,.72-1,1.41-1.56,2.59-1.86,5.73-.78,7.22,.3,1.16,.93,2.33,2.56,2.68,3.84s.39,3.22-.21,4.76c-1.49,3.72-5.03,3.58-5.03,3.58,0,0-1.94-.04-2.57-.51-1.18-.86-2.04-2.23-2.04-2.23Z"/><path class="bj" d="M309.72,64.67s-2.28,1.84-5.17,.27c-4.24-2.68-3.37-7.65-2.69-8.61,1.34-2.04,4.36-2.07,4.36-2.07,0,0-.29,3.42,.39,5.51,1.15,3.41,3.11,4.89,3.11,4.89Z"/></g><rect class="ba" x="150.96" y="65.03" width="25" height="25"/><g><path class="bc" d="M381.09,63.43c-2.61,5.6-9.19,8.45-14.99,5.74s-8.4-10.18-5.79-15.78,9.44-7.98,15.25-5.27,8.15,9.71,5.53,15.31Z"/><path class="cq" d="M366.44,57.24c1.31-1.38,3.96-2.65,4.78-2.9,.91-.27,2.74-.62,2.74-.62,0,0,1.16,.43,1.87,.96,2.47,2.02,2.23,5.33,1.58,7.05-.6,1.36-1.87,2.91-3.01,3.58s-3.01,1.21-4.65,1.02c-3.98-.48-4.76-3.93-4.76-3.93,0,0-.46-1.89-.18-2.62,.52-1.36,1.63-2.55,1.63-2.55Z"/><path class="bj" d="M364.81,59.79s-2.37-1.73-1.6-4.92c1.49-4.78,6.52-5.23,7.62-4.82,2.32,.77,3.13,3.68,3.13,3.68,0,0-3.38,.6-5.22,1.81-3,2-3.92,4.27-3.92,4.27Z"/></g><g><line class="ax" x1="114.72" y1="58.6" x2="141.74" y2="58.6"/><polygon class="ct" points="140.33 60.45 141.12 58.6 140.33 56.75 144.72 58.6 140.33 60.45"/></g><g><line class="ax" x1="254.72" y1="58.6" x2="281.74" y2="58.6"/><polygon class="ct" points="280.33 60.45 281.12 58.6 280.33 56.75 284.72 58.6 280.33 60.45"/></g></svg>