<?xml version="1.0" encoding="UTF-8"?><svg id="a" xmlns="http://www.w3.org/2000/svg" xmlns:xlink="http://www.w3.org/1999/xlink" viewBox="0 0 281.13 107.54"><defs><style>.f{fill:url(#d);}.f,.g,.h,.i,.j,.k,.l,.m,.n,.o,.p,.q,.r,.s{stroke-miterlimit:10;}.f,.g,.i,.j,.l,.o,.r,.s{stroke:#231f20;stroke-width:.25px;}.g{fill:url(#b);}.h{stroke:#000;}.h,.i,.k,.m,.n,.p,.q{fill:none;}.j{fill:#939598;}.k{stroke:#3b538c;}.l{fill:url(#c);}.t{fill:#1d918c;}.u{fill:#431853;}.v{fill:#231f20;font-family:ArialMT, Arial;font-size:12px;}.m{stroke:#1d918c;}.n{stroke:#68be63;}.o{fill:#606161;}.p{stroke:#431853;}.w{fill:#fce61f;}.q{stroke:#fce61f;}.r{fill:url(#e);}.x{fill:#68be63;}.y{fill:#3b538c;}.s{fill:#d2d3d4;}</style><radialGradient id="b" cx="18.86" cy="68.67" fx="18.86" fy="68.67" r="16.06" gradientTransform="translate(-2.25 -23.22) scale(1.01 1.07)" gradientUnits="userSpaceOnUse"><stop offset="0" stop-color="#fff"/><stop offset=".75" stop-color="#f2f2f2"/><stop offset=".81" stop-color="#eee"/><stop offset=".86" stop-color="#e4e4e4"/><stop offset=".9" stop-color="#d3d3d3"/><stop offset=".94" stop-color="#bcbcbc"/><stop offset=".98" stop-color="#9d9d9d"/><stop offset="1" stop-color="#8c8c8c"/></radialGradient><radialGradient id="c" cx="51.87" cy="37.46" fx="51.87" fy="37.46" r="16.06" xlink:href="#b"/><radialGradient id="d" cx="84.87" fx="84.87" r="16.06" xlink:href="#b"/><radialGradient id="e" cx="51.87" cy="99.88" fx="51.87" fy="99.88" xlink:href="#b"/></defs><g><g><path class="g" d="M33.46,50.28c0,8.95-6.6,16.51-15.83,16.51S-.36,58.64,.15,49.7c.52-9.09,7.1-16.25,16.34-16.25s16.98,7.87,16.98,16.82Z"/><path class="s" d="M25.81,50.95c0,4.92-2.83,8.92-7.86,9.51-1.46,.22-1.89-1.22-3.29-1.47-1.63-.28-3-2.27-3.42-3.55-1.3-.55-2.72-2.89-2.64-4.82,.11-2.61,.44-5.7,1.85-7.52,1.54-1.99,3.99-2.98,6.59-2.98,4.97,0,8.76,5.91,8.76,10.83Z"/><path class="j" d="M7.5,50.9c-.97-.1-2.53-.21-2.79-2.92s2.17-5.36,3.02-6.35,6.13-3.98,10.42-3.12c4.28,.86,8.6,6.56,9.15,8.72s.94,6.42-1.23,9.47c-2.17,3.06-3.21,3.91-5.49,4.91s-3.24,1.17-3.94,1.44-2.81-.45-2.81-.45c0,0-2.11-1.96-2.11-2.13s-.65-3.11,1.56-2.14,1.25,.25,2.21,.97,3.31,2.81,7.89-1.79c4.12-4.13,2.06-10.62,.98-12.13s-2.09-4.3-5.57-5.03-6.74,.89-7.65,1.96-2.14,3.13-2.34,5.71l-.2,2.58-1.1,.27Z"/><path class="s" d="M7.5,50.9s.75,1.34,1.66,2.88,1.23,2.28,1.23,2.28c0,0,1.1,.53,1.22,2.47s-.16-.27,.57-.33c.2-.15,.91,.05,.91,.05,0,0-1.38-1.4-1.84-2.81-2.64-1.8-2.64-4.82-2.64-4.82l-1.1,.27Z"/><path class="i" d="M7.2,50.3c-.58,.1-1.15-.72-.78-3.05,.37-2.33,1.26-2.84,1.64-2.65s1.21,.89,.54,3.04c-.67,2.15-.39,2.48-1.4,2.66Z"/><path class="j" d="M7.58,49.31c-.64-.34-.4-1.28-.29-1.88"/><path class="o" d="M25.44,55.42c.76-.27,1.06,.21,1.06,.21"/><path class="o" d="M25.72,53.98c.78-.29,1.02,.11,1.08,.18"/><path class="o" d="M25.81,52.37s.56-.33,1.14,0"/><path class="o" d="M25.72,51.05s.43-.48,1.22-.14"/><path class="o" d="M25.44,48.18s.48-.52,1.28-.22"/><path class="o" d="M24.9,46.63s.45-.71,1.18-.5"/><path class="o" d="M24.37,45.4s.14-.7,.97-.58"/><path class="o" d="M24.53,43.43s-.75-.21-1.04,.51"/></g><g><path class="l" d="M66.79,16.95c0,8.95-6.6,16.51-15.83,16.51s-17.99-8.15-17.48-17.09C33.99,7.28,40.58,.12,49.82,.12s16.98,7.87,16.98,16.82Z"/><g><path class="s" d="M59.72,16.57c0-4.92-2.85-8.92-7.93-9.51-1.47-.22-1.9,1.22-3.31,1.47-1.64,.28-3.03,2.27-3.45,3.55-1.31,.55-2.74,2.89-2.66,4.82,.11,2.61,.45,5.7,1.87,7.52,1.55,1.99,4.03,2.98,6.65,2.98,5.02,0,8.84-5.91,8.84-10.83Z"/><path class="j" d="M41.41,16.63c-.97,.1-2.53,.21-2.79,2.92s2.17,5.36,3.02,6.35,6.13,3.98,10.42,3.12c4.28-.86,8.6-6.56,9.15-8.72s.94-6.42-1.23-9.47c-2.17-3.06-3.21-3.91-5.49-4.91s-3.24-1.17-3.94-1.44-2.81,.45-2.81,.45c0,0-2.11,1.96-2.11,2.13s-.65,3.11,1.56,2.14,1.25-.25,2.21-.97,3.31-2.81,7.89,1.79c4.12,4.13,2.06,10.62,.98,12.13-1.1,1.55-2.09,4.3-5.57,5.03s-6.74-.89-7.65-1.96-2.14-3.13-2.34-5.71l-.2-2.58-1.1-.27Z"/><path class="s" d="M41.54,16.58s.73-1.33,1.61-2.86,1.2-2.26,1.2-2.26c0,0,1.05-.51,1.19-2.45s-.16,.27,.53,.34c.18,.16,.86-.03,.86-.03,0,0-1.32,1.38-1.78,2.79-2.52,1.76-2.57,4.78-2.57,4.78l-1.04-.29Z"/><path class="i" d="M41.11,17.23c-.58-.1-1.15,.72-.78,3.05,.37,2.33,1.26,2.84,1.64,2.65s1.21-.89,.54-3.04c-.67-2.15-.39-2.48-1.4-2.66Z"/><path class="j" d="M41.49,18.22c-.64,.34-.4,1.28-.29,1.88"/><path class="o" d="M59.68,14.84c.76,.27,1.06-.21,1.06-.21"/><path class="o" d="M59.8,16.16c.78,.29,1.02-.11,1.08-.18"/><path class="o" d="M59.72,17.38s.61,.46,1.23,0"/><path class="o" d="M59.56,18.54s.46,.48,1.29,.14"/><path class="o" d="M59.25,19.78s.48,.52,1.28,.22"/><path class="o" d="M58.81,20.89s.45,.71,1.18,.5"/><path class="o" d="M58.28,22.13s.14,.7,.97,.58"/><path class="o" d="M58.45,24.09s-.75,.21-1.04-.51"/><path class="o" d="M57.6,24.87s-.61,.19-.86-.46"/></g></g><g><path class="f" d="M100.13,50.28c0,8.95-6.6,16.51-15.83,16.51s-17.99-8.15-17.48-17.09c.52-9.09,7.1-16.25,16.34-16.25s16.98,7.87,16.98,16.82Z"/><path class="s" d="M73.07,51.14c0,4.54,2.82,8.23,7.85,8.77,1.45,.2,1.88-1.13,3.28-1.35,1.63-.26,3-2.1,3.41-3.27,1.3-.51,2.72-2.66,2.64-4.44-.11-2.4-.44-5.26-1.85-6.94-1.54-1.83-3.98-2.75-6.58-2.75-4.97,0-8.75,5.46-8.75,9.99Z"/><path class="j" d="M91.35,51.09c.97-.1,2.53-.19,2.79-2.69s-2.17-4.94-3.01-5.86-6.13-3.67-10.4-2.88c-4.28,.79-8.59,6.05-9.14,8.04s-.94,5.92,1.23,8.74c2.17,2.82,3.21,3.61,5.48,4.53s3.23,1.08,3.93,1.33,2.81-.41,2.81-.41c0,0,2.11-1.8,2.11-1.96s.65-2.87-1.56-1.97-1.24,.23-2.21,.9-3.3,2.59-7.88-1.65c-4.11-3.81-2.05-9.8-.98-11.19,1.1-1.43,2.09-3.97,5.56-4.64s6.73,.82,7.64,1.81,2.14,2.88,2.34,5.27l.2,2.38,1.1,.25Z"/><path class="s" d="M91.35,51.09s-.75,1.24-1.65,2.66-1.23,2.11-1.23,2.11c0,0-1.1,.49-1.22,2.28s.16-.25-.56-.3c-.2-.14-.91,.04-.91,.04,0,0,1.37-1.29,1.83-2.6,2.64-1.66,2.64-4.44,2.64-4.44l1.1,.25Z"/><path class="i" d="M91.65,50.54c.58,.09,1.15-.66,.78-2.81-.37-2.15-1.25-2.62-1.64-2.45s-1.2,.82-.54,2.81c.67,1.98,.39,2.29,1.4,2.45Z"/><path class="j" d="M91.27,49.63c.64-.32,.4-1.18,.29-1.73"/></g><path class="o" d="M73.44,55.27c-.76-.25-1.06,.19-1.06,.19"/><path class="o" d="M73.16,53.94c-.78-.26-1.02,.11-1.08,.17"/><path class="o" d="M73.07,52.46s-.56-.3-1.13,0"/><path class="o" d="M73.16,51.24s-.43-.44-1.22-.13"/><path class="o" d="M73.44,48.59s-.48-.48-1.27-.21"/><path class="o" d="M73.98,47.16s-.45-.65-1.18-.46"/><path class="o" d="M74.51,46.02s-.14-.65-.97-.53"/><path class="o" d="M74.34,44.21s.75-.2,1.04,.47"/><g><path class="r" d="M66.79,83.61c0,8.95-6.6,16.51-15.83,16.51s-17.99-8.15-17.48-17.09c.52-9.09,7.1-16.25,16.34-16.25s16.98,7.87,16.98,16.82Z"/><g><path class="s" d="M57.17,90.09s.5-1.18,.74-2.73,.26-5.76,0-6.31-1.56-3.78-2.25-4.69-.86,.21-.86,.21l1.22,14.1,1.16-.58Z"/><path class="s" d="M42.39,84.21c0,4.83,3.91,8.74,8.74,8.74s6.52-3.91,6.52-8.74-1.69-8.74-6.52-8.74-8.74,3.91-8.74,8.74Z"/><path class="j" d="M54.79,76.57c1.32-.12,1.61-.87,1.63-.98s.37-.97-.43-1.87c-.44-.5-1.09-1.52-2.45-1.86-1.09-.27-2.71,.02-4.46,.48-3.94,1.03-7.85,6.38-7.95,7.27s-1,4.11-.1,7.14,4.15,6.43,5.91,7.42,6.7,.98,7.89,.69,2.94-1.27,3.23-1.75,.94-1.13,0-2.5-2.41,.43-2.74,.77-2.33,1.59-4.46,1.29-4.5-1.76-5.27-2.71-2.25-3.1-2.33-4.3-.45-3.4,.45-4.64,1.59-3.1,3.88-4.08,4.25-1.2,4.25-1.2c0,0,2.47,.89,2.94,.85Z"/><path class="j" d="M54.58,74.4c.14,.25,.54,.86,.13,.91s-2.59-.38-2.78-.74-.4-.65-.37-.81,1.42-.46,2.17,.04,.85,.6,.85,.6Z"/><path class="o" d="M42.68,78.79c.06-.01,1.34-.37,1.86,.87"/><path class="o" d="M41.6,80.96c.06-.01,1.27-.33,1.77,.77"/><path class="o" d="M41.29,83.38s1.07-.7,1.87,.07"/><path class="o" d="M41.29,85.11s1.07-.7,1.87,.07"/><path class="o" d="M42,87.11s.65-.86,1.58-.32"/><path class="o" d="M42.98,89.03s.3-1.04,1.35-.87"/><path class="o" d="M44.12,90.66s.08-1.08,1.15-1.13"/><circle class="j" cx="47.03" cy="75.74" r=".61"/><path class="j" d="M54.06,74.67c-.2-.18-.65-.49-.93-.55"/></g></g><g><line class="q" x1="39.78" y1="50.12" x2="60.47" y2="50.12"/><polygon class="w" points="41.18 51.98 40.39 50.12 41.18 48.27 36.79 50.12 41.18 51.98"/><polygon class="w" points="59.07 51.98 59.86 50.12 59.07 48.27 63.46 50.12 59.07 51.98"/></g><g><line class="n" x1="50.13" y1="60.47" x2="50.13" y2="39.78"/><polygon class="x" points="51.98 59.07 50.13 59.86 48.27 59.07 50.13 63.46 51.98 59.07"/><polygon class="x" points="51.98 41.18 50.13 40.39 48.27 41.18 50.13 36.79 51.98 41.18"/></g><g><line class="n" x1="32.24" y1="34.68" x2="34.68" y2="32.24"/><polygon class="x" points="34.54 35 32.67 34.24 31.92 32.38 30.13 36.79 34.54 35"/><polygon class="x" points="35 34.54 34.24 32.67 32.38 31.92 36.79 30.12 35 34.54"/></g><g><line class="p" x1="65.57" y1="32.24" x2="68.01" y2="34.68"/><polygon class="u" points="65.25 34.54 66.01 32.67 67.87 31.92 63.46 30.12 65.25 34.54"/><polygon class="u" points="65.71 35 67.58 34.24 68.33 32.38 70.13 36.79 65.71 35"/></g><g><line class="k" x1="32.24" y1="65.57" x2="34.68" y2="68.01"/><polygon class="y" points="31.92 67.87 32.67 66.01 34.54 65.25 30.13 63.46 31.92 67.87"/><polygon class="y" points="32.38 68.33 34.24 67.58 35 65.71 36.79 70.12 32.38 68.33"/></g><g><line class="m" x1="65.57" y1="68.01" x2="68.01" y2="65.57"/><polygon class="t" points="67.87 68.33 66.01 67.58 65.25 65.71 63.46 70.12 67.87 68.33"/><polygon class="t" points="68.33 67.87 67.58 66.01 65.71 65.25 70.13 63.46 68.33 67.87"/></g></g><g><line class="h" x1="110.13" y1="50.12" x2="127.14" y2="50.12"/><polygon points="125.74 51.98 126.52 50.12 125.74 48.27 130.13 50.12 125.74 51.98"/></g><g><g><polyline class="h" points="278.14 90.12 151.13 90.12 151.13 13.11"/><polygon points="276.74 88.27 277.52 90.12 276.74 91.98 281.13 90.12 276.74 88.27"/><polygon points="152.98 14.51 151.13 13.73 149.27 14.51 151.13 10.12 152.98 14.51"/></g><text class="v" transform="translate(171.82 103.65)"><tspan x="0" y="0">Cosine similarity</tspan></text><text class="v" transform="translate(144.65 76.44) rotate(-90)"><tspan x="0" y="0">Frequency</tspan></text></g><rect class="w" x="258.17" y="65.09" width="12.5" height="25"/><rect class="t" x="233.17" y="65.09" width="12.5" height="25"/><rect class="y" x="220.67" y="65.09" width="12.5" height="25"/><rect class="u" x="208.17" y="65.09" width="12.5" height="25"/><rect class="x" x="245.67" y="40.09" width="12.5" height="50"/></svg>