<?xml version="1.0" encoding="utf-8" standalone="no"?>
<!DOCTYPE svg PUBLIC "-//W3C//DTD SVG 1.1//EN"
  "http://www.w3.org/Graphics/SVG/1.1/DTD/svg11.dtd">
<svg xmlns:xlink="http://www.w3.org/1999/xlink" width="360pt" height="216pt" viewBox="0 0 360 216" xmlns="http://www.w3.org/2000/svg" version="1.1">
 <metadata>
  <rdf:RDF xmlns:dc="http://purl.org/dc/elements/1.1/" xmlns:cc="http://creativecommons.org/ns#" xmlns:rdf="http://www.w3.org/1999/02/22-rdf-syntax-ns#">
   <cc:Work>
    <dc:type rdf:resource="http://purl.org/dc/dcmitype/StillImage"/>
    <dc:date>2023-05-16T14:26:59.967773</dc:date>
    <dc:format>image/svg+xml</dc:format>
    <dc:creator>
     <cc:Agent>
      <dc:title>Matplotlib v3.5.1, https://matplotlib.org/</dc:title>
     </cc:Agent>
    </dc:creator>
   </cc:Work>
  </rdf:RDF>
 </metadata>
 <defs>
  <style type="text/css">*{stroke-linejoin: round; stroke-linecap: butt}</style>
 </defs>
 <g id="figure_1">
  <g id="patch_1">
   <path d="M 0 216 
L 360 216 
L 360 0 
L 0 0 
z
" style="fill: #ffffff"/>
  </g>
  <g id="axes_1">
   <g id="patch_2">
    <path d="M 45 192.24 
L 324 192.24 
L 324 25.92 
L 45 25.92 
z
" style="fill: #ffffff"/>
   </g>
   <g id="matplotlib.axis_1">
    <g id="xtick_1">
     <g id="line2d_1">
      <defs>
       <path id="m877f63f512" d="M 0 0 
L 0 3.5 
" style="stroke: #000000; stroke-width: 0.8"/>
      </defs>
      <g>
       <use xlink:href="#m877f63f512" x="45" y="192.24" style="stroke: #000000; stroke-width: 0.8"/>
      </g>
     </g>
     <g id="text_1">
      <text style="font: 6px 'sans-serif'; text-anchor: middle" x="45" y="203.799062" transform="rotate(-0, 45, 203.799062)">0</text>
     </g>
    </g>
    <g id="xtick_2">
     <g id="line2d_2">
      <g>
       <use xlink:href="#m877f63f512" x="83.75" y="192.24" style="stroke: #000000; stroke-width: 0.8"/>
      </g>
     </g>
     <g id="text_2">
      <text style="font: 6px 'sans-serif'; text-anchor: middle" x="83.75" y="203.799062" transform="rotate(-0, 83.75, 203.799062)">200</text>
     </g>
    </g>
    <g id="xtick_3">
     <g id="line2d_3">
      <g>
       <use xlink:href="#m877f63f512" x="122.5" y="192.24" style="stroke: #000000; stroke-width: 0.8"/>
      </g>
     </g>
     <g id="text_3">
      <text style="font: 6px 'sans-serif'; text-anchor: middle" x="122.5" y="203.799062" transform="rotate(-0, 122.5, 203.799062)">400</text>
     </g>
    </g>
    <g id="xtick_4">
     <g id="line2d_4">
      <g>
       <use xlink:href="#m877f63f512" x="161.25" y="192.24" style="stroke: #000000; stroke-width: 0.8"/>
      </g>
     </g>
     <g id="text_4">
      <text style="font: 6px 'sans-serif'; text-anchor: middle" x="161.25" y="203.799062" transform="rotate(-0, 161.25, 203.799062)">600</text>
     </g>
    </g>
    <g id="xtick_5">
     <g id="line2d_5">
      <g>
       <use xlink:href="#m877f63f512" x="200" y="192.24" style="stroke: #000000; stroke-width: 0.8"/>
      </g>
     </g>
     <g id="text_5">
      <text style="font: 6px 'sans-serif'; text-anchor: middle" x="200" y="203.799062" transform="rotate(-0, 200, 203.799062)">800</text>
     </g>
    </g>
    <g id="xtick_6">
     <g id="line2d_6">
      <g>
       <use xlink:href="#m877f63f512" x="238.75" y="192.24" style="stroke: #000000; stroke-width: 0.8"/>
      </g>
     </g>
     <g id="text_6">
      <text style="font: 6px 'sans-serif'; text-anchor: middle" x="238.75" y="203.799062" transform="rotate(-0, 238.75, 203.799062)">1000</text>
     </g>
    </g>
    <g id="xtick_7">
     <g id="line2d_7">
      <g>
       <use xlink:href="#m877f63f512" x="277.5" y="192.24" style="stroke: #000000; stroke-width: 0.8"/>
      </g>
     </g>
     <g id="text_7">
      <text style="font: 6px 'sans-serif'; text-anchor: middle" x="277.5" y="203.799062" transform="rotate(-0, 277.5, 203.799062)">1200</text>
     </g>
    </g>
    <g id="xtick_8">
     <g id="line2d_8">
      <g>
       <use xlink:href="#m877f63f512" x="316.25" y="192.24" style="stroke: #000000; stroke-width: 0.8"/>
      </g>
     </g>
     <g id="text_8">
      <text style="font: 6px 'sans-serif'; text-anchor: middle" x="316.25" y="203.799062" transform="rotate(-0, 316.25, 203.799062)">1400</text>
     </g>
    </g>
    <g id="text_9">
     <text style="font: 8px 'sans-serif'; text-anchor: middle" x="184.5" y="215.125625" transform="rotate(-0, 184.5, 215.125625)">Acquisition time (min)</text>
    </g>
   </g>
   <g id="matplotlib.axis_2">
    <g id="ytick_1">
     <g id="line2d_9">
      <defs>
       <path id="md327535a56" d="M 0 0 
L -3.5 0 
" style="stroke: #000000; stroke-width: 0.8"/>
      </defs>
      <g>
       <use xlink:href="#md327535a56" x="45" y="176.627597" style="stroke: #000000; stroke-width: 0.8"/>
      </g>
     </g>
     <g id="text_10">
      <text style="font: 6px 'sans-serif'; text-anchor: end" x="38" y="178.907128" transform="rotate(-0, 38, 178.907128)">0.92</text>
     </g>
    </g>
    <g id="ytick_2">
     <g id="line2d_10">
      <g>
       <use xlink:href="#md327535a56" x="45" y="157.384591" style="stroke: #000000; stroke-width: 0.8"/>
      </g>
     </g>
     <g id="text_11">
      <text style="font: 6px 'sans-serif'; text-anchor: end" x="38" y="159.664122" transform="rotate(-0, 38, 159.664122)">0.93</text>
     </g>
    </g>
    <g id="ytick_3">
     <g id="line2d_11">
      <g>
       <use xlink:href="#md327535a56" x="45" y="138.141584" style="stroke: #000000; stroke-width: 0.8"/>
      </g>
     </g>
     <g id="text_12">
      <text style="font: 6px 'sans-serif'; text-anchor: end" x="38" y="140.421116" transform="rotate(-0, 38, 140.421116)">0.94</text>
     </g>
    </g>
    <g id="ytick_4">
     <g id="line2d_12">
      <g>
       <use xlink:href="#md327535a56" x="45" y="118.898578" style="stroke: #000000; stroke-width: 0.8"/>
      </g>
     </g>
     <g id="text_13">
      <text style="font: 6px 'sans-serif'; text-anchor: end" x="38" y="121.178109" transform="rotate(-0, 38, 121.178109)">0.95</text>
     </g>
    </g>
    <g id="ytick_5">
     <g id="line2d_13">
      <g>
       <use xlink:href="#md327535a56" x="45" y="99.655572" style="stroke: #000000; stroke-width: 0.8"/>
      </g>
     </g>
     <g id="text_14">
      <text style="font: 6px 'sans-serif'; text-anchor: end" x="38" y="101.935103" transform="rotate(-0, 38, 101.935103)">0.96</text>
     </g>
    </g>
    <g id="ytick_6">
     <g id="line2d_14">
      <g>
       <use xlink:href="#md327535a56" x="45" y="80.412566" style="stroke: #000000; stroke-width: 0.8"/>
      </g>
     </g>
     <g id="text_15">
      <text style="font: 6px 'sans-serif'; text-anchor: end" x="38" y="82.692097" transform="rotate(-0, 38, 82.692097)">0.97</text>
     </g>
    </g>
    <g id="ytick_7">
     <g id="line2d_15">
      <g>
       <use xlink:href="#md327535a56" x="45" y="61.16956" style="stroke: #000000; stroke-width: 0.8"/>
      </g>
     </g>
     <g id="text_16">
      <text style="font: 6px 'sans-serif'; text-anchor: end" x="38" y="63.449091" transform="rotate(-0, 38, 63.449091)">0.98</text>
     </g>
    </g>
    <g id="ytick_8">
     <g id="line2d_16">
      <g>
       <use xlink:href="#md327535a56" x="45" y="41.926554" style="stroke: #000000; stroke-width: 0.8"/>
      </g>
     </g>
     <g id="text_17">
      <text style="font: 6px 'sans-serif'; text-anchor: end" x="38" y="44.206085" transform="rotate(-0, 38, 44.206085)">0.99</text>
     </g>
    </g>
    <g id="text_18">
     <text style="font: 8px 'sans-serif'; text-anchor: middle" x="18.976875" y="109.08" transform="rotate(-90, 18.976875, 109.08)">Average cosine similarity φ</text>
    </g>
   </g>
   <g id="line2d_17">
    <path d="M 45 52.519171 
L 45.775 53.400963 
L 46.55 50.24438 
L 47.325 49.493343 
L 48.1 51.959333 
L 48.875 52.020467 
L 50.425 50.080248 
L 51.2 50.064879 
L 51.975 50.644329 
L 52.75 48.652382 
L 53.525 48.122481 
L 54.3 47.035151 
L 55.075 47.321665 
L 55.85 44.536471 
L 56.625 44.812662 
L 57.4 44.749005 
L 58.175 44.554823 
L 58.95 43.511078 
L 59.725 43.077981 
L 60.5 44.01976 
L 61.275 43.224564 
L 62.05 43.226514 
L 62.825 42.191371 
L 63.6 44.228394 
L 64.375 44.831243 
L 65.15 44.973009 
L 65.925 44.939747 
L 66.7 44.501833 
L 67.475 48.089563 
L 68.25 48.043799 
L 69.025 46.82537 
L 69.8 44.780088 
L 70.575 44.793737 
L 71.35 44.998701 
L 72.125 44.83434 
L 72.9 44.128378 
L 73.675 42.930824 
L 74.45 41.218968 
L 75.225 40.658098 
L 76 41.491144 
L 76.775 40.382825 
L 77.55 38.886026 
L 78.325 38.341673 
L 79.1 37.114412 
L 79.875 36.75151 
L 80.65 36.149923 
L 81.425 35.952299 
L 82.2 35.128429 
L 82.975 34.760136 
L 83.75 35.983038 
L 84.525 36.360736 
L 86.075 36.611579 
L 86.85 38.521862 
L 88.4 41.354655 
L 89.175 43.473916 
L 91.5 54.021475 
L 92.275 54.662748 
L 93.05 55.549472 
L 93.825 54.961993 
L 94.6 52.715074 
L 95.375 50.894714 
L 96.15 51.084767 
L 96.925 49.212678 
L 97.7 46.91988 
L 98.475 47.107869 
L 99.25 45.182905 
L 100.8 43.325498 
L 101.575 43.182355 
L 102.35 44.214745 
L 103.125 44.272782 
L 103.9 45.314577 
L 104.675 43.679568 
L 106.225 39.818285 
L 107 39.519613 
L 107.775 38.589648 
L 108.55 39.55494 
L 109.325 38.912406 
L 110.1 39.558954 
L 110.875 41.828813 
L 111.65 42.87577 
L 112.425 42.076789 
L 113.2 43.911945 
L 113.975 41.964615 
L 114.75 43.146685 
L 115.525 41.583132 
L 116.3 43.546634 
L 117.85 45.994388 
L 119.4 45.310678 
L 120.175 42.695122 
L 120.95 42.752011 
L 121.725 41.262668 
L 122.5 41.32816 
L 123.275 39.991593 
L 124.05 41.648165 
L 124.825 39.879304 
L 125.6 41.219083 
L 126.375 40.539845 
L 127.15 38.32183 
L 127.925 39.184697 
L 128.7 39.690168 
L 129.475 40.940254 
L 130.25 41.098192 
L 131.025 41.737055 
L 131.8 40.026002 
L 132.575 39.938717 
L 133.35 38.156895 
L 134.125 38.548472 
L 134.9 36.968173 
L 135.675 34.794431 
L 136.45 36.009074 
L 137.225 35.51645 
L 138 34.089157 
L 138.775 33.48 
L 139.55 33.826271 
L 140.325 34.871851 
L 141.1 34.877815 
L 141.875 34.217274 
L 142.65 34.501953 
L 144.2 34.756466 
L 144.975 34.681224 
L 145.75 35.547533 
L 146.525 35.602243 
L 147.3 35.986938 
L 148.075 35.040227 
L 148.85 35.7533 
L 149.625 36.209106 
L 150.4 35.959755 
L 151.175 35.969619 
L 151.95 37.960878 
L 152.725 37.438776 
L 153.5 38.066973 
L 154.275 38.048736 
L 155.05 37.774609 
L 155.825 39.142603 
L 156.6 39.416042 
L 158.15 41.055868 
L 159.7 42.325223 
L 160.475 41.122622 
L 161.25 43.08578 
L 162.8 43.347061 
L 163.575 43.867213 
L 164.35 43.939357 
L 165.125 47.24562 
L 165.9 48.505799 
L 166.675 48.22892 
L 167.45 49.185036 
L 168.225 49.275418 
L 169 48.602718 
L 169.775 47.688811 
L 170.55 49.777448 
L 171.325 49.790982 
L 172.1 48.92777 
L 172.875 49.333684 
L 173.65 50.007416 
L 174.425 48.292348 
L 175.975 49.718723 
L 176.75 47.644079 
L 177.525 48.878336 
L 178.3 47.854319 
L 179.075 47.132529 
L 179.85 47.295858 
L 180.625 46.661009 
L 181.4 46.426797 
L 182.175 46.562369 
L 182.95 47.833444 
L 183.725 47.195383 
L 184.5 49.086167 
L 185.275 48.189349 
L 186.825 49.424524 
L 187.6 50.876706 
L 188.375 50.82773 
L 189.15 50.338202 
L 189.925 48.881203 
L 191.475 51.626826 
L 192.25 51.355452 
L 193.025 51.587944 
L 194.575 53.078664 
L 195.35 52.515845 
L 196.125 52.245618 
L 196.9 52.474554 
L 197.675 53.07465 
L 198.45 57.530982 
L 199.225 57.276813 
L 200 58.416445 
L 200.775 57.070587 
L 201.55 60.861561 
L 202.325 60.92258 
L 203.1 61.318056 
L 203.875 62.384396 
L 204.65 63.217672 
L 205.425 61.158627 
L 206.2 62.566421 
L 206.975 62.741793 
L 207.75 64.435527 
L 208.525 64.806573 
L 209.3 67.666664 
L 210.075 67.792372 
L 210.85 69.755071 
L 212.4 70.032639 
L 213.175 71.210006 
L 213.95 73.251388 
L 214.725 72.708067 
L 215.5 74.296394 
L 216.275 77.794661 
L 217.05 77.879766 
L 217.825 78.536293 
L 218.6 81.051489 
L 219.375 82.429691 
L 220.15 80.72162 
L 221.7 84.469467 
L 222.475 83.394869 
L 223.25 81.027976 
L 224.025 82.504245 
L 224.8 85.767726 
L 225.575 85.408609 
L 226.35 89.009185 
L 227.125 86.076835 
L 228.675 93.418835 
L 229.45 95.139638 
L 230.225 95.780911 
L 231 98.104906 
L 231.775 102.601383 
L 232.55 105.755787 
L 233.325 107.991236 
L 234.1 105.724245 
L 234.875 113.523544 
L 235.65 114.167339 
L 236.425 112.393202 
L 237.2 115.639708 
L 237.975 121.067985 
L 238.75 120.553453 
L 239.525 125.593939 
L 240.3 122.839713 
L 241.075 124.241314 
L 241.85 131.191279 
L 242.625 131.502797 
L 243.4 129.172034 
L 244.175 133.606574 
L 244.95 132.797385 
L 245.725 130.772749 
L 246.5 134.175473 
L 247.275 137.072266 
L 248.05 144.687247 
L 248.825 146.644211 
L 249.6 146.717503 
L 250.375 143.069442 
L 251.15 155.140525 
L 251.925 159.269282 
L 252.7 169.643878 
L 253.475 157.660194 
L 254.25 170.006207 
L 255.025 169.818677 
L 255.8 167.687372 
L 256.575 158.133206 
L 257.35 164.699738 
L 258.9 158.110496 
L 259.675 158.749589 
L 260.45 153.468698 
L 261.225 153.102699 
L 262.775 165.319103 
L 263.55 163.978407 
L 264.325 163.13802 
L 265.1 163.782046 
L 265.875 170.161507 
L 266.65 154.982587 
L 267.425 160.072163 
L 268.2 168.061285 
L 268.975 163.72722 
L 269.75 166.21638 
L 270.525 146.19586 
L 271.3 167.30933 
L 272.075 143.525134 
L 272.85 152.910352 
L 273.625 154.169957 
L 274.4 152.479205 
L 275.175 154.777623 
L 275.95 155.24272 
L 276.725 171.957666 
L 277.5 153.440482 
L 278.275 153.459637 
L 279.05 161.391755 
L 279.825 156.915694 
L 280.6 175.19167 
L 281.375 173.870931 
L 282.15 156.822445 
L 282.925 164.088058 
L 283.7 184.68 
L 284.475 161.939205 
L 285.25 165.731899 
L 286.025 154.709378 
L 286.8 174.32777 
L 287.575 157.529554 
L 288.35 171.661288 
L 289.125 169.173619 
L 289.9 176.263171 
L 290.675 162.97343 
L 291.45 154.092536 
L 292.225 167.468071 
L 293 184.140349 
L 293.775 171.16614 
L 294.55 174.534569 
L 295.325 167.093699 
L 296.1 173.952136 
L 296.875 152.513843 
L 297.65 169.203785 
L 298.425 169.273979 
L 299.2 171.471694 
L 299.975 172.555812 
L 300.75 155.847863 
L 301.525 170.426802 
L 302.3 172.67395 
L 303.075 158.870594 
L 303.85 181.878634 
L 304.625 168.841112 
L 305.4 173.387482 
L 306.175 160.840061 
L 306.95 160.399509 
L 307.725 169.547991 
L 308.5 170.984689 
L 309.275 172.855975 
L 310.05 161.327983 
L 310.825 179.252985 
L 311.6 153.696372 
L 312.375 171.027356 
L 313.15 163.000843 
L 313.925 159.938541 
L 314.7 170.944201 
L 315.475 173.787661 
L 316.25 157.940056 
L 317.025 163.783881 
L 317.8 159.460368 
L 318.575 170.037404 
L 319.35 157.78097 
L 320.125 157.064342 
L 320.9 174.073371 
L 321.675 179.437188 
L 322.45 150.461221 
L 323.225 163.331973 
L 323.225 163.331973 
" clip-path="url(#pcb2ddf210b)" style="fill: none; stroke: #431c53; stroke-linecap: square"/>
   </g>
   <g id="patch_3">
    <path d="M 45 192.24 
L 45 25.92 
" style="fill: none; stroke: #000000; stroke-width: 0.8; stroke-linejoin: miter; stroke-linecap: square"/>
   </g>
   <g id="patch_4">
    <path d="M 324 192.24 
L 324 25.92 
" style="fill: none; stroke: #000000; stroke-width: 0.8; stroke-linejoin: miter; stroke-linecap: square"/>
   </g>
   <g id="patch_5">
    <path d="M 45 192.24 
L 324 192.24 
" style="fill: none; stroke: #000000; stroke-width: 0.8; stroke-linejoin: miter; stroke-linecap: square"/>
   </g>
   <g id="patch_6">
    <path d="M 45 25.92 
L 324 25.92 
" style="fill: none; stroke: #000000; stroke-width: 0.8; stroke-linejoin: miter; stroke-linecap: square"/>
   </g>
  </g>
  <g id="axes_2">
   <g id="matplotlib.axis_3">
    <g id="ytick_9">
     <g id="line2d_18">
      <defs>
       <path id="m7a1b52728f" d="M 0 0 
L 3.5 0 
" style="stroke: #000000; stroke-width: 0.8"/>
      </defs>
      <g>
       <use xlink:href="#m7a1b52728f" x="324" y="163.126163" style="stroke: #000000; stroke-width: 0.8"/>
      </g>
     </g>
     <g id="text_19">
      <text style="font: 6px 'sans-serif'; text-anchor: start" x="331" y="165.405695" transform="rotate(-0, 331, 165.405695)">0.1</text>
     </g>
    </g>
    <g id="ytick_10">
     <g id="line2d_19">
      <g>
       <use xlink:href="#m7a1b52728f" x="324" y="129.948847" style="stroke: #000000; stroke-width: 0.8"/>
      </g>
     </g>
     <g id="text_20">
      <text style="font: 6px 'sans-serif'; text-anchor: start" x="331" y="132.228378" transform="rotate(-0, 331, 132.228378)">0.2</text>
     </g>
    </g>
    <g id="ytick_11">
     <g id="line2d_20">
      <g>
       <use xlink:href="#m7a1b52728f" x="324" y="96.77153" style="stroke: #000000; stroke-width: 0.8"/>
      </g>
     </g>
     <g id="text_21">
      <text style="font: 6px 'sans-serif'; text-anchor: start" x="331" y="99.051062" transform="rotate(-0, 331, 99.051062)">0.3</text>
     </g>
    </g>
    <g id="ytick_12">
     <g id="line2d_21">
      <g>
       <use xlink:href="#m7a1b52728f" x="324" y="63.594214" style="stroke: #000000; stroke-width: 0.8"/>
      </g>
     </g>
     <g id="text_22">
      <text style="font: 6px 'sans-serif'; text-anchor: start" x="331" y="65.873745" transform="rotate(-0, 331, 65.873745)">0.4</text>
     </g>
    </g>
    <g id="ytick_13">
     <g id="line2d_22">
      <g>
       <use xlink:href="#m7a1b52728f" x="324" y="30.416897" style="stroke: #000000; stroke-width: 0.8"/>
      </g>
     </g>
     <g id="text_23">
      <text style="font: 6px 'sans-serif'; text-anchor: start" x="331" y="32.696429" transform="rotate(-0, 331, 32.696429)">0.5</text>
     </g>
    </g>
    <g id="text_24">
     <text style="font: 8px 'sans-serif'; text-anchor: middle" x="350.620625" y="109.08" transform="rotate(-90, 350.620625, 109.08)">Similarity distribution range</text>
    </g>
   </g>
   <g id="line2d_23">
    <path d="M 45 165.14568 
L 45.775 164.405197 
L 46.55 162.126894 
L 47.325 167.773728 
L 48.1 167.091859 
L 48.875 164.924296 
L 49.65 164.027965 
L 50.425 166.422922 
L 51.2 170.865386 
L 51.975 168.926702 
L 52.75 173.562272 
L 53.525 175.320467 
L 54.3 173.041353 
L 55.075 174.223812 
L 55.85 174.354467 
L 56.625 174.735338 
L 57.4 172.510348 
L 58.175 170.708984 
L 58.95 177.737572 
L 59.725 180.791163 
L 60.5 175.262802 
L 61.275 173.292854 
L 62.05 178.186549 
L 62.825 177.106248 
L 63.6 177.464101 
L 64.375 177.427774 
L 65.15 179.766174 
L 65.925 174.663514 
L 66.7 170.348818 
L 67.475 171.572291 
L 68.25 169.911944 
L 69.025 176.728067 
L 70.575 181.459071 
L 71.35 180.059243 
L 72.125 176.39169 
L 72.9 176.433535 
L 73.675 178.972911 
L 74.45 177.874654 
L 75.225 179.854352 
L 76 175.518516 
L 76.775 175.092261 
L 77.55 176.767083 
L 78.325 175.185224 
L 79.1 179.389733 
L 79.875 179.425585 
L 81.425 181.697462 
L 82.975 184.597082 
L 83.75 183.772139 
L 84.525 181.857404 
L 85.3 180.321561 
L 86.075 177.266111 
L 87.625 168.244655 
L 88.4 169.861161 
L 89.175 166.970735 
L 89.95 167.728917 
L 90.725 166.568527 
L 91.5 166.234207 
L 92.275 168.270758 
L 93.05 169.412619 
L 93.825 166.315523 
L 94.6 169.243185 
L 95.375 168.01544 
L 96.15 167.497448 
L 96.925 167.453587 
L 97.7 174.188236 
L 98.475 173.662295 
L 99.25 166.728687 
L 100.025 170.576332 
L 100.8 165.197392 
L 101.575 169.698253 
L 102.35 169.56384 
L 103.125 159.25569 
L 103.9 170.308437 
L 104.675 171.555917 
L 105.45 171.087225 
L 106.225 174.292511 
L 107 170.523354 
L 107.775 176.224788 
L 109.325 172.713895 
L 110.1 179.433238 
L 110.875 172.14425 
L 111.65 175.178817 
L 112.425 173.94073 
L 113.2 171.220114 
L 113.975 171.228479 
L 114.75 172.107942 
L 115.525 175.831874 
L 116.3 171.163399 
L 117.075 172.639876 
L 117.85 173.19202 
L 118.625 170.711772 
L 119.4 172.185402 
L 120.175 177.320038 
L 120.95 178.823113 
L 121.725 175.770808 
L 122.5 180.211413 
L 123.275 177.827688 
L 124.05 175.943485 
L 124.825 177.791776 
L 125.6 171.50025 
L 127.15 175.358376 
L 128.7 173.510203 
L 129.475 170.98291 
L 130.25 173.025295 
L 131.025 169.77322 
L 131.8 170.262618 
L 132.575 174.817721 
L 133.35 176.131528 
L 134.125 175.569951 
L 134.9 176.562726 
L 135.675 181.66325 
L 136.45 178.710434 
L 137.225 176.962937 
L 138 178.526287 
L 138.775 181.298833 
L 139.55 183.356227 
L 140.325 182.442592 
L 141.1 178.769265 
L 141.875 182.254549 
L 142.65 182.937269 
L 143.425 181.296638 
L 144.2 182.228683 
L 144.975 181.505088 
L 145.75 179.755199 
L 146.525 177.57587 
L 147.3 177.321699 
L 148.075 181.599811 
L 148.85 183.589219 
L 149.625 184.68 
L 150.4 180.333644 
L 151.175 182.137223 
L 152.725 180.435605 
L 153.5 177.090013 
L 154.275 176.997801 
L 155.05 178.191473 
L 155.825 176.794591 
L 156.6 174.528232 
L 157.375 174.193141 
L 158.15 170.657647 
L 158.925 169.946807 
L 159.7 173.083731 
L 160.475 172.019725 
L 161.25 169.756629 
L 162.025 165.242124 
L 162.8 167.241082 
L 163.575 166.927902 
L 164.35 170.40935 
L 165.125 162.43956 
L 165.9 151.851688 
L 166.675 158.271141 
L 167.45 153.915312 
L 168.225 162.99198 
L 169 165.488345 
L 169.775 165.961487 
L 170.55 157.688108 
L 171.325 162.995065 
L 172.1 161.752529 
L 172.875 162.900659 
L 173.65 162.657957 
L 174.425 159.958066 
L 175.2 154.362173 
L 175.975 158.998374 
L 176.75 166.557572 
L 177.525 161.269756 
L 178.3 166.612843 
L 179.075 169.265867 
L 179.85 169.141481 
L 180.625 168.882762 
L 181.4 173.059664 
L 182.95 162.078088 
L 183.725 163.373405 
L 184.5 160.756352 
L 185.275 155.471879 
L 186.825 159.935542 
L 188.375 160.065861 
L 189.15 159.463112 
L 189.925 164.795678 
L 190.7 155.691285 
L 191.475 156.032882 
L 192.25 155.537612 
L 193.025 157.971744 
L 193.8 156.822902 
L 194.575 156.656177 
L 195.35 162.651372 
L 196.125 159.764724 
L 196.9 167.504033 
L 198.45 155.980616 
L 199.225 159.211413 
L 200 154.773497 
L 200.775 156.072828 
L 201.55 150.489888 
L 202.325 150.491826 
L 203.1 142.549365 
L 203.875 147.90313 
L 204.65 137.264101 
L 205.425 135.980274 
L 206.2 141.298543 
L 206.975 143.240924 
L 207.75 146.016199 
L 208.525 139.945403 
L 209.3 145.91578 
L 210.075 139.146445 
L 210.85 140.313578 
L 211.625 138.865518 
L 212.4 134.353346 
L 213.175 140.919669 
L 213.95 135.366925 
L 214.725 131.531343 
L 215.5 128.871694 
L 216.275 122.783576 
L 217.05 130.170491 
L 217.825 126.027662 
L 218.6 124.502142 
L 219.375 122.570894 
L 220.15 123.499044 
L 220.925 125.384433 
L 221.7 133.0395 
L 222.475 123.384308 
L 223.25 132.560584 
L 224.025 132.192607 
L 224.8 135.406911 
L 225.575 117.416403 
L 226.35 124.386793 
L 227.125 126.866704 
L 227.9 123.776233 
L 228.675 114.733143 
L 229.45 127.609719 
L 230.225 130.199383 
L 231 126.328482 
L 231.775 118.352127 
L 232.55 95.797082 
L 233.325 98.601367 
L 234.1 92.674852 
L 234.875 95.432131 
L 235.65 81.892076 
L 236.425 96.023904 
L 237.2 89.473599 
L 237.975 85.045472 
L 238.75 84.049474 
L 239.525 78.898444 
L 240.3 82.709524 
L 241.075 93.689993 
L 241.85 68.575382 
L 242.625 92.569509 
L 243.4 86.04596 
L 244.175 98.327955 
L 244.95 103.881727 
L 245.725 101.725101 
L 246.5 104.626818 
L 247.275 105.698417 
L 248.05 83.297916 
L 248.825 78.357295 
L 249.6 85.825486 
L 250.375 97.030226 
L 251.15 66.399574 
L 251.925 49.319498 
L 252.7 52.122359 
L 253.475 82.900217 
L 254.25 41.426811 
L 255.025 88.133967 
L 255.8 72.917032 
L 256.575 84.241036 
L 257.35 56.462446 
L 258.125 92.371282 
L 258.9 92.627016 
L 259.675 80.519537 
L 260.45 74.922497 
L 261.225 90.776826 
L 262 75.452236 
L 262.775 66.235143 
L 263.55 70.598447 
L 264.325 91.068194 
L 265.1 85.112234 
L 265.875 75.083705 
L 266.65 50.992442 
L 268.2 86.756385 
L 268.975 66.644372 
L 269.75 87.503196 
L 270.525 85.248089 
L 271.3 70.588045 
L 272.075 81.788849 
L 272.85 86.493731 
L 273.625 83.784861 
L 274.4 78.312761 
L 275.175 90.376358 
L 276.725 84.901667 
L 277.5 89.892399 
L 278.275 69.062506 
L 279.05 94.781368 
L 279.825 103.551619 
L 280.6 54.794406 
L 282.15 95.116914 
L 282.925 60.586153 
L 283.7 56.70139 
L 284.475 86.508107 
L 285.25 100.425058 
L 286.025 61.922682 
L 286.8 68.399067 
L 287.575 101.414353 
L 288.35 63.493546 
L 289.125 78.983794 
L 289.9 57.502247 
L 290.675 57.225671 
L 291.45 96.6982 
L 292.225 68.891786 
L 293 33.48 
L 293.775 53.176022 
L 294.55 80.991255 
L 295.325 39.511403 
L 296.1 66.631636 
L 296.875 100.435084 
L 297.65 69.00929 
L 298.425 71.371441 
L 299.2 47.463336 
L 299.975 74.954276 
L 300.75 73.193193 
L 301.525 66.90489 
L 302.3 88.909215 
L 303.075 84.080501 
L 303.85 56.741316 
L 304.625 82.05801 
L 305.4 82.335239 
L 306.175 83.954434 
L 306.95 79.039322 
L 307.725 75.40614 
L 308.5 76.219158 
L 309.275 69.123057 
L 310.05 104.906024 
L 310.825 84.008499 
L 311.6 109.325608 
L 312.375 77.547895 
L 313.15 101.136274 
L 313.925 77.499722 
L 314.7 37.618301 
L 315.475 50.610919 
L 316.25 69.760769 
L 317.025 94.823825 
L 317.8 70.603628 
L 318.575 82.854437 
L 319.35 79.387485 
L 320.125 63.003496 
L 320.9 60.503315 
L 321.675 81.60494 
L 322.45 80.061266 
L 323.225 69.131739 
L 323.225 69.131739 
" clip-path="url(#pcb2ddf210b)" style="fill: none; stroke: #1f4497; stroke-linecap: square"/>
   </g>
   <g id="patch_7">
    <path d="M 45 192.24 
L 45 25.92 
" style="fill: none; stroke: #000000; stroke-width: 0.8; stroke-linejoin: miter; stroke-linecap: square"/>
   </g>
   <g id="patch_8">
    <path d="M 324 192.24 
L 324 25.92 
" style="fill: none; stroke: #000000; stroke-width: 0.8; stroke-linejoin: miter; stroke-linecap: square"/>
   </g>
   <g id="patch_9">
    <path d="M 45 192.24 
L 324 192.24 
" style="fill: none; stroke: #000000; stroke-width: 0.8; stroke-linejoin: miter; stroke-linecap: square"/>
   </g>
   <g id="patch_10">
    <path d="M 45 25.92 
L 324 25.92 
" style="fill: none; stroke: #000000; stroke-width: 0.8; stroke-linejoin: miter; stroke-linecap: square"/>
   </g>
  </g>
 </g>
 <defs>
  <clipPath id="pcb2ddf210b">
   <rect x="45" y="25.92" width="279" height="166.32"/>
  </clipPath>
 </defs>
</svg>
