<?xml version="1.0" encoding="utf-8" standalone="no"?>
<!DOCTYPE svg PUBLIC "-//W3C//DTD SVG 1.1//EN"
  "http://www.w3.org/Graphics/SVG/1.1/DTD/svg11.dtd">
<svg xmlns:xlink="http://www.w3.org/1999/xlink" width="263.9775pt" height="260.709375pt" viewBox="0 0 263.9775 260.709375" xmlns="http://www.w3.org/2000/svg" version="1.1">
 <metadata>
  <rdf:RDF xmlns:dc="http://purl.org/dc/elements/1.1/" xmlns:cc="http://creativecommons.org/ns#" xmlns:rdf="http://www.w3.org/1999/02/22-rdf-syntax-ns#">
   <cc:Work>
    <dc:type rdf:resource="http://purl.org/dc/dcmitype/StillImage"/>
    <dc:date>2023-07-28T13:03:34.601349</dc:date>
    <dc:format>image/svg+xml</dc:format>
    <dc:creator>
     <cc:Agent>
      <dc:title>Matplotlib v3.7.0, https://matplotlib.org/</dc:title>
     </cc:Agent>
    </dc:creator>
   </cc:Work>
  </rdf:RDF>
 </metadata>
 <defs>
  <style type="text/css">*{stroke-linejoin: round; stroke-linecap: butt}</style>
 </defs>
 <g id="figure_1">
  <g id="patch_1">
   <path d="M 0 260.709375 
L 263.9775 260.709375 
L 263.9775 0 
L 0 0 
z
" style="fill: #ffffff"/>
  </g>
  <g id="axes_1">
   <g id="patch_2">
    <path d="M 33.5775 228.96 
L 256.7775 228.96 
L 256.7775 7.2 
L 33.5775 7.2 
z
" style="fill: #ffffff"/>
   </g>
   <g id="PolyCollection_1">
    <path d="M 42.5055 221.86368 
L 42.5055 213.58464 
L 42.8031 213.58464 
L 43.1007 212.6976 
L 43.3983 213.28896 
L 43.6959 212.10624 
L 43.9935 210.62784 
L 44.2911 211.51488 
L 44.5887 210.92352 
L 44.8863 208.55808 
L 45.1839 208.2624 
L 45.4815 211.81056 
L 45.7791 210.62784 
L 46.0767 210.03648 
L 46.3743 205.3056 
L 46.6719 208.2624 
L 46.9695 207.67104 
L 47.2671 204.12288 
L 47.5647 203.53152 
L 47.8623 206.19264 
L 48.1599 209.7408 
L 48.4575 210.33216 
L 48.7551 205.89696 
L 49.0527 204.41856 
L 49.3503 201.46176 
L 49.6479 207.67104 
L 49.9455 201.75744 
L 50.2431 193.18272 
L 50.5407 203.53152 
L 50.8383 197.32224 
L 51.1359 199.09632 
L 51.4335 181.05984 
L 51.7311 183.42528 
L 52.0287 184.31232 
L 52.3263 190.5216 
L 52.6239 176.62464 
L 52.9215 179.87712 
L 53.2191 187.26912 
L 53.5167 176.62464 
L 53.8143 184.608 
L 54.1119 162.13632 
L 54.4095 173.96352 
L 54.7071 184.608 
L 55.0047 183.72096 
L 55.3023 170.11968 
L 55.5999 160.06656 
L 55.8975 144.98688 
L 56.1951 171.00672 
L 56.4927 151.49184 
L 56.7903 103.00032 
L 57.0879 163.9104 
L 57.3855 186.67776 
L 57.6831 182.53824 
L 57.9807 170.71104 
L 58.2783 179.28576 
L 58.5759 178.39872 
L 58.8735 184.01664 
L 59.1711 170.71104 
L 59.4687 171.3024 
L 59.7663 161.24928 
L 60.0639 170.71104 
L 60.3615 156.22272 
L 60.6591 175.44192 
L 60.9567 174.85056 
L 61.2543 165.68448 
L 61.5519 168.3456 
L 61.8495 152.0832 
L 62.1471 166.57152 
L 62.4447 178.39872 
L 62.7423 176.32896 
L 63.0399 128.72448 
L 63.3375 149.42208 
L 63.6351 167.16288 
L 63.9327 163.61472 
L 64.2303 164.20608 
L 64.5279 144.09984 
L 64.8255 154.15296 
L 65.1231 137.89056 
L 65.4207 148.53504 
L 65.7183 100.3392 
L 66.0159 145.87392 
L 66.3135 150.90048 
L 66.6111 151.49184 
L 66.9087 146.46528 
L 67.2063 119.26272 
L 67.5039 150.30912 
L 67.8015 137.89056 
L 68.0991 131.97696 
L 68.3967 170.71104 
L 68.6943 137.89056 
L 68.9919 144.98688 
L 69.2895 140.55168 
L 69.5871 147.648 
L 69.8847 137.00352 
L 70.1823 133.15968 
L 70.4799 146.1696 
L 70.7775 148.23936 
L 71.0751 167.16288 
L 71.3727 161.24928 
L 71.6703 147.05664 
L 71.9679 161.54496 
L 72.2655 158.88384 
L 72.5631 147.94368 
L 72.8607 153.85728 
L 73.1583 153.5616 
L 73.4559 154.15296 
L 73.7535 152.0832 
L 74.0511 145.57824 
L 74.3487 154.15296 
L 74.6463 157.70112 
L 74.9439 151.49184 
L 75.2415 138.7776 
L 75.5391 164.79744 
L 75.8367 144.98688 
L 76.1343 151.19616 
L 76.4319 162.432 
L 76.7295 144.09984 
L 77.0271 142.32576 
L 77.3247 135.22944 
L 77.6223 133.75104 
L 77.9199 135.8208 
L 78.2175 130.79424 
L 78.5151 131.97696 
L 78.8127 141.7344 
L 79.1103 128.72448 
L 79.4079 145.28256 
L 79.7055 137.00352 
L 80.0031 139.07328 
L 80.3007 139.07328 
L 80.5983 142.62144 
L 80.8959 142.32576 
L 81.1935 152.37888 
L 81.4911 147.35232 
L 81.7887 136.70784 
L 82.0863 145.28256 
L 82.3839 146.76096 
L 82.6815 131.97696 
L 82.9791 147.648 
L 83.2767 137.59488 
L 83.5743 127.24608 
L 83.8719 139.96032 
L 84.1695 148.83072 
L 84.4671 149.42208 
L 84.7647 144.09984 
L 85.0623 150.01344 
L 85.3599 131.3856 
L 85.6575 160.65792 
L 85.9551 157.10976 
L 86.2527 151.78752 
L 86.5503 143.80416 
L 86.8479 128.4288 
L 87.1455 134.63808 
L 87.4431 131.08992 
L 87.7407 140.84736 
L 88.0383 129.31584 
L 88.3359 143.50848 
L 88.6335 130.49856 
L 88.9311 118.96704 
L 89.2287 134.3424 
L 89.5263 129.31584 
L 89.8239 133.45536 
L 90.1215 129.61152 
L 90.4191 129.9072 
L 90.7167 131.97696 
L 91.0143 132.864 
L 91.3119 128.72448 
L 91.6095 132.864 
L 91.9071 130.49856 
L 92.2047 129.02016 
L 92.5023 143.50848 
L 92.7999 136.70784 
L 93.0975 126.9504 
L 93.3951 131.68128 
L 93.6927 128.13312 
L 93.9903 134.63808 
L 94.2879 134.63808 
L 94.5855 141.43872 
L 94.8831 122.5152 
L 95.1807 123.10656 
L 95.4783 133.15968 
L 95.7759 127.24608 
L 96.0735 134.3424 
L 96.3711 119.85408 
L 96.6687 119.85408 
L 96.9663 110.09664 
L 97.2639 121.0368 
L 97.5615 116.30592 
L 97.8591 126.06336 
L 98.1567 129.9072 
L 98.4543 121.92384 
L 98.7519 125.76768 
L 99.0495 132.27264 
L 99.3471 123.40224 
L 99.6447 122.21952 
L 99.9423 114.53184 
L 100.2399 123.9936 
L 100.5375 115.1232 
L 100.8351 132.56832 
L 101.1327 118.37568 
L 101.4303 120.74112 
L 101.7279 118.37568 
L 102.0255 118.37568 
L 102.3231 117.78432 
L 102.6207 128.4288 
L 102.9183 117.78432 
L 103.2159 124.28928 
L 103.5135 118.96704 
L 103.8111 128.72448 
L 104.1087 126.9504 
L 104.4063 105.66144 
L 104.7039 120.74112 
L 105.0015 113.34912 
L 105.2991 116.89728 
L 105.5967 116.30592 
L 105.8943 122.5152 
L 106.1919 113.6448 
L 106.4895 122.21952 
L 106.7871 108.61824 
L 107.0847 113.94048 
L 107.3823 112.75776 
L 107.6799 116.89728 
L 107.9775 118.08 
L 108.2751 115.41888 
L 108.5727 121.62816 
L 108.8703 111.27936 
L 109.1679 116.30592 
L 109.4655 99.15648 
L 109.7631 105.36576 
L 110.0607 120.14976 
L 110.3583 112.1664 
L 110.6559 108.02688 
L 110.9535 116.6016 
L 111.2511 107.7312 
L 111.5487 106.84416 
L 111.8463 97.08672 
L 112.1439 98.8608 
L 112.4415 107.43552 
L 112.7391 105.07008 
L 113.0367 97.08672 
L 113.3343 87.92064 
L 113.6319 115.1232 
L 113.9295 101.8176 
L 114.2271 110.688 
L 114.5247 85.25952 
L 114.8223 90.58176 
L 115.1199 83.18976 
L 115.4175 93.24288 
L 115.7151 110.09664 
L 116.0127 109.50528 
L 116.3103 95.01696 
L 116.6079 103.59168 
L 116.9055 108.61824 
L 117.2031 78.75456 
L 117.5007 103.88736 
L 117.7983 94.4256 
L 118.0959 97.97376 
L 118.3935 79.93728 
L 118.6911 97.97376 
L 118.9887 103.88736 
L 119.2863 105.07008 
L 119.5839 83.78112 
L 119.8815 106.84416 
L 120.1791 68.40576 
L 120.4767 71.36256 
L 120.7743 100.93056 
L 121.0719 91.17312 
L 121.3695 91.76448 
L 121.6671 99.74784 
L 121.9647 79.6416 
L 122.2623 76.98048 
L 122.5599 91.76448 
L 122.8575 88.80768 
L 123.1551 93.83424 
L 123.4527 76.6848 
L 123.7503 93.83424 
L 124.0479 70.47552 
L 124.3455 68.99712 
L 124.6431 66.04032 
L 124.9407 45.34272 
L 125.2383 52.14336 
L 125.5359 55.39584 
L 125.8335 68.99712 
L 126.1311 51.25632 
L 126.4287 76.38912 
L 126.7263 82.5984 
L 127.0239 64.8576 
L 127.3215 79.34592 
L 127.6191 52.73472 
L 127.9167 56.57856 
L 128.2143 68.70144 
L 128.5119 72.54528 
L 128.8095 77.86752 
L 129.1071 56.57856 
L 129.4047 50.0736 
L 129.7023 73.43232 
L 129.9999 61.9008 
L 130.2975 54.5088 
L 130.5951 55.10016 
L 130.8927 51.25632 
L 131.1903 53.62176 
L 131.4879 44.45568 
L 131.7855 48.00384 
L 132.0831 54.5088 
L 132.3807 40.90752 
L 132.6783 30.26304 
L 132.9759 57.76128 
L 133.2735 54.5088 
L 133.5711 62.19648 
L 133.8687 45.6384 
L 134.1663 57.76128 
L 134.4639 68.40576 
L 134.7615 45.04704 
L 135.0591 65.44896 
L 135.3567 55.10016 
L 135.6543 56.28288 
L 135.9519 62.49216 
L 136.2495 42.6816 
L 136.5471 38.54208 
L 136.8447 63.67488 
L 137.1423 47.41248 
L 137.4399 50.66496 
L 137.7375 55.9872 
L 138.0351 64.26624 
L 138.3327 58.35264 
L 138.6303 62.49216 
L 138.9279 50.66496 
L 139.2255 50.0736 
L 139.5231 63.3792 
L 139.8207 58.64832 
L 140.1183 56.87424 
L 140.4159 53.32608 
L 140.7135 46.82112 
L 141.0111 53.0304 
L 141.3087 47.41248 
L 141.6063 62.19648 
L 141.9039 50.36928 
L 142.2015 45.34272 
L 142.4991 54.80448 
L 142.7967 51.84768 
L 143.0943 55.69152 
L 143.3919 45.93408 
L 143.6895 36.768 
L 143.9871 74.61504 
L 144.2847 58.944 
L 144.5823 73.13664 
L 144.8799 64.26624 
L 145.1775 59.83104 
L 145.4751 65.15328 
L 145.7727 51.25632 
L 146.0703 68.11008 
L 146.3679 63.67488 
L 146.6655 76.6848 
L 146.9631 63.67488 
L 147.2607 60.71808 
L 147.5583 67.22304 
L 147.8559 61.01376 
L 148.1535 59.53536 
L 148.4511 67.22304 
L 148.7487 58.64832 
L 149.0463 49.77792 
L 149.3439 58.35264 
L 149.6415 52.14336 
L 149.9391 53.62176 
L 150.2367 53.91744 
L 150.5343 47.1168 
L 150.8319 55.69152 
L 151.1295 50.36928 
L 151.4271 51.552 
L 151.7247 47.41248 
L 152.0223 47.1168 
L 152.3199 73.13664 
L 152.6175 63.08352 
L 152.9151 48.29952 
L 153.2127 55.9872 
L 153.5103 59.53536 
L 153.8079 46.52544 
L 154.1055 64.8576 
L 154.4031 58.64832 
L 154.7007 54.80448 
L 154.9983 55.39584 
L 155.2959 36.17664 
L 155.5935 46.82112 
L 155.8911 54.21312 
L 156.1887 48.5952 
L 156.4863 44.75136 
L 156.7839 50.36928 
L 157.0815 48.89088 
L 157.3791 45.93408 
L 157.6767 46.22976 
L 157.9743 52.43904 
L 158.2719 44.75136 
L 158.5695 45.34272 
L 158.8671 69.58848 
L 159.1647 38.2464 
L 159.4623 45.34272 
L 159.7599 39.7248 
L 160.0575 62.78784 
L 160.3551 51.552 
L 160.6527 71.65824 
L 160.9503 64.8576 
L 161.2479 61.30944 
L 161.5455 42.97728 
L 161.8431 45.93408 
L 162.1407 63.97056 
L 162.4383 49.77792 
L 162.7359 63.97056 
L 163.0335 64.26624 
L 163.3311 57.16992 
L 163.6287 46.52544 
L 163.9263 64.8576 
L 164.2239 51.84768 
L 164.5215 52.14336 
L 164.8191 55.9872 
L 165.1167 63.3792 
L 165.4143 54.80448 
L 165.7119 55.69152 
L 166.0095 56.57856 
L 166.3071 63.97056 
L 166.6047 37.06368 
L 166.9023 54.5088 
L 167.1999 56.87424 
L 167.4975 48.5952 
L 167.7951 48.00384 
L 168.0927 54.5088 
L 168.3903 67.8144 
L 168.6879 40.31616 
L 168.9855 44.16 
L 169.2831 55.69152 
L 169.5807 46.52544 
L 169.8783 43.86432 
L 170.1759 44.45568 
L 170.4735 35.58528 
L 170.7711 46.22976 
L 171.0687 46.52544 
L 171.3663 50.96064 
L 171.6639 47.1168 
L 171.9615 36.47232 
L 172.2591 19.61856 
L 172.5567 49.48224 
L 172.8543 30.55872 
L 173.1519 31.44576 
L 173.4495 45.93408 
L 173.7471 35.88096 
L 174.0447 53.0304 
L 174.3423 46.22976 
L 174.6399 39.42912 
L 174.9375 31.74144 
L 175.2351 28.19328 
L 175.5327 38.83776 
L 175.8303 22.87104 
L 176.1279 35.88096 
L 176.4255 27.8976 
L 176.7231 21.39264 
L 177.0207 32.62848 
L 177.3183 26.12352 
L 177.6159 28.48896 
L 177.9135 21.39264 
L 178.2111 22.27968 
L 178.5087 14.88768 
L 178.8063 8.6784 
L 179.1039 7.49568 
L 179.4015 22.27968 
L 179.6991 24.9408 
L 179.9967 37.35936 
L 180.2943 17.25312 
L 180.5919 31.15008 
L 180.8895 8.6784 
L 181.1871 24.05376 
L 181.4847 15.77472 
L 181.7823 13.70496 
L 182.0799 13.70496 
L 182.3775 17.5488 
L 182.6751 22.87104 
L 182.9727 21.68832 
L 183.2703 15.18336 
L 183.5679 31.74144 
L 183.8655 0.99072 
L 184.1631 -0.192 
L 184.4607 32.03712 
L 184.7583 23.16672 
L 185.0559 20.5056 
L 185.3535 0.99072 
L 185.6511 9.56544 
L 185.9487 20.20992 
L 186.2463 -4.92288 
L 186.5439 6.01728 
L 186.8415 6.01728 
L 187.1391 36.17664 
L 187.4367 12.52224 
L 187.7343 18.14016 
L 188.0319 7.79136 
L 188.3295 13.70496 
L 188.6271 -0.48768 
L 188.9247 5.7216 
L 189.2223 -4.03584 
L 189.5199 7.49568 
L 189.8175 22.87104 
L 190.1151 17.5488 
L 190.4127 19.32288 
L 190.7103 -6.1056 
L 191.0079 10.1568 
L 191.3055 28.19328 
L 191.6031 6.90432 
L 191.9007 20.80128 
L 192.1983 8.08704 
L 192.4959 12.52224 
L 192.7935 9.56544 
L 193.0911 9.26976 
L 193.3887 -17.34144 
L 193.6863 -4.03584 
L 193.9839 -1.96608 
L 194.2815 12.81792 
L 194.5791 11.6352 
L 194.8767 4.53888 
L 195.1743 14.00064 
L 195.4719 -9.94944 
L 195.7695 16.95744 
L 196.0671 5.7216 
L 196.3647 9.26976 
L 196.6623 12.22656 
L 196.9599 3.94752 
L 197.2575 1.87776 
L 197.5551 7.79136 
L 197.8527 18.73152 
L 198.1503 8.6784 
L 198.4479 1.2864 
L 198.7455 19.91424 
L 199.0431 5.42592 
L 199.3407 17.84448 
L 199.6383 12.52224 
L 199.9359 25.82784 
L 200.2335 6.60864 
L 200.5311 12.81792 
L 200.8287 13.1136 
L 201.1263 8.97408 
L 201.4239 8.38272 
L 201.7215 23.75808 
L 202.0191 8.08704 
L 202.3167 6.60864 
L 202.6143 8.08704 
L 202.9119 16.0704 
L 203.2095 17.5488 
L 203.5071 17.5488 
L 203.8047 10.74816 
L 204.1023 20.20992 
L 204.3999 9.86112 
L 204.6975 24.64512 
L 204.9951 3.94752 
L 205.2927 8.6784 
L 205.5903 3.35616 
L 205.8879 0.10368 
L 206.1855 11.04384 
L 206.4831 20.80128 
L 206.7807 4.53888 
L 207.0783 -4.6272 
L 207.3759 2.46912 
L 207.6735 12.22656 
L 207.9711 6.31296 
L 208.2687 18.14016 
L 208.5663 7.79136 
L 208.8639 19.0272 
L 209.1615 14.29632 
L 209.4591 12.81792 
L 209.7567 16.95744 
L 210.0543 7.2 
L 210.3519 4.83456 
L 210.6495 5.42592 
L 210.9471 12.52224 
L 211.2447 -1.96608 
L 211.5423 -1.37472 
L 211.8399 -0.192 
L 212.1375 6.60864 
L 212.4351 10.1568 
L 212.7327 3.06048 
L 213.0303 -0.192 
L 213.3279 10.74816 
L 213.6255 -1.37472 
L 213.9231 8.6784 
L 214.2207 14.00064 
L 214.5183 6.60864 
L 214.8159 2.46912 
L 215.1135 5.42592 
L 215.4111 11.33952 
L 215.7087 4.2432 
L 216.0063 8.6784 
L 216.3039 8.08704 
L 216.6015 -1.37472 
L 216.8991 16.66176 
L 217.1967 2.17344 
L 217.4943 0.69504 
L 217.7919 17.25312 
L 218.0895 4.2432 
L 218.3871 0.39936 
L 218.6847 0.69504 
L 218.9823 0.39936 
L 219.2799 13.70496 
L 219.5775 2.7648 
L 219.8751 5.13024 
L 220.1727 5.13024 
L 220.4703 -1.07904 
L 220.7679 2.46912 
L 220.7679 53.32608 
L 220.7679 53.32608 
L 220.4703 55.69152 
L 220.1727 50.0736 
L 219.8751 54.80448 
L 219.5775 47.70816 
L 219.2799 45.6384 
L 218.9823 52.43904 
L 218.6847 40.90752 
L 218.3871 38.2464 
L 218.0895 52.73472 
L 217.7919 61.01376 
L 217.4943 44.45568 
L 217.1967 54.21312 
L 216.8991 54.5088 
L 216.6015 51.84768 
L 216.3039 62.49216 
L 216.0063 55.9872 
L 215.7087 57.4656 
L 215.4111 66.92736 
L 215.1135 52.73472 
L 214.8159 56.87424 
L 214.5183 56.28288 
L 214.2207 63.67488 
L 213.9231 61.9008 
L 213.6255 50.66496 
L 213.3279 55.69152 
L 213.0303 68.40576 
L 212.7327 38.54208 
L 212.4351 62.19648 
L 212.1375 66.92736 
L 211.8399 60.12672 
L 211.5423 73.13664 
L 211.2447 60.71808 
L 210.9471 65.74464 
L 210.6495 56.28288 
L 210.3519 37.95072 
L 210.0543 46.22976 
L 209.7567 65.44896 
L 209.4591 56.57856 
L 209.1615 55.69152 
L 208.8639 47.41248 
L 208.5663 84.66816 
L 208.2687 60.71808 
L 207.9711 61.9008 
L 207.6735 67.8144 
L 207.3759 68.70144 
L 207.0783 50.96064 
L 206.7807 62.49216 
L 206.4831 61.01376 
L 206.1855 64.26624 
L 205.8879 78.1632 
L 205.5903 58.944 
L 205.2927 65.44896 
L 204.9951 63.08352 
L 204.6975 56.57856 
L 204.3999 66.63168 
L 204.1023 56.87424 
L 203.8047 73.43232 
L 203.5071 57.76128 
L 203.2095 53.0304 
L 202.9119 55.10016 
L 202.6143 56.57856 
L 202.3167 64.56192 
L 202.0191 50.66496 
L 201.7215 68.70144 
L 201.4239 53.32608 
L 201.1263 63.3792 
L 200.8287 54.5088 
L 200.5311 56.57856 
L 200.2335 63.3792 
L 199.9359 56.57856 
L 199.6383 53.91744 
L 199.3407 66.336 
L 199.0431 59.83104 
L 198.7455 40.02048 
L 198.4479 63.97056 
L 198.1503 63.08352 
L 197.8527 48.29952 
L 197.5551 79.93728 
L 197.2575 77.57184 
L 196.9599 50.0736 
L 196.6623 54.80448 
L 196.3647 70.7712 
L 196.0671 74.31936 
L 195.7695 65.44896 
L 195.4719 76.38912 
L 195.1743 74.31936 
L 194.8767 74.31936 
L 194.5791 80.23296 
L 194.2815 83.78112 
L 193.9839 98.56512 
L 193.6863 103.59168 
L 193.3887 103.296 
L 193.0911 76.6848 
L 192.7935 71.06688 
L 192.4959 64.56192 
L 192.1983 76.6848 
L 191.9007 71.65824 
L 191.6031 82.5984 
L 191.3055 66.04032 
L 191.0079 65.74464 
L 190.7103 76.6848 
L 190.4127 66.63168 
L 190.1151 57.76128 
L 189.8175 64.26624 
L 189.5199 92.65152 
L 189.2223 89.39904 
L 188.9247 88.512 
L 188.6271 92.9472 
L 188.3295 69.2928 
L 188.0319 97.67808 
L 187.7343 93.83424 
L 187.4367 100.04352 
L 187.1391 71.65824 
L 186.8415 88.80768 
L 186.5439 88.80768 
L 186.2463 93.24288 
L 185.9487 112.46208 
L 185.6511 81.71136 
L 185.3535 105.07008 
L 185.0559 82.00704 
L 184.7583 87.0336 
L 184.4607 78.1632 
L 184.1631 118.08 
L 183.8655 106.2528 
L 183.5679 62.49216 
L 183.2703 74.31936 
L 182.9727 64.26624 
L 182.6751 80.82432 
L 182.3775 82.5984 
L 182.0799 81.12 
L 181.7823 89.39904 
L 181.4847 87.92064 
L 181.1871 105.66144 
L 180.8895 106.84416 
L 180.5919 96.19968 
L 180.2943 95.31264 
L 179.9967 71.65824 
L 179.6991 87.62496 
L 179.4015 105.07008 
L 179.1039 106.84416 
L 178.8063 109.2096 
L 178.5087 105.95712 
L 178.2111 115.71456 
L 177.9135 97.08672 
L 177.6159 127.83744 
L 177.3183 99.45216 
L 177.0207 107.13984 
L 176.7231 110.09664 
L 176.4255 109.50528 
L 176.1279 96.19968 
L 175.8303 109.2096 
L 175.5327 107.43552 
L 175.2351 89.69472 
L 174.9375 110.98368 
L 174.6399 93.83424 
L 174.3423 95.904 
L 174.0447 87.32928 
L 173.7471 99.74784 
L 173.4495 96.79104 
L 173.1519 122.5152 
L 172.8543 106.2528 
L 172.5567 89.69472 
L 172.2591 102.40896 
L 171.9615 79.05024 
L 171.6639 95.60832 
L 171.3663 91.17312 
L 171.0687 91.4688 
L 170.7711 98.26944 
L 170.4735 98.26944 
L 170.1759 94.12992 
L 169.8783 101.8176 
L 169.5807 82.00704 
L 169.2831 101.8176 
L 168.9855 97.3824 
L 168.6879 112.46208 
L 168.3903 99.74784 
L 168.0927 103.00032 
L 167.7951 115.41888 
L 167.4975 97.08672 
L 167.1999 113.6448 
L 166.9023 103.00032 
L 166.6047 99.74784 
L 166.3071 106.54848 
L 166.0095 114.53184 
L 165.7119 101.8176 
L 165.4143 105.66144 
L 165.1167 117.78432 
L 164.8191 106.84416 
L 164.5215 124.28928 
L 164.2239 112.1664 
L 163.9263 110.98368 
L 163.6287 116.30592 
L 163.3311 100.93056 
L 163.0335 103.296 
L 162.7359 105.36576 
L 162.4383 119.5584 
L 162.1407 112.46208 
L 161.8431 101.52192 
L 161.5455 115.1232 
L 161.2479 110.98368 
L 160.9503 119.26272 
L 160.6527 114.23616 
L 160.3551 122.5152 
L 160.0575 125.472 
L 159.7599 111.87072 
L 159.4623 112.75776 
L 159.1647 124.58496 
L 158.8671 114.53184 
L 158.5695 112.75776 
L 158.2719 103.88736 
L 157.9743 118.67136 
L 157.6767 133.75104 
L 157.3791 103.88736 
L 157.0815 117.48864 
L 156.7839 116.6016 
L 156.4863 109.80096 
L 156.1887 118.37568 
L 155.8911 125.17632 
L 155.5935 122.5152 
L 155.2959 124.88064 
L 154.9983 115.71456 
L 154.7007 130.49856 
L 154.4031 110.688 
L 154.1055 121.62816 
L 153.8079 110.39232 
L 153.5103 128.13312 
L 153.2127 118.67136 
L 152.9151 128.72448 
L 152.6175 123.40224 
L 152.3199 120.44544 
L 152.0223 107.43552 
L 151.7247 106.54848 
L 151.4271 104.7744 
L 151.1295 121.33248 
L 150.8319 132.56832 
L 150.5343 113.34912 
L 150.2367 126.06336 
L 149.9391 117.48864 
L 149.6415 137.2992 
L 149.3439 113.94048 
L 149.0463 123.10656 
L 148.7487 110.688 
L 148.4511 119.26272 
L 148.1535 111.57504 
L 147.8559 122.5152 
L 147.5583 108.61824 
L 147.2607 123.40224 
L 146.9631 106.2528 
L 146.6655 125.17632 
L 146.3679 113.34912 
L 146.0703 104.7744 
L 145.7727 117.48864 
L 145.4751 110.09664 
L 145.1775 115.41888 
L 144.8799 112.75776 
L 144.5823 110.98368 
L 144.2847 109.80096 
L 143.9871 113.6448 
L 143.6895 123.10656 
L 143.3919 113.34912 
L 143.0943 118.37568 
L 142.7967 113.34912 
L 142.4991 122.21952 
L 142.2015 104.47872 
L 141.9039 103.59168 
L 141.6063 104.7744 
L 141.3087 106.54848 
L 141.0111 114.53184 
L 140.7135 110.688 
L 140.4159 118.37568 
L 140.1183 114.82752 
L 139.8207 117.78432 
L 139.5231 116.6016 
L 139.2255 130.49856 
L 138.9279 132.27264 
L 138.6303 118.08 
L 138.3327 113.94048 
L 138.0351 117.48864 
L 137.7375 128.13312 
L 137.4399 119.26272 
L 137.1423 108.91392 
L 136.8447 114.53184 
L 136.5471 144.98688 
L 136.2495 129.02016 
L 135.9519 125.17632 
L 135.6543 120.14976 
L 135.3567 136.70784 
L 135.0591 121.0368 
L 134.7615 111.27936 
L 134.4639 115.71456 
L 134.1663 133.45536 
L 133.8687 123.69792 
L 133.5711 116.6016 
L 133.2735 142.03008 
L 132.9759 119.26272 
L 132.6783 141.43872 
L 132.3807 118.96704 
L 132.0831 117.19296 
L 131.7855 121.33248 
L 131.4879 146.1696 
L 131.1903 132.864 
L 130.8927 135.22944 
L 130.5951 126.06336 
L 130.2975 133.75104 
L 129.9999 134.04672 
L 129.7023 133.75104 
L 129.4047 134.04672 
L 129.1071 147.648 
L 128.8095 126.35904 
L 128.5119 139.96032 
L 128.2143 134.93376 
L 127.9167 133.45536 
L 127.6191 122.5152 
L 127.3215 136.11648 
L 127.0239 140.55168 
L 126.7263 142.91712 
L 126.4287 146.1696 
L 126.1311 148.23936 
L 125.8335 145.87392 
L 125.5359 135.8208 
L 125.2383 144.39552 
L 124.9407 147.05664 
L 124.6431 148.83072 
L 124.3455 164.79744 
L 124.0479 148.53504 
L 123.7503 143.50848 
L 123.4527 148.83072 
L 123.1551 147.05664 
L 122.8575 147.94368 
L 122.5599 136.70784 
L 122.2623 155.04 
L 121.9647 147.05664 
L 121.6671 134.04672 
L 121.3695 147.35232 
L 121.0719 137.2992 
L 120.7743 147.05664 
L 120.4767 157.70112 
L 120.1791 160.65792 
L 119.8815 145.87392 
L 119.5839 153.5616 
L 119.2863 146.46528 
L 118.9887 146.46528 
L 118.6911 144.09984 
L 118.3935 156.81408 
L 118.0959 144.09984 
L 117.7983 157.10976 
L 117.5007 138.18624 
L 117.2031 152.0832 
L 116.9055 141.7344 
L 116.6079 143.80416 
L 116.3103 155.33568 
L 116.0127 147.35232 
L 115.7151 147.94368 
L 115.4175 158.29248 
L 115.1199 150.6048 
L 114.8223 155.63136 
L 114.5247 156.22272 
L 114.2271 152.0832 
L 113.9295 162.13632 
L 113.6319 143.50848 
L 113.3343 178.99008 
L 113.0367 149.1264 
L 112.7391 157.10976 
L 112.4415 151.19616 
L 112.1439 160.36224 
L 111.8463 149.1264 
L 111.5487 144.6912 
L 111.2511 151.49184 
L 110.9535 142.62144 
L 110.6559 155.33568 
L 110.3583 152.37888 
L 110.0607 144.98688 
L 109.7631 151.49184 
L 109.4655 163.02336 
L 109.1679 147.05664 
L 108.8703 169.23264 
L 108.5727 150.01344 
L 108.2751 156.81408 
L 107.9775 150.01344 
L 107.6799 158.29248 
L 107.3823 156.5184 
L 107.0847 163.61472 
L 106.7871 165.3888 
L 106.4895 158.88384 
L 106.1919 163.31904 
L 105.8943 152.0832 
L 105.5967 161.24928 
L 105.2991 164.20608 
L 105.0015 170.11968 
L 104.7039 171.59808 
L 104.4063 175.44192 
L 104.1087 171.89376 
L 103.8111 176.03328 
L 103.5135 176.92032 
L 103.2159 179.87712 
L 102.9183 168.64128 
L 102.6207 191.11296 
L 102.3231 171.00672 
L 102.0255 178.6944 
L 101.7279 170.41536 
L 101.4303 166.8672 
L 101.1327 178.6944 
L 100.8351 177.51168 
L 100.5375 178.99008 
L 100.2399 167.75424 
L 99.9423 190.22592 
L 99.6447 194.36544 
L 99.3471 180.1728 
L 99.0495 184.31232 
L 98.7519 177.80736 
L 98.4543 188.15616 
L 98.1567 174.85056 
L 97.8591 200.57472 
L 97.5615 184.90368 
L 97.2639 182.53824 
L 96.9663 177.51168 
L 96.6687 175.44192 
L 96.3711 186.0864 
L 96.0735 175.7376 
L 95.7759 179.28576 
L 95.4783 173.37216 
L 95.1807 178.6944 
L 94.8831 182.83392 
L 94.5855 185.19936 
L 94.2879 189.0432 
L 93.9903 181.94688 
L 93.6927 173.07648 
L 93.3951 184.90368 
L 93.0975 180.1728 
L 92.7999 174.55488 
L 92.5023 177.80736 
L 92.2047 182.24256 
L 91.9071 174.2592 
L 91.6095 184.90368 
L 91.3119 178.39872 
L 91.0143 174.2592 
L 90.7167 181.6512 
L 90.4191 173.66784 
L 90.1215 194.66112 
L 89.8239 183.1296 
L 89.5263 177.80736 
L 89.2287 172.18944 
L 88.9311 184.01664 
L 88.6335 182.53824 
L 88.3359 183.72096 
L 88.0383 187.26912 
L 87.7407 182.24256 
L 87.4431 186.67776 
L 87.1455 183.1296 
L 86.8479 198.20928 
L 86.5503 184.01664 
L 86.2527 177.80736 
L 85.9551 172.48512 
L 85.6575 176.03328 
L 85.3599 182.24256 
L 85.0623 185.49504 
L 84.7647 187.86048 
L 84.4671 187.26912 
L 84.1695 189.0432 
L 83.8719 192 
L 83.5743 189.93024 
L 83.2767 192 
L 82.9791 192.59136 
L 82.6815 201.75744 
L 82.3839 184.608 
L 82.0863 184.31232 
L 81.7887 192.29568 
L 81.4911 187.5648 
L 81.1935 187.86048 
L 80.8959 200.27904 
L 80.5983 186.38208 
L 80.3007 194.66112 
L 80.0031 189.93024 
L 79.7055 200.8704 
L 79.4079 192.59136 
L 79.1103 206.784 
L 78.8127 197.32224 
L 78.5151 198.20928 
L 78.2175 176.92032 
L 77.9199 206.784 
L 77.6223 201.16608 
L 77.3247 200.27904 
L 77.0271 182.53824 
L 76.7295 198.50496 
L 76.4319 199.09632 
L 76.1343 191.40864 
L 75.8367 192.29568 
L 75.5391 195.54816 
L 75.2415 200.27904 
L 74.9439 207.07968 
L 74.6463 207.37536 
L 74.3487 199.09632 
L 74.0511 194.06976 
L 73.7535 202.94016 
L 73.4559 190.81728 
L 73.1583 203.23584 
L 72.8607 201.16608 
L 72.5631 201.16608 
L 72.2655 200.27904 
L 71.9679 206.48832 
L 71.6703 202.64448 
L 71.3727 203.8272 
L 71.0751 199.09632 
L 70.7775 202.64448 
L 70.4799 214.76736 
L 70.1823 207.67104 
L 69.8847 222.15936 
L 69.5871 215.06304 
L 69.2895 213.88032 
L 68.9919 210.03648 
L 68.6943 206.48832 
L 68.3967 194.36544 
L 68.0991 207.67104 
L 67.8015 204.12288 
L 67.5039 201.16608 
L 67.2063 211.51488 
L 66.9087 205.60128 
L 66.6111 207.07968 
L 66.3135 213.58464 
L 66.0159 216.83712 
L 65.7183 218.6112 
L 65.4207 213.58464 
L 65.1231 217.1328 
L 64.8255 202.64448 
L 64.5279 216.24576 
L 64.2303 211.51488 
L 63.9327 209.7408 
L 63.6351 208.55808 
L 63.3375 214.47168 
L 63.0399 245.81376 
L 62.7423 209.44512 
L 62.4447 204.41856 
L 62.1471 220.97664 
L 61.8495 223.0464 
L 61.5519 219.20256 
L 61.2543 221.27232 
L 60.9567 215.06304 
L 60.6591 208.55808 
L 60.3615 220.0896 
L 60.0639 225.11616 
L 59.7663 228.66432 
L 59.4687 226.89024 
L 59.1711 216.83712 
L 58.8735 212.40192 
L 58.5759 216.24576 
L 58.2783 224.22912 
L 57.9807 222.75072 
L 57.6831 216.83712 
L 57.3855 209.14944 
L 57.0879 219.49824 
L 56.7903 243.744 
L 56.4927 235.46496 
L 56.1951 221.86368 
L 55.8975 236.05632 
L 55.5999 232.21248 
L 55.3023 228.07296 
L 55.0047 216.83712 
L 54.7071 211.81056 
L 54.4095 221.27232 
L 54.1119 224.82048 
L 53.8143 221.27232 
L 53.5167 214.47168 
L 53.2191 220.38528 
L 52.9215 227.18592 
L 52.6239 225.11616 
L 52.3263 224.82048 
L 52.0287 223.34208 
L 51.7311 226.0032 
L 51.4335 227.18592 
L 51.1359 218.01984 
L 50.8383 222.15936 
L 50.5407 216.54144 
L 50.2431 225.11616 
L 49.9455 221.86368 
L 49.6479 221.86368 
L 49.3503 222.75072 
L 49.0527 222.15936 
L 48.7551 222.45504 
L 48.4575 219.79392 
L 48.1599 220.38528 
L 47.8623 219.20256 
L 47.5647 222.45504 
L 47.2671 225.41184 
L 46.9695 219.49824 
L 46.6719 221.27232 
L 46.3743 221.86368 
L 46.0767 217.1328 
L 45.7791 218.90688 
L 45.4815 218.90688 
L 45.1839 221.27232 
L 44.8863 221.568 
L 44.5887 219.20256 
L 44.2911 219.79392 
L 43.9935 220.0896 
L 43.6959 221.568 
L 43.3983 221.568 
L 43.1007 220.97664 
L 42.8031 221.86368 
L 42.5055 221.86368 
z
" clip-path="url(#p46e92a0c07)" style="fill: #44bf70; fill-opacity: 0.3"/>
   </g>
   <g id="matplotlib.axis_1">
    <g id="xtick_1">
     <g id="line2d_1">
      <defs>
       <path id="mabf1602f7d" d="M 0 0 
L 0 3.5 
" style="stroke: #000000; stroke-width: 0.8"/>
      </defs>
      <g>
       <use xlink:href="#mabf1602f7d" x="33.5775" y="228.96" style="stroke: #000000; stroke-width: 0.8"/>
      </g>
     </g>
     <g id="text_1">
      <text style="font: 6px 'DejaVu Sans', 'Bitstream Vera Sans', 'Computer Modern Sans Serif', 'Lucida Grande', 'Verdana', 'Geneva', 'Lucid', 'Arial', 'Helvetica', 'Avant Garde', sans-serif; text-anchor: middle" x="33.5775" y="240.519062" transform="rotate(-0 33.5775 240.519062)">0</text>
     </g>
    </g>
    <g id="xtick_2">
     <g id="line2d_2">
      <g>
       <use xlink:href="#mabf1602f7d" x="69.2895" y="228.96" style="stroke: #000000; stroke-width: 0.8"/>
      </g>
     </g>
     <g id="text_2">
      <text style="font: 6px 'DejaVu Sans', 'Bitstream Vera Sans', 'Computer Modern Sans Serif', 'Lucida Grande', 'Verdana', 'Geneva', 'Lucid', 'Arial', 'Helvetica', 'Avant Garde', sans-serif; text-anchor: middle" x="69.2895" y="240.519062" transform="rotate(-0 69.2895 240.519062)">4</text>
     </g>
    </g>
    <g id="xtick_3">
     <g id="line2d_3">
      <g>
       <use xlink:href="#mabf1602f7d" x="105.0015" y="228.96" style="stroke: #000000; stroke-width: 0.8"/>
      </g>
     </g>
     <g id="text_3">
      <text style="font: 6px 'DejaVu Sans', 'Bitstream Vera Sans', 'Computer Modern Sans Serif', 'Lucida Grande', 'Verdana', 'Geneva', 'Lucid', 'Arial', 'Helvetica', 'Avant Garde', sans-serif; text-anchor: middle" x="105.0015" y="240.519062" transform="rotate(-0 105.0015 240.519062)">8</text>
     </g>
    </g>
    <g id="xtick_4">
     <g id="line2d_4">
      <g>
       <use xlink:href="#mabf1602f7d" x="140.7135" y="228.96" style="stroke: #000000; stroke-width: 0.8"/>
      </g>
     </g>
     <g id="text_4">
      <text style="font: 6px 'DejaVu Sans', 'Bitstream Vera Sans', 'Computer Modern Sans Serif', 'Lucida Grande', 'Verdana', 'Geneva', 'Lucid', 'Arial', 'Helvetica', 'Avant Garde', sans-serif; text-anchor: middle" x="140.7135" y="240.519062" transform="rotate(-0 140.7135 240.519062)">12</text>
     </g>
    </g>
    <g id="xtick_5">
     <g id="line2d_5">
      <g>
       <use xlink:href="#mabf1602f7d" x="176.4255" y="228.96" style="stroke: #000000; stroke-width: 0.8"/>
      </g>
     </g>
     <g id="text_5">
      <text style="font: 6px 'DejaVu Sans', 'Bitstream Vera Sans', 'Computer Modern Sans Serif', 'Lucida Grande', 'Verdana', 'Geneva', 'Lucid', 'Arial', 'Helvetica', 'Avant Garde', sans-serif; text-anchor: middle" x="176.4255" y="240.519062" transform="rotate(-0 176.4255 240.519062)">16</text>
     </g>
    </g>
    <g id="xtick_6">
     <g id="line2d_6">
      <g>
       <use xlink:href="#mabf1602f7d" x="212.1375" y="228.96" style="stroke: #000000; stroke-width: 0.8"/>
      </g>
     </g>
     <g id="text_6">
      <text style="font: 6px 'DejaVu Sans', 'Bitstream Vera Sans', 'Computer Modern Sans Serif', 'Lucida Grande', 'Verdana', 'Geneva', 'Lucid', 'Arial', 'Helvetica', 'Avant Garde', sans-serif; text-anchor: middle" x="212.1375" y="240.519062" transform="rotate(-0 212.1375 240.519062)">20</text>
     </g>
    </g>
    <g id="xtick_7">
     <g id="line2d_7">
      <g>
       <use xlink:href="#mabf1602f7d" x="247.8495" y="228.96" style="stroke: #000000; stroke-width: 0.8"/>
      </g>
     </g>
     <g id="text_7">
      <text style="font: 6px 'DejaVu Sans', 'Bitstream Vera Sans', 'Computer Modern Sans Serif', 'Lucida Grande', 'Verdana', 'Geneva', 'Lucid', 'Arial', 'Helvetica', 'Avant Garde', sans-serif; text-anchor: middle" x="247.8495" y="240.519062" transform="rotate(-0 247.8495 240.519062)">24</text>
     </g>
    </g>
    <g id="text_8">
     <text style="font: 8px 'DejaVu Sans', 'Bitstream Vera Sans', 'Computer Modern Sans Serif', 'Lucida Grande', 'Verdana', 'Geneva', 'Lucid', 'Arial', 'Helvetica', 'Avant Garde', sans-serif; text-anchor: middle" x="145.1775" y="251.845625" transform="rotate(-0 145.1775 251.845625)">Experimental time (hpf)</text>
    </g>
   </g>
   <g id="matplotlib.axis_2">
    <g id="ytick_1">
     <g id="line2d_8">
      <defs>
       <path id="mb2d8a45f9e" d="M 0 0 
L -3.5 0 
" style="stroke: #000000; stroke-width: 0.8"/>
      </defs>
      <g>
       <use xlink:href="#mb2d8a45f9e" x="33.5775" y="228.96" style="stroke: #000000; stroke-width: 0.8"/>
      </g>
     </g>
     <g id="text_9">
      <text style="font: 6px 'DejaVu Sans', 'Bitstream Vera Sans', 'Computer Modern Sans Serif', 'Lucida Grande', 'Verdana', 'Geneva', 'Lucid', 'Arial', 'Helvetica', 'Avant Garde', sans-serif; text-anchor: end" x="26.5775" y="231.239531" transform="rotate(-0 26.5775 231.239531)">0</text>
     </g>
    </g>
    <g id="ytick_2">
     <g id="line2d_9">
      <g>
       <use xlink:href="#mb2d8a45f9e" x="33.5775" y="193.4784" style="stroke: #000000; stroke-width: 0.8"/>
      </g>
     </g>
     <g id="text_10">
      <text style="font: 6px 'DejaVu Sans', 'Bitstream Vera Sans', 'Computer Modern Sans Serif', 'Lucida Grande', 'Verdana', 'Geneva', 'Lucid', 'Arial', 'Helvetica', 'Avant Garde', sans-serif; text-anchor: end" x="26.5775" y="195.757931" transform="rotate(-0 26.5775 195.757931)">4</text>
     </g>
    </g>
    <g id="ytick_3">
     <g id="line2d_10">
      <g>
       <use xlink:href="#mb2d8a45f9e" x="33.5775" y="157.9968" style="stroke: #000000; stroke-width: 0.8"/>
      </g>
     </g>
     <g id="text_11">
      <text style="font: 6px 'DejaVu Sans', 'Bitstream Vera Sans', 'Computer Modern Sans Serif', 'Lucida Grande', 'Verdana', 'Geneva', 'Lucid', 'Arial', 'Helvetica', 'Avant Garde', sans-serif; text-anchor: end" x="26.5775" y="160.276331" transform="rotate(-0 26.5775 160.276331)">8</text>
     </g>
    </g>
    <g id="ytick_4">
     <g id="line2d_11">
      <g>
       <use xlink:href="#mb2d8a45f9e" x="33.5775" y="122.5152" style="stroke: #000000; stroke-width: 0.8"/>
      </g>
     </g>
     <g id="text_12">
      <text style="font: 6px 'DejaVu Sans', 'Bitstream Vera Sans', 'Computer Modern Sans Serif', 'Lucida Grande', 'Verdana', 'Geneva', 'Lucid', 'Arial', 'Helvetica', 'Avant Garde', sans-serif; text-anchor: end" x="26.5775" y="124.794731" transform="rotate(-0 26.5775 124.794731)">12</text>
     </g>
    </g>
    <g id="ytick_5">
     <g id="line2d_12">
      <g>
       <use xlink:href="#mb2d8a45f9e" x="33.5775" y="87.0336" style="stroke: #000000; stroke-width: 0.8"/>
      </g>
     </g>
     <g id="text_13">
      <text style="font: 6px 'DejaVu Sans', 'Bitstream Vera Sans', 'Computer Modern Sans Serif', 'Lucida Grande', 'Verdana', 'Geneva', 'Lucid', 'Arial', 'Helvetica', 'Avant Garde', sans-serif; text-anchor: end" x="26.5775" y="89.313131" transform="rotate(-0 26.5775 89.313131)">16</text>
     </g>
    </g>
    <g id="ytick_6">
     <g id="line2d_13">
      <g>
       <use xlink:href="#mb2d8a45f9e" x="33.5775" y="51.552" style="stroke: #000000; stroke-width: 0.8"/>
      </g>
     </g>
     <g id="text_14">
      <text style="font: 6px 'DejaVu Sans', 'Bitstream Vera Sans', 'Computer Modern Sans Serif', 'Lucida Grande', 'Verdana', 'Geneva', 'Lucid', 'Arial', 'Helvetica', 'Avant Garde', sans-serif; text-anchor: end" x="26.5775" y="53.831531" transform="rotate(-0 26.5775 53.831531)">20</text>
     </g>
    </g>
    <g id="ytick_7">
     <g id="line2d_14">
      <g>
       <use xlink:href="#mb2d8a45f9e" x="33.5775" y="16.0704" style="stroke: #000000; stroke-width: 0.8"/>
      </g>
     </g>
     <g id="text_15">
      <text style="font: 6px 'DejaVu Sans', 'Bitstream Vera Sans', 'Computer Modern Sans Serif', 'Lucida Grande', 'Verdana', 'Geneva', 'Lucid', 'Arial', 'Helvetica', 'Avant Garde', sans-serif; text-anchor: end" x="26.5775" y="18.349931" transform="rotate(-0 26.5775 18.349931)">24</text>
     </g>
    </g>
    <g id="text_16">
     <text style="font: 8px 'DejaVu Sans', 'Bitstream Vera Sans', 'Computer Modern Sans Serif', 'Lucida Grande', 'Verdana', 'Geneva', 'Lucid', 'Arial', 'Helvetica', 'Avant Garde', sans-serif; text-anchor: middle" x="13.27875" y="118.08" transform="rotate(-90 13.27875 118.08)">Developmental age (hpf)</text>
    </g>
   </g>
   <g id="line2d_15">
    <path d="M 42.5055 220.0896 
L 229.739782 -1 
L 229.739782 -1 
" clip-path="url(#p46e92a0c07)" style="fill: none; stroke: #44bf70; stroke-linecap: square"/>
   </g>
   <g id="line2d_16">
    <path d="M 42.5055 220.0896 
L 235.512172 -1 
L 235.512172 -1 
" clip-path="url(#p46e92a0c07)" style="fill: none; stroke-dasharray: 3.7,1.6; stroke-dashoffset: 0; stroke: #44bf70"/>
   </g>
   <g id="line2d_17">
    <path d="M 42.5055 220.0896 
L 223.360553 -1 
L 223.360553 -1 
" clip-path="url(#p46e92a0c07)" style="fill: none; stroke-dasharray: 3.7,1.6; stroke-dashoffset: 0; stroke: #44bf70"/>
   </g>
   <g id="patch_3">
    <path d="M 33.5775 228.96 
L 33.5775 7.2 
" style="fill: none; stroke: #000000; stroke-width: 0.8; stroke-linejoin: miter; stroke-linecap: square"/>
   </g>
   <g id="patch_4">
    <path d="M 33.5775 228.96 
L 256.7775 228.96 
" style="fill: none; stroke: #000000; stroke-width: 0.8; stroke-linejoin: miter; stroke-linecap: square"/>
   </g>
   <g id="legend_1">
    <g id="patch_5">
     <path d="M 37.6305 28.829269 
L 196.698989 28.829269 
Q 197.856989 28.829269 197.856989 27.671269 
L 197.856989 11.253 
Q 197.856989 10.095 196.698989 10.095 
L 37.6305 10.095 
Q 36.4725 10.095 36.4725 11.253 
L 36.4725 27.671269 
Q 36.4725 28.829269 37.6305 28.829269 
z
" style="fill: #ffffff; opacity: 0.8; stroke: #cccccc; stroke-linejoin: miter"/>
    </g>
    <g id="line2d_18">
     <path d="M 38.7885 14.783995 
L 44.5785 14.783995 
L 50.3685 14.783995 
" style="fill: none; stroke: #44bf70; stroke-linecap: square"/>
    </g>
    <g id="text_17">
     <text style="font: 5.79px 'DejaVu Sans', 'Bitstream Vera Sans', 'Computer Modern Sans Serif', 'Lucida Grande', 'Verdana', 'Geneva', 'Lucid', 'Arial', 'Helvetica', 'Avant Garde', sans-serif; text-anchor: start" x="55.0005" y="16.810495" transform="rotate(-0 55.0005 16.810495)">Linear fit: slope=1.189 [1.153,1.230], R2=0.979</text>
    </g>
    <g id="patch_6">
     <path d="M 38.7885 25.30913 
L 50.3685 25.30913 
L 50.3685 21.25613 
L 38.7885 21.25613 
z
" style="fill: #44bf70; fill-opacity: 0.3"/>
    </g>
    <g id="text_18">
     <text style="font: 5.79px 'DejaVu Sans', 'Bitstream Vera Sans', 'Computer Modern Sans Serif', 'Lucida Grande', 'Verdana', 'Geneva', 'Lucid', 'Arial', 'Helvetica', 'Avant Garde', sans-serif; text-anchor: start" x="55.0005" y="25.30913" transform="rotate(-0 55.0005 25.30913)">Median:31.0C</text>
    </g>
   </g>
  </g>
 </g>
 <defs>
  <clipPath id="p46e92a0c07">
   <rect x="33.5775" y="7.2" width="223.2" height="221.76"/>
  </clipPath>
 </defs>
</svg>
