<?xml version="1.0" encoding="utf-8" standalone="no"?>
<!DOCTYPE svg PUBLIC "-//W3C//DTD SVG 1.1//EN"
  "http://www.w3.org/Graphics/SVG/1.1/DTD/svg11.dtd">
<svg xmlns:xlink="http://www.w3.org/1999/xlink" width="263.9775pt" height="260.709375pt" viewBox="0 0 263.9775 260.709375" xmlns="http://www.w3.org/2000/svg" version="1.1">
 <metadata>
  <rdf:RDF xmlns:dc="http://purl.org/dc/elements/1.1/" xmlns:cc="http://creativecommons.org/ns#" xmlns:rdf="http://www.w3.org/1999/02/22-rdf-syntax-ns#">
   <cc:Work>
    <dc:type rdf:resource="http://purl.org/dc/dcmitype/StillImage"/>
    <dc:date>2023-07-28T13:04:47.565548</dc:date>
    <dc:format>image/svg+xml</dc:format>
    <dc:creator>
     <cc:Agent>
      <dc:title>Matplotlib v3.7.0, https://matplotlib.org/</dc:title>
     </cc:Agent>
    </dc:creator>
   </cc:Work>
  </rdf:RDF>
 </metadata>
 <defs>
  <style type="text/css">*{stroke-linejoin: round; stroke-linecap: butt}</style>
 </defs>
 <g id="figure_1">
  <g id="patch_1">
   <path d="M 0 260.709375 
L 263.9775 260.709375 
L 263.9775 0 
L 0 0 
z
" style="fill: #ffffff"/>
  </g>
  <g id="axes_1">
   <g id="patch_2">
    <path d="M 33.5775 228.96 
L 256.7775 228.96 
L 256.7775 7.2 
L 33.5775 7.2 
z
" style="fill: #ffffff"/>
   </g>
   <g id="PolyCollection_1">
    <path d="M 42.5055 220.8288 
L 42.5055 214.32384 
L 42.8031 213.28896 
L 43.1007 212.25408 
L 43.3983 212.10624 
L 43.6959 209.7408 
L 43.9935 211.81056 
L 44.2911 210.03648 
L 44.5887 214.02816 
L 44.8863 210.62784 
L 45.1839 211.66272 
L 45.4815 213.28896 
L 45.7791 209.88864 
L 46.0767 208.55808 
L 46.3743 210.48 
L 46.6719 208.55808 
L 46.9695 205.45344 
L 47.2671 206.34048 
L 47.5647 203.23584 
L 47.8623 204.86208 
L 48.1599 203.23584 
L 48.4575 201.75744 
L 48.7551 199.98336 
L 49.0527 201.90528 
L 49.3503 196.87872 
L 49.6479 200.8704 
L 49.9455 193.18272 
L 50.2431 201.31392 
L 50.5407 195.40032 
L 50.8383 196.87872 
L 51.1359 193.77408 
L 51.4335 187.71264 
L 51.7311 189.33888 
L 52.0287 185.49504 
L 52.3263 184.90368 
L 52.6239 187.86048 
L 52.9215 193.92192 
L 53.2191 174.9984 
L 53.5167 184.16448 
L 53.8143 187.86048 
L 54.1119 185.19936 
L 54.4095 172.48512 
L 54.7071 180.46848 
L 55.0047 177.36384 
L 55.3023 172.18944 
L 55.5999 158.14464 
L 55.8975 168.93696 
L 56.1951 156.5184 
L 56.4927 142.4736 
L 56.7903 159.62304 
L 57.0879 151.49184 
L 57.3855 159.62304 
L 57.6831 154.74432 
L 57.9807 173.96352 
L 58.2783 72.39744 
L 58.5759 68.84928 
L 58.8735 -6.99264 
L 59.1711 -30.64704 
L 59.4687 6.4608 
L 59.7663 9.26976 
L 60.0639 21.09696 
L 60.3615 12.81792 
L 60.6591 25.53216 
L 60.9567 20.80128 
L 61.2543 129.61152 
L 61.5519 73.43232 
L 61.8495 84.52032 
L 62.1471 145.57824 
L 62.4447 15.62688 
L 62.7423 73.43232 
L 63.0399 144.24768 
L 63.3375 164.05824 
L 63.6351 123.84576 
L 63.9327 87.0336 
L 64.2303 116.15808 
L 64.5279 99.00864 
L 64.8255 134.93376 
L 65.1231 148.53504 
L 65.4207 145.4304 
L 65.7183 160.80576 
L 66.0159 160.2144 
L 66.3135 114.67968 
L 66.6111 123.40224 
L 66.9087 92.35584 
L 67.2063 164.79744 
L 67.5039 134.63808 
L 67.8015 145.87392 
L 68.0991 150.6048 
L 68.3967 150.6048 
L 68.6943 157.10976 
L 68.9919 154.89216 
L 69.2895 161.98848 
L 69.5871 151.93536 
L 69.8847 166.27584 
L 70.1823 146.46528 
L 70.4799 154.3008 
L 70.7775 131.23776 
L 71.0751 140.84736 
L 71.3727 137.89056 
L 71.6703 137.00352 
L 71.9679 141.14304 
L 72.2655 130.6464 
L 72.5631 130.05504 
L 72.8607 151.19616 
L 73.1583 119.85408 
L 73.4559 147.50016 
L 73.7535 141.88224 
L 74.0511 139.22112 
L 74.3487 138.33408 
L 74.6463 131.68128 
L 74.9439 114.67968 
L 75.2415 100.04352 
L 75.5391 107.87904 
L 75.8367 122.36736 
L 76.1343 104.7744 
L 76.4319 141.29088 
L 76.7295 116.74944 
L 77.0271 104.7744 
L 77.3247 102.5568 
L 77.6223 110.688 
L 77.9199 127.98528 
L 78.2175 102.5568 
L 78.5151 119.11488 
L 78.8127 99.00864 
L 79.1103 118.22784 
L 79.4079 127.98528 
L 79.7055 120.00192 
L 80.0031 124.58496 
L 80.3007 118.52352 
L 80.5983 130.6464 
L 80.8959 124.88064 
L 81.1935 129.9072 
L 81.4911 117.3408 
L 81.7887 131.23776 
L 82.0863 116.89728 
L 82.3839 131.23776 
L 82.6815 114.08832 
L 82.9791 123.10656 
L 83.2767 136.41216 
L 83.5743 117.19296 
L 83.8719 143.65632 
L 84.1695 116.45376 
L 84.4671 123.9936 
L 84.7647 122.81088 
L 85.0623 120.2976 
L 85.3599 130.79424 
L 85.6575 135.0816 
L 85.9551 143.65632 
L 86.2527 114.08832 
L 86.5503 118.52352 
L 86.8479 133.01184 
L 87.1455 142.17792 
L 87.4431 117.3408 
L 87.7407 128.4288 
L 88.0383 126.65472 
L 88.3359 122.5152 
L 88.6335 134.04672 
L 88.9311 123.40224 
L 89.2287 132.27264 
L 89.5263 121.0368 
L 89.8239 114.08832 
L 90.1215 118.67136 
L 90.4191 125.32416 
L 90.7167 122.21952 
L 91.0143 125.91552 
L 91.3119 131.82912 
L 91.6095 136.70784 
L 91.9071 133.15968 
L 92.2047 135.96864 
L 92.5023 126.50688 
L 92.7999 127.39392 
L 93.0975 125.17632 
L 93.3951 125.91552 
L 93.6927 129.31584 
L 93.9903 128.72448 
L 94.2879 128.13312 
L 94.5855 124.58496 
L 94.8831 137.15136 
L 95.1807 128.28096 
L 95.4783 126.9504 
L 95.7759 122.36736 
L 96.0735 128.13312 
L 96.3711 129.168 
L 96.6687 125.76768 
L 96.9663 120.74112 
L 97.2639 121.33248 
L 97.5615 119.70624 
L 97.8591 129.02016 
L 98.1567 125.02848 
L 98.4543 122.66304 
L 98.7519 130.49856 
L 99.0495 119.70624 
L 99.3471 118.22784 
L 99.6447 120.2976 
L 99.9423 121.62816 
L 100.2399 115.1232 
L 100.5375 118.96704 
L 100.8351 117.04512 
L 101.1327 115.56672 
L 101.4303 121.48032 
L 101.7279 117.63648 
L 102.0255 118.8192 
L 102.3231 116.89728 
L 102.6207 114.08832 
L 102.9183 116.30592 
L 103.2159 112.75776 
L 103.5135 114.08832 
L 103.8111 110.09664 
L 104.1087 121.48032 
L 104.4063 114.384 
L 104.7039 112.75776 
L 105.0015 106.2528 
L 105.2991 112.01856 
L 105.5967 110.688 
L 105.8943 110.39232 
L 106.1919 113.79264 
L 106.4895 102.11328 
L 106.7871 112.75776 
L 107.0847 108.76608 
L 107.3823 114.67968 
L 107.6799 106.992 
L 107.9775 106.2528 
L 108.2751 110.688 
L 108.5727 113.6448 
L 108.8703 111.13152 
L 109.1679 119.70624 
L 109.4655 103.88736 
L 109.7631 111.87072 
L 110.0607 116.74944 
L 110.3583 110.98368 
L 110.6559 103.14816 
L 110.9535 110.24448 
L 111.2511 118.8192 
L 111.5487 102.5568 
L 111.8463 117.63648 
L 112.1439 114.08832 
L 112.4415 105.36576 
L 112.7391 101.22624 
L 113.0367 103.296 
L 113.3343 110.98368 
L 113.6319 110.54016 
L 113.9295 101.66976 
L 114.2271 109.9488 
L 114.5247 110.83584 
L 114.8223 89.69472 
L 115.1199 111.57504 
L 115.4175 84.96384 
L 115.7151 100.3392 
L 116.0127 99.15648 
L 116.3103 101.0784 
L 116.6079 99.74784 
L 116.9055 106.992 
L 117.2031 90.87744 
L 117.5007 89.10336 
L 117.7983 101.22624 
L 118.0959 107.87904 
L 118.3935 93.53856 
L 118.6911 99.6 
L 118.9887 91.76448 
L 119.2863 97.67808 
L 119.5839 95.1648 
L 119.8815 89.9904 
L 120.1791 91.91232 
L 120.4767 76.98048 
L 120.7743 95.01696 
L 121.0719 82.15488 
L 121.3695 87.18144 
L 121.6671 78.9024 
L 121.9647 79.93728 
L 122.2623 66.63168 
L 122.5599 84.0768 
L 122.8575 84.816 
L 123.1551 86.44224 
L 123.4527 73.728 
L 123.7503 82.45056 
L 124.0479 83.92896 
L 124.3455 80.08512 
L 124.6431 75.50208 
L 124.9407 74.31936 
L 125.2383 87.32928 
L 125.5359 80.82432 
L 125.8335 76.24128 
L 126.1311 86.73792 
L 126.4287 90.28608 
L 126.7263 87.0336 
L 127.0239 86.14656 
L 127.3215 88.21632 
L 127.6191 83.92896 
L 127.9167 96.79104 
L 128.2143 88.80768 
L 128.5119 86.2944 
L 128.8095 90.87744 
L 129.1071 91.02528 
L 129.4047 85.85088 
L 129.7023 74.4672 
L 129.9999 72.9888 
L 130.2975 71.80608 
L 130.5951 78.1632 
L 130.8927 79.05024 
L 131.1903 74.61504 
L 131.4879 77.71968 
L 131.7855 57.31776 
L 132.0831 72.2496 
L 132.3807 63.23136 
L 132.6783 74.91072 
L 132.9759 68.5536 
L 133.2735 53.62176 
L 133.5711 62.78784 
L 133.8687 65.44896 
L 134.1663 72.69312 
L 134.4639 64.1184 
L 134.7615 71.65824 
L 135.0591 54.06528 
L 135.3567 63.67488 
L 135.6543 56.7264 
L 135.9519 61.60512 
L 136.2495 55.248 
L 136.5471 71.80608 
L 136.8447 54.65664 
L 137.1423 65.44896 
L 137.4399 54.65664 
L 137.7375 56.28288 
L 138.0351 53.0304 
L 138.3327 66.92736 
L 138.6303 69.14496 
L 138.9279 51.552 
L 139.2255 62.64 
L 139.5231 61.75296 
L 139.8207 66.18816 
L 140.1183 66.92736 
L 140.4159 70.47552 
L 140.7135 75.79776 
L 141.0111 70.62336 
L 141.3087 74.17152 
L 141.6063 66.18816 
L 141.9039 64.26624 
L 142.2015 71.80608 
L 142.4991 68.70144 
L 142.7967 66.92736 
L 143.0943 66.336 
L 143.3919 71.06688 
L 143.6895 65.74464 
L 143.9871 69.88416 
L 144.2847 66.77952 
L 144.5823 64.41408 
L 144.8799 67.22304 
L 145.1775 70.32768 
L 145.4751 64.8576 
L 145.7727 55.54368 
L 146.0703 73.28448 
L 146.3679 71.65824 
L 146.6655 68.5536 
L 146.9631 61.30944 
L 147.2607 54.5088 
L 147.5583 52.73472 
L 147.8559 70.7712 
L 148.1535 57.16992 
L 148.4511 55.9872 
L 148.7487 63.67488 
L 149.0463 59.09184 
L 149.3439 51.25632 
L 149.6415 46.22976 
L 149.9391 57.76128 
L 150.2367 58.79616 
L 150.5343 70.62336 
L 150.8319 59.83104 
L 151.1295 63.23136 
L 151.4271 64.26624 
L 151.7247 63.08352 
L 152.0223 59.6832 
L 152.3199 53.47392 
L 152.6175 63.08352 
L 152.9151 55.54368 
L 153.2127 66.77952 
L 153.5103 63.08352 
L 153.8079 67.8144 
L 154.1055 47.41248 
L 154.4031 51.69984 
L 154.7007 65.89248 
L 154.9983 68.70144 
L 155.2959 55.54368 
L 155.5935 64.26624 
L 155.8911 46.3776 
L 156.1887 55.69152 
L 156.4863 46.96896 
L 156.7839 46.3776 
L 157.0815 57.16992 
L 157.3791 54.36096 
L 157.6767 51.84768 
L 157.9743 46.82112 
L 158.2719 50.96064 
L 158.5695 55.10016 
L 158.8671 47.856 
L 159.1647 45.93408 
L 159.4623 50.0736 
L 159.7599 46.67328 
L 160.0575 50.8128 
L 160.3551 63.3792 
L 160.6527 44.60352 
L 160.9503 55.10016 
L 161.2479 58.05696 
L 161.5455 49.77792 
L 161.8431 49.03872 
L 162.1407 60.27456 
L 162.4383 53.47392 
L 162.7359 44.16 
L 163.0335 51.99552 
L 163.3311 61.75296 
L 163.6287 41.35104 
L 163.9263 51.69984 
L 164.2239 52.58688 
L 164.5215 50.66496 
L 164.8191 69.14496 
L 165.1167 54.80448 
L 165.4143 45.49056 
L 165.7119 51.40416 
L 166.0095 54.06528 
L 166.3071 50.96064 
L 166.6047 50.96064 
L 166.9023 61.1616 
L 167.1999 46.67328 
L 167.4975 49.77792 
L 167.7951 56.28288 
L 168.0927 57.16992 
L 168.3903 44.60352 
L 168.6879 41.79456 
L 168.9855 54.21312 
L 169.2831 51.40416 
L 169.5807 47.70816 
L 169.8783 53.91744 
L 170.1759 49.48224 
L 170.4735 45.6384 
L 170.7711 48.29952 
L 171.0687 51.69984 
L 171.3663 46.82112 
L 171.6639 46.67328 
L 171.9615 54.95232 
L 172.2591 50.66496 
L 172.5567 49.63008 
L 172.8543 24.34944 
L 173.1519 51.99552 
L 173.4495 31.88928 
L 173.7471 41.49888 
L 174.0447 40.75968 
L 174.3423 26.4192 
L 174.6399 42.09024 
L 174.9375 51.99552 
L 175.2351 39.28128 
L 175.5327 34.84608 
L 175.8303 36.62016 
L 176.1279 39.42912 
L 176.4255 46.08192 
L 176.7231 36.91584 
L 177.0207 33.8112 
L 177.3183 30.55872 
L 177.6159 30.26304 
L 177.9135 29.81952 
L 178.2111 11.33952 
L 178.5087 22.7232 
L 178.8063 19.17504 
L 179.1039 27.8976 
L 179.4015 31.74144 
L 179.6991 26.71488 
L 179.9967 29.22816 
L 180.2943 27.74976 
L 180.5919 24.64512 
L 180.8895 24.49728 
L 181.1871 25.82784 
L 181.4847 29.22816 
L 181.7823 22.13184 
L 182.0799 29.52384 
L 182.3775 22.87104 
L 182.6751 31.15008 
L 182.9727 18.87936 
L 183.2703 22.27968 
L 183.5679 22.13184 
L 183.8655 19.91424 
L 184.1631 18.14016 
L 184.4607 12.96576 
L 184.7583 21.984 
L 185.0559 10.896 
L 185.3535 14.73984 
L 185.6511 13.55712 
L 185.9487 19.0272 
L 186.2463 21.83616 
L 186.5439 17.99232 
L 186.8415 2.32128 
L 187.1391 25.97568 
L 187.4367 19.7664 
L 187.7343 13.1136 
L 188.0319 4.09536 
L 188.3295 18.58368 
L 188.6271 15.3312 
L 188.9247 15.3312 
L 189.2223 19.7664 
L 189.5199 17.40096 
L 189.8175 21.09696 
L 190.1151 24.64512 
L 190.4127 23.31456 
L 190.7103 12.3744 
L 191.0079 12.67008 
L 191.3055 3.504 
L 191.6031 15.77472 
L 191.9007 7.05216 
L 192.1983 16.66176 
L 192.4959 19.17504 
L 192.7935 12.07872 
L 193.0911 16.95744 
L 193.3887 14.14848 
L 193.6863 3.94752 
L 193.9839 13.8528 
L 194.2815 16.21824 
L 194.5791 12.07872 
L 194.8767 11.04384 
L 195.1743 11.48736 
L 195.4719 13.70496 
L 195.7695 6.75648 
L 196.0671 8.82624 
L 196.3647 9.71328 
L 196.6623 21.09696 
L 196.9599 18.58368 
L 197.2575 15.18336 
L 197.5551 5.7216 
L 197.8527 10.896 
L 198.1503 8.97408 
L 198.4479 10.60032 
L 198.7455 19.7664 
L 199.0431 11.19168 
L 199.3407 11.78304 
L 199.6383 7.34784 
L 199.9359 10.896 
L 200.2335 6.75648 
L 200.5311 8.82624 
L 200.8287 18.58368 
L 201.1263 10.74816 
L 201.4239 11.04384 
L 201.7215 4.39104 
L 202.0191 12.81792 
L 202.3167 -1.52256 
L 202.6143 7.05216 
L 202.9119 10.74816 
L 203.2095 16.21824 
L 203.5071 18.58368 
L 203.8047 20.06208 
L 204.1023 21.68832 
L 204.3999 14.14848 
L 204.6975 15.03552 
L 204.9951 14.592 
L 205.2927 10.00896 
L 205.5903 11.78304 
L 205.8879 9.12192 
L 206.1855 6.01728 
L 206.4831 7.2 
L 206.7807 -1.22688 
L 207.0783 11.33952 
L 207.3759 5.57376 
L 207.6735 7.34784 
L 207.9711 0.25152 
L 208.2687 9.86112 
L 208.5663 12.81792 
L 208.8639 15.47904 
L 209.1615 16.21824 
L 209.4591 21.984 
L 209.7567 9.4176 
L 210.0543 9.12192 
L 210.3519 9.56544 
L 210.6495 7.34784 
L 210.9471 6.01728 
L 211.2447 12.52224 
L 211.5423 0.84288 
L 211.8399 4.53888 
L 212.1375 14.14848 
L 212.4351 4.9824 
L 212.7327 3.65184 
L 213.0303 3.20832 
L 213.3279 9.26976 
L 213.6255 -2.26176 
L 213.9231 4.68672 
L 214.2207 -4.18368 
L 214.5183 -0.9312 
L 214.8159 -3.1488 
L 214.8159 53.62176 
L 214.8159 53.62176 
L 214.5183 57.61344 
L 214.2207 60.86592 
L 213.9231 57.31776 
L 213.6255 67.51872 
L 213.3279 51.84768 
L 213.0303 56.43072 
L 212.7327 53.91744 
L 212.4351 52.2912 
L 212.1375 51.99552 
L 211.8399 66.04032 
L 211.5423 51.10848 
L 211.2447 62.19648 
L 210.9471 56.87424 
L 210.6495 58.2048 
L 210.3519 61.01376 
L 210.0543 62.93568 
L 209.7567 59.09184 
L 209.4591 67.51872 
L 209.1615 70.032 
L 208.8639 59.83104 
L 208.5663 59.53536 
L 208.2687 51.84768 
L 207.9711 49.3344 
L 207.6735 77.71968 
L 207.3759 59.38752 
L 207.0783 58.64832 
L 206.7807 66.77952 
L 206.4831 60.4224 
L 206.1855 54.5088 
L 205.8879 54.65664 
L 205.5903 55.54368 
L 205.2927 56.7264 
L 204.9951 62.49216 
L 204.6975 64.1184 
L 204.3999 65.5968 
L 204.1023 65.44896 
L 203.8047 69.14496 
L 203.5071 54.65664 
L 203.2095 58.79616 
L 202.9119 59.23968 
L 202.6143 54.36096 
L 202.3167 73.58016 
L 202.0191 60.12672 
L 201.7215 65.89248 
L 201.4239 58.944 
L 201.1263 62.19648 
L 200.8287 52.88256 
L 200.5311 70.91904 
L 200.2335 55.83936 
L 199.9359 60.57024 
L 199.6383 65.89248 
L 199.3407 53.17824 
L 199.0431 56.7264 
L 198.7455 51.69984 
L 198.4479 56.13504 
L 198.1503 58.64832 
L 197.8527 54.06528 
L 197.5551 73.728 
L 197.2575 64.26624 
L 196.9599 65.89248 
L 196.6623 58.35264 
L 196.3647 62.34432 
L 196.0671 64.41408 
L 195.7695 65.30112 
L 195.4719 48.5952 
L 195.1743 55.83936 
L 194.8767 46.52544 
L 194.5791 61.1616 
L 194.2815 59.97888 
L 193.9839 57.02208 
L 193.6863 61.30944 
L 193.3887 56.13504 
L 193.0911 53.0304 
L 192.7935 70.62336 
L 192.4959 70.032 
L 192.1983 61.60512 
L 191.9007 62.64 
L 191.6031 60.71808 
L 191.3055 62.04864 
L 191.0079 67.0752 
L 190.7103 64.41408 
L 190.4127 61.1616 
L 190.1151 59.53536 
L 189.8175 65.44896 
L 189.5199 65.89248 
L 189.2223 68.84928 
L 188.9247 66.18816 
L 188.6271 66.77952 
L 188.3295 77.12832 
L 188.0319 79.19808 
L 187.7343 74.61504 
L 187.4367 75.9456 
L 187.1391 73.28448 
L 186.8415 83.92896 
L 186.5439 70.62336 
L 186.2463 67.37088 
L 185.9487 81.71136 
L 185.6511 83.92896 
L 185.3535 76.24128 
L 185.0559 85.99872 
L 184.7583 79.34592 
L 184.4607 63.23136 
L 184.1631 76.09344 
L 183.8655 77.27616 
L 183.5679 82.45056 
L 183.2703 75.50208 
L 182.9727 89.2512 
L 182.6751 84.37248 
L 182.3775 87.92064 
L 182.0799 75.05856 
L 181.7823 82.45056 
L 181.4847 99.00864 
L 181.1871 99.74784 
L 180.8895 83.04192 
L 180.5919 74.91072 
L 180.2943 85.70304 
L 179.9967 81.8592 
L 179.6991 103.00032 
L 179.4015 106.2528 
L 179.1039 91.76448 
L 178.8063 111.4272 
L 178.5087 100.19136 
L 178.2111 110.09664 
L 177.9135 108.4704 
L 177.6159 95.904 
L 177.3183 103.296 
L 177.0207 96.49536 
L 176.7231 88.36416 
L 176.4255 98.71296 
L 176.1279 87.32928 
L 175.8303 97.53024 
L 175.5327 114.67968 
L 175.2351 98.41728 
L 174.9375 99.30432 
L 174.6399 103.00032 
L 174.3423 102.70464 
L 174.0447 111.13152 
L 173.7471 101.22624 
L 173.4495 106.40064 
L 173.1519 108.17472 
L 172.8543 118.96704 
L 172.5567 115.27104 
L 172.2591 102.70464 
L 171.9615 87.47712 
L 171.6639 96.34752 
L 171.3663 113.05344 
L 171.0687 107.28768 
L 170.7711 111.57504 
L 170.4735 99.45216 
L 170.1759 101.52192 
L 169.8783 106.54848 
L 169.5807 97.3824 
L 169.2831 100.48704 
L 168.9855 93.24288 
L 168.6879 108.61824 
L 168.3903 112.60992 
L 168.0927 111.57504 
L 167.7951 94.72128 
L 167.4975 100.04352 
L 167.1999 101.66976 
L 166.9023 107.87904 
L 166.6047 105.95712 
L 166.3071 105.36576 
L 166.0095 112.60992 
L 165.7119 106.992 
L 165.4143 109.35744 
L 165.1167 109.2096 
L 164.8191 108.76608 
L 164.5215 103.296 
L 164.2239 108.76608 
L 163.9263 98.41728 
L 163.6287 111.72288 
L 163.3311 116.15808 
L 163.0335 117.63648 
L 162.7359 107.43552 
L 162.4383 106.69632 
L 162.1407 95.75616 
L 161.8431 123.55008 
L 161.5455 94.12992 
L 161.2479 97.08672 
L 160.9503 104.7744 
L 160.6527 105.5136 
L 160.3551 105.95712 
L 160.0575 113.49696 
L 159.7599 104.62656 
L 159.4623 110.39232 
L 159.1647 118.67136 
L 158.8671 105.80928 
L 158.5695 100.63488 
L 158.2719 104.18304 
L 157.9743 121.33248 
L 157.6767 116.30592 
L 157.3791 119.41056 
L 157.0815 112.1664 
L 156.7839 117.93216 
L 156.4863 99.6 
L 156.1887 101.8176 
L 155.8911 104.92224 
L 155.5935 98.56512 
L 155.2959 114.67968 
L 154.9983 100.63488 
L 154.7007 105.5136 
L 154.4031 110.83584 
L 154.1055 114.23616 
L 153.8079 109.2096 
L 153.5103 113.34912 
L 153.2127 118.22784 
L 152.9151 116.45376 
L 152.6175 110.98368 
L 152.3199 124.43712 
L 152.0223 107.58336 
L 151.7247 115.71456 
L 151.4271 119.26272 
L 151.1295 112.31424 
L 150.8319 128.4288 
L 150.5343 123.84576 
L 150.2367 125.02848 
L 149.9391 116.89728 
L 149.6415 120.74112 
L 149.3439 119.26272 
L 149.0463 118.8192 
L 148.7487 106.2528 
L 148.4511 118.08 
L 148.1535 111.57504 
L 147.8559 115.71456 
L 147.5583 114.23616 
L 147.2607 120.14976 
L 146.9631 122.81088 
L 146.6655 119.41056 
L 146.3679 107.13984 
L 146.0703 112.31424 
L 145.7727 122.95872 
L 145.4751 108.02688 
L 145.1775 118.22784 
L 144.8799 113.94048 
L 144.5823 114.08832 
L 144.2847 116.45376 
L 143.9871 122.5152 
L 143.6895 113.05344 
L 143.3919 113.6448 
L 143.0943 115.41888 
L 142.7967 113.6448 
L 142.4991 114.82752 
L 142.2015 103.14816 
L 141.9039 118.08 
L 141.6063 118.8192 
L 141.3087 110.24448 
L 141.0111 112.01856 
L 140.7135 113.05344 
L 140.4159 121.33248 
L 140.1183 117.78432 
L 139.8207 114.67968 
L 139.5231 123.2544 
L 139.2255 127.6896 
L 138.9279 131.97696 
L 138.6303 125.32416 
L 138.3327 121.92384 
L 138.0351 126.9504 
L 137.7375 127.83744 
L 137.4399 117.3408 
L 137.1423 138.18624 
L 136.8447 132.71616 
L 136.5471 125.02848 
L 136.2495 132.1248 
L 135.9519 119.5584 
L 135.6543 126.50688 
L 135.3567 127.54176 
L 135.0591 134.49024 
L 134.7615 113.6448 
L 134.4639 109.65312 
L 134.1663 130.6464 
L 133.8687 121.0368 
L 133.5711 122.5152 
L 133.2735 128.13312 
L 132.9759 124.7328 
L 132.6783 130.49856 
L 132.3807 130.6464 
L 132.0831 133.75104 
L 131.7855 135.37728 
L 131.4879 132.71616 
L 131.1903 130.20288 
L 130.8927 135.8208 
L 130.5951 127.83744 
L 130.2975 130.94208 
L 129.9999 129.75936 
L 129.7023 139.5168 
L 129.4047 139.07328 
L 129.1071 138.92544 
L 128.8095 129.31584 
L 128.5119 133.01184 
L 128.2143 138.48192 
L 127.9167 132.27264 
L 127.6191 139.5168 
L 127.3215 139.66464 
L 127.0239 136.41216 
L 126.7263 142.62144 
L 126.4287 134.04672 
L 126.1311 141.14304 
L 125.8335 151.93536 
L 125.5359 150.01344 
L 125.2383 144.6912 
L 124.9407 148.83072 
L 124.6431 142.32576 
L 124.3455 143.952 
L 124.0479 137.15136 
L 123.7503 138.0384 
L 123.4527 152.37888 
L 123.1551 143.80416 
L 122.8575 147.50016 
L 122.5599 152.67456 
L 122.2623 161.84064 
L 121.9647 153.26592 
L 121.6671 156.37056 
L 121.3695 145.13472 
L 121.0719 148.97856 
L 120.7743 139.96032 
L 120.4767 150.30912 
L 120.1791 144.54336 
L 119.8815 146.1696 
L 119.5839 147.20448 
L 119.2863 142.03008 
L 118.9887 146.76096 
L 118.6911 141.58656 
L 118.3935 149.71776 
L 118.0959 142.76928 
L 117.7983 146.76096 
L 117.5007 145.87392 
L 117.2031 151.19616 
L 116.9055 135.96864 
L 116.6079 142.91712 
L 116.3103 143.06496 
L 116.0127 142.91712 
L 115.7151 143.50848 
L 115.4175 155.33568 
L 115.1199 142.91712 
L 114.8223 154.15296 
L 114.5247 145.13472 
L 114.2271 146.02176 
L 113.9295 149.56992 
L 113.6319 144.24768 
L 113.3343 150.01344 
L 113.0367 152.37888 
L 112.7391 150.90048 
L 112.4415 152.0832 
L 112.1439 148.3872 
L 111.8463 148.3872 
L 111.5487 164.05824 
L 111.2511 151.344 
L 110.9535 152.8224 
L 110.6559 171.15456 
L 110.3583 160.65792 
L 110.0607 156.96192 
L 109.7631 165.68448 
L 109.4655 170.11968 
L 109.1679 155.18784 
L 108.8703 165.53664 
L 108.5727 154.44864 
L 108.2751 159.77088 
L 107.9775 173.07648 
L 107.6799 174.40704 
L 107.3823 164.35392 
L 107.0847 170.26752 
L 106.7871 168.3456 
L 106.4895 183.72096 
L 106.1919 168.19776 
L 105.8943 171.3024 
L 105.5967 171.00672 
L 105.2991 175.88544 
L 105.0015 179.58144 
L 104.7039 167.75424 
L 104.4063 185.3472 
L 104.1087 160.51008 
L 103.8111 171.59808 
L 103.5135 176.18112 
L 103.2159 170.11968 
L 102.9183 181.35552 
L 102.6207 176.77248 
L 102.3231 168.3456 
L 102.0255 182.68608 
L 101.7279 174.9984 
L 101.4303 181.20768 
L 101.1327 204.27072 
L 100.8351 176.18112 
L 100.5375 175.14624 
L 100.2399 193.77408 
L 99.9423 184.90368 
L 99.6447 168.78912 
L 99.3471 167.31072 
L 99.0495 182.98176 
L 98.7519 183.1296 
L 98.4543 193.03488 
L 98.1567 168.19776 
L 97.8591 179.28576 
L 97.5615 175.88544 
L 97.2639 193.4784 
L 96.9663 191.11296 
L 96.6687 172.48512 
L 96.3711 190.66944 
L 96.0735 182.53824 
L 95.7759 183.27744 
L 95.4783 179.58144 
L 95.1807 185.05152 
L 94.8831 184.46016 
L 94.5855 200.27904 
L 94.2879 193.77408 
L 93.9903 189.63456 
L 93.6927 184.90368 
L 93.3951 177.36384 
L 93.0975 171.3024 
L 92.7999 178.84224 
L 92.5023 192.14784 
L 92.2047 188.59968 
L 91.9071 186.38208 
L 91.6095 189.93024 
L 91.3119 183.27744 
L 91.0143 189.19104 
L 90.7167 185.49504 
L 90.4191 190.37376 
L 90.1215 178.99008 
L 89.8239 191.55648 
L 89.5263 198.50496 
L 89.2287 192 
L 88.9311 192 
L 88.6335 195.54816 
L 88.3359 190.5216 
L 88.0383 197.02656 
L 87.7407 193.4784 
L 87.4431 200.72256 
L 87.1455 190.66944 
L 86.8479 195.10464 
L 86.5503 185.93856 
L 86.2527 186.23424 
L 85.9551 194.51328 
L 85.6575 198.94848 
L 85.3599 195.25248 
L 85.0623 193.62624 
L 84.7647 192.59136 
L 84.4671 204.41856 
L 84.1695 198.6528 
L 83.8719 189.7824 
L 83.5743 208.85376 
L 83.2767 200.8704 
L 82.9791 194.06976 
L 82.6815 202.20096 
L 82.3839 197.47008 
L 82.0863 202.05312 
L 81.7887 202.79232 
L 81.4911 199.53984 
L 81.1935 204.41856 
L 80.8959 199.392 
L 80.5983 205.15776 
L 80.3007 199.53984 
L 80.0031 205.60128 
L 79.7055 196.28736 
L 79.4079 206.0448 
L 79.1103 208.70592 
L 78.8127 201.31392 
L 78.5151 196.58304 
L 78.2175 194.2176 
L 77.9199 204.86208 
L 77.6223 181.05984 
L 77.3247 198.35712 
L 77.0271 203.53152 
L 76.7295 206.0448 
L 76.4319 205.74912 
L 76.1343 199.392 
L 75.8367 203.38368 
L 75.5391 194.80896 
L 75.2415 199.392 
L 74.9439 199.83552 
L 74.6463 212.10624 
L 74.3487 209.88864 
L 74.0511 209.0016 
L 73.7535 207.5232 
L 73.4559 200.1312 
L 73.1583 214.47168 
L 72.8607 197.9136 
L 72.5631 213.4368 
L 72.2655 213.4368 
L 71.9679 216.24576 
L 71.6703 216.24576 
L 71.3727 213.58464 
L 71.0751 220.68096 
L 70.7775 219.3504 
L 70.4799 208.11456 
L 70.1823 210.33216 
L 69.8847 205.89696 
L 69.5871 211.66272 
L 69.2895 209.88864 
L 68.9919 211.07136 
L 68.6943 206.19264 
L 68.3967 218.6112 
L 68.0991 212.6976 
L 67.8015 224.5248 
L 67.5039 223.93344 
L 67.2063 205.60128 
L 66.9087 224.22912 
L 66.6111 235.76064 
L 66.3135 240.048 
L 66.0159 211.07136 
L 65.7183 214.02816 
L 65.4207 222.3072 
L 65.1231 220.0896 
L 64.8255 233.69088 
L 64.5279 255.71904 
L 64.2303 245.07456 
L 63.9327 236.05632 
L 63.6351 236.79552 
L 63.3375 213.73248 
L 63.0399 224.67264 
L 62.7423 237.23904 
L 62.4447 249.80544 
L 62.1471 221.86368 
L 61.8495 238.86528 
L 61.5519 238.42176 
L 61.2543 231.32544 
L 60.9567 257.93664 
L 60.6591 252.02304 
L 60.3615 255.86688 
L 60.0639 256.45824 
L 59.7663 261.78048 
L 59.4687 253.05792 
L 59.1711 266.21568 
L 58.8735 262.07616 
L 58.5759 245.07456 
L 58.2783 246.84864 
L 57.9807 217.1328 
L 57.6831 231.02976 
L 57.3855 229.40352 
L 57.0879 233.09952 
L 56.7903 229.40352 
L 56.4927 241.82208 
L 56.1951 233.3952 
L 55.8975 228.07296 
L 55.5999 229.10784 
L 55.3023 221.86368 
L 55.0047 221.12448 
L 54.7071 219.49824 
L 54.4095 223.34208 
L 54.1119 220.0896 
L 53.8143 217.42848 
L 53.5167 219.64608 
L 53.2191 225.264 
L 52.9215 216.98496 
L 52.6239 223.34208 
L 52.3263 219.79392 
L 52.0287 220.97664 
L 51.7311 225.41184 
L 51.4335 222.01152 
L 51.1359 222.15936 
L 50.8383 220.53312 
L 50.5407 222.60288 
L 50.2431 221.42016 
L 49.9455 223.93344 
L 49.6479 222.75072 
L 49.3503 219.94176 
L 49.0527 220.23744 
L 48.7551 222.45504 
L 48.4575 221.86368 
L 48.1599 219.79392 
L 47.8623 220.8288 
L 47.5647 222.75072 
L 47.2671 220.53312 
L 46.9695 223.19424 
L 46.6719 220.97664 
L 46.3743 221.71584 
L 46.0767 220.97664 
L 45.7791 220.53312 
L 45.4815 221.568 
L 45.1839 222.3072 
L 44.8863 221.27232 
L 44.5887 221.71584 
L 44.2911 221.86368 
L 43.9935 220.68096 
L 43.6959 222.15936 
L 43.3983 222.15936 
L 43.1007 221.71584 
L 42.8031 221.568 
L 42.5055 220.8288 
z
" clip-path="url(#pd96ece6031)" style="fill: #60ca60; fill-opacity: 0.3"/>
   </g>
   <g id="matplotlib.axis_1">
    <g id="xtick_1">
     <g id="line2d_1">
      <defs>
       <path id="m4a5a096508" d="M 0 0 
L 0 3.5 
" style="stroke: #000000; stroke-width: 0.8"/>
      </defs>
      <g>
       <use xlink:href="#m4a5a096508" x="33.5775" y="228.96" style="stroke: #000000; stroke-width: 0.8"/>
      </g>
     </g>
     <g id="text_1">
      <text style="font: 6px 'DejaVu Sans', 'Bitstream Vera Sans', 'Computer Modern Sans Serif', 'Lucida Grande', 'Verdana', 'Geneva', 'Lucid', 'Arial', 'Helvetica', 'Avant Garde', sans-serif; text-anchor: middle" x="33.5775" y="240.519062" transform="rotate(-0 33.5775 240.519062)">0</text>
     </g>
    </g>
    <g id="xtick_2">
     <g id="line2d_2">
      <g>
       <use xlink:href="#m4a5a096508" x="69.2895" y="228.96" style="stroke: #000000; stroke-width: 0.8"/>
      </g>
     </g>
     <g id="text_2">
      <text style="font: 6px 'DejaVu Sans', 'Bitstream Vera Sans', 'Computer Modern Sans Serif', 'Lucida Grande', 'Verdana', 'Geneva', 'Lucid', 'Arial', 'Helvetica', 'Avant Garde', sans-serif; text-anchor: middle" x="69.2895" y="240.519062" transform="rotate(-0 69.2895 240.519062)">4</text>
     </g>
    </g>
    <g id="xtick_3">
     <g id="line2d_3">
      <g>
       <use xlink:href="#m4a5a096508" x="105.0015" y="228.96" style="stroke: #000000; stroke-width: 0.8"/>
      </g>
     </g>
     <g id="text_3">
      <text style="font: 6px 'DejaVu Sans', 'Bitstream Vera Sans', 'Computer Modern Sans Serif', 'Lucida Grande', 'Verdana', 'Geneva', 'Lucid', 'Arial', 'Helvetica', 'Avant Garde', sans-serif; text-anchor: middle" x="105.0015" y="240.519062" transform="rotate(-0 105.0015 240.519062)">8</text>
     </g>
    </g>
    <g id="xtick_4">
     <g id="line2d_4">
      <g>
       <use xlink:href="#m4a5a096508" x="140.7135" y="228.96" style="stroke: #000000; stroke-width: 0.8"/>
      </g>
     </g>
     <g id="text_4">
      <text style="font: 6px 'DejaVu Sans', 'Bitstream Vera Sans', 'Computer Modern Sans Serif', 'Lucida Grande', 'Verdana', 'Geneva', 'Lucid', 'Arial', 'Helvetica', 'Avant Garde', sans-serif; text-anchor: middle" x="140.7135" y="240.519062" transform="rotate(-0 140.7135 240.519062)">12</text>
     </g>
    </g>
    <g id="xtick_5">
     <g id="line2d_5">
      <g>
       <use xlink:href="#m4a5a096508" x="176.4255" y="228.96" style="stroke: #000000; stroke-width: 0.8"/>
      </g>
     </g>
     <g id="text_5">
      <text style="font: 6px 'DejaVu Sans', 'Bitstream Vera Sans', 'Computer Modern Sans Serif', 'Lucida Grande', 'Verdana', 'Geneva', 'Lucid', 'Arial', 'Helvetica', 'Avant Garde', sans-serif; text-anchor: middle" x="176.4255" y="240.519062" transform="rotate(-0 176.4255 240.519062)">16</text>
     </g>
    </g>
    <g id="xtick_6">
     <g id="line2d_6">
      <g>
       <use xlink:href="#m4a5a096508" x="212.1375" y="228.96" style="stroke: #000000; stroke-width: 0.8"/>
      </g>
     </g>
     <g id="text_6">
      <text style="font: 6px 'DejaVu Sans', 'Bitstream Vera Sans', 'Computer Modern Sans Serif', 'Lucida Grande', 'Verdana', 'Geneva', 'Lucid', 'Arial', 'Helvetica', 'Avant Garde', sans-serif; text-anchor: middle" x="212.1375" y="240.519062" transform="rotate(-0 212.1375 240.519062)">20</text>
     </g>
    </g>
    <g id="xtick_7">
     <g id="line2d_7">
      <g>
       <use xlink:href="#m4a5a096508" x="247.8495" y="228.96" style="stroke: #000000; stroke-width: 0.8"/>
      </g>
     </g>
     <g id="text_7">
      <text style="font: 6px 'DejaVu Sans', 'Bitstream Vera Sans', 'Computer Modern Sans Serif', 'Lucida Grande', 'Verdana', 'Geneva', 'Lucid', 'Arial', 'Helvetica', 'Avant Garde', sans-serif; text-anchor: middle" x="247.8495" y="240.519062" transform="rotate(-0 247.8495 240.519062)">24</text>
     </g>
    </g>
    <g id="text_8">
     <text style="font: 8px 'DejaVu Sans', 'Bitstream Vera Sans', 'Computer Modern Sans Serif', 'Lucida Grande', 'Verdana', 'Geneva', 'Lucid', 'Arial', 'Helvetica', 'Avant Garde', sans-serif; text-anchor: middle" x="145.1775" y="251.845625" transform="rotate(-0 145.1775 251.845625)">Experimental time (hpf)</text>
    </g>
   </g>
   <g id="matplotlib.axis_2">
    <g id="ytick_1">
     <g id="line2d_8">
      <defs>
       <path id="m0d727a8108" d="M 0 0 
L -3.5 0 
" style="stroke: #000000; stroke-width: 0.8"/>
      </defs>
      <g>
       <use xlink:href="#m0d727a8108" x="33.5775" y="228.96" style="stroke: #000000; stroke-width: 0.8"/>
      </g>
     </g>
     <g id="text_9">
      <text style="font: 6px 'DejaVu Sans', 'Bitstream Vera Sans', 'Computer Modern Sans Serif', 'Lucida Grande', 'Verdana', 'Geneva', 'Lucid', 'Arial', 'Helvetica', 'Avant Garde', sans-serif; text-anchor: end" x="26.5775" y="231.239531" transform="rotate(-0 26.5775 231.239531)">0</text>
     </g>
    </g>
    <g id="ytick_2">
     <g id="line2d_9">
      <g>
       <use xlink:href="#m0d727a8108" x="33.5775" y="193.4784" style="stroke: #000000; stroke-width: 0.8"/>
      </g>
     </g>
     <g id="text_10">
      <text style="font: 6px 'DejaVu Sans', 'Bitstream Vera Sans', 'Computer Modern Sans Serif', 'Lucida Grande', 'Verdana', 'Geneva', 'Lucid', 'Arial', 'Helvetica', 'Avant Garde', sans-serif; text-anchor: end" x="26.5775" y="195.757931" transform="rotate(-0 26.5775 195.757931)">4</text>
     </g>
    </g>
    <g id="ytick_3">
     <g id="line2d_10">
      <g>
       <use xlink:href="#m0d727a8108" x="33.5775" y="157.9968" style="stroke: #000000; stroke-width: 0.8"/>
      </g>
     </g>
     <g id="text_11">
      <text style="font: 6px 'DejaVu Sans', 'Bitstream Vera Sans', 'Computer Modern Sans Serif', 'Lucida Grande', 'Verdana', 'Geneva', 'Lucid', 'Arial', 'Helvetica', 'Avant Garde', sans-serif; text-anchor: end" x="26.5775" y="160.276331" transform="rotate(-0 26.5775 160.276331)">8</text>
     </g>
    </g>
    <g id="ytick_4">
     <g id="line2d_11">
      <g>
       <use xlink:href="#m0d727a8108" x="33.5775" y="122.5152" style="stroke: #000000; stroke-width: 0.8"/>
      </g>
     </g>
     <g id="text_12">
      <text style="font: 6px 'DejaVu Sans', 'Bitstream Vera Sans', 'Computer Modern Sans Serif', 'Lucida Grande', 'Verdana', 'Geneva', 'Lucid', 'Arial', 'Helvetica', 'Avant Garde', sans-serif; text-anchor: end" x="26.5775" y="124.794731" transform="rotate(-0 26.5775 124.794731)">12</text>
     </g>
    </g>
    <g id="ytick_5">
     <g id="line2d_12">
      <g>
       <use xlink:href="#m0d727a8108" x="33.5775" y="87.0336" style="stroke: #000000; stroke-width: 0.8"/>
      </g>
     </g>
     <g id="text_13">
      <text style="font: 6px 'DejaVu Sans', 'Bitstream Vera Sans', 'Computer Modern Sans Serif', 'Lucida Grande', 'Verdana', 'Geneva', 'Lucid', 'Arial', 'Helvetica', 'Avant Garde', sans-serif; text-anchor: end" x="26.5775" y="89.313131" transform="rotate(-0 26.5775 89.313131)">16</text>
     </g>
    </g>
    <g id="ytick_6">
     <g id="line2d_13">
      <g>
       <use xlink:href="#m0d727a8108" x="33.5775" y="51.552" style="stroke: #000000; stroke-width: 0.8"/>
      </g>
     </g>
     <g id="text_14">
      <text style="font: 6px 'DejaVu Sans', 'Bitstream Vera Sans', 'Computer Modern Sans Serif', 'Lucida Grande', 'Verdana', 'Geneva', 'Lucid', 'Arial', 'Helvetica', 'Avant Garde', sans-serif; text-anchor: end" x="26.5775" y="53.831531" transform="rotate(-0 26.5775 53.831531)">20</text>
     </g>
    </g>
    <g id="ytick_7">
     <g id="line2d_14">
      <g>
       <use xlink:href="#m0d727a8108" x="33.5775" y="16.0704" style="stroke: #000000; stroke-width: 0.8"/>
      </g>
     </g>
     <g id="text_15">
      <text style="font: 6px 'DejaVu Sans', 'Bitstream Vera Sans', 'Computer Modern Sans Serif', 'Lucida Grande', 'Verdana', 'Geneva', 'Lucid', 'Arial', 'Helvetica', 'Avant Garde', sans-serif; text-anchor: end" x="26.5775" y="18.349931" transform="rotate(-0 26.5775 18.349931)">24</text>
     </g>
    </g>
    <g id="text_16">
     <text style="font: 8px 'DejaVu Sans', 'Bitstream Vera Sans', 'Computer Modern Sans Serif', 'Lucida Grande', 'Verdana', 'Geneva', 'Lucid', 'Arial', 'Helvetica', 'Avant Garde', sans-serif; text-anchor: middle" x="13.27875" y="118.08" transform="rotate(-90 13.27875 118.08)">Developmental age (hpf)</text>
    </g>
   </g>
   <g id="line2d_15">
    <path d="M 42.5055 220.0896 
L 226.799661 -1 
L 226.799661 -1 
" clip-path="url(#pd96ece6031)" style="fill: none; stroke: #60ca60; stroke-linecap: square"/>
   </g>
   <g id="line2d_16">
    <path d="M 42.5055 220.0896 
L 229.82922 -1 
L 229.82922 -1 
" clip-path="url(#pd96ece6031)" style="fill: none; stroke-dasharray: 3.7,1.6; stroke-dashoffset: 0; stroke: #60ca60"/>
   </g>
   <g id="line2d_17">
    <path d="M 42.5055 220.0896 
L 224.271459 -1 
L 224.271459 -1 
" clip-path="url(#pd96ece6031)" style="fill: none; stroke-dasharray: 3.7,1.6; stroke-dashoffset: 0; stroke: #60ca60"/>
   </g>
   <g id="patch_3">
    <path d="M 33.5775 228.96 
L 33.5775 7.2 
" style="fill: none; stroke: #000000; stroke-width: 0.8; stroke-linejoin: miter; stroke-linecap: square"/>
   </g>
   <g id="patch_4">
    <path d="M 33.5775 228.96 
L 256.7775 228.96 
" style="fill: none; stroke: #000000; stroke-width: 0.8; stroke-linejoin: miter; stroke-linecap: square"/>
   </g>
   <g id="legend_1">
    <g id="patch_5">
     <path d="M 37.6305 28.829269 
L 196.698989 28.829269 
Q 197.856989 28.829269 197.856989 27.671269 
L 197.856989 11.253 
Q 197.856989 10.095 196.698989 10.095 
L 37.6305 10.095 
Q 36.4725 10.095 36.4725 11.253 
L 36.4725 27.671269 
Q 36.4725 28.829269 37.6305 28.829269 
z
" style="fill: #ffffff; opacity: 0.8; stroke: #cccccc; stroke-linejoin: miter"/>
    </g>
    <g id="line2d_18">
     <path d="M 38.7885 14.783995 
L 44.5785 14.783995 
L 50.3685 14.783995 
" style="fill: none; stroke: #60ca60; stroke-linecap: square"/>
    </g>
    <g id="text_17">
     <text style="font: 5.79px 'DejaVu Sans', 'Bitstream Vera Sans', 'Computer Modern Sans Serif', 'Lucida Grande', 'Verdana', 'Geneva', 'Lucid', 'Arial', 'Helvetica', 'Avant Garde', sans-serif; text-anchor: start" x="55.0005" y="16.810495" transform="rotate(-0 55.0005 16.810495)">Linear fit: slope=1.207 [1.188,1.224], R2=0.978</text>
    </g>
    <g id="patch_6">
     <path d="M 38.7885 25.30913 
L 50.3685 25.30913 
L 50.3685 21.25613 
L 38.7885 21.25613 
z
" style="fill: #60ca60; fill-opacity: 0.3"/>
    </g>
    <g id="text_18">
     <text style="font: 5.79px 'DejaVu Sans', 'Bitstream Vera Sans', 'Computer Modern Sans Serif', 'Lucida Grande', 'Verdana', 'Geneva', 'Lucid', 'Arial', 'Helvetica', 'Avant Garde', sans-serif; text-anchor: start" x="55.0005" y="25.30913" transform="rotate(-0 55.0005 25.30913)">Median:32.0C</text>
    </g>
   </g>
  </g>
 </g>
 <defs>
  <clipPath id="pd96ece6031">
   <rect x="33.5775" y="7.2" width="223.2" height="221.76"/>
  </clipPath>
 </defs>
</svg>
