<?xml version="1.0" encoding="utf-8" standalone="no"?>
<!DOCTYPE svg PUBLIC "-//W3C//DTD SVG 1.1//EN"
  "http://www.w3.org/Graphics/SVG/1.1/DTD/svg11.dtd">
<svg xmlns:xlink="http://www.w3.org/1999/xlink" width="263.9775pt" height="260.709375pt" viewBox="0 0 263.9775 260.709375" xmlns="http://www.w3.org/2000/svg" version="1.1">
 <metadata>
  <rdf:RDF xmlns:dc="http://purl.org/dc/elements/1.1/" xmlns:cc="http://creativecommons.org/ns#" xmlns:rdf="http://www.w3.org/1999/02/22-rdf-syntax-ns#">
   <cc:Work>
    <dc:type rdf:resource="http://purl.org/dc/dcmitype/StillImage"/>
    <dc:date>2023-07-28T12:59:57.669051</dc:date>
    <dc:format>image/svg+xml</dc:format>
    <dc:creator>
     <cc:Agent>
      <dc:title>Matplotlib v3.7.0, https://matplotlib.org/</dc:title>
     </cc:Agent>
    </dc:creator>
   </cc:Work>
  </rdf:RDF>
 </metadata>
 <defs>
  <style type="text/css">*{stroke-linejoin: round; stroke-linecap: butt}</style>
 </defs>
 <g id="figure_1">
  <g id="patch_1">
   <path d="M 0 260.709375 
L 263.9775 260.709375 
L 263.9775 0 
L 0 0 
z
" style="fill: #ffffff"/>
  </g>
  <g id="axes_1">
   <g id="patch_2">
    <path d="M 33.5775 228.96 
L 256.7775 228.96 
L 256.7775 7.2 
L 33.5775 7.2 
z
" style="fill: #ffffff"/>
   </g>
   <g id="PolyCollection_1">
    <path d="M 40.2735 221.86368 
L 40.2735 208.85376 
L 40.5711 209.7408 
L 40.8687 208.55808 
L 41.1663 207.37536 
L 41.4639 207.07968 
L 41.7615 207.67104 
L 42.0591 206.19264 
L 42.3567 202.3488 
L 42.6543 209.14944 
L 42.9519 207.67104 
L 43.2495 201.46176 
L 43.5471 202.94016 
L 43.8447 203.23584 
L 44.1423 197.9136 
L 44.4399 198.80064 
L 44.7375 198.80064 
L 45.0351 198.20928 
L 45.3327 202.3488 
L 45.6303 202.94016 
L 45.9279 196.4352 
L 46.2255 200.8704 
L 46.5231 199.68768 
L 46.8207 203.23584 
L 47.1183 195.25248 
L 47.4159 203.53152 
L 47.7135 191.70432 
L 48.0111 195.54816 
L 48.3087 199.392 
L 48.6063 194.66112 
L 48.9039 193.18272 
L 49.2015 196.4352 
L 49.4991 184.608 
L 49.7967 192.59136 
L 50.0943 194.36544 
L 50.3919 196.13952 
L 50.6895 196.73088 
L 50.9871 186.97344 
L 51.2847 191.70432 
L 51.5823 191.40864 
L 51.8799 186.67776 
L 52.1775 190.22592 
L 52.4751 186.67776 
L 52.7727 189.63456 
L 53.0703 189.93024 
L 53.3679 185.49504 
L 53.6655 178.99008 
L 53.9631 181.94688 
L 54.2607 180.46848 
L 54.5583 180.76416 
L 54.8559 178.39872 
L 55.1535 181.35552 
L 55.4511 179.58144 
L 55.7487 183.72096 
L 56.0463 179.28576 
L 56.3439 183.42528 
L 56.6415 180.46848 
L 56.9391 186.97344 
L 57.2367 173.37216 
L 57.5343 171.89376 
L 57.8319 177.80736 
L 58.1295 174.55488 
L 58.4271 178.6944 
L 58.7247 167.16288 
L 59.0223 176.03328 
L 59.3199 154.74432 
L 59.6175 165.3888 
L 59.9151 169.824 
L 60.2127 173.66784 
L 60.5103 166.27584 
L 60.8079 170.11968 
L 61.1055 176.92032 
L 61.4031 164.79744 
L 61.7007 163.02336 
L 61.9983 160.36224 
L 62.2959 164.50176 
L 62.5935 163.02336 
L 62.8911 157.10976 
L 63.1887 150.30912 
L 63.4863 153.26592 
L 63.7839 154.74432 
L 64.0815 135.8208 
L 64.3791 167.45856 
L 64.6767 143.2128 
L 64.9743 155.33568 
L 65.2719 150.90048 
L 65.5695 167.75424 
L 65.8671 155.33568 
L 66.1647 159.17952 
L 66.4623 154.15296 
L 66.7599 162.13632 
L 67.0575 159.4752 
L 67.3551 171.3024 
L 67.6527 135.52512 
L 67.9503 168.3456 
L 68.2479 158.88384 
L 68.5455 119.5584 
L 68.8431 149.42208 
L 69.1407 156.5184 
L 69.4383 132.56832 
L 69.7359 129.02016 
L 70.0335 140.55168 
L 70.3311 153.85728 
L 70.6287 151.49184 
L 70.9263 156.81408 
L 71.2239 138.7776 
L 71.5215 162.13632 
L 71.8191 139.96032 
L 72.1167 138.18624 
L 72.4143 118.08 
L 72.7119 143.80416 
L 73.0095 160.06656 
L 73.3071 163.61472 
L 73.6047 160.9536 
L 73.9023 156.22272 
L 74.1999 142.62144 
L 74.4975 141.14304 
L 74.7951 146.1696 
L 75.0927 154.74432 
L 75.3903 149.42208 
L 75.6879 157.10976 
L 75.9855 146.46528 
L 76.2831 133.45536 
L 76.5807 144.09984 
L 76.8783 136.70784 
L 77.1759 160.36224 
L 77.4735 151.19616 
L 77.7711 143.80416 
L 78.0687 153.5616 
L 78.3663 143.80416 
L 78.6639 162.72768 
L 78.9615 149.1264 
L 79.2591 143.50848 
L 79.5567 149.71776 
L 79.8543 159.77088 
L 80.1519 136.70784 
L 80.4495 159.17952 
L 80.7471 144.6912 
L 81.0447 109.50528 
L 81.3423 126.06336 
L 81.6399 133.15968 
L 81.9375 143.50848 
L 82.2351 143.50848 
L 82.5327 137.00352 
L 82.8303 115.71456 
L 83.1279 109.2096 
L 83.4255 113.34912 
L 83.7231 132.27264 
L 84.0207 118.96704 
L 84.3183 117.48864 
L 84.6159 116.6016 
L 84.9135 113.6448 
L 85.2111 116.30592 
L 85.5087 121.0368 
L 85.8063 127.54176 
L 86.1039 114.23616 
L 86.4015 117.48864 
L 86.6991 121.62816 
L 86.9967 116.89728 
L 87.2943 113.6448 
L 87.5919 102.11328 
L 87.8895 122.21952 
L 88.1871 119.5584 
L 88.4847 113.05344 
L 88.7823 95.60832 
L 89.0799 91.76448 
L 89.3775 97.3824 
L 89.6751 106.84416 
L 89.9727 97.97376 
L 90.2703 102.40896 
L 90.5679 105.95712 
L 90.8655 106.84416 
L 91.1631 111.27936 
L 91.4607 116.01024 
L 91.7583 103.296 
L 92.0559 115.71456 
L 92.3535 112.75776 
L 92.6511 110.688 
L 92.9487 110.09664 
L 93.2463 102.11328 
L 93.5439 106.54848 
L 93.8415 119.85408 
L 94.1391 114.23616 
L 94.4367 115.1232 
L 94.7343 114.23616 
L 95.0319 108.91392 
L 95.3295 112.46208 
L 95.6271 109.50528 
L 95.9247 117.19296 
L 96.2223 106.2528 
L 96.5199 117.48864 
L 96.8175 111.57504 
L 97.1151 117.48864 
L 97.4127 110.39232 
L 97.7103 119.26272 
L 98.0079 119.85408 
L 98.3055 114.53184 
L 98.6031 113.05344 
L 98.9007 111.57504 
L 99.1983 115.1232 
L 99.4959 113.6448 
L 99.7935 114.53184 
L 100.0911 122.21952 
L 100.3887 121.0368 
L 100.6863 112.75776 
L 100.9839 118.37568 
L 101.2815 117.19296 
L 101.5791 116.89728 
L 101.8767 116.6016 
L 102.1743 117.78432 
L 102.4719 120.14976 
L 102.7695 121.33248 
L 103.0671 125.17632 
L 103.3647 117.48864 
L 103.6623 120.44544 
L 103.9599 116.89728 
L 104.2575 118.96704 
L 104.5551 119.85408 
L 104.8527 119.85408 
L 105.1503 119.26272 
L 105.4479 121.33248 
L 105.7455 126.65472 
L 106.0431 113.05344 
L 106.3407 123.69792 
L 106.6383 125.76768 
L 106.9359 119.85408 
L 107.2335 122.81088 
L 107.5311 118.08 
L 107.8287 121.0368 
L 108.1263 120.14976 
L 108.4239 117.78432 
L 108.7215 118.37568 
L 109.0191 121.0368 
L 109.3167 121.92384 
L 109.6143 115.1232 
L 109.9119 120.44544 
L 110.2095 125.17632 
L 110.5071 120.74112 
L 110.8047 119.5584 
L 111.1023 121.92384 
L 111.3999 121.0368 
L 111.6975 120.44544 
L 111.9951 116.6016 
L 112.2927 118.96704 
L 112.5903 123.69792 
L 112.8879 127.54176 
L 113.1855 122.81088 
L 113.4831 125.472 
L 113.7807 121.33248 
L 114.0783 123.9936 
L 114.3759 125.472 
L 114.6735 126.06336 
L 114.9711 118.37568 
L 115.2687 121.0368 
L 115.5663 126.9504 
L 115.8639 121.92384 
L 116.1615 126.65472 
L 116.4591 120.74112 
L 116.7567 124.88064 
L 117.0543 121.33248 
L 117.3519 121.92384 
L 117.6495 129.31584 
L 117.9471 120.74112 
L 118.2447 120.74112 
L 118.5423 121.62816 
L 118.8399 123.10656 
L 119.1375 127.54176 
L 119.4351 124.88064 
L 119.7327 121.0368 
L 120.0303 127.24608 
L 120.3279 123.69792 
L 120.6255 123.9936 
L 120.9231 122.81088 
L 121.2207 129.02016 
L 121.5183 121.92384 
L 121.8159 126.65472 
L 122.1135 119.85408 
L 122.4111 124.58496 
L 122.7087 127.83744 
L 123.0063 124.88064 
L 123.3039 127.24608 
L 123.6015 125.472 
L 123.8991 124.28928 
L 124.1967 123.69792 
L 124.4943 126.35904 
L 124.7919 121.33248 
L 125.0895 125.472 
L 125.3871 127.24608 
L 125.6847 121.92384 
L 125.9823 126.9504 
L 126.2799 118.96704 
L 126.5775 124.88064 
L 126.8751 124.88064 
L 127.1727 123.10656 
L 127.4703 124.28928 
L 127.7679 119.85408 
L 128.0655 126.06336 
L 128.3631 125.472 
L 128.6607 126.06336 
L 128.9583 121.92384 
L 129.2559 122.5152 
L 129.5535 123.69792 
L 129.8511 128.72448 
L 130.1487 129.02016 
L 130.4463 120.74112 
L 130.7439 123.10656 
L 131.0415 118.08 
L 131.3391 123.40224 
L 131.6367 124.28928 
L 131.9343 121.92384 
L 132.2319 121.62816 
L 132.5295 120.44544 
L 132.8271 123.9936 
L 133.1247 123.40224 
L 133.4223 119.5584 
L 133.7199 121.62816 
L 134.0175 127.24608 
L 134.3151 123.69792 
L 134.6127 120.74112 
L 134.9103 120.44544 
L 135.2079 124.28928 
L 135.5055 116.6016 
L 135.8031 124.58496 
L 136.1007 119.26272 
L 136.3983 115.1232 
L 136.6959 126.06336 
L 136.9935 118.37568 
L 137.2911 123.40224 
L 137.5887 121.92384 
L 137.8863 123.69792 
L 138.1839 123.10656 
L 138.4815 118.67136 
L 138.7791 127.24608 
L 139.0767 124.58496 
L 139.3743 121.92384 
L 139.6719 126.35904 
L 139.9695 125.76768 
L 140.2671 122.81088 
L 140.5647 123.40224 
L 140.8623 122.81088 
L 141.1599 123.10656 
L 141.4575 123.10656 
L 141.7551 124.28928 
L 142.0527 121.33248 
L 142.3503 115.41888 
L 142.6479 121.62816 
L 142.9455 119.5584 
L 143.2431 117.78432 
L 143.5407 124.28928 
L 143.8383 114.82752 
L 144.1359 113.05344 
L 144.4335 118.37568 
L 144.7311 113.6448 
L 145.0287 115.41888 
L 145.3263 117.48864 
L 145.6239 114.53184 
L 145.9215 117.19296 
L 146.2191 110.39232 
L 146.5167 118.37568 
L 146.8143 112.75776 
L 147.1119 114.23616 
L 147.4095 109.50528 
L 147.7071 110.688 
L 148.0047 106.84416 
L 148.3023 104.18304 
L 148.5999 109.50528 
L 148.8975 104.18304 
L 149.1951 112.46208 
L 149.4927 105.66144 
L 149.7903 103.59168 
L 150.0879 107.43552 
L 150.3855 108.61824 
L 150.6831 96.19968 
L 150.9807 105.07008 
L 151.2783 107.13984 
L 151.5759 99.45216 
L 151.8735 96.79104 
L 152.1711 99.45216 
L 152.4687 104.18304 
L 152.7663 101.22624 
L 153.0639 96.49536 
L 153.3615 100.93056 
L 153.6591 101.8176 
L 153.9567 98.26944 
L 154.2543 102.70464 
L 154.5519 93.83424 
L 154.8495 99.45216 
L 155.1471 98.56512 
L 155.4447 97.97376 
L 155.7423 91.17312 
L 156.0399 94.4256 
L 156.3375 99.45216 
L 156.6351 105.66144 
L 156.9327 97.97376 
L 157.2303 80.82432 
L 157.5279 96.79104 
L 157.8255 93.53856 
L 158.1231 89.10336 
L 158.4207 92.65152 
L 158.7183 87.32928 
L 159.0159 86.14656 
L 159.3135 90.87744 
L 159.6111 87.32928 
L 159.9087 94.72128 
L 160.2063 83.48544 
L 160.5039 88.21632 
L 160.8015 71.65824 
L 161.0991 80.52864 
L 161.3967 84.66816 
L 161.6943 66.63168 
L 161.9919 77.57184 
L 162.2895 72.2496 
L 162.5871 69.88416 
L 162.8847 76.98048 
L 163.1823 70.7712 
L 163.4799 77.86752 
L 163.7775 66.336 
L 164.0751 72.2496 
L 164.3727 80.52864 
L 164.6703 60.71808 
L 164.9679 91.17312 
L 165.2655 85.25952 
L 165.5631 56.28288 
L 165.8607 82.5984 
L 166.1583 68.40576 
L 166.4559 68.70144 
L 166.7535 90.58176 
L 167.0511 64.8576 
L 167.3487 67.8144 
L 167.6463 80.82432 
L 167.9439 81.41568 
L 168.2415 82.30272 
L 168.5391 71.65824 
L 168.8367 69.88416 
L 169.1343 69.2928 
L 169.4319 69.58848 
L 169.7295 54.80448 
L 170.0271 62.19648 
L 170.3247 74.02368 
L 170.6223 79.34592 
L 170.9199 56.28288 
L 171.2175 70.7712 
L 171.5151 67.51872 
L 171.8127 73.13664 
L 172.1103 71.36256 
L 172.4079 56.28288 
L 172.7055 67.51872 
L 173.0031 69.2928 
L 173.3007 78.45888 
L 173.5983 75.2064 
L 173.8959 82.30272 
L 174.1935 68.99712 
L 174.4911 81.71136 
L 174.7887 74.61504 
L 175.0863 55.69152 
L 175.3839 83.78112 
L 175.6815 80.23296 
L 175.9791 74.02368 
L 176.2767 71.06688 
L 176.5743 64.8576 
L 176.8719 63.3792 
L 177.1695 74.02368 
L 177.4671 79.34592 
L 177.7647 72.54528 
L 178.0623 72.54528 
L 178.3599 59.53536 
L 178.6575 69.88416 
L 178.9551 72.54528 
L 179.2527 72.84096 
L 179.5503 71.65824 
L 179.8479 60.12672 
L 180.1455 71.06688 
L 180.4431 57.4656 
L 180.7407 73.43232 
L 181.0383 70.47552 
L 181.3359 65.15328 
L 181.6335 68.99712 
L 181.9311 66.92736 
L 182.2287 62.19648 
L 182.5263 72.54528 
L 182.8239 80.82432 
L 183.1215 72.2496 
L 183.4191 71.36256 
L 183.7167 76.38912 
L 184.0143 71.06688 
L 184.3119 54.21312 
L 184.6095 70.47552 
L 184.9071 70.17984 
L 185.2047 61.60512 
L 185.5023 79.93728 
L 185.7999 70.17984 
L 186.0975 80.52864 
L 186.3951 71.06688 
L 186.6927 73.13664 
L 186.9903 65.74464 
L 187.2879 66.92736 
L 187.5855 64.8576 
L 187.8831 66.336 
L 188.1807 71.65824 
L 188.4783 69.2928 
L 188.7759 64.56192 
L 189.0735 57.76128 
L 189.3711 53.32608 
L 189.6687 58.64832 
L 189.9663 58.05696 
L 190.2639 66.04032 
L 190.5615 66.63168 
L 190.8591 68.11008 
L 191.1567 67.22304 
L 191.4543 62.19648 
L 191.7519 60.12672 
L 192.0495 64.56192 
L 192.3471 61.60512 
L 192.6447 66.04032 
L 192.9423 68.40576 
L 193.2399 67.22304 
L 193.5375 66.336 
L 193.8351 76.38912 
L 194.1327 65.15328 
L 194.4303 75.50208 
L 194.7279 73.728 
L 195.0255 60.12672 
L 195.3231 69.88416 
L 195.6207 66.63168 
L 195.9183 65.74464 
L 196.2159 65.44896 
L 196.5135 73.13664 
L 196.8111 70.47552 
L 197.1087 68.70144 
L 197.4063 80.52864 
L 197.7039 65.15328 
L 198.0015 74.61504 
L 198.2991 65.44896 
L 198.5967 54.5088 
L 198.8943 72.54528 
L 199.1919 79.05024 
L 199.4895 75.2064 
L 199.7871 82.30272 
L 200.0847 60.71808 
L 200.3823 61.01376 
L 200.6799 69.88416 
L 200.9775 56.28288 
L 201.2751 68.40576 
L 201.5727 69.88416 
L 201.8703 71.06688 
L 202.1679 66.04032 
L 202.4655 74.61504 
L 202.7631 61.9008 
L 203.0607 53.32608 
L 203.3583 69.58848 
L 203.6559 61.01376 
L 203.9535 66.04032 
L 204.2511 67.51872 
L 204.5487 63.3792 
L 204.8463 62.19648 
L 205.1439 60.71808 
L 205.4415 58.64832 
L 205.7391 60.71808 
L 206.0367 57.4656 
L 206.3343 71.95392 
L 206.6319 59.83104 
L 206.9295 75.79776 
L 207.2271 56.57856 
L 207.5247 67.22304 
L 207.8223 75.50208 
L 208.1199 57.4656 
L 208.4175 63.3792 
L 208.7151 78.1632 
L 209.0127 58.944 
L 209.3103 71.06688 
L 209.6079 69.2928 
L 209.9055 60.4224 
L 210.2031 77.27616 
L 210.5007 65.74464 
L 210.7983 67.22304 
L 211.0959 70.7712 
L 211.3935 67.22304 
L 211.6911 63.67488 
L 211.9887 58.944 
L 212.2863 63.08352 
L 212.5839 64.26624 
L 212.8815 52.43904 
L 213.1791 71.06688 
L 213.4767 61.60512 
L 213.7743 68.40576 
L 214.0719 63.3792 
L 214.3695 61.60512 
L 214.6671 62.19648 
L 214.9647 69.88416 
L 215.2623 65.44896 
L 215.5599 60.71808 
L 215.8575 44.45568 
L 216.1551 54.80448 
L 216.4527 45.04704 
L 216.7503 59.83104 
L 217.0479 58.35264 
L 217.3455 54.80448 
L 217.6431 54.21312 
L 217.9407 64.26624 
L 218.2383 57.4656 
L 218.5359 61.9008 
L 218.8335 60.4224 
L 219.1311 47.70816 
L 219.4287 51.84768 
L 219.7263 67.8144 
L 220.0239 60.71808 
L 220.3215 47.1168 
L 220.6191 51.552 
L 220.9167 50.36928 
L 221.2143 54.21312 
L 221.5119 41.2032 
L 221.8095 67.51872 
L 222.1071 48.89088 
L 222.4047 61.01376 
L 222.7023 60.4224 
L 222.9999 57.16992 
L 223.2975 56.87424 
L 223.5951 56.57856 
L 223.8927 53.91744 
L 224.1903 51.25632 
L 224.4879 45.34272 
L 224.7855 56.57856 
L 225.0831 58.64832 
L 225.3807 56.87424 
L 225.6783 40.90752 
L 225.9759 55.10016 
L 226.2735 48.00384 
L 226.5711 53.91744 
L 226.8687 55.39584 
L 227.1663 54.5088 
L 227.4639 61.60512 
L 227.7615 56.28288 
L 228.0591 54.80448 
L 228.3567 43.56864 
L 228.6543 43.86432 
L 228.9519 42.6816 
L 229.2495 47.1168 
L 229.5471 50.66496 
L 229.8447 41.49888 
L 230.1423 62.78784 
L 230.4399 34.10688 
L 230.7375 42.6816 
L 231.0351 42.97728 
L 231.3327 53.0304 
L 231.6303 53.91744 
L 231.9279 48.00384 
L 232.2255 39.42912 
L 232.5231 37.06368 
L 232.8207 48.29952 
L 233.1183 39.13344 
L 233.4159 40.31616 
L 233.7135 39.42912 
L 234.0111 36.768 
L 234.3087 47.70816 
L 234.6063 34.99392 
L 234.9039 39.42912 
L 235.2015 42.38592 
L 235.4991 61.30944 
L 235.7967 38.83776 
L 236.0943 56.87424 
L 236.3919 38.54208 
L 236.6895 31.15008 
L 236.9871 22.57536 
L 237.2847 41.79456 
L 237.5823 32.03712 
L 237.8799 45.34272 
L 238.1775 32.62848 
L 238.4751 27.30624 
L 238.7727 40.90752 
L 239.0703 39.7248 
L 239.3679 33.51552 
L 239.6655 32.3328 
L 239.9631 39.7248 
L 240.2607 29.08032 
L 240.5583 28.48896 
L 240.8559 29.376 
L 241.1535 26.4192 
L 241.4511 37.65504 
L 241.7487 14.29632 
L 242.0463 21.68832 
L 242.3439 23.4624 
L 242.6415 23.16672 
L 242.9391 30.26304 
L 243.2367 13.1136 
L 243.5343 45.04704 
L 243.8319 20.80128 
L 244.1295 22.57536 
L 244.4271 11.93088 
L 244.7247 14.29632 
L 245.0223 14.592 
L 245.3199 17.25312 
L 245.6175 27.30624 
L 245.9151 16.0704 
L 246.2127 20.5056 
L 246.5103 18.14016 
L 246.8079 20.20992 
L 247.1055 13.1136 
L 247.4031 15.18336 
L 247.7007 20.80128 
L 247.9983 14.592 
L 248.2959 28.19328 
L 248.5935 20.5056 
L 248.8911 22.27968 
L 249.1887 17.25312 
L 249.4863 20.80128 
L 249.7839 18.43584 
L 250.0815 18.43584 
L 250.3791 19.0272 
L 250.6767 21.39264 
L 250.9743 22.87104 
L 251.2719 32.3328 
L 251.5695 15.77472 
L 251.8671 21.39264 
L 252.1647 14.592 
L 252.4623 21.984 
L 252.7599 12.22656 
L 253.0575 22.87104 
L 253.3551 6.31296 
L 253.6527 21.39264 
L 253.9503 21.39264 
L 254.2479 8.97408 
L 254.2479 79.93728 
L 254.2479 79.93728 
L 253.9503 98.26944 
L 253.6527 89.9904 
L 253.3551 83.18976 
L 253.0575 83.18976 
L 252.7599 110.39232 
L 252.4623 103.59168 
L 252.1647 87.92064 
L 251.8671 103.00032 
L 251.5695 113.94048 
L 251.2719 109.2096 
L 250.9743 92.65152 
L 250.6767 101.8176 
L 250.3791 84.0768 
L 250.0815 97.67808 
L 249.7839 103.59168 
L 249.4863 100.04352 
L 249.1887 111.87072 
L 248.8911 101.52192 
L 248.5935 87.92064 
L 248.2959 106.2528 
L 247.9983 113.94048 
L 247.7007 100.04352 
L 247.4031 113.34912 
L 247.1055 114.82752 
L 246.8079 89.9904 
L 246.5103 102.11328 
L 246.2127 95.01696 
L 245.9151 108.32256 
L 245.6175 112.46208 
L 245.3199 105.95712 
L 245.0223 103.296 
L 244.7247 116.01024 
L 244.4271 124.28928 
L 244.1295 105.36576 
L 243.8319 110.688 
L 243.5343 108.91392 
L 243.2367 112.46208 
L 242.9391 105.95712 
L 242.6415 122.5152 
L 242.3439 109.80096 
L 242.0463 124.58496 
L 241.7487 110.09664 
L 241.4511 110.98368 
L 241.1535 128.13312 
L 240.8559 103.88736 
L 240.5583 116.01024 
L 240.2607 113.05344 
L 239.9631 105.95712 
L 239.6655 108.02688 
L 239.3679 113.94048 
L 239.0703 102.40896 
L 238.7727 126.06336 
L 238.4751 107.7312 
L 238.1775 105.95712 
L 237.8799 102.11328 
L 237.5823 106.54848 
L 237.2847 118.67136 
L 236.9871 123.10656 
L 236.6895 113.94048 
L 236.3919 118.96704 
L 236.0943 108.91392 
L 235.7967 126.35904 
L 235.4991 103.88736 
L 235.2015 102.70464 
L 234.9039 125.76768 
L 234.6063 120.14976 
L 234.3087 102.11328 
L 234.0111 114.82752 
L 233.7135 128.13312 
L 233.4159 121.92384 
L 233.1183 112.46208 
L 232.8207 107.43552 
L 232.5231 110.39232 
L 232.2255 119.85408 
L 231.9279 123.69792 
L 231.6303 117.78432 
L 231.3327 114.53184 
L 231.0351 117.48864 
L 230.7375 110.09664 
L 230.4399 118.08 
L 230.1423 118.37568 
L 229.8447 124.28928 
L 229.5471 119.26272 
L 229.2495 106.2528 
L 228.9519 126.65472 
L 228.6543 118.37568 
L 228.3567 107.43552 
L 228.0591 115.1232 
L 227.7615 114.23616 
L 227.4639 108.91392 
L 227.1663 116.01024 
L 226.8687 116.89728 
L 226.5711 115.41888 
L 226.2735 123.69792 
L 225.9759 111.87072 
L 225.6783 110.688 
L 225.3807 116.01024 
L 225.0831 110.688 
L 224.7855 116.89728 
L 224.4879 126.9504 
L 224.1903 117.48864 
L 223.8927 120.14976 
L 223.5951 114.53184 
L 223.2975 117.19296 
L 222.9999 109.2096 
L 222.7023 112.46208 
L 222.4047 111.87072 
L 222.1071 118.67136 
L 221.8095 119.5584 
L 221.5119 127.54176 
L 221.2143 115.71456 
L 220.9167 118.96704 
L 220.6191 120.14976 
L 220.3215 122.81088 
L 220.0239 113.94048 
L 219.7263 119.85408 
L 219.4287 118.08 
L 219.1311 103.296 
L 218.8335 108.91392 
L 218.5359 113.94048 
L 218.2383 123.69792 
L 217.9407 99.74784 
L 217.6431 121.62816 
L 217.3455 116.30592 
L 217.0479 109.2096 
L 216.7503 121.33248 
L 216.4527 123.10656 
L 216.1551 116.30592 
L 215.8575 123.69792 
L 215.5599 123.40224 
L 215.2623 119.85408 
L 214.9647 111.27936 
L 214.6671 118.96704 
L 214.3695 121.92384 
L 214.0719 123.69792 
L 213.7743 120.44544 
L 213.4767 116.01024 
L 213.1791 117.19296 
L 212.8815 116.30592 
L 212.5839 106.84416 
L 212.2863 116.30592 
L 211.9887 119.26272 
L 211.6911 120.44544 
L 211.3935 110.98368 
L 211.0959 113.34912 
L 210.7983 116.89728 
L 210.5007 111.87072 
L 210.2031 116.30592 
L 209.9055 113.6448 
L 209.6079 117.78432 
L 209.3103 116.01024 
L 209.0127 127.54176 
L 208.7151 106.54848 
L 208.4175 117.78432 
L 208.1199 123.69792 
L 207.8223 115.71456 
L 207.5247 116.89728 
L 207.2271 119.26272 
L 206.9295 117.19296 
L 206.6319 121.33248 
L 206.3343 113.34912 
L 206.0367 124.88064 
L 205.7391 121.0368 
L 205.4415 124.88064 
L 205.1439 117.48864 
L 204.8463 113.05344 
L 204.5487 110.688 
L 204.2511 114.82752 
L 203.9535 116.89728 
L 203.6559 111.87072 
L 203.3583 115.71456 
L 203.0607 121.92384 
L 202.7631 121.0368 
L 202.4655 108.91392 
L 202.1679 115.71456 
L 201.8703 117.19296 
L 201.5727 125.472 
L 201.2751 125.17632 
L 200.9775 118.96704 
L 200.6799 113.6448 
L 200.3823 122.5152 
L 200.0847 131.68128 
L 199.7871 116.6016 
L 199.4895 114.23616 
L 199.1919 114.53184 
L 198.8943 116.30592 
L 198.5967 120.74112 
L 198.2991 110.39232 
L 198.0015 112.46208 
L 197.7039 119.5584 
L 197.4063 116.01024 
L 197.1087 120.74112 
L 196.8111 116.6016 
L 196.5135 115.71456 
L 196.2159 117.48864 
L 195.9183 118.96704 
L 195.6207 119.85408 
L 195.3231 118.37568 
L 195.0255 123.9936 
L 194.7279 115.1232 
L 194.4303 118.08 
L 194.1327 125.472 
L 193.8351 111.87072 
L 193.5375 117.19296 
L 193.2399 115.71456 
L 192.9423 118.08 
L 192.6447 112.1664 
L 192.3471 123.10656 
L 192.0495 120.14976 
L 191.7519 125.17632 
L 191.4543 118.96704 
L 191.1567 126.35904 
L 190.8591 108.32256 
L 190.5615 126.9504 
L 190.2639 125.17632 
L 189.9663 113.6448 
L 189.6687 118.96704 
L 189.3711 124.28928 
L 189.0735 122.81088 
L 188.7759 120.14976 
L 188.4783 114.23616 
L 188.1807 115.41888 
L 187.8831 117.19296 
L 187.5855 123.9936 
L 187.2879 122.5152 
L 186.9903 121.33248 
L 186.6927 113.34912 
L 186.3951 125.472 
L 186.0975 110.09664 
L 185.7999 118.67136 
L 185.5023 123.69792 
L 185.2047 124.28928 
L 184.9071 117.48864 
L 184.6095 123.69792 
L 184.3119 133.45536 
L 184.0143 117.19296 
L 183.7167 113.05344 
L 183.4191 121.0368 
L 183.1215 117.19296 
L 182.8239 116.30592 
L 182.5263 119.85408 
L 182.2287 118.96704 
L 181.9311 121.33248 
L 181.6335 118.67136 
L 181.3359 116.01024 
L 181.0383 121.33248 
L 180.7407 114.82752 
L 180.4431 122.5152 
L 180.1455 123.10656 
L 179.8479 125.17632 
L 179.5503 123.69792 
L 179.2527 115.41888 
L 178.9551 122.21952 
L 178.6575 111.27936 
L 178.3599 122.21952 
L 178.0623 126.9504 
L 177.7647 118.67136 
L 177.4671 124.28928 
L 177.1695 128.4288 
L 176.8719 121.33248 
L 176.5743 128.72448 
L 176.2767 125.472 
L 175.9791 126.06336 
L 175.6815 134.63808 
L 175.3839 123.9936 
L 175.0863 134.93376 
L 174.7887 118.37568 
L 174.4911 123.10656 
L 174.1935 131.68128 
L 173.8959 122.5152 
L 173.5983 128.4288 
L 173.3007 124.58496 
L 173.0031 126.06336 
L 172.7055 121.92384 
L 172.4079 133.15968 
L 172.1103 122.21952 
L 171.8127 126.35904 
L 171.5151 132.56832 
L 171.2175 126.35904 
L 170.9199 134.3424 
L 170.6223 130.20288 
L 170.3247 136.70784 
L 170.0271 131.97696 
L 169.7295 138.7776 
L 169.4319 138.18624 
L 169.1343 137.89056 
L 168.8367 139.66464 
L 168.5391 140.256 
L 168.2415 131.97696 
L 167.9439 138.18624 
L 167.6463 138.7776 
L 167.3487 137.59488 
L 167.0511 141.7344 
L 166.7535 134.3424 
L 166.4559 142.03008 
L 166.1583 133.45536 
L 165.8607 138.18624 
L 165.5631 141.43872 
L 165.2655 139.66464 
L 164.9679 134.93376 
L 164.6703 145.87392 
L 164.3727 138.48192 
L 164.0751 139.66464 
L 163.7775 140.84736 
L 163.4799 139.36896 
L 163.1823 134.63808 
L 162.8847 142.03008 
L 162.5871 149.1264 
L 162.2895 142.03008 
L 161.9919 140.256 
L 161.6943 145.87392 
L 161.3967 146.1696 
L 161.0991 138.48192 
L 160.8015 135.52512 
L 160.5039 142.62144 
L 160.2063 147.35232 
L 159.9087 133.75104 
L 159.6111 140.55168 
L 159.3135 134.63808 
L 159.0159 139.36896 
L 158.7183 142.91712 
L 158.4207 141.14304 
L 158.1231 137.59488 
L 157.8255 134.93376 
L 157.5279 135.8208 
L 157.2303 141.14304 
L 156.9327 138.18624 
L 156.6351 135.22944 
L 156.3375 139.66464 
L 156.0399 148.83072 
L 155.7423 143.2128 
L 155.4447 139.36896 
L 155.1471 135.22944 
L 154.8495 137.2992 
L 154.5519 139.96032 
L 154.2543 135.8208 
L 153.9567 140.84736 
L 153.6591 140.84736 
L 153.3615 131.68128 
L 153.0639 137.89056 
L 152.7663 139.07328 
L 152.4687 138.48192 
L 152.1711 139.66464 
L 151.8735 145.28256 
L 151.5759 146.76096 
L 151.2783 142.62144 
L 150.9807 144.09984 
L 150.6831 148.23936 
L 150.3855 142.91712 
L 150.0879 142.91712 
L 149.7903 146.1696 
L 149.4927 145.87392 
L 149.1951 140.84736 
L 148.8975 145.57824 
L 148.5999 140.256 
L 148.3023 145.57824 
L 148.0047 142.32576 
L 147.7071 143.80416 
L 147.4095 143.80416 
L 147.1119 149.71776 
L 146.8143 147.05664 
L 146.5167 140.84736 
L 146.2191 143.50848 
L 145.9215 150.30912 
L 145.6239 140.55168 
L 145.3263 147.05664 
L 145.0287 147.35232 
L 144.7311 145.57824 
L 144.4335 149.1264 
L 144.1359 152.0832 
L 143.8383 150.30912 
L 143.5407 144.39552 
L 143.2431 149.71776 
L 142.9455 147.94368 
L 142.6479 148.83072 
L 142.3503 150.90048 
L 142.0527 146.1696 
L 141.7551 146.76096 
L 141.4575 146.76096 
L 141.1599 146.76096 
L 140.8623 147.648 
L 140.5647 147.05664 
L 140.2671 151.19616 
L 139.9695 147.05664 
L 139.6719 147.648 
L 139.3743 150.30912 
L 139.0767 147.05664 
L 138.7791 144.98688 
L 138.4815 154.15296 
L 138.1839 146.76096 
L 137.8863 150.90048 
L 137.5887 152.67456 
L 137.2911 156.5184 
L 136.9935 156.22272 
L 136.6959 148.53504 
L 136.3983 158.88384 
L 136.1007 155.92704 
L 135.8031 160.06656 
L 135.5055 160.36224 
L 135.2079 151.49184 
L 134.9103 154.74432 
L 134.6127 156.22272 
L 134.3151 152.0832 
L 134.0175 154.44864 
L 133.7199 155.92704 
L 133.4223 157.40544 
L 133.1247 156.5184 
L 132.8271 155.92704 
L 132.5295 154.74432 
L 132.2319 163.02336 
L 131.9343 168.04992 
L 131.6367 153.85728 
L 131.3391 161.24928 
L 131.0415 158.29248 
L 130.7439 172.7808 
L 130.4463 156.22272 
L 130.1487 160.9536 
L 129.8511 171.3024 
L 129.5535 162.72768 
L 129.2559 168.64128 
L 128.9583 159.77088 
L 128.6607 163.9104 
L 128.3631 169.23264 
L 128.0655 159.17952 
L 127.7679 176.62464 
L 127.4703 156.22272 
L 127.1727 166.8672 
L 126.8751 162.72768 
L 126.5775 169.824 
L 126.2799 171.00672 
L 125.9823 168.3456 
L 125.6847 168.04992 
L 125.3871 162.72768 
L 125.0895 164.50176 
L 124.7919 172.18944 
L 124.4943 177.216 
L 124.1967 176.92032 
L 123.8991 170.41536 
L 123.6015 169.23264 
L 123.3039 165.09312 
L 123.0063 169.824 
L 122.7087 162.13632 
L 122.4111 176.62464 
L 122.1135 177.80736 
L 121.8159 173.96352 
L 121.5183 168.04992 
L 121.2207 178.6944 
L 120.9231 176.03328 
L 120.6255 168.93696 
L 120.3279 182.83392 
L 120.0303 174.55488 
L 119.7327 173.07648 
L 119.4351 168.64128 
L 119.1375 165.3888 
L 118.8399 166.8672 
L 118.5423 172.48512 
L 118.2447 172.7808 
L 117.9471 171.59808 
L 117.6495 169.52832 
L 117.3519 172.7808 
L 117.0543 181.6512 
L 116.7567 169.824 
L 116.4591 173.96352 
L 116.1615 171.59808 
L 115.8639 168.04992 
L 115.5663 169.52832 
L 115.2687 173.07648 
L 114.9711 182.24256 
L 114.6735 181.6512 
L 114.3759 172.7808 
L 114.0783 177.216 
L 113.7807 173.37216 
L 113.4831 169.23264 
L 113.1855 173.66784 
L 112.8879 166.57152 
L 112.5903 176.92032 
L 112.2927 185.19936 
L 111.9951 178.10304 
L 111.6975 173.66784 
L 111.3999 173.07648 
L 111.1023 173.96352 
L 110.8047 178.6944 
L 110.5071 186.97344 
L 110.2095 172.48512 
L 109.9119 177.216 
L 109.6143 180.1728 
L 109.3167 172.7808 
L 109.0191 174.2592 
L 108.7215 171.59808 
L 108.4239 176.92032 
L 108.1263 174.55488 
L 107.8287 173.07648 
L 107.5311 170.11968 
L 107.2335 160.65792 
L 106.9359 174.2592 
L 106.6383 167.16288 
L 106.3407 176.92032 
L 106.0431 167.45856 
L 105.7455 156.22272 
L 105.4479 168.64128 
L 105.1503 179.58144 
L 104.8527 168.3456 
L 104.5551 174.2592 
L 104.2575 172.18944 
L 103.9599 176.03328 
L 103.6623 186.67776 
L 103.3647 174.2592 
L 103.0671 168.93696 
L 102.7695 162.72768 
L 102.4719 163.9104 
L 102.1743 182.83392 
L 101.8767 166.27584 
L 101.5791 178.39872 
L 101.2815 178.6944 
L 100.9839 182.24256 
L 100.6863 181.35552 
L 100.3887 173.07648 
L 100.0911 173.07648 
L 99.7935 197.32224 
L 99.4959 181.05984 
L 99.1983 181.35552 
L 98.9007 176.62464 
L 98.6031 197.02656 
L 98.3055 180.76416 
L 98.0079 174.2592 
L 97.7103 174.85056 
L 97.4127 184.90368 
L 97.1151 181.35552 
L 96.8175 184.90368 
L 96.5199 178.99008 
L 96.2223 197.32224 
L 95.9247 183.42528 
L 95.6271 182.83392 
L 95.3295 171.59808 
L 95.0319 186.97344 
L 94.7343 210.03648 
L 94.4367 202.64448 
L 94.1391 202.94016 
L 93.8415 197.9136 
L 93.5439 198.80064 
L 93.2463 192 
L 92.9487 207.07968 
L 92.6511 189.93024 
L 92.3535 218.01984 
L 92.0559 174.85056 
L 91.7583 189.63456 
L 91.4607 204.71424 
L 91.1631 184.608 
L 90.8655 186.0864 
L 90.5679 200.57472 
L 90.2703 200.57472 
L 89.9727 207.96672 
L 89.6751 184.90368 
L 89.3775 199.09632 
L 89.0799 199.392 
L 88.7823 200.8704 
L 88.4847 207.67104 
L 88.1871 209.44512 
L 87.8895 213.28896 
L 87.5919 201.46176 
L 87.2943 220.0896 
L 86.9967 200.8704 
L 86.6991 205.60128 
L 86.4015 205.00992 
L 86.1039 208.85376 
L 85.8063 207.96672 
L 85.5087 199.09632 
L 85.2111 203.8272 
L 84.9135 212.99328 
L 84.6159 201.75744 
L 84.3183 205.00992 
L 84.0207 211.2192 
L 83.7231 209.14944 
L 83.4255 211.51488 
L 83.1279 213.28896 
L 82.8303 210.33216 
L 82.5327 213.88032 
L 82.2351 209.7408 
L 81.9375 208.55808 
L 81.6399 212.40192 
L 81.3423 214.76736 
L 81.0447 220.68096 
L 80.7471 212.10624 
L 80.4495 208.85376 
L 80.1519 211.2192 
L 79.8543 208.2624 
L 79.5567 208.85376 
L 79.2591 213.28896 
L 78.9615 211.81056 
L 78.6639 205.3056 
L 78.3663 212.40192 
L 78.0687 207.96672 
L 77.7711 213.58464 
L 77.4735 213.88032 
L 77.1759 208.85376 
L 76.8783 210.03648 
L 76.5807 209.14944 
L 76.2831 219.79392 
L 75.9855 210.33216 
L 75.6879 212.6976 
L 75.3903 214.47168 
L 75.0927 212.6976 
L 74.7951 219.49824 
L 74.4975 220.38528 
L 74.1999 220.68096 
L 73.9023 212.99328 
L 73.6047 215.35872 
L 73.3071 209.7408 
L 73.0095 213.28896 
L 72.7119 217.1328 
L 72.4143 237.53472 
L 72.1167 219.79392 
L 71.8191 229.84704 
L 71.5215 218.90688 
L 71.2239 227.4816 
L 70.9263 217.1328 
L 70.6287 217.72416 
L 70.3311 215.35872 
L 70.0335 228.07296 
L 69.7359 231.9168 
L 69.4383 228.36864 
L 69.1407 216.83712 
L 68.8431 225.11616 
L 68.5455 239.01312 
L 68.2479 213.28896 
L 67.9503 213.28896 
L 67.6527 225.41184 
L 67.3551 207.96672 
L 67.0575 216.24576 
L 66.7599 215.35872 
L 66.4623 223.93344 
L 66.1647 215.95008 
L 65.8671 223.93344 
L 65.5695 213.88032 
L 65.2719 225.41184 
L 64.9743 220.38528 
L 64.6767 227.18592 
L 64.3791 214.76736 
L 64.0815 232.80384 
L 63.7839 218.6112 
L 63.4863 221.86368 
L 63.1887 227.18592 
L 62.8911 220.97664 
L 62.5935 220.97664 
L 62.2959 216.54144 
L 61.9983 215.95008 
L 61.7007 218.6112 
L 61.4031 220.38528 
L 61.1055 212.40192 
L 60.8079 219.79392 
L 60.5103 220.68096 
L 60.2127 219.79392 
L 59.9151 224.22912 
L 59.6175 228.07296 
L 59.3199 229.25568 
L 59.0223 224.5248 
L 58.7247 226.29888 
L 58.4271 214.176 
L 58.1295 221.86368 
L 57.8319 220.38528 
L 57.5343 225.11616 
L 57.2367 221.86368 
L 56.9391 216.54144 
L 56.6415 217.1328 
L 56.3439 214.176 
L 56.0463 220.68096 
L 55.7487 219.20256 
L 55.4511 222.15936 
L 55.1535 225.11616 
L 54.8559 223.34208 
L 54.5583 223.34208 
L 54.2607 223.0464 
L 53.9631 220.97664 
L 53.6655 227.4816 
L 53.3679 218.6112 
L 53.0703 224.22912 
L 52.7727 221.568 
L 52.4751 218.6112 
L 52.1775 219.79392 
L 51.8799 217.42848 
L 51.5823 218.6112 
L 51.2847 218.90688 
L 50.9871 223.63776 
L 50.6895 220.38528 
L 50.3919 220.97664 
L 50.0943 222.75072 
L 49.7967 224.5248 
L 49.4991 226.0032 
L 49.2015 218.90688 
L 48.9039 223.93344 
L 48.6063 223.0464 
L 48.3087 224.22912 
L 48.0111 222.75072 
L 47.7135 220.0896 
L 47.4159 220.0896 
L 47.1183 224.82048 
L 46.8207 222.15936 
L 46.5231 223.34208 
L 46.2255 224.5248 
L 45.9279 226.0032 
L 45.6303 220.68096 
L 45.3327 223.63776 
L 45.0351 224.22912 
L 44.7375 224.82048 
L 44.4399 224.82048 
L 44.1423 225.11616 
L 43.8447 222.15936 
L 43.5471 223.0464 
L 43.2495 223.93344 
L 42.9519 221.86368 
L 42.6543 222.15936 
L 42.3567 223.63776 
L 42.0591 221.568 
L 41.7615 220.68096 
L 41.4639 221.27232 
L 41.1663 220.38528 
L 40.8687 221.568 
L 40.5711 220.38528 
L 40.2735 221.86368 
z
" clip-path="url(#pa0440ed0d6)" style="fill: #27808e; fill-opacity: 0.3"/>
   </g>
   <g id="matplotlib.axis_1">
    <g id="xtick_1">
     <g id="line2d_1">
      <defs>
       <path id="ma83647e655" d="M 0 0 
L 0 3.5 
" style="stroke: #000000; stroke-width: 0.8"/>
      </defs>
      <g>
       <use xlink:href="#ma83647e655" x="33.5775" y="228.96" style="stroke: #000000; stroke-width: 0.8"/>
      </g>
     </g>
     <g id="text_1">
      <text style="font: 6px 'DejaVu Sans', 'Bitstream Vera Sans', 'Computer Modern Sans Serif', 'Lucida Grande', 'Verdana', 'Geneva', 'Lucid', 'Arial', 'Helvetica', 'Avant Garde', sans-serif; text-anchor: middle" x="33.5775" y="240.519062" transform="rotate(-0 33.5775 240.519062)">0</text>
     </g>
    </g>
    <g id="xtick_2">
     <g id="line2d_2">
      <g>
       <use xlink:href="#ma83647e655" x="69.2895" y="228.96" style="stroke: #000000; stroke-width: 0.8"/>
      </g>
     </g>
     <g id="text_2">
      <text style="font: 6px 'DejaVu Sans', 'Bitstream Vera Sans', 'Computer Modern Sans Serif', 'Lucida Grande', 'Verdana', 'Geneva', 'Lucid', 'Arial', 'Helvetica', 'Avant Garde', sans-serif; text-anchor: middle" x="69.2895" y="240.519062" transform="rotate(-0 69.2895 240.519062)">4</text>
     </g>
    </g>
    <g id="xtick_3">
     <g id="line2d_3">
      <g>
       <use xlink:href="#ma83647e655" x="105.0015" y="228.96" style="stroke: #000000; stroke-width: 0.8"/>
      </g>
     </g>
     <g id="text_3">
      <text style="font: 6px 'DejaVu Sans', 'Bitstream Vera Sans', 'Computer Modern Sans Serif', 'Lucida Grande', 'Verdana', 'Geneva', 'Lucid', 'Arial', 'Helvetica', 'Avant Garde', sans-serif; text-anchor: middle" x="105.0015" y="240.519062" transform="rotate(-0 105.0015 240.519062)">8</text>
     </g>
    </g>
    <g id="xtick_4">
     <g id="line2d_4">
      <g>
       <use xlink:href="#ma83647e655" x="140.7135" y="228.96" style="stroke: #000000; stroke-width: 0.8"/>
      </g>
     </g>
     <g id="text_4">
      <text style="font: 6px 'DejaVu Sans', 'Bitstream Vera Sans', 'Computer Modern Sans Serif', 'Lucida Grande', 'Verdana', 'Geneva', 'Lucid', 'Arial', 'Helvetica', 'Avant Garde', sans-serif; text-anchor: middle" x="140.7135" y="240.519062" transform="rotate(-0 140.7135 240.519062)">12</text>
     </g>
    </g>
    <g id="xtick_5">
     <g id="line2d_5">
      <g>
       <use xlink:href="#ma83647e655" x="176.4255" y="228.96" style="stroke: #000000; stroke-width: 0.8"/>
      </g>
     </g>
     <g id="text_5">
      <text style="font: 6px 'DejaVu Sans', 'Bitstream Vera Sans', 'Computer Modern Sans Serif', 'Lucida Grande', 'Verdana', 'Geneva', 'Lucid', 'Arial', 'Helvetica', 'Avant Garde', sans-serif; text-anchor: middle" x="176.4255" y="240.519062" transform="rotate(-0 176.4255 240.519062)">16</text>
     </g>
    </g>
    <g id="xtick_6">
     <g id="line2d_6">
      <g>
       <use xlink:href="#ma83647e655" x="212.1375" y="228.96" style="stroke: #000000; stroke-width: 0.8"/>
      </g>
     </g>
     <g id="text_6">
      <text style="font: 6px 'DejaVu Sans', 'Bitstream Vera Sans', 'Computer Modern Sans Serif', 'Lucida Grande', 'Verdana', 'Geneva', 'Lucid', 'Arial', 'Helvetica', 'Avant Garde', sans-serif; text-anchor: middle" x="212.1375" y="240.519062" transform="rotate(-0 212.1375 240.519062)">20</text>
     </g>
    </g>
    <g id="xtick_7">
     <g id="line2d_7">
      <g>
       <use xlink:href="#ma83647e655" x="247.8495" y="228.96" style="stroke: #000000; stroke-width: 0.8"/>
      </g>
     </g>
     <g id="text_7">
      <text style="font: 6px 'DejaVu Sans', 'Bitstream Vera Sans', 'Computer Modern Sans Serif', 'Lucida Grande', 'Verdana', 'Geneva', 'Lucid', 'Arial', 'Helvetica', 'Avant Garde', sans-serif; text-anchor: middle" x="247.8495" y="240.519062" transform="rotate(-0 247.8495 240.519062)">24</text>
     </g>
    </g>
    <g id="text_8">
     <text style="font: 8px 'DejaVu Sans', 'Bitstream Vera Sans', 'Computer Modern Sans Serif', 'Lucida Grande', 'Verdana', 'Geneva', 'Lucid', 'Arial', 'Helvetica', 'Avant Garde', sans-serif; text-anchor: middle" x="145.1775" y="251.845625" transform="rotate(-0 145.1775 251.845625)">Experimental time (hpf)</text>
    </g>
   </g>
   <g id="matplotlib.axis_2">
    <g id="ytick_1">
     <g id="line2d_8">
      <defs>
       <path id="m2ce88934ed" d="M 0 0 
L -3.5 0 
" style="stroke: #000000; stroke-width: 0.8"/>
      </defs>
      <g>
       <use xlink:href="#m2ce88934ed" x="33.5775" y="228.96" style="stroke: #000000; stroke-width: 0.8"/>
      </g>
     </g>
     <g id="text_9">
      <text style="font: 6px 'DejaVu Sans', 'Bitstream Vera Sans', 'Computer Modern Sans Serif', 'Lucida Grande', 'Verdana', 'Geneva', 'Lucid', 'Arial', 'Helvetica', 'Avant Garde', sans-serif; text-anchor: end" x="26.5775" y="231.239531" transform="rotate(-0 26.5775 231.239531)">0</text>
     </g>
    </g>
    <g id="ytick_2">
     <g id="line2d_9">
      <g>
       <use xlink:href="#m2ce88934ed" x="33.5775" y="193.4784" style="stroke: #000000; stroke-width: 0.8"/>
      </g>
     </g>
     <g id="text_10">
      <text style="font: 6px 'DejaVu Sans', 'Bitstream Vera Sans', 'Computer Modern Sans Serif', 'Lucida Grande', 'Verdana', 'Geneva', 'Lucid', 'Arial', 'Helvetica', 'Avant Garde', sans-serif; text-anchor: end" x="26.5775" y="195.757931" transform="rotate(-0 26.5775 195.757931)">4</text>
     </g>
    </g>
    <g id="ytick_3">
     <g id="line2d_10">
      <g>
       <use xlink:href="#m2ce88934ed" x="33.5775" y="157.9968" style="stroke: #000000; stroke-width: 0.8"/>
      </g>
     </g>
     <g id="text_11">
      <text style="font: 6px 'DejaVu Sans', 'Bitstream Vera Sans', 'Computer Modern Sans Serif', 'Lucida Grande', 'Verdana', 'Geneva', 'Lucid', 'Arial', 'Helvetica', 'Avant Garde', sans-serif; text-anchor: end" x="26.5775" y="160.276331" transform="rotate(-0 26.5775 160.276331)">8</text>
     </g>
    </g>
    <g id="ytick_4">
     <g id="line2d_11">
      <g>
       <use xlink:href="#m2ce88934ed" x="33.5775" y="122.5152" style="stroke: #000000; stroke-width: 0.8"/>
      </g>
     </g>
     <g id="text_12">
      <text style="font: 6px 'DejaVu Sans', 'Bitstream Vera Sans', 'Computer Modern Sans Serif', 'Lucida Grande', 'Verdana', 'Geneva', 'Lucid', 'Arial', 'Helvetica', 'Avant Garde', sans-serif; text-anchor: end" x="26.5775" y="124.794731" transform="rotate(-0 26.5775 124.794731)">12</text>
     </g>
    </g>
    <g id="ytick_5">
     <g id="line2d_12">
      <g>
       <use xlink:href="#m2ce88934ed" x="33.5775" y="87.0336" style="stroke: #000000; stroke-width: 0.8"/>
      </g>
     </g>
     <g id="text_13">
      <text style="font: 6px 'DejaVu Sans', 'Bitstream Vera Sans', 'Computer Modern Sans Serif', 'Lucida Grande', 'Verdana', 'Geneva', 'Lucid', 'Arial', 'Helvetica', 'Avant Garde', sans-serif; text-anchor: end" x="26.5775" y="89.313131" transform="rotate(-0 26.5775 89.313131)">16</text>
     </g>
    </g>
    <g id="ytick_6">
     <g id="line2d_13">
      <g>
       <use xlink:href="#m2ce88934ed" x="33.5775" y="51.552" style="stroke: #000000; stroke-width: 0.8"/>
      </g>
     </g>
     <g id="text_14">
      <text style="font: 6px 'DejaVu Sans', 'Bitstream Vera Sans', 'Computer Modern Sans Serif', 'Lucida Grande', 'Verdana', 'Geneva', 'Lucid', 'Arial', 'Helvetica', 'Avant Garde', sans-serif; text-anchor: end" x="26.5775" y="53.831531" transform="rotate(-0 26.5775 53.831531)">20</text>
     </g>
    </g>
    <g id="ytick_7">
     <g id="line2d_14">
      <g>
       <use xlink:href="#m2ce88934ed" x="33.5775" y="16.0704" style="stroke: #000000; stroke-width: 0.8"/>
      </g>
     </g>
     <g id="text_15">
      <text style="font: 6px 'DejaVu Sans', 'Bitstream Vera Sans', 'Computer Modern Sans Serif', 'Lucida Grande', 'Verdana', 'Geneva', 'Lucid', 'Arial', 'Helvetica', 'Avant Garde', sans-serif; text-anchor: end" x="26.5775" y="18.349931" transform="rotate(-0 26.5775 18.349931)">24</text>
     </g>
    </g>
    <g id="text_16">
     <text style="font: 8px 'DejaVu Sans', 'Bitstream Vera Sans', 'Computer Modern Sans Serif', 'Lucida Grande', 'Verdana', 'Geneva', 'Lucid', 'Arial', 'Helvetica', 'Avant Garde', sans-serif; text-anchor: middle" x="13.27875" y="118.08" transform="rotate(-90 13.27875 118.08)">Developmental age (hpf)</text>
    </g>
   </g>
   <g id="line2d_15">
    <path d="M 42.5055 220.0896 
L 256.7775 40.806591 
L 256.7775 40.806591 
" clip-path="url(#pa0440ed0d6)" style="fill: none; stroke: #27808e; stroke-linecap: square"/>
   </g>
   <g id="line2d_16">
    <path d="M 42.5055 220.0896 
L 256.7775 46.572726 
L 256.7775 46.572726 
" clip-path="url(#pa0440ed0d6)" style="fill: none; stroke-dasharray: 3.7,1.6; stroke-dashoffset: 0; stroke: #27808e"/>
   </g>
   <g id="line2d_17">
    <path d="M 42.5055 220.0896 
L 256.7775 34.343964 
L 256.7775 34.343964 
" clip-path="url(#pa0440ed0d6)" style="fill: none; stroke-dasharray: 3.7,1.6; stroke-dashoffset: 0; stroke: #27808e"/>
   </g>
   <g id="patch_3">
    <path d="M 33.5775 228.96 
L 33.5775 7.2 
" style="fill: none; stroke: #000000; stroke-width: 0.8; stroke-linejoin: miter; stroke-linecap: square"/>
   </g>
   <g id="patch_4">
    <path d="M 33.5775 228.96 
L 256.7775 228.96 
" style="fill: none; stroke: #000000; stroke-width: 0.8; stroke-linejoin: miter; stroke-linecap: square"/>
   </g>
   <g id="legend_1">
    <g id="patch_5">
     <path d="M 93.656011 28.829269 
L 252.7245 28.829269 
Q 253.8825 28.829269 253.8825 27.671269 
L 253.8825 11.253 
Q 253.8825 10.095 252.7245 10.095 
L 93.656011 10.095 
Q 92.498011 10.095 92.498011 11.253 
L 92.498011 27.671269 
Q 92.498011 28.829269 93.656011 28.829269 
z
" style="fill: #ffffff; opacity: 0.8; stroke: #cccccc; stroke-linejoin: miter"/>
    </g>
    <g id="line2d_18">
     <path d="M 94.814011 14.783995 
L 100.604011 14.783995 
L 106.394011 14.783995 
" style="fill: none; stroke: #27808e; stroke-linecap: square"/>
    </g>
    <g id="text_17">
     <text style="font: 5.79px 'DejaVu Sans', 'Bitstream Vera Sans', 'Computer Modern Sans Serif', 'Lucida Grande', 'Verdana', 'Geneva', 'Lucid', 'Arial', 'Helvetica', 'Avant Garde', sans-serif; text-anchor: start" x="111.026011" y="16.810495" transform="rotate(-0 111.026011 16.810495)">Linear fit: slope=0.842 [0.815,0.872], R2=0.965</text>
    </g>
    <g id="patch_6">
     <path d="M 94.814011 25.30913 
L 106.394011 25.30913 
L 106.394011 21.25613 
L 94.814011 21.25613 
z
" style="fill: #27808e; fill-opacity: 0.3"/>
    </g>
    <g id="text_18">
     <text style="font: 5.79px 'DejaVu Sans', 'Bitstream Vera Sans', 'Computer Modern Sans Serif', 'Lucida Grande', 'Verdana', 'Geneva', 'Lucid', 'Arial', 'Helvetica', 'Avant Garde', sans-serif; text-anchor: start" x="111.026011" y="25.30913" transform="rotate(-0 111.026011 25.30913)">Median:26.0C</text>
    </g>
   </g>
  </g>
 </g>
 <defs>
  <clipPath id="pa0440ed0d6">
   <rect x="33.5775" y="7.2" width="223.2" height="221.76"/>
  </clipPath>
 </defs>
</svg>
