<?xml version="1.0" encoding="utf-8" standalone="no"?>
<!DOCTYPE svg PUBLIC "-//W3C//DTD SVG 1.1//EN"
  "http://www.w3.org/Graphics/SVG/1.1/DTD/svg11.dtd">
<svg xmlns:xlink="http://www.w3.org/1999/xlink" width="263.9775pt" height="260.709375pt" viewBox="0 0 263.9775 260.709375" xmlns="http://www.w3.org/2000/svg" version="1.1">
 <metadata>
  <rdf:RDF xmlns:dc="http://purl.org/dc/elements/1.1/" xmlns:cc="http://creativecommons.org/ns#" xmlns:rdf="http://www.w3.org/1999/02/22-rdf-syntax-ns#">
   <cc:Work>
    <dc:type rdf:resource="http://purl.org/dc/dcmitype/StillImage"/>
    <dc:date>2023-07-28T12:58:31.583286</dc:date>
    <dc:format>image/svg+xml</dc:format>
    <dc:creator>
     <cc:Agent>
      <dc:title>Matplotlib v3.7.0, https://matplotlib.org/</dc:title>
     </cc:Agent>
    </dc:creator>
   </cc:Work>
  </rdf:RDF>
 </metadata>
 <defs>
  <style type="text/css">*{stroke-linejoin: round; stroke-linecap: butt}</style>
 </defs>
 <g id="figure_1">
  <g id="patch_1">
   <path d="M 0 260.709375 
L 263.9775 260.709375 
L 263.9775 0 
L 0 0 
z
" style="fill: #ffffff"/>
  </g>
  <g id="axes_1">
   <g id="patch_2">
    <path d="M 33.5775 228.96 
L 256.7775 228.96 
L 256.7775 7.2 
L 33.5775 7.2 
z
" style="fill: #ffffff"/>
   </g>
   <g id="PolyCollection_1">
    <path d="M 42.5055 222.15936 
L 42.5055 212.10624 
L 42.8031 211.81056 
L 43.1007 212.10624 
L 43.3983 212.10624 
L 43.6959 211.2192 
L 43.9935 211.9584 
L 44.2911 210.33216 
L 44.5887 206.93184 
L 44.8863 208.55808 
L 45.1839 208.55808 
L 45.4815 210.03648 
L 45.7791 209.88864 
L 46.0767 210.03648 
L 46.3743 207.96672 
L 46.6719 208.11456 
L 46.9695 205.00992 
L 47.2671 206.34048 
L 47.5647 205.45344 
L 47.8623 206.93184 
L 48.1599 203.97504 
L 48.4575 205.74912 
L 48.7551 204.86208 
L 49.0527 203.23584 
L 49.3503 200.8704 
L 49.6479 203.67936 
L 49.9455 203.8272 
L 50.2431 203.97504 
L 50.5407 205.89696 
L 50.8383 206.63616 
L 51.1359 200.72256 
L 51.4335 197.02656 
L 51.7311 196.13952 
L 52.0287 199.24416 
L 52.3263 198.20928 
L 52.6239 197.9136 
L 52.9215 194.66112 
L 53.2191 197.47008 
L 53.5167 196.13952 
L 53.8143 198.20928 
L 54.1119 195.696 
L 54.4095 195.40032 
L 54.7071 195.10464 
L 55.0047 192.29568 
L 55.3023 196.73088 
L 55.5999 192.14784 
L 55.8975 192 
L 56.1951 196.28736 
L 56.4927 190.07808 
L 56.7903 185.64288 
L 57.0879 193.62624 
L 57.3855 189.33888 
L 57.6831 188.59968 
L 57.9807 195.696 
L 58.2783 186.0864 
L 58.5759 187.5648 
L 58.8735 190.07808 
L 59.1711 190.5216 
L 59.4687 191.2608 
L 59.7663 190.66944 
L 60.0639 191.40864 
L 60.3615 192 
L 60.6591 188.00832 
L 60.9567 190.37376 
L 61.2543 193.18272 
L 61.5519 190.37376 
L 61.8495 188.00832 
L 62.1471 190.37376 
L 62.4447 186.97344 
L 62.7423 189.63456 
L 63.0399 188.74752 
L 63.3375 184.90368 
L 63.6351 190.37376 
L 63.9327 184.75584 
L 64.2303 189.33888 
L 64.5279 190.07808 
L 64.8255 188.89536 
L 65.1231 193.77408 
L 65.4207 194.2176 
L 65.7183 193.18272 
L 66.0159 193.03488 
L 66.3135 193.4784 
L 66.6111 190.22592 
L 66.9087 192.44352 
L 67.2063 194.2176 
L 67.5039 194.51328 
L 67.8015 192.44352 
L 68.0991 193.03488 
L 68.3967 194.36544 
L 68.6943 191.55648 
L 68.9919 187.5648 
L 69.2895 189.48672 
L 69.5871 187.41696 
L 69.8847 190.07808 
L 70.1823 187.26912 
L 70.4799 188.59968 
L 70.7775 189.48672 
L 71.0751 188.304 
L 71.3727 189.0432 
L 71.6703 190.5216 
L 71.9679 189.93024 
L 72.2655 190.96512 
L 72.5631 184.46016 
L 72.8607 186.67776 
L 73.1583 185.93856 
L 73.4559 182.3904 
L 73.7535 187.5648 
L 74.0511 193.18272 
L 74.3487 185.19936 
L 74.6463 188.304 
L 74.9439 187.71264 
L 75.2415 187.26912 
L 75.5391 191.55648 
L 75.8367 186.67776 
L 76.1343 190.07808 
L 76.4319 188.59968 
L 76.7295 186.52992 
L 77.0271 190.07808 
L 77.3247 186.97344 
L 77.6223 183.1296 
L 77.9199 183.8688 
L 78.2175 184.90368 
L 78.5151 183.42528 
L 78.8127 184.608 
L 79.1103 188.304 
L 79.4079 183.57312 
L 79.7055 184.01664 
L 80.0031 184.608 
L 80.3007 186.0864 
L 80.5983 181.79904 
L 80.8959 183.57312 
L 81.1935 180.1728 
L 81.4911 179.72928 
L 81.7887 182.53824 
L 82.0863 181.50336 
L 82.3839 185.49504 
L 82.6815 178.39872 
L 82.9791 184.75584 
L 83.2767 182.24256 
L 83.5743 182.83392 
L 83.8719 183.1296 
L 84.1695 182.53824 
L 84.4671 183.57312 
L 84.7647 178.10304 
L 85.0623 183.27744 
L 85.3599 176.62464 
L 85.6575 176.62464 
L 85.9551 180.32064 
L 86.2527 176.77248 
L 86.5503 176.18112 
L 86.8479 170.11968 
L 87.1455 175.29408 
L 87.4431 178.99008 
L 87.7407 178.54656 
L 88.0383 178.6944 
L 88.3359 178.39872 
L 88.6335 178.25088 
L 88.9311 174.55488 
L 89.2287 177.9552 
L 89.5263 173.96352 
L 89.8239 176.18112 
L 90.1215 174.11136 
L 90.4191 174.11136 
L 90.7167 177.36384 
L 91.0143 170.26752 
L 91.3119 169.38048 
L 91.6095 165.98016 
L 91.9071 172.92864 
L 92.2047 172.92864 
L 92.5023 168.49344 
L 92.7999 172.92864 
L 93.0975 167.90208 
L 93.3951 167.45856 
L 93.6927 166.71936 
L 93.9903 168.49344 
L 94.2879 165.68448 
L 94.5855 168.04992 
L 94.8831 166.57152 
L 95.1807 162.13632 
L 95.4783 164.94528 
L 95.7759 160.9536 
L 96.0735 167.45856 
L 96.3711 167.45856 
L 96.6687 167.16288 
L 96.9663 164.35392 
L 97.2639 158.88384 
L 97.5615 160.36224 
L 97.8591 165.98016 
L 98.1567 168.19776 
L 98.4543 159.17952 
L 98.7519 162.13632 
L 99.0495 159.91872 
L 99.3471 152.37888 
L 99.6447 157.2576 
L 99.9423 157.70112 
L 100.2399 161.24928 
L 100.5375 160.65792 
L 100.8351 153.26592 
L 101.1327 158.44032 
L 101.4303 153.26592 
L 101.7279 151.344 
L 102.0255 157.84896 
L 102.3231 155.63136 
L 102.6207 155.18784 
L 102.9183 153.26592 
L 103.2159 154.44864 
L 103.5135 157.55328 
L 103.8111 151.78752 
L 104.1087 158.736 
L 104.4063 148.53504 
L 104.7039 148.53504 
L 105.0015 147.20448 
L 105.2991 147.648 
L 105.5967 145.72608 
L 105.8943 152.67456 
L 106.1919 152.23104 
L 106.4895 147.50016 
L 106.7871 149.71776 
L 107.0847 149.27424 
L 107.3823 152.0832 
L 107.6799 147.94368 
L 107.9775 143.80416 
L 108.2751 148.23936 
L 108.5727 146.46528 
L 108.8703 141.88224 
L 109.1679 149.1264 
L 109.4655 147.50016 
L 109.7631 151.49184 
L 110.0607 143.2128 
L 110.3583 146.02176 
L 110.6559 148.83072 
L 110.9535 152.0832 
L 111.2511 149.1264 
L 111.5487 148.23936 
L 111.8463 149.27424 
L 112.1439 152.23104 
L 112.4415 150.30912 
L 112.7391 150.16128 
L 113.0367 149.1264 
L 113.3343 152.23104 
L 113.6319 149.71776 
L 113.9295 152.23104 
L 114.2271 149.56992 
L 114.5247 144.6912 
L 114.8223 148.23936 
L 115.1199 147.35232 
L 115.4175 149.1264 
L 115.7151 142.91712 
L 116.0127 147.05664 
L 116.3103 142.76928 
L 116.6079 144.24768 
L 116.9055 144.24768 
L 117.2031 144.09984 
L 117.5007 145.4304 
L 117.7983 151.19616 
L 118.0959 144.54336 
L 118.3935 149.1264 
L 118.6911 145.13472 
L 118.9887 146.02176 
L 119.2863 142.4736 
L 119.5839 150.6048 
L 119.8815 140.40384 
L 120.1791 147.648 
L 120.4767 152.23104 
L 120.7743 144.6912 
L 121.0719 150.01344 
L 121.3695 144.6912 
L 121.6671 140.84736 
L 121.9647 142.62144 
L 122.2623 143.80416 
L 122.5599 146.02176 
L 122.8575 139.96032 
L 123.1551 144.24768 
L 123.4527 142.03008 
L 123.7503 147.05664 
L 124.0479 143.80416 
L 124.3455 144.24768 
L 124.6431 145.4304 
L 124.9407 145.4304 
L 125.2383 147.35232 
L 125.5359 147.94368 
L 125.8335 142.62144 
L 126.1311 147.648 
L 126.4287 144.09984 
L 126.7263 144.98688 
L 127.0239 147.20448 
L 127.3215 147.20448 
L 127.6191 145.13472 
L 127.9167 145.87392 
L 128.2143 146.1696 
L 128.5119 147.35232 
L 128.8095 145.72608 
L 129.1071 148.09152 
L 129.4047 145.87392 
L 129.7023 148.09152 
L 129.9999 148.97856 
L 130.2975 143.36064 
L 130.5951 142.76928 
L 130.8927 145.72608 
L 131.1903 147.05664 
L 131.4879 147.05664 
L 131.7855 146.76096 
L 132.0831 147.35232 
L 132.3807 148.23936 
L 132.6783 143.36064 
L 132.9759 142.62144 
L 133.2735 150.75264 
L 133.5711 146.46528 
L 133.8687 148.83072 
L 134.1663 146.31744 
L 134.4639 147.05664 
L 134.7615 146.61312 
L 135.0591 148.23936 
L 135.3567 148.53504 
L 135.6543 149.71776 
L 135.9519 145.57824 
L 136.2495 148.3872 
L 136.5471 146.46528 
L 136.8447 145.28256 
L 137.1423 149.42208 
L 137.4399 147.05664 
L 137.7375 144.39552 
L 138.0351 145.28256 
L 138.3327 148.23936 
L 138.6303 148.83072 
L 138.9279 149.71776 
L 139.2255 148.68288 
L 139.5231 148.23936 
L 139.8207 146.1696 
L 140.1183 148.97856 
L 140.4159 144.98688 
L 140.7135 146.9088 
L 141.0111 145.87392 
L 141.3087 145.28256 
L 141.6063 146.9088 
L 141.9039 143.80416 
L 142.2015 147.94368 
L 142.4991 144.98688 
L 142.7967 146.76096 
L 143.0943 145.87392 
L 143.3919 146.1696 
L 143.6895 147.50016 
L 143.9871 143.952 
L 144.2847 144.39552 
L 144.5823 146.76096 
L 144.8799 144.09984 
L 145.1775 148.23936 
L 145.4751 148.83072 
L 145.7727 146.31744 
L 146.0703 146.46528 
L 146.3679 146.76096 
L 146.6655 148.83072 
L 146.9631 145.57824 
L 147.2607 146.1696 
L 147.5583 150.90048 
L 147.8559 145.57824 
L 148.1535 146.46528 
L 148.4511 151.63968 
L 148.7487 145.28256 
L 149.0463 147.05664 
L 149.3439 149.42208 
L 149.6415 147.50016 
L 149.9391 143.36064 
L 150.2367 145.57824 
L 150.5343 145.28256 
L 150.8319 144.54336 
L 151.1295 145.28256 
L 151.4271 143.80416 
L 151.7247 146.46528 
L 152.0223 146.1696 
L 152.3199 148.09152 
L 152.6175 144.24768 
L 152.9151 147.35232 
L 153.2127 148.68288 
L 153.5103 146.46528 
L 153.8079 146.46528 
L 154.1055 148.09152 
L 154.4031 144.6912 
L 154.7007 148.97856 
L 154.9983 141.7344 
L 155.2959 146.1696 
L 155.5935 145.4304 
L 155.8911 144.6912 
L 156.1887 143.65632 
L 156.4863 145.87392 
L 156.7839 144.24768 
L 157.0815 146.46528 
L 157.3791 146.02176 
L 157.6767 141.58656 
L 157.9743 144.6912 
L 158.2719 145.28256 
L 158.5695 144.24768 
L 158.8671 146.46528 
L 159.1647 144.54336 
L 159.4623 146.76096 
L 159.7599 144.98688 
L 160.0575 141.58656 
L 160.3551 146.9088 
L 160.6527 146.9088 
L 160.9503 145.87392 
L 161.2479 143.2128 
L 161.5455 140.84736 
L 161.8431 145.28256 
L 162.1407 141.43872 
L 162.4383 145.87392 
L 162.7359 145.72608 
L 163.0335 147.35232 
L 163.3311 142.32576 
L 163.6287 140.69952 
L 163.9263 142.4736 
L 164.2239 143.36064 
L 164.5215 141.14304 
L 164.8191 145.87392 
L 165.1167 143.80416 
L 165.4143 142.32576 
L 165.7119 146.46528 
L 166.0095 139.5168 
L 166.3071 144.98688 
L 166.6047 143.06496 
L 166.9023 143.80416 
L 167.1999 145.4304 
L 167.4975 145.4304 
L 167.7951 141.7344 
L 168.0927 146.02176 
L 168.3903 141.7344 
L 168.6879 142.32576 
L 168.9855 144.6912 
L 169.2831 138.62976 
L 169.5807 139.81248 
L 169.8783 143.06496 
L 170.1759 142.03008 
L 170.4735 137.89056 
L 170.7711 141.14304 
L 171.0687 137.44704 
L 171.3663 143.36064 
L 171.6639 137.59488 
L 171.9615 139.66464 
L 172.2591 137.00352 
L 172.5567 133.6032 
L 172.8543 135.0816 
L 173.1519 136.56 
L 173.4495 135.96864 
L 173.7471 135.67296 
L 174.0447 140.84736 
L 174.3423 138.7776 
L 174.6399 136.26432 
L 174.9375 133.15968 
L 175.2351 136.56 
L 175.5327 140.9952 
L 175.8303 131.82912 
L 176.1279 129.9072 
L 176.4255 133.75104 
L 176.7231 135.37728 
L 177.0207 132.42048 
L 177.3183 128.72448 
L 177.6159 132.42048 
L 177.9135 134.78592 
L 178.2111 132.27264 
L 178.5087 128.13312 
L 178.8063 130.49856 
L 179.1039 125.76768 
L 179.4015 125.17632 
L 179.6991 126.06336 
L 179.9967 122.95872 
L 180.2943 122.21952 
L 180.5919 118.8192 
L 180.8895 131.82912 
L 181.1871 126.06336 
L 181.4847 120.59328 
L 181.7823 120.44544 
L 182.0799 121.0368 
L 182.3775 128.87232 
L 182.6751 120.74112 
L 182.9727 126.9504 
L 183.2703 121.18464 
L 183.5679 118.37568 
L 183.8655 117.93216 
L 184.1631 118.52352 
L 184.4607 119.26272 
L 184.7583 118.67136 
L 185.0559 118.08 
L 185.3535 116.30592 
L 185.6511 116.89728 
L 185.9487 116.74944 
L 186.2463 118.22784 
L 186.5439 113.6448 
L 186.8415 117.63648 
L 187.1391 114.97536 
L 187.4367 113.49696 
L 187.7343 116.45376 
L 188.0319 112.9056 
L 188.3295 111.72288 
L 188.6271 112.31424 
L 188.9247 109.2096 
L 189.2223 108.02688 
L 189.5199 109.80096 
L 189.8175 102.5568 
L 190.1151 102.85248 
L 190.4127 111.72288 
L 190.7103 105.36576 
L 191.0079 104.18304 
L 191.3055 114.08832 
L 191.6031 100.3392 
L 191.9007 105.5136 
L 192.1983 105.5136 
L 192.4959 105.95712 
L 192.7935 107.87904 
L 193.0911 104.62656 
L 193.3887 102.26112 
L 193.6863 101.66976 
L 193.9839 99.15648 
L 194.2815 102.40896 
L 194.5791 100.93056 
L 194.8767 99.89568 
L 195.1743 103.73952 
L 195.4719 92.9472 
L 195.7695 102.26112 
L 196.0671 91.76448 
L 196.3647 97.82592 
L 196.6623 94.57344 
L 196.9599 104.33088 
L 197.2575 101.8176 
L 197.5551 101.96544 
L 197.8527 99.30432 
L 198.1503 101.8176 
L 198.4479 101.22624 
L 198.7455 99.74784 
L 199.0431 96.49536 
L 199.3407 101.8176 
L 199.6383 92.65152 
L 199.9359 103.00032 
L 200.2335 93.09504 
L 200.5311 88.36416 
L 200.8287 93.83424 
L 201.1263 99.6 
L 201.4239 90.7296 
L 201.7215 95.75616 
L 202.0191 93.6864 
L 202.3167 89.10336 
L 202.6143 97.23456 
L 202.9119 91.91232 
L 203.2095 96.79104 
L 203.5071 84.96384 
L 203.8047 85.99872 
L 204.1023 91.91232 
L 204.3999 79.05024 
L 204.6975 93.6864 
L 204.9951 85.70304 
L 205.2927 91.17312 
L 205.5903 95.46048 
L 205.8879 83.92896 
L 206.1855 91.76448 
L 206.4831 92.50368 
L 206.7807 84.66816 
L 207.0783 88.80768 
L 207.3759 99.45216 
L 207.6735 85.11168 
L 207.9711 74.61504 
L 208.2687 82.89408 
L 208.5663 75.9456 
L 208.8639 78.9024 
L 209.1615 78.60672 
L 209.4591 87.92064 
L 209.7567 73.58016 
L 210.0543 86.14656 
L 210.3519 88.512 
L 210.6495 85.5552 
L 210.9471 86.2944 
L 211.2447 83.63328 
L 211.5423 81.56352 
L 211.8399 85.99872 
L 212.1375 84.816 
L 212.4351 85.70304 
L 212.7327 80.52864 
L 213.0303 74.17152 
L 213.3279 79.19808 
L 213.6255 91.76448 
L 213.9231 84.0768 
L 214.2207 78.31104 
L 214.5183 70.32768 
L 214.8159 66.04032 
L 215.1135 64.70976 
L 215.4111 70.7712 
L 215.7087 70.32768 
L 216.0063 63.08352 
L 216.3039 66.18816 
L 216.6015 65.30112 
L 216.8991 76.98048 
L 217.1967 83.92896 
L 217.4943 76.09344 
L 217.7919 82.15488 
L 218.0895 77.424 
L 218.3871 68.25792 
L 218.6847 65.89248 
L 218.9823 76.09344 
L 219.2799 63.67488 
L 219.5775 76.98048 
L 219.8751 68.25792 
L 220.1727 66.77952 
L 220.4703 60.71808 
L 220.7679 72.10176 
L 221.0655 62.34432 
L 221.3631 65.00544 
L 221.6607 64.70976 
L 221.9583 68.99712 
L 222.2559 70.91904 
L 222.5535 67.51872 
L 222.8511 72.9888 
L 223.1487 73.28448 
L 223.4463 64.70976 
L 223.7439 68.70144 
L 224.0415 75.64992 
L 224.3391 65.5968 
L 224.6367 66.48384 
L 224.9343 71.06688 
L 225.2319 65.5968 
L 225.5295 70.7712 
L 225.8271 63.82272 
L 226.1247 72.2496 
L 226.4223 71.36256 
L 226.7199 65.74464 
L 227.0175 75.50208 
L 227.3151 74.91072 
L 227.6127 74.61504 
L 227.9103 71.65824 
L 228.2079 63.82272 
L 228.5055 69.58848 
L 228.8031 63.67488 
L 229.1007 77.57184 
L 229.3983 76.98048 
L 229.6959 75.2064 
L 229.9935 76.83264 
L 230.2911 74.61504 
L 230.5887 72.84096 
L 230.8863 69.2928 
L 231.1839 63.82272 
L 231.4815 64.1184 
L 231.7791 70.91904 
L 232.0767 73.58016 
L 232.3743 75.9456 
L 232.6719 72.54528 
L 232.9695 71.80608 
L 233.2671 72.69312 
L 233.5647 70.47552 
L 233.8623 66.04032 
L 234.1599 68.99712 
L 234.4575 71.06688 
L 234.7551 71.80608 
L 235.0527 70.91904 
L 235.3503 66.77952 
L 235.6479 73.728 
L 235.9455 68.5536 
L 236.2431 78.45888 
L 236.5407 77.71968 
L 236.8383 70.032 
L 237.1359 70.32768 
L 237.4335 67.37088 
L 237.7311 71.80608 
L 238.0287 73.58016 
L 238.3263 75.50208 
L 238.6239 71.80608 
L 238.9215 68.84928 
L 239.2191 67.51872 
L 239.5167 67.66656 
L 239.8143 66.77952 
L 240.1119 75.35424 
L 240.4095 71.80608 
L 240.7071 63.67488 
L 241.0047 76.83264 
L 241.3023 70.7712 
L 241.5999 64.70976 
L 241.8975 55.248 
L 242.1951 70.17984 
L 242.4927 64.56192 
L 242.7903 71.65824 
L 243.0879 68.5536 
L 243.3855 66.48384 
L 243.6831 68.25792 
L 243.9807 60.12672 
L 244.2783 67.8144 
L 244.5759 71.5104 
L 244.8735 64.70976 
L 245.1711 66.336 
L 245.4687 65.00544 
L 245.7663 72.54528 
L 246.0639 66.92736 
L 246.3615 63.52704 
L 246.6591 62.34432 
L 246.9567 63.67488 
L 247.2543 70.47552 
L 247.5519 71.06688 
L 247.8495 69.73632 
L 248.1471 59.38752 
L 248.4447 70.91904 
L 248.7423 62.64 
L 249.0399 59.23968 
L 249.3375 70.17984 
L 249.6351 63.23136 
L 249.9327 55.69152 
L 250.2303 64.70976 
L 250.5279 71.95392 
L 250.8255 60.27456 
L 251.1231 65.15328 
L 251.4207 66.04032 
L 251.7183 70.91904 
L 252.0159 71.21472 
L 252.3135 63.23136 
L 252.6111 61.1616 
L 252.9087 69.73632 
L 253.2063 64.56192 
L 253.5039 70.47552 
L 253.8015 63.08352 
L 254.0991 66.48384 
L 254.3967 60.71808 
L 254.6943 70.032 
L 254.9919 79.19808 
L 255.2895 62.49216 
L 255.5871 63.97056 
L 255.8847 63.3792 
L 256.1823 58.944 
L 256.4799 66.04032 
L 256.4799 116.89728 
L 256.4799 116.89728 
L 256.1823 121.62816 
L 255.8847 120.74112 
L 255.5871 120.74112 
L 255.2895 120.44544 
L 254.9919 121.18464 
L 254.6943 119.70624 
L 254.3967 128.72448 
L 254.0991 123.2544 
L 253.8015 123.40224 
L 253.5039 121.33248 
L 253.2063 120.14976 
L 252.9087 125.32416 
L 252.6111 127.98528 
L 252.3135 127.09824 
L 252.0159 127.39392 
L 251.7183 123.55008 
L 251.4207 124.58496 
L 251.1231 127.24608 
L 250.8255 127.09824 
L 250.5279 124.58496 
L 250.2303 121.48032 
L 249.9327 127.24608 
L 249.6351 130.6464 
L 249.3375 120.44544 
L 249.0399 120.14976 
L 248.7423 122.36736 
L 248.4447 122.36736 
L 248.1471 128.57664 
L 247.8495 127.09824 
L 247.5519 127.83744 
L 247.2543 119.5584 
L 246.9567 127.54176 
L 246.6591 128.57664 
L 246.3615 123.2544 
L 246.0639 117.19296 
L 245.7663 123.40224 
L 245.4687 127.09824 
L 245.1711 129.02016 
L 244.8735 129.75936 
L 244.5759 127.09824 
L 244.2783 132.864 
L 243.9807 123.9936 
L 243.6831 126.2112 
L 243.3855 126.2112 
L 243.0879 128.87232 
L 242.7903 130.20288 
L 242.4927 122.5152 
L 242.1951 125.76768 
L 241.8975 129.75936 
L 241.5999 129.75936 
L 241.3023 126.9504 
L 241.0047 125.32416 
L 240.7071 132.27264 
L 240.4095 122.07168 
L 240.1119 125.02848 
L 239.8143 128.28096 
L 239.5167 129.168 
L 239.2191 116.01024 
L 238.9215 127.39392 
L 238.6239 126.2112 
L 238.3263 123.40224 
L 238.0287 120.88896 
L 237.7311 130.94208 
L 237.4335 135.37728 
L 237.1359 130.05504 
L 236.8383 118.52352 
L 236.5407 122.66304 
L 236.2431 121.0368 
L 235.9455 129.46368 
L 235.6479 122.21952 
L 235.3503 133.01184 
L 235.0527 124.7328 
L 234.7551 126.80256 
L 234.4575 130.79424 
L 234.1599 126.9504 
L 233.8623 122.81088 
L 233.5647 133.15968 
L 233.2671 127.09824 
L 232.9695 130.94208 
L 232.6719 129.31584 
L 232.3743 125.02848 
L 232.0767 129.75936 
L 231.7791 127.09824 
L 231.4815 132.1248 
L 231.1839 128.87232 
L 230.8863 129.02016 
L 230.5887 130.20288 
L 230.2911 135.52512 
L 229.9935 132.42048 
L 229.6959 132.56832 
L 229.3983 133.15968 
L 229.1007 134.93376 
L 228.8031 134.63808 
L 228.5055 142.32576 
L 228.2079 134.19456 
L 227.9103 137.89056 
L 227.6127 136.70784 
L 227.3151 134.63808 
L 227.0175 133.45536 
L 226.7199 141.43872 
L 226.4223 139.36896 
L 226.1247 137.89056 
L 225.8271 134.19456 
L 225.5295 136.41216 
L 225.2319 143.65632 
L 224.9343 137.89056 
L 224.6367 136.85568 
L 224.3391 145.4304 
L 224.0415 135.96864 
L 223.7439 127.83744 
L 223.4463 138.62976 
L 223.1487 130.6464 
L 222.8511 136.85568 
L 222.5535 136.11648 
L 222.2559 142.4736 
L 221.9583 140.55168 
L 221.6607 142.76928 
L 221.3631 143.06496 
L 221.0655 145.13472 
L 220.7679 139.5168 
L 220.4703 154.74432 
L 220.1727 150.75264 
L 219.8751 148.09152 
L 219.5775 146.1696 
L 219.2799 152.37888 
L 218.9823 146.46528 
L 218.6847 144.54336 
L 218.3871 146.31744 
L 218.0895 144.24768 
L 217.7919 136.56 
L 217.4943 147.05664 
L 217.1967 143.06496 
L 216.8991 147.35232 
L 216.6015 154.00512 
L 216.3039 155.48352 
L 216.0063 158.29248 
L 215.7087 148.3872 
L 215.4111 147.648 
L 215.1135 155.18784 
L 214.8159 150.6048 
L 214.5183 155.48352 
L 214.2207 149.8656 
L 213.9231 150.30912 
L 213.6255 147.35232 
L 213.3279 148.97856 
L 213.0303 148.68288 
L 212.7327 149.1264 
L 212.4351 147.79584 
L 212.1375 145.13472 
L 211.8399 145.72608 
L 211.5423 147.20448 
L 211.2447 146.9088 
L 210.9471 148.97856 
L 210.6495 147.05664 
L 210.3519 148.83072 
L 210.0543 145.28256 
L 209.7567 160.51008 
L 209.4591 146.46528 
L 209.1615 155.48352 
L 208.8639 155.18784 
L 208.5663 158.14464 
L 208.2687 155.04 
L 207.9711 162.72768 
L 207.6735 149.56992 
L 207.3759 140.84736 
L 207.0783 149.1264 
L 206.7807 151.49184 
L 206.4831 148.68288 
L 206.1855 148.53504 
L 205.8879 156.07488 
L 205.5903 144.54336 
L 205.2927 150.30912 
L 204.9951 154.89216 
L 204.6975 146.31744 
L 204.3999 157.70112 
L 204.1023 149.27424 
L 203.8047 154.59648 
L 203.5071 156.5184 
L 203.2095 143.50848 
L 202.9119 149.8656 
L 202.6143 148.68288 
L 202.3167 155.33568 
L 202.0191 151.63968 
L 201.7215 145.4304 
L 201.4239 161.10144 
L 201.1263 149.8656 
L 200.8287 152.37888 
L 200.5311 158.14464 
L 200.2335 152.23104 
L 199.9359 152.0832 
L 199.6383 162.432 
L 199.3407 152.67456 
L 199.0431 157.9968 
L 198.7455 156.5184 
L 198.4479 156.81408 
L 198.1503 153.85728 
L 197.8527 160.2144 
L 197.5551 157.55328 
L 197.2575 156.81408 
L 196.9599 159.32736 
L 196.6623 172.0416 
L 196.3647 159.32736 
L 196.0671 169.824 
L 195.7695 159.62304 
L 195.4719 172.18944 
L 195.1743 161.6928 
L 194.8767 173.22432 
L 194.5791 168.93696 
L 194.2815 165.68448 
L 193.9839 172.48512 
L 193.6863 175.58976 
L 193.3887 171.45024 
L 193.0911 166.128 
L 192.7935 159.32736 
L 192.4959 167.45856 
L 192.1983 168.19776 
L 191.9007 172.92864 
L 191.6031 174.85056 
L 191.3055 157.2576 
L 191.0079 172.7808 
L 190.7103 172.7808 
L 190.4127 166.128 
L 190.1151 179.13792 
L 189.8175 172.33728 
L 189.5199 168.93696 
L 189.2223 173.07648 
L 188.9247 171.3024 
L 188.6271 182.09472 
L 188.3295 166.71936 
L 188.0319 176.77248 
L 187.7343 177.9552 
L 187.4367 177.9552 
L 187.1391 174.70272 
L 186.8415 178.54656 
L 186.5439 184.01664 
L 186.2463 177.36384 
L 185.9487 178.25088 
L 185.6511 179.58144 
L 185.3535 182.53824 
L 185.0559 177.80736 
L 184.7583 176.62464 
L 184.4607 176.03328 
L 184.1631 171.74592 
L 183.8655 190.66944 
L 183.5679 180.46848 
L 183.2703 176.18112 
L 182.9727 175.44192 
L 182.6751 180.46848 
L 182.3775 174.40704 
L 182.0799 184.31232 
L 181.7823 180.1728 
L 181.4847 186.8256 
L 181.1871 179.28576 
L 180.8895 181.50336 
L 180.5919 183.27744 
L 180.2943 183.72096 
L 179.9967 187.41696 
L 179.6991 185.79072 
L 179.4015 188.45184 
L 179.1039 183.72096 
L 178.8063 184.90368 
L 178.5087 186.67776 
L 178.2111 178.99008 
L 177.9135 185.64288 
L 177.6159 185.05152 
L 177.3183 184.31232 
L 177.0207 178.54656 
L 176.7231 177.36384 
L 176.4255 186.38208 
L 176.1279 180.76416 
L 175.8303 183.8688 
L 175.5327 177.65952 
L 175.2351 183.8688 
L 174.9375 184.01664 
L 174.6399 179.4336 
L 174.3423 183.72096 
L 174.0447 178.10304 
L 173.7471 179.4336 
L 173.4495 179.13792 
L 173.1519 179.13792 
L 172.8543 182.98176 
L 172.5567 188.00832 
L 172.2591 180.1728 
L 171.9615 178.10304 
L 171.6639 178.39872 
L 171.3663 176.4768 
L 171.0687 187.12128 
L 170.7711 183.1296 
L 170.4735 178.10304 
L 170.1759 176.92032 
L 169.8783 177.36384 
L 169.5807 180.61632 
L 169.2831 183.57312 
L 168.9855 176.03328 
L 168.6879 184.90368 
L 168.3903 176.03328 
L 168.0927 182.09472 
L 167.7951 177.80736 
L 167.4975 180.912 
L 167.1999 177.9552 
L 166.9023 176.92032 
L 166.6047 177.9552 
L 166.3071 173.37216 
L 166.0095 185.05152 
L 165.7119 174.85056 
L 165.4143 178.99008 
L 165.1167 176.92032 
L 164.8191 177.216 
L 164.5215 176.03328 
L 164.2239 175.88544 
L 163.9263 177.9552 
L 163.6287 177.36384 
L 163.3311 172.48512 
L 163.0335 172.18944 
L 162.7359 175.88544 
L 162.4383 176.03328 
L 162.1407 176.92032 
L 161.8431 173.66784 
L 161.5455 179.87712 
L 161.2479 175.7376 
L 160.9503 181.35552 
L 160.6527 174.70272 
L 160.3551 174.70272 
L 160.0575 178.84224 
L 159.7599 173.96352 
L 159.4623 175.14624 
L 159.1647 175.29408 
L 158.8671 177.216 
L 158.5695 175.58976 
L 158.2719 176.03328 
L 157.9743 175.44192 
L 157.6767 178.25088 
L 157.3791 176.77248 
L 157.0815 173.66784 
L 156.7839 177.36384 
L 156.4863 175.44192 
L 156.1887 179.13792 
L 155.8911 171.89376 
L 155.5935 175.58976 
L 155.2959 173.96352 
L 154.9983 177.216 
L 154.7007 173.22432 
L 154.4031 176.03328 
L 154.1055 172.92864 
L 153.8079 174.85056 
L 153.5103 174.85056 
L 153.2127 173.52 
L 152.9151 173.96352 
L 152.6175 174.40704 
L 152.3199 175.29408 
L 152.0223 174.55488 
L 151.7247 174.85056 
L 151.4271 176.92032 
L 151.1295 174.2592 
L 150.8319 176.4768 
L 150.5343 172.48512 
L 150.2367 175.14624 
L 149.9391 180.02496 
L 149.6415 178.84224 
L 149.3439 171.89376 
L 149.0463 180.76416 
L 148.7487 176.03328 
L 148.4511 174.11136 
L 148.1535 178.99008 
L 147.8559 176.32896 
L 147.5583 173.96352 
L 147.2607 179.28576 
L 146.9631 181.05984 
L 146.6655 181.94688 
L 146.3679 174.55488 
L 146.0703 175.44192 
L 145.7727 175.29408 
L 145.4751 180.76416 
L 145.1775 180.76416 
L 144.8799 176.03328 
L 144.5823 173.37216 
L 144.2847 176.92032 
L 143.9871 177.65952 
L 143.6895 178.25088 
L 143.3919 175.14624 
L 143.0943 176.62464 
L 142.7967 173.96352 
L 142.4991 181.6512 
L 142.2015 178.6944 
L 141.9039 181.6512 
L 141.6063 178.84224 
L 141.3087 175.44192 
L 141.0111 176.62464 
L 140.7135 175.88544 
L 140.4159 176.32896 
L 140.1183 177.9552 
L 139.8207 175.14624 
L 139.5231 177.80736 
L 139.2255 179.4336 
L 138.9279 181.6512 
L 138.6303 177.216 
L 138.3327 174.2592 
L 138.0351 177.80736 
L 137.7375 182.24256 
L 137.4399 181.94688 
L 137.1423 176.03328 
L 136.8447 177.80736 
L 136.5471 173.07648 
L 136.2495 173.22432 
L 135.9519 179.87712 
L 135.6543 172.7808 
L 135.3567 178.10304 
L 135.0591 178.99008 
L 134.7615 178.54656 
L 134.4639 183.1296 
L 134.1663 184.75584 
L 133.8687 180.76416 
L 133.5711 176.03328 
L 133.2735 180.912 
L 132.9759 185.79072 
L 132.6783 183.57312 
L 132.3807 179.58144 
L 132.0831 181.05984 
L 131.7855 178.6944 
L 131.4879 176.62464 
L 131.1903 187.86048 
L 130.8927 180.02496 
L 130.5951 189.48672 
L 130.2975 181.79904 
L 129.9999 179.13792 
L 129.7023 181.20768 
L 129.4047 180.76416 
L 129.1071 182.98176 
L 128.8095 182.98176 
L 128.5119 182.24256 
L 128.2143 173.37216 
L 127.9167 186.67776 
L 127.6191 187.12128 
L 127.3215 189.19104 
L 127.0239 182.09472 
L 126.7263 186.38208 
L 126.4287 184.31232 
L 126.1311 190.22592 
L 125.8335 182.83392 
L 125.5359 182.24256 
L 125.2383 185.79072 
L 124.9407 181.50336 
L 124.6431 182.68608 
L 124.3455 182.09472 
L 124.0479 181.6512 
L 123.7503 187.26912 
L 123.4527 186.97344 
L 123.1551 190.96512 
L 122.8575 193.77408 
L 122.5599 189.7824 
L 122.2623 191.11296 
L 121.9647 190.5216 
L 121.6671 185.79072 
L 121.3695 194.9568 
L 121.0719 193.18272 
L 120.7743 192.59136 
L 120.4767 193.62624 
L 120.1791 197.32224 
L 119.8815 193.03488 
L 119.5839 190.81728 
L 119.2863 192.7392 
L 118.9887 188.00832 
L 118.6911 193.62624 
L 118.3935 194.66112 
L 118.0959 194.80896 
L 117.7983 192 
L 117.5007 190.96512 
L 117.2031 191.40864 
L 116.9055 193.92192 
L 116.6079 192.14784 
L 116.3103 197.1744 
L 116.0127 191.40864 
L 115.7151 196.13952 
L 115.4175 193.4784 
L 115.1199 191.70432 
L 114.8223 191.40864 
L 114.5247 193.77408 
L 114.2271 193.92192 
L 113.9295 197.1744 
L 113.6319 198.20928 
L 113.3343 200.1312 
L 113.0367 197.02656 
L 112.7391 196.87872 
L 112.4415 201.16608 
L 112.1439 193.03488 
L 111.8463 194.80896 
L 111.5487 195.54816 
L 111.2511 194.06976 
L 110.9535 192.29568 
L 110.6559 200.8704 
L 110.3583 202.20096 
L 110.0607 199.98336 
L 109.7631 196.4352 
L 109.4655 195.40032 
L 109.1679 195.25248 
L 108.8703 195.10464 
L 108.5727 196.13952 
L 108.2751 195.54816 
L 107.9775 197.61792 
L 107.6799 196.4352 
L 107.3823 204.71424 
L 107.0847 193.62624 
L 106.7871 199.392 
L 106.4895 203.088 
L 106.1919 197.76576 
L 105.8943 202.94016 
L 105.5967 202.49664 
L 105.2991 200.27904 
L 105.0015 198.6528 
L 104.7039 200.57472 
L 104.4063 198.80064 
L 104.1087 200.72256 
L 103.8111 201.46176 
L 103.5135 203.088 
L 103.2159 204.12288 
L 102.9183 200.57472 
L 102.6207 200.1312 
L 102.3231 202.3488 
L 102.0255 202.20096 
L 101.7279 203.97504 
L 101.4303 204.71424 
L 101.1327 201.01824 
L 100.8351 204.71424 
L 100.5375 202.05312 
L 100.2399 202.64448 
L 99.9423 204.41856 
L 99.6447 202.20096 
L 99.3471 203.23584 
L 99.0495 201.31392 
L 98.7519 205.3056 
L 98.4543 207.07968 
L 98.1567 203.088 
L 97.8591 204.41856 
L 97.5615 206.48832 
L 97.2639 207.37536 
L 96.9663 206.34048 
L 96.6687 203.23584 
L 96.3711 201.75744 
L 96.0735 204.12288 
L 95.7759 207.67104 
L 95.4783 205.74912 
L 95.1807 205.89696 
L 94.8831 206.784 
L 94.5855 207.07968 
L 94.2879 205.89696 
L 93.9903 204.5664 
L 93.6927 206.34048 
L 93.3951 207.07968 
L 93.0975 206.34048 
L 92.7999 203.088 
L 92.5023 206.93184 
L 92.2047 204.86208 
L 91.9071 205.45344 
L 91.6095 209.14944 
L 91.3119 209.0016 
L 91.0143 207.5232 
L 90.7167 205.15776 
L 90.4191 206.0448 
L 90.1215 204.27072 
L 89.8239 205.74912 
L 89.5263 204.71424 
L 89.2287 205.15776 
L 88.9311 206.48832 
L 88.6335 204.27072 
L 88.3359 203.8272 
L 88.0383 205.3056 
L 87.7407 206.34048 
L 87.4431 202.64448 
L 87.1455 207.81888 
L 86.8479 210.92352 
L 86.5503 206.93184 
L 86.2527 208.70592 
L 85.9551 208.11456 
L 85.6575 209.14944 
L 85.3599 209.14944 
L 85.0623 205.15776 
L 84.7647 210.03648 
L 84.4671 207.81888 
L 84.1695 207.96672 
L 83.8719 208.55808 
L 83.5743 205.89696 
L 83.2767 207.07968 
L 82.9791 207.22752 
L 82.6815 209.14944 
L 82.3839 206.784 
L 82.0863 207.5232 
L 81.7887 207.96672 
L 81.4911 209.29728 
L 81.1935 212.6976 
L 80.8959 211.36704 
L 80.5983 213.73248 
L 80.3007 212.10624 
L 80.0031 212.40192 
L 79.7055 212.40192 
L 79.4079 211.36704 
L 79.1103 210.18432 
L 78.8127 210.62784 
L 78.5151 214.176 
L 78.2175 213.28896 
L 77.9199 214.02816 
L 77.6223 213.88032 
L 77.3247 214.176 
L 77.0271 211.36704 
L 76.7295 210.77568 
L 76.4319 212.84544 
L 76.1343 214.32384 
L 75.8367 215.6544 
L 75.5391 209.88864 
L 75.2415 215.06304 
L 74.9439 214.9152 
L 74.6463 217.28064 
L 74.3487 217.72416 
L 74.0511 216.24576 
L 73.7535 217.72416 
L 73.4559 219.05472 
L 73.1583 217.872 
L 72.8607 216.83712 
L 72.5631 219.94176 
L 72.2655 216.98496 
L 71.9679 216.54144 
L 71.6703 216.54144 
L 71.3727 218.01984 
L 71.0751 217.872 
L 70.7775 216.68928 
L 70.4799 221.12448 
L 70.1823 216.83712 
L 69.8847 218.46336 
L 69.5871 216.3936 
L 69.2895 219.64608 
L 68.9919 217.1328 
L 68.6943 214.61952 
L 68.3967 217.42848 
L 68.0991 216.09792 
L 67.8015 220.23744 
L 67.5039 218.16768 
L 67.2063 220.23744 
L 66.9087 219.05472 
L 66.6111 220.97664 
L 66.3135 215.95008 
L 66.0159 217.28064 
L 65.7183 220.38528 
L 65.4207 219.64608 
L 65.1231 218.01984 
L 64.8255 220.23744 
L 64.5279 220.23744 
L 64.2303 217.72416 
L 63.9327 222.01152 
L 63.6351 217.57632 
L 63.3375 222.75072 
L 63.0399 221.86368 
L 62.7423 218.6112 
L 62.4447 218.90688 
L 62.1471 219.94176 
L 61.8495 220.53312 
L 61.5519 216.98496 
L 61.2543 216.83712 
L 60.9567 218.75904 
L 60.6591 221.71584 
L 60.3615 219.20256 
L 60.0639 218.6112 
L 59.7663 218.46336 
L 59.4687 219.05472 
L 59.1711 217.72416 
L 58.8735 219.05472 
L 58.5759 223.63776 
L 58.2783 220.38528 
L 57.9807 219.94176 
L 57.6831 220.53312 
L 57.3855 221.27232 
L 57.0879 221.42016 
L 56.7903 220.53312 
L 56.4927 220.23744 
L 56.1951 218.16768 
L 55.8975 221.568 
L 55.5999 222.89856 
L 55.3023 220.38528 
L 55.0047 219.49824 
L 54.7071 219.3504 
L 54.4095 219.05472 
L 54.1119 218.75904 
L 53.8143 222.45504 
L 53.5167 220.97664 
L 53.2191 218.75904 
L 52.9215 221.86368 
L 52.6239 219.20256 
L 52.3263 221.86368 
L 52.0287 220.53312 
L 51.7311 221.568 
L 51.4335 223.0464 
L 51.1359 221.42016 
L 50.8383 220.23744 
L 50.5407 220.68096 
L 50.2431 221.12448 
L 49.9455 221.568 
L 49.6479 220.8288 
L 49.3503 224.5248 
L 49.0527 222.15936 
L 48.7551 221.42016 
L 48.4575 222.3072 
L 48.1599 222.89856 
L 47.8623 221.71584 
L 47.5647 222.60288 
L 47.2671 222.3072 
L 46.9695 222.75072 
L 46.6719 222.3072 
L 46.3743 221.568 
L 46.0767 221.86368 
L 45.7791 222.3072 
L 45.4815 221.86368 
L 45.1839 221.568 
L 44.8863 222.15936 
L 44.5887 222.3072 
L 44.2911 222.15936 
L 43.9935 222.01152 
L 43.6959 222.45504 
L 43.3983 221.568 
L 43.1007 222.15936 
L 42.8031 222.45504 
L 42.5055 222.15936 
z
" clip-path="url(#p8b8de30253)" style="fill: #38588c; fill-opacity: 0.3"/>
   </g>
   <g id="matplotlib.axis_1">
    <g id="xtick_1">
     <g id="line2d_1">
      <defs>
       <path id="m2417489547" d="M 0 0 
L 0 3.5 
" style="stroke: #000000; stroke-width: 0.8"/>
      </defs>
      <g>
       <use xlink:href="#m2417489547" x="33.5775" y="228.96" style="stroke: #000000; stroke-width: 0.8"/>
      </g>
     </g>
     <g id="text_1">
      <text style="font: 6px 'DejaVu Sans', 'Bitstream Vera Sans', 'Computer Modern Sans Serif', 'Lucida Grande', 'Verdana', 'Geneva', 'Lucid', 'Arial', 'Helvetica', 'Avant Garde', sans-serif; text-anchor: middle" x="33.5775" y="240.519062" transform="rotate(-0 33.5775 240.519062)">0</text>
     </g>
    </g>
    <g id="xtick_2">
     <g id="line2d_2">
      <g>
       <use xlink:href="#m2417489547" x="69.2895" y="228.96" style="stroke: #000000; stroke-width: 0.8"/>
      </g>
     </g>
     <g id="text_2">
      <text style="font: 6px 'DejaVu Sans', 'Bitstream Vera Sans', 'Computer Modern Sans Serif', 'Lucida Grande', 'Verdana', 'Geneva', 'Lucid', 'Arial', 'Helvetica', 'Avant Garde', sans-serif; text-anchor: middle" x="69.2895" y="240.519062" transform="rotate(-0 69.2895 240.519062)">4</text>
     </g>
    </g>
    <g id="xtick_3">
     <g id="line2d_3">
      <g>
       <use xlink:href="#m2417489547" x="105.0015" y="228.96" style="stroke: #000000; stroke-width: 0.8"/>
      </g>
     </g>
     <g id="text_3">
      <text style="font: 6px 'DejaVu Sans', 'Bitstream Vera Sans', 'Computer Modern Sans Serif', 'Lucida Grande', 'Verdana', 'Geneva', 'Lucid', 'Arial', 'Helvetica', 'Avant Garde', sans-serif; text-anchor: middle" x="105.0015" y="240.519062" transform="rotate(-0 105.0015 240.519062)">8</text>
     </g>
    </g>
    <g id="xtick_4">
     <g id="line2d_4">
      <g>
       <use xlink:href="#m2417489547" x="140.7135" y="228.96" style="stroke: #000000; stroke-width: 0.8"/>
      </g>
     </g>
     <g id="text_4">
      <text style="font: 6px 'DejaVu Sans', 'Bitstream Vera Sans', 'Computer Modern Sans Serif', 'Lucida Grande', 'Verdana', 'Geneva', 'Lucid', 'Arial', 'Helvetica', 'Avant Garde', sans-serif; text-anchor: middle" x="140.7135" y="240.519062" transform="rotate(-0 140.7135 240.519062)">12</text>
     </g>
    </g>
    <g id="xtick_5">
     <g id="line2d_5">
      <g>
       <use xlink:href="#m2417489547" x="176.4255" y="228.96" style="stroke: #000000; stroke-width: 0.8"/>
      </g>
     </g>
     <g id="text_5">
      <text style="font: 6px 'DejaVu Sans', 'Bitstream Vera Sans', 'Computer Modern Sans Serif', 'Lucida Grande', 'Verdana', 'Geneva', 'Lucid', 'Arial', 'Helvetica', 'Avant Garde', sans-serif; text-anchor: middle" x="176.4255" y="240.519062" transform="rotate(-0 176.4255 240.519062)">16</text>
     </g>
    </g>
    <g id="xtick_6">
     <g id="line2d_6">
      <g>
       <use xlink:href="#m2417489547" x="212.1375" y="228.96" style="stroke: #000000; stroke-width: 0.8"/>
      </g>
     </g>
     <g id="text_6">
      <text style="font: 6px 'DejaVu Sans', 'Bitstream Vera Sans', 'Computer Modern Sans Serif', 'Lucida Grande', 'Verdana', 'Geneva', 'Lucid', 'Arial', 'Helvetica', 'Avant Garde', sans-serif; text-anchor: middle" x="212.1375" y="240.519062" transform="rotate(-0 212.1375 240.519062)">20</text>
     </g>
    </g>
    <g id="xtick_7">
     <g id="line2d_7">
      <g>
       <use xlink:href="#m2417489547" x="247.8495" y="228.96" style="stroke: #000000; stroke-width: 0.8"/>
      </g>
     </g>
     <g id="text_7">
      <text style="font: 6px 'DejaVu Sans', 'Bitstream Vera Sans', 'Computer Modern Sans Serif', 'Lucida Grande', 'Verdana', 'Geneva', 'Lucid', 'Arial', 'Helvetica', 'Avant Garde', sans-serif; text-anchor: middle" x="247.8495" y="240.519062" transform="rotate(-0 247.8495 240.519062)">24</text>
     </g>
    </g>
    <g id="text_8">
     <text style="font: 8px 'DejaVu Sans', 'Bitstream Vera Sans', 'Computer Modern Sans Serif', 'Lucida Grande', 'Verdana', 'Geneva', 'Lucid', 'Arial', 'Helvetica', 'Avant Garde', sans-serif; text-anchor: middle" x="145.1775" y="251.845625" transform="rotate(-0 145.1775 251.845625)">Experimental time (hpf)</text>
    </g>
   </g>
   <g id="matplotlib.axis_2">
    <g id="ytick_1">
     <g id="line2d_8">
      <defs>
       <path id="mb01e570a3c" d="M 0 0 
L -3.5 0 
" style="stroke: #000000; stroke-width: 0.8"/>
      </defs>
      <g>
       <use xlink:href="#mb01e570a3c" x="33.5775" y="228.96" style="stroke: #000000; stroke-width: 0.8"/>
      </g>
     </g>
     <g id="text_9">
      <text style="font: 6px 'DejaVu Sans', 'Bitstream Vera Sans', 'Computer Modern Sans Serif', 'Lucida Grande', 'Verdana', 'Geneva', 'Lucid', 'Arial', 'Helvetica', 'Avant Garde', sans-serif; text-anchor: end" x="26.5775" y="231.239531" transform="rotate(-0 26.5775 231.239531)">0</text>
     </g>
    </g>
    <g id="ytick_2">
     <g id="line2d_9">
      <g>
       <use xlink:href="#mb01e570a3c" x="33.5775" y="193.4784" style="stroke: #000000; stroke-width: 0.8"/>
      </g>
     </g>
     <g id="text_10">
      <text style="font: 6px 'DejaVu Sans', 'Bitstream Vera Sans', 'Computer Modern Sans Serif', 'Lucida Grande', 'Verdana', 'Geneva', 'Lucid', 'Arial', 'Helvetica', 'Avant Garde', sans-serif; text-anchor: end" x="26.5775" y="195.757931" transform="rotate(-0 26.5775 195.757931)">4</text>
     </g>
    </g>
    <g id="ytick_3">
     <g id="line2d_10">
      <g>
       <use xlink:href="#mb01e570a3c" x="33.5775" y="157.9968" style="stroke: #000000; stroke-width: 0.8"/>
      </g>
     </g>
     <g id="text_11">
      <text style="font: 6px 'DejaVu Sans', 'Bitstream Vera Sans', 'Computer Modern Sans Serif', 'Lucida Grande', 'Verdana', 'Geneva', 'Lucid', 'Arial', 'Helvetica', 'Avant Garde', sans-serif; text-anchor: end" x="26.5775" y="160.276331" transform="rotate(-0 26.5775 160.276331)">8</text>
     </g>
    </g>
    <g id="ytick_4">
     <g id="line2d_11">
      <g>
       <use xlink:href="#mb01e570a3c" x="33.5775" y="122.5152" style="stroke: #000000; stroke-width: 0.8"/>
      </g>
     </g>
     <g id="text_12">
      <text style="font: 6px 'DejaVu Sans', 'Bitstream Vera Sans', 'Computer Modern Sans Serif', 'Lucida Grande', 'Verdana', 'Geneva', 'Lucid', 'Arial', 'Helvetica', 'Avant Garde', sans-serif; text-anchor: end" x="26.5775" y="124.794731" transform="rotate(-0 26.5775 124.794731)">12</text>
     </g>
    </g>
    <g id="ytick_5">
     <g id="line2d_12">
      <g>
       <use xlink:href="#mb01e570a3c" x="33.5775" y="87.0336" style="stroke: #000000; stroke-width: 0.8"/>
      </g>
     </g>
     <g id="text_13">
      <text style="font: 6px 'DejaVu Sans', 'Bitstream Vera Sans', 'Computer Modern Sans Serif', 'Lucida Grande', 'Verdana', 'Geneva', 'Lucid', 'Arial', 'Helvetica', 'Avant Garde', sans-serif; text-anchor: end" x="26.5775" y="89.313131" transform="rotate(-0 26.5775 89.313131)">16</text>
     </g>
    </g>
    <g id="ytick_6">
     <g id="line2d_13">
      <g>
       <use xlink:href="#mb01e570a3c" x="33.5775" y="51.552" style="stroke: #000000; stroke-width: 0.8"/>
      </g>
     </g>
     <g id="text_14">
      <text style="font: 6px 'DejaVu Sans', 'Bitstream Vera Sans', 'Computer Modern Sans Serif', 'Lucida Grande', 'Verdana', 'Geneva', 'Lucid', 'Arial', 'Helvetica', 'Avant Garde', sans-serif; text-anchor: end" x="26.5775" y="53.831531" transform="rotate(-0 26.5775 53.831531)">20</text>
     </g>
    </g>
    <g id="ytick_7">
     <g id="line2d_14">
      <g>
       <use xlink:href="#mb01e570a3c" x="33.5775" y="16.0704" style="stroke: #000000; stroke-width: 0.8"/>
      </g>
     </g>
     <g id="text_15">
      <text style="font: 6px 'DejaVu Sans', 'Bitstream Vera Sans', 'Computer Modern Sans Serif', 'Lucida Grande', 'Verdana', 'Geneva', 'Lucid', 'Arial', 'Helvetica', 'Avant Garde', sans-serif; text-anchor: end" x="26.5775" y="18.349931" transform="rotate(-0 26.5775 18.349931)">24</text>
     </g>
    </g>
    <g id="text_16">
     <text style="font: 8px 'DejaVu Sans', 'Bitstream Vera Sans', 'Computer Modern Sans Serif', 'Lucida Grande', 'Verdana', 'Geneva', 'Lucid', 'Arial', 'Helvetica', 'Avant Garde', sans-serif; text-anchor: middle" x="13.27875" y="118.08" transform="rotate(-90 13.27875 118.08)">Developmental age (hpf)</text>
    </g>
   </g>
   <g id="line2d_15">
    <path d="M 42.5055 220.0896 
L 256.7775 94.88667 
L 256.7775 94.88667 
" clip-path="url(#p8b8de30253)" style="fill: none; stroke: #38588c; stroke-linecap: square"/>
   </g>
   <g id="line2d_16">
    <path d="M 42.5055 220.0896 
L 256.7775 99.104354 
L 256.7775 99.104354 
" clip-path="url(#p8b8de30253)" style="fill: none; stroke-dasharray: 3.7,1.6; stroke-dashoffset: 0; stroke: #38588c"/>
   </g>
   <g id="line2d_17">
    <path d="M 42.5055 220.0896 
L 256.7775 90.813011 
L 256.7775 90.813011 
" clip-path="url(#p8b8de30253)" style="fill: none; stroke-dasharray: 3.7,1.6; stroke-dashoffset: 0; stroke: #38588c"/>
   </g>
   <g id="patch_3">
    <path d="M 33.5775 228.96 
L 33.5775 7.2 
" style="fill: none; stroke: #000000; stroke-width: 0.8; stroke-linejoin: miter; stroke-linecap: square"/>
   </g>
   <g id="patch_4">
    <path d="M 33.5775 228.96 
L 256.7775 228.96 
" style="fill: none; stroke: #000000; stroke-width: 0.8; stroke-linejoin: miter; stroke-linecap: square"/>
   </g>
   <g id="legend_1">
    <g id="patch_5">
     <path d="M 93.656011 28.829269 
L 252.7245 28.829269 
Q 253.8825 28.829269 253.8825 27.671269 
L 253.8825 11.253 
Q 253.8825 10.095 252.7245 10.095 
L 93.656011 10.095 
Q 92.498011 10.095 92.498011 11.253 
L 92.498011 27.671269 
Q 92.498011 28.829269 93.656011 28.829269 
z
" style="fill: #ffffff; opacity: 0.8; stroke: #cccccc; stroke-linejoin: miter"/>
    </g>
    <g id="line2d_18">
     <path d="M 94.814011 14.783995 
L 100.604011 14.783995 
L 106.394011 14.783995 
" style="fill: none; stroke: #38588c; stroke-linecap: square"/>
    </g>
    <g id="text_17">
     <text style="font: 5.79px 'DejaVu Sans', 'Bitstream Vera Sans', 'Computer Modern Sans Serif', 'Lucida Grande', 'Verdana', 'Geneva', 'Lucid', 'Arial', 'Helvetica', 'Avant Garde', sans-serif; text-anchor: start" x="111.026011" y="16.810495" transform="rotate(-0 111.026011 16.810495)">Linear fit: slope=0.588 [0.568,0.607], R2=0.945</text>
    </g>
    <g id="patch_6">
     <path d="M 94.814011 25.30913 
L 106.394011 25.30913 
L 106.394011 21.25613 
L 94.814011 21.25613 
z
" style="fill: #38588c; fill-opacity: 0.3"/>
    </g>
    <g id="text_18">
     <text style="font: 5.79px 'DejaVu Sans', 'Bitstream Vera Sans', 'Computer Modern Sans Serif', 'Lucida Grande', 'Verdana', 'Geneva', 'Lucid', 'Arial', 'Helvetica', 'Avant Garde', sans-serif; text-anchor: start" x="111.026011" y="25.30913" transform="rotate(-0 111.026011 25.30913)">Median:23.0C</text>
    </g>
   </g>
  </g>
 </g>
 <defs>
  <clipPath id="p8b8de30253">
   <rect x="33.5775" y="7.2" width="223.2" height="221.76"/>
  </clipPath>
 </defs>
</svg>
