<?xml version="1.0" encoding="utf-8" standalone="no"?>
<!DOCTYPE svg PUBLIC "-//W3C//DTD SVG 1.1//EN"
  "http://www.w3.org/Graphics/SVG/1.1/DTD/svg11.dtd">
<svg xmlns:xlink="http://www.w3.org/1999/xlink" width="263.9775pt" height="260.709375pt" viewBox="0 0 263.9775 260.709375" xmlns="http://www.w3.org/2000/svg" version="1.1">
 <metadata>
  <rdf:RDF xmlns:dc="http://purl.org/dc/elements/1.1/" xmlns:cc="http://creativecommons.org/ns#" xmlns:rdf="http://www.w3.org/1999/02/22-rdf-syntax-ns#">
   <cc:Work>
    <dc:type rdf:resource="http://purl.org/dc/dcmitype/StillImage"/>
    <dc:date>2023-07-28T12:55:06.350171</dc:date>
    <dc:format>image/svg+xml</dc:format>
    <dc:creator>
     <cc:Agent>
      <dc:title>Matplotlib v3.7.0, https://matplotlib.org/</dc:title>
     </cc:Agent>
    </dc:creator>
   </cc:Work>
  </rdf:RDF>
 </metadata>
 <defs>
  <style type="text/css">*{stroke-linejoin: round; stroke-linecap: butt}</style>
 </defs>
 <g id="figure_1">
  <g id="patch_1">
   <path d="M 0 260.709375 
L 263.9775 260.709375 
L 263.9775 0 
L 0 0 
z
" style="fill: #ffffff"/>
  </g>
  <g id="axes_1">
   <g id="patch_2">
    <path d="M 33.5775 228.96 
L 256.7775 228.96 
L 256.7775 7.2 
L 33.5775 7.2 
z
" style="fill: #ffffff"/>
   </g>
   <g id="PolyCollection_1">
    <path d="M 42.5055 221.568 
L 42.5055 212.10624 
L 42.8031 205.3056 
L 43.1007 211.2192 
L 43.3983 211.81056 
L 43.6959 209.7408 
L 43.9935 210.03648 
L 44.2911 207.96672 
L 44.5887 209.7408 
L 44.8863 208.85376 
L 45.1839 212.99328 
L 45.4815 207.67104 
L 45.7791 207.67104 
L 46.0767 209.7408 
L 46.3743 207.67104 
L 46.6719 207.67104 
L 46.9695 207.96672 
L 47.2671 206.48832 
L 47.5647 205.89696 
L 47.8623 204.12288 
L 48.1599 204.41856 
L 48.4575 205.89696 
L 48.7551 203.8272 
L 49.0527 207.07968 
L 49.3503 200.8704 
L 49.6479 204.12288 
L 49.9455 200.57472 
L 50.2431 198.50496 
L 50.5407 201.46176 
L 50.8383 204.71424 
L 51.1359 205.89696 
L 51.4335 202.94016 
L 51.7311 204.41856 
L 52.0287 200.27904 
L 52.3263 198.80064 
L 52.6239 200.8704 
L 52.9215 205.60128 
L 53.2191 207.07968 
L 53.5167 200.8704 
L 53.8143 200.27904 
L 54.1119 204.71424 
L 54.4095 204.41856 
L 54.7071 203.53152 
L 55.0047 203.23584 
L 55.3023 201.75744 
L 55.5999 204.41856 
L 55.8975 198.80064 
L 56.1951 201.16608 
L 56.4927 202.3488 
L 56.7903 200.8704 
L 57.0879 200.8704 
L 57.3855 202.05312 
L 57.6831 199.98336 
L 57.9807 203.53152 
L 58.2783 200.27904 
L 58.5759 202.3488 
L 58.8735 203.53152 
L 59.1711 203.23584 
L 59.4687 200.57472 
L 59.7663 204.12288 
L 60.0639 199.98336 
L 60.3615 200.8704 
L 60.6591 199.98336 
L 60.9567 199.98336 
L 61.2543 197.32224 
L 61.5519 202.64448 
L 61.8495 196.4352 
L 62.1471 199.09632 
L 62.4447 199.392 
L 62.7423 199.68768 
L 63.0399 200.8704 
L 63.3375 198.20928 
L 63.6351 198.20928 
L 63.9327 199.09632 
L 64.2303 196.4352 
L 64.5279 187.86048 
L 64.8255 197.32224 
L 65.1231 192.88704 
L 65.4207 185.19936 
L 65.7183 199.09632 
L 66.0159 190.81728 
L 66.3135 195.54816 
L 66.6111 195.84384 
L 66.9087 196.4352 
L 67.2063 191.40864 
L 67.5039 196.73088 
L 67.8015 193.18272 
L 68.0991 193.77408 
L 68.3967 188.74752 
L 68.6943 192.29568 
L 68.9919 193.18272 
L 69.2895 198.80064 
L 69.5871 191.70432 
L 69.8847 187.26912 
L 70.1823 191.11296 
L 70.4799 188.74752 
L 70.7775 197.61792 
L 71.0751 190.22592 
L 71.3727 184.608 
L 71.6703 195.54816 
L 71.9679 192 
L 72.2655 186.67776 
L 72.5631 188.15616 
L 72.8607 191.11296 
L 73.1583 188.74752 
L 73.4559 188.15616 
L 73.7535 184.90368 
L 74.0511 183.1296 
L 74.3487 188.45184 
L 74.6463 187.86048 
L 74.9439 182.83392 
L 75.2415 183.42528 
L 75.5391 186.67776 
L 75.8367 186.67776 
L 76.1343 195.25248 
L 76.4319 184.01664 
L 76.7295 179.87712 
L 77.0271 183.72096 
L 77.3247 183.42528 
L 77.6223 182.83392 
L 77.9199 174.2592 
L 78.2175 181.6512 
L 78.5151 178.39872 
L 78.8127 173.66784 
L 79.1103 182.24256 
L 79.4079 178.6944 
L 79.7055 181.35552 
L 80.0031 181.94688 
L 80.3007 173.37216 
L 80.5983 176.32896 
L 80.8959 174.85056 
L 81.1935 176.03328 
L 81.4911 178.39872 
L 81.7887 169.23264 
L 82.0863 173.07648 
L 82.3839 171.59808 
L 82.6815 169.824 
L 82.9791 165.68448 
L 83.2767 178.10304 
L 83.5743 171.00672 
L 83.8719 161.84064 
L 84.1695 186.67776 
L 84.4671 168.64128 
L 84.7647 174.85056 
L 85.0623 174.55488 
L 85.3599 174.55488 
L 85.6575 173.66784 
L 85.9551 175.44192 
L 86.2527 179.87712 
L 86.5503 173.07648 
L 86.8479 173.66784 
L 87.1455 180.76416 
L 87.4431 173.96352 
L 87.7407 170.41536 
L 88.0383 166.57152 
L 88.3359 177.216 
L 88.6335 183.1296 
L 88.9311 177.51168 
L 89.2287 178.10304 
L 89.5263 169.23264 
L 89.8239 171.59808 
L 90.1215 183.42528 
L 90.4191 180.76416 
L 90.7167 176.32896 
L 91.0143 178.6944 
L 91.3119 177.80736 
L 91.6095 181.05984 
L 91.9071 170.71104 
L 92.2047 180.46848 
L 92.5023 179.58144 
L 92.7999 179.58144 
L 93.0975 175.44192 
L 93.3951 177.51168 
L 93.6927 175.14624 
L 93.9903 175.14624 
L 94.2879 178.10304 
L 94.5855 170.11968 
L 94.8831 178.10304 
L 95.1807 183.42528 
L 95.4783 176.32896 
L 95.7759 167.16288 
L 96.0735 171.59808 
L 96.3711 168.93696 
L 96.6687 177.216 
L 96.9663 168.93696 
L 97.2639 176.92032 
L 97.5615 169.52832 
L 97.8591 175.14624 
L 98.1567 173.37216 
L 98.4543 169.52832 
L 98.7519 182.24256 
L 99.0495 170.41536 
L 99.3471 172.18944 
L 99.6447 175.14624 
L 99.9423 178.6944 
L 100.2399 174.2592 
L 100.5375 171.89376 
L 100.8351 178.10304 
L 101.1327 177.80736 
L 101.4303 169.824 
L 101.7279 177.80736 
L 102.0255 176.92032 
L 102.3231 176.92032 
L 102.6207 176.32896 
L 102.9183 177.51168 
L 103.2159 178.99008 
L 103.5135 171.3024 
L 103.8111 181.35552 
L 104.1087 166.57152 
L 104.4063 181.05984 
L 104.7039 180.1728 
L 105.0015 178.10304 
L 105.2991 178.99008 
L 105.5967 175.44192 
L 105.8943 178.99008 
L 106.1919 179.58144 
L 106.4895 177.80736 
L 106.7871 177.216 
L 107.0847 175.44192 
L 107.3823 176.03328 
L 107.6799 178.99008 
L 107.9775 181.35552 
L 108.2751 176.32896 
L 108.5727 179.87712 
L 108.8703 177.80736 
L 109.1679 174.55488 
L 109.4655 179.87712 
L 109.7631 176.03328 
L 110.0607 173.07648 
L 110.3583 170.71104 
L 110.6559 164.79744 
L 110.9535 173.66784 
L 111.2511 172.18944 
L 111.5487 181.94688 
L 111.8463 176.62464 
L 112.1439 172.48512 
L 112.4415 171.89376 
L 112.7391 180.46848 
L 113.0367 177.80736 
L 113.3343 173.66784 
L 113.6319 178.10304 
L 113.9295 167.75424 
L 114.2271 178.39872 
L 114.5247 176.62464 
L 114.8223 173.37216 
L 115.1199 178.99008 
L 115.4175 175.44192 
L 115.7151 172.18944 
L 116.0127 175.44192 
L 116.3103 163.02336 
L 116.6079 172.7808 
L 116.9055 175.14624 
L 117.2031 169.23264 
L 117.5007 171.00672 
L 117.7983 168.93696 
L 118.0959 163.31904 
L 118.3935 178.10304 
L 118.6911 173.37216 
L 118.9887 175.44192 
L 119.2863 167.45856 
L 119.5839 175.14624 
L 119.8815 171.59808 
L 120.1791 171.3024 
L 120.4767 171.89376 
L 120.7743 169.23264 
L 121.0719 170.41536 
L 121.3695 179.58144 
L 121.6671 172.18944 
L 121.9647 180.1728 
L 122.2623 174.2592 
L 122.5599 176.03328 
L 122.8575 176.03328 
L 123.1551 176.03328 
L 123.4527 169.824 
L 123.7503 176.03328 
L 124.0479 176.92032 
L 124.3455 178.99008 
L 124.6431 174.2592 
L 124.9407 174.85056 
L 125.2383 176.62464 
L 125.5359 174.2592 
L 125.8335 166.57152 
L 126.1311 161.24928 
L 126.4287 168.3456 
L 126.7263 174.2592 
L 127.0239 167.45856 
L 127.3215 167.75424 
L 127.6191 167.45856 
L 127.9167 175.7376 
L 128.2143 172.48512 
L 128.5119 172.48512 
L 128.8095 173.66784 
L 129.1071 169.23264 
L 129.4047 163.61472 
L 129.7023 167.16288 
L 129.9999 167.16288 
L 130.2975 162.72768 
L 130.5951 167.16288 
L 130.8927 167.16288 
L 131.1903 159.77088 
L 131.4879 163.31904 
L 131.7855 167.16288 
L 132.0831 163.61472 
L 132.3807 168.64128 
L 132.6783 167.75424 
L 132.9759 158.88384 
L 133.2735 167.75424 
L 133.5711 170.41536 
L 133.8687 161.24928 
L 134.1663 167.16288 
L 134.4639 159.77088 
L 134.7615 171.59808 
L 135.0591 162.432 
L 135.3567 167.16288 
L 135.6543 161.54496 
L 135.9519 153.5616 
L 136.2495 158.29248 
L 136.5471 161.54496 
L 136.8447 158.58816 
L 137.1423 160.36224 
L 137.4399 165.09312 
L 137.7375 158.58816 
L 138.0351 160.36224 
L 138.3327 157.70112 
L 138.6303 159.77088 
L 138.9279 167.16288 
L 139.2255 160.36224 
L 139.5231 161.54496 
L 139.8207 161.84064 
L 140.1183 157.10976 
L 140.4159 165.09312 
L 140.7135 162.72768 
L 141.0111 158.58816 
L 141.3087 163.31904 
L 141.6063 162.432 
L 141.9039 155.63136 
L 142.2015 161.54496 
L 142.4991 164.20608 
L 142.7967 163.31904 
L 143.0943 157.10976 
L 143.3919 160.9536 
L 143.6895 155.33568 
L 143.9871 159.77088 
L 144.2847 154.44864 
L 144.5823 155.33568 
L 144.8799 157.40544 
L 145.1775 158.88384 
L 145.4751 161.84064 
L 145.7727 165.09312 
L 146.0703 158.29248 
L 146.3679 158.58816 
L 146.6655 156.22272 
L 146.9631 158.29248 
L 147.2607 158.29248 
L 147.5583 162.13632 
L 147.8559 159.17952 
L 148.1535 154.15296 
L 148.4511 155.33568 
L 148.7487 156.22272 
L 149.0463 154.74432 
L 149.3439 155.33568 
L 149.6415 161.84064 
L 149.9391 162.72768 
L 150.2367 160.65792 
L 150.5343 160.36224 
L 150.8319 156.5184 
L 151.1295 159.17952 
L 151.4271 149.42208 
L 151.7247 154.44864 
L 152.0223 159.17952 
L 152.3199 156.22272 
L 152.6175 159.17952 
L 152.9151 154.15296 
L 153.2127 156.5184 
L 153.5103 159.17952 
L 153.8079 156.5184 
L 154.1055 159.77088 
L 154.4031 158.88384 
L 154.7007 155.04 
L 154.9983 160.06656 
L 155.2959 161.84064 
L 155.5935 154.74432 
L 155.8911 154.15296 
L 156.1887 155.33568 
L 156.4863 154.74432 
L 156.7839 155.33568 
L 157.0815 152.67456 
L 157.3791 155.04 
L 157.6767 161.84064 
L 157.9743 156.22272 
L 158.2719 162.13632 
L 158.5695 155.33568 
L 158.8671 158.29248 
L 159.1647 155.92704 
L 159.4623 151.19616 
L 159.7599 156.5184 
L 160.0575 157.10976 
L 160.3551 156.22272 
L 160.6527 160.65792 
L 160.9503 153.5616 
L 161.2479 158.29248 
L 161.5455 156.81408 
L 161.8431 158.88384 
L 162.1407 159.4752 
L 162.4383 165.3888 
L 162.7359 151.19616 
L 163.0335 156.5184 
L 163.3311 156.5184 
L 163.6287 155.63136 
L 163.9263 161.84064 
L 164.2239 159.4752 
L 164.5215 150.01344 
L 164.8191 154.15296 
L 165.1167 154.15296 
L 165.4143 155.92704 
L 165.7119 160.65792 
L 166.0095 158.88384 
L 166.3071 160.65792 
L 166.6047 157.40544 
L 166.9023 154.74432 
L 167.1999 156.22272 
L 167.4975 157.40544 
L 167.7951 155.92704 
L 168.0927 160.06656 
L 168.3903 159.77088 
L 168.6879 156.5184 
L 168.9855 155.92704 
L 169.2831 159.4752 
L 169.5807 162.432 
L 169.8783 159.4752 
L 170.1759 164.20608 
L 170.4735 152.0832 
L 170.7711 160.06656 
L 171.0687 156.22272 
L 171.3663 153.26592 
L 171.6639 161.84064 
L 171.9615 154.15296 
L 172.2591 144.09984 
L 172.5567 148.83072 
L 172.8543 154.15296 
L 173.1519 160.65792 
L 173.4495 150.01344 
L 173.7471 150.30912 
L 174.0447 155.33568 
L 174.3423 153.85728 
L 174.6399 159.77088 
L 174.9375 155.33568 
L 175.2351 159.17952 
L 175.5327 157.9968 
L 175.8303 150.01344 
L 176.1279 162.432 
L 176.4255 155.33568 
L 176.7231 160.36224 
L 177.0207 156.22272 
L 177.3183 156.22272 
L 177.6159 159.77088 
L 177.9135 156.81408 
L 178.2111 154.44864 
L 178.5087 157.9968 
L 178.8063 159.4752 
L 179.1039 158.88384 
L 179.4015 157.9968 
L 179.6991 157.40544 
L 179.9967 159.4752 
L 180.2943 155.04 
L 180.5919 152.67456 
L 180.8895 153.5616 
L 181.1871 154.74432 
L 181.4847 155.04 
L 181.7823 150.01344 
L 182.0799 155.33568 
L 182.3775 161.24928 
L 182.6751 157.40544 
L 182.9727 157.70112 
L 183.2703 157.70112 
L 183.5679 154.74432 
L 183.8655 156.22272 
L 184.1631 156.5184 
L 184.4607 158.29248 
L 184.7583 156.5184 
L 185.0559 158.58816 
L 185.3535 155.33568 
L 185.6511 156.81408 
L 185.9487 162.432 
L 186.2463 157.9968 
L 186.5439 150.90048 
L 186.8415 153.85728 
L 187.1391 158.29248 
L 187.4367 160.06656 
L 187.7343 157.9968 
L 188.0319 156.5184 
L 188.3295 160.06656 
L 188.6271 150.6048 
L 188.9247 154.74432 
L 189.2223 155.04 
L 189.5199 153.5616 
L 189.8175 151.19616 
L 190.1151 153.85728 
L 190.4127 158.88384 
L 190.7103 152.67456 
L 191.0079 154.44864 
L 191.3055 152.37888 
L 191.6031 149.42208 
L 191.9007 159.4752 
L 192.1983 160.9536 
L 192.4959 160.65792 
L 192.7935 158.58816 
L 193.0911 157.10976 
L 193.3887 155.04 
L 193.6863 156.22272 
L 193.9839 151.78752 
L 194.2815 150.30912 
L 194.5791 148.83072 
L 194.8767 156.81408 
L 195.1743 157.10976 
L 195.4719 156.81408 
L 195.7695 157.70112 
L 196.0671 151.19616 
L 196.3647 150.6048 
L 196.6623 156.81408 
L 196.9599 154.15296 
L 197.2575 155.33568 
L 197.5551 152.97024 
L 197.8527 150.6048 
L 198.1503 154.74432 
L 198.4479 150.01344 
L 198.7455 151.78752 
L 199.0431 154.44864 
L 199.3407 150.6048 
L 199.6383 148.53504 
L 199.9359 156.5184 
L 200.2335 155.33568 
L 200.5311 154.44864 
L 200.8287 158.88384 
L 201.1263 149.42208 
L 201.4239 150.30912 
L 201.7215 150.30912 
L 202.0191 152.67456 
L 202.3167 160.06656 
L 202.6143 155.33568 
L 202.9119 155.04 
L 203.2095 151.19616 
L 203.5071 146.76096 
L 203.8047 155.92704 
L 204.1023 142.62144 
L 204.3999 150.90048 
L 204.6975 150.90048 
L 204.9951 157.40544 
L 205.2927 156.22272 
L 205.5903 159.17952 
L 205.8879 158.88384 
L 206.1855 148.53504 
L 206.4831 150.6048 
L 206.7807 152.0832 
L 207.0783 152.67456 
L 207.3759 151.49184 
L 207.6735 157.10976 
L 207.9711 156.5184 
L 208.2687 152.97024 
L 208.5663 156.5184 
L 208.8639 157.10976 
L 209.1615 150.6048 
L 209.4591 149.71776 
L 209.7567 154.15296 
L 210.0543 149.1264 
L 210.3519 160.36224 
L 210.6495 149.1264 
L 210.9471 154.15296 
L 211.2447 153.5616 
L 211.5423 151.78752 
L 211.8399 148.23936 
L 212.1375 150.90048 
L 212.4351 151.49184 
L 212.7327 155.33568 
L 213.0303 151.49184 
L 213.3279 157.9968 
L 213.6255 159.77088 
L 213.9231 154.15296 
L 214.2207 159.77088 
L 214.5183 153.85728 
L 214.8159 152.97024 
L 215.1135 157.10976 
L 215.4111 155.33568 
L 215.7087 157.10976 
L 216.0063 150.6048 
L 216.3039 152.97024 
L 216.6015 150.30912 
L 216.8991 147.94368 
L 217.1967 161.84064 
L 217.4943 151.78752 
L 217.7919 152.67456 
L 218.0895 157.40544 
L 218.3871 147.94368 
L 218.6847 149.42208 
L 218.9823 152.37888 
L 219.2799 144.09984 
L 219.5775 154.44864 
L 219.8751 147.94368 
L 220.1727 154.74432 
L 220.4703 147.94368 
L 220.7679 158.29248 
L 221.0655 151.19616 
L 221.3631 153.85728 
L 221.6607 147.35232 
L 221.9583 154.74432 
L 222.2559 152.0832 
L 222.5535 155.04 
L 222.8511 147.35232 
L 223.1487 154.15296 
L 223.4463 149.1264 
L 223.7439 153.26592 
L 224.0415 155.63136 
L 224.3391 145.87392 
L 224.6367 147.94368 
L 224.9343 147.05664 
L 225.2319 149.71776 
L 225.5295 158.29248 
L 225.8271 146.76096 
L 226.1247 143.2128 
L 226.4223 150.30912 
L 226.7199 154.15296 
L 227.0175 150.01344 
L 227.3151 149.1264 
L 227.6127 147.94368 
L 227.9103 142.03008 
L 228.2079 147.35232 
L 228.5055 144.98688 
L 228.8031 146.76096 
L 229.1007 148.83072 
L 229.3983 147.05664 
L 229.6959 147.648 
L 229.9935 155.63136 
L 230.2911 154.74432 
L 230.5887 147.35232 
L 230.8863 148.53504 
L 231.1839 144.98688 
L 231.4815 144.39552 
L 231.7791 150.01344 
L 232.0767 148.53504 
L 232.3743 153.26592 
L 232.6719 152.37888 
L 232.9695 149.1264 
L 233.2671 151.78752 
L 233.5647 148.83072 
L 233.8623 152.0832 
L 234.1599 164.50176 
L 234.4575 145.57824 
L 234.7551 141.43872 
L 235.0527 157.70112 
L 235.3503 149.71776 
L 235.6479 151.19616 
L 235.9455 151.78752 
L 236.2431 148.83072 
L 236.5407 150.6048 
L 236.8383 150.90048 
L 237.1359 149.1264 
L 237.4335 148.53504 
L 237.7311 148.53504 
L 238.0287 145.87392 
L 238.3263 151.78752 
L 238.6239 153.5616 
L 238.9215 142.91712 
L 239.2191 155.33568 
L 239.5167 150.30912 
L 239.8143 150.6048 
L 240.1119 152.0832 
L 240.4095 147.94368 
L 240.7071 144.98688 
L 241.0047 147.94368 
L 241.3023 146.46528 
L 241.5999 141.43872 
L 241.8975 148.53504 
L 242.1951 147.648 
L 242.4927 146.76096 
L 242.7903 142.03008 
L 243.0879 140.256 
L 243.3855 148.83072 
L 243.6831 138.18624 
L 243.9807 152.0832 
L 244.2783 142.32576 
L 244.5759 148.53504 
L 244.8735 148.53504 
L 245.1711 148.83072 
L 245.4687 139.96032 
L 245.7663 151.49184 
L 246.0639 148.83072 
L 246.3615 152.0832 
L 246.6591 142.03008 
L 246.9567 147.35232 
L 247.2543 148.53504 
L 247.5519 150.6048 
L 247.8495 150.6048 
L 248.1471 147.94368 
L 248.4447 149.1264 
L 248.7423 147.05664 
L 249.0399 143.50848 
L 249.3375 144.39552 
L 249.6351 157.40544 
L 249.9327 148.53504 
L 250.2303 148.53504 
L 250.5279 145.28256 
L 250.8255 144.6912 
L 251.1231 155.04 
L 251.4207 147.94368 
L 251.7183 148.23936 
L 252.0159 150.30912 
L 252.3135 148.83072 
L 252.6111 152.37888 
L 252.9087 142.32576 
L 253.2063 138.7776 
L 253.5039 144.39552 
L 253.8015 147.648 
L 254.0991 144.09984 
L 254.3967 144.39552 
L 254.6943 151.78752 
L 254.9919 148.83072 
L 255.2895 147.35232 
L 255.5871 148.83072 
L 255.8847 149.71776 
L 256.1823 144.09984 
L 256.4799 148.53504 
L 256.4799 194.66112 
L 256.4799 194.66112 
L 256.1823 191.40864 
L 255.8847 191.11296 
L 255.5871 191.40864 
L 255.2895 192.29568 
L 254.9919 194.9568 
L 254.6943 195.54816 
L 254.3967 198.80064 
L 254.0991 196.13952 
L 253.8015 194.9568 
L 253.5039 191.70432 
L 253.2063 199.09632 
L 252.9087 193.18272 
L 252.6111 187.86048 
L 252.3135 189.0432 
L 252.0159 192.88704 
L 251.7183 199.09632 
L 251.4207 195.25248 
L 251.1231 188.15616 
L 250.8255 199.09632 
L 250.5279 194.9568 
L 250.2303 194.66112 
L 249.9327 194.66112 
L 249.6351 191.70432 
L 249.3375 196.4352 
L 249.0399 196.73088 
L 248.7423 196.73088 
L 248.4447 194.06976 
L 248.1471 195.25248 
L 247.8495 192 
L 247.5519 192 
L 247.2543 194.66112 
L 246.9567 200.57472 
L 246.6591 191.70432 
L 246.3615 194.66112 
L 246.0639 194.9568 
L 245.7663 192.88704 
L 245.4687 195.54816 
L 245.1711 191.40864 
L 244.8735 194.66112 
L 244.5759 194.66112 
L 244.2783 202.64448 
L 243.9807 194.66112 
L 243.6831 202.05312 
L 243.3855 193.77408 
L 243.0879 202.94016 
L 242.7903 201.16608 
L 242.4927 195.25248 
L 242.1951 194.9568 
L 241.8975 194.66112 
L 241.5999 197.02656 
L 241.3023 191.40864 
L 241.0047 195.25248 
L 240.7071 198.20928 
L 240.4095 195.25248 
L 240.1119 197.02656 
L 239.8143 194.36544 
L 239.5167 194.06976 
L 239.2191 195.54816 
L 238.9215 193.77408 
L 238.6239 194.9568 
L 238.3263 195.54816 
L 238.0287 195.54816 
L 237.7311 194.66112 
L 237.4335 194.66112 
L 237.1359 190.5216 
L 236.8383 197.02656 
L 236.5407 199.09632 
L 236.2431 194.9568 
L 235.9455 195.54816 
L 235.6479 193.77408 
L 235.3503 193.4784 
L 235.0527 194.36544 
L 234.7551 202.94016 
L 234.4575 197.61792 
L 234.1599 192.88704 
L 233.8623 197.02656 
L 233.5647 197.32224 
L 233.2671 200.27904 
L 232.9695 194.06976 
L 232.6719 193.77408 
L 232.3743 191.11296 
L 232.0767 194.66112 
L 231.7791 200.8704 
L 231.4815 199.98336 
L 231.1839 198.20928 
L 230.8863 194.66112 
L 230.5887 195.84384 
L 230.2911 194.9568 
L 229.9935 195.84384 
L 229.6959 202.05312 
L 229.3983 190.81728 
L 229.1007 196.13952 
L 228.8031 199.98336 
L 228.5055 192.29568 
L 228.2079 195.84384 
L 227.9103 195.25248 
L 227.6127 195.25248 
L 227.3151 201.16608 
L 227.0175 194.9568 
L 226.7199 193.18272 
L 226.4223 198.80064 
L 226.1247 195.25248 
L 225.8271 197.61792 
L 225.5295 191.40864 
L 225.2319 201.75744 
L 224.9343 196.73088 
L 224.6367 203.53152 
L 224.3391 194.36544 
L 224.0415 193.4784 
L 223.7439 191.11296 
L 223.4463 195.25248 
L 223.1487 197.9136 
L 222.8511 195.84384 
L 222.5535 195.25248 
L 222.2559 195.84384 
L 221.9583 199.68768 
L 221.6607 192.29568 
L 221.3631 192.88704 
L 221.0655 196.13952 
L 220.7679 192.59136 
L 220.4703 195.25248 
L 220.1727 192.59136 
L 219.8751 195.25248 
L 219.5775 197.02656 
L 219.2799 196.13952 
L 218.9823 193.77408 
L 218.6847 199.09632 
L 218.3871 198.80064 
L 218.0895 194.06976 
L 217.7919 198.80064 
L 217.4943 200.27904 
L 217.1967 192.59136 
L 216.8991 209.44512 
L 216.6015 201.16608 
L 216.3039 199.09632 
L 216.0063 199.09632 
L 215.7087 197.32224 
L 215.4111 199.09632 
L 215.1135 197.32224 
L 214.8159 192 
L 214.5183 194.06976 
L 214.2207 195.25248 
L 213.9231 193.18272 
L 213.6255 197.61792 
L 213.3279 198.20928 
L 213.0303 196.4352 
L 212.7327 196.73088 
L 212.4351 199.98336 
L 212.1375 195.84384 
L 211.8399 206.19264 
L 211.5423 200.27904 
L 211.2447 200.8704 
L 210.9471 197.9136 
L 210.6495 198.80064 
L 210.3519 191.11296 
L 210.0543 199.98336 
L 209.7567 197.9136 
L 209.4591 194.66112 
L 209.1615 194.36544 
L 208.8639 196.13952 
L 208.5663 197.9136 
L 208.2687 199.09632 
L 207.9711 197.9136 
L 207.6735 196.13952 
L 207.3759 196.4352 
L 207.0783 198.80064 
L 206.7807 194.66112 
L 206.4831 199.09632 
L 206.1855 199.392 
L 205.8879 195.54816 
L 205.5903 197.02656 
L 205.2927 199.98336 
L 204.9951 194.06976 
L 204.6975 198.20928 
L 204.3999 200.57472 
L 204.1023 200.57472 
L 203.8047 198.50496 
L 203.5071 197.61792 
L 203.2095 197.32224 
L 202.9119 196.4352 
L 202.6143 199.09632 
L 202.3167 193.18272 
L 202.0191 198.80064 
L 201.7215 196.4352 
L 201.4239 196.4352 
L 201.1263 200.27904 
L 200.8287 195.54816 
L 200.5311 198.20928 
L 200.2335 197.9136 
L 199.9359 197.9136 
L 199.6383 194.66112 
L 199.3407 202.64448 
L 199.0431 198.20928 
L 198.7455 201.46176 
L 198.4479 200.8704 
L 198.1503 199.68768 
L 197.8527 203.8272 
L 197.5551 199.09632 
L 197.2575 199.09632 
L 196.9599 201.46176 
L 196.6623 191.11296 
L 196.3647 194.36544 
L 196.0671 196.13952 
L 195.7695 196.73088 
L 195.4719 200.57472 
L 195.1743 199.68768 
L 194.8767 200.57472 
L 194.5791 198.50496 
L 194.2815 205.89696 
L 193.9839 199.09632 
L 193.6863 199.98336 
L 193.3887 202.3488 
L 193.0911 199.68768 
L 192.7935 199.98336 
L 192.4959 199.68768 
L 192.1983 197.61792 
L 191.9007 199.68768 
L 191.6031 205.00992 
L 191.3055 202.05312 
L 191.0079 202.94016 
L 190.7103 204.71424 
L 190.4127 199.09632 
L 190.1151 204.71424 
L 189.8175 202.05312 
L 189.5199 200.8704 
L 189.2223 202.3488 
L 188.9247 204.41856 
L 188.6271 205.00992 
L 188.3295 199.09632 
L 188.0319 201.46176 
L 187.7343 202.94016 
L 187.4367 199.09632 
L 187.1391 200.8704 
L 186.8415 202.3488 
L 186.5439 200.57472 
L 186.2463 199.392 
L 185.9487 199.09632 
L 185.6511 200.57472 
L 185.3535 200.27904 
L 185.0559 199.98336 
L 184.7583 200.27904 
L 184.4607 200.8704 
L 184.1631 202.64448 
L 183.8655 199.98336 
L 183.5679 204.41856 
L 183.2703 203.8272 
L 182.9727 201.46176 
L 182.6751 199.98336 
L 182.3775 196.73088 
L 182.0799 206.19264 
L 181.7823 205.60128 
L 181.4847 202.3488 
L 181.1871 204.41856 
L 180.8895 202.05312 
L 180.5919 204.71424 
L 180.2943 202.3488 
L 179.9967 199.68768 
L 179.6991 199.98336 
L 179.4015 199.392 
L 179.1039 200.27904 
L 178.8063 199.68768 
L 178.5087 199.392 
L 178.2111 202.94016 
L 177.9135 200.57472 
L 177.6159 197.61792 
L 177.3183 204.71424 
L 177.0207 203.53152 
L 176.7231 195.84384 
L 176.4255 199.09632 
L 176.1279 197.9136 
L 175.8303 205.60128 
L 175.5327 199.392 
L 175.2351 198.20928 
L 174.9375 199.09632 
L 174.6399 197.61792 
L 174.3423 203.53152 
L 174.0447 203.8272 
L 173.7471 201.16608 
L 173.4495 209.14944 
L 173.1519 198.50496 
L 172.8543 205.00992 
L 172.5567 204.41856 
L 172.2591 210.33216 
L 171.9615 205.00992 
L 171.6639 199.68768 
L 171.3663 207.67104 
L 171.0687 198.80064 
L 170.7711 200.27904 
L 170.4735 205.3056 
L 170.1759 197.32224 
L 169.8783 199.68768 
L 169.5807 196.73088 
L 169.2831 199.68768 
L 168.9855 199.68768 
L 168.6879 202.64448 
L 168.3903 201.16608 
L 168.0927 199.09632 
L 167.7951 203.23584 
L 167.4975 201.16608 
L 167.1999 204.71424 
L 166.9023 200.8704 
L 166.6047 199.98336 
L 166.3071 198.50496 
L 166.0095 200.27904 
L 165.7119 198.50496 
L 165.4143 199.68768 
L 165.1167 205.00992 
L 164.8191 205.00992 
L 164.5215 207.96672 
L 164.2239 199.68768 
L 163.9263 199.68768 
L 163.6287 202.94016 
L 163.3311 202.64448 
L 163.0335 203.8272 
L 162.7359 207.96672 
L 162.4383 196.13952 
L 162.1407 199.68768 
L 161.8431 206.19264 
L 161.5455 200.57472 
L 161.2479 200.8704 
L 160.9503 207.96672 
L 160.6527 203.23584 
L 160.3551 204.71424 
L 160.0575 204.41856 
L 159.7599 203.8272 
L 159.4623 207.96672 
L 159.1647 203.23584 
L 158.8671 200.8704 
L 158.5695 203.8272 
L 158.2719 202.3488 
L 157.9743 205.89696 
L 157.6767 197.32224 
L 157.3791 205.89696 
L 157.0815 203.53152 
L 156.7839 203.8272 
L 156.4863 200.8704 
L 156.1887 206.19264 
L 155.8911 205.00992 
L 155.5935 204.41856 
L 155.2959 199.68768 
L 154.9983 200.27904 
L 154.7007 202.3488 
L 154.4031 200.27904 
L 154.1055 201.16608 
L 153.8079 197.9136 
L 153.5103 202.94016 
L 153.2127 201.46176 
L 152.9151 205.00992 
L 152.6175 202.94016 
L 152.3199 205.89696 
L 152.0223 201.75744 
L 151.7247 207.67104 
L 151.4271 205.00992 
L 151.1295 201.75744 
L 150.8319 202.64448 
L 150.5343 206.48832 
L 150.2367 197.32224 
L 149.9391 201.75744 
L 149.6415 202.05312 
L 149.3439 206.19264 
L 149.0463 206.784 
L 148.7487 204.71424 
L 148.4511 206.19264 
L 148.1535 205.00992 
L 147.8559 205.3056 
L 147.5583 198.80064 
L 147.2607 203.23584 
L 146.9631 203.23584 
L 146.6655 203.53152 
L 146.3679 203.53152 
L 146.0703 203.23584 
L 145.7727 202.94016 
L 145.4751 204.41856 
L 145.1775 203.8272 
L 144.8799 203.53152 
L 144.5823 206.19264 
L 144.2847 206.48832 
L 143.9871 204.71424 
L 143.6895 202.64448 
L 143.3919 202.3488 
L 143.0943 204.41856 
L 142.7967 203.53152 
L 142.4991 204.41856 
L 142.2015 205.3056 
L 141.9039 205.3056 
L 141.6063 205.00992 
L 141.3087 203.53152 
L 141.0111 203.53152 
L 140.7135 204.12288 
L 140.4159 201.75744 
L 140.1183 204.41856 
L 139.8207 206.784 
L 139.5231 205.3056 
L 139.2255 206.48832 
L 138.9279 209.7408 
L 138.6303 201.16608 
L 138.3327 203.8272 
L 138.0351 204.12288 
L 137.7375 202.3488 
L 137.4399 201.75744 
L 137.1423 206.48832 
L 136.8447 208.2624 
L 136.5471 205.3056 
L 136.2495 209.14944 
L 135.9519 210.33216 
L 135.6543 205.3056 
L 135.3567 207.37536 
L 135.0591 205.00992 
L 134.7615 201.16608 
L 134.4639 205.89696 
L 134.1663 207.37536 
L 133.8687 202.64448 
L 133.5711 202.3488 
L 133.2735 203.23584 
L 132.9759 207.37536 
L 132.6783 203.23584 
L 132.3807 202.94016 
L 132.0831 207.37536 
L 131.7855 207.37536 
L 131.4879 203.53152 
L 131.1903 203.53152 
L 130.8927 205.00992 
L 130.5951 205.00992 
L 130.2975 204.12288 
L 129.9999 205.00992 
L 129.7023 206.19264 
L 129.4047 208.55808 
L 129.1071 207.07968 
L 128.8095 203.23584 
L 128.5119 205.60128 
L 128.2143 205.60128 
L 127.9167 206.48832 
L 127.6191 207.67104 
L 127.3215 206.784 
L 127.0239 206.48832 
L 126.7263 203.8272 
L 126.4287 206.19264 
L 126.1311 213.28896 
L 125.8335 206.784 
L 125.5359 205.00992 
L 125.2383 203.8272 
L 124.9407 204.41856 
L 124.6431 205.00992 
L 124.3455 205.00992 
L 124.0479 200.57472 
L 123.7503 204.41856 
L 123.4527 206.48832 
L 123.1551 204.41856 
L 122.8575 206.784 
L 122.5599 203.23584 
L 122.2623 205.00992 
L 121.9647 203.8272 
L 121.6671 210.03648 
L 121.3695 205.60128 
L 121.0719 209.44512 
L 120.7743 209.44512 
L 120.4767 208.55808 
L 120.1791 207.96672 
L 119.8815 211.81056 
L 119.5839 205.89696 
L 119.2863 214.76736 
L 118.9887 206.19264 
L 118.6911 206.48832 
L 118.3935 204.12288 
L 118.0959 217.72416 
L 117.7983 215.06304 
L 117.5007 210.03648 
L 117.2031 214.176 
L 116.9055 210.62784 
L 116.6079 208.2624 
L 116.3103 217.42848 
L 116.0127 208.55808 
L 115.7151 215.95008 
L 115.4175 213.28896 
L 115.1199 206.19264 
L 114.8223 208.85376 
L 114.5247 212.10624 
L 114.2271 210.33216 
L 113.9295 212.6976 
L 113.6319 208.85376 
L 113.3343 212.6976 
L 113.0367 212.10624 
L 112.7391 206.48832 
L 112.4415 212.10624 
L 112.1439 217.42848 
L 111.8463 207.37536 
L 111.5487 204.41856 
L 111.2511 215.95008 
L 110.9535 215.06304 
L 110.6559 220.38528 
L 110.3583 214.47168 
L 110.0607 215.6544 
L 109.7631 212.6976 
L 109.4655 209.44512 
L 109.1679 214.76736 
L 108.8703 210.92352 
L 108.5727 208.2624 
L 108.2751 211.81056 
L 107.9775 207.37536 
L 107.6799 215.6544 
L 107.3823 216.24576 
L 107.0847 212.10624 
L 106.7871 210.33216 
L 106.4895 210.92352 
L 106.1919 209.14944 
L 105.8943 212.10624 
L 105.5967 210.92352 
L 105.2991 209.7408 
L 105.0015 210.03648 
L 104.7039 207.37536 
L 104.4063 210.62784 
L 104.1087 217.42848 
L 103.8111 209.7408 
L 103.5135 215.06304 
L 103.2159 209.7408 
L 102.9183 211.81056 
L 102.6207 215.35872 
L 102.3231 213.58464 
L 102.0255 215.95008 
L 101.7279 214.47168 
L 101.4303 212.40192 
L 101.1327 215.6544 
L 100.8351 214.76736 
L 100.5375 216.83712 
L 100.2399 216.83712 
L 99.9423 214.176 
L 99.6447 217.72416 
L 99.3471 221.86368 
L 99.0495 223.63776 
L 98.7519 212.99328 
L 98.4543 216.83712 
L 98.1567 215.95008 
L 97.8591 215.35872 
L 97.5615 216.83712 
L 97.2639 215.95008 
L 96.9663 218.6112 
L 96.6687 216.24576 
L 96.3711 219.79392 
L 96.0735 215.35872 
L 95.7759 219.20256 
L 95.4783 216.54144 
L 95.1807 214.176 
L 94.8831 214.76736 
L 94.5855 218.6112 
L 94.2879 217.1328 
L 93.9903 220.0896 
L 93.6927 217.72416 
L 93.3951 217.72416 
L 93.0975 218.01984 
L 92.7999 220.97664 
L 92.5023 220.97664 
L 92.2047 218.31552 
L 91.9071 221.568 
L 91.6095 217.72416 
L 91.3119 219.20256 
L 91.0143 223.63776 
L 90.7167 218.90688 
L 90.4191 219.79392 
L 90.1215 222.45504 
L 89.8239 221.27232 
L 89.5263 224.82048 
L 89.2287 215.95008 
L 88.9311 217.72416 
L 88.6335 217.42848 
L 88.3359 222.15936 
L 88.0383 224.5248 
L 87.7407 221.27232 
L 87.4431 218.90688 
L 87.1455 219.79392 
L 86.8479 223.34208 
L 86.5503 223.93344 
L 86.2527 220.0896 
L 85.9551 225.11616 
L 85.6575 223.34208 
L 85.3599 226.59456 
L 85.0623 221.86368 
L 84.7647 223.34208 
L 84.4671 225.41184 
L 84.1695 215.06304 
L 83.8719 228.07296 
L 83.5743 220.68096 
L 83.2767 219.49824 
L 82.9791 226.0032 
L 82.6815 225.41184 
L 82.3839 222.45504 
L 82.0863 220.38528 
L 81.7887 227.18592 
L 81.4911 224.5248 
L 81.1935 225.70752 
L 80.8959 228.07296 
L 80.5983 224.82048 
L 80.3007 225.41184 
L 80.0031 220.97664 
L 79.7055 222.75072 
L 79.4079 222.45504 
L 79.1103 223.63776 
L 78.8127 226.89024 
L 78.5151 224.5248 
L 78.2175 224.22912 
L 77.9199 223.93344 
L 77.6223 223.0464 
L 77.3247 223.63776 
L 77.0271 222.75072 
L 76.7295 226.0032 
L 76.4319 221.86368 
L 76.1343 222.45504 
L 75.8367 223.34208 
L 75.5391 224.5248 
L 75.2415 224.82048 
L 74.9439 226.59456 
L 74.6463 224.5248 
L 74.3487 222.75072 
L 74.0511 223.34208 
L 73.7535 221.568 
L 73.4559 224.82048 
L 73.1583 223.0464 
L 72.8607 223.0464 
L 72.5631 224.82048 
L 72.2655 219.79392 
L 71.9679 222.75072 
L 71.6703 221.568 
L 71.3727 222.45504 
L 71.0751 222.15936 
L 70.7775 222.45504 
L 70.4799 223.0464 
L 70.1823 220.68096 
L 69.8847 225.11616 
L 69.5871 223.63776 
L 69.2895 223.63776 
L 68.9919 223.93344 
L 68.6943 224.22912 
L 68.3967 226.59456 
L 68.0991 225.70752 
L 67.8015 223.93344 
L 67.5039 222.75072 
L 67.2063 224.5248 
L 66.9087 221.27232 
L 66.6111 224.22912 
L 66.3135 222.75072 
L 66.0159 221.568 
L 65.7183 222.75072 
L 65.4207 224.22912 
L 65.1231 222.45504 
L 64.8255 219.79392 
L 64.5279 225.70752 
L 64.2303 222.45504 
L 63.9327 222.75072 
L 63.6351 221.86368 
L 63.3375 224.22912 
L 63.0399 222.15936 
L 62.7423 222.15936 
L 62.4447 223.0464 
L 62.1471 223.93344 
L 61.8495 222.45504 
L 61.5519 220.38528 
L 61.2543 223.34208 
L 60.9567 220.0896 
L 60.6591 222.45504 
L 60.3615 222.15936 
L 60.0639 222.45504 
L 59.7663 221.86368 
L 59.4687 224.22912 
L 59.1711 222.15936 
L 58.8735 222.45504 
L 58.5759 222.45504 
L 58.2783 221.568 
L 57.9807 221.27232 
L 57.6831 220.0896 
L 57.3855 220.97664 
L 57.0879 222.15936 
L 56.7903 223.34208 
L 56.4927 223.63776 
L 56.1951 221.27232 
L 55.8975 223.63776 
L 55.5999 220.97664 
L 55.3023 220.68096 
L 55.0047 219.79392 
L 54.7071 221.27232 
L 54.4095 223.34208 
L 54.1119 221.27232 
L 53.8143 222.75072 
L 53.5167 222.15936 
L 53.2191 221.27232 
L 52.9215 220.97664 
L 52.6239 222.15936 
L 52.3263 223.63776 
L 52.0287 222.75072 
L 51.7311 220.97664 
L 51.4335 221.86368 
L 51.1359 218.90688 
L 50.8383 221.27232 
L 50.5407 221.568 
L 50.2431 224.5248 
L 49.9455 224.22912 
L 49.6479 221.86368 
L 49.3503 222.15936 
L 49.0527 221.27232 
L 48.7551 221.568 
L 48.4575 222.45504 
L 48.1599 218.6112 
L 47.8623 221.86368 
L 47.5647 222.45504 
L 47.2671 220.68096 
L 46.9695 220.97664 
L 46.6719 220.68096 
L 46.3743 220.68096 
L 46.0767 221.568 
L 45.7791 221.86368 
L 45.4815 221.86368 
L 45.1839 221.27232 
L 44.8863 219.49824 
L 44.5887 221.568 
L 44.2911 222.15936 
L 43.9935 221.86368 
L 43.6959 221.568 
L 43.3983 221.27232 
L 43.1007 221.86368 
L 42.8031 223.0464 
L 42.5055 221.568 
z
" clip-path="url(#p3228b8c2d3)" style="fill: #440154; fill-opacity: 0.3"/>
   </g>
   <g id="matplotlib.axis_1">
    <g id="xtick_1">
     <g id="line2d_1">
      <defs>
       <path id="m53eb9e43c8" d="M 0 0 
L 0 3.5 
" style="stroke: #000000; stroke-width: 0.8"/>
      </defs>
      <g>
       <use xlink:href="#m53eb9e43c8" x="33.5775" y="228.96" style="stroke: #000000; stroke-width: 0.8"/>
      </g>
     </g>
     <g id="text_1">
      <text style="font: 6px 'DejaVu Sans', 'Bitstream Vera Sans', 'Computer Modern Sans Serif', 'Lucida Grande', 'Verdana', 'Geneva', 'Lucid', 'Arial', 'Helvetica', 'Avant Garde', sans-serif; text-anchor: middle" x="33.5775" y="240.519062" transform="rotate(-0 33.5775 240.519062)">0</text>
     </g>
    </g>
    <g id="xtick_2">
     <g id="line2d_2">
      <g>
       <use xlink:href="#m53eb9e43c8" x="69.2895" y="228.96" style="stroke: #000000; stroke-width: 0.8"/>
      </g>
     </g>
     <g id="text_2">
      <text style="font: 6px 'DejaVu Sans', 'Bitstream Vera Sans', 'Computer Modern Sans Serif', 'Lucida Grande', 'Verdana', 'Geneva', 'Lucid', 'Arial', 'Helvetica', 'Avant Garde', sans-serif; text-anchor: middle" x="69.2895" y="240.519062" transform="rotate(-0 69.2895 240.519062)">4</text>
     </g>
    </g>
    <g id="xtick_3">
     <g id="line2d_3">
      <g>
       <use xlink:href="#m53eb9e43c8" x="105.0015" y="228.96" style="stroke: #000000; stroke-width: 0.8"/>
      </g>
     </g>
     <g id="text_3">
      <text style="font: 6px 'DejaVu Sans', 'Bitstream Vera Sans', 'Computer Modern Sans Serif', 'Lucida Grande', 'Verdana', 'Geneva', 'Lucid', 'Arial', 'Helvetica', 'Avant Garde', sans-serif; text-anchor: middle" x="105.0015" y="240.519062" transform="rotate(-0 105.0015 240.519062)">8</text>
     </g>
    </g>
    <g id="xtick_4">
     <g id="line2d_4">
      <g>
       <use xlink:href="#m53eb9e43c8" x="140.7135" y="228.96" style="stroke: #000000; stroke-width: 0.8"/>
      </g>
     </g>
     <g id="text_4">
      <text style="font: 6px 'DejaVu Sans', 'Bitstream Vera Sans', 'Computer Modern Sans Serif', 'Lucida Grande', 'Verdana', 'Geneva', 'Lucid', 'Arial', 'Helvetica', 'Avant Garde', sans-serif; text-anchor: middle" x="140.7135" y="240.519062" transform="rotate(-0 140.7135 240.519062)">12</text>
     </g>
    </g>
    <g id="xtick_5">
     <g id="line2d_5">
      <g>
       <use xlink:href="#m53eb9e43c8" x="176.4255" y="228.96" style="stroke: #000000; stroke-width: 0.8"/>
      </g>
     </g>
     <g id="text_5">
      <text style="font: 6px 'DejaVu Sans', 'Bitstream Vera Sans', 'Computer Modern Sans Serif', 'Lucida Grande', 'Verdana', 'Geneva', 'Lucid', 'Arial', 'Helvetica', 'Avant Garde', sans-serif; text-anchor: middle" x="176.4255" y="240.519062" transform="rotate(-0 176.4255 240.519062)">16</text>
     </g>
    </g>
    <g id="xtick_6">
     <g id="line2d_6">
      <g>
       <use xlink:href="#m53eb9e43c8" x="212.1375" y="228.96" style="stroke: #000000; stroke-width: 0.8"/>
      </g>
     </g>
     <g id="text_6">
      <text style="font: 6px 'DejaVu Sans', 'Bitstream Vera Sans', 'Computer Modern Sans Serif', 'Lucida Grande', 'Verdana', 'Geneva', 'Lucid', 'Arial', 'Helvetica', 'Avant Garde', sans-serif; text-anchor: middle" x="212.1375" y="240.519062" transform="rotate(-0 212.1375 240.519062)">20</text>
     </g>
    </g>
    <g id="xtick_7">
     <g id="line2d_7">
      <g>
       <use xlink:href="#m53eb9e43c8" x="247.8495" y="228.96" style="stroke: #000000; stroke-width: 0.8"/>
      </g>
     </g>
     <g id="text_7">
      <text style="font: 6px 'DejaVu Sans', 'Bitstream Vera Sans', 'Computer Modern Sans Serif', 'Lucida Grande', 'Verdana', 'Geneva', 'Lucid', 'Arial', 'Helvetica', 'Avant Garde', sans-serif; text-anchor: middle" x="247.8495" y="240.519062" transform="rotate(-0 247.8495 240.519062)">24</text>
     </g>
    </g>
    <g id="text_8">
     <text style="font: 8px 'DejaVu Sans', 'Bitstream Vera Sans', 'Computer Modern Sans Serif', 'Lucida Grande', 'Verdana', 'Geneva', 'Lucid', 'Arial', 'Helvetica', 'Avant Garde', sans-serif; text-anchor: middle" x="145.1775" y="251.845625" transform="rotate(-0 145.1775 251.845625)">Experimental time (hpf)</text>
    </g>
   </g>
   <g id="matplotlib.axis_2">
    <g id="ytick_1">
     <g id="line2d_8">
      <defs>
       <path id="mc6bc5f2493" d="M 0 0 
L -3.5 0 
" style="stroke: #000000; stroke-width: 0.8"/>
      </defs>
      <g>
       <use xlink:href="#mc6bc5f2493" x="33.5775" y="228.96" style="stroke: #000000; stroke-width: 0.8"/>
      </g>
     </g>
     <g id="text_9">
      <text style="font: 6px 'DejaVu Sans', 'Bitstream Vera Sans', 'Computer Modern Sans Serif', 'Lucida Grande', 'Verdana', 'Geneva', 'Lucid', 'Arial', 'Helvetica', 'Avant Garde', sans-serif; text-anchor: end" x="26.5775" y="231.239531" transform="rotate(-0 26.5775 231.239531)">0</text>
     </g>
    </g>
    <g id="ytick_2">
     <g id="line2d_9">
      <g>
       <use xlink:href="#mc6bc5f2493" x="33.5775" y="193.4784" style="stroke: #000000; stroke-width: 0.8"/>
      </g>
     </g>
     <g id="text_10">
      <text style="font: 6px 'DejaVu Sans', 'Bitstream Vera Sans', 'Computer Modern Sans Serif', 'Lucida Grande', 'Verdana', 'Geneva', 'Lucid', 'Arial', 'Helvetica', 'Avant Garde', sans-serif; text-anchor: end" x="26.5775" y="195.757931" transform="rotate(-0 26.5775 195.757931)">4</text>
     </g>
    </g>
    <g id="ytick_3">
     <g id="line2d_10">
      <g>
       <use xlink:href="#mc6bc5f2493" x="33.5775" y="157.9968" style="stroke: #000000; stroke-width: 0.8"/>
      </g>
     </g>
     <g id="text_11">
      <text style="font: 6px 'DejaVu Sans', 'Bitstream Vera Sans', 'Computer Modern Sans Serif', 'Lucida Grande', 'Verdana', 'Geneva', 'Lucid', 'Arial', 'Helvetica', 'Avant Garde', sans-serif; text-anchor: end" x="26.5775" y="160.276331" transform="rotate(-0 26.5775 160.276331)">8</text>
     </g>
    </g>
    <g id="ytick_4">
     <g id="line2d_11">
      <g>
       <use xlink:href="#mc6bc5f2493" x="33.5775" y="122.5152" style="stroke: #000000; stroke-width: 0.8"/>
      </g>
     </g>
     <g id="text_12">
      <text style="font: 6px 'DejaVu Sans', 'Bitstream Vera Sans', 'Computer Modern Sans Serif', 'Lucida Grande', 'Verdana', 'Geneva', 'Lucid', 'Arial', 'Helvetica', 'Avant Garde', sans-serif; text-anchor: end" x="26.5775" y="124.794731" transform="rotate(-0 26.5775 124.794731)">12</text>
     </g>
    </g>
    <g id="ytick_5">
     <g id="line2d_12">
      <g>
       <use xlink:href="#mc6bc5f2493" x="33.5775" y="87.0336" style="stroke: #000000; stroke-width: 0.8"/>
      </g>
     </g>
     <g id="text_13">
      <text style="font: 6px 'DejaVu Sans', 'Bitstream Vera Sans', 'Computer Modern Sans Serif', 'Lucida Grande', 'Verdana', 'Geneva', 'Lucid', 'Arial', 'Helvetica', 'Avant Garde', sans-serif; text-anchor: end" x="26.5775" y="89.313131" transform="rotate(-0 26.5775 89.313131)">16</text>
     </g>
    </g>
    <g id="ytick_6">
     <g id="line2d_13">
      <g>
       <use xlink:href="#mc6bc5f2493" x="33.5775" y="51.552" style="stroke: #000000; stroke-width: 0.8"/>
      </g>
     </g>
     <g id="text_14">
      <text style="font: 6px 'DejaVu Sans', 'Bitstream Vera Sans', 'Computer Modern Sans Serif', 'Lucida Grande', 'Verdana', 'Geneva', 'Lucid', 'Arial', 'Helvetica', 'Avant Garde', sans-serif; text-anchor: end" x="26.5775" y="53.831531" transform="rotate(-0 26.5775 53.831531)">20</text>
     </g>
    </g>
    <g id="ytick_7">
     <g id="line2d_14">
      <g>
       <use xlink:href="#mc6bc5f2493" x="33.5775" y="16.0704" style="stroke: #000000; stroke-width: 0.8"/>
      </g>
     </g>
     <g id="text_15">
      <text style="font: 6px 'DejaVu Sans', 'Bitstream Vera Sans', 'Computer Modern Sans Serif', 'Lucida Grande', 'Verdana', 'Geneva', 'Lucid', 'Arial', 'Helvetica', 'Avant Garde', sans-serif; text-anchor: end" x="26.5775" y="18.349931" transform="rotate(-0 26.5775 18.349931)">24</text>
     </g>
    </g>
    <g id="text_16">
     <text style="font: 8px 'DejaVu Sans', 'Bitstream Vera Sans', 'Computer Modern Sans Serif', 'Lucida Grande', 'Verdana', 'Geneva', 'Lucid', 'Arial', 'Helvetica', 'Avant Garde', sans-serif; text-anchor: middle" x="13.27875" y="118.08" transform="rotate(-90 13.27875 118.08)">Developmental age (hpf)</text>
    </g>
   </g>
   <g id="line2d_15">
    <path d="M 42.5055 220.0896 
L 256.7775 151.513346 
L 256.7775 151.513346 
" clip-path="url(#p3228b8c2d3)" style="fill: none; stroke: #440154; stroke-linecap: square"/>
   </g>
   <g id="line2d_16">
    <path d="M 42.5055 220.0896 
L 256.7775 162.111338 
L 256.7775 162.111338 
" clip-path="url(#p3228b8c2d3)" style="fill: none; stroke-dasharray: 3.7,1.6; stroke-dashoffset: 0; stroke: #440154"/>
   </g>
   <g id="line2d_17">
    <path d="M 42.5055 220.0896 
L 256.7775 139.622496 
L 256.7775 139.622496 
" clip-path="url(#p3228b8c2d3)" style="fill: none; stroke-dasharray: 3.7,1.6; stroke-dashoffset: 0; stroke: #440154"/>
   </g>
   <g id="patch_3">
    <path d="M 33.5775 228.96 
L 33.5775 7.2 
" style="fill: none; stroke: #000000; stroke-width: 0.8; stroke-linejoin: miter; stroke-linecap: square"/>
   </g>
   <g id="patch_4">
    <path d="M 33.5775 228.96 
L 256.7775 228.96 
" style="fill: none; stroke: #000000; stroke-width: 0.8; stroke-linejoin: miter; stroke-linecap: square"/>
   </g>
   <g id="legend_1">
    <g id="patch_5">
     <path d="M 93.656011 28.829269 
L 252.7245 28.829269 
Q 253.8825 28.829269 253.8825 27.671269 
L 253.8825 11.253 
Q 253.8825 10.095 252.7245 10.095 
L 93.656011 10.095 
Q 92.498011 10.095 92.498011 11.253 
L 92.498011 27.671269 
Q 92.498011 28.829269 93.656011 28.829269 
z
" style="fill: #ffffff; opacity: 0.8; stroke: #cccccc; stroke-linejoin: miter"/>
    </g>
    <g id="line2d_18">
     <path d="M 94.814011 14.783995 
L 100.604011 14.783995 
L 106.394011 14.783995 
" style="fill: none; stroke: #440154; stroke-linecap: square"/>
    </g>
    <g id="text_17">
     <text style="font: 5.79px 'DejaVu Sans', 'Bitstream Vera Sans', 'Computer Modern Sans Serif', 'Lucida Grande', 'Verdana', 'Geneva', 'Lucid', 'Arial', 'Helvetica', 'Avant Garde', sans-serif; text-anchor: start" x="111.026011" y="16.810495" transform="rotate(-0 111.026011 16.810495)">Linear fit: slope=0.323 [0.272,0.378], R2=0.798</text>
    </g>
    <g id="patch_6">
     <path d="M 94.814011 25.30913 
L 106.394011 25.30913 
L 106.394011 21.25613 
L 94.814011 21.25613 
z
" style="fill: #440154; fill-opacity: 0.3"/>
    </g>
    <g id="text_18">
     <text style="font: 5.79px 'DejaVu Sans', 'Bitstream Vera Sans', 'Computer Modern Sans Serif', 'Lucida Grande', 'Verdana', 'Geneva', 'Lucid', 'Arial', 'Helvetica', 'Avant Garde', sans-serif; text-anchor: start" x="111.026011" y="25.30913" transform="rotate(-0 111.026011 25.30913)">Median:18.0C</text>
    </g>
   </g>
  </g>
 </g>
 <defs>
  <clipPath id="p3228b8c2d3">
   <rect x="33.5775" y="7.2" width="223.2" height="221.76"/>
  </clipPath>
 </defs>
</svg>
