<?xml version="1.0" encoding="utf-8" standalone="no"?>
<!DOCTYPE svg PUBLIC "-//W3C//DTD SVG 1.1//EN"
  "http://www.w3.org/Graphics/SVG/1.1/DTD/svg11.dtd">
<svg xmlns:xlink="http://www.w3.org/1999/xlink" width="263.9775pt" height="260.709375pt" viewBox="0 0 263.9775 260.709375" xmlns="http://www.w3.org/2000/svg" version="1.1">
 <metadata>
  <rdf:RDF xmlns:dc="http://purl.org/dc/elements/1.1/" xmlns:cc="http://creativecommons.org/ns#" xmlns:rdf="http://www.w3.org/1999/02/22-rdf-syntax-ns#">
   <cc:Work>
    <dc:type rdf:resource="http://purl.org/dc/dcmitype/StillImage"/>
    <dc:date>2023-07-28T13:02:37.450882</dc:date>
    <dc:format>image/svg+xml</dc:format>
    <dc:creator>
     <cc:Agent>
      <dc:title>Matplotlib v3.7.0, https://matplotlib.org/</dc:title>
     </cc:Agent>
    </dc:creator>
   </cc:Work>
  </rdf:RDF>
 </metadata>
 <defs>
  <style type="text/css">*{stroke-linejoin: round; stroke-linecap: butt}</style>
 </defs>
 <g id="figure_1">
  <g id="patch_1">
   <path d="M 0 260.709375 
L 263.9775 260.709375 
L 263.9775 0 
L 0 0 
z
" style="fill: #ffffff"/>
  </g>
  <g id="axes_1">
   <g id="patch_2">
    <path d="M 33.5775 228.96 
L 256.7775 228.96 
L 256.7775 7.2 
L 33.5775 7.2 
z
" style="fill: #ffffff"/>
   </g>
   <g id="PolyCollection_1">
    <path d="M 42.5055 225.70752 
L 42.5055 197.32224 
L 42.8031 199.68768 
L 43.1007 196.13952 
L 43.3983 199.09632 
L 43.6959 199.09632 
L 43.9935 198.20928 
L 44.2911 201.75744 
L 44.5887 193.77408 
L 44.8863 197.9136 
L 45.1839 199.09632 
L 45.4815 188.45184 
L 45.7791 188.15616 
L 46.0767 183.1296 
L 46.3743 198.50496 
L 46.6719 193.77408 
L 46.9695 186.67776 
L 47.2671 183.1296 
L 47.5647 184.01664 
L 47.8623 186.67776 
L 48.1599 176.92032 
L 48.4575 175.7376 
L 48.7551 179.87712 
L 49.0527 183.1296 
L 49.3503 173.37216 
L 49.6479 179.87712 
L 49.9455 165.3888 
L 50.2431 162.72768 
L 50.5407 167.16288 
L 50.8383 157.10976 
L 51.1359 170.71104 
L 51.4335 163.61472 
L 51.7311 162.72768 
L 52.0287 162.72768 
L 52.3263 164.50176 
L 52.6239 143.80416 
L 52.9215 161.54496 
L 53.2191 144.09984 
L 53.5167 151.78752 
L 53.8143 142.62144 
L 54.1119 156.5184 
L 54.4095 179.28576 
L 54.7071 157.9968 
L 55.0047 159.77088 
L 55.3023 151.49184 
L 55.5999 162.72768 
L 55.8975 154.15296 
L 56.1951 152.67456 
L 56.4927 162.72768 
L 56.7903 165.09312 
L 57.0879 161.54496 
L 57.3855 164.20608 
L 57.6831 166.27584 
L 57.9807 150.30912 
L 58.2783 163.61472 
L 58.5759 168.93696 
L 58.8735 159.4752 
L 59.1711 160.06656 
L 59.4687 173.66784 
L 59.7663 166.27584 
L 60.0639 164.50176 
L 60.3615 160.36224 
L 60.6591 156.22272 
L 60.9567 152.0832 
L 61.2543 165.68448 
L 61.5519 150.6048 
L 61.8495 157.40544 
L 62.1471 160.36224 
L 62.4447 152.97024 
L 62.7423 163.61472 
L 63.0399 150.30912 
L 63.3375 169.52832 
L 63.6351 161.84064 
L 63.9327 150.6048 
L 64.2303 156.22272 
L 64.5279 153.85728 
L 64.8255 160.06656 
L 65.1231 162.72768 
L 65.4207 161.54496 
L 65.7183 165.09312 
L 66.0159 158.88384 
L 66.3135 148.23936 
L 66.6111 138.48192 
L 66.9087 143.80416 
L 67.2063 152.67456 
L 67.5039 164.50176 
L 67.8015 150.6048 
L 68.0991 152.97024 
L 68.3967 154.15296 
L 68.6943 132.56832 
L 68.9919 156.5184 
L 69.2895 146.1696 
L 69.5871 137.59488 
L 69.8847 157.40544 
L 70.1823 156.81408 
L 70.4799 146.46528 
L 70.7775 155.63136 
L 71.0751 147.35232 
L 71.3727 152.0832 
L 71.6703 155.63136 
L 71.9679 157.10976 
L 72.2655 155.33568 
L 72.5631 154.74432 
L 72.8607 154.15296 
L 73.1583 156.81408 
L 73.4559 144.6912 
L 73.7535 144.39552 
L 74.0511 143.80416 
L 74.3487 147.05664 
L 74.6463 154.74432 
L 74.9439 146.1696 
L 75.2415 141.43872 
L 75.5391 153.5616 
L 75.8367 140.256 
L 76.1343 145.57824 
L 76.4319 152.97024 
L 76.7295 137.59488 
L 77.0271 137.00352 
L 77.3247 127.83744 
L 77.6223 138.48192 
L 77.9199 133.75104 
L 78.2175 125.76768 
L 78.5151 141.43872 
L 78.8127 139.07328 
L 79.1103 141.43872 
L 79.4079 144.39552 
L 79.7055 131.68128 
L 80.0031 136.11648 
L 80.3007 129.02016 
L 80.5983 132.864 
L 80.8959 141.7344 
L 81.1935 129.31584 
L 81.4911 130.49856 
L 81.7887 147.05664 
L 82.0863 136.41216 
L 82.3839 141.7344 
L 82.6815 137.59488 
L 82.9791 140.84736 
L 83.2767 134.63808 
L 83.5743 131.08992 
L 83.8719 134.93376 
L 84.1695 130.79424 
L 84.4671 132.864 
L 84.7647 146.46528 
L 85.0623 129.31584 
L 85.3599 133.45536 
L 85.6575 137.59488 
L 85.9551 133.15968 
L 86.2527 130.20288 
L 86.5503 125.76768 
L 86.8479 132.56832 
L 87.1455 136.11648 
L 87.4431 137.59488 
L 87.7407 140.55168 
L 88.0383 135.8208 
L 88.3359 137.89056 
L 88.6335 137.2992 
L 88.9311 134.3424 
L 89.2287 138.18624 
L 89.5263 133.75104 
L 89.8239 135.22944 
L 90.1215 136.70784 
L 90.4191 137.59488 
L 90.7167 139.36896 
L 91.0143 137.89056 
L 91.3119 140.55168 
L 91.6095 141.43872 
L 91.9071 143.80416 
L 92.2047 142.91712 
L 92.5023 134.93376 
L 92.7999 141.43872 
L 93.0975 142.32576 
L 93.3951 148.23936 
L 93.6927 138.48192 
L 93.9903 138.48192 
L 94.2879 136.70784 
L 94.5855 143.2128 
L 94.8831 140.256 
L 95.1807 145.28256 
L 95.4783 140.84736 
L 95.7759 142.62144 
L 96.0735 140.256 
L 96.3711 137.2992 
L 96.6687 134.3424 
L 96.9663 139.96032 
L 97.2639 140.256 
L 97.5615 137.2992 
L 97.8591 140.55168 
L 98.1567 136.11648 
L 98.4543 134.04672 
L 98.7519 141.7344 
L 99.0495 137.89056 
L 99.3471 136.11648 
L 99.6447 140.55168 
L 99.9423 144.09984 
L 100.2399 142.32576 
L 100.5375 138.48192 
L 100.8351 136.41216 
L 101.1327 139.36896 
L 101.4303 135.8208 
L 101.7279 137.89056 
L 102.0255 138.48192 
L 102.3231 140.55168 
L 102.6207 137.59488 
L 102.9183 136.41216 
L 103.2159 135.52512 
L 103.5135 141.7344 
L 103.8111 139.07328 
L 104.1087 135.8208 
L 104.4063 139.96032 
L 104.7039 148.23936 
L 105.0015 137.2992 
L 105.2991 138.48192 
L 105.5967 134.04672 
L 105.8943 134.3424 
L 106.1919 136.11648 
L 106.4895 139.96032 
L 106.7871 135.22944 
L 107.0847 134.63808 
L 107.3823 135.8208 
L 107.6799 134.04672 
L 107.9775 133.75104 
L 108.2751 134.93376 
L 108.5727 131.97696 
L 108.8703 128.72448 
L 109.1679 129.31584 
L 109.4655 137.2992 
L 109.7631 134.04672 
L 110.0607 131.3856 
L 110.3583 128.4288 
L 110.6559 120.74112 
L 110.9535 132.27264 
L 111.2511 128.4288 
L 111.5487 129.61152 
L 111.8463 129.9072 
L 112.1439 123.10656 
L 112.4415 126.9504 
L 112.7391 124.58496 
L 113.0367 130.49856 
L 113.3343 124.28928 
L 113.6319 123.10656 
L 113.9295 119.26272 
L 114.2271 116.30592 
L 114.5247 118.37568 
L 114.8223 115.1232 
L 115.1199 114.53184 
L 115.4175 118.08 
L 115.7151 113.34912 
L 116.0127 124.28928 
L 116.3103 113.05344 
L 116.6079 116.6016 
L 116.9055 117.19296 
L 117.2031 101.22624 
L 117.5007 110.09664 
L 117.7983 113.34912 
L 118.0959 114.23616 
L 118.3935 97.08672 
L 118.6911 114.53184 
L 118.9887 100.63488 
L 119.2863 94.72128 
L 119.5839 97.67808 
L 119.8815 97.67808 
L 120.1791 108.02688 
L 120.4767 97.97376 
L 120.7743 99.45216 
L 121.0719 98.26944 
L 121.3695 105.95712 
L 121.6671 105.95712 
L 121.9647 99.74784 
L 122.2623 100.63488 
L 122.5599 107.7312 
L 122.8575 90.58176 
L 123.1551 75.50208 
L 123.4527 72.84096 
L 123.7503 83.78112 
L 124.0479 89.39904 
L 124.3455 77.86752 
L 124.6431 88.80768 
L 124.9407 91.4688 
L 125.2383 72.84096 
L 125.5359 89.39904 
L 125.8335 88.80768 
L 126.1311 74.61504 
L 126.4287 69.2928 
L 126.7263 80.23296 
L 127.0239 79.34592 
L 127.3215 90.87744 
L 127.6191 84.37248 
L 127.9167 74.61504 
L 128.2143 81.41568 
L 128.5119 67.8144 
L 128.8095 26.12352 
L 129.1071 69.88416 
L 129.4047 68.70144 
L 129.7023 71.06688 
L 129.9999 49.18656 
L 130.2975 74.02368 
L 130.5951 40.61184 
L 130.8927 76.38912 
L 131.1903 36.768 
L 131.4879 71.95392 
L 131.7855 48.89088 
L 132.0831 49.48224 
L 132.3807 84.37248 
L 132.6783 42.97728 
L 132.9759 47.41248 
L 133.2735 64.26624 
L 133.5711 47.1168 
L 133.8687 86.44224 
L 134.1663 60.71808 
L 134.4639 36.17664 
L 134.7615 53.32608 
L 135.0591 17.84448 
L 135.3567 59.23968 
L 135.6543 53.91744 
L 135.9519 73.13664 
L 136.2495 45.6384 
L 136.5471 59.83104 
L 136.8447 76.38912 
L 137.1423 79.05024 
L 137.4399 50.36928 
L 137.7375 59.53536 
L 138.0351 59.83104 
L 138.3327 64.26624 
L 138.6303 52.43904 
L 138.9279 92.65152 
L 139.2255 61.30944 
L 139.5231 44.45568 
L 139.8207 74.61504 
L 140.1183 59.23968 
L 140.4159 59.83104 
L 140.7135 53.91744 
L 141.0111 43.56864 
L 141.3087 63.67488 
L 141.6063 68.11008 
L 141.9039 64.26624 
L 142.2015 52.73472 
L 142.4991 66.336 
L 142.7967 51.552 
L 143.0943 55.69152 
L 143.3919 70.7712 
L 143.6895 74.02368 
L 143.9871 72.84096 
L 144.2847 61.30944 
L 144.5823 62.78784 
L 144.8799 52.14336 
L 145.1775 69.88416 
L 145.4751 33.21984 
L 145.7727 51.25632 
L 146.0703 57.76128 
L 146.3679 68.70144 
L 146.6655 54.80448 
L 146.9631 66.92736 
L 147.2607 58.35264 
L 147.5583 66.63168 
L 147.8559 56.57856 
L 148.1535 55.69152 
L 148.4511 50.66496 
L 148.7487 64.56192 
L 149.0463 48.89088 
L 149.3439 36.47232 
L 149.6415 55.69152 
L 149.9391 56.87424 
L 150.2367 60.71808 
L 150.5343 44.45568 
L 150.8319 47.70816 
L 151.1295 74.61504 
L 151.4271 52.14336 
L 151.7247 41.79456 
L 152.0223 29.08032 
L 152.3199 54.5088 
L 152.6175 62.78784 
L 152.9151 55.10016 
L 153.2127 59.53536 
L 153.5103 64.26624 
L 153.8079 62.78784 
L 154.1055 49.77792 
L 154.4031 43.27296 
L 154.7007 55.10016 
L 154.9983 55.69152 
L 155.2959 38.2464 
L 155.5935 48.00384 
L 155.8911 40.31616 
L 156.1887 68.40576 
L 156.4863 65.74464 
L 156.7839 53.91744 
L 157.0815 57.16992 
L 157.3791 47.70816 
L 157.6767 44.75136 
L 157.9743 27.30624 
L 158.2719 50.96064 
L 158.5695 50.0736 
L 158.8671 45.04704 
L 159.1647 54.5088 
L 159.4623 28.48896 
L 159.7599 53.0304 
L 160.0575 58.05696 
L 160.3551 64.56192 
L 160.6527 56.57856 
L 160.9503 48.29952 
L 161.2479 49.18656 
L 161.5455 47.1168 
L 161.8431 51.552 
L 162.1407 31.15008 
L 162.4383 49.77792 
L 162.7359 37.65504 
L 163.0335 46.22976 
L 163.3311 56.87424 
L 163.6287 59.83104 
L 163.9263 55.39584 
L 164.2239 42.6816 
L 164.5215 49.77792 
L 164.8191 53.91744 
L 165.1167 55.39584 
L 165.4143 55.10016 
L 165.7119 52.73472 
L 166.0095 59.83104 
L 166.3071 42.09024 
L 166.6047 68.40576 
L 166.9023 58.35264 
L 167.1999 57.16992 
L 167.4975 66.336 
L 167.7951 51.84768 
L 168.0927 52.14336 
L 168.3903 45.34272 
L 168.6879 48.89088 
L 168.9855 55.9872 
L 169.2831 66.63168 
L 169.5807 59.83104 
L 169.8783 62.19648 
L 170.1759 46.22976 
L 170.4735 30.26304 
L 170.7711 37.35936 
L 171.0687 53.91744 
L 171.3663 63.97056 
L 171.6639 71.65824 
L 171.9615 49.18656 
L 172.2591 46.52544 
L 172.5567 66.04032 
L 172.8543 54.5088 
L 173.1519 39.7248 
L 173.4495 42.6816 
L 173.7471 62.78784 
L 174.0447 59.83104 
L 174.3423 28.78464 
L 174.6399 51.25632 
L 174.9375 27.30624 
L 175.2351 44.75136 
L 175.5327 31.15008 
L 175.8303 32.3328 
L 176.1279 50.96064 
L 176.4255 29.08032 
L 176.7231 26.12352 
L 177.0207 30.55872 
L 177.3183 40.31616 
L 177.6159 38.2464 
L 177.9135 32.92416 
L 178.2111 40.02048 
L 178.5087 42.38592 
L 178.8063 44.45568 
L 179.1039 40.61184 
L 179.4015 43.86432 
L 179.6991 34.69824 
L 179.9967 47.1168 
L 180.2943 55.10016 
L 180.5919 58.944 
L 180.8895 34.40256 
L 181.1871 41.79456 
L 181.4847 33.51552 
L 181.7823 41.49888 
L 182.0799 33.51552 
L 182.3775 19.91424 
L 182.6751 29.67168 
L 182.9727 29.08032 
L 183.2703 31.74144 
L 183.5679 26.12352 
L 183.8655 14.592 
L 184.1631 24.64512 
L 184.4607 24.64512 
L 184.7583 27.30624 
L 185.0559 29.96736 
L 185.3535 32.3328 
L 185.6511 28.19328 
L 185.9487 8.08704 
L 186.2463 7.49568 
L 186.5439 11.04384 
L 186.8415 20.20992 
L 187.1391 23.4624 
L 187.4367 15.18336 
L 187.7343 39.13344 
L 188.0319 20.5056 
L 188.3295 15.18336 
L 188.6271 24.64512 
L 188.9247 7.49568 
L 189.2223 14.00064 
L 189.5199 10.1568 
L 189.8175 37.35936 
L 190.1151 13.70496 
L 190.4127 27.30624 
L 190.7103 22.57536 
L 191.0079 15.18336 
L 191.3055 11.6352 
L 191.6031 15.77472 
L 191.9007 21.68832 
L 192.1983 4.83456 
L 192.4959 19.32288 
L 192.7935 5.7216 
L 193.0911 -0.192 
L 193.3887 11.93088 
L 193.6863 19.0272 
L 193.9839 -4.03584 
L 194.2815 5.7216 
L 194.5791 18.73152 
L 194.8767 9.86112 
L 195.1743 -6.69696 
L 195.4719 5.42592 
L 195.7695 24.9408 
L 196.0671 -10.83648 
L 196.3647 7.2 
L 196.6623 0.10368 
L 196.9599 1.87776 
L 197.2575 -10.24512 
L 197.5551 1.87776 
L 197.8527 13.40928 
L 198.1503 12.52224 
L 198.4479 4.53888 
L 198.7455 -11.72352 
L 199.0431 11.33952 
L 199.3407 -22.66368 
L 199.6383 2.7648 
L 199.9359 -18.81984 
L 200.2335 15.47904 
L 200.5311 5.42592 
L 200.8287 3.94752 
L 201.1263 -3.74016 
L 201.4239 -5.21856 
L 201.7215 -4.33152 
L 202.0191 5.13024 
L 202.3167 2.17344 
L 202.6143 -1.37472 
L 202.9119 14.88768 
L 203.2095 10.1568 
L 203.5071 1.58208 
L 203.8047 -4.92288 
L 204.1023 16.36608 
L 204.3999 14.592 
L 204.6975 -2.26176 
L 204.9951 4.83456 
L 205.2927 -0.48768 
L 205.5903 -0.192 
L 205.8879 0.69504 
L 206.1855 10.74816 
L 206.4831 9.56544 
L 206.7807 11.04384 
L 207.0783 11.04384 
L 207.3759 12.81792 
L 207.6735 4.83456 
L 207.9711 1.58208 
L 208.2687 4.83456 
L 208.5663 9.26976 
L 208.8639 3.94752 
L 209.1615 -8.47104 
L 209.4591 13.40928 
L 209.7567 -2.85312 
L 210.0543 16.0704 
L 210.3519 16.36608 
L 210.6495 1.87776 
L 210.9471 16.0704 
L 211.2447 2.17344 
L 211.5423 -20.8896 
L 211.8399 13.40928 
L 212.1375 0.10368 
L 212.4351 -24.43776 
L 212.7327 -10.5408 
L 213.0303 -2.26176 
L 213.3279 -1.37472 
L 213.6255 -8.76672 
L 213.9231 -1.37472 
L 214.2207 8.08704 
L 214.5183 0.10368 
L 214.8159 -4.6272 
L 215.1135 1.2864 
L 215.4111 -3.44448 
L 215.7087 6.60864 
L 216.0063 -5.51424 
L 216.3039 -18.22848 
L 216.6015 -0.192 
L 216.8991 -1.6704 
L 217.1967 6.01728 
L 217.4943 12.52224 
L 217.7919 -2.85312 
L 218.0895 10.45248 
L 218.3871 0.99072 
L 218.6847 8.6784 
L 218.9823 1.2864 
L 219.2799 15.77472 
L 219.5775 -14.68032 
L 219.8751 -3.44448 
L 220.1727 4.53888 
L 220.4703 6.60864 
L 220.7679 -1.07904 
L 221.0655 -19.11552 
L 221.3631 -19.11552 
L 221.6607 8.08704 
L 221.9583 -10.24512 
L 222.2559 -7.87968 
L 222.5535 0.99072 
L 222.8511 5.7216 
L 223.1487 -14.08896 
L 223.4463 -6.40128 
L 223.7439 -5.21856 
L 223.7439 105.95712 
L 223.7439 105.95712 
L 223.4463 90.58176 
L 223.1487 129.02016 
L 222.8511 92.06016 
L 222.5535 80.23296 
L 222.2559 89.10336 
L 221.9583 99.74784 
L 221.6607 81.41568 
L 221.3631 125.17632 
L 221.0655 142.91712 
L 220.7679 119.5584 
L 220.4703 95.31264 
L 220.1727 92.06016 
L 219.8751 95.904 
L 219.5775 110.688 
L 219.2799 73.728 
L 218.9823 79.34592 
L 218.6847 67.8144 
L 218.3871 75.50208 
L 218.0895 70.7712 
L 217.7919 81.12 
L 217.4943 68.11008 
L 217.1967 86.44224 
L 216.8991 89.39904 
L 216.6015 88.512 
L 216.3039 129.61152 
L 216.0063 92.65152 
L 215.7087 76.38912 
L 215.4111 86.44224 
L 215.1135 84.0768 
L 214.8159 99.45216 
L 214.5183 97.08672 
L 214.2207 60.12672 
L 213.9231 89.69472 
L 213.6255 97.67808 
L 213.3279 103.88736 
L 213.0303 99.45216 
L 212.7327 108.91392 
L 212.4351 126.9504 
L 212.1375 89.9904 
L 211.8399 74.91072 
L 211.5423 136.41216 
L 211.2447 103.88736 
L 210.9471 71.65824 
L 210.6495 88.21632 
L 210.3519 67.22304 
L 210.0543 71.65824 
L 209.7567 89.39904 
L 209.4591 86.73792 
L 209.1615 114.53184 
L 208.8639 98.56512 
L 208.5663 90.87744 
L 208.2687 92.35584 
L 207.9711 90.28608 
L 207.6735 82.89408 
L 207.3759 75.50208 
L 207.0783 66.63168 
L 206.7807 89.10336 
L 206.4831 85.25952 
L 206.1855 69.88416 
L 205.8879 90.58176 
L 205.5903 103.88736 
L 205.2927 109.50528 
L 204.9951 104.18304 
L 204.6975 106.54848 
L 204.3999 83.18976 
L 204.1023 87.32928 
L 203.8047 105.07008 
L 203.5071 99.74784 
L 203.2095 96.49536 
L 202.9119 77.57184 
L 202.6143 115.71456 
L 202.3167 93.24288 
L 202.0191 82.00704 
L 201.7215 110.39232 
L 201.4239 124.88064 
L 201.1263 118.08 
L 200.8287 111.57504 
L 200.5311 102.40896 
L 200.2335 104.18304 
L 199.9359 124.28928 
L 199.6383 124.58496 
L 199.3407 142.91712 
L 199.0431 95.31264 
L 198.7455 132.56832 
L 198.4479 108.61824 
L 198.1503 108.32256 
L 197.8527 98.56512 
L 197.5551 109.50528 
L 197.2575 136.41216 
L 196.9599 115.41888 
L 196.6623 119.5584 
L 196.3647 123.10656 
L 196.0671 132.27264 
L 195.7695 94.72128 
L 195.4719 171.00672 
L 195.1743 143.50848 
L 194.8767 155.33568 
L 194.5791 105.07008 
L 194.2815 137.00352 
L 193.9839 150.90048 
L 193.6863 133.75104 
L 193.3887 133.75104 
L 193.0911 120.44544 
L 192.7935 159.4752 
L 192.4959 125.76768 
L 192.1983 124.28928 
L 191.9007 129.31584 
L 191.6031 130.49856 
L 191.3055 118.08 
L 191.0079 97.97376 
L 190.7103 136.11648 
L 190.4127 129.02016 
L 190.1151 139.07328 
L 189.8175 109.50528 
L 189.5199 157.9968 
L 189.2223 137.00352 
L 188.9247 132.864 
L 188.6271 126.35904 
L 188.3295 154.74432 
L 188.0319 130.49856 
L 187.7343 157.40544 
L 187.4367 150.01344 
L 187.1391 126.35904 
L 186.8415 133.75104 
L 186.5439 143.50848 
L 186.2463 132.864 
L 185.9487 137.00352 
L 185.6511 132.27264 
L 185.3535 142.32576 
L 185.0559 116.30592 
L 184.7583 131.3856 
L 184.4607 126.35904 
L 184.1631 128.72448 
L 183.8655 160.06656 
L 183.5679 146.76096 
L 183.2703 135.8208 
L 182.9727 148.53504 
L 182.6751 158.58816 
L 182.3775 159.4752 
L 182.0799 132.864 
L 181.7823 145.57824 
L 181.4847 137.59488 
L 181.1871 138.7776 
L 180.8895 153.85728 
L 180.5919 138.18624 
L 180.2943 121.33248 
L 179.9967 129.9072 
L 179.6991 115.1232 
L 179.4015 157.40544 
L 179.1039 135.22944 
L 178.8063 129.61152 
L 178.5087 144.09984 
L 178.2111 102.70464 
L 177.9135 140.55168 
L 177.6159 141.14304 
L 177.3183 147.94368 
L 177.0207 121.62816 
L 176.7231 134.93376 
L 176.4255 127.24608 
L 176.1279 136.11648 
L 175.8303 144.6912 
L 175.5327 125.76768 
L 175.2351 122.81088 
L 174.9375 131.3856 
L 174.6399 112.75776 
L 174.3423 138.7776 
L 174.0447 133.15968 
L 173.7471 126.65472 
L 173.4495 124.28928 
L 173.1519 118.96704 
L 172.8543 119.5584 
L 172.5567 125.17632 
L 172.2591 123.40224 
L 171.9615 118.96704 
L 171.6639 123.69792 
L 171.3663 114.82752 
L 171.0687 133.15968 
L 170.7711 131.97696 
L 170.4735 122.5152 
L 170.1759 125.472 
L 169.8783 128.4288 
L 169.5807 133.15968 
L 169.2831 122.21952 
L 168.9855 108.02688 
L 168.6879 119.85408 
L 168.3903 122.21952 
L 168.0927 129.02016 
L 167.7951 126.35904 
L 167.4975 125.472 
L 167.1999 126.9504 
L 166.9023 122.21952 
L 166.6047 131.08992 
L 166.3071 120.14976 
L 166.0095 111.87072 
L 165.7119 120.14976 
L 165.4143 126.06336 
L 165.1167 128.72448 
L 164.8191 135.52512 
L 164.5215 125.472 
L 164.2239 129.02016 
L 163.9263 125.17632 
L 163.6287 133.15968 
L 163.3311 138.48192 
L 163.0335 138.48192 
L 162.7359 148.83072 
L 162.4383 145.57824 
L 162.1407 136.41216 
L 161.8431 133.15968 
L 161.5455 134.63808 
L 161.2479 131.97696 
L 160.9503 147.648 
L 160.6527 144.09984 
L 160.3551 134.3424 
L 160.0575 127.83744 
L 159.7599 140.55168 
L 159.4623 124.28928 
L 159.1647 126.65472 
L 158.8671 138.48192 
L 158.5695 144.6912 
L 158.2719 155.04 
L 157.9743 156.22272 
L 157.6767 121.62816 
L 157.3791 141.14304 
L 157.0815 122.21952 
L 156.7839 135.52512 
L 156.4863 137.89056 
L 156.1887 139.36896 
L 155.8911 130.20288 
L 155.5935 140.256 
L 155.2959 129.31584 
L 154.9983 132.56832 
L 154.7007 134.3424 
L 154.4031 159.17952 
L 154.1055 139.66464 
L 153.8079 129.02016 
L 153.5103 123.40224 
L 153.2127 152.97024 
L 152.9151 131.97696 
L 152.6175 126.65472 
L 152.3199 153.85728 
L 152.0223 179.28576 
L 151.7247 141.14304 
L 151.4271 134.93376 
L 151.1295 142.03008 
L 150.8319 138.7776 
L 150.5343 150.90048 
L 150.2367 145.87392 
L 149.9391 156.22272 
L 149.6415 140.84736 
L 149.3439 134.63808 
L 149.0463 144.6912 
L 148.7487 152.0832 
L 148.4511 147.648 
L 148.1535 159.77088 
L 147.8559 145.28256 
L 147.5583 154.15296 
L 147.2607 142.32576 
L 146.9631 135.52512 
L 146.6655 144.6912 
L 146.3679 143.2128 
L 146.0703 157.10976 
L 145.7727 163.61472 
L 145.4751 150.30912 
L 145.1775 143.2128 
L 144.8799 160.9536 
L 144.5823 150.30912 
L 144.2847 144.09984 
L 143.9871 161.54496 
L 143.6895 148.53504 
L 143.3919 154.74432 
L 143.0943 156.22272 
L 142.7967 168.64128 
L 142.4991 156.22272 
L 142.2015 165.09312 
L 141.9039 173.07648 
L 141.6063 144.98688 
L 141.3087 157.10976 
L 141.0111 177.216 
L 140.7135 168.64128 
L 140.4159 153.26592 
L 140.1183 156.22272 
L 139.8207 155.04 
L 139.5231 159.17952 
L 139.2255 164.20608 
L 138.9279 151.78752 
L 138.6303 158.88384 
L 138.3327 160.06656 
L 138.0351 160.36224 
L 137.7375 164.79744 
L 137.4399 178.10304 
L 137.1423 141.7344 
L 136.8447 161.54496 
L 136.5471 160.36224 
L 136.2495 179.28576 
L 135.9519 154.74432 
L 135.6543 195.84384 
L 135.3567 194.06976 
L 135.0591 221.27232 
L 134.7615 192.88704 
L 134.4639 226.59456 
L 134.1663 188.45184 
L 133.8687 165.68448 
L 133.5711 202.05312 
L 133.2735 184.90368 
L 132.9759 204.71424 
L 132.6783 201.46176 
L 132.3807 154.15296 
L 132.0831 204.41856 
L 131.7855 199.09632 
L 131.4879 177.216 
L 131.1903 218.90688 
L 130.8927 191.11296 
L 130.5951 213.28896 
L 130.2975 185.19936 
L 129.9999 218.31552 
L 129.7023 194.06976 
L 129.4047 191.70432 
L 129.1071 197.61792 
L 128.8095 234.28224 
L 128.5119 200.27904 
L 128.2143 228.07296 
L 127.9167 192.88704 
L 127.6191 178.99008 
L 127.3215 179.58144 
L 127.0239 188.15616 
L 126.7263 197.32224 
L 126.4287 199.392 
L 126.1311 192.88704 
L 125.8335 186.97344 
L 125.5359 185.19936 
L 125.2383 194.66112 
L 124.9407 178.99008 
L 124.6431 183.42528 
L 124.3455 192.59136 
L 124.0479 187.5648 
L 123.7503 202.05312 
L 123.4527 221.86368 
L 123.1551 198.50496 
L 122.8575 187.5648 
L 122.5599 170.41536 
L 122.2623 190.5216 
L 121.9647 177.80736 
L 121.6671 174.55488 
L 121.3695 174.55488 
L 121.0719 182.24256 
L 120.7743 178.6944 
L 120.4767 185.49504 
L 120.1791 186.0864 
L 119.8815 208.85376 
L 119.5839 198.20928 
L 119.2863 196.4352 
L 118.9887 191.70432 
L 118.6911 217.42848 
L 118.3935 189.33888 
L 118.0959 199.392 
L 117.7983 204.41856 
L 117.5007 196.4352 
L 117.2031 194.66112 
L 116.9055 202.3488 
L 116.6079 184.01664 
L 116.3103 187.5648 
L 116.0127 215.35872 
L 115.7151 204.41856 
L 115.4175 199.68768 
L 115.1199 191.40864 
L 114.8223 189.63456 
L 114.5247 203.53152 
L 114.2271 201.46176 
L 113.9295 185.49504 
L 113.6319 190.5216 
L 113.3343 194.06976 
L 113.0367 196.73088 
L 112.7391 200.27904 
L 112.4415 190.81728 
L 112.1439 190.5216 
L 111.8463 194.9568 
L 111.5487 192.29568 
L 111.2511 175.7376 
L 110.9535 179.58144 
L 110.6559 192.88704 
L 110.3583 191.11296 
L 110.0607 184.608 
L 109.7631 183.72096 
L 109.4655 176.32896 
L 109.1679 188.45184 
L 108.8703 183.1296 
L 108.5727 189.93024 
L 108.2751 178.6944 
L 107.9775 166.8672 
L 107.6799 183.72096 
L 107.3823 181.94688 
L 107.0847 183.1296 
L 106.7871 182.53824 
L 106.4895 177.80736 
L 106.1919 175.14624 
L 105.8943 179.28576 
L 105.5967 190.81728 
L 105.2991 175.14624 
L 105.0015 176.32896 
L 104.7039 173.07648 
L 104.4063 170.71104 
L 104.1087 181.94688 
L 103.8111 185.19936 
L 103.5135 176.03328 
L 103.2159 186.38208 
L 102.9183 181.35552 
L 102.6207 180.1728 
L 102.3231 177.216 
L 102.0255 177.51168 
L 101.7279 184.01664 
L 101.4303 178.39872 
L 101.1327 171.3024 
L 100.8351 181.35552 
L 100.5375 176.32896 
L 100.2399 175.44192 
L 99.9423 173.66784 
L 99.6447 177.216 
L 99.3471 177.51168 
L 99.0495 179.28576 
L 98.7519 176.03328 
L 98.4543 183.72096 
L 98.1567 177.51168 
L 97.8591 177.216 
L 97.5615 183.42528 
L 97.2639 176.92032 
L 96.9663 177.80736 
L 96.6687 182.83392 
L 96.3711 186.97344 
L 96.0735 172.18944 
L 95.7759 179.28576 
L 95.4783 179.87712 
L 95.1807 178.39872 
L 94.8831 180.46848 
L 94.5855 177.51168 
L 94.2879 180.46848 
L 93.9903 182.24256 
L 93.6927 182.24256 
L 93.3951 175.44192 
L 93.0975 181.35552 
L 92.7999 178.10304 
L 92.5023 185.79072 
L 92.2047 180.76416 
L 91.9071 178.10304 
L 91.6095 179.28576 
L 91.3119 184.31232 
L 91.0143 184.01664 
L 90.7167 184.31232 
L 90.4191 180.1728 
L 90.1215 182.83392 
L 89.8239 186.0864 
L 89.5263 179.87712 
L 89.2287 183.1296 
L 88.9311 187.5648 
L 88.6335 176.32896 
L 88.3359 184.01664 
L 88.0383 185.49504 
L 87.7407 184.31232 
L 87.4431 189.63456 
L 87.1455 184.608 
L 86.8479 181.05984 
L 86.5503 192 
L 86.2527 192.88704 
L 85.9551 188.74752 
L 85.6575 197.9136 
L 85.3599 184.31232 
L 85.0623 192 
L 84.7647 189.0432 
L 84.4671 199.09632 
L 84.1695 193.4784 
L 83.8719 188.15616 
L 83.5743 192.59136 
L 83.2767 197.32224 
L 82.9791 186.97344 
L 82.6815 184.90368 
L 82.3839 185.49504 
L 82.0863 188.45184 
L 81.7887 177.80736 
L 81.4911 194.36544 
L 81.1935 188.45184 
L 80.8959 193.77408 
L 80.5983 192 
L 80.3007 196.4352 
L 80.0031 201.16608 
L 79.7055 193.18272 
L 79.4079 191.70432 
L 79.1103 187.5648 
L 78.8127 197.02656 
L 78.5151 195.84384 
L 78.2175 205.00992 
L 77.9199 204.71424 
L 77.6223 202.3488 
L 77.3247 201.16608 
L 77.0271 205.60128 
L 76.7295 210.92352 
L 76.4319 206.19264 
L 76.1343 204.71424 
L 75.8367 201.75744 
L 75.5391 200.8704 
L 75.2415 208.85376 
L 74.9439 206.48832 
L 74.6463 199.68768 
L 74.3487 207.37536 
L 74.0511 214.76736 
L 73.7535 212.99328 
L 73.4559 205.00992 
L 73.1583 201.75744 
L 72.8607 205.00992 
L 72.5631 203.23584 
L 72.2655 207.37536 
L 71.9679 205.60128 
L 71.6703 205.3056 
L 71.3727 204.12288 
L 71.0751 208.85376 
L 70.7775 217.1328 
L 70.4799 213.88032 
L 70.1823 211.2192 
L 69.8847 210.62784 
L 69.5871 216.83712 
L 69.2895 214.76736 
L 68.9919 215.6544 
L 68.6943 223.63776 
L 68.3967 212.10624 
L 68.0991 212.10624 
L 67.8015 214.47168 
L 67.5039 209.44512 
L 67.2063 216.54144 
L 66.9087 215.95008 
L 66.6111 212.99328 
L 66.3135 220.38528 
L 66.0159 206.19264 
L 65.7183 214.76736 
L 65.4207 217.1328 
L 65.1231 211.2192 
L 64.8255 213.28896 
L 64.5279 210.62784 
L 64.2303 210.62784 
L 63.9327 214.47168 
L 63.6351 215.06304 
L 63.3375 207.37536 
L 63.0399 216.54144 
L 62.7423 214.47168 
L 62.4447 219.20256 
L 62.1471 215.95008 
L 61.8495 216.54144 
L 61.5519 218.01984 
L 61.2543 214.176 
L 60.9567 224.22912 
L 60.6591 221.27232 
L 60.3615 213.58464 
L 60.0639 212.99328 
L 59.7663 215.95008 
L 59.4687 216.24576 
L 59.1711 220.38528 
L 58.8735 222.15936 
L 58.5759 215.06304 
L 58.2783 225.11616 
L 57.9807 226.0032 
L 57.6831 214.76736 
L 57.3855 218.6112 
L 57.0879 219.49824 
L 56.7903 218.31552 
L 56.4927 220.68096 
L 56.1951 228.36864 
L 55.8975 228.66432 
L 55.5999 224.22912 
L 55.3023 229.55136 
L 55.0047 221.27232 
L 54.7071 226.59456 
L 54.4095 213.58464 
L 54.1119 231.02976 
L 53.8143 234.8736 
L 53.5167 228.66432 
L 53.2191 236.352 
L 52.9215 227.77728 
L 52.6239 237.23904 
L 52.3263 227.18592 
L 52.0287 228.96 
L 51.7311 228.96 
L 51.4335 228.66432 
L 51.1359 226.29888 
L 50.8383 230.4384 
L 50.5407 226.29888 
L 50.2431 230.14272 
L 49.9455 228.07296 
L 49.6479 223.63776 
L 49.3503 230.14272 
L 49.0527 217.42848 
L 48.7551 224.82048 
L 48.4575 228.96 
L 48.1599 224.22912 
L 47.8623 225.70752 
L 47.5647 228.96 
L 47.2671 226.89024 
L 46.9695 228.07296 
L 46.6719 225.70752 
L 46.3743 220.97664 
L 46.0767 226.89024 
L 45.7791 226.0032 
L 45.4815 225.11616 
L 45.1839 223.93344 
L 44.8863 225.11616 
L 44.5887 223.34208 
L 44.2911 223.0464 
L 43.9935 224.22912 
L 43.6959 221.568 
L 43.3983 223.93344 
L 43.1007 223.34208 
L 42.8031 223.34208 
L 42.5055 225.70752 
z
" clip-path="url(#p4c0bf32ead)" style="fill: #2fb47c; fill-opacity: 0.3"/>
   </g>
   <g id="matplotlib.axis_1">
    <g id="xtick_1">
     <g id="line2d_1">
      <defs>
       <path id="mee5ba20c27" d="M 0 0 
L 0 3.5 
" style="stroke: #000000; stroke-width: 0.8"/>
      </defs>
      <g>
       <use xlink:href="#mee5ba20c27" x="33.5775" y="228.96" style="stroke: #000000; stroke-width: 0.8"/>
      </g>
     </g>
     <g id="text_1">
      <text style="font: 6px 'DejaVu Sans', 'Bitstream Vera Sans', 'Computer Modern Sans Serif', 'Lucida Grande', 'Verdana', 'Geneva', 'Lucid', 'Arial', 'Helvetica', 'Avant Garde', sans-serif; text-anchor: middle" x="33.5775" y="240.519062" transform="rotate(-0 33.5775 240.519062)">0</text>
     </g>
    </g>
    <g id="xtick_2">
     <g id="line2d_2">
      <g>
       <use xlink:href="#mee5ba20c27" x="69.2895" y="228.96" style="stroke: #000000; stroke-width: 0.8"/>
      </g>
     </g>
     <g id="text_2">
      <text style="font: 6px 'DejaVu Sans', 'Bitstream Vera Sans', 'Computer Modern Sans Serif', 'Lucida Grande', 'Verdana', 'Geneva', 'Lucid', 'Arial', 'Helvetica', 'Avant Garde', sans-serif; text-anchor: middle" x="69.2895" y="240.519062" transform="rotate(-0 69.2895 240.519062)">4</text>
     </g>
    </g>
    <g id="xtick_3">
     <g id="line2d_3">
      <g>
       <use xlink:href="#mee5ba20c27" x="105.0015" y="228.96" style="stroke: #000000; stroke-width: 0.8"/>
      </g>
     </g>
     <g id="text_3">
      <text style="font: 6px 'DejaVu Sans', 'Bitstream Vera Sans', 'Computer Modern Sans Serif', 'Lucida Grande', 'Verdana', 'Geneva', 'Lucid', 'Arial', 'Helvetica', 'Avant Garde', sans-serif; text-anchor: middle" x="105.0015" y="240.519062" transform="rotate(-0 105.0015 240.519062)">8</text>
     </g>
    </g>
    <g id="xtick_4">
     <g id="line2d_4">
      <g>
       <use xlink:href="#mee5ba20c27" x="140.7135" y="228.96" style="stroke: #000000; stroke-width: 0.8"/>
      </g>
     </g>
     <g id="text_4">
      <text style="font: 6px 'DejaVu Sans', 'Bitstream Vera Sans', 'Computer Modern Sans Serif', 'Lucida Grande', 'Verdana', 'Geneva', 'Lucid', 'Arial', 'Helvetica', 'Avant Garde', sans-serif; text-anchor: middle" x="140.7135" y="240.519062" transform="rotate(-0 140.7135 240.519062)">12</text>
     </g>
    </g>
    <g id="xtick_5">
     <g id="line2d_5">
      <g>
       <use xlink:href="#mee5ba20c27" x="176.4255" y="228.96" style="stroke: #000000; stroke-width: 0.8"/>
      </g>
     </g>
     <g id="text_5">
      <text style="font: 6px 'DejaVu Sans', 'Bitstream Vera Sans', 'Computer Modern Sans Serif', 'Lucida Grande', 'Verdana', 'Geneva', 'Lucid', 'Arial', 'Helvetica', 'Avant Garde', sans-serif; text-anchor: middle" x="176.4255" y="240.519062" transform="rotate(-0 176.4255 240.519062)">16</text>
     </g>
    </g>
    <g id="xtick_6">
     <g id="line2d_6">
      <g>
       <use xlink:href="#mee5ba20c27" x="212.1375" y="228.96" style="stroke: #000000; stroke-width: 0.8"/>
      </g>
     </g>
     <g id="text_6">
      <text style="font: 6px 'DejaVu Sans', 'Bitstream Vera Sans', 'Computer Modern Sans Serif', 'Lucida Grande', 'Verdana', 'Geneva', 'Lucid', 'Arial', 'Helvetica', 'Avant Garde', sans-serif; text-anchor: middle" x="212.1375" y="240.519062" transform="rotate(-0 212.1375 240.519062)">20</text>
     </g>
    </g>
    <g id="xtick_7">
     <g id="line2d_7">
      <g>
       <use xlink:href="#mee5ba20c27" x="247.8495" y="228.96" style="stroke: #000000; stroke-width: 0.8"/>
      </g>
     </g>
     <g id="text_7">
      <text style="font: 6px 'DejaVu Sans', 'Bitstream Vera Sans', 'Computer Modern Sans Serif', 'Lucida Grande', 'Verdana', 'Geneva', 'Lucid', 'Arial', 'Helvetica', 'Avant Garde', sans-serif; text-anchor: middle" x="247.8495" y="240.519062" transform="rotate(-0 247.8495 240.519062)">24</text>
     </g>
    </g>
    <g id="text_8">
     <text style="font: 8px 'DejaVu Sans', 'Bitstream Vera Sans', 'Computer Modern Sans Serif', 'Lucida Grande', 'Verdana', 'Geneva', 'Lucid', 'Arial', 'Helvetica', 'Avant Garde', sans-serif; text-anchor: middle" x="145.1775" y="251.845625" transform="rotate(-0 145.1775 251.845625)">Experimental time (hpf)</text>
    </g>
   </g>
   <g id="matplotlib.axis_2">
    <g id="ytick_1">
     <g id="line2d_8">
      <defs>
       <path id="mae094017d6" d="M 0 0 
L -3.5 0 
" style="stroke: #000000; stroke-width: 0.8"/>
      </defs>
      <g>
       <use xlink:href="#mae094017d6" x="33.5775" y="228.96" style="stroke: #000000; stroke-width: 0.8"/>
      </g>
     </g>
     <g id="text_9">
      <text style="font: 6px 'DejaVu Sans', 'Bitstream Vera Sans', 'Computer Modern Sans Serif', 'Lucida Grande', 'Verdana', 'Geneva', 'Lucid', 'Arial', 'Helvetica', 'Avant Garde', sans-serif; text-anchor: end" x="26.5775" y="231.239531" transform="rotate(-0 26.5775 231.239531)">0</text>
     </g>
    </g>
    <g id="ytick_2">
     <g id="line2d_9">
      <g>
       <use xlink:href="#mae094017d6" x="33.5775" y="193.4784" style="stroke: #000000; stroke-width: 0.8"/>
      </g>
     </g>
     <g id="text_10">
      <text style="font: 6px 'DejaVu Sans', 'Bitstream Vera Sans', 'Computer Modern Sans Serif', 'Lucida Grande', 'Verdana', 'Geneva', 'Lucid', 'Arial', 'Helvetica', 'Avant Garde', sans-serif; text-anchor: end" x="26.5775" y="195.757931" transform="rotate(-0 26.5775 195.757931)">4</text>
     </g>
    </g>
    <g id="ytick_3">
     <g id="line2d_10">
      <g>
       <use xlink:href="#mae094017d6" x="33.5775" y="157.9968" style="stroke: #000000; stroke-width: 0.8"/>
      </g>
     </g>
     <g id="text_11">
      <text style="font: 6px 'DejaVu Sans', 'Bitstream Vera Sans', 'Computer Modern Sans Serif', 'Lucida Grande', 'Verdana', 'Geneva', 'Lucid', 'Arial', 'Helvetica', 'Avant Garde', sans-serif; text-anchor: end" x="26.5775" y="160.276331" transform="rotate(-0 26.5775 160.276331)">8</text>
     </g>
    </g>
    <g id="ytick_4">
     <g id="line2d_11">
      <g>
       <use xlink:href="#mae094017d6" x="33.5775" y="122.5152" style="stroke: #000000; stroke-width: 0.8"/>
      </g>
     </g>
     <g id="text_12">
      <text style="font: 6px 'DejaVu Sans', 'Bitstream Vera Sans', 'Computer Modern Sans Serif', 'Lucida Grande', 'Verdana', 'Geneva', 'Lucid', 'Arial', 'Helvetica', 'Avant Garde', sans-serif; text-anchor: end" x="26.5775" y="124.794731" transform="rotate(-0 26.5775 124.794731)">12</text>
     </g>
    </g>
    <g id="ytick_5">
     <g id="line2d_12">
      <g>
       <use xlink:href="#mae094017d6" x="33.5775" y="87.0336" style="stroke: #000000; stroke-width: 0.8"/>
      </g>
     </g>
     <g id="text_13">
      <text style="font: 6px 'DejaVu Sans', 'Bitstream Vera Sans', 'Computer Modern Sans Serif', 'Lucida Grande', 'Verdana', 'Geneva', 'Lucid', 'Arial', 'Helvetica', 'Avant Garde', sans-serif; text-anchor: end" x="26.5775" y="89.313131" transform="rotate(-0 26.5775 89.313131)">16</text>
     </g>
    </g>
    <g id="ytick_6">
     <g id="line2d_13">
      <g>
       <use xlink:href="#mae094017d6" x="33.5775" y="51.552" style="stroke: #000000; stroke-width: 0.8"/>
      </g>
     </g>
     <g id="text_14">
      <text style="font: 6px 'DejaVu Sans', 'Bitstream Vera Sans', 'Computer Modern Sans Serif', 'Lucida Grande', 'Verdana', 'Geneva', 'Lucid', 'Arial', 'Helvetica', 'Avant Garde', sans-serif; text-anchor: end" x="26.5775" y="53.831531" transform="rotate(-0 26.5775 53.831531)">20</text>
     </g>
    </g>
    <g id="ytick_7">
     <g id="line2d_14">
      <g>
       <use xlink:href="#mae094017d6" x="33.5775" y="16.0704" style="stroke: #000000; stroke-width: 0.8"/>
      </g>
     </g>
     <g id="text_15">
      <text style="font: 6px 'DejaVu Sans', 'Bitstream Vera Sans', 'Computer Modern Sans Serif', 'Lucida Grande', 'Verdana', 'Geneva', 'Lucid', 'Arial', 'Helvetica', 'Avant Garde', sans-serif; text-anchor: end" x="26.5775" y="18.349931" transform="rotate(-0 26.5775 18.349931)">24</text>
     </g>
    </g>
    <g id="text_16">
     <text style="font: 8px 'DejaVu Sans', 'Bitstream Vera Sans', 'Computer Modern Sans Serif', 'Lucida Grande', 'Verdana', 'Geneva', 'Lucid', 'Arial', 'Helvetica', 'Avant Garde', sans-serif; text-anchor: middle" x="13.27875" y="118.08" transform="rotate(-90 13.27875 118.08)">Developmental age (hpf)</text>
    </g>
   </g>
   <g id="line2d_15">
    <path d="M 42.5055 220.0896 
L 256.7775 5.06743 
L 256.7775 5.06743 
" clip-path="url(#p4c0bf32ead)" style="fill: none; stroke: #2fb47c; stroke-linecap: square"/>
   </g>
   <g id="line2d_16">
    <path d="M 42.5055 220.0896 
L 256.7775 25.759236 
L 256.7775 25.759236 
" clip-path="url(#p4c0bf32ead)" style="fill: none; stroke-dasharray: 3.7,1.6; stroke-dashoffset: 0; stroke: #2fb47c"/>
   </g>
   <g id="line2d_17">
    <path d="M 42.5055 220.0896 
L 241.288984 -1 
L 241.288984 -1 
" clip-path="url(#p4c0bf32ead)" style="fill: none; stroke-dasharray: 3.7,1.6; stroke-dashoffset: 0; stroke: #2fb47c"/>
   </g>
   <g id="patch_3">
    <path d="M 33.5775 228.96 
L 33.5775 7.2 
" style="fill: none; stroke: #000000; stroke-width: 0.8; stroke-linejoin: miter; stroke-linecap: square"/>
   </g>
   <g id="patch_4">
    <path d="M 33.5775 228.96 
L 256.7775 228.96 
" style="fill: none; stroke: #000000; stroke-width: 0.8; stroke-linejoin: miter; stroke-linecap: square"/>
   </g>
   <g id="legend_1">
    <g id="patch_5">
     <path d="M 37.6305 28.829269 
L 196.698989 28.829269 
Q 197.856989 28.829269 197.856989 27.671269 
L 197.856989 11.253 
Q 197.856989 10.095 196.698989 10.095 
L 37.6305 10.095 
Q 36.4725 10.095 36.4725 11.253 
L 36.4725 27.671269 
Q 36.4725 28.829269 37.6305 28.829269 
z
" style="fill: #ffffff; opacity: 0.8; stroke: #cccccc; stroke-linejoin: miter"/>
    </g>
    <g id="line2d_18">
     <path d="M 38.7885 14.783995 
L 44.5785 14.783995 
L 50.3685 14.783995 
" style="fill: none; stroke: #2fb47c; stroke-linecap: square"/>
    </g>
    <g id="text_17">
     <text style="font: 5.79px 'DejaVu Sans', 'Bitstream Vera Sans', 'Computer Modern Sans Serif', 'Lucida Grande', 'Verdana', 'Geneva', 'Lucid', 'Arial', 'Helvetica', 'Avant Garde', sans-serif; text-anchor: start" x="55.0005" y="16.810495" transform="rotate(-0 55.0005 16.810495)">Linear fit: slope=1.001 [0.913,1.119], R2=0.966</text>
    </g>
    <g id="patch_6">
     <path d="M 38.7885 25.30913 
L 50.3685 25.30913 
L 50.3685 21.25613 
L 38.7885 21.25613 
z
" style="fill: #2fb47c; fill-opacity: 0.3"/>
    </g>
    <g id="text_18">
     <text style="font: 5.79px 'DejaVu Sans', 'Bitstream Vera Sans', 'Computer Modern Sans Serif', 'Lucida Grande', 'Verdana', 'Geneva', 'Lucid', 'Arial', 'Helvetica', 'Avant Garde', sans-serif; text-anchor: start" x="55.0005" y="25.30913" transform="rotate(-0 55.0005 25.30913)">Median:30.0C</text>
    </g>
   </g>
  </g>
 </g>
 <defs>
  <clipPath id="p4c0bf32ead">
   <rect x="33.5775" y="7.2" width="223.2" height="221.76"/>
  </clipPath>
 </defs>
</svg>
