<?xml version="1.0" encoding="utf-8" standalone="no"?>
<!DOCTYPE svg PUBLIC "-//W3C//DTD SVG 1.1//EN"
  "http://www.w3.org/Graphics/SVG/1.1/DTD/svg11.dtd">
<svg xmlns:xlink="http://www.w3.org/1999/xlink" width="263.9775pt" height="260.709375pt" viewBox="0 0 263.9775 260.709375" xmlns="http://www.w3.org/2000/svg" version="1.1">
 <metadata>
  <rdf:RDF xmlns:dc="http://purl.org/dc/elements/1.1/" xmlns:cc="http://creativecommons.org/ns#" xmlns:rdf="http://www.w3.org/1999/02/22-rdf-syntax-ns#">
   <cc:Work>
    <dc:type rdf:resource="http://purl.org/dc/dcmitype/StillImage"/>
    <dc:date>2023-07-28T13:01:22.634001</dc:date>
    <dc:format>image/svg+xml</dc:format>
    <dc:creator>
     <cc:Agent>
      <dc:title>Matplotlib v3.7.0, https://matplotlib.org/</dc:title>
     </cc:Agent>
    </dc:creator>
   </cc:Work>
  </rdf:RDF>
 </metadata>
 <defs>
  <style type="text/css">*{stroke-linejoin: round; stroke-linecap: butt}</style>
 </defs>
 <g id="figure_1">
  <g id="patch_1">
   <path d="M 0 260.709375 
L 263.9775 260.709375 
L 263.9775 0 
L 0 0 
z
" style="fill: #ffffff"/>
  </g>
  <g id="axes_1">
   <g id="patch_2">
    <path d="M 33.5775 228.96 
L 256.7775 228.96 
L 256.7775 7.2 
L 33.5775 7.2 
z
" style="fill: #ffffff"/>
   </g>
   <g id="PolyCollection_1">
    <path d="M 42.5055 221.27232 
L 42.5055 215.35872 
L 42.8031 215.06304 
L 43.1007 214.61952 
L 43.3983 211.81056 
L 43.6959 214.61952 
L 43.9935 210.92352 
L 44.2911 213.28896 
L 44.5887 211.36704 
L 44.8863 211.81056 
L 45.1839 209.7408 
L 45.4815 211.9584 
L 45.7791 213.4368 
L 46.0767 210.18432 
L 46.3743 211.07136 
L 46.6719 209.0016 
L 46.9695 210.62784 
L 47.2671 211.9584 
L 47.5647 210.33216 
L 47.8623 206.19264 
L 48.1599 208.55808 
L 48.4575 206.19264 
L 48.7551 208.2624 
L 49.0527 206.19264 
L 49.3503 205.89696 
L 49.6479 206.0448 
L 49.9455 202.49664 
L 50.2431 206.93184 
L 50.5407 201.6096 
L 50.8383 202.05312 
L 51.1359 199.392 
L 51.4335 204.12288 
L 51.7311 201.01824 
L 52.0287 197.32224 
L 52.3263 196.28736 
L 52.6239 196.73088 
L 52.9215 191.55648 
L 53.2191 196.28736 
L 53.5167 194.36544 
L 53.8143 190.81728 
L 54.1119 191.40864 
L 54.4095 195.84384 
L 54.7071 193.18272 
L 55.0047 194.66112 
L 55.3023 192.44352 
L 55.5999 192.29568 
L 55.8975 192.29568 
L 56.1951 190.81728 
L 56.4927 190.37376 
L 56.7903 195.10464 
L 57.0879 189.48672 
L 57.3855 187.26912 
L 57.6831 190.07808 
L 57.9807 191.40864 
L 58.2783 188.00832 
L 58.5759 190.81728 
L 58.8735 188.59968 
L 59.1711 189.7824 
L 59.4687 187.71264 
L 59.7663 185.19936 
L 60.0639 190.07808 
L 60.3615 180.32064 
L 60.6591 191.40864 
L 60.9567 184.90368 
L 61.2543 189.33888 
L 61.5519 179.4336 
L 61.8495 188.74752 
L 62.1471 182.83392 
L 62.4447 183.1296 
L 62.7423 187.5648 
L 63.0399 183.27744 
L 63.3375 181.50336 
L 63.6351 179.58144 
L 63.9327 180.76416 
L 64.2303 177.9552 
L 64.5279 172.92864 
L 64.8255 170.5632 
L 65.1231 167.6064 
L 65.4207 185.05152 
L 65.7183 177.216 
L 66.0159 176.4768 
L 66.3135 174.85056 
L 66.6111 173.66784 
L 66.9087 174.70272 
L 67.2063 162.432 
L 67.5039 172.7808 
L 67.8015 177.36384 
L 68.0991 168.49344 
L 68.3967 176.4768 
L 68.6943 164.35392 
L 68.9919 171.00672 
L 69.2895 168.3456 
L 69.5871 171.89376 
L 69.8847 175.88544 
L 70.1823 173.22432 
L 70.4799 168.93696 
L 70.7775 174.11136 
L 71.0751 161.24928 
L 71.3727 167.01504 
L 71.6703 153.70944 
L 71.9679 171.3024 
L 72.2655 171.74592 
L 72.5631 171.59808 
L 72.8607 168.3456 
L 73.1583 173.96352 
L 73.4559 170.41536 
L 73.7535 167.6064 
L 74.0511 172.0416 
L 74.3487 166.8672 
L 74.6463 163.46688 
L 74.9439 166.42368 
L 75.2415 148.97856 
L 75.5391 166.71936 
L 75.8367 164.35392 
L 76.1343 157.2576 
L 76.4319 129.9072 
L 76.7295 160.9536 
L 77.0271 149.71776 
L 77.3247 160.36224 
L 77.6223 161.84064 
L 77.9199 149.27424 
L 78.2175 165.68448 
L 78.5151 158.14464 
L 78.8127 158.88384 
L 79.1103 156.22272 
L 79.4079 149.1264 
L 79.7055 156.81408 
L 80.0031 152.97024 
L 80.3007 156.96192 
L 80.5983 153.5616 
L 80.8959 160.9536 
L 81.1935 158.88384 
L 81.4911 143.36064 
L 81.7887 151.49184 
L 82.0863 147.79584 
L 82.3839 147.05664 
L 82.6815 139.66464 
L 82.9791 152.23104 
L 83.2767 139.07328 
L 83.5743 148.23936 
L 83.8719 150.30912 
L 84.1695 148.09152 
L 84.4671 155.18784 
L 84.7647 148.23936 
L 85.0623 144.54336 
L 85.3599 154.89216 
L 85.6575 139.22112 
L 85.9551 136.85568 
L 86.2527 150.16128 
L 86.5503 137.74272 
L 86.8479 141.58656 
L 87.1455 137.74272 
L 87.4431 138.33408 
L 87.7407 143.65632 
L 88.0383 139.22112 
L 88.3359 142.32576 
L 88.6335 145.4304 
L 88.9311 134.63808 
L 89.2287 148.68288 
L 89.5263 139.5168 
L 89.8239 138.62976 
L 90.1215 140.40384 
L 90.4191 149.27424 
L 90.7167 137.44704 
L 91.0143 139.96032 
L 91.3119 141.7344 
L 91.6095 137.59488 
L 91.9071 134.04672 
L 92.2047 143.80416 
L 92.5023 137.89056 
L 92.7999 130.49856 
L 93.0975 131.23776 
L 93.3951 147.79584 
L 93.6927 145.57824 
L 93.9903 136.70784 
L 94.2879 136.56 
L 94.5855 140.9952 
L 94.8831 146.76096 
L 95.1807 146.1696 
L 95.4783 138.92544 
L 95.7759 140.84736 
L 96.0735 139.07328 
L 96.3711 139.07328 
L 96.6687 138.33408 
L 96.9663 137.59488 
L 97.2639 148.83072 
L 97.5615 134.04672 
L 97.8591 142.4736 
L 98.1567 137.74272 
L 98.4543 143.50848 
L 98.7519 146.9088 
L 99.0495 138.18624 
L 99.3471 139.36896 
L 99.6447 148.68288 
L 99.9423 146.61312 
L 100.2399 143.06496 
L 100.5375 148.09152 
L 100.8351 142.91712 
L 101.1327 137.89056 
L 101.4303 147.05664 
L 101.7279 147.50016 
L 102.0255 142.76928 
L 102.3231 144.39552 
L 102.6207 147.648 
L 102.9183 149.71776 
L 103.2159 143.80416 
L 103.5135 145.13472 
L 103.8111 146.02176 
L 104.1087 141.7344 
L 104.4063 148.3872 
L 104.7039 139.81248 
L 105.0015 143.952 
L 105.2991 148.68288 
L 105.5967 143.80416 
L 105.8943 143.65632 
L 106.1919 142.17792 
L 106.4895 147.05664 
L 106.7871 138.18624 
L 107.0847 144.54336 
L 107.3823 146.31744 
L 107.6799 144.98688 
L 107.9775 140.84736 
L 108.2751 146.76096 
L 108.5727 146.31744 
L 108.8703 140.84736 
L 109.1679 141.14304 
L 109.4655 138.33408 
L 109.7631 143.06496 
L 110.0607 144.54336 
L 110.3583 144.09984 
L 110.6559 140.10816 
L 110.9535 136.56 
L 111.2511 142.32576 
L 111.5487 145.28256 
L 111.8463 144.83904 
L 112.1439 145.13472 
L 112.4415 141.7344 
L 112.7391 145.28256 
L 113.0367 143.65632 
L 113.3343 140.69952 
L 113.6319 141.58656 
L 113.9295 139.5168 
L 114.2271 133.89888 
L 114.5247 144.83904 
L 114.8223 143.65632 
L 115.1199 142.17792 
L 115.4175 143.80416 
L 115.7151 144.24768 
L 116.0127 136.11648 
L 116.3103 143.2128 
L 116.6079 139.22112 
L 116.9055 140.55168 
L 117.2031 142.76928 
L 117.5007 139.07328 
L 117.7983 136.85568 
L 118.0959 133.30752 
L 118.3935 136.41216 
L 118.6911 138.33408 
L 118.9887 135.8208 
L 119.2863 136.56 
L 119.5839 140.55168 
L 119.8815 137.44704 
L 120.1791 133.45536 
L 120.4767 134.04672 
L 120.7743 135.0816 
L 121.0719 133.15968 
L 121.3695 138.7776 
L 121.6671 137.59488 
L 121.9647 133.75104 
L 122.2623 140.40384 
L 122.5599 127.98528 
L 122.8575 133.75104 
L 123.1551 126.80256 
L 123.4527 127.09824 
L 123.7503 129.168 
L 124.0479 124.7328 
L 124.3455 126.50688 
L 124.6431 134.19456 
L 124.9407 119.26272 
L 125.2383 123.55008 
L 125.5359 123.55008 
L 125.8335 122.21952 
L 126.1311 125.76768 
L 126.4287 127.98528 
L 126.7263 130.49856 
L 127.0239 120.88896 
L 127.3215 123.55008 
L 127.6191 119.85408 
L 127.9167 116.01024 
L 128.2143 118.22784 
L 128.5119 121.33248 
L 128.8095 121.18464 
L 129.1071 113.6448 
L 129.4047 120.59328 
L 129.7023 116.30592 
L 129.9999 119.85408 
L 130.2975 123.10656 
L 130.5951 111.72288 
L 130.8927 120.74112 
L 131.1903 119.70624 
L 131.4879 111.72288 
L 131.7855 114.53184 
L 132.0831 113.05344 
L 132.3807 107.58336 
L 132.6783 112.1664 
L 132.9759 96.49536 
L 133.2735 105.95712 
L 133.5711 109.80096 
L 133.8687 102.70464 
L 134.1663 108.4704 
L 134.4639 101.8176 
L 134.7615 100.19136 
L 135.0591 101.8176 
L 135.3567 108.17472 
L 135.6543 103.59168 
L 135.9519 105.07008 
L 136.2495 108.76608 
L 136.5471 99.30432 
L 136.8447 104.92224 
L 137.1423 104.18304 
L 137.4399 100.78272 
L 137.7375 99.45216 
L 138.0351 104.0352 
L 138.3327 99.89568 
L 138.6303 93.53856 
L 138.9279 114.67968 
L 139.2255 102.40896 
L 139.5231 96.93888 
L 139.8207 98.1216 
L 140.1183 103.59168 
L 140.4159 97.53024 
L 140.7135 96.19968 
L 141.0111 97.97376 
L 141.3087 88.512 
L 141.6063 82.15488 
L 141.9039 89.69472 
L 142.2015 95.60832 
L 142.4991 99.89568 
L 142.7967 95.904 
L 143.0943 87.7728 
L 143.3919 92.65152 
L 143.6895 93.53856 
L 143.9871 81.56352 
L 144.2847 92.65152 
L 144.5823 87.7728 
L 144.8799 93.98208 
L 145.1775 97.23456 
L 145.4751 91.17312 
L 145.7727 86.14656 
L 146.0703 88.21632 
L 146.3679 81.41568 
L 146.6655 84.96384 
L 146.9631 76.38912 
L 147.2607 71.36256 
L 147.5583 66.48384 
L 147.8559 74.91072 
L 148.1535 79.05024 
L 148.4511 55.39584 
L 148.7487 56.28288 
L 149.0463 79.34592 
L 149.3439 63.97056 
L 149.6415 73.28448 
L 149.9391 55.54368 
L 150.2367 76.83264 
L 150.5343 63.82272 
L 150.8319 61.75296 
L 151.1295 46.3776 
L 151.4271 57.16992 
L 151.7247 68.11008 
L 152.0223 65.74464 
L 152.3199 59.6832 
L 152.6175 68.84928 
L 152.9151 49.77792 
L 153.2127 58.944 
L 153.5103 68.5536 
L 153.8079 72.39744 
L 154.1055 62.64 
L 154.4031 50.66496 
L 154.7007 73.87584 
L 154.9983 61.60512 
L 155.2959 50.0736 
L 155.5935 68.40576 
L 155.8911 67.8144 
L 156.1887 59.23968 
L 156.4863 67.66656 
L 156.7839 70.7712 
L 157.0815 64.41408 
L 157.3791 59.53536 
L 157.6767 77.57184 
L 157.9743 68.70144 
L 158.2719 61.9008 
L 158.5695 54.65664 
L 158.8671 81.12 
L 159.1647 79.19808 
L 159.4623 74.76288 
L 159.7599 72.84096 
L 160.0575 66.04032 
L 160.3551 59.53536 
L 160.6527 69.73632 
L 160.9503 66.77952 
L 161.2479 71.65824 
L 161.5455 65.5968 
L 161.8431 71.65824 
L 162.1407 66.336 
L 162.4383 65.5968 
L 162.7359 73.13664 
L 163.0335 69.2928 
L 163.3311 59.38752 
L 163.6287 62.64 
L 163.9263 75.79776 
L 164.2239 59.23968 
L 164.5215 74.17152 
L 164.8191 69.14496 
L 165.1167 57.76128 
L 165.4143 63.67488 
L 165.7119 64.56192 
L 166.0095 65.5968 
L 166.3071 73.728 
L 166.6047 72.39744 
L 166.9023 66.48384 
L 167.1999 61.75296 
L 167.4975 70.032 
L 167.7951 66.63168 
L 168.0927 67.0752 
L 168.3903 71.21472 
L 168.6879 62.04864 
L 168.9855 59.38752 
L 169.2831 70.47552 
L 169.5807 66.336 
L 169.8783 62.78784 
L 170.1759 65.89248 
L 170.4735 67.96224 
L 170.7711 60.71808 
L 171.0687 56.57856 
L 171.3663 67.22304 
L 171.6639 51.99552 
L 171.9615 56.43072 
L 172.2591 65.15328 
L 172.5567 60.57024 
L 172.8543 58.2048 
L 173.1519 62.49216 
L 173.4495 72.39744 
L 173.7471 74.91072 
L 174.0447 61.9008 
L 174.3423 68.5536 
L 174.6399 62.64 
L 174.9375 68.40576 
L 175.2351 70.62336 
L 175.5327 58.79616 
L 175.8303 66.48384 
L 176.1279 63.3792 
L 176.4255 74.02368 
L 176.7231 63.67488 
L 177.0207 69.73632 
L 177.3183 52.14336 
L 177.6159 73.58016 
L 177.9135 67.0752 
L 178.2111 58.64832 
L 178.5087 53.47392 
L 178.8063 54.36096 
L 179.1039 61.1616 
L 179.4015 53.7696 
L 179.6991 73.58016 
L 179.9967 61.45728 
L 180.2943 61.60512 
L 180.5919 70.17984 
L 180.8895 58.50048 
L 181.1871 57.76128 
L 181.4847 50.36928 
L 181.7823 66.77952 
L 182.0799 57.76128 
L 182.3775 50.36928 
L 182.6751 62.19648 
L 182.9727 50.8128 
L 183.2703 51.99552 
L 183.5679 53.17824 
L 183.8655 53.7696 
L 184.1631 73.58016 
L 184.4607 49.77792 
L 184.7583 49.92576 
L 185.0559 56.43072 
L 185.3535 56.43072 
L 185.6511 50.51712 
L 185.9487 58.79616 
L 186.2463 57.76128 
L 186.5439 50.36928 
L 186.8415 51.69984 
L 187.1391 52.73472 
L 187.4367 41.9424 
L 187.7343 45.34272 
L 188.0319 48.15168 
L 188.3295 49.3344 
L 188.6271 47.856 
L 188.9247 44.16 
L 189.2223 54.21312 
L 189.5199 41.9424 
L 189.8175 48.44736 
L 190.1151 43.56864 
L 190.4127 43.12512 
L 190.7103 49.63008 
L 191.0079 37.21152 
L 191.3055 43.56864 
L 191.6031 60.86592 
L 191.9007 46.82112 
L 192.1983 46.82112 
L 192.4959 40.02048 
L 192.7935 48.89088 
L 193.0911 51.552 
L 193.3887 33.95904 
L 193.6863 49.3344 
L 193.9839 57.31776 
L 194.2815 51.40416 
L 194.5791 43.86432 
L 194.8767 48.15168 
L 195.1743 31.88928 
L 195.4719 46.96896 
L 195.7695 41.79456 
L 196.0671 44.8992 
L 196.3647 44.60352 
L 196.6623 42.97728 
L 196.9599 41.2032 
L 197.2575 47.1168 
L 197.5551 43.86432 
L 197.8527 39.42912 
L 198.1503 54.21312 
L 198.4479 38.68992 
L 198.7455 31.15008 
L 199.0431 39.42912 
L 199.3407 45.6384 
L 199.6383 40.31616 
L 199.9359 57.31776 
L 200.2335 40.464 
L 200.5311 48.89088 
L 200.8287 33.072 
L 201.1263 53.91744 
L 201.4239 43.56864 
L 201.7215 42.6816 
L 202.0191 46.08192 
L 202.3167 46.52544 
L 202.6143 44.75136 
L 202.9119 38.83776 
L 203.2095 35.43744 
L 203.5071 40.16832 
L 203.8047 39.13344 
L 204.1023 36.91584 
L 204.3999 40.31616 
L 204.6975 35.58528 
L 204.9951 43.71648 
L 205.2927 37.95072 
L 205.5903 42.38592 
L 205.8879 42.97728 
L 206.1855 36.32448 
L 206.4831 25.97568 
L 206.7807 32.62848 
L 207.0783 40.90752 
L 207.3759 36.17664 
L 207.6735 40.75968 
L 207.9711 41.79456 
L 208.2687 35.88096 
L 208.5663 40.31616 
L 208.8639 26.56704 
L 209.1615 42.09024 
L 209.4591 27.8976 
L 209.7567 33.8112 
L 210.0543 28.93248 
L 210.3519 34.84608 
L 210.6495 38.54208 
L 210.9471 29.96736 
L 211.2447 22.7232 
L 211.5423 29.08032 
L 211.8399 32.03712 
L 212.1375 36.768 
L 212.4351 39.87264 
L 212.7327 26.4192 
L 213.0303 28.93248 
L 213.3279 32.77632 
L 213.6255 23.90592 
L 213.9231 33.51552 
L 214.2207 28.19328 
L 214.5183 25.53216 
L 214.8159 21.39264 
L 215.1135 29.08032 
L 215.4111 25.68 
L 215.7087 18.87936 
L 216.0063 33.21984 
L 216.3039 26.86272 
L 216.6015 31.15008 
L 216.8991 20.94912 
L 217.1967 35.58528 
L 217.4943 21.2448 
L 217.7919 28.48896 
L 218.0895 16.51392 
L 218.3871 25.08864 
L 218.6847 12.96576 
L 218.9823 27.01056 
L 219.2799 15.47904 
L 219.5775 17.84448 
L 219.8751 21.2448 
L 220.1727 15.03552 
L 220.4703 29.08032 
L 220.7679 24.79296 
L 221.0655 15.3312 
L 221.3631 33.21984 
L 221.6607 16.66176 
L 221.9583 10.1568 
L 222.2559 12.81792 
L 222.5535 15.77472 
L 222.8511 5.42592 
L 223.1487 21.984 
L 223.4463 18.14016 
L 223.7439 20.35776 
L 224.0415 27.30624 
L 224.3391 22.57536 
L 224.6367 20.80128 
L 224.9343 8.23488 
L 225.2319 17.10528 
L 225.5295 21.2448 
L 225.8271 17.10528 
L 226.1247 19.47072 
L 226.4223 19.47072 
L 226.7199 24.79296 
L 227.0175 14.00064 
L 227.3151 21.984 
L 227.6127 19.17504 
L 227.9103 28.04544 
L 228.2079 10.45248 
L 228.5055 12.67008 
L 228.8031 2.7648 
L 229.1007 9.56544 
L 229.3983 16.36608 
L 229.6959 14.29632 
L 229.9935 17.40096 
L 230.2911 4.39104 
L 230.5887 10.1568 
L 230.8863 12.81792 
L 231.1839 8.6784 
L 231.4815 16.0704 
L 231.7791 8.08704 
L 232.0767 8.97408 
L 232.3743 7.79136 
L 232.6719 11.33952 
L 232.9695 8.97408 
L 233.2671 6.90432 
L 233.5647 6.60864 
L 233.8623 7.79136 
L 234.1599 7.9392 
L 234.4575 4.2432 
L 234.7551 6.60864 
L 235.0527 14.14848 
L 235.3503 7.9392 
L 235.6479 14.29632 
L 235.9455 14.88768 
L 236.2431 13.55712 
L 236.5407 10.74816 
L 236.8383 4.68672 
L 237.1359 11.33952 
L 237.4335 10.1568 
L 237.7311 16.36608 
L 238.0287 6.90432 
L 238.3263 5.42592 
L 238.6239 9.26976 
L 238.9215 2.46912 
L 239.2191 13.26144 
L 239.5167 15.18336 
L 239.8143 6.4608 
L 240.1119 10.45248 
L 240.4095 19.17504 
L 240.7071 2.32128 
L 241.0047 4.39104 
L 241.3023 5.7216 
L 241.5999 9.86112 
L 241.8975 1.72992 
L 242.1951 0.10368 
L 242.4927 8.97408 
L 242.7903 0.99072 
L 243.0879 5.13024 
L 243.3855 9.26976 
L 243.6831 1.58208 
L 243.9807 2.17344 
L 244.2783 7.9392 
L 244.5759 -0.9312 
L 244.8735 5.27808 
L 245.1711 2.46912 
L 245.4687 12.07872 
L 245.7663 8.38272 
L 246.0639 8.23488 
L 246.3615 4.39104 
L 246.6591 7.05216 
L 246.9567 8.08704 
L 247.2543 4.53888 
L 247.5519 3.79968 
L 247.8495 9.26976 
L 248.1471 5.27808 
L 248.4447 2.7648 
L 248.7423 4.53888 
L 249.0399 9.4176 
L 249.3375 1.2864 
L 249.6351 13.40928 
L 249.9327 2.17344 
L 250.2303 -0.192 
L 250.5279 4.68672 
L 250.8255 1.13856 
L 251.1231 2.61696 
L 251.4207 1.72992 
L 251.7183 4.2432 
L 252.0159 4.53888 
L 252.3135 5.7216 
L 252.6111 2.61696 
L 252.9087 3.20832 
L 253.2063 7.49568 
L 253.5039 1.13856 
L 253.8015 7.34784 
L 254.0991 1.43424 
L 254.3967 3.504 
L 254.6943 2.91264 
L 254.9919 4.39104 
L 255.2895 4.53888 
L 255.5871 2.7648 
L 255.8847 6.16512 
L 256.1823 -1.07904 
L 256.4799 2.46912 
L 256.4799 44.45568 
L 256.4799 44.45568 
L 256.1823 47.41248 
L 255.8847 42.23808 
L 255.5871 39.42912 
L 255.2895 41.2032 
L 254.9919 36.32448 
L 254.6943 47.856 
L 254.3967 41.35104 
L 254.0991 55.248 
L 253.8015 44.01216 
L 253.5039 47.26464 
L 253.2063 48.89088 
L 252.9087 58.2048 
L 252.6111 51.10848 
L 252.3135 44.75136 
L 252.0159 53.62176 
L 251.7183 53.91744 
L 251.4207 43.71648 
L 251.1231 49.92576 
L 250.8255 46.08192 
L 250.5279 46.08192 
L 250.2303 54.21312 
L 249.9327 63.67488 
L 249.6351 50.0736 
L 249.3375 57.4656 
L 249.0399 46.67328 
L 248.7423 56.57856 
L 248.4447 58.35264 
L 248.1471 57.90912 
L 247.8495 43.56864 
L 247.5519 52.88256 
L 247.2543 55.39584 
L 246.9567 42.97728 
L 246.6591 56.7264 
L 246.3615 49.92576 
L 246.0639 59.09184 
L 245.7663 44.45568 
L 245.4687 46.3776 
L 245.1711 42.09024 
L 244.8735 50.8128 
L 244.5759 61.1616 
L 244.2783 44.01216 
L 243.9807 48.89088 
L 243.6831 51.84768 
L 243.3855 47.70816 
L 243.0879 57.76128 
L 242.7903 60.12672 
L 242.4927 53.32608 
L 242.1951 67.51872 
L 241.8975 66.18816 
L 241.5999 56.57856 
L 241.3023 58.35264 
L 241.0047 60.57024 
L 240.7071 60.86592 
L 240.4095 48.74304 
L 240.1119 62.49216 
L 239.8143 57.31776 
L 239.5167 58.944 
L 239.2191 50.51712 
L 238.9215 59.83104 
L 238.6239 56.57856 
L 238.3263 59.83104 
L 238.0287 58.944 
L 237.7311 51.25632 
L 237.4335 59.83104 
L 237.1359 61.01376 
L 236.8383 63.23136 
L 236.5407 67.51872 
L 236.2431 60.27456 
L 235.9455 59.83104 
L 235.6479 52.73472 
L 235.3503 59.38752 
L 235.0527 59.6832 
L 234.7551 58.05696 
L 234.4575 62.19648 
L 234.1599 58.2048 
L 233.8623 63.3792 
L 233.5647 59.83104 
L 233.2671 71.36256 
L 232.9695 58.64832 
L 232.6719 61.01376 
L 232.3743 59.83104 
L 232.0767 54.5088 
L 231.7791 64.8576 
L 231.4815 57.4656 
L 231.1839 62.49216 
L 230.8863 76.6848 
L 230.5887 62.78784 
L 230.2911 67.0752 
L 229.9935 69.44064 
L 229.6959 69.88416 
L 229.3983 78.45888 
L 229.1007 68.11008 
L 228.8031 92.06016 
L 228.5055 72.39744 
L 228.2079 75.50208 
L 227.9103 58.2048 
L 227.6127 66.48384 
L 227.3151 75.2064 
L 227.0175 76.6848 
L 226.7199 67.96224 
L 226.4223 80.97216 
L 226.1247 69.73632 
L 225.8271 81.56352 
L 225.5295 79.78944 
L 225.2319 85.11168 
L 224.9343 83.3376 
L 224.6367 74.02368 
L 224.3391 75.79776 
L 224.0415 66.92736 
L 223.7439 77.71968 
L 223.4463 73.13664 
L 223.1487 73.43232 
L 222.8511 84.66816 
L 222.5535 77.27616 
L 222.2559 80.23296 
L 221.9583 79.93728 
L 221.6607 82.89408 
L 221.3631 68.11008 
L 221.0655 87.47712 
L 220.7679 82.15488 
L 220.4703 56.87424 
L 220.1727 79.49376 
L 219.8751 84.52032 
L 219.5775 75.2064 
L 219.2799 84.66816 
L 218.9823 75.50208 
L 218.6847 81.56352 
L 218.3871 85.40736 
L 218.0895 96.34752 
L 217.7919 93.53856 
L 217.4943 91.02528 
L 217.1967 81.71136 
L 216.8991 90.13824 
L 216.6015 81.41568 
L 216.3039 87.18144 
L 216.0063 82.30272 
L 215.7087 85.70304 
L 215.4111 96.05184 
L 215.1135 87.62496 
L 214.8159 91.17312 
L 214.5183 79.93728 
L 214.2207 85.5552 
L 213.9231 79.05024 
L 213.6255 94.86912 
L 213.3279 78.31104 
L 213.0303 88.65984 
L 212.7327 75.50208 
L 212.4351 78.31104 
L 212.1375 88.21632 
L 211.8399 85.85088 
L 211.5423 84.0768 
L 211.2447 94.27776 
L 210.9471 86.73792 
L 210.6495 88.21632 
L 210.3519 88.06848 
L 210.0543 91.02528 
L 209.7567 94.12992 
L 209.4591 98.8608 
L 209.1615 82.89408 
L 208.8639 109.9488 
L 208.5663 85.85088 
L 208.2687 93.83424 
L 207.9711 94.4256 
L 207.6735 90.43392 
L 207.3759 93.53856 
L 207.0783 94.12992 
L 206.7807 103.00032 
L 206.4831 106.992 
L 206.1855 104.33088 
L 205.8879 92.06016 
L 205.5903 87.92064 
L 205.2927 112.46208 
L 204.9951 95.75616 
L 204.6975 96.49536 
L 204.3999 107.7312 
L 204.1023 91.32096 
L 203.8047 98.26944 
L 203.5071 99.89568 
L 203.2095 99.89568 
L 202.9119 106.2528 
L 202.6143 93.83424 
L 202.3167 88.512 
L 202.0191 98.71296 
L 201.7215 108.32256 
L 201.4239 103.88736 
L 201.1263 100.63488 
L 200.8287 113.49696 
L 200.5311 98.56512 
L 200.2335 97.23456 
L 199.9359 104.62656 
L 199.6383 111.87072 
L 199.3407 103.00032 
L 199.0431 111.57504 
L 198.7455 110.98368 
L 198.4479 104.92224 
L 198.1503 109.80096 
L 197.8527 112.75776 
L 197.5551 112.46208 
L 197.2575 110.98368 
L 196.9599 101.52192 
L 196.6623 97.97376 
L 196.3647 104.33088 
L 196.0671 97.53024 
L 195.7695 103.296 
L 195.4719 110.83584 
L 195.1743 105.80928 
L 194.8767 107.87904 
L 194.5791 120.74112 
L 194.2815 112.31424 
L 193.9839 110.54016 
L 193.6863 110.24448 
L 193.3887 104.92224 
L 193.0911 109.50528 
L 192.7935 103.296 
L 192.4959 99.15648 
L 192.1983 104.7744 
L 191.9007 110.688 
L 191.6031 109.9488 
L 191.3055 119.85408 
L 191.0079 112.9056 
L 190.7103 103.44384 
L 190.4127 118.22784 
L 190.1151 121.0368 
L 189.8175 119.41056 
L 189.5199 109.9488 
L 189.2223 107.43552 
L 188.9247 116.30592 
L 188.6271 108.17472 
L 188.3295 111.4272 
L 188.0319 100.78272 
L 187.7343 120.44544 
L 187.4367 111.13152 
L 187.1391 111.27936 
L 186.8415 108.4704 
L 186.5439 110.688 
L 186.2463 110.39232 
L 185.9487 114.384 
L 185.6511 101.96544 
L 185.3535 95.46048 
L 185.0559 109.06176 
L 184.7583 113.79264 
L 184.4607 123.69792 
L 184.1631 112.01856 
L 183.8655 113.49696 
L 183.5679 111.72288 
L 183.2703 114.67968 
L 182.9727 115.8624 
L 182.6751 95.904 
L 182.3775 114.23616 
L 182.0799 112.75776 
L 181.7823 113.49696 
L 181.4847 110.688 
L 181.1871 113.94048 
L 180.8895 110.54016 
L 180.5919 113.94048 
L 180.2943 107.13984 
L 179.9967 118.22784 
L 179.6991 107.28768 
L 179.4015 110.54016 
L 179.1039 106.69632 
L 178.8063 116.45376 
L 178.5087 121.48032 
L 178.2111 107.13984 
L 177.9135 117.3408 
L 177.6159 119.70624 
L 177.3183 124.88064 
L 177.0207 116.45376 
L 176.7231 127.54176 
L 176.4255 120.74112 
L 176.1279 117.19296 
L 175.8303 120.2976 
L 175.5327 113.20128 
L 175.2351 116.74944 
L 174.9375 115.1232 
L 174.6399 111.13152 
L 174.3423 116.45376 
L 174.0447 119.26272 
L 173.7471 109.2096 
L 173.4495 108.4704 
L 173.1519 117.48864 
L 172.8543 121.48032 
L 172.5567 114.384 
L 172.2591 119.5584 
L 171.9615 118.52352 
L 171.6639 124.14144 
L 171.3663 120.44544 
L 171.0687 134.63808 
L 170.7711 113.94048 
L 170.4735 120.00192 
L 170.1759 123.2544 
L 169.8783 120.14976 
L 169.5807 124.28928 
L 169.2831 126.06336 
L 168.9855 114.97536 
L 168.6879 115.8624 
L 168.3903 117.3408 
L 168.0927 118.52352 
L 167.7951 114.53184 
L 167.4975 119.11488 
L 167.1999 128.57664 
L 166.9023 122.66304 
L 166.6047 120.2976 
L 166.3071 117.48864 
L 166.0095 115.8624 
L 165.7119 121.92384 
L 165.4143 120.44544 
L 165.1167 118.67136 
L 164.8191 116.45376 
L 164.5215 104.92224 
L 164.2239 125.472 
L 163.9263 118.96704 
L 163.6287 123.55008 
L 163.3311 117.3408 
L 163.0335 115.41888 
L 162.7359 113.34912 
L 162.4383 117.63648 
L 162.1407 127.83744 
L 161.8431 124.28928 
L 161.5455 120.00192 
L 161.2479 122.5152 
L 160.9503 127.6896 
L 160.6527 114.67968 
L 160.3551 120.44544 
L 160.0575 117.48864 
L 159.7599 119.5584 
L 159.4623 122.66304 
L 159.1647 118.8192 
L 158.8671 123.69792 
L 158.5695 120.88896 
L 158.2719 132.864 
L 157.9743 125.472 
L 157.6767 121.92384 
L 157.3791 132.27264 
L 157.0815 121.776 
L 156.7839 122.21952 
L 156.4863 123.2544 
L 156.1887 119.5584 
L 155.8911 121.62816 
L 155.5935 126.9504 
L 155.2959 133.45536 
L 154.9983 124.88064 
L 154.7007 126.50688 
L 154.4031 128.72448 
L 154.1055 132.42048 
L 153.8079 128.57664 
L 153.5103 130.05504 
L 153.2127 123.9936 
L 152.9151 124.88064 
L 152.6175 129.168 
L 152.3199 143.06496 
L 152.0223 138.48192 
L 151.7247 136.11648 
L 151.4271 141.7344 
L 151.1295 140.40384 
L 150.8319 139.81248 
L 150.5343 139.5168 
L 150.2367 131.82912 
L 149.9391 121.18464 
L 149.6415 141.29088 
L 149.3439 152.0832 
L 149.0463 139.66464 
L 148.7487 127.24608 
L 148.4511 144.09984 
L 148.1535 137.59488 
L 147.8559 141.14304 
L 147.5583 142.76928 
L 147.2607 145.87392 
L 146.9631 137.2992 
L 146.6655 147.05664 
L 146.3679 134.63808 
L 146.0703 139.66464 
L 145.7727 139.96032 
L 145.4751 136.70784 
L 145.1775 141.58656 
L 144.8799 145.4304 
L 144.5823 143.36064 
L 144.2847 138.7776 
L 143.9871 141.88224 
L 143.6895 139.07328 
L 143.3919 138.7776 
L 143.0943 142.76928 
L 142.7967 142.03008 
L 142.4991 143.06496 
L 142.2015 147.05664 
L 141.9039 141.7344 
L 141.6063 147.79584 
L 141.3087 147.648 
L 141.0111 148.83072 
L 140.7135 143.50848 
L 140.4159 138.92544 
L 140.1183 144.39552 
L 139.8207 144.24768 
L 139.5231 148.3872 
L 139.2255 153.26592 
L 138.9279 139.5168 
L 138.6303 150.30912 
L 138.3327 150.16128 
L 138.0351 150.75264 
L 137.7375 153.26592 
L 137.4399 154.00512 
L 137.1423 147.94368 
L 136.8447 154.00512 
L 136.5471 160.80576 
L 136.2495 147.20448 
L 135.9519 148.83072 
L 135.6543 152.67456 
L 135.3567 153.70944 
L 135.0591 152.67456 
L 134.7615 162.28416 
L 134.4639 156.81408 
L 134.1663 158.14464 
L 133.8687 162.432 
L 133.5711 158.29248 
L 133.2735 165.09312 
L 132.9759 176.32896 
L 132.6783 159.4752 
L 132.3807 170.26752 
L 132.0831 156.81408 
L 131.7855 157.10976 
L 131.4879 165.53664 
L 131.1903 159.32736 
L 130.8927 158.58816 
L 130.5951 172.63296 
L 130.2975 158.58816 
L 129.9999 161.84064 
L 129.7023 174.85056 
L 129.4047 159.03168 
L 129.1071 168.04992 
L 128.8095 159.03168 
L 128.5119 161.54496 
L 128.2143 166.71936 
L 127.9167 177.51168 
L 127.6191 174.2592 
L 127.3215 172.63296 
L 127.0239 174.70272 
L 126.7263 178.39872 
L 126.4287 169.97184 
L 126.1311 174.2592 
L 125.8335 177.216 
L 125.5359 176.18112 
L 125.2383 173.81568 
L 124.9407 175.44192 
L 124.6431 177.9552 
L 124.3455 177.9552 
L 124.0479 185.05152 
L 123.7503 185.3472 
L 123.4527 174.9984 
L 123.1551 178.84224 
L 122.8575 175.14624 
L 122.5599 178.25088 
L 122.2623 166.42368 
L 121.9647 175.7376 
L 121.6671 178.99008 
L 121.3695 172.48512 
L 121.0719 168.04992 
L 120.7743 163.46688 
L 120.4767 172.48512 
L 120.1791 177.80736 
L 119.8815 167.6064 
L 119.5839 170.71104 
L 119.2863 173.81568 
L 118.9887 177.216 
L 118.6911 169.0848 
L 118.3935 175.44192 
L 118.0959 174.70272 
L 117.7983 170.5632 
L 117.5007 171.59808 
L 117.2031 175.29408 
L 116.9055 171.89376 
L 116.6079 175.88544 
L 116.3103 169.824 
L 116.0127 175.14624 
L 115.7151 173.81568 
L 115.4175 168.64128 
L 115.1199 175.88544 
L 114.8223 179.72928 
L 114.5247 171.45024 
L 114.2271 184.16448 
L 113.9295 173.81568 
L 113.6319 173.52 
L 113.3343 172.63296 
L 113.0367 170.85888 
L 112.7391 174.2592 
L 112.4415 172.48512 
L 112.1439 172.92864 
L 111.8463 177.9552 
L 111.5487 169.52832 
L 111.2511 175.44192 
L 110.9535 180.32064 
L 110.6559 174.40704 
L 110.3583 176.62464 
L 110.0607 172.33728 
L 109.7631 177.36384 
L 109.4655 176.77248 
L 109.1679 173.66784 
L 108.8703 179.28576 
L 108.5727 175.88544 
L 108.2751 178.6944 
L 107.9775 175.7376 
L 107.6799 177.51168 
L 107.3823 176.4768 
L 107.0847 175.88544 
L 106.7871 181.35552 
L 106.4895 173.66784 
L 106.1919 178.25088 
L 105.8943 177.9552 
L 105.5967 174.55488 
L 105.2991 178.25088 
L 105.0015 178.84224 
L 104.7039 184.75584 
L 104.4063 174.9984 
L 104.1087 182.53824 
L 103.8111 178.54656 
L 103.5135 181.20768 
L 103.2159 181.05984 
L 102.9183 183.42528 
L 102.6207 181.94688 
L 102.3231 185.79072 
L 102.0255 181.20768 
L 101.7279 171.74592 
L 101.4303 175.44192 
L 101.1327 179.87712 
L 100.8351 174.2592 
L 100.5375 185.93856 
L 100.2399 181.50336 
L 99.9423 172.0416 
L 99.6447 185.93856 
L 99.3471 177.80736 
L 99.0495 183.72096 
L 98.7519 180.61632 
L 98.4543 181.35552 
L 98.1567 178.54656 
L 97.8591 177.36384 
L 97.5615 187.26912 
L 97.2639 185.49504 
L 96.9663 184.90368 
L 96.6687 185.64288 
L 96.3711 182.83392 
L 96.0735 182.24256 
L 95.7759 188.15616 
L 95.4783 186.8256 
L 95.1807 185.19936 
L 94.8831 189.33888 
L 94.5855 174.11136 
L 94.2879 183.27744 
L 93.9903 182.83392 
L 93.6927 180.46848 
L 93.3951 183.27744 
L 93.0975 192.7392 
L 92.7999 184.31232 
L 92.5023 186.38208 
L 92.2047 185.19936 
L 91.9071 177.216 
L 91.6095 193.18272 
L 91.3119 184.90368 
L 91.0143 189.0432 
L 90.7167 191.85216 
L 90.4191 187.71264 
L 90.1215 193.62624 
L 89.8239 185.3472 
L 89.5263 183.27744 
L 89.2287 185.93856 
L 88.9311 195.54816 
L 88.6335 192.7392 
L 88.3359 198.50496 
L 88.0383 195.99168 
L 87.7407 193.92192 
L 87.4431 186.8256 
L 87.1455 195.10464 
L 86.8479 188.304 
L 86.5503 191.55648 
L 86.2527 186.8256 
L 85.9551 194.2176 
L 85.6575 193.62624 
L 85.3599 195.10464 
L 85.0623 195.99168 
L 84.7647 196.13952 
L 84.4671 193.62624 
L 84.1695 193.03488 
L 83.8719 188.74752 
L 83.5743 198.50496 
L 83.2767 201.75744 
L 82.9791 197.76576 
L 82.6815 200.57472 
L 82.3839 194.36544 
L 82.0863 197.47008 
L 81.7887 205.3056 
L 81.4911 196.58304 
L 81.1935 192.59136 
L 80.8959 192.88704 
L 80.5983 199.68768 
L 80.3007 204.86208 
L 80.0031 195.54816 
L 79.7055 199.392 
L 79.4079 202.3488 
L 79.1103 202.3488 
L 78.8127 197.9136 
L 78.5151 198.35712 
L 78.2175 199.98336 
L 77.9199 206.63616 
L 77.6223 197.32224 
L 77.3247 205.3056 
L 77.0271 206.48832 
L 76.7295 201.16608 
L 76.4319 214.47168 
L 76.1343 206.34048 
L 75.8367 203.97504 
L 75.5391 205.15776 
L 75.2415 205.74912 
L 74.9439 203.088 
L 74.6463 206.63616 
L 74.3487 195.84384 
L 74.0511 202.20096 
L 73.7535 205.45344 
L 73.4559 204.71424 
L 73.1583 201.16608 
L 72.8607 208.55808 
L 72.5631 203.53152 
L 72.2655 206.0448 
L 71.9679 208.55808 
L 71.6703 220.53312 
L 71.3727 207.22752 
L 71.0751 210.92352 
L 70.7775 210.18432 
L 70.4799 209.7408 
L 70.1823 206.93184 
L 69.8847 206.0448 
L 69.5871 210.92352 
L 69.2895 211.51488 
L 68.9919 212.99328 
L 68.6943 218.75904 
L 68.3967 212.54976 
L 68.0991 217.57632 
L 67.8015 214.61952 
L 67.5039 212.40192 
L 67.2063 218.6112 
L 66.9087 210.18432 
L 66.6111 219.79392 
L 66.3135 217.42848 
L 66.0159 219.05472 
L 65.7183 216.24576 
L 65.4207 215.80224 
L 65.1231 222.01152 
L 64.8255 220.23744 
L 64.5279 219.05472 
L 64.2303 219.3504 
L 63.9327 215.06304 
L 63.6351 220.97664 
L 63.3375 215.21088 
L 63.0399 219.94176 
L 62.7423 213.58464 
L 62.4447 213.28896 
L 62.1471 212.99328 
L 61.8495 217.1328 
L 61.5519 223.7856 
L 61.2543 214.76736 
L 60.9567 216.83712 
L 60.6591 214.47168 
L 60.3615 219.94176 
L 60.0639 220.8288 
L 59.7663 216.54144 
L 59.4687 221.42016 
L 59.1711 219.94176 
L 58.8735 222.3072 
L 58.5759 219.79392 
L 58.2783 218.75904 
L 57.9807 220.97664 
L 57.6831 220.23744 
L 57.3855 220.97664 
L 57.0879 224.37696 
L 56.7903 219.3504 
L 56.4927 220.53312 
L 56.1951 223.34208 
L 55.8975 220.68096 
L 55.5999 222.45504 
L 55.3023 220.23744 
L 55.0047 221.27232 
L 54.7071 220.97664 
L 54.4095 221.86368 
L 54.1119 222.15936 
L 53.8143 223.34208 
L 53.5167 220.38528 
L 53.2191 220.53312 
L 52.9215 225.264 
L 52.6239 222.75072 
L 52.3263 219.3504 
L 52.0287 220.97664 
L 51.7311 223.48992 
L 51.4335 221.86368 
L 51.1359 223.0464 
L 50.8383 221.568 
L 50.5407 222.3072 
L 50.2431 221.71584 
L 49.9455 222.01152 
L 49.6479 220.8288 
L 49.3503 222.45504 
L 49.0527 221.568 
L 48.7551 221.27232 
L 48.4575 221.568 
L 48.1599 219.20256 
L 47.8623 222.15936 
L 47.5647 220.97664 
L 47.2671 221.42016 
L 46.9695 221.27232 
L 46.6719 222.60288 
L 46.3743 222.3072 
L 46.0767 222.60288 
L 45.7791 221.71584 
L 45.4815 222.01152 
L 45.1839 220.97664 
L 44.8863 221.27232 
L 44.5887 222.60288 
L 44.2911 220.38528 
L 43.9935 221.568 
L 43.6959 221.12448 
L 43.3983 222.45504 
L 43.1007 221.12448 
L 42.8031 220.97664 
L 42.5055 221.27232 
z
" clip-path="url(#p06684e83c6)" style="fill: #1f9a8a; fill-opacity: 0.3"/>
   </g>
   <g id="matplotlib.axis_1">
    <g id="xtick_1">
     <g id="line2d_1">
      <defs>
       <path id="meaaf557055" d="M 0 0 
L 0 3.5 
" style="stroke: #000000; stroke-width: 0.8"/>
      </defs>
      <g>
       <use xlink:href="#meaaf557055" x="33.5775" y="228.96" style="stroke: #000000; stroke-width: 0.8"/>
      </g>
     </g>
     <g id="text_1">
      <text style="font: 6px 'DejaVu Sans', 'Bitstream Vera Sans', 'Computer Modern Sans Serif', 'Lucida Grande', 'Verdana', 'Geneva', 'Lucid', 'Arial', 'Helvetica', 'Avant Garde', sans-serif; text-anchor: middle" x="33.5775" y="240.519062" transform="rotate(-0 33.5775 240.519062)">0</text>
     </g>
    </g>
    <g id="xtick_2">
     <g id="line2d_2">
      <g>
       <use xlink:href="#meaaf557055" x="69.2895" y="228.96" style="stroke: #000000; stroke-width: 0.8"/>
      </g>
     </g>
     <g id="text_2">
      <text style="font: 6px 'DejaVu Sans', 'Bitstream Vera Sans', 'Computer Modern Sans Serif', 'Lucida Grande', 'Verdana', 'Geneva', 'Lucid', 'Arial', 'Helvetica', 'Avant Garde', sans-serif; text-anchor: middle" x="69.2895" y="240.519062" transform="rotate(-0 69.2895 240.519062)">4</text>
     </g>
    </g>
    <g id="xtick_3">
     <g id="line2d_3">
      <g>
       <use xlink:href="#meaaf557055" x="105.0015" y="228.96" style="stroke: #000000; stroke-width: 0.8"/>
      </g>
     </g>
     <g id="text_3">
      <text style="font: 6px 'DejaVu Sans', 'Bitstream Vera Sans', 'Computer Modern Sans Serif', 'Lucida Grande', 'Verdana', 'Geneva', 'Lucid', 'Arial', 'Helvetica', 'Avant Garde', sans-serif; text-anchor: middle" x="105.0015" y="240.519062" transform="rotate(-0 105.0015 240.519062)">8</text>
     </g>
    </g>
    <g id="xtick_4">
     <g id="line2d_4">
      <g>
       <use xlink:href="#meaaf557055" x="140.7135" y="228.96" style="stroke: #000000; stroke-width: 0.8"/>
      </g>
     </g>
     <g id="text_4">
      <text style="font: 6px 'DejaVu Sans', 'Bitstream Vera Sans', 'Computer Modern Sans Serif', 'Lucida Grande', 'Verdana', 'Geneva', 'Lucid', 'Arial', 'Helvetica', 'Avant Garde', sans-serif; text-anchor: middle" x="140.7135" y="240.519062" transform="rotate(-0 140.7135 240.519062)">12</text>
     </g>
    </g>
    <g id="xtick_5">
     <g id="line2d_5">
      <g>
       <use xlink:href="#meaaf557055" x="176.4255" y="228.96" style="stroke: #000000; stroke-width: 0.8"/>
      </g>
     </g>
     <g id="text_5">
      <text style="font: 6px 'DejaVu Sans', 'Bitstream Vera Sans', 'Computer Modern Sans Serif', 'Lucida Grande', 'Verdana', 'Geneva', 'Lucid', 'Arial', 'Helvetica', 'Avant Garde', sans-serif; text-anchor: middle" x="176.4255" y="240.519062" transform="rotate(-0 176.4255 240.519062)">16</text>
     </g>
    </g>
    <g id="xtick_6">
     <g id="line2d_6">
      <g>
       <use xlink:href="#meaaf557055" x="212.1375" y="228.96" style="stroke: #000000; stroke-width: 0.8"/>
      </g>
     </g>
     <g id="text_6">
      <text style="font: 6px 'DejaVu Sans', 'Bitstream Vera Sans', 'Computer Modern Sans Serif', 'Lucida Grande', 'Verdana', 'Geneva', 'Lucid', 'Arial', 'Helvetica', 'Avant Garde', sans-serif; text-anchor: middle" x="212.1375" y="240.519062" transform="rotate(-0 212.1375 240.519062)">20</text>
     </g>
    </g>
    <g id="xtick_7">
     <g id="line2d_7">
      <g>
       <use xlink:href="#meaaf557055" x="247.8495" y="228.96" style="stroke: #000000; stroke-width: 0.8"/>
      </g>
     </g>
     <g id="text_7">
      <text style="font: 6px 'DejaVu Sans', 'Bitstream Vera Sans', 'Computer Modern Sans Serif', 'Lucida Grande', 'Verdana', 'Geneva', 'Lucid', 'Arial', 'Helvetica', 'Avant Garde', sans-serif; text-anchor: middle" x="247.8495" y="240.519062" transform="rotate(-0 247.8495 240.519062)">24</text>
     </g>
    </g>
    <g id="text_8">
     <text style="font: 8px 'DejaVu Sans', 'Bitstream Vera Sans', 'Computer Modern Sans Serif', 'Lucida Grande', 'Verdana', 'Geneva', 'Lucid', 'Arial', 'Helvetica', 'Avant Garde', sans-serif; text-anchor: middle" x="145.1775" y="251.845625" transform="rotate(-0 145.1775 251.845625)">Experimental time (hpf)</text>
    </g>
   </g>
   <g id="matplotlib.axis_2">
    <g id="ytick_1">
     <g id="line2d_8">
      <defs>
       <path id="mf14d07e5b5" d="M 0 0 
L -3.5 0 
" style="stroke: #000000; stroke-width: 0.8"/>
      </defs>
      <g>
       <use xlink:href="#mf14d07e5b5" x="33.5775" y="228.96" style="stroke: #000000; stroke-width: 0.8"/>
      </g>
     </g>
     <g id="text_9">
      <text style="font: 6px 'DejaVu Sans', 'Bitstream Vera Sans', 'Computer Modern Sans Serif', 'Lucida Grande', 'Verdana', 'Geneva', 'Lucid', 'Arial', 'Helvetica', 'Avant Garde', sans-serif; text-anchor: end" x="26.5775" y="231.239531" transform="rotate(-0 26.5775 231.239531)">0</text>
     </g>
    </g>
    <g id="ytick_2">
     <g id="line2d_9">
      <g>
       <use xlink:href="#mf14d07e5b5" x="33.5775" y="193.4784" style="stroke: #000000; stroke-width: 0.8"/>
      </g>
     </g>
     <g id="text_10">
      <text style="font: 6px 'DejaVu Sans', 'Bitstream Vera Sans', 'Computer Modern Sans Serif', 'Lucida Grande', 'Verdana', 'Geneva', 'Lucid', 'Arial', 'Helvetica', 'Avant Garde', sans-serif; text-anchor: end" x="26.5775" y="195.757931" transform="rotate(-0 26.5775 195.757931)">4</text>
     </g>
    </g>
    <g id="ytick_3">
     <g id="line2d_10">
      <g>
       <use xlink:href="#mf14d07e5b5" x="33.5775" y="157.9968" style="stroke: #000000; stroke-width: 0.8"/>
      </g>
     </g>
     <g id="text_11">
      <text style="font: 6px 'DejaVu Sans', 'Bitstream Vera Sans', 'Computer Modern Sans Serif', 'Lucida Grande', 'Verdana', 'Geneva', 'Lucid', 'Arial', 'Helvetica', 'Avant Garde', sans-serif; text-anchor: end" x="26.5775" y="160.276331" transform="rotate(-0 26.5775 160.276331)">8</text>
     </g>
    </g>
    <g id="ytick_4">
     <g id="line2d_11">
      <g>
       <use xlink:href="#mf14d07e5b5" x="33.5775" y="122.5152" style="stroke: #000000; stroke-width: 0.8"/>
      </g>
     </g>
     <g id="text_12">
      <text style="font: 6px 'DejaVu Sans', 'Bitstream Vera Sans', 'Computer Modern Sans Serif', 'Lucida Grande', 'Verdana', 'Geneva', 'Lucid', 'Arial', 'Helvetica', 'Avant Garde', sans-serif; text-anchor: end" x="26.5775" y="124.794731" transform="rotate(-0 26.5775 124.794731)">12</text>
     </g>
    </g>
    <g id="ytick_5">
     <g id="line2d_12">
      <g>
       <use xlink:href="#mf14d07e5b5" x="33.5775" y="87.0336" style="stroke: #000000; stroke-width: 0.8"/>
      </g>
     </g>
     <g id="text_13">
      <text style="font: 6px 'DejaVu Sans', 'Bitstream Vera Sans', 'Computer Modern Sans Serif', 'Lucida Grande', 'Verdana', 'Geneva', 'Lucid', 'Arial', 'Helvetica', 'Avant Garde', sans-serif; text-anchor: end" x="26.5775" y="89.313131" transform="rotate(-0 26.5775 89.313131)">16</text>
     </g>
    </g>
    <g id="ytick_6">
     <g id="line2d_13">
      <g>
       <use xlink:href="#mf14d07e5b5" x="33.5775" y="51.552" style="stroke: #000000; stroke-width: 0.8"/>
      </g>
     </g>
     <g id="text_14">
      <text style="font: 6px 'DejaVu Sans', 'Bitstream Vera Sans', 'Computer Modern Sans Serif', 'Lucida Grande', 'Verdana', 'Geneva', 'Lucid', 'Arial', 'Helvetica', 'Avant Garde', sans-serif; text-anchor: end" x="26.5775" y="53.831531" transform="rotate(-0 26.5775 53.831531)">20</text>
     </g>
    </g>
    <g id="ytick_7">
     <g id="line2d_14">
      <g>
       <use xlink:href="#mf14d07e5b5" x="33.5775" y="16.0704" style="stroke: #000000; stroke-width: 0.8"/>
      </g>
     </g>
     <g id="text_15">
      <text style="font: 6px 'DejaVu Sans', 'Bitstream Vera Sans', 'Computer Modern Sans Serif', 'Lucida Grande', 'Verdana', 'Geneva', 'Lucid', 'Arial', 'Helvetica', 'Avant Garde', sans-serif; text-anchor: end" x="26.5775" y="18.349931" transform="rotate(-0 26.5775 18.349931)">24</text>
     </g>
    </g>
    <g id="text_16">
     <text style="font: 8px 'DejaVu Sans', 'Bitstream Vera Sans', 'Computer Modern Sans Serif', 'Lucida Grande', 'Verdana', 'Geneva', 'Lucid', 'Arial', 'Helvetica', 'Avant Garde', sans-serif; text-anchor: middle" x="13.27875" y="118.08" transform="rotate(-90 13.27875 118.08)">Developmental age (hpf)</text>
    </g>
   </g>
   <g id="line2d_15">
    <path d="M 42.5055 220.0896 
L 256.7775 14.913747 
L 256.7775 14.913747 
" clip-path="url(#p06684e83c6)" style="fill: none; stroke: #1f9a8a; stroke-linecap: square"/>
   </g>
   <g id="line2d_16">
    <path d="M 42.5055 220.0896 
L 256.7775 22.395578 
L 256.7775 22.395578 
" clip-path="url(#p06684e83c6)" style="fill: none; stroke-dasharray: 3.7,1.6; stroke-dashoffset: 0; stroke: #1f9a8a"/>
   </g>
   <g id="line2d_17">
    <path d="M 42.5055 220.0896 
L 256.7775 9.497943 
L 256.7775 9.497943 
" clip-path="url(#p06684e83c6)" style="fill: none; stroke-dasharray: 3.7,1.6; stroke-dashoffset: 0; stroke: #1f9a8a"/>
   </g>
   <g id="patch_3">
    <path d="M 33.5775 228.96 
L 33.5775 7.2 
" style="fill: none; stroke: #000000; stroke-width: 0.8; stroke-linejoin: miter; stroke-linecap: square"/>
   </g>
   <g id="patch_4">
    <path d="M 33.5775 228.96 
L 256.7775 228.96 
" style="fill: none; stroke: #000000; stroke-width: 0.8; stroke-linejoin: miter; stroke-linecap: square"/>
   </g>
   <g id="legend_1">
    <g id="patch_5">
     <path d="M 37.6305 28.829269 
L 196.698989 28.829269 
Q 197.856989 28.829269 197.856989 27.671269 
L 197.856989 11.253 
Q 197.856989 10.095 196.698989 10.095 
L 37.6305 10.095 
Q 36.4725 10.095 36.4725 11.253 
L 36.4725 27.671269 
Q 36.4725 28.829269 37.6305 28.829269 
z
" style="fill: #ffffff; opacity: 0.8; stroke: #cccccc; stroke-linejoin: miter"/>
    </g>
    <g id="line2d_18">
     <path d="M 38.7885 14.783995 
L 44.5785 14.783995 
L 50.3685 14.783995 
" style="fill: none; stroke: #1f9a8a; stroke-linecap: square"/>
    </g>
    <g id="text_17">
     <text style="font: 5.79px 'DejaVu Sans', 'Bitstream Vera Sans', 'Computer Modern Sans Serif', 'Lucida Grande', 'Verdana', 'Geneva', 'Lucid', 'Arial', 'Helvetica', 'Avant Garde', sans-serif; text-anchor: start" x="55.0005" y="16.810495" transform="rotate(-0 55.0005 16.810495)">Linear fit: slope=0.963 [0.929,0.989], R2=0.979</text>
    </g>
    <g id="patch_6">
     <path d="M 38.7885 25.30913 
L 50.3685 25.30913 
L 50.3685 21.25613 
L 38.7885 21.25613 
z
" style="fill: #1f9a8a; fill-opacity: 0.3"/>
    </g>
    <g id="text_18">
     <text style="font: 5.79px 'DejaVu Sans', 'Bitstream Vera Sans', 'Computer Modern Sans Serif', 'Lucida Grande', 'Verdana', 'Geneva', 'Lucid', 'Arial', 'Helvetica', 'Avant Garde', sans-serif; text-anchor: start" x="55.0005" y="25.30913" transform="rotate(-0 55.0005 25.30913)">Median:28.0C</text>
    </g>
   </g>
  </g>
 </g>
 <defs>
  <clipPath id="p06684e83c6">
   <rect x="33.5775" y="7.2" width="223.2" height="221.76"/>
  </clipPath>
 </defs>
</svg>
