<?xml version="1.0" encoding="utf-8" standalone="no"?>
<!DOCTYPE svg PUBLIC "-//W3C//DTD SVG 1.1//EN"
  "http://www.w3.org/Graphics/SVG/1.1/DTD/svg11.dtd">
<svg xmlns:xlink="http://www.w3.org/1999/xlink" width="263.9775pt" height="260.709375pt" viewBox="0 0 263.9775 260.709375" xmlns="http://www.w3.org/2000/svg" version="1.1">
 <metadata>
  <rdf:RDF xmlns:dc="http://purl.org/dc/elements/1.1/" xmlns:cc="http://creativecommons.org/ns#" xmlns:rdf="http://www.w3.org/1999/02/22-rdf-syntax-ns#">
   <cc:Work>
    <dc:type rdf:resource="http://purl.org/dc/dcmitype/StillImage"/>
    <dc:date>2023-07-28T13:07:08.731822</dc:date>
    <dc:format>image/svg+xml</dc:format>
    <dc:creator>
     <cc:Agent>
      <dc:title>Matplotlib v3.7.0, https://matplotlib.org/</dc:title>
     </cc:Agent>
    </dc:creator>
   </cc:Work>
  </rdf:RDF>
 </metadata>
 <defs>
  <style type="text/css">*{stroke-linejoin: round; stroke-linecap: butt}</style>
 </defs>
 <g id="figure_1">
  <g id="patch_1">
   <path d="M 0 260.709375 
L 263.9775 260.709375 
L 263.9775 0 
L 0 0 
z
" style="fill: #ffffff"/>
  </g>
  <g id="axes_1">
   <g id="patch_2">
    <path d="M 33.5775 228.96 
L 256.7775 228.96 
L 256.7775 7.2 
L 33.5775 7.2 
z
" style="fill: #ffffff"/>
   </g>
   <g id="PolyCollection_1">
    <path d="M 42.5055 223.93344 
L 42.5055 207.37536 
L 42.8031 212.6976 
L 43.1007 210.33216 
L 43.3983 207.37536 
L 43.6959 211.51488 
L 43.9935 213.88032 
L 44.2911 213.58464 
L 44.5887 211.81056 
L 44.8863 207.96672 
L 45.1839 211.81056 
L 45.4815 203.53152 
L 45.7791 209.44512 
L 46.0767 210.92352 
L 46.3743 211.2192 
L 46.6719 203.23584 
L 46.9695 209.14944 
L 47.2671 207.67104 
L 47.5647 203.53152 
L 47.8623 202.05312 
L 48.1599 207.37536 
L 48.4575 206.48832 
L 48.7551 202.05312 
L 49.0527 197.9136 
L 49.3503 198.50496 
L 49.6479 189.33888 
L 49.9455 192.29568 
L 50.2431 176.32896 
L 50.5407 181.94688 
L 50.8383 192.59136 
L 51.1359 191.11296 
L 51.4335 191.40864 
L 51.7311 186.97344 
L 52.0287 183.72096 
L 52.3263 194.66112 
L 52.6239 191.11296 
L 52.9215 193.4784 
L 53.2191 190.81728 
L 53.5167 187.86048 
L 53.8143 183.42528 
L 54.1119 191.11296 
L 54.4095 189.63456 
L 54.7071 185.19936 
L 55.0047 186.0864 
L 55.3023 182.24256 
L 55.5999 169.23264 
L 55.8975 165.98016 
L 56.1951 182.83392 
L 56.4927 168.64128 
L 56.7903 173.96352 
L 57.0879 185.79072 
L 57.3855 181.94688 
L 57.6831 176.03328 
L 57.9807 190.5216 
L 58.2783 181.94688 
L 58.5759 188.45184 
L 58.8735 179.87712 
L 59.1711 181.6512 
L 59.4687 183.72096 
L 59.7663 184.01664 
L 60.0639 169.23264 
L 60.3615 185.79072 
L 60.6591 178.99008 
L 60.9567 179.87712 
L 61.2543 176.62464 
L 61.5519 185.19936 
L 61.8495 176.32896 
L 62.1471 173.07648 
L 62.4447 180.1728 
L 62.7423 172.7808 
L 63.0399 180.1728 
L 63.3375 173.96352 
L 63.6351 175.7376 
L 63.9327 179.87712 
L 64.2303 177.51168 
L 64.5279 173.66784 
L 64.8255 172.7808 
L 65.1231 181.94688 
L 65.4207 169.824 
L 65.7183 168.3456 
L 66.0159 169.52832 
L 66.3135 170.71104 
L 66.6111 163.9104 
L 66.9087 171.89376 
L 67.2063 167.16288 
L 67.5039 171.00672 
L 67.8015 160.06656 
L 68.0991 169.52832 
L 68.3967 159.17952 
L 68.6943 160.9536 
L 68.9919 173.37216 
L 69.2895 165.68448 
L 69.5871 173.37216 
L 69.8847 162.432 
L 70.1823 163.31904 
L 70.4799 154.44864 
L 70.7775 165.3888 
L 71.0751 163.9104 
L 71.3727 163.02336 
L 71.6703 146.46528 
L 71.9679 147.648 
L 72.2655 137.59488 
L 72.5631 131.3856 
L 72.8607 120.44544 
L 73.1583 135.22944 
L 73.4559 159.4752 
L 73.7535 132.27264 
L 74.0511 156.22272 
L 74.3487 129.9072 
L 74.6463 136.41216 
L 74.9439 139.36896 
L 75.2415 122.5152 
L 75.5391 142.62144 
L 75.8367 140.84736 
L 76.1343 148.83072 
L 76.4319 158.88384 
L 76.7295 146.46528 
L 77.0271 131.3856 
L 77.3247 135.52512 
L 77.6223 127.83744 
L 77.9199 132.56832 
L 78.2175 152.67456 
L 78.5151 146.1696 
L 78.8127 145.28256 
L 79.1103 142.91712 
L 79.4079 129.61152 
L 79.7055 139.96032 
L 80.0031 127.83744 
L 80.3007 123.40224 
L 80.5983 139.07328 
L 80.8959 138.48192 
L 81.1935 129.02016 
L 81.4911 142.32576 
L 81.7887 137.2992 
L 82.0863 133.75104 
L 82.3839 130.20288 
L 82.6815 139.07328 
L 82.9791 147.94368 
L 83.2767 140.55168 
L 83.5743 134.3424 
L 83.8719 118.96704 
L 84.1695 118.67136 
L 84.4671 123.40224 
L 84.7647 132.864 
L 85.0623 134.3424 
L 85.3599 135.22944 
L 85.6575 136.11648 
L 85.9551 143.2128 
L 86.2527 135.8208 
L 86.5503 130.49856 
L 86.8479 131.08992 
L 87.1455 129.02016 
L 87.4431 134.63808 
L 87.7407 130.79424 
L 88.0383 128.72448 
L 88.3359 123.69792 
L 88.6335 119.85408 
L 88.9311 127.83744 
L 89.2287 126.9504 
L 89.5263 128.13312 
L 89.8239 140.256 
L 90.1215 145.57824 
L 90.4191 134.63808 
L 90.7167 123.69792 
L 91.0143 140.256 
L 91.3119 130.79424 
L 91.6095 142.91712 
L 91.9071 120.44544 
L 92.2047 120.74112 
L 92.5023 149.42208 
L 92.7999 131.97696 
L 93.0975 137.89056 
L 93.3951 131.97696 
L 93.6927 146.1696 
L 93.9903 126.9504 
L 94.2879 128.72448 
L 94.5855 128.72448 
L 94.8831 121.33248 
L 95.1807 124.58496 
L 95.4783 129.31584 
L 95.7759 132.864 
L 96.0735 118.67136 
L 96.3711 139.07328 
L 96.6687 128.13312 
L 96.9663 129.31584 
L 97.2639 130.20288 
L 97.5615 126.9504 
L 97.8591 127.83744 
L 98.1567 122.5152 
L 98.4543 124.28928 
L 98.7519 125.17632 
L 99.0495 137.2992 
L 99.3471 129.9072 
L 99.6447 137.00352 
L 99.9423 122.5152 
L 100.2399 133.15968 
L 100.5375 130.20288 
L 100.8351 133.45536 
L 101.1327 125.472 
L 101.4303 121.92384 
L 101.7279 118.96704 
L 102.0255 129.31584 
L 102.3231 128.13312 
L 102.6207 117.48864 
L 102.9183 106.84416 
L 103.2159 113.6448 
L 103.5135 119.5584 
L 103.8111 109.50528 
L 104.1087 104.7744 
L 104.4063 106.54848 
L 104.7039 112.1664 
L 105.0015 106.2528 
L 105.2991 108.61824 
L 105.5967 107.43552 
L 105.8943 103.88736 
L 106.1919 90.58176 
L 106.4895 106.2528 
L 106.7871 144.09984 
L 107.0847 93.83424 
L 107.3823 84.37248 
L 107.6799 96.19968 
L 107.9775 84.96384 
L 108.2751 99.74784 
L 108.5727 79.34592 
L 108.8703 86.73792 
L 109.1679 47.70816 
L 109.4655 60.4224 
L 109.7631 80.52864 
L 110.0607 84.66816 
L 110.3583 59.53536 
L 110.6559 54.5088 
L 110.9535 47.41248 
L 111.2511 37.35936 
L 111.5487 40.61184 
L 111.8463 22.57536 
L 112.1439 27.30624 
L 112.4415 32.62848 
L 112.7391 71.36256 
L 113.0367 75.2064 
L 113.3343 57.76128 
L 113.6319 29.376 
L 113.9295 48.00384 
L 114.2271 82.30272 
L 114.5247 92.9472 
L 114.8223 51.84768 
L 115.1199 63.3792 
L 115.4175 94.12992 
L 115.7151 68.40576 
L 116.0127 104.7744 
L 116.3103 32.3328 
L 116.6079 8.97408 
L 116.9055 -2.55744 
L 117.2031 28.19328 
L 117.5007 86.14656 
L 117.7983 45.93408 
L 118.0959 95.60832 
L 118.3935 11.93088 
L 118.6911 91.4688 
L 118.9887 101.52192 
L 119.2863 95.01696 
L 119.5839 28.78464 
L 119.8815 105.07008 
L 120.1791 45.93408 
L 120.4767 96.19968 
L 120.7743 92.9472 
L 121.0719 62.49216 
L 121.3695 73.13664 
L 121.6671 80.23296 
L 121.9647 104.18304 
L 122.2623 99.15648 
L 122.5599 92.9472 
L 122.8575 93.24288 
L 123.1551 100.3392 
L 123.4527 73.43232 
L 123.7503 66.336 
L 124.0479 95.904 
L 124.3455 86.14656 
L 124.6431 72.54528 
L 124.9407 103.00032 
L 125.2383 64.26624 
L 125.5359 92.35584 
L 125.8335 79.93728 
L 126.1311 84.0768 
L 126.4287 49.18656 
L 126.7263 98.26944 
L 127.0239 82.00704 
L 127.3215 33.21984 
L 127.6191 86.14656 
L 127.9167 58.64832 
L 128.2143 70.47552 
L 128.5119 48.00384 
L 128.8095 76.38912 
L 129.1071 72.54528 
L 129.4047 73.13664 
L 129.7023 53.32608 
L 129.9999 86.14656 
L 130.2975 72.54528 
L 130.5951 77.57184 
L 130.8927 74.31936 
L 131.1903 78.1632 
L 131.4879 78.45888 
L 131.7855 74.31936 
L 132.0831 73.43232 
L 132.3807 26.4192 
L 132.6783 70.47552 
L 132.9759 66.92736 
L 133.2735 68.99712 
L 133.5711 71.06688 
L 133.8687 60.12672 
L 134.1663 71.65824 
L 134.4639 64.56192 
L 134.7615 68.70144 
L 135.0591 76.6848 
L 135.3567 61.01376 
L 135.6543 71.65824 
L 135.9519 89.39904 
L 136.2495 71.36256 
L 136.5471 68.99712 
L 136.8447 64.26624 
L 137.1423 51.552 
L 137.4399 67.8144 
L 137.7375 62.19648 
L 138.0351 74.91072 
L 138.3327 62.49216 
L 138.6303 59.23968 
L 138.9279 66.63168 
L 139.2255 59.23968 
L 139.5231 50.36928 
L 139.8207 60.12672 
L 140.1183 58.64832 
L 140.4159 58.64832 
L 140.7135 54.21312 
L 141.0111 65.44896 
L 141.3087 70.47552 
L 141.6063 70.17984 
L 141.9039 75.50208 
L 142.2015 74.31936 
L 142.4991 58.35264 
L 142.7967 46.52544 
L 143.0943 68.40576 
L 143.3919 46.52544 
L 143.6895 70.47552 
L 143.9871 59.83104 
L 144.2847 53.91744 
L 144.5823 72.2496 
L 144.8799 60.71808 
L 145.1775 57.76128 
L 145.4751 76.98048 
L 145.7727 69.58848 
L 146.0703 67.22304 
L 146.3679 60.12672 
L 146.6655 59.53536 
L 146.9631 61.60512 
L 147.2607 73.728 
L 147.5583 64.26624 
L 147.8559 59.83104 
L 148.1535 61.9008 
L 148.4511 58.944 
L 148.7487 72.84096 
L 149.0463 75.79776 
L 149.3439 50.0736 
L 149.6415 66.92736 
L 149.9391 72.2496 
L 150.2367 68.40576 
L 150.5343 54.80448 
L 150.8319 60.4224 
L 151.1295 69.2928 
L 151.4271 66.63168 
L 151.7247 69.2928 
L 152.0223 64.26624 
L 152.3199 71.06688 
L 152.6175 60.12672 
L 152.9151 55.69152 
L 153.2127 58.64832 
L 153.5103 55.9872 
L 153.8079 45.6384 
L 154.1055 55.9872 
L 154.4031 60.71808 
L 154.7007 61.60512 
L 154.9983 52.14336 
L 155.2959 55.9872 
L 155.5935 49.77792 
L 155.8911 58.05696 
L 156.1887 47.70816 
L 156.4863 54.80448 
L 156.7839 53.62176 
L 157.0815 53.62176 
L 157.3791 68.99712 
L 157.6767 55.9872 
L 157.9743 52.14336 
L 158.2719 53.62176 
L 158.5695 58.35264 
L 158.8671 66.336 
L 159.1647 53.32608 
L 159.4623 51.25632 
L 159.7599 56.28288 
L 160.0575 65.15328 
L 160.3551 65.15328 
L 160.6527 45.34272 
L 160.9503 59.53536 
L 161.2479 66.336 
L 161.5455 61.60512 
L 161.8431 51.25632 
L 162.1407 49.18656 
L 162.4383 35.2896 
L 162.7359 53.62176 
L 163.0335 49.18656 
L 163.3311 54.21312 
L 163.6287 40.61184 
L 163.9263 70.47552 
L 164.2239 58.05696 
L 164.5215 55.39584 
L 164.8191 71.65824 
L 165.1167 45.04704 
L 165.4143 46.22976 
L 165.7119 47.70816 
L 166.0095 59.23968 
L 166.3071 54.21312 
L 166.6047 51.552 
L 166.9023 40.90752 
L 167.1999 42.97728 
L 167.4975 41.79456 
L 167.7951 37.06368 
L 168.0927 49.77792 
L 168.3903 42.97728 
L 168.6879 34.69824 
L 168.9855 46.22976 
L 169.2831 31.44576 
L 169.5807 39.13344 
L 169.8783 57.16992 
L 170.1759 38.2464 
L 170.4735 44.75136 
L 170.7711 45.93408 
L 171.0687 54.5088 
L 171.3663 32.92416 
L 171.6639 38.83776 
L 171.9615 32.03712 
L 172.2591 41.79456 
L 172.5567 35.58528 
L 172.8543 38.83776 
L 173.1519 30.26304 
L 173.4495 35.2896 
L 173.7471 16.0704 
L 174.0447 56.57856 
L 174.3423 24.05376 
L 174.6399 31.15008 
L 174.9375 32.03712 
L 175.2351 26.12352 
L 175.5327 23.4624 
L 175.8303 40.61184 
L 176.1279 21.984 
L 176.4255 32.3328 
L 176.7231 5.7216 
L 177.0207 -1.07904 
L 177.3183 32.3328 
L 177.6159 13.1136 
L 177.9135 20.5056 
L 178.2111 4.83456 
L 178.5087 11.33952 
L 178.8063 18.73152 
L 179.1039 8.6784 
L 179.4015 15.77472 
L 179.6991 27.30624 
L 179.9967 15.18336 
L 180.2943 28.48896 
L 180.5919 17.84448 
L 180.8895 19.0272 
L 181.1871 16.66176 
L 181.4847 10.1568 
L 181.7823 -3.1488 
L 182.0799 8.97408 
L 182.3775 10.1568 
L 182.6751 17.5488 
L 182.9727 17.5488 
L 183.2703 9.26976 
L 183.5679 -0.48768 
L 183.8655 11.04384 
L 184.1631 11.33952 
L 184.4607 9.56544 
L 184.7583 32.92416 
L 185.0559 16.36608 
L 185.3535 3.65184 
L 185.6511 13.1136 
L 185.9487 16.66176 
L 186.2463 3.65184 
L 186.5439 3.35616 
L 186.8415 7.79136 
L 187.1391 0.99072 
L 187.4367 7.2 
L 187.7343 7.79136 
L 188.0319 10.45248 
L 188.3295 3.65184 
L 188.6271 6.90432 
L 188.9247 15.18336 
L 189.2223 10.45248 
L 189.5199 16.36608 
L 189.8175 12.22656 
L 190.1151 -12.0192 
L 190.4127 -20.29824 
L 190.7103 19.32288 
L 191.0079 -5.21856 
L 191.3055 -13.4976 
L 191.6031 -7.584 
L 191.9007 10.1568 
L 192.1983 8.38272 
L 192.4959 5.13024 
L 192.7935 17.25312 
L 193.0911 5.7216 
L 193.3887 16.36608 
L 193.6863 6.60864 
L 193.9839 11.04384 
L 194.2815 6.60864 
L 194.5791 15.47904 
L 194.8767 -1.6704 
L 195.1743 14.00064 
L 195.4719 7.79136 
L 195.7695 3.65184 
L 196.0671 9.56544 
L 196.3647 1.87776 
L 196.6623 10.1568 
L 196.9599 -9.65376 
L 197.2575 8.38272 
L 197.5551 -10.5408 
L 197.8527 -3.74016 
L 198.1503 -19.4112 
L 198.4479 -6.40128 
L 198.7455 6.90432 
L 199.0431 15.47904 
L 199.3407 13.70496 
L 199.6383 -10.83648 
L 199.9359 -1.07904 
L 200.2335 2.46912 
L 200.5311 -1.96608 
L 200.8287 0.69504 
L 201.1263 4.2432 
L 201.4239 -4.6272 
L 201.7215 -5.80992 
L 202.0191 9.86112 
L 202.3167 -6.1056 
L 202.6143 -16.15872 
L 202.9119 -6.1056 
L 202.9119 94.4256 
L 202.9119 94.4256 
L 202.6143 98.56512 
L 202.3167 105.07008 
L 202.0191 91.4688 
L 201.7215 91.17312 
L 201.4239 104.18304 
L 201.1263 87.0336 
L 200.8287 81.12 
L 200.5311 109.2096 
L 200.2335 81.71136 
L 199.9359 78.1632 
L 199.6383 106.2528 
L 199.3407 76.38912 
L 199.0431 84.0768 
L 198.7455 94.4256 
L 198.4479 102.40896 
L 198.1503 130.79424 
L 197.8527 100.3392 
L 197.5551 93.53856 
L 197.2575 72.2496 
L 196.9599 105.07008 
L 196.6623 76.38912 
L 196.3647 88.21632 
L 196.0671 73.43232 
L 195.7695 82.89408 
L 195.4719 74.02368 
L 195.1743 69.58848 
L 194.8767 94.12992 
L 194.5791 75.79776 
L 194.2815 87.0336 
L 193.9839 74.91072 
L 193.6863 85.85088 
L 193.3887 88.512 
L 193.0911 101.52192 
L 192.7935 85.85088 
L 192.4959 95.01696 
L 192.1983 103.00032 
L 191.9007 76.38912 
L 191.6031 115.41888 
L 191.3055 115.41888 
L 191.0079 94.12992 
L 190.7103 73.728 
L 190.4127 126.35904 
L 190.1151 108.61824 
L 189.8175 96.19968 
L 189.5199 100.3392 
L 189.2223 88.512 
L 188.9247 83.78112 
L 188.6271 103.88736 
L 188.3295 103.00032 
L 188.0319 77.86752 
L 187.7343 78.75456 
L 187.4367 92.35584 
L 187.1391 101.52192 
L 186.8415 101.22624 
L 186.5439 112.1664 
L 186.2463 114.82752 
L 185.9487 95.904 
L 185.6511 87.62496 
L 185.3535 105.36576 
L 185.0559 99.15648 
L 184.7583 81.41568 
L 184.4607 97.08672 
L 184.1631 113.05344 
L 183.8655 113.94048 
L 183.5679 124.88064 
L 183.2703 127.54176 
L 182.9727 109.80096 
L 182.6751 109.80096 
L 182.3775 109.50528 
L 182.0799 88.21632 
L 181.7823 126.9504 
L 181.4847 85.85088 
L 181.1871 127.83744 
L 180.8895 111.27936 
L 180.5919 101.8176 
L 180.2943 117.19296 
L 179.9967 109.80096 
L 179.6991 114.82752 
L 179.4015 121.0368 
L 179.1039 121.0368 
L 178.8063 110.98368 
L 178.5087 115.41888 
L 178.2111 105.36576 
L 177.9135 105.66144 
L 177.6159 113.6448 
L 177.3183 99.74784 
L 177.0207 126.65472 
L 176.7231 122.81088 
L 176.4255 136.41216 
L 176.1279 130.79424 
L 175.8303 110.39232 
L 175.5327 132.27264 
L 175.2351 110.09664 
L 174.9375 99.45216 
L 174.6399 132.864 
L 174.3423 135.22944 
L 174.0447 118.08 
L 173.7471 117.78432 
L 173.4495 105.07008 
L 173.1519 120.14976 
L 172.8543 112.1664 
L 172.5567 110.09664 
L 172.2591 125.76768 
L 171.9615 111.27936 
L 171.6639 125.17632 
L 171.3663 107.43552 
L 171.0687 123.10656 
L 170.7711 103.88736 
L 170.4735 114.53184 
L 170.1759 110.39232 
L 169.8783 117.48864 
L 169.5807 110.09664 
L 169.2831 107.13984 
L 168.9855 110.09664 
L 168.6879 117.48864 
L 168.3903 108.02688 
L 168.0927 112.46208 
L 167.7951 115.1232 
L 167.4975 113.94048 
L 167.1999 113.94048 
L 166.9023 124.88064 
L 166.6047 117.78432 
L 166.3071 122.81088 
L 166.0095 117.19296 
L 165.7119 109.2096 
L 165.4143 108.91392 
L 165.1167 108.91392 
L 164.8191 110.688 
L 164.5215 109.80096 
L 164.2239 116.01024 
L 163.9263 111.87072 
L 163.6287 104.47872 
L 163.3311 114.53184 
L 163.0335 102.40896 
L 162.7359 123.40224 
L 162.4383 110.98368 
L 162.1407 118.96704 
L 161.8431 110.39232 
L 161.5455 125.472 
L 161.2479 111.27936 
L 160.9503 119.85408 
L 160.6527 122.21952 
L 160.3551 113.6448 
L 160.0575 119.5584 
L 159.7599 124.88064 
L 159.4623 117.48864 
L 159.1647 114.82752 
L 158.8671 112.46208 
L 158.5695 117.48864 
L 158.2719 106.84416 
L 157.9743 120.74112 
L 157.6767 116.30592 
L 157.3791 119.85408 
L 157.0815 113.94048 
L 156.7839 105.66144 
L 156.4863 116.30592 
L 156.1887 124.58496 
L 155.8911 112.46208 
L 155.5935 117.19296 
L 155.2959 119.85408 
L 154.9983 121.92384 
L 154.7007 120.74112 
L 154.4031 117.48864 
L 154.1055 117.48864 
L 153.8079 117.78432 
L 153.5103 113.94048 
L 153.2127 114.23616 
L 152.9151 116.01024 
L 152.6175 118.08 
L 152.3199 111.27936 
L 152.0223 122.21952 
L 151.7247 120.14976 
L 151.4271 111.57504 
L 151.1295 126.06336 
L 150.8319 119.5584 
L 150.5343 125.76768 
L 150.2367 122.81088 
L 149.9391 123.10656 
L 149.6415 118.96704 
L 149.3439 126.9504 
L 149.0463 121.92384 
L 148.7487 124.88064 
L 148.4511 120.44544 
L 148.1535 125.76768 
L 147.8559 123.69792 
L 147.5583 126.9504 
L 147.2607 121.0368 
L 146.9631 124.28928 
L 146.6655 123.40224 
L 146.3679 123.9936 
L 146.0703 121.62816 
L 145.7727 116.89728 
L 145.4751 125.472 
L 145.1775 137.00352 
L 144.8799 117.48864 
L 144.5823 125.472 
L 144.2847 134.3424 
L 143.9871 115.41888 
L 143.6895 126.06336 
L 143.3919 132.864 
L 143.0943 140.55168 
L 142.7967 135.22944 
L 142.4991 142.32576 
L 142.2015 114.53184 
L 141.9039 126.35904 
L 141.6063 132.864 
L 141.3087 127.24608 
L 141.0111 137.59488 
L 140.7135 137.00352 
L 140.4159 131.97696 
L 140.1183 130.79424 
L 139.8207 135.8208 
L 139.5231 143.80416 
L 139.2255 136.11648 
L 138.9279 137.59488 
L 138.6303 138.48192 
L 138.3327 138.18624 
L 138.0351 141.14304 
L 137.7375 126.06336 
L 137.4399 134.04672 
L 137.1423 143.80416 
L 136.8447 138.7776 
L 136.5471 141.14304 
L 136.2495 143.50848 
L 135.9519 135.52512 
L 135.6543 134.3424 
L 135.3567 141.43872 
L 135.0591 146.46528 
L 134.7615 140.84736 
L 134.4639 140.256 
L 134.1663 137.89056 
L 133.8687 144.09984 
L 133.5711 140.84736 
L 133.2735 152.97024 
L 132.9759 152.0832 
L 132.6783 155.63136 
L 132.3807 156.5184 
L 132.0831 145.57824 
L 131.7855 140.55168 
L 131.4879 145.87392 
L 131.1903 145.57824 
L 130.8927 146.46528 
L 130.5951 143.80416 
L 130.2975 148.23936 
L 129.9999 146.46528 
L 129.7023 185.79072 
L 129.4047 150.01344 
L 129.1071 158.88384 
L 128.8095 162.72768 
L 128.5119 172.18944 
L 128.2143 157.9968 
L 127.9167 169.824 
L 127.6191 141.7344 
L 127.3215 195.25248 
L 127.0239 157.70112 
L 126.7263 134.93376 
L 126.4287 192.29568 
L 126.1311 155.04 
L 125.8335 161.54496 
L 125.5359 139.66464 
L 125.2383 165.98016 
L 124.9407 131.3856 
L 124.6431 156.5184 
L 124.3455 153.5616 
L 124.0479 138.48192 
L 123.7503 168.04992 
L 123.4527 146.76096 
L 123.1551 139.36896 
L 122.8575 147.648 
L 122.5599 141.43872 
L 122.2623 128.72448 
L 121.9647 134.93376 
L 121.6671 157.10976 
L 121.3695 163.02336 
L 121.0719 177.216 
L 120.7743 152.0832 
L 120.4767 143.50848 
L 120.1791 193.77408 
L 119.8815 135.8208 
L 119.5839 207.37536 
L 119.2863 144.6912 
L 118.9887 150.01344 
L 118.6911 148.23936 
L 118.3935 234.28224 
L 118.0959 145.28256 
L 117.7983 197.32224 
L 117.5007 153.5616 
L 117.2031 219.79392 
L 116.9055 244.63104 
L 116.6079 243.15264 
L 116.3103 203.8272 
L 116.0127 141.43872 
L 115.7151 174.85056 
L 115.4175 157.9968 
L 115.1199 193.4784 
L 114.8223 190.22592 
L 114.5247 154.44864 
L 114.2271 162.72768 
L 113.9295 208.85376 
L 113.6319 219.79392 
L 113.3343 190.22592 
L 113.0367 184.01664 
L 112.7391 183.72096 
L 112.4415 230.14272 
L 112.1439 227.18592 
L 111.8463 231.9168 
L 111.5487 229.84704 
L 111.2511 226.59456 
L 110.9535 227.18592 
L 110.6559 212.99328 
L 110.3583 219.20256 
L 110.0607 179.28576 
L 109.7631 189.33888 
L 109.4655 202.3488 
L 109.1679 218.01984 
L 108.8703 168.3456 
L 108.5727 197.61792 
L 108.2751 164.79744 
L 107.9775 184.31232 
L 107.6799 174.2592 
L 107.3823 194.36544 
L 107.0847 170.71104 
L 106.7871 203.23584 
L 106.4895 206.784 
L 106.1919 189.93024 
L 105.8943 202.05312 
L 105.5967 198.50496 
L 105.2991 197.32224 
L 105.0015 187.86048 
L 104.7039 202.05312 
L 104.4063 196.4352 
L 104.1087 195.84384 
L 103.8111 182.83392 
L 103.5135 196.4352 
L 103.2159 194.06976 
L 102.9183 193.18272 
L 102.6207 200.27904 
L 102.3231 193.18272 
L 102.0255 202.64448 
L 101.7279 184.01664 
L 101.4303 197.61792 
L 101.1327 190.5216 
L 100.8351 181.94688 
L 100.5375 198.80064 
L 100.2399 188.74752 
L 99.9423 184.01664 
L 99.6447 181.94688 
L 99.3471 183.1296 
L 99.0495 197.61792 
L 98.7519 193.77408 
L 98.4543 181.05984 
L 98.1567 193.4784 
L 97.8591 192.88704 
L 97.5615 194.36544 
L 97.2639 186.97344 
L 96.9663 196.73088 
L 96.6687 196.73088 
L 96.3711 193.4784 
L 96.0735 201.46176 
L 95.7759 194.36544 
L 95.4783 186.0864 
L 95.1807 190.81728 
L 94.8831 195.84384 
L 94.5855 191.40864 
L 94.2879 191.40864 
L 93.9903 199.09632 
L 93.6927 191.11296 
L 93.3951 201.75744 
L 93.0975 184.01664 
L 92.7999 202.94016 
L 92.5023 186.0864 
L 92.2047 198.80064 
L 91.9071 203.23584 
L 91.6095 190.22592 
L 91.3119 197.02656 
L 91.0143 192.29568 
L 90.7167 186.38208 
L 90.4191 193.77408 
L 90.1215 191.70432 
L 89.8239 208.85376 
L 89.5263 197.9136 
L 89.2287 199.09632 
L 88.9311 188.15616 
L 88.6335 200.27904 
L 88.3359 202.94016 
L 88.0383 193.77408 
L 87.7407 205.3056 
L 87.4431 200.8704 
L 87.1455 197.61792 
L 86.8479 200.8704 
L 86.5503 194.36544 
L 86.2527 194.9568 
L 85.9551 195.25248 
L 85.6575 192.88704 
L 85.3599 199.09632 
L 85.0623 204.12288 
L 84.7647 201.46176 
L 84.4671 202.64448 
L 84.1695 207.37536 
L 83.8719 207.67104 
L 83.5743 204.12288 
L 83.2767 202.05312 
L 82.9791 196.4352 
L 82.6815 198.20928 
L 82.3839 198.80064 
L 82.0863 199.98336 
L 81.7887 196.4352 
L 81.4911 201.46176 
L 81.1935 201.16608 
L 80.8959 204.71424 
L 80.5983 210.03648 
L 80.3007 202.64448 
L 80.0031 210.62784 
L 79.7055 206.19264 
L 79.4079 208.85376 
L 79.1103 198.50496 
L 78.8127 200.8704 
L 78.5151 205.3056 
L 78.2175 196.4352 
L 77.9199 201.16608 
L 77.6223 207.07968 
L 77.3247 202.94016 
L 77.0271 204.71424 
L 76.7295 207.96672 
L 76.4319 203.8272 
L 76.1343 197.32224 
L 75.8367 202.3488 
L 75.5391 201.75744 
L 75.2415 214.76736 
L 74.9439 212.6976 
L 74.6463 209.7408 
L 74.3487 200.8704 
L 74.0511 204.71424 
L 73.7535 206.784 
L 73.4559 200.8704 
L 73.1583 207.37536 
L 72.8607 216.24576 
L 72.5631 212.99328 
L 72.2655 209.7408 
L 71.9679 205.60128 
L 71.6703 207.96672 
L 71.3727 202.05312 
L 71.0751 202.94016 
L 70.7775 202.05312 
L 70.4799 208.85376 
L 70.1823 203.53152 
L 69.8847 202.64448 
L 69.5871 197.02656 
L 69.2895 204.71424 
L 68.9919 197.02656 
L 68.6943 201.16608 
L 68.3967 204.12288 
L 68.0991 201.46176 
L 67.8015 210.92352 
L 67.5039 201.75744 
L 67.2063 199.09632 
L 66.9087 205.00992 
L 66.6111 212.40192 
L 66.3135 206.19264 
L 66.0159 207.37536 
L 65.7183 207.37536 
L 65.4207 207.67104 
L 65.1231 204.41856 
L 64.8255 208.2624 
L 64.5279 211.51488 
L 64.2303 198.80064 
L 63.9327 202.3488 
L 63.6351 201.75744 
L 63.3375 207.07968 
L 63.0399 205.00992 
L 62.7423 209.44512 
L 62.4447 212.10624 
L 62.1471 209.7408 
L 61.8495 210.62784 
L 61.5519 207.67104 
L 61.2543 215.6544 
L 60.9567 212.99328 
L 60.6591 210.92352 
L 60.3615 207.07968 
L 60.0639 222.45504 
L 59.7663 207.67104 
L 59.4687 210.92352 
L 59.1711 213.58464 
L 58.8735 217.72416 
L 58.5759 214.47168 
L 58.2783 216.24576 
L 57.9807 209.44512 
L 57.6831 213.88032 
L 57.3855 212.6976 
L 57.0879 211.81056 
L 56.7903 220.0896 
L 56.4927 221.86368 
L 56.1951 212.40192 
L 55.8975 228.66432 
L 55.5999 223.63776 
L 55.3023 218.90688 
L 55.0047 215.6544 
L 54.7071 215.95008 
L 54.4095 218.01984 
L 54.1119 214.76736 
L 53.8143 223.63776 
L 53.5167 215.06304 
L 53.2191 216.83712 
L 52.9215 214.76736 
L 52.6239 215.95008 
L 52.3263 218.31552 
L 52.0287 225.11616 
L 51.7311 220.0896 
L 51.4335 226.89024 
L 51.1359 224.22912 
L 50.8383 220.97664 
L 50.5407 229.25568 
L 50.2431 230.73408 
L 49.9455 224.22912 
L 49.6479 228.36864 
L 49.3503 220.97664 
L 49.0527 221.568 
L 48.7551 220.97664 
L 48.4575 221.86368 
L 48.1599 221.568 
L 47.8623 220.97664 
L 47.5647 222.45504 
L 47.2671 223.0464 
L 46.9695 220.97664 
L 46.6719 223.34208 
L 46.3743 223.0464 
L 46.0767 221.568 
L 45.7791 221.27232 
L 45.4815 222.45504 
L 45.1839 222.45504 
L 44.8863 220.97664 
L 44.5887 221.27232 
L 44.2911 221.86368 
L 43.9935 220.97664 
L 43.6959 222.15936 
L 43.3983 221.568 
L 43.1007 222.15936 
L 42.8031 222.15936 
L 42.5055 223.93344 
z
" clip-path="url(#pe1f087ca31)" style="fill: #efe51c; fill-opacity: 0.3"/>
   </g>
   <g id="matplotlib.axis_1">
    <g id="xtick_1">
     <g id="line2d_1">
      <defs>
       <path id="m7b2ebf0129" d="M 0 0 
L 0 3.5 
" style="stroke: #000000; stroke-width: 0.8"/>
      </defs>
      <g>
       <use xlink:href="#m7b2ebf0129" x="33.5775" y="228.96" style="stroke: #000000; stroke-width: 0.8"/>
      </g>
     </g>
     <g id="text_1">
      <text style="font: 6px 'DejaVu Sans', 'Bitstream Vera Sans', 'Computer Modern Sans Serif', 'Lucida Grande', 'Verdana', 'Geneva', 'Lucid', 'Arial', 'Helvetica', 'Avant Garde', sans-serif; text-anchor: middle" x="33.5775" y="240.519062" transform="rotate(-0 33.5775 240.519062)">0</text>
     </g>
    </g>
    <g id="xtick_2">
     <g id="line2d_2">
      <g>
       <use xlink:href="#m7b2ebf0129" x="69.2895" y="228.96" style="stroke: #000000; stroke-width: 0.8"/>
      </g>
     </g>
     <g id="text_2">
      <text style="font: 6px 'DejaVu Sans', 'Bitstream Vera Sans', 'Computer Modern Sans Serif', 'Lucida Grande', 'Verdana', 'Geneva', 'Lucid', 'Arial', 'Helvetica', 'Avant Garde', sans-serif; text-anchor: middle" x="69.2895" y="240.519062" transform="rotate(-0 69.2895 240.519062)">4</text>
     </g>
    </g>
    <g id="xtick_3">
     <g id="line2d_3">
      <g>
       <use xlink:href="#m7b2ebf0129" x="105.0015" y="228.96" style="stroke: #000000; stroke-width: 0.8"/>
      </g>
     </g>
     <g id="text_3">
      <text style="font: 6px 'DejaVu Sans', 'Bitstream Vera Sans', 'Computer Modern Sans Serif', 'Lucida Grande', 'Verdana', 'Geneva', 'Lucid', 'Arial', 'Helvetica', 'Avant Garde', sans-serif; text-anchor: middle" x="105.0015" y="240.519062" transform="rotate(-0 105.0015 240.519062)">8</text>
     </g>
    </g>
    <g id="xtick_4">
     <g id="line2d_4">
      <g>
       <use xlink:href="#m7b2ebf0129" x="140.7135" y="228.96" style="stroke: #000000; stroke-width: 0.8"/>
      </g>
     </g>
     <g id="text_4">
      <text style="font: 6px 'DejaVu Sans', 'Bitstream Vera Sans', 'Computer Modern Sans Serif', 'Lucida Grande', 'Verdana', 'Geneva', 'Lucid', 'Arial', 'Helvetica', 'Avant Garde', sans-serif; text-anchor: middle" x="140.7135" y="240.519062" transform="rotate(-0 140.7135 240.519062)">12</text>
     </g>
    </g>
    <g id="xtick_5">
     <g id="line2d_5">
      <g>
       <use xlink:href="#m7b2ebf0129" x="176.4255" y="228.96" style="stroke: #000000; stroke-width: 0.8"/>
      </g>
     </g>
     <g id="text_5">
      <text style="font: 6px 'DejaVu Sans', 'Bitstream Vera Sans', 'Computer Modern Sans Serif', 'Lucida Grande', 'Verdana', 'Geneva', 'Lucid', 'Arial', 'Helvetica', 'Avant Garde', sans-serif; text-anchor: middle" x="176.4255" y="240.519062" transform="rotate(-0 176.4255 240.519062)">16</text>
     </g>
    </g>
    <g id="xtick_6">
     <g id="line2d_6">
      <g>
       <use xlink:href="#m7b2ebf0129" x="212.1375" y="228.96" style="stroke: #000000; stroke-width: 0.8"/>
      </g>
     </g>
     <g id="text_6">
      <text style="font: 6px 'DejaVu Sans', 'Bitstream Vera Sans', 'Computer Modern Sans Serif', 'Lucida Grande', 'Verdana', 'Geneva', 'Lucid', 'Arial', 'Helvetica', 'Avant Garde', sans-serif; text-anchor: middle" x="212.1375" y="240.519062" transform="rotate(-0 212.1375 240.519062)">20</text>
     </g>
    </g>
    <g id="xtick_7">
     <g id="line2d_7">
      <g>
       <use xlink:href="#m7b2ebf0129" x="247.8495" y="228.96" style="stroke: #000000; stroke-width: 0.8"/>
      </g>
     </g>
     <g id="text_7">
      <text style="font: 6px 'DejaVu Sans', 'Bitstream Vera Sans', 'Computer Modern Sans Serif', 'Lucida Grande', 'Verdana', 'Geneva', 'Lucid', 'Arial', 'Helvetica', 'Avant Garde', sans-serif; text-anchor: middle" x="247.8495" y="240.519062" transform="rotate(-0 247.8495 240.519062)">24</text>
     </g>
    </g>
    <g id="text_8">
     <text style="font: 8px 'DejaVu Sans', 'Bitstream Vera Sans', 'Computer Modern Sans Serif', 'Lucida Grande', 'Verdana', 'Geneva', 'Lucid', 'Arial', 'Helvetica', 'Avant Garde', sans-serif; text-anchor: middle" x="145.1775" y="251.845625" transform="rotate(-0 145.1775 251.845625)">Experimental time (hpf)</text>
    </g>
   </g>
   <g id="matplotlib.axis_2">
    <g id="ytick_1">
     <g id="line2d_8">
      <defs>
       <path id="m0b3184c483" d="M 0 0 
L -3.5 0 
" style="stroke: #000000; stroke-width: 0.8"/>
      </defs>
      <g>
       <use xlink:href="#m0b3184c483" x="33.5775" y="228.96" style="stroke: #000000; stroke-width: 0.8"/>
      </g>
     </g>
     <g id="text_9">
      <text style="font: 6px 'DejaVu Sans', 'Bitstream Vera Sans', 'Computer Modern Sans Serif', 'Lucida Grande', 'Verdana', 'Geneva', 'Lucid', 'Arial', 'Helvetica', 'Avant Garde', sans-serif; text-anchor: end" x="26.5775" y="231.239531" transform="rotate(-0 26.5775 231.239531)">0</text>
     </g>
    </g>
    <g id="ytick_2">
     <g id="line2d_9">
      <g>
       <use xlink:href="#m0b3184c483" x="33.5775" y="193.4784" style="stroke: #000000; stroke-width: 0.8"/>
      </g>
     </g>
     <g id="text_10">
      <text style="font: 6px 'DejaVu Sans', 'Bitstream Vera Sans', 'Computer Modern Sans Serif', 'Lucida Grande', 'Verdana', 'Geneva', 'Lucid', 'Arial', 'Helvetica', 'Avant Garde', sans-serif; text-anchor: end" x="26.5775" y="195.757931" transform="rotate(-0 26.5775 195.757931)">4</text>
     </g>
    </g>
    <g id="ytick_3">
     <g id="line2d_10">
      <g>
       <use xlink:href="#m0b3184c483" x="33.5775" y="157.9968" style="stroke: #000000; stroke-width: 0.8"/>
      </g>
     </g>
     <g id="text_11">
      <text style="font: 6px 'DejaVu Sans', 'Bitstream Vera Sans', 'Computer Modern Sans Serif', 'Lucida Grande', 'Verdana', 'Geneva', 'Lucid', 'Arial', 'Helvetica', 'Avant Garde', sans-serif; text-anchor: end" x="26.5775" y="160.276331" transform="rotate(-0 26.5775 160.276331)">8</text>
     </g>
    </g>
    <g id="ytick_4">
     <g id="line2d_11">
      <g>
       <use xlink:href="#m0b3184c483" x="33.5775" y="122.5152" style="stroke: #000000; stroke-width: 0.8"/>
      </g>
     </g>
     <g id="text_12">
      <text style="font: 6px 'DejaVu Sans', 'Bitstream Vera Sans', 'Computer Modern Sans Serif', 'Lucida Grande', 'Verdana', 'Geneva', 'Lucid', 'Arial', 'Helvetica', 'Avant Garde', sans-serif; text-anchor: end" x="26.5775" y="124.794731" transform="rotate(-0 26.5775 124.794731)">12</text>
     </g>
    </g>
    <g id="ytick_5">
     <g id="line2d_12">
      <g>
       <use xlink:href="#m0b3184c483" x="33.5775" y="87.0336" style="stroke: #000000; stroke-width: 0.8"/>
      </g>
     </g>
     <g id="text_13">
      <text style="font: 6px 'DejaVu Sans', 'Bitstream Vera Sans', 'Computer Modern Sans Serif', 'Lucida Grande', 'Verdana', 'Geneva', 'Lucid', 'Arial', 'Helvetica', 'Avant Garde', sans-serif; text-anchor: end" x="26.5775" y="89.313131" transform="rotate(-0 26.5775 89.313131)">16</text>
     </g>
    </g>
    <g id="ytick_6">
     <g id="line2d_13">
      <g>
       <use xlink:href="#m0b3184c483" x="33.5775" y="51.552" style="stroke: #000000; stroke-width: 0.8"/>
      </g>
     </g>
     <g id="text_14">
      <text style="font: 6px 'DejaVu Sans', 'Bitstream Vera Sans', 'Computer Modern Sans Serif', 'Lucida Grande', 'Verdana', 'Geneva', 'Lucid', 'Arial', 'Helvetica', 'Avant Garde', sans-serif; text-anchor: end" x="26.5775" y="53.831531" transform="rotate(-0 26.5775 53.831531)">20</text>
     </g>
    </g>
    <g id="ytick_7">
     <g id="line2d_14">
      <g>
       <use xlink:href="#m0b3184c483" x="33.5775" y="16.0704" style="stroke: #000000; stroke-width: 0.8"/>
      </g>
     </g>
     <g id="text_15">
      <text style="font: 6px 'DejaVu Sans', 'Bitstream Vera Sans', 'Computer Modern Sans Serif', 'Lucida Grande', 'Verdana', 'Geneva', 'Lucid', 'Arial', 'Helvetica', 'Avant Garde', sans-serif; text-anchor: end" x="26.5775" y="18.349931" transform="rotate(-0 26.5775 18.349931)">24</text>
     </g>
    </g>
    <g id="text_16">
     <text style="font: 8px 'DejaVu Sans', 'Bitstream Vera Sans', 'Computer Modern Sans Serif', 'Lucida Grande', 'Verdana', 'Geneva', 'Lucid', 'Arial', 'Helvetica', 'Avant Garde', sans-serif; text-anchor: middle" x="13.27875" y="118.08" transform="rotate(-90 13.27875 118.08)">Developmental age (hpf)</text>
    </g>
   </g>
   <g id="line2d_15">
    <path d="M 42.5055 220.0896 
L 230.96191 -1 
L 230.96191 -1 
" clip-path="url(#pe1f087ca31)" style="fill: none; stroke: #efe51c; stroke-linecap: square"/>
   </g>
   <g id="line2d_16">
    <path d="M 42.5055 220.0896 
L 247.869447 -1 
L 247.869447 -1 
" clip-path="url(#pe1f087ca31)" style="fill: none; stroke-dasharray: 3.7,1.6; stroke-dashoffset: 0; stroke: #efe51c"/>
   </g>
   <g id="line2d_17">
    <path d="M 42.5055 220.0896 
L 221.310495 -1 
L 221.310495 -1 
" clip-path="url(#pe1f087ca31)" style="fill: none; stroke-dasharray: 3.7,1.6; stroke-dashoffset: 0; stroke: #efe51c"/>
   </g>
   <g id="patch_3">
    <path d="M 33.5775 228.96 
L 33.5775 7.2 
" style="fill: none; stroke: #000000; stroke-width: 0.8; stroke-linejoin: miter; stroke-linecap: square"/>
   </g>
   <g id="patch_4">
    <path d="M 33.5775 228.96 
L 256.7775 228.96 
" style="fill: none; stroke: #000000; stroke-width: 0.8; stroke-linejoin: miter; stroke-linecap: square"/>
   </g>
   <g id="legend_1">
    <g id="patch_5">
     <path d="M 93.656011 226.065 
L 252.7245 226.065 
Q 253.8825 226.065 253.8825 224.907 
L 253.8825 208.488731 
Q 253.8825 207.330731 252.7245 207.330731 
L 93.656011 207.330731 
Q 92.498011 207.330731 92.498011 208.488731 
L 92.498011 224.907 
Q 92.498011 226.065 93.656011 226.065 
z
" style="fill: #ffffff; opacity: 0.8; stroke: #cccccc; stroke-linejoin: miter"/>
    </g>
    <g id="line2d_18">
     <path d="M 94.814011 212.019727 
L 100.604011 212.019727 
L 106.394011 212.019727 
" style="fill: none; stroke: #efe51c; stroke-linecap: square"/>
    </g>
    <g id="text_17">
     <text style="font: 5.79px 'DejaVu Sans', 'Bitstream Vera Sans', 'Computer Modern Sans Serif', 'Lucida Grande', 'Verdana', 'Geneva', 'Lucid', 'Arial', 'Helvetica', 'Avant Garde', sans-serif; text-anchor: start" x="111.026011" y="214.046227" transform="rotate(-0 111.026011 214.046227)">Linear fit: slope=1.180 [1.084,1.245], R2=0.974</text>
    </g>
    <g id="patch_6">
     <path d="M 94.814011 222.544861 
L 106.394011 222.544861 
L 106.394011 218.491861 
L 94.814011 218.491861 
z
" style="fill: #efe51c; fill-opacity: 0.3"/>
    </g>
    <g id="text_18">
     <text style="font: 5.79px 'DejaVu Sans', 'Bitstream Vera Sans', 'Computer Modern Sans Serif', 'Lucida Grande', 'Verdana', 'Geneva', 'Lucid', 'Arial', 'Helvetica', 'Avant Garde', sans-serif; text-anchor: start" x="111.026011" y="222.544861" transform="rotate(-0 111.026011 222.544861)">Median:36.0C</text>
    </g>
   </g>
  </g>
 </g>
 <defs>
  <clipPath id="pe1f087ca31">
   <rect x="33.5775" y="7.2" width="223.2" height="221.76"/>
  </clipPath>
 </defs>
</svg>
