<?xml version="1.0" encoding="utf-8" standalone="no"?>
<!DOCTYPE svg PUBLIC "-//W3C//DTD SVG 1.1//EN"
  "http://www.w3.org/Graphics/SVG/1.1/DTD/svg11.dtd">
<svg xmlns:xlink="http://www.w3.org/1999/xlink" width="263.9775pt" height="260.709375pt" viewBox="0 0 263.9775 260.709375" xmlns="http://www.w3.org/2000/svg" version="1.1">
 <metadata>
  <rdf:RDF xmlns:dc="http://purl.org/dc/elements/1.1/" xmlns:cc="http://creativecommons.org/ns#" xmlns:rdf="http://www.w3.org/1999/02/22-rdf-syntax-ns#">
   <cc:Work>
    <dc:type rdf:resource="http://purl.org/dc/dcmitype/StillImage"/>
    <dc:date>2023-07-28T13:06:02.820164</dc:date>
    <dc:format>image/svg+xml</dc:format>
    <dc:creator>
     <cc:Agent>
      <dc:title>Matplotlib v3.7.0, https://matplotlib.org/</dc:title>
     </cc:Agent>
    </dc:creator>
   </cc:Work>
  </rdf:RDF>
 </metadata>
 <defs>
  <style type="text/css">*{stroke-linejoin: round; stroke-linecap: butt}</style>
 </defs>
 <g id="figure_1">
  <g id="patch_1">
   <path d="M 0 260.709375 
L 263.9775 260.709375 
L 263.9775 0 
L 0 0 
z
" style="fill: #ffffff"/>
  </g>
  <g id="axes_1">
   <g id="patch_2">
    <path d="M 33.5775 228.96 
L 256.7775 228.96 
L 256.7775 7.2 
L 33.5775 7.2 
z
" style="fill: #ffffff"/>
   </g>
   <g id="PolyCollection_1">
    <path d="M 42.5055 223.93344 
L 42.5055 206.19264 
L 42.8031 205.45344 
L 43.1007 206.0448 
L 43.3983 207.5232 
L 43.6959 205.00992 
L 43.9935 209.14944 
L 44.2911 206.93184 
L 44.5887 206.784 
L 44.8863 205.15776 
L 45.1839 196.58304 
L 45.4815 199.09632 
L 45.7791 200.57472 
L 46.0767 200.57472 
L 46.3743 200.1312 
L 46.6719 197.1744 
L 46.9695 197.76576 
L 47.2671 202.3488 
L 47.5647 197.02656 
L 47.8623 187.12128 
L 48.1599 194.06976 
L 48.4575 193.18272 
L 48.7551 190.96512 
L 49.0527 189.0432 
L 49.3503 180.1728 
L 49.6479 179.4336 
L 49.9455 185.79072 
L 50.2431 182.53824 
L 50.5407 182.53824 
L 50.8383 179.4336 
L 51.1359 186.67776 
L 51.4335 177.06816 
L 51.7311 181.6512 
L 52.0287 176.92032 
L 52.3263 168.49344 
L 52.6239 170.85888 
L 52.9215 182.09472 
L 53.2191 176.32896 
L 53.5167 167.75424 
L 53.8143 173.52 
L 54.1119 187.26912 
L 54.4095 182.68608 
L 54.7071 177.65952 
L 55.0047 175.88544 
L 55.3023 166.57152 
L 55.5999 167.16288 
L 55.8975 153.70944 
L 56.1951 176.18112 
L 56.4927 165.98016 
L 56.7903 168.93696 
L 57.0879 162.72768 
L 57.3855 173.52 
L 57.6831 172.18944 
L 57.9807 170.41536 
L 58.2783 168.78912 
L 58.5759 161.10144 
L 58.8735 163.46688 
L 59.1711 172.7808 
L 59.4687 168.78912 
L 59.7663 172.63296 
L 60.0639 163.02336 
L 60.3615 171.15456 
L 60.6591 172.33728 
L 60.9567 165.98016 
L 61.2543 165.3888 
L 61.5519 166.42368 
L 61.8495 150.01344 
L 62.1471 159.32736 
L 62.4447 164.05824 
L 62.7423 159.17952 
L 63.0399 161.98848 
L 63.3375 168.19776 
L 63.6351 159.91872 
L 63.9327 164.50176 
L 64.2303 154.89216 
L 64.5279 156.07488 
L 64.8255 151.04832 
L 65.1231 159.77088 
L 65.4207 154.44864 
L 65.7183 160.2144 
L 66.0159 168.93696 
L 66.3135 151.344 
L 66.6111 155.48352 
L 66.9087 150.01344 
L 67.2063 156.37056 
L 67.5039 161.10144 
L 67.8015 150.90048 
L 68.0991 152.37888 
L 68.3967 147.05664 
L 68.6943 143.80416 
L 68.9919 152.67456 
L 69.2895 147.20448 
L 69.5871 146.31744 
L 69.8847 149.27424 
L 70.1823 143.65632 
L 70.4799 144.09984 
L 70.7775 155.04 
L 71.0751 147.50016 
L 71.3727 157.9968 
L 71.6703 141.88224 
L 71.9679 140.84736 
L 72.2655 147.79584 
L 72.5631 158.14464 
L 72.8607 141.7344 
L 73.1583 148.09152 
L 73.4559 145.13472 
L 73.7535 128.28096 
L 74.0511 146.31744 
L 74.3487 129.31584 
L 74.6463 144.6912 
L 74.9439 147.648 
L 75.2415 152.0832 
L 75.5391 145.57824 
L 75.8367 153.70944 
L 76.1343 137.74272 
L 76.4319 139.07328 
L 76.7295 155.48352 
L 77.0271 147.79584 
L 77.3247 137.89056 
L 77.6223 147.35232 
L 77.9199 151.04832 
L 78.2175 138.18624 
L 78.5151 153.41376 
L 78.8127 144.54336 
L 79.1103 143.06496 
L 79.4079 153.11808 
L 79.7055 141.43872 
L 80.0031 144.54336 
L 80.3007 145.4304 
L 80.5983 139.36896 
L 80.8959 148.97856 
L 81.1935 143.80416 
L 81.4911 136.56 
L 81.7887 144.09984 
L 82.0863 134.49024 
L 82.3839 143.2128 
L 82.6815 148.09152 
L 82.9791 136.41216 
L 83.2767 141.29088 
L 83.5743 145.13472 
L 83.8719 139.07328 
L 84.1695 144.6912 
L 84.4671 136.26432 
L 84.7647 150.30912 
L 85.0623 149.56992 
L 85.3599 148.97856 
L 85.6575 143.80416 
L 85.9551 141.14304 
L 86.2527 142.62144 
L 86.5503 140.256 
L 86.8479 148.68288 
L 87.1455 147.20448 
L 87.4431 147.20448 
L 87.7407 142.91712 
L 88.0383 138.7776 
L 88.3359 141.58656 
L 88.6335 155.33568 
L 88.9311 142.4736 
L 89.2287 148.09152 
L 89.5263 147.35232 
L 89.8239 146.02176 
L 90.1215 144.09984 
L 90.4191 137.00352 
L 90.7167 138.18624 
L 91.0143 141.7344 
L 91.3119 138.92544 
L 91.6095 144.98688 
L 91.9071 146.31744 
L 92.2047 146.61312 
L 92.5023 146.61312 
L 92.7999 139.22112 
L 93.0975 150.30912 
L 93.3951 144.09984 
L 93.6927 146.76096 
L 93.9903 145.28256 
L 94.2879 135.52512 
L 94.5855 146.02176 
L 94.8831 146.76096 
L 95.1807 145.13472 
L 95.4783 140.256 
L 95.7759 133.15968 
L 96.0735 137.2992 
L 96.3711 142.03008 
L 96.6687 125.76768 
L 96.9663 140.84736 
L 97.2639 142.32576 
L 97.5615 137.00352 
L 97.8591 129.02016 
L 98.1567 135.67296 
L 98.4543 133.89888 
L 98.7519 130.35072 
L 99.0495 133.89888 
L 99.3471 129.02016 
L 99.6447 113.94048 
L 99.9423 135.37728 
L 100.2399 114.67968 
L 100.5375 125.17632 
L 100.8351 122.66304 
L 101.1327 117.78432 
L 101.4303 119.26272 
L 101.7279 109.06176 
L 102.0255 127.24608 
L 102.3231 105.07008 
L 102.6207 115.41888 
L 102.9183 116.6016 
L 103.2159 125.32416 
L 103.5135 123.84576 
L 103.8111 110.83584 
L 104.1087 112.9056 
L 104.4063 109.9488 
L 104.7039 107.7312 
L 105.0015 99.74784 
L 105.2991 106.10496 
L 105.5967 113.20128 
L 105.8943 113.6448 
L 106.1919 95.01696 
L 106.4895 64.1184 
L 106.7871 63.97056 
L 107.0847 68.99712 
L 107.3823 83.3376 
L 107.6799 97.67808 
L 107.9775 81.26784 
L 108.2751 80.08512 
L 108.5727 95.60832 
L 108.8703 88.06848 
L 109.1679 87.62496 
L 109.4655 67.66656 
L 109.7631 69.44064 
L 110.0607 44.60352 
L 110.3583 62.19648 
L 110.6559 40.16832 
L 110.9535 48.15168 
L 111.2511 38.83776 
L 111.5487 49.77792 
L 111.8463 51.552 
L 112.1439 49.48224 
L 112.4415 43.4208 
L 112.7391 49.18656 
L 113.0367 42.09024 
L 113.3343 36.17664 
L 113.6319 54.06528 
L 113.9295 39.7248 
L 114.2271 32.18496 
L 114.5247 -13.05408 
L 114.8223 39.13344 
L 115.1199 25.23648 
L 115.4175 44.45568 
L 115.7151 60.12672 
L 116.0127 23.16672 
L 116.3103 50.22144 
L 116.6079 58.50048 
L 116.9055 21.68832 
L 117.2031 25.23648 
L 117.5007 42.97728 
L 117.7983 -1.22688 
L 118.0959 9.12192 
L 118.3935 -9.94944 
L 118.6911 7.49568 
L 118.9887 -3.1488 
L 119.2863 -6.8448 
L 119.5839 16.21824 
L 119.8815 24.9408 
L 120.1791 45.19488 
L 120.4767 49.3344 
L 120.7743 -7.14048 
L 121.0719 60.4224 
L 121.3695 39.13344 
L 121.6671 16.36608 
L 121.9647 67.22304 
L 122.2623 -20.59392 
L 122.5599 9.71328 
L 122.8575 2.7648 
L 123.1551 33.36768 
L 123.4527 43.12512 
L 123.7503 39.28128 
L 124.0479 27.74976 
L 124.3455 23.75808 
L 124.6431 7.9392 
L 124.9407 42.23808 
L 125.2383 51.552 
L 125.5359 42.82944 
L 125.8335 48.44736 
L 126.1311 55.9872 
L 126.4287 50.36928 
L 126.7263 65.89248 
L 127.0239 61.9008 
L 127.3215 52.73472 
L 127.6191 42.53376 
L 127.9167 35.14176 
L 128.2143 46.67328 
L 128.5119 51.84768 
L 128.8095 54.36096 
L 129.1071 63.23136 
L 129.4047 41.05536 
L 129.7023 38.54208 
L 129.9999 41.79456 
L 130.2975 49.92576 
L 130.5951 42.53376 
L 130.8927 35.88096 
L 131.1903 41.49888 
L 131.4879 52.14336 
L 131.7855 51.10848 
L 132.0831 56.13504 
L 132.3807 55.39584 
L 132.6783 54.06528 
L 132.9759 58.2048 
L 133.2735 39.7248 
L 133.5711 54.21312 
L 133.8687 54.95232 
L 134.1663 37.06368 
L 134.4639 55.39584 
L 134.7615 64.8576 
L 135.0591 63.3792 
L 135.3567 60.12672 
L 135.6543 53.62176 
L 135.9519 52.73472 
L 136.2495 42.82944 
L 136.5471 55.248 
L 136.8447 54.5088 
L 137.1423 46.3776 
L 137.4399 50.8128 
L 137.7375 54.95232 
L 138.0351 46.67328 
L 138.3327 63.23136 
L 138.6303 42.38592 
L 138.9279 59.97888 
L 139.2255 52.88256 
L 139.5231 54.80448 
L 139.8207 45.19488 
L 140.1183 38.9856 
L 140.4159 51.40416 
L 140.7135 48.5952 
L 141.0111 45.6384 
L 141.3087 48.44736 
L 141.6063 50.96064 
L 141.9039 63.52704 
L 142.2015 47.1168 
L 142.4991 45.78624 
L 142.7967 40.16832 
L 143.0943 37.06368 
L 143.3919 37.95072 
L 143.6895 44.16 
L 143.9871 58.2048 
L 144.2847 47.70816 
L 144.5823 50.51712 
L 144.8799 50.96064 
L 145.1775 42.38592 
L 145.4751 54.21312 
L 145.7727 52.88256 
L 146.0703 43.86432 
L 146.3679 35.58528 
L 146.6655 43.71648 
L 146.9631 46.22976 
L 147.2607 58.05696 
L 147.5583 46.08192 
L 147.8559 51.69984 
L 148.1535 65.15328 
L 148.4511 60.27456 
L 148.7487 34.69824 
L 149.0463 51.25632 
L 149.3439 28.19328 
L 149.6415 51.10848 
L 149.9391 46.3776 
L 150.2367 43.27296 
L 150.5343 45.49056 
L 150.8319 40.75968 
L 151.1295 50.66496 
L 151.4271 39.42912 
L 151.7247 35.2896 
L 152.0223 56.87424 
L 152.3199 35.88096 
L 152.6175 37.35936 
L 152.9151 51.40416 
L 153.2127 51.40416 
L 153.5103 35.58528 
L 153.8079 42.53376 
L 154.1055 36.0288 
L 154.4031 46.22976 
L 154.7007 45.49056 
L 154.9983 41.79456 
L 155.2959 36.17664 
L 155.5935 41.05536 
L 155.8911 43.56864 
L 156.1887 29.96736 
L 156.4863 30.41088 
L 156.7839 41.49888 
L 157.0815 32.18496 
L 157.3791 42.97728 
L 157.6767 34.5504 
L 157.9743 36.768 
L 158.2719 37.95072 
L 158.5695 38.2464 
L 158.8671 38.09856 
L 159.1647 27.45408 
L 159.4623 25.53216 
L 159.7599 18.73152 
L 160.0575 40.02048 
L 160.3551 29.81952 
L 160.6527 25.82784 
L 160.9503 35.43744 
L 161.2479 14.88768 
L 161.5455 36.32448 
L 161.8431 38.83776 
L 162.1407 32.03712 
L 162.4383 44.60352 
L 162.7359 38.9856 
L 163.0335 20.94912 
L 163.3311 34.25472 
L 163.6287 15.92256 
L 163.9263 42.97728 
L 164.2239 22.57536 
L 164.5215 28.6368 
L 164.8191 18.87936 
L 165.1167 14.73984 
L 165.4143 20.80128 
L 165.7119 15.77472 
L 166.0095 25.23648 
L 166.3071 33.66336 
L 166.6047 24.79296 
L 166.9023 28.04544 
L 167.1999 29.52384 
L 167.4975 18.43584 
L 167.7951 29.08032 
L 168.0927 18.288 
L 168.3903 25.68 
L 168.6879 16.8096 
L 168.9855 24.2016 
L 169.2831 16.66176 
L 169.5807 7.79136 
L 169.8783 14.00064 
L 170.1759 6.01728 
L 170.4735 17.25312 
L 170.7711 15.03552 
L 171.0687 21.68832 
L 171.3663 21.83616 
L 171.6639 15.92256 
L 171.9615 11.19168 
L 172.2591 13.70496 
L 172.5567 20.20992 
L 172.8543 14.29632 
L 173.1519 10.896 
L 173.4495 28.48896 
L 173.7471 20.94912 
L 174.0447 25.97568 
L 174.3423 23.4624 
L 174.6399 25.53216 
L 174.9375 24.2016 
L 175.2351 29.67168 
L 175.5327 17.99232 
L 175.8303 19.47072 
L 176.1279 13.55712 
L 176.4255 17.40096 
L 176.7231 16.0704 
L 177.0207 24.2016 
L 177.3183 11.04384 
L 177.6159 23.4624 
L 177.9135 12.96576 
L 178.2111 4.68672 
L 178.5087 11.6352 
L 178.8063 6.16512 
L 179.1039 16.36608 
L 179.4015 8.38272 
L 179.6991 12.96576 
L 179.9967 7.05216 
L 180.2943 3.06048 
L 180.5919 17.99232 
L 180.8895 19.7664 
L 181.1871 19.7664 
L 181.4847 9.26976 
L 181.7823 21.2448 
L 182.0799 9.86112 
L 182.3775 7.49568 
L 182.6751 1.72992 
L 182.9727 -4.03584 
L 183.2703 21.09696 
L 183.5679 22.7232 
L 183.8655 -2.26176 
L 184.1631 13.40928 
L 184.4607 11.93088 
L 184.7583 5.42592 
L 185.0559 -3.74016 
L 185.3535 18.43584 
L 185.6511 11.04384 
L 185.9487 22.7232 
L 186.2463 15.92256 
L 186.5439 12.81792 
L 186.8415 2.61696 
L 187.1391 6.01728 
L 187.4367 8.23488 
L 187.7343 -2.70528 
L 188.0319 3.79968 
L 188.3295 5.13024 
L 188.6271 15.62688 
L 188.9247 12.52224 
L 189.2223 11.78304 
L 189.5199 8.97408 
L 189.8175 8.23488 
L 190.1151 8.53056 
L 190.4127 5.42592 
L 190.7103 2.7648 
L 191.0079 14.14848 
L 191.3055 0.5472 
L 191.6031 0.10368 
L 191.9007 10.00896 
L 192.1983 8.6784 
L 192.4959 14.88768 
L 192.7935 10.00896 
L 193.0911 -2.11392 
L 193.3887 9.71328 
L 193.6863 -2.26176 
L 193.9839 0.84288 
L 194.2815 -8.3232 
L 194.5791 7.49568 
L 194.8767 -2.11392 
L 195.1743 -2.55744 
L 195.4719 0.69504 
L 195.7695 -1.07904 
L 196.0671 1.13856 
L 196.3647 6.4608 
L 196.6623 -6.54912 
L 196.9599 9.4176 
L 197.2575 0.25152 
L 197.5551 -6.40128 
L 197.8527 0.5472 
L 198.1503 -3.1488 
L 198.4479 -2.26176 
L 198.7455 3.35616 
L 199.0431 3.94752 
L 199.3407 3.504 
L 199.6383 3.94752 
L 199.9359 -7.73184 
L 200.2335 2.61696 
L 200.5311 0.5472 
L 200.8287 11.33952 
L 201.1263 1.87776 
L 201.4239 2.7648 
L 201.7215 10.00896 
L 202.0191 6.31296 
L 202.3167 1.72992 
L 202.6143 1.2864 
L 202.9119 7.2 
L 203.2095 -1.52256 
L 203.5071 2.32128 
L 203.8047 -2.11392 
L 204.1023 -0.33984 
L 204.3999 6.90432 
L 204.6975 -7.43616 
L 204.9951 3.504 
L 205.2927 -0.48768 
L 205.5903 3.20832 
L 205.8879 -0.192 
L 206.1855 1.58208 
L 206.4831 6.75648 
L 206.7807 3.35616 
L 207.0783 0.10368 
L 207.3759 4.2432 
L 207.6735 4.39104 
L 207.9711 1.2864 
L 208.2687 13.8528 
L 208.5663 2.32128 
L 208.8639 6.31296 
L 209.1615 3.06048 
L 209.4591 4.53888 
L 209.7567 13.1136 
L 210.0543 17.10528 
L 210.3519 4.09536 
L 210.6495 6.90432 
L 210.9471 10.74816 
L 211.2447 3.20832 
L 211.5423 4.83456 
L 211.8399 5.42592 
L 212.1375 3.94752 
L 212.4351 2.46912 
L 212.7327 8.6784 
L 213.0303 0.39936 
L 213.3279 -3.29664 
L 213.6255 0.99072 
L 213.9231 -5.3664 
L 214.2207 2.61696 
L 214.5183 5.86944 
L 214.8159 0.25152 
L 215.1135 1.72992 
L 215.4111 8.08704 
L 215.7087 4.83456 
L 216.0063 -4.47936 
L 216.3039 3.35616 
L 216.6015 -5.07072 
L 216.8991 4.39104 
L 217.1967 3.20832 
L 217.4943 -7.14048 
L 217.7919 -2.11392 
L 218.0895 10.30464 
L 218.3871 12.3744 
L 218.6847 8.82624 
L 218.9823 1.58208 
L 219.2799 8.23488 
L 219.5775 -1.81824 
L 219.8751 2.46912 
L 220.1727 5.42592 
L 220.4703 10.00896 
L 220.7679 0.69504 
L 220.7679 43.27296 
L 220.7679 43.27296 
L 220.4703 57.90912 
L 220.1727 40.90752 
L 219.8751 63.3792 
L 219.5775 53.7696 
L 219.2799 46.67328 
L 218.9823 51.25632 
L 218.6847 46.08192 
L 218.3871 51.99552 
L 218.0895 50.51712 
L 217.7919 65.89248 
L 217.4943 86.2944 
L 217.1967 63.52704 
L 216.8991 52.2912 
L 216.6015 71.21472 
L 216.3039 59.53536 
L 216.0063 61.75296 
L 215.7087 61.01376 
L 215.4111 53.62176 
L 215.1135 54.36096 
L 214.8159 67.0752 
L 214.5183 67.37088 
L 214.2207 67.66656 
L 213.9231 60.86592 
L 213.6255 67.22304 
L 213.3279 61.1616 
L 213.0303 48.89088 
L 212.7327 48.29952 
L 212.4351 80.52864 
L 212.1375 60.12672 
L 211.8399 52.73472 
L 211.5423 69.2928 
L 211.2447 60.57024 
L 210.9471 56.87424 
L 210.6495 59.53536 
L 210.3519 54.36096 
L 210.0543 46.67328 
L 209.7567 59.83104 
L 209.4591 63.08352 
L 209.1615 55.69152 
L 208.8639 67.8144 
L 208.5663 66.18816 
L 208.2687 58.79616 
L 207.9711 67.51872 
L 207.6735 56.43072 
L 207.3759 55.69152 
L 207.0783 81.12 
L 206.7807 61.30944 
L 206.4831 59.38752 
L 206.1855 61.30944 
L 205.8879 57.76128 
L 205.5903 73.58016 
L 205.2927 68.70144 
L 204.9951 56.7264 
L 204.6975 63.52704 
L 204.3999 66.63168 
L 204.1023 65.30112 
L 203.8047 61.75296 
L 203.5071 60.27456 
L 203.2095 61.75296 
L 202.9119 58.64832 
L 202.6143 63.97056 
L 202.3167 62.04864 
L 202.0191 54.21312 
L 201.7215 69.14496 
L 201.4239 64.26624 
L 201.1263 56.28288 
L 200.8287 76.98048 
L 200.5311 67.37088 
L 200.2335 68.25792 
L 199.9359 71.5104 
L 199.6383 67.8144 
L 199.3407 76.83264 
L 199.0431 68.40576 
L 198.7455 67.8144 
L 198.4479 74.61504 
L 198.1503 90.87744 
L 197.8527 87.47712 
L 197.5551 92.9472 
L 197.2575 90.13824 
L 196.9599 68.5536 
L 196.6623 88.65984 
L 196.3647 72.10176 
L 196.0671 73.28448 
L 195.7695 79.34592 
L 195.4719 70.47552 
L 195.1743 82.00704 
L 194.8767 96.05184 
L 194.5791 68.99712 
L 194.2815 102.26112 
L 193.9839 90.13824 
L 193.6863 82.30272 
L 193.3887 72.39744 
L 193.0911 97.82592 
L 192.7935 91.02528 
L 192.4959 75.2064 
L 192.1983 83.18976 
L 191.9007 83.3376 
L 191.6031 68.11008 
L 191.3055 105.80928 
L 191.0079 75.05856 
L 190.7103 73.13664 
L 190.4127 83.48544 
L 190.1151 65.30112 
L 189.8175 89.84256 
L 189.5199 91.76448 
L 189.2223 73.28448 
L 188.9247 85.85088 
L 188.6271 73.58016 
L 188.3295 82.00704 
L 188.0319 93.6864 
L 187.7343 84.816 
L 187.4367 91.61664 
L 187.1391 72.2496 
L 186.8415 77.71968 
L 186.5439 82.5984 
L 186.2463 72.69312 
L 185.9487 90.13824 
L 185.6511 79.6416 
L 185.3535 79.93728 
L 185.0559 79.05024 
L 184.7583 81.12 
L 184.4607 79.34592 
L 184.1631 74.91072 
L 183.8655 88.80768 
L 183.5679 57.61344 
L 183.2703 77.86752 
L 182.9727 84.66816 
L 182.6751 93.98208 
L 182.3775 76.6848 
L 182.0799 79.05024 
L 181.7823 77.424 
L 181.4847 90.28608 
L 181.1871 81.26784 
L 180.8895 75.35424 
L 180.5919 79.49376 
L 180.2943 99.45216 
L 179.9967 98.1216 
L 179.6991 84.52032 
L 179.4015 105.95712 
L 179.1039 90.87744 
L 178.8063 89.54688 
L 178.5087 95.01696 
L 178.2111 111.72288 
L 177.9135 75.64992 
L 177.6159 73.13664 
L 177.3183 92.06016 
L 177.0207 83.92896 
L 176.7231 81.71136 
L 176.4255 87.7728 
L 176.1279 98.1216 
L 175.8303 94.57344 
L 175.5327 95.46048 
L 175.2351 78.75456 
L 174.9375 82.15488 
L 174.6399 84.0768 
L 174.3423 87.32928 
L 174.0447 74.4672 
L 173.7471 100.19136 
L 173.4495 97.67808 
L 173.1519 105.5136 
L 172.8543 91.76448 
L 172.5567 95.31264 
L 172.2591 100.04352 
L 171.9615 101.0784 
L 171.6639 98.71296 
L 171.3663 98.71296 
L 171.0687 93.24288 
L 170.7711 106.69632 
L 170.4735 108.32256 
L 170.1759 131.3856 
L 169.8783 122.21952 
L 169.5807 110.688 
L 169.2831 110.09664 
L 168.9855 93.39072 
L 168.6879 113.79264 
L 168.3903 126.2112 
L 168.0927 109.35744 
L 167.7951 95.904 
L 167.4975 122.5152 
L 167.1999 104.62656 
L 166.9023 117.3408 
L 166.6047 132.42048 
L 166.3071 128.87232 
L 166.0095 109.80096 
L 165.7119 120.44544 
L 165.4143 121.33248 
L 165.1167 112.9056 
L 164.8191 127.09824 
L 164.5215 104.33088 
L 164.2239 113.05344 
L 163.9263 114.53184 
L 163.6287 121.18464 
L 163.3311 88.65984 
L 163.0335 105.5136 
L 162.7359 108.76608 
L 162.4383 102.5568 
L 162.1407 110.688 
L 161.8431 99.74784 
L 161.5455 94.27776 
L 161.2479 119.5584 
L 160.9503 108.17472 
L 160.6527 102.70464 
L 160.3551 111.4272 
L 160.0575 126.35904 
L 159.7599 123.40224 
L 159.4623 126.06336 
L 159.1647 107.87904 
L 158.8671 103.14816 
L 158.5695 125.76768 
L 158.2719 110.09664 
L 157.9743 113.6448 
L 157.6767 100.78272 
L 157.3791 98.56512 
L 157.0815 112.60992 
L 156.7839 117.19296 
L 156.4863 114.384 
L 156.1887 121.62816 
L 155.8911 119.85408 
L 155.5935 119.70624 
L 155.2959 116.01024 
L 154.9983 113.34912 
L 154.7007 116.45376 
L 154.4031 113.6448 
L 154.1055 120.00192 
L 153.8079 122.95872 
L 153.5103 123.10656 
L 153.2127 122.36736 
L 152.9151 119.41056 
L 152.6175 124.88064 
L 152.3199 117.48864 
L 152.0223 115.41888 
L 151.7247 129.9072 
L 151.4271 133.45536 
L 151.1295 103.296 
L 150.8319 128.28096 
L 150.5343 116.45376 
L 150.2367 117.19296 
L 149.9391 122.66304 
L 149.6415 123.2544 
L 149.3439 122.81088 
L 149.0463 124.58496 
L 148.7487 125.76768 
L 148.4511 121.18464 
L 148.1535 120.14976 
L 147.8559 114.97536 
L 147.5583 118.8192 
L 147.2607 124.28928 
L 146.9631 129.61152 
L 146.6655 122.36736 
L 146.3679 126.65472 
L 146.0703 113.05344 
L 145.7727 121.48032 
L 145.4751 116.89728 
L 145.1775 115.71456 
L 144.8799 115.41888 
L 144.5823 112.01856 
L 144.2847 125.17632 
L 143.9871 130.94208 
L 143.6895 122.21952 
L 143.3919 133.75104 
L 143.0943 105.66144 
L 142.7967 115.8624 
L 142.4991 112.01856 
L 142.2015 121.0368 
L 141.9039 113.79264 
L 141.6063 131.3856 
L 141.3087 120.59328 
L 141.0111 120.14976 
L 140.7135 129.61152 
L 140.4159 127.6896 
L 140.1183 117.63648 
L 139.8207 117.3408 
L 139.5231 132.864 
L 139.2255 133.30752 
L 138.9279 127.98528 
L 138.6303 133.45536 
L 138.3327 119.41056 
L 138.0351 140.69952 
L 137.7375 120.59328 
L 137.4399 128.28096 
L 137.1423 113.20128 
L 136.8447 133.15968 
L 136.5471 135.0816 
L 136.2495 123.84576 
L 135.9519 114.23616 
L 135.6543 122.81088 
L 135.3567 116.89728 
L 135.0591 120.14976 
L 134.7615 118.67136 
L 134.4639 128.72448 
L 134.1663 121.0368 
L 133.8687 128.87232 
L 133.5711 131.08992 
L 133.2735 147.94368 
L 132.9759 135.67296 
L 132.6783 129.75936 
L 132.3807 140.55168 
L 132.0831 156.07488 
L 131.7855 131.53344 
L 131.4879 137.89056 
L 131.1903 128.4288 
L 130.8927 138.7776 
L 130.5951 127.6896 
L 130.2975 129.168 
L 129.9999 132.864 
L 129.7023 142.03008 
L 129.4047 128.57664 
L 129.1071 132.42048 
L 128.8095 146.61312 
L 128.5119 139.96032 
L 128.2143 144.83904 
L 127.9167 158.14464 
L 127.6191 146.02176 
L 127.3215 145.57824 
L 127.0239 152.97024 
L 126.7263 150.45696 
L 126.4287 162.72768 
L 126.1311 148.23936 
L 125.8335 150.16128 
L 125.5359 153.41376 
L 125.2383 139.66464 
L 124.9407 163.46688 
L 124.6431 172.92864 
L 124.3455 150.90048 
L 124.0479 177.36384 
L 123.7503 162.28416 
L 123.4527 183.8688 
L 123.1551 167.01504 
L 122.8575 219.79392 
L 122.5599 170.5632 
L 122.2623 214.76736 
L 121.9647 163.02336 
L 121.6671 185.49504 
L 121.3695 168.64128 
L 121.0719 176.32896 
L 120.7743 183.8688 
L 120.4767 164.6496 
L 120.1791 171.74592 
L 119.8815 203.53152 
L 119.5839 210.18432 
L 119.2863 215.50656 
L 118.9887 210.92352 
L 118.6911 214.47168 
L 118.3935 236.05632 
L 118.0959 218.46336 
L 117.7983 234.1344 
L 117.5007 194.36544 
L 117.2031 211.51488 
L 116.9055 229.84704 
L 116.6079 180.912 
L 116.3103 193.92192 
L 116.0127 221.27232 
L 115.7151 175.44192 
L 115.4175 215.35872 
L 115.1199 219.79392 
L 114.8223 224.82048 
L 114.5247 244.18752 
L 114.2271 224.37696 
L 113.9295 221.27232 
L 113.6319 210.18432 
L 113.3343 224.22912 
L 113.0367 225.41184 
L 112.7391 217.1328 
L 112.4415 220.8288 
L 112.1439 210.33216 
L 111.8463 222.45504 
L 111.5487 202.94016 
L 111.2511 218.6112 
L 110.9535 214.32384 
L 110.6559 217.57632 
L 110.3583 218.31552 
L 110.0607 223.7856 
L 109.7631 199.53984 
L 109.4655 207.81888 
L 109.1679 218.90688 
L 108.8703 206.93184 
L 108.5727 215.06304 
L 108.2751 197.76576 
L 107.9775 211.36704 
L 107.6799 199.98336 
L 107.3823 201.6096 
L 107.0847 197.9136 
L 106.7871 219.49824 
L 106.4895 210.18432 
L 106.1919 207.37536 
L 105.8943 212.40192 
L 105.5967 215.50656 
L 105.2991 209.0016 
L 105.0015 200.8704 
L 104.7039 205.3056 
L 104.4063 201.6096 
L 104.1087 198.6528 
L 103.8111 213.73248 
L 103.5135 210.18432 
L 103.2159 193.92192 
L 102.9183 208.85376 
L 102.6207 208.2624 
L 102.3231 199.09632 
L 102.0255 198.20928 
L 101.7279 207.81888 
L 101.4303 188.45184 
L 101.1327 198.80064 
L 100.8351 197.76576 
L 100.5375 200.8704 
L 100.2399 207.5232 
L 99.9423 195.10464 
L 99.6447 200.27904 
L 99.3471 195.84384 
L 99.0495 192.44352 
L 98.7519 197.76576 
L 98.4543 193.62624 
L 98.1567 193.03488 
L 97.8591 195.25248 
L 97.5615 187.26912 
L 97.2639 196.73088 
L 96.9663 184.01664 
L 96.6687 195.54816 
L 96.3711 189.33888 
L 96.0735 189.33888 
L 95.7759 197.61792 
L 95.4783 190.5216 
L 95.1807 190.66944 
L 94.8831 187.5648 
L 94.5855 193.92192 
L 94.2879 191.11296 
L 93.9903 184.31232 
L 93.6927 191.11296 
L 93.3951 183.72096 
L 93.0975 187.5648 
L 92.7999 194.80896 
L 92.5023 191.55648 
L 92.2047 188.00832 
L 91.9071 191.85216 
L 91.6095 185.19936 
L 91.3119 189.19104 
L 91.0143 193.18272 
L 90.7167 188.45184 
L 90.4191 181.94688 
L 90.1215 184.31232 
L 89.8239 186.8256 
L 89.5263 186.38208 
L 89.2287 180.02496 
L 88.9311 188.00832 
L 88.6335 185.49504 
L 88.3359 193.03488 
L 88.0383 187.86048 
L 87.7407 194.36544 
L 87.4431 187.41696 
L 87.1455 195.696 
L 86.8479 188.89536 
L 86.5503 196.4352 
L 86.2527 188.15616 
L 85.9551 192 
L 85.6575 193.4784 
L 85.3599 189.7824 
L 85.0623 188.00832 
L 84.7647 195.25248 
L 84.4671 194.80896 
L 84.1695 190.81728 
L 83.8719 190.5216 
L 83.5743 190.07808 
L 83.2767 194.51328 
L 82.9791 197.32224 
L 82.6815 191.2608 
L 82.3839 192.88704 
L 82.0863 201.31392 
L 81.7887 203.23584 
L 81.4911 202.79232 
L 81.1935 201.16608 
L 80.8959 199.24416 
L 80.5983 197.32224 
L 80.3007 203.38368 
L 80.0031 200.72256 
L 79.7055 201.75744 
L 79.4079 196.28736 
L 79.1103 199.83552 
L 78.8127 202.49664 
L 78.5151 207.22752 
L 78.2175 206.784 
L 77.9199 198.35712 
L 77.6223 199.98336 
L 77.3247 202.3488 
L 77.0271 201.01824 
L 76.7295 206.34048 
L 76.4319 210.03648 
L 76.1343 198.6528 
L 75.8367 206.34048 
L 75.5391 211.2192 
L 75.2415 206.48832 
L 74.9439 208.55808 
L 74.6463 209.7408 
L 74.3487 209.7408 
L 74.0511 203.088 
L 73.7535 214.02816 
L 73.4559 208.41024 
L 73.1583 204.27072 
L 72.8607 212.10624 
L 72.5631 203.088 
L 72.2655 212.84544 
L 71.9679 215.35872 
L 71.6703 212.84544 
L 71.3727 209.44512 
L 71.0751 213.14112 
L 70.7775 211.81056 
L 70.4799 215.6544 
L 70.1823 208.11456 
L 69.8847 214.9152 
L 69.5871 223.19424 
L 69.2895 218.75904 
L 68.9919 211.2192 
L 68.6943 221.27232 
L 68.3967 219.20256 
L 68.0991 212.6976 
L 67.8015 221.86368 
L 67.5039 214.32384 
L 67.2063 211.9584 
L 66.9087 217.42848 
L 66.6111 221.71584 
L 66.3135 223.48992 
L 66.0159 212.10624 
L 65.7183 218.16768 
L 65.4207 222.45504 
L 65.1231 223.63776 
L 64.8255 224.37696 
L 64.5279 220.53312 
L 64.2303 221.71584 
L 63.9327 218.90688 
L 63.6351 216.68928 
L 63.3375 213.73248 
L 63.0399 219.94176 
L 62.7423 219.49824 
L 62.4447 219.05472 
L 62.1471 226.15104 
L 61.8495 224.5248 
L 61.5519 223.19424 
L 61.2543 225.70752 
L 60.9567 220.97664 
L 60.6591 229.10784 
L 60.3615 229.6992 
L 60.0639 222.75072 
L 59.7663 224.08128 
L 59.4687 223.7856 
L 59.1711 223.63776 
L 58.8735 222.01152 
L 58.5759 223.7856 
L 58.2783 222.60288 
L 57.9807 220.68096 
L 57.6831 217.1328 
L 57.3855 221.42016 
L 57.0879 223.63776 
L 56.7903 226.29888 
L 56.4927 223.34208 
L 56.1951 225.264 
L 55.8975 235.31712 
L 55.5999 229.84704 
L 55.3023 229.25568 
L 55.0047 223.7856 
L 54.7071 219.05472 
L 54.4095 221.71584 
L 54.1119 218.01984 
L 53.8143 225.55968 
L 53.5167 226.89024 
L 53.2191 224.82048 
L 52.9215 221.71584 
L 52.6239 228.81216 
L 52.3263 231.76896 
L 52.0287 227.77728 
L 51.7311 223.0464 
L 51.4335 223.7856 
L 51.1359 220.38528 
L 50.8383 227.92512 
L 50.5407 223.93344 
L 50.2431 223.93344 
L 49.9455 226.0032 
L 49.6479 227.92512 
L 49.3503 226.89024 
L 49.0527 225.11616 
L 48.7551 221.71584 
L 48.4575 221.568 
L 48.1599 223.0464 
L 47.8623 226.7424 
L 47.5647 226.59456 
L 47.2671 221.27232 
L 46.9695 223.19424 
L 46.6719 226.7424 
L 46.3743 223.19424 
L 46.0767 224.22912 
L 45.7791 223.0464 
L 45.4815 226.29888 
L 45.1839 225.55968 
L 44.8863 224.67264 
L 44.5887 223.93344 
L 44.2911 222.89856 
L 43.9935 222.75072 
L 43.6959 223.93344 
L 43.3983 223.48992 
L 43.1007 223.19424 
L 42.8031 223.7856 
L 42.5055 223.93344 
z
" clip-path="url(#pf92834ffcc)" style="fill: #81d34d; fill-opacity: 0.3"/>
   </g>
   <g id="matplotlib.axis_1">
    <g id="xtick_1">
     <g id="line2d_1">
      <defs>
       <path id="me4362afe63" d="M 0 0 
L 0 3.5 
" style="stroke: #000000; stroke-width: 0.8"/>
      </defs>
      <g>
       <use xlink:href="#me4362afe63" x="33.5775" y="228.96" style="stroke: #000000; stroke-width: 0.8"/>
      </g>
     </g>
     <g id="text_1">
      <text style="font: 6px 'DejaVu Sans', 'Bitstream Vera Sans', 'Computer Modern Sans Serif', 'Lucida Grande', 'Verdana', 'Geneva', 'Lucid', 'Arial', 'Helvetica', 'Avant Garde', sans-serif; text-anchor: middle" x="33.5775" y="240.519062" transform="rotate(-0 33.5775 240.519062)">0</text>
     </g>
    </g>
    <g id="xtick_2">
     <g id="line2d_2">
      <g>
       <use xlink:href="#me4362afe63" x="69.2895" y="228.96" style="stroke: #000000; stroke-width: 0.8"/>
      </g>
     </g>
     <g id="text_2">
      <text style="font: 6px 'DejaVu Sans', 'Bitstream Vera Sans', 'Computer Modern Sans Serif', 'Lucida Grande', 'Verdana', 'Geneva', 'Lucid', 'Arial', 'Helvetica', 'Avant Garde', sans-serif; text-anchor: middle" x="69.2895" y="240.519062" transform="rotate(-0 69.2895 240.519062)">4</text>
     </g>
    </g>
    <g id="xtick_3">
     <g id="line2d_3">
      <g>
       <use xlink:href="#me4362afe63" x="105.0015" y="228.96" style="stroke: #000000; stroke-width: 0.8"/>
      </g>
     </g>
     <g id="text_3">
      <text style="font: 6px 'DejaVu Sans', 'Bitstream Vera Sans', 'Computer Modern Sans Serif', 'Lucida Grande', 'Verdana', 'Geneva', 'Lucid', 'Arial', 'Helvetica', 'Avant Garde', sans-serif; text-anchor: middle" x="105.0015" y="240.519062" transform="rotate(-0 105.0015 240.519062)">8</text>
     </g>
    </g>
    <g id="xtick_4">
     <g id="line2d_4">
      <g>
       <use xlink:href="#me4362afe63" x="140.7135" y="228.96" style="stroke: #000000; stroke-width: 0.8"/>
      </g>
     </g>
     <g id="text_4">
      <text style="font: 6px 'DejaVu Sans', 'Bitstream Vera Sans', 'Computer Modern Sans Serif', 'Lucida Grande', 'Verdana', 'Geneva', 'Lucid', 'Arial', 'Helvetica', 'Avant Garde', sans-serif; text-anchor: middle" x="140.7135" y="240.519062" transform="rotate(-0 140.7135 240.519062)">12</text>
     </g>
    </g>
    <g id="xtick_5">
     <g id="line2d_5">
      <g>
       <use xlink:href="#me4362afe63" x="176.4255" y="228.96" style="stroke: #000000; stroke-width: 0.8"/>
      </g>
     </g>
     <g id="text_5">
      <text style="font: 6px 'DejaVu Sans', 'Bitstream Vera Sans', 'Computer Modern Sans Serif', 'Lucida Grande', 'Verdana', 'Geneva', 'Lucid', 'Arial', 'Helvetica', 'Avant Garde', sans-serif; text-anchor: middle" x="176.4255" y="240.519062" transform="rotate(-0 176.4255 240.519062)">16</text>
     </g>
    </g>
    <g id="xtick_6">
     <g id="line2d_6">
      <g>
       <use xlink:href="#me4362afe63" x="212.1375" y="228.96" style="stroke: #000000; stroke-width: 0.8"/>
      </g>
     </g>
     <g id="text_6">
      <text style="font: 6px 'DejaVu Sans', 'Bitstream Vera Sans', 'Computer Modern Sans Serif', 'Lucida Grande', 'Verdana', 'Geneva', 'Lucid', 'Arial', 'Helvetica', 'Avant Garde', sans-serif; text-anchor: middle" x="212.1375" y="240.519062" transform="rotate(-0 212.1375 240.519062)">20</text>
     </g>
    </g>
    <g id="xtick_7">
     <g id="line2d_7">
      <g>
       <use xlink:href="#me4362afe63" x="247.8495" y="228.96" style="stroke: #000000; stroke-width: 0.8"/>
      </g>
     </g>
     <g id="text_7">
      <text style="font: 6px 'DejaVu Sans', 'Bitstream Vera Sans', 'Computer Modern Sans Serif', 'Lucida Grande', 'Verdana', 'Geneva', 'Lucid', 'Arial', 'Helvetica', 'Avant Garde', sans-serif; text-anchor: middle" x="247.8495" y="240.519062" transform="rotate(-0 247.8495 240.519062)">24</text>
     </g>
    </g>
    <g id="text_8">
     <text style="font: 8px 'DejaVu Sans', 'Bitstream Vera Sans', 'Computer Modern Sans Serif', 'Lucida Grande', 'Verdana', 'Geneva', 'Lucid', 'Arial', 'Helvetica', 'Avant Garde', sans-serif; text-anchor: middle" x="145.1775" y="251.845625" transform="rotate(-0 145.1775 251.845625)">Experimental time (hpf)</text>
    </g>
   </g>
   <g id="matplotlib.axis_2">
    <g id="ytick_1">
     <g id="line2d_8">
      <defs>
       <path id="md1db014947" d="M 0 0 
L -3.5 0 
" style="stroke: #000000; stroke-width: 0.8"/>
      </defs>
      <g>
       <use xlink:href="#md1db014947" x="33.5775" y="228.96" style="stroke: #000000; stroke-width: 0.8"/>
      </g>
     </g>
     <g id="text_9">
      <text style="font: 6px 'DejaVu Sans', 'Bitstream Vera Sans', 'Computer Modern Sans Serif', 'Lucida Grande', 'Verdana', 'Geneva', 'Lucid', 'Arial', 'Helvetica', 'Avant Garde', sans-serif; text-anchor: end" x="26.5775" y="231.239531" transform="rotate(-0 26.5775 231.239531)">0</text>
     </g>
    </g>
    <g id="ytick_2">
     <g id="line2d_9">
      <g>
       <use xlink:href="#md1db014947" x="33.5775" y="193.4784" style="stroke: #000000; stroke-width: 0.8"/>
      </g>
     </g>
     <g id="text_10">
      <text style="font: 6px 'DejaVu Sans', 'Bitstream Vera Sans', 'Computer Modern Sans Serif', 'Lucida Grande', 'Verdana', 'Geneva', 'Lucid', 'Arial', 'Helvetica', 'Avant Garde', sans-serif; text-anchor: end" x="26.5775" y="195.757931" transform="rotate(-0 26.5775 195.757931)">4</text>
     </g>
    </g>
    <g id="ytick_3">
     <g id="line2d_10">
      <g>
       <use xlink:href="#md1db014947" x="33.5775" y="157.9968" style="stroke: #000000; stroke-width: 0.8"/>
      </g>
     </g>
     <g id="text_11">
      <text style="font: 6px 'DejaVu Sans', 'Bitstream Vera Sans', 'Computer Modern Sans Serif', 'Lucida Grande', 'Verdana', 'Geneva', 'Lucid', 'Arial', 'Helvetica', 'Avant Garde', sans-serif; text-anchor: end" x="26.5775" y="160.276331" transform="rotate(-0 26.5775 160.276331)">8</text>
     </g>
    </g>
    <g id="ytick_4">
     <g id="line2d_11">
      <g>
       <use xlink:href="#md1db014947" x="33.5775" y="122.5152" style="stroke: #000000; stroke-width: 0.8"/>
      </g>
     </g>
     <g id="text_12">
      <text style="font: 6px 'DejaVu Sans', 'Bitstream Vera Sans', 'Computer Modern Sans Serif', 'Lucida Grande', 'Verdana', 'Geneva', 'Lucid', 'Arial', 'Helvetica', 'Avant Garde', sans-serif; text-anchor: end" x="26.5775" y="124.794731" transform="rotate(-0 26.5775 124.794731)">12</text>
     </g>
    </g>
    <g id="ytick_5">
     <g id="line2d_12">
      <g>
       <use xlink:href="#md1db014947" x="33.5775" y="87.0336" style="stroke: #000000; stroke-width: 0.8"/>
      </g>
     </g>
     <g id="text_13">
      <text style="font: 6px 'DejaVu Sans', 'Bitstream Vera Sans', 'Computer Modern Sans Serif', 'Lucida Grande', 'Verdana', 'Geneva', 'Lucid', 'Arial', 'Helvetica', 'Avant Garde', sans-serif; text-anchor: end" x="26.5775" y="89.313131" transform="rotate(-0 26.5775 89.313131)">16</text>
     </g>
    </g>
    <g id="ytick_6">
     <g id="line2d_13">
      <g>
       <use xlink:href="#md1db014947" x="33.5775" y="51.552" style="stroke: #000000; stroke-width: 0.8"/>
      </g>
     </g>
     <g id="text_14">
      <text style="font: 6px 'DejaVu Sans', 'Bitstream Vera Sans', 'Computer Modern Sans Serif', 'Lucida Grande', 'Verdana', 'Geneva', 'Lucid', 'Arial', 'Helvetica', 'Avant Garde', sans-serif; text-anchor: end" x="26.5775" y="53.831531" transform="rotate(-0 26.5775 53.831531)">20</text>
     </g>
    </g>
    <g id="ytick_7">
     <g id="line2d_14">
      <g>
       <use xlink:href="#md1db014947" x="33.5775" y="16.0704" style="stroke: #000000; stroke-width: 0.8"/>
      </g>
     </g>
     <g id="text_15">
      <text style="font: 6px 'DejaVu Sans', 'Bitstream Vera Sans', 'Computer Modern Sans Serif', 'Lucida Grande', 'Verdana', 'Geneva', 'Lucid', 'Arial', 'Helvetica', 'Avant Garde', sans-serif; text-anchor: end" x="26.5775" y="18.349931" transform="rotate(-0 26.5775 18.349931)">24</text>
     </g>
    </g>
    <g id="text_16">
     <text style="font: 8px 'DejaVu Sans', 'Bitstream Vera Sans', 'Computer Modern Sans Serif', 'Lucida Grande', 'Verdana', 'Geneva', 'Lucid', 'Arial', 'Helvetica', 'Avant Garde', sans-serif; text-anchor: middle" x="13.27875" y="118.08" transform="rotate(-90 13.27875 118.08)">Developmental age (hpf)</text>
    </g>
   </g>
   <g id="line2d_15">
    <path d="M 42.5055 220.0896 
L 230.593818 -1 
L 230.593818 -1 
" clip-path="url(#pf92834ffcc)" style="fill: none; stroke: #81d34d; stroke-linecap: square"/>
   </g>
   <g id="line2d_16">
    <path d="M 42.5055 220.0896 
L 252.654768 -1 
L 252.654768 -1 
" clip-path="url(#pf92834ffcc)" style="fill: none; stroke-dasharray: 3.7,1.6; stroke-dashoffset: 0; stroke: #81d34d"/>
   </g>
   <g id="line2d_17">
    <path d="M 42.5055 220.0896 
L 220.517271 -1 
L 220.517271 -1 
" clip-path="url(#pf92834ffcc)" style="fill: none; stroke-dasharray: 3.7,1.6; stroke-dashoffset: 0; stroke: #81d34d"/>
   </g>
   <g id="patch_3">
    <path d="M 33.5775 228.96 
L 33.5775 7.2 
" style="fill: none; stroke: #000000; stroke-width: 0.8; stroke-linejoin: miter; stroke-linecap: square"/>
   </g>
   <g id="patch_4">
    <path d="M 33.5775 228.96 
L 256.7775 228.96 
" style="fill: none; stroke: #000000; stroke-width: 0.8; stroke-linejoin: miter; stroke-linecap: square"/>
   </g>
   <g id="legend_1">
    <g id="patch_5">
     <path d="M 93.656011 226.065 
L 252.7245 226.065 
Q 253.8825 226.065 253.8825 224.907 
L 253.8825 208.488731 
Q 253.8825 207.330731 252.7245 207.330731 
L 93.656011 207.330731 
Q 92.498011 207.330731 92.498011 208.488731 
L 92.498011 224.907 
Q 92.498011 226.065 93.656011 226.065 
z
" style="fill: #ffffff; opacity: 0.8; stroke: #cccccc; stroke-linejoin: miter"/>
    </g>
    <g id="line2d_18">
     <path d="M 94.814011 212.019727 
L 100.604011 212.019727 
L 106.394011 212.019727 
" style="fill: none; stroke: #81d34d; stroke-linecap: square"/>
    </g>
    <g id="text_17">
     <text style="font: 5.79px 'DejaVu Sans', 'Bitstream Vera Sans', 'Computer Modern Sans Serif', 'Lucida Grande', 'Verdana', 'Geneva', 'Lucid', 'Arial', 'Helvetica', 'Avant Garde', sans-serif; text-anchor: start" x="111.026011" y="214.046227" transform="rotate(-0 111.026011 214.046227)">Linear fit: slope=1.175 [1.059,1.250], R2=0.980</text>
    </g>
    <g id="patch_6">
     <path d="M 94.814011 222.544861 
L 106.394011 222.544861 
L 106.394011 218.491861 
L 94.814011 218.491861 
z
" style="fill: #81d34d; fill-opacity: 0.3"/>
    </g>
    <g id="text_18">
     <text style="font: 5.79px 'DejaVu Sans', 'Bitstream Vera Sans', 'Computer Modern Sans Serif', 'Lucida Grande', 'Verdana', 'Geneva', 'Lucid', 'Arial', 'Helvetica', 'Avant Garde', sans-serif; text-anchor: start" x="111.026011" y="222.544861" transform="rotate(-0 111.026011 222.544861)">Median:33.0C</text>
    </g>
   </g>
  </g>
 </g>
 <defs>
  <clipPath id="pf92834ffcc">
   <rect x="33.5775" y="7.2" width="223.2" height="221.76"/>
  </clipPath>
 </defs>
</svg>
