<?xml version="1.0" encoding="utf-8" standalone="no"?>
<!DOCTYPE svg PUBLIC "-//W3C//DTD SVG 1.1//EN"
  "http://www.w3.org/Graphics/SVG/1.1/DTD/svg11.dtd">
<svg xmlns:xlink="http://www.w3.org/1999/xlink" width="263.9775pt" height="260.709375pt" viewBox="0 0 263.9775 260.709375" xmlns="http://www.w3.org/2000/svg" version="1.1">
 <metadata>
  <rdf:RDF xmlns:dc="http://purl.org/dc/elements/1.1/" xmlns:cc="http://creativecommons.org/ns#" xmlns:rdf="http://www.w3.org/1999/02/22-rdf-syntax-ns#">
   <cc:Work>
    <dc:type rdf:resource="http://purl.org/dc/dcmitype/StillImage"/>
    <dc:date>2023-07-28T12:56:19.737022</dc:date>
    <dc:format>image/svg+xml</dc:format>
    <dc:creator>
     <cc:Agent>
      <dc:title>Matplotlib v3.7.0, https://matplotlib.org/</dc:title>
     </cc:Agent>
    </dc:creator>
   </cc:Work>
  </rdf:RDF>
 </metadata>
 <defs>
  <style type="text/css">*{stroke-linejoin: round; stroke-linecap: butt}</style>
 </defs>
 <g id="figure_1">
  <g id="patch_1">
   <path d="M 0 260.709375 
L 263.9775 260.709375 
L 263.9775 0 
L 0 0 
z
" style="fill: #ffffff"/>
  </g>
  <g id="axes_1">
   <g id="patch_2">
    <path d="M 33.5775 228.96 
L 256.7775 228.96 
L 256.7775 7.2 
L 33.5775 7.2 
z
" style="fill: #ffffff"/>
   </g>
   <g id="PolyCollection_1">
    <path d="M 42.5055 220.68096 
L 42.5055 215.95008 
L 42.8031 216.68928 
L 43.1007 214.76736 
L 43.3983 214.47168 
L 43.6959 215.21088 
L 43.9935 214.47168 
L 44.2911 212.99328 
L 44.5887 211.66272 
L 44.8863 214.9152 
L 45.1839 214.76736 
L 45.4815 214.32384 
L 45.7791 212.99328 
L 46.0767 211.81056 
L 46.3743 212.6976 
L 46.6719 209.88864 
L 46.9695 209.7408 
L 47.2671 215.21088 
L 47.5647 207.07968 
L 47.8623 209.29728 
L 48.1599 209.7408 
L 48.4575 209.59296 
L 48.7551 205.45344 
L 49.0527 206.19264 
L 49.3503 207.37536 
L 49.6479 204.27072 
L 49.9455 207.37536 
L 50.2431 204.86208 
L 50.5407 204.27072 
L 50.8383 205.74912 
L 51.1359 206.34048 
L 51.4335 203.53152 
L 51.7311 196.87872 
L 52.0287 201.46176 
L 52.3263 195.10464 
L 52.6239 203.67936 
L 52.9215 202.05312 
L 53.2191 190.07808 
L 53.5167 205.89696 
L 53.8143 200.8704 
L 54.1119 204.86208 
L 54.4095 204.41856 
L 54.7071 196.87872 
L 55.0047 196.28736 
L 55.3023 181.94688 
L 55.5999 178.39872 
L 55.8975 198.35712 
L 56.1951 183.27744 
L 56.4927 195.25248 
L 56.7903 191.40864 
L 57.0879 198.50496 
L 57.3855 196.58304 
L 57.6831 192.29568 
L 57.9807 195.40032 
L 58.2783 182.53824 
L 58.5759 193.18272 
L 58.8735 191.70432 
L 59.1711 199.68768 
L 59.4687 195.54816 
L 59.7663 189.33888 
L 60.0639 197.76576 
L 60.3615 192.29568 
L 60.6591 181.20768 
L 60.9567 193.4784 
L 61.2543 197.32224 
L 61.5519 193.62624 
L 61.8495 187.26912 
L 62.1471 197.02656 
L 62.4447 188.45184 
L 62.7423 174.55488 
L 63.0399 189.48672 
L 63.3375 184.31232 
L 63.6351 188.59968 
L 63.9327 173.37216 
L 64.2303 185.05152 
L 64.5279 151.78752 
L 64.8255 180.76416 
L 65.1231 178.99008 
L 65.4207 181.94688 
L 65.7183 182.68608 
L 66.0159 151.63968 
L 66.3135 179.13792 
L 66.6111 181.79904 
L 66.9087 178.25088 
L 67.2063 167.16288 
L 67.5039 174.85056 
L 67.8015 168.49344 
L 68.0991 159.17952 
L 68.3967 164.05824 
L 68.6943 181.35552 
L 68.9919 175.14624 
L 69.2895 180.912 
L 69.5871 171.3024 
L 69.8847 167.90208 
L 70.1823 164.20608 
L 70.4799 167.16288 
L 70.7775 160.2144 
L 71.0751 175.58976 
L 71.3727 167.6064 
L 71.6703 184.608 
L 71.9679 184.75584 
L 72.2655 182.68608 
L 72.5631 190.81728 
L 72.8607 160.36224 
L 73.1583 190.07808 
L 73.4559 180.46848 
L 73.7535 184.01664 
L 74.0511 182.09472 
L 74.3487 181.35552 
L 74.6463 177.51168 
L 74.9439 188.15616 
L 75.2415 167.16288 
L 75.5391 169.97184 
L 75.8367 178.10304 
L 76.1343 180.1728 
L 76.4319 176.62464 
L 76.7295 181.6512 
L 77.0271 178.99008 
L 77.3247 168.3456 
L 77.6223 189.7824 
L 77.9199 172.63296 
L 78.2175 162.72768 
L 78.5151 160.36224 
L 78.8127 170.41536 
L 79.1103 185.19936 
L 79.4079 164.50176 
L 79.7055 137.15136 
L 80.0031 163.31904 
L 80.3007 153.70944 
L 80.5983 166.57152 
L 80.8959 167.16288 
L 81.1935 157.70112 
L 81.4911 173.66784 
L 81.7887 123.69792 
L 82.0863 152.23104 
L 82.3839 160.06656 
L 82.6815 172.63296 
L 82.9791 157.9968 
L 83.2767 148.53504 
L 83.5743 148.09152 
L 83.8719 151.19616 
L 84.1695 72.54528 
L 84.4671 99.00864 
L 84.7647 67.37088 
L 85.0623 105.95712 
L 85.3599 136.85568 
L 85.6575 119.26272 
L 85.9551 128.13312 
L 86.2527 175.7376 
L 86.5503 152.0832 
L 86.8479 137.15136 
L 87.1455 162.432 
L 87.4431 147.79584 
L 87.7407 151.63968 
L 88.0383 142.4736 
L 88.3359 169.67616 
L 88.6335 163.61472 
L 88.9311 157.2576 
L 89.2287 148.23936 
L 89.5263 160.36224 
L 89.8239 151.93536 
L 90.1215 168.78912 
L 90.4191 157.9968 
L 90.7167 150.6048 
L 91.0143 165.83232 
L 91.3119 168.64128 
L 91.6095 165.68448 
L 91.9071 159.62304 
L 92.2047 155.7792 
L 92.5023 169.0848 
L 92.7999 144.09984 
L 93.0975 165.24096 
L 93.3951 168.3456 
L 93.6927 159.77088 
L 93.9903 157.2576 
L 94.2879 152.67456 
L 94.5855 171.15456 
L 94.8831 162.57984 
L 95.1807 159.77088 
L 95.4783 166.71936 
L 95.7759 163.31904 
L 96.0735 150.01344 
L 96.3711 153.26592 
L 96.6687 161.39712 
L 96.9663 175.7376 
L 97.2639 165.09312 
L 97.5615 170.41536 
L 97.8591 164.94528 
L 98.1567 170.41536 
L 98.4543 168.19776 
L 98.7519 181.50336 
L 99.0495 169.67616 
L 99.3471 170.71104 
L 99.6447 163.46688 
L 99.9423 165.83232 
L 100.2399 178.25088 
L 100.5375 173.66784 
L 100.8351 164.20608 
L 101.1327 176.4768 
L 101.4303 170.26752 
L 101.7279 162.72768 
L 102.0255 169.0848 
L 102.3231 153.85728 
L 102.6207 162.13632 
L 102.9183 159.4752 
L 103.2159 167.31072 
L 103.5135 164.35392 
L 103.8111 160.65792 
L 104.1087 172.18944 
L 104.4063 180.76416 
L 104.7039 157.40544 
L 105.0015 157.9968 
L 105.2991 172.33728 
L 105.5967 161.6928 
L 105.8943 164.79744 
L 106.1919 174.40704 
L 106.4895 163.02336 
L 106.7871 170.41536 
L 107.0847 154.15296 
L 107.3823 165.3888 
L 107.6799 163.1712 
L 107.9775 163.61472 
L 108.2751 172.18944 
L 108.5727 172.92864 
L 108.8703 176.03328 
L 109.1679 160.06656 
L 109.4655 154.3008 
L 109.7631 155.92704 
L 110.0607 155.63136 
L 110.3583 171.59808 
L 110.6559 146.02176 
L 110.9535 163.02336 
L 111.2511 166.27584 
L 111.5487 158.58816 
L 111.8463 168.19776 
L 112.1439 151.344 
L 112.4415 169.67616 
L 112.7391 164.35392 
L 113.0367 166.8672 
L 113.3343 156.96192 
L 113.6319 166.8672 
L 113.9295 166.8672 
L 114.2271 166.27584 
L 114.5247 172.18944 
L 114.8223 168.49344 
L 115.1199 156.96192 
L 115.4175 169.97184 
L 115.7151 168.04992 
L 116.0127 164.79744 
L 116.3103 167.6064 
L 116.6079 168.78912 
L 116.9055 166.27584 
L 117.2031 165.98016 
L 117.5007 158.736 
L 117.7983 164.6496 
L 118.0959 158.29248 
L 118.3935 161.6928 
L 118.6911 163.31904 
L 118.9887 150.75264 
L 119.2863 169.23264 
L 119.5839 161.10144 
L 119.8815 163.02336 
L 120.1791 158.58816 
L 120.4767 162.28416 
L 120.7743 160.51008 
L 121.0719 155.63136 
L 121.3695 163.31904 
L 121.6671 169.52832 
L 121.9647 167.01504 
L 122.2623 161.54496 
L 122.5599 159.77088 
L 122.8575 162.432 
L 123.1551 156.37056 
L 123.4527 159.17952 
L 123.7503 163.02336 
L 124.0479 161.84064 
L 124.3455 167.6064 
L 124.6431 167.01504 
L 124.9407 162.13632 
L 125.2383 162.13632 
L 125.5359 160.06656 
L 125.8335 162.57984 
L 126.1311 160.51008 
L 126.4287 155.48352 
L 126.7263 159.4752 
L 127.0239 156.96192 
L 127.3215 160.36224 
L 127.6191 159.77088 
L 127.9167 161.84064 
L 128.2143 160.51008 
L 128.5119 147.648 
L 128.8095 160.36224 
L 129.1071 162.432 
L 129.4047 157.2576 
L 129.7023 160.51008 
L 129.9999 166.27584 
L 130.2975 163.1712 
L 130.5951 156.66624 
L 130.8927 159.77088 
L 131.1903 154.44864 
L 131.4879 155.33568 
L 131.7855 156.07488 
L 132.0831 149.56992 
L 132.3807 157.70112 
L 132.6783 156.81408 
L 132.9759 160.65792 
L 133.2735 152.97024 
L 133.5711 150.75264 
L 133.8687 160.36224 
L 134.1663 153.5616 
L 134.4639 151.63968 
L 134.7615 161.98848 
L 135.0591 155.04 
L 135.3567 153.11808 
L 135.6543 160.06656 
L 135.9519 158.29248 
L 136.2495 159.62304 
L 136.5471 159.62304 
L 136.8447 162.87552 
L 137.1423 151.19616 
L 137.4399 161.39712 
L 137.7375 156.81408 
L 138.0351 154.44864 
L 138.3327 161.39712 
L 138.6303 151.63968 
L 138.9279 160.65792 
L 139.2255 154.3008 
L 139.5231 152.52672 
L 139.8207 159.03168 
L 140.1183 154.74432 
L 140.4159 156.37056 
L 140.7135 157.84896 
L 141.0111 156.5184 
L 141.3087 153.70944 
L 141.6063 157.10976 
L 141.9039 150.45696 
L 142.2015 151.78752 
L 142.4991 159.17952 
L 142.7967 152.8224 
L 143.0943 149.71776 
L 143.3919 151.93536 
L 143.6895 153.85728 
L 143.9871 157.55328 
L 144.2847 156.66624 
L 144.5823 162.87552 
L 144.8799 159.91872 
L 145.1775 159.91872 
L 145.4751 159.03168 
L 145.7727 158.58816 
L 146.0703 153.70944 
L 146.3679 156.22272 
L 146.6655 159.03168 
L 146.9631 160.2144 
L 147.2607 161.6928 
L 147.5583 160.65792 
L 147.8559 165.98016 
L 148.1535 159.62304 
L 148.4511 157.84896 
L 148.7487 159.91872 
L 149.0463 161.39712 
L 149.3439 160.06656 
L 149.6415 160.51008 
L 149.9391 160.36224 
L 150.2367 160.36224 
L 150.5343 159.62304 
L 150.8319 156.66624 
L 151.1295 154.89216 
L 151.4271 155.33568 
L 151.7247 162.72768 
L 152.0223 159.4752 
L 152.3199 148.97856 
L 152.6175 160.9536 
L 152.9151 148.23936 
L 153.2127 161.6928 
L 153.5103 153.11808 
L 153.8079 159.17952 
L 154.1055 157.10976 
L 154.4031 146.76096 
L 154.7007 150.75264 
L 154.9983 154.74432 
L 155.2959 156.07488 
L 155.5935 155.63136 
L 155.8911 157.84896 
L 156.1887 155.33568 
L 156.4863 154.44864 
L 156.7839 161.6928 
L 157.0815 160.65792 
L 157.3791 158.29248 
L 157.6767 154.59648 
L 157.9743 159.77088 
L 158.2719 149.8656 
L 158.5695 148.83072 
L 158.8671 146.1696 
L 159.1647 145.4304 
L 159.4623 152.37888 
L 159.7599 150.30912 
L 160.0575 152.0832 
L 160.3551 153.5616 
L 160.6527 149.8656 
L 160.9503 156.07488 
L 161.2479 153.70944 
L 161.5455 159.77088 
L 161.8431 153.41376 
L 162.1407 154.89216 
L 162.4383 147.648 
L 162.7359 150.45696 
L 163.0335 154.3008 
L 163.3311 150.01344 
L 163.6287 146.02176 
L 163.9263 150.75264 
L 164.2239 152.8224 
L 164.5215 160.65792 
L 164.8191 151.344 
L 165.1167 150.45696 
L 165.4143 149.27424 
L 165.7119 150.16128 
L 166.0095 140.9952 
L 166.3071 151.19616 
L 166.6047 154.15296 
L 166.9023 152.37888 
L 167.1999 152.0832 
L 167.4975 142.62144 
L 167.7951 154.00512 
L 168.0927 154.74432 
L 168.3903 149.1264 
L 168.6879 146.9088 
L 168.9855 151.49184 
L 169.2831 147.79584 
L 169.5807 153.5616 
L 169.8783 149.56992 
L 170.1759 147.79584 
L 170.4735 153.85728 
L 170.7711 151.63968 
L 171.0687 155.33568 
L 171.3663 158.14464 
L 171.6639 143.80416 
L 171.9615 141.7344 
L 172.2591 147.50016 
L 172.5567 151.49184 
L 172.8543 148.83072 
L 173.1519 155.18784 
L 173.4495 150.30912 
L 173.7471 148.53504 
L 174.0447 152.8224 
L 174.3423 149.27424 
L 174.6399 153.26592 
L 174.9375 149.1264 
L 175.2351 150.16128 
L 175.5327 148.83072 
L 175.8303 145.72608 
L 176.1279 152.52672 
L 176.4255 150.90048 
L 176.7231 150.30912 
L 177.0207 155.33568 
L 177.3183 149.8656 
L 177.6159 150.01344 
L 177.9135 150.90048 
L 178.2111 151.344 
L 178.5087 159.77088 
L 178.8063 157.84896 
L 179.1039 150.45696 
L 179.4015 153.41376 
L 179.6991 154.3008 
L 179.9967 152.67456 
L 180.2943 147.79584 
L 180.5919 148.97856 
L 180.8895 151.04832 
L 181.1871 153.41376 
L 181.4847 159.91872 
L 181.7823 156.81408 
L 182.0799 158.88384 
L 182.3775 152.23104 
L 182.6751 151.19616 
L 182.9727 150.01344 
L 183.2703 143.65632 
L 183.5679 151.344 
L 183.8655 148.68288 
L 184.1631 155.04 
L 184.4607 156.07488 
L 184.7583 160.2144 
L 185.0559 154.89216 
L 185.3535 159.62304 
L 185.6511 155.18784 
L 185.9487 150.45696 
L 186.2463 156.81408 
L 186.5439 148.83072 
L 186.8415 152.97024 
L 187.1391 151.78752 
L 187.4367 154.74432 
L 187.7343 151.78752 
L 188.0319 152.67456 
L 188.3295 148.97856 
L 188.6271 150.45696 
L 188.9247 151.93536 
L 189.2223 151.49184 
L 189.5199 151.19616 
L 189.8175 152.37888 
L 190.1151 153.41376 
L 190.4127 155.7792 
L 190.7103 152.23104 
L 191.0079 147.05664 
L 191.3055 152.0832 
L 191.6031 152.37888 
L 191.9007 153.5616 
L 192.1983 153.11808 
L 192.4959 154.15296 
L 192.7935 151.19616 
L 193.0911 152.67456 
L 193.3887 150.16128 
L 193.6863 158.736 
L 193.9839 152.8224 
L 194.2815 150.30912 
L 194.5791 150.01344 
L 194.8767 151.93536 
L 195.1743 156.5184 
L 195.4719 154.3008 
L 195.7695 151.344 
L 196.0671 153.85728 
L 196.3647 150.45696 
L 196.6623 145.4304 
L 196.9599 152.0832 
L 197.2575 151.63968 
L 197.5551 148.68288 
L 197.8527 152.37888 
L 198.1503 147.79584 
L 198.4479 153.70944 
L 198.7455 153.26592 
L 199.0431 152.0832 
L 199.3407 143.50848 
L 199.6383 150.75264 
L 199.9359 146.31744 
L 200.2335 145.4304 
L 200.5311 145.87392 
L 200.8287 152.0832 
L 201.1263 153.26592 
L 201.4239 150.01344 
L 201.7215 152.67456 
L 202.0191 145.13472 
L 202.3167 155.63136 
L 202.6143 147.648 
L 202.9119 146.61312 
L 203.2095 151.93536 
L 203.5071 152.52672 
L 203.8047 153.5616 
L 204.1023 150.90048 
L 204.3999 151.78752 
L 204.6975 154.59648 
L 204.9951 147.20448 
L 205.2927 146.61312 
L 205.5903 147.05664 
L 205.8879 154.3008 
L 206.1855 150.30912 
L 206.4831 145.72608 
L 206.7807 151.78752 
L 207.0783 153.41376 
L 207.3759 155.48352 
L 207.6735 149.71776 
L 207.9711 145.57824 
L 208.2687 146.02176 
L 208.5663 147.50016 
L 208.8639 150.90048 
L 209.1615 148.09152 
L 209.4591 147.50016 
L 209.7567 149.42208 
L 210.0543 147.05664 
L 210.3519 154.15296 
L 210.6495 144.98688 
L 210.9471 147.94368 
L 211.2447 151.63968 
L 211.5423 153.11808 
L 211.8399 149.27424 
L 212.1375 149.42208 
L 212.4351 145.72608 
L 212.7327 142.4736 
L 213.0303 154.74432 
L 213.3279 145.57824 
L 213.6255 140.55168 
L 213.9231 145.87392 
L 214.2207 146.02176 
L 214.5183 145.13472 
L 214.8159 150.90048 
L 215.1135 147.05664 
L 215.4111 146.31744 
L 215.7087 145.13472 
L 216.0063 147.05664 
L 216.3039 143.65632 
L 216.6015 142.32576 
L 216.8991 145.13472 
L 217.1967 142.62144 
L 217.4943 149.27424 
L 217.7919 146.76096 
L 218.0895 148.68288 
L 218.3871 144.24768 
L 218.6847 153.85728 
L 218.9823 144.54336 
L 219.2799 146.46528 
L 219.5775 144.6912 
L 219.8751 151.19616 
L 220.1727 155.92704 
L 220.4703 144.54336 
L 220.7679 141.88224 
L 221.0655 151.19616 
L 221.3631 140.55168 
L 221.6607 147.05664 
L 221.9583 149.8656 
L 222.2559 150.16128 
L 222.5535 142.76928 
L 222.8511 142.76928 
L 223.1487 145.4304 
L 223.4463 144.98688 
L 223.7439 150.16128 
L 224.0415 147.35232 
L 224.3391 151.04832 
L 224.6367 147.05664 
L 224.9343 146.02176 
L 225.2319 150.30912 
L 225.5295 146.61312 
L 225.8271 147.648 
L 226.1247 144.6912 
L 226.4223 144.54336 
L 226.7199 148.68288 
L 227.0175 149.71776 
L 227.3151 147.648 
L 227.6127 147.35232 
L 227.9103 148.83072 
L 228.2079 151.49184 
L 228.5055 142.62144 
L 228.8031 147.648 
L 229.1007 141.29088 
L 229.3983 151.78752 
L 229.6959 150.90048 
L 229.9935 146.1696 
L 230.2911 143.36064 
L 230.5887 147.50016 
L 230.8863 150.6048 
L 231.1839 148.3872 
L 231.4815 150.45696 
L 231.7791 144.39552 
L 232.0767 150.45696 
L 232.3743 148.83072 
L 232.6719 149.71776 
L 232.9695 147.94368 
L 233.2671 143.65632 
L 233.5647 142.32576 
L 233.8623 139.66464 
L 234.1599 139.07328 
L 234.4575 149.42208 
L 234.7551 144.54336 
L 235.0527 145.72608 
L 235.3503 147.05664 
L 235.6479 148.97856 
L 235.9455 143.50848 
L 236.2431 148.83072 
L 236.5407 143.06496 
L 236.8383 146.9088 
L 237.1359 151.19616 
L 237.4335 146.9088 
L 237.7311 153.26592 
L 238.0287 145.13472 
L 238.3263 152.97024 
L 238.6239 146.46528 
L 238.9215 153.5616 
L 239.2191 143.36064 
L 239.5167 154.15296 
L 239.8143 146.31744 
L 240.1119 132.1248 
L 240.4095 143.952 
L 240.7071 146.46528 
L 241.0047 148.3872 
L 241.3023 148.3872 
L 241.5999 147.20448 
L 241.8975 149.1264 
L 242.1951 134.04672 
L 242.4927 146.1696 
L 242.7903 146.1696 
L 243.0879 149.56992 
L 243.3855 143.06496 
L 243.6831 134.3424 
L 243.9807 140.40384 
L 244.2783 136.11648 
L 244.5759 132.42048 
L 244.8735 134.3424 
L 245.1711 146.02176 
L 245.4687 132.1248 
L 245.7663 131.08992 
L 246.0639 135.52512 
L 246.3615 121.92384 
L 246.6591 142.4736 
L 246.9567 129.168 
L 247.2543 122.81088 
L 247.5519 134.93376 
L 247.8495 125.32416 
L 248.1471 127.54176 
L 248.4447 129.46368 
L 248.7423 139.5168 
L 249.0399 130.94208 
L 249.3375 128.13312 
L 249.6351 137.15136 
L 249.9327 125.32416 
L 250.2303 133.75104 
L 250.5279 127.54176 
L 250.8255 128.4288 
L 251.1231 127.09824 
L 251.4207 137.59488 
L 251.7183 128.4288 
L 252.0159 135.96864 
L 252.3135 122.66304 
L 252.6111 128.4288 
L 252.9087 120.59328 
L 253.2063 118.8192 
L 253.5039 119.70624 
L 253.8015 124.88064 
L 254.0991 140.69952 
L 254.3967 126.50688 
L 254.6943 127.98528 
L 254.9919 111.87072 
L 255.2895 125.91552 
L 255.5871 118.22784 
L 255.8847 116.45376 
L 256.1823 123.84576 
L 256.4799 115.1232 
L 256.4799 205.60128 
L 256.4799 205.60128 
L 256.1823 199.53984 
L 255.8847 201.01824 
L 255.5871 203.97504 
L 255.2895 204.5664 
L 254.9919 210.62784 
L 254.6943 191.85216 
L 254.3967 198.6528 
L 254.0991 196.28736 
L 253.8015 199.392 
L 253.5039 205.45344 
L 253.2063 208.11456 
L 252.9087 206.34048 
L 252.6111 196.4352 
L 252.3135 203.088 
L 252.0159 198.06144 
L 251.7183 193.4784 
L 251.4207 187.26912 
L 251.1231 198.6528 
L 250.8255 197.61792 
L 250.5279 196.13952 
L 250.2303 194.66112 
L 249.9327 205.74912 
L 249.6351 191.55648 
L 249.3375 192.59136 
L 249.0399 195.99168 
L 248.7423 195.10464 
L 248.4447 199.83552 
L 248.1471 197.9136 
L 247.8495 199.24416 
L 247.5519 193.4784 
L 247.2543 195.54816 
L 246.9567 197.1744 
L 246.6591 188.59968 
L 246.3615 198.20928 
L 246.0639 194.66112 
L 245.7663 194.9568 
L 245.4687 197.1744 
L 245.1711 195.10464 
L 244.8735 193.4784 
L 244.5759 195.10464 
L 244.2783 199.392 
L 243.9807 193.62624 
L 243.6831 188.74752 
L 243.3855 185.64288 
L 243.0879 189.19104 
L 242.7903 186.97344 
L 242.4927 174.55488 
L 242.1951 193.77408 
L 241.8975 189.93024 
L 241.5999 179.72928 
L 241.3023 188.59968 
L 241.0047 180.912 
L 240.7071 182.53824 
L 240.4095 182.98176 
L 240.1119 186.52992 
L 239.8143 186.52992 
L 239.5167 191.40864 
L 239.2191 189.48672 
L 238.9215 193.77408 
L 238.6239 183.1296 
L 238.3263 182.53824 
L 238.0287 195.99168 
L 237.7311 189.93024 
L 237.4335 186.52992 
L 237.1359 184.31232 
L 236.8383 190.66944 
L 236.5407 186.8256 
L 236.2431 187.86048 
L 235.9455 182.53824 
L 235.6479 186.8256 
L 235.3503 186.67776 
L 235.0527 187.71264 
L 234.7551 190.66944 
L 234.4575 186.67776 
L 234.1599 190.5216 
L 233.8623 184.01664 
L 233.5647 191.40864 
L 233.2671 189.7824 
L 232.9695 181.6512 
L 232.6719 188.74752 
L 232.3743 184.31232 
L 232.0767 185.3472 
L 231.7791 185.79072 
L 231.4815 177.06816 
L 231.1839 179.72928 
L 230.8863 185.49504 
L 230.5887 183.57312 
L 230.2911 178.25088 
L 229.9935 184.608 
L 229.6959 171.59808 
L 229.3983 176.03328 
L 229.1007 190.37376 
L 228.8031 187.26912 
L 228.5055 183.42528 
L 228.2079 179.28576 
L 227.9103 176.62464 
L 227.6127 188.74752 
L 227.3151 178.39872 
L 227.0175 176.32896 
L 226.7199 182.98176 
L 226.4223 185.3472 
L 226.1247 180.1728 
L 225.8271 174.85056 
L 225.5295 180.32064 
L 225.2319 176.32896 
L 224.9343 183.8688 
L 224.6367 179.58144 
L 224.3391 184.16448 
L 224.0415 188.15616 
L 223.7439 181.50336 
L 223.4463 183.42528 
L 223.1487 183.27744 
L 222.8511 192.44352 
L 222.5535 187.71264 
L 222.2559 187.41696 
L 221.9583 179.4336 
L 221.6607 185.49504 
L 221.3631 184.90368 
L 221.0655 190.81728 
L 220.7679 183.8688 
L 220.4703 191.85216 
L 220.1727 177.216 
L 219.8751 184.31232 
L 219.5775 178.99008 
L 219.2799 181.94688 
L 218.9823 185.3472 
L 218.6847 182.83392 
L 218.3871 185.05152 
L 218.0895 178.25088 
L 217.7919 180.46848 
L 217.4943 181.79904 
L 217.1967 186.38208 
L 216.8991 185.93856 
L 216.6015 186.67776 
L 216.3039 182.68608 
L 216.0063 178.39872 
L 215.7087 185.93856 
L 215.4111 182.3904 
L 215.1135 183.72096 
L 214.8159 184.01664 
L 214.5183 183.57312 
L 214.2207 185.05152 
L 213.9231 179.58144 
L 213.6255 185.49504 
L 213.3279 181.6512 
L 213.0303 172.48512 
L 212.7327 184.46016 
L 212.4351 185.93856 
L 212.1375 186.67776 
L 211.8399 187.12128 
L 211.5423 193.92192 
L 211.2447 185.3472 
L 210.9471 187.5648 
L 210.6495 190.5216 
L 210.3519 181.35552 
L 210.0543 188.45184 
L 209.7567 188.45184 
L 209.4591 180.02496 
L 209.1615 178.84224 
L 208.8639 189.93024 
L 208.5663 187.71264 
L 208.2687 180.912 
L 207.9711 191.11296 
L 207.6735 185.79072 
L 207.3759 192.7392 
L 207.0783 187.71264 
L 206.7807 186.0864 
L 206.4831 191.2608 
L 206.1855 175.7376 
L 205.8879 174.9984 
L 205.5903 184.31232 
L 205.2927 182.68608 
L 204.9951 182.68608 
L 204.6975 185.93856 
L 204.3999 186.67776 
L 204.1023 184.01664 
L 203.8047 184.90368 
L 203.5071 185.64288 
L 203.2095 186.23424 
L 202.9119 187.41696 
L 202.6143 184.90368 
L 202.3167 181.6512 
L 202.0191 189.48672 
L 201.7215 186.97344 
L 201.4239 176.62464 
L 201.1263 185.19936 
L 200.8287 186.38208 
L 200.5311 190.81728 
L 200.2335 181.50336 
L 199.9359 184.16448 
L 199.6383 180.912 
L 199.3407 183.72096 
L 199.0431 181.05984 
L 198.7455 182.83392 
L 198.4479 184.46016 
L 198.1503 185.05152 
L 197.8527 183.72096 
L 197.5551 190.66944 
L 197.2575 180.61632 
L 196.9599 184.01664 
L 196.6623 185.64288 
L 196.3647 185.3472 
L 196.0671 184.608 
L 195.7695 179.72928 
L 195.4719 180.32064 
L 195.1743 183.1296 
L 194.8767 178.54656 
L 194.5791 184.90368 
L 194.2815 192.29568 
L 193.9839 191.2608 
L 193.6863 182.3904 
L 193.3887 187.41696 
L 193.0911 183.42528 
L 192.7935 189.0432 
L 192.4959 177.80736 
L 192.1983 184.46016 
L 191.9007 179.58144 
L 191.6031 190.81728 
L 191.3055 186.38208 
L 191.0079 187.26912 
L 190.7103 183.57312 
L 190.4127 184.75584 
L 190.1151 187.12128 
L 189.8175 184.90368 
L 189.5199 188.45184 
L 189.2223 185.79072 
L 188.9247 184.46016 
L 188.6271 187.12128 
L 188.3295 189.19104 
L 188.0319 184.608 
L 187.7343 186.0864 
L 187.4367 186.0864 
L 187.1391 184.31232 
L 186.8415 181.94688 
L 186.5439 186.67776 
L 186.2463 182.83392 
L 185.9487 189.48672 
L 185.6511 181.79904 
L 185.3535 189.7824 
L 185.0559 182.68608 
L 184.7583 182.09472 
L 184.4607 189.19104 
L 184.1631 187.5648 
L 183.8655 182.3904 
L 183.5679 185.05152 
L 183.2703 191.55648 
L 182.9727 189.0432 
L 182.6751 187.86048 
L 182.3775 186.52992 
L 182.0799 187.86048 
L 181.7823 190.5216 
L 181.4847 186.52992 
L 181.1871 188.304 
L 180.8895 183.57312 
L 180.5919 189.7824 
L 180.2943 182.09472 
L 179.9967 190.5216 
L 179.6991 190.96512 
L 179.4015 181.79904 
L 179.1039 184.75584 
L 178.8063 192.14784 
L 178.5087 188.15616 
L 178.2111 185.64288 
L 177.9135 186.38208 
L 177.6159 189.63456 
L 177.3183 190.07808 
L 177.0207 184.31232 
L 176.7231 189.33888 
L 176.4255 188.74752 
L 176.1279 185.64288 
L 175.8303 192.44352 
L 175.5327 189.63456 
L 175.2351 193.33056 
L 174.9375 189.33888 
L 174.6399 191.11296 
L 174.3423 187.12128 
L 174.0447 184.16448 
L 173.7471 194.66112 
L 173.4495 192.88704 
L 173.1519 184.16448 
L 172.8543 194.36544 
L 172.5567 183.42528 
L 172.2591 187.71264 
L 171.9615 187.86048 
L 171.6639 190.5216 
L 171.3663 188.89536 
L 171.0687 187.86048 
L 170.7711 187.71264 
L 170.4735 189.33888 
L 170.1759 191.55648 
L 169.8783 189.7824 
L 169.5807 194.36544 
L 169.2831 188.59968 
L 168.9855 191.11296 
L 168.6879 189.48672 
L 168.3903 195.25248 
L 168.0927 192 
L 167.7951 194.2176 
L 167.4975 189.93024 
L 167.1999 189.93024 
L 166.9023 197.9136 
L 166.6047 189.63456 
L 166.3071 187.26912 
L 166.0095 191.85216 
L 165.7119 195.10464 
L 165.4143 193.62624 
L 165.1167 189.48672 
L 164.8191 190.96512 
L 164.5215 189.63456 
L 164.2239 191.85216 
L 163.9263 188.59968 
L 163.6287 189.19104 
L 163.3311 194.36544 
L 163.0335 187.41696 
L 162.7359 190.07808 
L 162.4383 190.22592 
L 162.1407 195.10464 
L 161.8431 187.12128 
L 161.5455 186.97344 
L 161.2479 197.47008 
L 160.9503 188.00832 
L 160.6527 191.85216 
L 160.3551 197.9136 
L 160.0575 189.33888 
L 159.7599 189.33888 
L 159.4623 187.26912 
L 159.1647 190.37376 
L 158.8671 189.93024 
L 158.5695 189.0432 
L 158.2719 193.03488 
L 157.9743 184.01664 
L 157.6767 185.3472 
L 157.3791 186.0864 
L 157.0815 190.81728 
L 156.7839 190.66944 
L 156.4863 189.33888 
L 156.1887 195.54816 
L 155.8911 194.51328 
L 155.5935 190.5216 
L 155.2959 193.92192 
L 154.9983 184.90368 
L 154.7007 188.00832 
L 154.4031 190.5216 
L 154.1055 192 
L 153.8079 185.19936 
L 153.5103 186.8256 
L 153.2127 190.66944 
L 152.9151 191.40864 
L 152.6175 196.4352 
L 152.3199 189.19104 
L 152.0223 192.59136 
L 151.7247 191.11296 
L 151.4271 192.59136 
L 151.1295 196.28736 
L 150.8319 195.696 
L 150.5343 192.7392 
L 150.2367 194.06976 
L 149.9391 190.5216 
L 149.6415 190.66944 
L 149.3439 197.9136 
L 149.0463 193.92192 
L 148.7487 193.03488 
L 148.4511 189.7824 
L 148.1535 191.55648 
L 147.8559 193.18272 
L 147.5583 189.63456 
L 147.2607 196.58304 
L 146.9631 196.28736 
L 146.6655 193.33056 
L 146.3679 191.70432 
L 146.0703 192.14784 
L 145.7727 198.80064 
L 145.4751 192.14784 
L 145.1775 190.07808 
L 144.8799 194.80896 
L 144.5823 190.07808 
L 144.2847 192.7392 
L 143.9871 198.35712 
L 143.6895 192.88704 
L 143.3919 192.14784 
L 143.0943 192.88704 
L 142.7967 193.03488 
L 142.4991 195.84384 
L 142.2015 199.68768 
L 141.9039 190.66944 
L 141.6063 192 
L 141.3087 191.55648 
L 141.0111 197.9136 
L 140.7135 198.6528 
L 140.4159 199.53984 
L 140.1183 199.09632 
L 139.8207 189.19104 
L 139.5231 198.06144 
L 139.2255 197.47008 
L 138.9279 196.13952 
L 138.6303 199.53984 
L 138.3327 193.92192 
L 138.0351 194.06976 
L 137.7375 197.02656 
L 137.4399 189.7824 
L 137.1423 186.67776 
L 136.8447 193.03488 
L 136.5471 196.28736 
L 136.2495 193.92192 
L 135.9519 190.81728 
L 135.6543 193.77408 
L 135.3567 192.14784 
L 135.0591 184.608 
L 134.7615 190.96512 
L 134.4639 191.85216 
L 134.1663 190.22592 
L 133.8687 194.66112 
L 133.5711 190.96512 
L 133.2735 192.59136 
L 132.9759 192 
L 132.6783 195.84384 
L 132.3807 199.68768 
L 132.0831 197.47008 
L 131.7855 198.06144 
L 131.4879 196.13952 
L 131.1903 197.02656 
L 130.8927 197.61792 
L 130.5951 197.47008 
L 130.2975 195.696 
L 129.9999 195.84384 
L 129.7023 197.76576 
L 129.4047 201.01824 
L 129.1071 196.73088 
L 128.8095 198.20928 
L 128.5119 200.8704 
L 128.2143 197.76576 
L 127.9167 197.32224 
L 127.6191 202.94016 
L 127.3215 197.61792 
L 127.0239 198.94848 
L 126.7263 197.9136 
L 126.4287 198.06144 
L 126.1311 198.35712 
L 125.8335 197.47008 
L 125.5359 197.9136 
L 125.2383 197.61792 
L 124.9407 199.392 
L 124.6431 197.1744 
L 124.3455 194.80896 
L 124.0479 196.73088 
L 123.7503 194.9568 
L 123.4527 201.75744 
L 123.1551 200.1312 
L 122.8575 199.68768 
L 122.5599 204.71424 
L 122.2623 199.98336 
L 121.9647 197.1744 
L 121.6671 199.09632 
L 121.3695 195.25248 
L 121.0719 199.392 
L 120.7743 200.1312 
L 120.4767 201.90528 
L 120.1791 199.98336 
L 119.8815 200.27904 
L 119.5839 201.90528 
L 119.2863 197.61792 
L 118.9887 203.97504 
L 118.6911 198.20928 
L 118.3935 200.72256 
L 118.0959 205.60128 
L 117.7983 205.45344 
L 117.5007 203.67936 
L 117.2031 203.8272 
L 116.9055 206.48832 
L 116.6079 202.49664 
L 116.3103 201.90528 
L 116.0127 207.37536 
L 115.7151 206.48832 
L 115.4175 204.86208 
L 115.1199 204.86208 
L 114.8223 202.20096 
L 114.5247 204.12288 
L 114.2271 208.2624 
L 113.9295 204.71424 
L 113.6319 206.48832 
L 113.3343 215.50656 
L 113.0367 204.71424 
L 112.7391 210.48 
L 112.4415 209.88864 
L 112.1439 219.3504 
L 111.8463 202.49664 
L 111.5487 211.2192 
L 111.2511 202.94016 
L 110.9535 208.55808 
L 110.6559 209.29728 
L 110.3583 208.2624 
L 110.0607 209.44512 
L 109.7631 211.51488 
L 109.4655 210.48 
L 109.1679 209.7408 
L 108.8703 205.60128 
L 108.5727 209.0016 
L 108.2751 210.62784 
L 107.9775 207.37536 
L 107.6799 210.48 
L 107.3823 206.19264 
L 107.0847 209.7408 
L 106.7871 201.16608 
L 106.4895 212.10624 
L 106.1919 206.93184 
L 105.8943 208.55808 
L 105.5967 210.77568 
L 105.2991 200.1312 
L 105.0015 212.99328 
L 104.7039 214.76736 
L 104.4063 207.37536 
L 104.1087 211.81056 
L 103.8111 212.10624 
L 103.5135 212.84544 
L 103.2159 212.25408 
L 102.9183 215.06304 
L 102.6207 215.35872 
L 102.3231 221.86368 
L 102.0255 212.25408 
L 101.7279 214.76736 
L 101.4303 209.29728 
L 101.1327 206.0448 
L 100.8351 213.28896 
L 100.5375 214.47168 
L 100.2399 210.18432 
L 99.9423 218.46336 
L 99.6447 213.73248 
L 99.3471 207.96672 
L 99.0495 216.3936 
L 98.7519 208.70592 
L 98.4543 212.54976 
L 98.1567 210.62784 
L 97.8591 216.98496 
L 97.5615 208.85376 
L 97.2639 212.99328 
L 96.9663 208.2624 
L 96.6687 214.61952 
L 96.3711 219.49824 
L 96.0735 220.97664 
L 95.7759 213.58464 
L 95.4783 211.66272 
L 95.1807 220.68096 
L 94.8831 216.3936 
L 94.5855 207.81888 
L 94.2879 225.41184 
L 93.9903 217.57632 
L 93.6927 224.22912 
L 93.3951 214.47168 
L 93.0975 215.50656 
L 92.7999 222.15936 
L 92.5023 216.98496 
L 92.2047 216.68928 
L 91.9071 222.89856 
L 91.6095 211.2192 
L 91.3119 214.76736 
L 91.0143 217.28064 
L 90.7167 226.29888 
L 90.4191 211.81056 
L 90.1215 219.64608 
L 89.8239 228.2208 
L 89.5263 220.0896 
L 89.2287 234.57792 
L 88.9311 224.67264 
L 88.6335 220.38528 
L 88.3359 219.94176 
L 88.0383 232.36032 
L 87.7407 227.92512 
L 87.4431 222.89856 
L 87.1455 228.66432 
L 86.8479 232.95168 
L 86.5503 226.0032 
L 86.2527 211.2192 
L 85.9551 238.71744 
L 85.6575 234.57792 
L 85.3599 227.33376 
L 85.0623 246.10944 
L 84.7647 255.42336 
L 84.4671 247.44 
L 84.1695 248.1792 
L 83.8719 232.80384 
L 83.5743 233.83872 
L 83.2767 234.28224 
L 82.9791 224.82048 
L 82.6815 221.12448 
L 82.3839 229.25568 
L 82.0863 231.47328 
L 81.7887 232.50816 
L 81.4911 218.01984 
L 81.1935 224.5248 
L 80.8959 224.5248 
L 80.5983 223.93344 
L 80.3007 227.62944 
L 80.0031 223.63776 
L 79.7055 238.86528 
L 79.4079 229.55136 
L 79.1103 223.63776 
L 78.8127 223.63776 
L 78.5151 231.9168 
L 78.2175 224.82048 
L 77.9199 222.3072 
L 77.6223 216.3936 
L 77.3247 225.11616 
L 77.0271 221.568 
L 76.7295 224.22912 
L 76.4319 220.97664 
L 76.1343 219.20256 
L 75.8367 219.49824 
L 75.5391 227.92512 
L 75.2415 229.84704 
L 74.9439 222.45504 
L 74.6463 226.0032 
L 74.3487 229.84704 
L 74.0511 221.12448 
L 73.7535 221.86368 
L 73.4559 224.22912 
L 73.1583 223.19424 
L 72.8607 234.8736 
L 72.5631 219.79392 
L 72.2655 228.2208 
L 71.9679 218.46336 
L 71.6703 224.82048 
L 71.3727 230.88192 
L 71.0751 224.08128 
L 70.7775 231.76896 
L 70.4799 228.66432 
L 70.1823 229.84704 
L 69.8847 231.76896 
L 69.5871 225.70752 
L 69.2895 224.08128 
L 68.9919 228.96 
L 68.6943 224.5248 
L 68.3967 232.656 
L 68.0991 236.64768 
L 67.8015 228.2208 
L 67.5039 224.5248 
L 67.2063 226.29888 
L 66.9087 224.96832 
L 66.6111 223.7856 
L 66.3135 221.71584 
L 66.0159 238.5696 
L 65.7183 223.48992 
L 65.4207 226.29888 
L 65.1231 229.25568 
L 64.8255 230.4384 
L 64.5279 240.49152 
L 64.2303 227.62944 
L 63.9327 231.32544 
L 63.6351 227.03808 
L 63.3375 226.89024 
L 63.0399 225.55968 
L 62.7423 231.32544 
L 62.4447 225.11616 
L 62.1471 220.0896 
L 61.8495 224.5248 
L 61.5519 222.01152 
L 61.2543 220.97664 
L 60.9567 221.27232 
L 60.6591 229.10784 
L 60.3615 227.77728 
L 60.0639 220.8288 
L 59.7663 223.63776 
L 59.4687 225.70752 
L 59.1711 223.34208 
L 58.8735 225.41184 
L 58.5759 224.5248 
L 58.2783 229.84704 
L 57.9807 226.15104 
L 57.6831 225.41184 
L 57.3855 220.8288 
L 57.0879 221.568 
L 56.7903 225.11616 
L 56.4927 223.0464 
L 56.1951 226.44672 
L 55.8975 222.60288 
L 55.5999 230.4384 
L 55.3023 226.89024 
L 55.0047 225.85536 
L 54.7071 224.08128 
L 54.4095 218.6112 
L 54.1119 217.872 
L 53.8143 223.34208 
L 53.5167 221.27232 
L 53.2191 227.33376 
L 52.9215 224.5248 
L 52.6239 222.60288 
L 52.3263 224.67264 
L 52.0287 222.15936 
L 51.7311 224.67264 
L 51.4335 220.68096 
L 51.1359 222.89856 
L 50.8383 219.94176 
L 50.5407 222.60288 
L 50.2431 223.7856 
L 49.9455 223.34208 
L 49.6479 224.37696 
L 49.3503 220.38528 
L 49.0527 223.34208 
L 48.7551 223.19424 
L 48.4575 222.01152 
L 48.1599 222.75072 
L 47.8623 221.71584 
L 47.5647 221.86368 
L 47.2671 221.71584 
L 46.9695 222.75072 
L 46.6719 222.3072 
L 46.3743 222.15936 
L 46.0767 220.68096 
L 45.7791 221.86368 
L 45.4815 221.42016 
L 45.1839 221.86368 
L 44.8863 221.42016 
L 44.5887 222.89856 
L 44.2911 222.45504 
L 43.9935 221.568 
L 43.6959 220.53312 
L 43.3983 220.97664 
L 43.1007 220.68096 
L 42.8031 220.8288 
L 42.5055 220.68096 
z
" clip-path="url(#p1c6f27ec04)" style="fill: #453882; fill-opacity: 0.3"/>
   </g>
   <g id="matplotlib.axis_1">
    <g id="xtick_1">
     <g id="line2d_1">
      <defs>
       <path id="mb59606d0da" d="M 0 0 
L 0 3.5 
" style="stroke: #000000; stroke-width: 0.8"/>
      </defs>
      <g>
       <use xlink:href="#mb59606d0da" x="33.5775" y="228.96" style="stroke: #000000; stroke-width: 0.8"/>
      </g>
     </g>
     <g id="text_1">
      <text style="font: 6px 'DejaVu Sans', 'Bitstream Vera Sans', 'Computer Modern Sans Serif', 'Lucida Grande', 'Verdana', 'Geneva', 'Lucid', 'Arial', 'Helvetica', 'Avant Garde', sans-serif; text-anchor: middle" x="33.5775" y="240.519062" transform="rotate(-0 33.5775 240.519062)">0</text>
     </g>
    </g>
    <g id="xtick_2">
     <g id="line2d_2">
      <g>
       <use xlink:href="#mb59606d0da" x="69.2895" y="228.96" style="stroke: #000000; stroke-width: 0.8"/>
      </g>
     </g>
     <g id="text_2">
      <text style="font: 6px 'DejaVu Sans', 'Bitstream Vera Sans', 'Computer Modern Sans Serif', 'Lucida Grande', 'Verdana', 'Geneva', 'Lucid', 'Arial', 'Helvetica', 'Avant Garde', sans-serif; text-anchor: middle" x="69.2895" y="240.519062" transform="rotate(-0 69.2895 240.519062)">4</text>
     </g>
    </g>
    <g id="xtick_3">
     <g id="line2d_3">
      <g>
       <use xlink:href="#mb59606d0da" x="105.0015" y="228.96" style="stroke: #000000; stroke-width: 0.8"/>
      </g>
     </g>
     <g id="text_3">
      <text style="font: 6px 'DejaVu Sans', 'Bitstream Vera Sans', 'Computer Modern Sans Serif', 'Lucida Grande', 'Verdana', 'Geneva', 'Lucid', 'Arial', 'Helvetica', 'Avant Garde', sans-serif; text-anchor: middle" x="105.0015" y="240.519062" transform="rotate(-0 105.0015 240.519062)">8</text>
     </g>
    </g>
    <g id="xtick_4">
     <g id="line2d_4">
      <g>
       <use xlink:href="#mb59606d0da" x="140.7135" y="228.96" style="stroke: #000000; stroke-width: 0.8"/>
      </g>
     </g>
     <g id="text_4">
      <text style="font: 6px 'DejaVu Sans', 'Bitstream Vera Sans', 'Computer Modern Sans Serif', 'Lucida Grande', 'Verdana', 'Geneva', 'Lucid', 'Arial', 'Helvetica', 'Avant Garde', sans-serif; text-anchor: middle" x="140.7135" y="240.519062" transform="rotate(-0 140.7135 240.519062)">12</text>
     </g>
    </g>
    <g id="xtick_5">
     <g id="line2d_5">
      <g>
       <use xlink:href="#mb59606d0da" x="176.4255" y="228.96" style="stroke: #000000; stroke-width: 0.8"/>
      </g>
     </g>
     <g id="text_5">
      <text style="font: 6px 'DejaVu Sans', 'Bitstream Vera Sans', 'Computer Modern Sans Serif', 'Lucida Grande', 'Verdana', 'Geneva', 'Lucid', 'Arial', 'Helvetica', 'Avant Garde', sans-serif; text-anchor: middle" x="176.4255" y="240.519062" transform="rotate(-0 176.4255 240.519062)">16</text>
     </g>
    </g>
    <g id="xtick_6">
     <g id="line2d_6">
      <g>
       <use xlink:href="#mb59606d0da" x="212.1375" y="228.96" style="stroke: #000000; stroke-width: 0.8"/>
      </g>
     </g>
     <g id="text_6">
      <text style="font: 6px 'DejaVu Sans', 'Bitstream Vera Sans', 'Computer Modern Sans Serif', 'Lucida Grande', 'Verdana', 'Geneva', 'Lucid', 'Arial', 'Helvetica', 'Avant Garde', sans-serif; text-anchor: middle" x="212.1375" y="240.519062" transform="rotate(-0 212.1375 240.519062)">20</text>
     </g>
    </g>
    <g id="xtick_7">
     <g id="line2d_7">
      <g>
       <use xlink:href="#mb59606d0da" x="247.8495" y="228.96" style="stroke: #000000; stroke-width: 0.8"/>
      </g>
     </g>
     <g id="text_7">
      <text style="font: 6px 'DejaVu Sans', 'Bitstream Vera Sans', 'Computer Modern Sans Serif', 'Lucida Grande', 'Verdana', 'Geneva', 'Lucid', 'Arial', 'Helvetica', 'Avant Garde', sans-serif; text-anchor: middle" x="247.8495" y="240.519062" transform="rotate(-0 247.8495 240.519062)">24</text>
     </g>
    </g>
    <g id="text_8">
     <text style="font: 8px 'DejaVu Sans', 'Bitstream Vera Sans', 'Computer Modern Sans Serif', 'Lucida Grande', 'Verdana', 'Geneva', 'Lucid', 'Arial', 'Helvetica', 'Avant Garde', sans-serif; text-anchor: middle" x="145.1775" y="251.845625" transform="rotate(-0 145.1775 251.845625)">Experimental time (hpf)</text>
    </g>
   </g>
   <g id="matplotlib.axis_2">
    <g id="ytick_1">
     <g id="line2d_8">
      <defs>
       <path id="mc9b6d1f700" d="M 0 0 
L -3.5 0 
" style="stroke: #000000; stroke-width: 0.8"/>
      </defs>
      <g>
       <use xlink:href="#mc9b6d1f700" x="33.5775" y="228.96" style="stroke: #000000; stroke-width: 0.8"/>
      </g>
     </g>
     <g id="text_9">
      <text style="font: 6px 'DejaVu Sans', 'Bitstream Vera Sans', 'Computer Modern Sans Serif', 'Lucida Grande', 'Verdana', 'Geneva', 'Lucid', 'Arial', 'Helvetica', 'Avant Garde', sans-serif; text-anchor: end" x="26.5775" y="231.239531" transform="rotate(-0 26.5775 231.239531)">0</text>
     </g>
    </g>
    <g id="ytick_2">
     <g id="line2d_9">
      <g>
       <use xlink:href="#mc9b6d1f700" x="33.5775" y="193.4784" style="stroke: #000000; stroke-width: 0.8"/>
      </g>
     </g>
     <g id="text_10">
      <text style="font: 6px 'DejaVu Sans', 'Bitstream Vera Sans', 'Computer Modern Sans Serif', 'Lucida Grande', 'Verdana', 'Geneva', 'Lucid', 'Arial', 'Helvetica', 'Avant Garde', sans-serif; text-anchor: end" x="26.5775" y="195.757931" transform="rotate(-0 26.5775 195.757931)">4</text>
     </g>
    </g>
    <g id="ytick_3">
     <g id="line2d_10">
      <g>
       <use xlink:href="#mc9b6d1f700" x="33.5775" y="157.9968" style="stroke: #000000; stroke-width: 0.8"/>
      </g>
     </g>
     <g id="text_11">
      <text style="font: 6px 'DejaVu Sans', 'Bitstream Vera Sans', 'Computer Modern Sans Serif', 'Lucida Grande', 'Verdana', 'Geneva', 'Lucid', 'Arial', 'Helvetica', 'Avant Garde', sans-serif; text-anchor: end" x="26.5775" y="160.276331" transform="rotate(-0 26.5775 160.276331)">8</text>
     </g>
    </g>
    <g id="ytick_4">
     <g id="line2d_11">
      <g>
       <use xlink:href="#mc9b6d1f700" x="33.5775" y="122.5152" style="stroke: #000000; stroke-width: 0.8"/>
      </g>
     </g>
     <g id="text_12">
      <text style="font: 6px 'DejaVu Sans', 'Bitstream Vera Sans', 'Computer Modern Sans Serif', 'Lucida Grande', 'Verdana', 'Geneva', 'Lucid', 'Arial', 'Helvetica', 'Avant Garde', sans-serif; text-anchor: end" x="26.5775" y="124.794731" transform="rotate(-0 26.5775 124.794731)">12</text>
     </g>
    </g>
    <g id="ytick_5">
     <g id="line2d_12">
      <g>
       <use xlink:href="#mc9b6d1f700" x="33.5775" y="87.0336" style="stroke: #000000; stroke-width: 0.8"/>
      </g>
     </g>
     <g id="text_13">
      <text style="font: 6px 'DejaVu Sans', 'Bitstream Vera Sans', 'Computer Modern Sans Serif', 'Lucida Grande', 'Verdana', 'Geneva', 'Lucid', 'Arial', 'Helvetica', 'Avant Garde', sans-serif; text-anchor: end" x="26.5775" y="89.313131" transform="rotate(-0 26.5775 89.313131)">16</text>
     </g>
    </g>
    <g id="ytick_6">
     <g id="line2d_13">
      <g>
       <use xlink:href="#mc9b6d1f700" x="33.5775" y="51.552" style="stroke: #000000; stroke-width: 0.8"/>
      </g>
     </g>
     <g id="text_14">
      <text style="font: 6px 'DejaVu Sans', 'Bitstream Vera Sans', 'Computer Modern Sans Serif', 'Lucida Grande', 'Verdana', 'Geneva', 'Lucid', 'Arial', 'Helvetica', 'Avant Garde', sans-serif; text-anchor: end" x="26.5775" y="53.831531" transform="rotate(-0 26.5775 53.831531)">20</text>
     </g>
    </g>
    <g id="ytick_7">
     <g id="line2d_14">
      <g>
       <use xlink:href="#mc9b6d1f700" x="33.5775" y="16.0704" style="stroke: #000000; stroke-width: 0.8"/>
      </g>
     </g>
     <g id="text_15">
      <text style="font: 6px 'DejaVu Sans', 'Bitstream Vera Sans', 'Computer Modern Sans Serif', 'Lucida Grande', 'Verdana', 'Geneva', 'Lucid', 'Arial', 'Helvetica', 'Avant Garde', sans-serif; text-anchor: end" x="26.5775" y="18.349931" transform="rotate(-0 26.5775 18.349931)">24</text>
     </g>
    </g>
    <g id="text_16">
     <text style="font: 8px 'DejaVu Sans', 'Bitstream Vera Sans', 'Computer Modern Sans Serif', 'Lucida Grande', 'Verdana', 'Geneva', 'Lucid', 'Arial', 'Helvetica', 'Avant Garde', sans-serif; text-anchor: middle" x="13.27875" y="118.08" transform="rotate(-90 13.27875 118.08)">Developmental age (hpf)</text>
    </g>
   </g>
   <g id="line2d_15">
    <path d="M 42.5055 220.0896 
L 256.7775 143.052676 
L 256.7775 143.052676 
" clip-path="url(#p1c6f27ec04)" style="fill: none; stroke: #453882; stroke-linecap: square"/>
   </g>
   <g id="line2d_16">
    <path d="M 42.5055 220.0896 
L 256.7775 150.861692 
L 256.7775 150.861692 
" clip-path="url(#p1c6f27ec04)" style="fill: none; stroke-dasharray: 3.7,1.6; stroke-dashoffset: 0; stroke: #453882"/>
   </g>
   <g id="line2d_17">
    <path d="M 42.5055 220.0896 
L 256.7775 135.599099 
L 256.7775 135.599099 
" clip-path="url(#p1c6f27ec04)" style="fill: none; stroke-dasharray: 3.7,1.6; stroke-dashoffset: 0; stroke: #453882"/>
   </g>
   <g id="patch_3">
    <path d="M 33.5775 228.96 
L 33.5775 7.2 
" style="fill: none; stroke: #000000; stroke-width: 0.8; stroke-linejoin: miter; stroke-linecap: square"/>
   </g>
   <g id="patch_4">
    <path d="M 33.5775 228.96 
L 256.7775 228.96 
" style="fill: none; stroke: #000000; stroke-width: 0.8; stroke-linejoin: miter; stroke-linecap: square"/>
   </g>
   <g id="legend_1">
    <g id="patch_5">
     <path d="M 93.656011 28.829269 
L 252.7245 28.829269 
Q 253.8825 28.829269 253.8825 27.671269 
L 253.8825 11.253 
Q 253.8825 10.095 252.7245 10.095 
L 93.656011 10.095 
Q 92.498011 10.095 92.498011 11.253 
L 92.498011 27.671269 
Q 92.498011 28.829269 93.656011 28.829269 
z
" style="fill: #ffffff; opacity: 0.8; stroke: #cccccc; stroke-linejoin: miter"/>
    </g>
    <g id="line2d_18">
     <path d="M 94.814011 14.783995 
L 100.604011 14.783995 
L 106.394011 14.783995 
" style="fill: none; stroke: #453882; stroke-linecap: square"/>
    </g>
    <g id="text_17">
     <text style="font: 5.79px 'DejaVu Sans', 'Bitstream Vera Sans', 'Computer Modern Sans Serif', 'Lucida Grande', 'Verdana', 'Geneva', 'Lucid', 'Arial', 'Helvetica', 'Avant Garde', sans-serif; text-anchor: start" x="111.026011" y="16.810495" transform="rotate(-0 111.026011 16.810495)">Linear fit: slope=0.361 [0.325,0.397], R2=0.825</text>
    </g>
    <g id="patch_6">
     <path d="M 94.814011 25.30913 
L 106.394011 25.30913 
L 106.394011 21.25613 
L 94.814011 21.25613 
z
" style="fill: #453882; fill-opacity: 0.3"/>
    </g>
    <g id="text_18">
     <text style="font: 5.79px 'DejaVu Sans', 'Bitstream Vera Sans', 'Computer Modern Sans Serif', 'Lucida Grande', 'Verdana', 'Geneva', 'Lucid', 'Arial', 'Helvetica', 'Avant Garde', sans-serif; text-anchor: start" x="111.026011" y="25.30913" transform="rotate(-0 111.026011 25.30913)">Median:21.0C</text>
    </g>
   </g>
  </g>
 </g>
 <defs>
  <clipPath id="p1c6f27ec04">
   <rect x="33.5775" y="7.2" width="223.2" height="221.76"/>
  </clipPath>
 </defs>
</svg>
