<?xml version="1.0" encoding="utf-8" standalone="no"?>
<!DOCTYPE svg PUBLIC "-//W3C//DTD SVG 1.1//EN"
  "http://www.w3.org/Graphics/SVG/1.1/DTD/svg11.dtd">
<svg xmlns:xlink="http://www.w3.org/1999/xlink" width="360pt" height="216pt" viewBox="0 0 360 216" xmlns="http://www.w3.org/2000/svg" version="1.1">
 <metadata>
  <rdf:RDF xmlns:dc="http://purl.org/dc/elements/1.1/" xmlns:cc="http://creativecommons.org/ns#" xmlns:rdf="http://www.w3.org/1999/02/22-rdf-syntax-ns#">
   <cc:Work>
    <dc:type rdf:resource="http://purl.org/dc/dcmitype/StillImage"/>
    <dc:date>2023-05-16T14:02:46.104113</dc:date>
    <dc:format>image/svg+xml</dc:format>
    <dc:creator>
     <cc:Agent>
      <dc:title>Matplotlib v3.5.1, https://matplotlib.org/</dc:title>
     </cc:Agent>
    </dc:creator>
   </cc:Work>
  </rdf:RDF>
 </metadata>
 <defs>
  <style type="text/css">*{stroke-linejoin: round; stroke-linecap: butt}</style>
 </defs>
 <g id="figure_1">
  <g id="patch_1">
   <path d="M 0 216 
L 360 216 
L 360 0 
L 0 0 
z
" style="fill: #ffffff"/>
  </g>
  <g id="axes_1">
   <g id="patch_2">
    <path d="M 62.624 174.04 
L 349.2 174.04 
L 349.2 10.8 
L 62.624 10.8 
z
" style="fill: #ffffff"/>
   </g>
   <g id="matplotlib.axis_1">
    <g id="xtick_1">
     <g id="line2d_1">
      <defs>
       <path id="m9943bc9aab" d="M 0 0 
L 0 3.5 
" style="stroke: #000000; stroke-width: 0.8"/>
      </defs>
      <g>
       <use xlink:href="#m9943bc9aab" x="75.650182" y="174.04" style="stroke: #000000; stroke-width: 0.8"/>
      </g>
     </g>
     <g id="text_1">
      <text style="font: 10px 'sans-serif'; text-anchor: middle" x="75.650182" y="188.638438" transform="rotate(-0, 75.650182, 188.638438)">100.0</text>
     </g>
    </g>
    <g id="xtick_2">
     <g id="line2d_2">
      <g>
       <use xlink:href="#m9943bc9aab" x="119.070788" y="174.04" style="stroke: #000000; stroke-width: 0.8"/>
      </g>
     </g>
     <g id="text_2">
      <text style="font: 10px 'sans-serif'; text-anchor: middle" x="119.070788" y="188.638438" transform="rotate(-0, 119.070788, 188.638438)">50.0</text>
     </g>
    </g>
    <g id="xtick_3">
     <g id="line2d_3">
      <g>
       <use xlink:href="#m9943bc9aab" x="162.491394" y="174.04" style="stroke: #000000; stroke-width: 0.8"/>
      </g>
     </g>
     <g id="text_3">
      <text style="font: 10px 'sans-serif'; text-anchor: middle" x="162.491394" y="188.638438" transform="rotate(-0, 162.491394, 188.638438)">33.3</text>
     </g>
    </g>
    <g id="xtick_4">
     <g id="line2d_4">
      <g>
       <use xlink:href="#m9943bc9aab" x="205.912" y="174.04" style="stroke: #000000; stroke-width: 0.8"/>
      </g>
     </g>
     <g id="text_4">
      <text style="font: 10px 'sans-serif'; text-anchor: middle" x="205.912" y="188.638438" transform="rotate(-0, 205.912, 188.638438)">25.0</text>
     </g>
    </g>
    <g id="xtick_5">
     <g id="line2d_5">
      <g>
       <use xlink:href="#m9943bc9aab" x="249.332606" y="174.04" style="stroke: #000000; stroke-width: 0.8"/>
      </g>
     </g>
     <g id="text_5">
      <text style="font: 10px 'sans-serif'; text-anchor: middle" x="249.332606" y="188.638438" transform="rotate(-0, 249.332606, 188.638438)">20.0</text>
     </g>
    </g>
    <g id="xtick_6">
     <g id="line2d_6">
      <g>
       <use xlink:href="#m9943bc9aab" x="292.753212" y="174.04" style="stroke: #000000; stroke-width: 0.8"/>
      </g>
     </g>
     <g id="text_6">
      <text style="font: 10px 'sans-serif'; text-anchor: middle" x="292.753212" y="188.638438" transform="rotate(-0, 292.753212, 188.638438)">10.0</text>
     </g>
    </g>
    <g id="xtick_7">
     <g id="line2d_7">
      <g>
       <use xlink:href="#m9943bc9aab" x="336.173818" y="174.04" style="stroke: #000000; stroke-width: 0.8"/>
      </g>
     </g>
     <g id="text_7">
      <text style="font: 10px 'sans-serif'; text-anchor: middle" x="336.173818" y="188.638438" transform="rotate(-0, 336.173818, 188.638438)">5.0</text>
     </g>
    </g>
    <g id="text_8">
     <text style="font: 10px 'sans-serif'; text-anchor: middle" x="205.912" y="202.316563" transform="rotate(-0, 205.912, 202.316563)">Percentage of frame count of original experiment [%]</text>
    </g>
   </g>
   <g id="matplotlib.axis_2">
    <g id="ytick_1">
     <g id="line2d_8">
      <defs>
       <path id="mcbaa9c6c71" d="M 0 0 
L -3.5 0 
" style="stroke: #000000; stroke-width: 0.8"/>
      </defs>
      <g>
       <use xlink:href="#mcbaa9c6c71" x="62.624" y="163.314689" style="stroke: #000000; stroke-width: 0.8"/>
      </g>
     </g>
     <g id="text_9">
      <text style="font: 10px 'sans-serif'; text-anchor: end" x="55.624" y="167.113907" transform="rotate(-0, 55.624, 167.113907)">20</text>
     </g>
    </g>
    <g id="ytick_2">
     <g id="line2d_9">
      <g>
       <use xlink:href="#mcbaa9c6c71" x="62.624" y="131.53285" style="stroke: #000000; stroke-width: 0.8"/>
      </g>
     </g>
     <g id="text_10">
      <text style="font: 10px 'sans-serif'; text-anchor: end" x="55.624" y="135.332069" transform="rotate(-0, 55.624, 135.332069)">40</text>
     </g>
    </g>
    <g id="ytick_3">
     <g id="line2d_10">
      <g>
       <use xlink:href="#mcbaa9c6c71" x="62.624" y="99.751011" style="stroke: #000000; stroke-width: 0.8"/>
      </g>
     </g>
     <g id="text_11">
      <text style="font: 10px 'sans-serif'; text-anchor: end" x="55.624" y="103.55023" transform="rotate(-0, 55.624, 103.55023)">60</text>
     </g>
    </g>
    <g id="ytick_4">
     <g id="line2d_11">
      <g>
       <use xlink:href="#mcbaa9c6c71" x="62.624" y="67.969172" style="stroke: #000000; stroke-width: 0.8"/>
      </g>
     </g>
     <g id="text_12">
      <text style="font: 10px 'sans-serif'; text-anchor: end" x="55.624" y="71.768391" transform="rotate(-0, 55.624, 71.768391)">80</text>
     </g>
    </g>
    <g id="ytick_5">
     <g id="line2d_12">
      <g>
       <use xlink:href="#mcbaa9c6c71" x="62.624" y="36.187333" style="stroke: #000000; stroke-width: 0.8"/>
      </g>
     </g>
     <g id="text_13">
      <text style="font: 10px 'sans-serif'; text-anchor: end" x="55.624" y="39.986552" transform="rotate(-0, 55.624, 39.986552)">100</text>
     </g>
    </g>
    <g id="text_14">
     <text style="font: 10px 'sans-serif'" transform="translate(19.259 117.925469)rotate(-90)">Deviation </text>
     <text style="font: 10px 'sans-serif'" transform="translate(30.456813 143.425469)rotate(-90)"> [Number of frames]</text>
    </g>
   </g>
   <g id="line2d_13">
    <path d="M 75.650182 112.728595 
L 119.070788 69.240445 
L 162.491394 130.738304 
L 205.912 166.62 
L 249.332606 75.649783 
L 292.753212 77.503724 
L 336.173818 140.008007 
" clip-path="url(#p59a9b865bc)" style="fill: none; stroke: #2378b5; stroke-linecap: square"/>
    <defs>
     <path id="mb2ab8db222" d="M 0 0.5 
C 0.132602 0.5 0.25979 0.447317 0.353553 0.353553 
C 0.447317 0.25979 0.5 0.132602 0.5 0 
C 0.5 -0.132602 0.447317 -0.25979 0.353553 -0.353553 
C 0.25979 -0.447317 0.132602 -0.5 0 -0.5 
C -0.132602 -0.5 -0.25979 -0.447317 -0.353553 -0.353553 
C -0.447317 -0.25979 -0.5 -0.132602 -0.5 0 
C -0.5 0.132602 -0.447317 0.25979 -0.353553 0.353553 
C -0.25979 0.447317 -0.132602 0.5 0 0.5 
z
" style="stroke: #2378b5"/>
    </defs>
    <g clip-path="url(#p59a9b865bc)">
     <use xlink:href="#mb2ab8db222" x="75.650182" y="112.728595" style="fill: #2378b5; stroke: #2378b5"/>
     <use xlink:href="#mb2ab8db222" x="119.070788" y="69.240445" style="fill: #2378b5; stroke: #2378b5"/>
     <use xlink:href="#mb2ab8db222" x="162.491394" y="130.738304" style="fill: #2378b5; stroke: #2378b5"/>
     <use xlink:href="#mb2ab8db222" x="205.912" y="166.62" style="fill: #2378b5; stroke: #2378b5"/>
     <use xlink:href="#mb2ab8db222" x="249.332606" y="75.649783" style="fill: #2378b5; stroke: #2378b5"/>
     <use xlink:href="#mb2ab8db222" x="292.753212" y="77.503724" style="fill: #2378b5; stroke: #2378b5"/>
     <use xlink:href="#mb2ab8db222" x="336.173818" y="140.008007" style="fill: #2378b5; stroke: #2378b5"/>
    </g>
   </g>
   <g id="line2d_14">
    <path d="M 75.650182 111.838704 
L 119.070788 24.279737 
L 162.491394 36.250897 
L 205.912 18.22 
L 249.332606 44.66249 
L 292.753212 35.127938 
L 336.173818 23.474597 
" clip-path="url(#p59a9b865bc)" style="fill: none; stroke: #f57f20; stroke-linecap: square"/>
    <defs>
     <path id="m2775ef754d" d="M 0 0.5 
C 0.132602 0.5 0.25979 0.447317 0.353553 0.353553 
C 0.447317 0.25979 0.5 0.132602 0.5 0 
C 0.5 -0.132602 0.447317 -0.25979 0.353553 -0.353553 
C 0.25979 -0.447317 0.132602 -0.5 0 -0.5 
C -0.132602 -0.5 -0.25979 -0.447317 -0.353553 -0.353553 
C -0.447317 -0.25979 -0.5 -0.132602 -0.5 0 
C -0.5 0.132602 -0.447317 0.25979 -0.353553 0.353553 
C -0.25979 0.447317 -0.132602 0.5 0 0.5 
z
" style="stroke: #f57f20"/>
    </defs>
    <g clip-path="url(#p59a9b865bc)">
     <use xlink:href="#m2775ef754d" x="75.650182" y="111.838704" style="fill: #f57f20; stroke: #f57f20"/>
     <use xlink:href="#m2775ef754d" x="119.070788" y="24.279737" style="fill: #f57f20; stroke: #f57f20"/>
     <use xlink:href="#m2775ef754d" x="162.491394" y="36.250897" style="fill: #f57f20; stroke: #f57f20"/>
     <use xlink:href="#m2775ef754d" x="205.912" y="18.22" style="fill: #f57f20; stroke: #f57f20"/>
     <use xlink:href="#m2775ef754d" x="249.332606" y="44.66249" style="fill: #f57f20; stroke: #f57f20"/>
     <use xlink:href="#m2775ef754d" x="292.753212" y="35.127938" style="fill: #f57f20; stroke: #f57f20"/>
     <use xlink:href="#m2775ef754d" x="336.173818" y="23.474597" style="fill: #f57f20; stroke: #f57f20"/>
    </g>
   </g>
   <g id="patch_3">
    <path d="M 62.624 174.04 
L 62.624 10.8 
" style="fill: none; stroke: #000000; stroke-width: 0.8; stroke-linejoin: miter; stroke-linecap: square"/>
   </g>
   <g id="patch_4">
    <path d="M 349.2 174.04 
L 349.2 10.8 
" style="fill: none; stroke: #000000; stroke-width: 0.8; stroke-linejoin: miter; stroke-linecap: square"/>
   </g>
   <g id="patch_5">
    <path d="M 62.624 174.04 
L 349.2 174.04 
" style="fill: none; stroke: #000000; stroke-width: 0.8; stroke-linejoin: miter; stroke-linecap: square"/>
   </g>
   <g id="patch_6">
    <path d="M 62.624 10.8 
L 349.2 10.8 
" style="fill: none; stroke: #000000; stroke-width: 0.8; stroke-linejoin: miter; stroke-linecap: square"/>
   </g>
  </g>
 </g>
 <defs>
  <clipPath id="p59a9b865bc">
   <rect x="62.624" y="10.8" width="286.576" height="163.24"/>
  </clipPath>
 </defs>
</svg>
