<?xml version="1.0" encoding="utf-8" standalone="no"?>
<!DOCTYPE svg PUBLIC "-//W3C//DTD SVG 1.1//EN"
  "http://www.w3.org/Graphics/SVG/1.1/DTD/svg11.dtd">
<svg xmlns:xlink="http://www.w3.org/1999/xlink" width="360pt" height="216pt" viewBox="0 0 360 216" xmlns="http://www.w3.org/2000/svg" version="1.1">
 <metadata>
  <rdf:RDF xmlns:dc="http://purl.org/dc/elements/1.1/" xmlns:cc="http://creativecommons.org/ns#" xmlns:rdf="http://www.w3.org/1999/02/22-rdf-syntax-ns#">
   <cc:Work>
    <dc:type rdf:resource="http://purl.org/dc/dcmitype/StillImage"/>
    <dc:date>2023-05-16T14:02:46.196006</dc:date>
    <dc:format>image/svg+xml</dc:format>
    <dc:creator>
     <cc:Agent>
      <dc:title>Matplotlib v3.5.1, https://matplotlib.org/</dc:title>
     </cc:Agent>
    </dc:creator>
   </cc:Work>
  </rdf:RDF>
 </metadata>
 <defs>
  <style type="text/css">*{stroke-linejoin: round; stroke-linecap: butt}</style>
 </defs>
 <g id="figure_1">
  <g id="patch_1">
   <path d="M 0 216 
L 360 216 
L 360 0 
L 0 0 
z
" style="fill: #ffffff"/>
  </g>
  <g id="axes_1">
   <g id="patch_2">
    <path d="M 49.934 174.04 
L 349.2 174.04 
L 349.2 10.8 
L 49.934 10.8 
z
" style="fill: #ffffff"/>
   </g>
   <g id="matplotlib.axis_1">
    <g id="xtick_1">
     <g id="line2d_1">
      <defs>
       <path id="m5554e16196" d="M 0 0 
L 0 3.5 
" style="stroke: #000000; stroke-width: 0.8"/>
      </defs>
      <g>
       <use xlink:href="#m5554e16196" x="63.537" y="174.04" style="stroke: #000000; stroke-width: 0.8"/>
      </g>
     </g>
     <g id="text_1">
      <text style="font: 10px 'sans-serif'; text-anchor: middle" x="63.537" y="188.638438" transform="rotate(-0, 63.537, 188.638438)">100.0</text>
     </g>
    </g>
    <g id="xtick_2">
     <g id="line2d_2">
      <g>
       <use xlink:href="#m5554e16196" x="108.880333" y="174.04" style="stroke: #000000; stroke-width: 0.8"/>
      </g>
     </g>
     <g id="text_2">
      <text style="font: 10px 'sans-serif'; text-anchor: middle" x="108.880333" y="188.638438" transform="rotate(-0, 108.880333, 188.638438)">50.0</text>
     </g>
    </g>
    <g id="xtick_3">
     <g id="line2d_3">
      <g>
       <use xlink:href="#m5554e16196" x="154.223667" y="174.04" style="stroke: #000000; stroke-width: 0.8"/>
      </g>
     </g>
     <g id="text_3">
      <text style="font: 10px 'sans-serif'; text-anchor: middle" x="154.223667" y="188.638438" transform="rotate(-0, 154.223667, 188.638438)">33.3</text>
     </g>
    </g>
    <g id="xtick_4">
     <g id="line2d_4">
      <g>
       <use xlink:href="#m5554e16196" x="199.567" y="174.04" style="stroke: #000000; stroke-width: 0.8"/>
      </g>
     </g>
     <g id="text_4">
      <text style="font: 10px 'sans-serif'; text-anchor: middle" x="199.567" y="188.638438" transform="rotate(-0, 199.567, 188.638438)">25.0</text>
     </g>
    </g>
    <g id="xtick_5">
     <g id="line2d_5">
      <g>
       <use xlink:href="#m5554e16196" x="244.910333" y="174.04" style="stroke: #000000; stroke-width: 0.8"/>
      </g>
     </g>
     <g id="text_5">
      <text style="font: 10px 'sans-serif'; text-anchor: middle" x="244.910333" y="188.638438" transform="rotate(-0, 244.910333, 188.638438)">20.0</text>
     </g>
    </g>
    <g id="xtick_6">
     <g id="line2d_6">
      <g>
       <use xlink:href="#m5554e16196" x="290.253667" y="174.04" style="stroke: #000000; stroke-width: 0.8"/>
      </g>
     </g>
     <g id="text_6">
      <text style="font: 10px 'sans-serif'; text-anchor: middle" x="290.253667" y="188.638438" transform="rotate(-0, 290.253667, 188.638438)">10.0</text>
     </g>
    </g>
    <g id="xtick_7">
     <g id="line2d_7">
      <g>
       <use xlink:href="#m5554e16196" x="335.597" y="174.04" style="stroke: #000000; stroke-width: 0.8"/>
      </g>
     </g>
     <g id="text_7">
      <text style="font: 10px 'sans-serif'; text-anchor: middle" x="335.597" y="188.638438" transform="rotate(-0, 335.597, 188.638438)">5.0</text>
     </g>
    </g>
    <g id="text_8">
     <text style="font: 10px 'sans-serif'; text-anchor: middle" x="199.567" y="202.316563" transform="rotate(-0, 199.567, 202.316563)">Percentage of frame count of original experiment [%]</text>
    </g>
   </g>
   <g id="matplotlib.axis_2">
    <g id="ytick_1">
     <g id="line2d_8">
      <defs>
       <path id="m6b011db8de" d="M 0 0 
L -3.5 0 
" style="stroke: #000000; stroke-width: 0.8"/>
      </defs>
      <g>
       <use xlink:href="#m6b011db8de" x="49.934" y="170.2687" style="stroke: #000000; stroke-width: 0.8"/>
      </g>
     </g>
     <g id="text_9">
      <text style="font: 10px 'sans-serif'; text-anchor: end" x="42.934" y="174.067918" transform="rotate(-0, 42.934, 174.067918)">0</text>
     </g>
    </g>
    <g id="ytick_2">
     <g id="line2d_9">
      <g>
       <use xlink:href="#m6b011db8de" x="49.934" y="149.150825" style="stroke: #000000; stroke-width: 0.8"/>
      </g>
     </g>
     <g id="text_10">
      <text style="font: 10px 'sans-serif'; text-anchor: end" x="42.934" y="152.950043" transform="rotate(-0, 42.934, 152.950043)">1</text>
     </g>
    </g>
    <g id="ytick_3">
     <g id="line2d_10">
      <g>
       <use xlink:href="#m6b011db8de" x="49.934" y="128.03295" style="stroke: #000000; stroke-width: 0.8"/>
      </g>
     </g>
     <g id="text_11">
      <text style="font: 10px 'sans-serif'; text-anchor: end" x="42.934" y="131.832168" transform="rotate(-0, 42.934, 131.832168)">2</text>
     </g>
    </g>
    <g id="ytick_4">
     <g id="line2d_11">
      <g>
       <use xlink:href="#m6b011db8de" x="49.934" y="106.915075" style="stroke: #000000; stroke-width: 0.8"/>
      </g>
     </g>
     <g id="text_12">
      <text style="font: 10px 'sans-serif'; text-anchor: end" x="42.934" y="110.714293" transform="rotate(-0, 42.934, 110.714293)">3</text>
     </g>
    </g>
    <g id="ytick_5">
     <g id="line2d_12">
      <g>
       <use xlink:href="#m6b011db8de" x="49.934" y="85.7972" style="stroke: #000000; stroke-width: 0.8"/>
      </g>
     </g>
     <g id="text_13">
      <text style="font: 10px 'sans-serif'; text-anchor: end" x="42.934" y="89.596419" transform="rotate(-0, 42.934, 89.596419)">4</text>
     </g>
    </g>
    <g id="ytick_6">
     <g id="line2d_13">
      <g>
       <use xlink:href="#m6b011db8de" x="49.934" y="64.679325" style="stroke: #000000; stroke-width: 0.8"/>
      </g>
     </g>
     <g id="text_14">
      <text style="font: 10px 'sans-serif'; text-anchor: end" x="42.934" y="68.478544" transform="rotate(-0, 42.934, 68.478544)">5</text>
     </g>
    </g>
    <g id="ytick_7">
     <g id="line2d_14">
      <g>
       <use xlink:href="#m6b011db8de" x="49.934" y="43.56145" style="stroke: #000000; stroke-width: 0.8"/>
      </g>
     </g>
     <g id="text_15">
      <text style="font: 10px 'sans-serif'; text-anchor: end" x="42.934" y="47.360669" transform="rotate(-0, 42.934, 47.360669)">6</text>
     </g>
    </g>
    <g id="ytick_8">
     <g id="line2d_15">
      <g>
       <use xlink:href="#m6b011db8de" x="49.934" y="22.443575" style="stroke: #000000; stroke-width: 0.8"/>
      </g>
     </g>
     <g id="text_16">
      <text style="font: 10px 'sans-serif'; text-anchor: end" x="42.934" y="26.242794" transform="rotate(-0, 42.934, 26.242794)">7</text>
     </g>
    </g>
    <g id="text_17">
     <text style="font: 10px 'sans-serif'" transform="translate(19.294 117.925469)rotate(-90)">Deviation </text>
     <text style="font: 10px 'sans-serif'" transform="translate(30.491813 215.103594)rotate(-90)">[Number of frames/number of frames in dataset]</text>
    </g>
   </g>
   <g id="line2d_16">
    <path d="M 63.537 166.62 
L 108.880333 159.118462 
L 154.223667 161.71596 
L 199.567 165.222935 
L 244.910333 143.812695 
L 290.253667 118.177941 
L 335.597 121.462944 
" clip-path="url(#p10d53d1462)" style="fill: none; stroke: #2378b5; stroke-linecap: square"/>
    <defs>
     <path id="mc3ac54f88e" d="M 0 0.5 
C 0.132602 0.5 0.25979 0.447317 0.353553 0.353553 
C 0.447317 0.25979 0.5 0.132602 0.5 0 
C 0.5 -0.132602 0.447317 -0.25979 0.353553 -0.353553 
C 0.25979 -0.447317 0.132602 -0.5 0 -0.5 
C -0.132602 -0.5 -0.25979 -0.447317 -0.353553 -0.353553 
C -0.447317 -0.25979 -0.5 -0.132602 -0.5 0 
C -0.5 0.132602 -0.447317 0.25979 -0.353553 0.353553 
C -0.25979 0.447317 -0.132602 0.5 0 0.5 
z
" style="stroke: #2378b5"/>
    </defs>
    <g clip-path="url(#p10d53d1462)">
     <use xlink:href="#mc3ac54f88e" x="63.537" y="166.62" style="fill: #2378b5; stroke: #2378b5"/>
     <use xlink:href="#mc3ac54f88e" x="108.880333" y="159.118462" style="fill: #2378b5; stroke: #2378b5"/>
     <use xlink:href="#mc3ac54f88e" x="154.223667" y="161.71596" style="fill: #2378b5; stroke: #2378b5"/>
     <use xlink:href="#mc3ac54f88e" x="199.567" y="165.222935" style="fill: #2378b5; stroke: #2378b5"/>
     <use xlink:href="#mc3ac54f88e" x="244.910333" y="143.812695" style="fill: #2378b5; stroke: #2378b5"/>
     <use xlink:href="#mc3ac54f88e" x="290.253667" y="118.177941" style="fill: #2378b5; stroke: #2378b5"/>
     <use xlink:href="#mc3ac54f88e" x="335.597" y="121.462944" style="fill: #2378b5; stroke: #2378b5"/>
    </g>
   </g>
   <g id="line2d_17">
    <path d="M 63.537 166.58058 
L 108.880333 155.135161 
L 154.223667 149.159272 
L 199.567 138.927896 
L 244.910333 136.949386 
L 290.253667 99.406497 
L 335.597 18.22 
" clip-path="url(#p10d53d1462)" style="fill: none; stroke: #f57f20; stroke-linecap: square"/>
    <defs>
     <path id="m7fba6b5fc3" d="M 0 0.5 
C 0.132602 0.5 0.25979 0.447317 0.353553 0.353553 
C 0.447317 0.25979 0.5 0.132602 0.5 0 
C 0.5 -0.132602 0.447317 -0.25979 0.353553 -0.353553 
C 0.25979 -0.447317 0.132602 -0.5 0 -0.5 
C -0.132602 -0.5 -0.25979 -0.447317 -0.353553 -0.353553 
C -0.447317 -0.25979 -0.5 -0.132602 -0.5 0 
C -0.5 0.132602 -0.447317 0.25979 -0.353553 0.353553 
C -0.25979 0.447317 -0.132602 0.5 0 0.5 
z
" style="stroke: #f57f20"/>
    </defs>
    <g clip-path="url(#p10d53d1462)">
     <use xlink:href="#m7fba6b5fc3" x="63.537" y="166.58058" style="fill: #f57f20; stroke: #f57f20"/>
     <use xlink:href="#m7fba6b5fc3" x="108.880333" y="155.135161" style="fill: #f57f20; stroke: #f57f20"/>
     <use xlink:href="#m7fba6b5fc3" x="154.223667" y="149.159272" style="fill: #f57f20; stroke: #f57f20"/>
     <use xlink:href="#m7fba6b5fc3" x="199.567" y="138.927896" style="fill: #f57f20; stroke: #f57f20"/>
     <use xlink:href="#m7fba6b5fc3" x="244.910333" y="136.949386" style="fill: #f57f20; stroke: #f57f20"/>
     <use xlink:href="#m7fba6b5fc3" x="290.253667" y="99.406497" style="fill: #f57f20; stroke: #f57f20"/>
     <use xlink:href="#m7fba6b5fc3" x="335.597" y="18.22" style="fill: #f57f20; stroke: #f57f20"/>
    </g>
   </g>
   <g id="patch_3">
    <path d="M 49.934 174.04 
L 49.934 10.8 
" style="fill: none; stroke: #000000; stroke-width: 0.8; stroke-linejoin: miter; stroke-linecap: square"/>
   </g>
   <g id="patch_4">
    <path d="M 349.2 174.04 
L 349.2 10.8 
" style="fill: none; stroke: #000000; stroke-width: 0.8; stroke-linejoin: miter; stroke-linecap: square"/>
   </g>
   <g id="patch_5">
    <path d="M 49.934 174.04 
L 349.2 174.04 
" style="fill: none; stroke: #000000; stroke-width: 0.8; stroke-linejoin: miter; stroke-linecap: square"/>
   </g>
   <g id="patch_6">
    <path d="M 49.934 10.8 
L 349.2 10.8 
" style="fill: none; stroke: #000000; stroke-width: 0.8; stroke-linejoin: miter; stroke-linecap: square"/>
   </g>
  </g>
 </g>
 <defs>
  <clipPath id="p10d53d1462">
   <rect x="49.934" y="10.8" width="299.266" height="163.24"/>
  </clipPath>
 </defs>
</svg>
