<?xml version="1.0" encoding="utf-8" standalone="no"?>
<!DOCTYPE svg PUBLIC "-//W3C//DTD SVG 1.1//EN"
  "http://www.w3.org/Graphics/SVG/1.1/DTD/svg11.dtd">
<svg xmlns:xlink="http://www.w3.org/1999/xlink" width="329.98125pt" height="214.875469pt" viewBox="0 0 329.98125 214.875469" xmlns="http://www.w3.org/2000/svg" version="1.1">
 <metadata>
  <rdf:RDF xmlns:dc="http://purl.org/dc/elements/1.1/" xmlns:cc="http://creativecommons.org/ns#" xmlns:rdf="http://www.w3.org/1999/02/22-rdf-syntax-ns#">
   <cc:Work>
    <dc:type rdf:resource="http://purl.org/dc/dcmitype/StillImage"/>
    <dc:date>2023-07-27T09:02:47.860641</dc:date>
    <dc:format>image/svg+xml</dc:format>
    <dc:creator>
     <cc:Agent>
      <dc:title>Matplotlib v3.7.0, https://matplotlib.org/</dc:title>
     </cc:Agent>
    </dc:creator>
   </cc:Work>
  </rdf:RDF>
 </metadata>
 <defs>
  <style type="text/css">*{stroke-linejoin: round; stroke-linecap: butt}</style>
 </defs>
 <g id="figure_1">
  <g id="patch_1">
   <path d="M 0 214.875469 
L 329.98125 214.875469 
L 329.98125 0 
L 0 0 
z
" style="fill: #ffffff"/>
  </g>
  <g id="axes_1">
   <g id="patch_2">
    <path d="M 43.78125 177.319219 
L 322.78125 177.319219 
L 322.78125 10.999219 
L 43.78125 10.999219 
z
" style="fill: #ffffff"/>
   </g>
   <g id="PolyCollection_1">
    <path d="M 62.803977 177.319219 
L 62.803977 177.319219 
L 69.144886 177.319219 
L 75.485795 79.645501 
L 81.826705 49.417508 
L 88.167614 23.875143 
L 94.508523 10.999219 
L 100.849432 15.988819 
L 107.190341 10.999219 
L 113.53125 10.999219 
L 119.872159 10.999219 
L 126.213068 10.999219 
L 132.553977 10.999219 
L 138.894886 10.999219 
L 145.235795 10.999219 
L 151.576705 10.999219 
L 157.917614 10.999219 
L 164.258523 10.999219 
L 170.599432 10.999219 
L 176.940341 10.999219 
L 183.28125 10.999219 
L 189.622159 10.999219 
L 195.963068 10.999219 
L 202.303977 10.999219 
L 208.644886 10.999219 
L 214.985795 10.999219 
L 221.326705 10.999219 
L 227.667614 10.999219 
L 234.008523 10.999219 
L 240.349432 10.999219 
L 246.690341 10.999219 
L 253.03125 10.999219 
L 259.372159 10.999219 
L 265.713068 10.999219 
L 272.053977 10.999219 
L 278.394886 10.999219 
L 284.735795 10.999219 
L 291.076705 10.999219 
L 297.417614 10.999219 
L 303.758523 10.999219 
L 310.099432 10.999219 
L 316.440341 10.999219 
L 322.78125 10.999219 
L 322.78125 10.999219 
L 322.78125 10.999219 
L 316.440341 10.999219 
L 310.099432 10.999219 
L 303.758523 10.999219 
L 297.417614 10.999219 
L 291.076705 10.999219 
L 284.735795 10.999219 
L 278.394886 10.999219 
L 272.053977 10.999219 
L 265.713068 10.999219 
L 259.372159 10.999219 
L 253.03125 10.999219 
L 246.690341 10.999219 
L 240.349432 10.999219 
L 234.008523 10.999219 
L 227.667614 10.999219 
L 221.326705 10.999219 
L 214.985795 10.999219 
L 208.644886 10.999219 
L 202.303977 10.999219 
L 195.963068 10.999219 
L 189.622159 10.999219 
L 183.28125 10.999219 
L 176.940341 10.999219 
L 170.599432 10.999219 
L 164.258523 10.999219 
L 157.917614 10.999219 
L 151.576705 10.999219 
L 145.235795 10.999219 
L 138.894886 10.999219 
L 132.553977 10.999219 
L 126.213068 10.999219 
L 119.872159 10.999219 
L 113.53125 10.999219 
L 107.190341 10.999219 
L 100.849432 9.336019 
L 94.508523 10.999219 
L 88.167614 11.428894 
L 81.826705 32.456129 
L 75.485795 48.797736 
L 69.144886 177.319219 
L 62.803977 177.319219 
z
" clip-path="url(#p1606b647bc)" style="fill: #1f77b4; fill-opacity: 0.2"/>
   </g>
   <g id="PolyCollection_2">
    <path d="M 62.803977 177.319219 
L 62.803977 177.319219 
L 69.144886 177.319219 
L 75.485795 137.234401 
L 81.826705 147.381619 
L 88.167614 113.178902 
L 94.508523 81.345311 
L 100.849432 43.833543 
L 107.190341 15.988819 
L 113.53125 18.39961 
L 119.872159 15.988819 
L 126.213068 10.999219 
L 132.553977 10.999219 
L 132.553977 10.999219 
L 132.553977 10.999219 
L 126.213068 10.999219 
L 119.872159 9.336019 
L 113.53125 10.251627 
L 107.190341 9.336019 
L 100.849432 31.387294 
L 94.508523 47.097927 
L 88.167614 55.181136 
L 81.826705 120.770419 
L 75.485795 120.938436 
L 69.144886 177.319219 
L 62.803977 177.319219 
z
" clip-path="url(#p1606b647bc)" style="fill: #ffbb78; fill-opacity: 0.2"/>
   </g>
   <g id="PolyCollection_3">
    <path d="M 62.803977 177.319219 
L 62.803977 177.319219 
L 69.144886 177.319219 
L 75.485795 176.889543 
L 81.826705 175.29399 
L 88.167614 163.54426 
L 94.508523 119.85481 
L 100.849432 126.860897 
L 107.190341 113.64826 
L 113.53125 93.315736 
L 119.872159 71.203797 
L 126.213068 60.53319 
L 132.553977 43.601806 
L 138.894886 26.753275 
L 145.235795 26.753275 
L 151.576705 20.06281 
L 157.917614 10.999219 
L 164.258523 10.999219 
L 170.599432 15.988819 
L 176.940341 10.999219 
L 183.28125 10.999219 
L 189.622159 10.999219 
L 195.963068 10.999219 
L 202.303977 10.999219 
L 208.644886 10.999219 
L 214.985795 10.999219 
L 221.326705 10.999219 
L 227.667614 10.999219 
L 234.008523 10.999219 
L 240.349432 10.999219 
L 246.690341 10.999219 
L 253.03125 10.999219 
L 259.372159 10.999219 
L 265.713068 10.999219 
L 272.053977 10.999219 
L 278.394886 10.999219 
L 284.735795 10.999219 
L 291.076705 10.999219 
L 297.417614 10.999219 
L 303.758523 10.999219 
L 310.099432 10.999219 
L 316.440341 10.999219 
L 322.78125 10.999219 
L 322.78125 10.999219 
L 322.78125 10.999219 
L 316.440341 10.999219 
L 310.099432 10.999219 
L 303.758523 10.999219 
L 297.417614 10.999219 
L 291.076705 10.999219 
L 284.735795 10.999219 
L 278.394886 10.999219 
L 272.053977 10.999219 
L 265.713068 10.999219 
L 259.372159 10.999219 
L 253.03125 10.999219 
L 246.690341 10.999219 
L 240.349432 10.999219 
L 234.008523 10.999219 
L 227.667614 10.999219 
L 221.326705 10.999219 
L 214.985795 10.999219 
L 208.644886 10.999219 
L 202.303977 10.999219 
L 195.963068 10.999219 
L 189.622159 10.999219 
L 183.28125 10.999219 
L 176.940341 10.999219 
L 170.599432 9.336019 
L 164.258523 10.999219 
L 157.917614 10.999219 
L 151.576705 11.914827 
L 145.235795 11.877162 
L 138.894886 11.877162 
L 132.553977 14.987031 
L 126.213068 37.972448 
L 119.872159 37.28104 
L 113.53125 35.127501 
L 107.190341 84.649377 
L 100.849432 88.06874 
L 94.508523 111.706827 
L 88.167614 134.545377 
L 81.826705 152.733248 
L 75.485795 164.443294 
L 69.144886 177.319219 
L 62.803977 177.319219 
z
" clip-path="url(#p1606b647bc)" style="fill: #d62728; fill-opacity: 0.2"/>
   </g>
   <g id="PolyCollection_4">
    <path d="M 62.803977 177.319219 
L 62.803977 177.319219 
L 69.144886 177.319219 
L 75.485795 178.982419 
L 81.826705 178.982419 
L 88.167614 165.676819 
L 94.508523 169.79694 
L 100.849432 163.54426 
L 107.190341 151.517719 
L 113.53125 163.018616 
L 119.872159 130.97503 
L 126.213068 127.06119 
L 132.553977 120.714917 
L 138.894886 108.074548 
L 145.235795 76.649275 
L 151.576705 76.990135 
L 157.917614 87.835797 
L 164.258523 51.701275 
L 170.599432 54.074401 
L 176.940341 51.725719 
L 183.28125 38.992458 
L 189.622159 43.90119 
L 195.963068 32.191143 
L 202.303977 25.800001 
L 208.644886 15.988819 
L 214.985795 18.39961 
L 221.326705 20.978419 
L 227.667614 10.999219 
L 234.008523 10.999219 
L 240.349432 10.999219 
L 246.690341 10.999219 
L 253.03125 10.999219 
L 259.372159 10.999219 
L 265.713068 10.999219 
L 272.053977 10.999219 
L 278.394886 10.999219 
L 284.735795 10.999219 
L 291.076705 10.999219 
L 297.417614 10.999219 
L 303.758523 10.999219 
L 310.099432 10.999219 
L 316.440341 10.999219 
L 322.78125 10.999219 
L 322.78125 10.999219 
L 322.78125 10.999219 
L 316.440341 10.999219 
L 310.099432 10.999219 
L 303.758523 10.999219 
L 297.417614 10.999219 
L 291.076705 10.999219 
L 284.735795 10.999219 
L 278.394886 10.999219 
L 272.053977 10.999219 
L 265.713068 10.999219 
L 259.372159 10.999219 
L 253.03125 10.999219 
L 246.690341 10.999219 
L 240.349432 10.999219 
L 234.008523 10.999219 
L 227.667614 10.999219 
L 221.326705 7.672819 
L 214.985795 10.251627 
L 208.644886 9.336019 
L 202.303977 9.504036 
L 195.963068 19.744894 
L 189.622159 21.340448 
L 183.28125 19.59638 
L 176.940341 20.168718 
L 170.599432 37.778436 
L 164.258523 36.825162 
L 157.917614 53.91304 
L 151.576705 41.473902 
L 145.235795 61.773162 
L 138.894886 80.243889 
L 132.553977 70.92992 
L 126.213068 104.500448 
L 119.872159 93.933807 
L 113.53125 125.091821 
L 107.190341 119.960718 
L 100.849432 134.545377 
L 94.508523 151.577497 
L 88.167614 145.718419 
L 81.826705 172.329619 
L 75.485795 165.676819 
L 69.144886 177.319219 
L 62.803977 177.319219 
z
" clip-path="url(#p1606b647bc)" style="fill: #8c564b; fill-opacity: 0.2"/>
   </g>
   <g id="PolyCollection_5">
    <path d="M 62.803977 177.319219 
L 62.803977 177.319219 
L 69.144886 177.319219 
L 75.485795 177.319219 
L 81.826705 178.982419 
L 88.167614 177.319219 
L 94.508523 178.982419 
L 100.849432 178.06681 
L 107.190341 178.982419 
L 113.53125 177.319219 
L 119.872159 178.11294 
L 126.213068 176.40361 
L 132.553977 173.563143 
L 138.894886 176.95719 
L 145.235795 177.038058 
L 151.576705 178.982419 
L 157.917614 171.206219 
L 164.258523 176.889543 
L 170.599432 172.048458 
L 176.940341 175.656019 
L 183.28125 178.982419 
L 189.622159 164.013619 
L 195.963068 159.833719 
L 202.303977 160.257543 
L 208.644886 165.09322 
L 214.985795 142.392019 
L 221.326705 140.14522 
L 227.667614 142.392019 
L 234.008523 139.120997 
L 240.349432 130.468458 
L 246.690341 132.412819 
L 253.03125 131.751406 
L 259.372159 112.660719 
L 265.713068 109.035332 
L 272.053977 95.822419 
L 278.394886 84.012001 
L 284.735795 85.306135 
L 291.076705 86.655008 
L 297.417614 60.035868 
L 303.758523 61.101519 
L 310.099432 62.887797 
L 316.440341 29.126401 
L 322.78125 20.06281 
L 322.78125 11.914827 
L 322.78125 11.914827 
L 316.440341 12.830436 
L 310.099432 28.96504 
L 303.758523 34.077718 
L 297.417614 35.14337 
L 291.076705 51.76743 
L 284.735795 49.789902 
L 278.394886 67.716036 
L 272.053977 55.905619 
L 265.713068 79.283106 
L 259.372159 85.636918 
L 253.03125 103.136631 
L 246.690341 112.454419 
L 240.349432 111.07238 
L 234.008523 89.11424 
L 227.667614 115.780819 
L 221.326705 98.069218 
L 214.985795 122.433619 
L 208.644886 123.017218 
L 202.303977 147.811294 
L 195.963068 128.276718 
L 189.622159 137.402419 
L 183.28125 139.065619 
L 176.940341 149.044819 
L 170.599432 152.65238 
L 164.258523 164.443294 
L 157.917614 150.168218 
L 151.576705 165.676819 
L 145.235795 157.64198 
L 138.894886 154.396448 
L 132.553977 161.116894 
L 126.213068 168.255627 
L 119.872159 159.893497 
L 113.53125 177.319219 
L 107.190341 172.329619 
L 100.849432 169.918827 
L 94.508523 172.329619 
L 88.167614 177.319219 
L 81.826705 172.329619 
L 75.485795 177.319219 
L 69.144886 177.319219 
L 62.803977 177.319219 
z
" clip-path="url(#p1606b647bc)" style="fill: #f7b6d2; fill-opacity: 0.2"/>
   </g>
   <g id="PolyCollection_6">
    <path d="M 62.803977 177.319219 
L 62.803977 177.319219 
L 69.144886 177.319219 
L 75.485795 177.319219 
L 81.826705 177.319219 
L 88.167614 178.982419 
L 94.508523 177.319219 
L 100.849432 178.06681 
L 107.190341 180.645619 
L 113.53125 177.319219 
L 119.872159 178.982419 
L 126.213068 178.982419 
L 132.553977 178.11294 
L 138.894886 178.06681 
L 145.235795 169.75081 
L 151.576705 174.262719 
L 157.917614 178.11294 
L 164.258523 177.038058 
L 170.599432 170.666419 
L 176.940341 170.498401 
L 183.28125 176.441275 
L 189.622159 172.048458 
L 195.963068 172.784701 
L 202.303977 165.676819 
L 208.644886 166.958031 
L 214.985795 168.722058 
L 221.326705 161.48094 
L 227.667614 136.696951 
L 234.008523 140.893508 
L 240.349432 165.340784 
L 246.690341 152.178452 
L 253.03125 139.230308 
L 259.372159 140.299143 
L 265.713068 143.862452 
L 272.053977 137.857501 
L 278.394886 126.860897 
L 284.735795 115.056761 
L 291.076705 90.832819 
L 297.417614 91.412393 
L 303.758523 105.138127 
L 310.099432 45.758401 
L 316.440341 43.601806 
L 322.78125 10.999219 
L 322.78125 10.999219 
L 322.78125 10.999219 
L 316.440341 14.987031 
L 310.099432 29.462436 
L 303.758523 43.26351 
L 297.417614 66.968445 
L 291.076705 70.874419 
L 284.735795 69.935276 
L 278.394886 88.06874 
L 272.053977 107.009736 
L 265.713068 101.004786 
L 259.372159 127.852894 
L 253.03125 122.268929 
L 246.690341 109.320786 
L 240.349432 132.748853 
L 234.008523 123.932129 
L 227.667614 98.191087 
L 221.326705 143.261497 
L 214.985795 149.32598 
L 208.644886 131.131607 
L 202.303977 145.718419 
L 195.963068 141.936936 
L 189.622159 152.65238 
L 183.28125 161.565162 
L 176.940341 154.202436 
L 170.599432 157.360819 
L 164.258523 157.64198 
L 157.917614 159.893497 
L 151.576705 163.743719 
L 145.235795 161.602827 
L 138.894886 169.918827 
L 132.553977 159.893497 
L 126.213068 172.329619 
L 119.872159 172.329619 
L 113.53125 177.319219 
L 107.190341 167.340019 
L 100.849432 169.918827 
L 94.508523 177.319219 
L 88.167614 172.329619 
L 81.826705 177.319219 
L 75.485795 177.319219 
L 69.144886 177.319219 
L 62.803977 177.319219 
z
" clip-path="url(#p1606b647bc)" style="fill: #bcbd22; fill-opacity: 0.2"/>
   </g>
   <g id="PolyCollection_7">
    <path d="M 62.803977 177.319219 
L 62.803977 177.319219 
L 69.144886 177.319219 
L 75.485795 178.982419 
L 81.826705 177.319219 
L 88.167614 177.319219 
L 94.508523 177.319219 
L 100.849432 178.982419 
L 107.190341 177.319219 
L 113.53125 177.319219 
L 119.872159 177.319219 
L 126.213068 177.319219 
L 132.553977 178.982419 
L 138.894886 178.982419 
L 145.235795 177.319219 
L 151.576705 178.982419 
L 157.917614 177.319219 
L 157.917614 177.319219 
L 157.917614 177.319219 
L 151.576705 172.329619 
L 145.235795 177.319219 
L 138.894886 172.329619 
L 132.553977 172.329619 
L 126.213068 177.319219 
L 119.872159 177.319219 
L 113.53125 177.319219 
L 107.190341 177.319219 
L 100.849432 172.329619 
L 94.508523 177.319219 
L 88.167614 177.319219 
L 81.826705 177.319219 
L 75.485795 172.329619 
L 69.144886 177.319219 
L 62.803977 177.319219 
z
" clip-path="url(#p1606b647bc)" style="fill: #9edae5; fill-opacity: 0.2"/>
   </g>
   <g id="matplotlib.axis_1">
    <g id="xtick_1">
     <g id="line2d_1">
      <defs>
       <path id="mdcbb3d2685" d="M 0 0 
L 0 3.5 
" style="stroke: #000000; stroke-width: 0.8"/>
      </defs>
      <g>
       <use xlink:href="#mdcbb3d2685" x="43.78125" y="177.319219" style="stroke: #000000; stroke-width: 0.8"/>
      </g>
     </g>
     <g id="text_1">
      <text style="font: 10px 'DejaVu Sans', 'Bitstream Vera Sans', 'Computer Modern Sans Serif', 'Lucida Grande', 'Verdana', 'Geneva', 'Lucid', 'Arial', 'Helvetica', 'Avant Garde', sans-serif; text-anchor: middle" x="43.78125" y="191.917656" transform="rotate(-0 43.78125 191.917656)">0</text>
     </g>
    </g>
    <g id="xtick_2">
     <g id="line2d_2">
      <g>
       <use xlink:href="#mdcbb3d2685" x="75.485795" y="177.319219" style="stroke: #000000; stroke-width: 0.8"/>
      </g>
     </g>
     <g id="text_2">
      <text style="font: 10px 'DejaVu Sans', 'Bitstream Vera Sans', 'Computer Modern Sans Serif', 'Lucida Grande', 'Verdana', 'Geneva', 'Lucid', 'Arial', 'Helvetica', 'Avant Garde', sans-serif; text-anchor: middle" x="75.485795" y="191.917656" transform="rotate(-0 75.485795 191.917656)">5</text>
     </g>
    </g>
    <g id="xtick_3">
     <g id="line2d_3">
      <g>
       <use xlink:href="#mdcbb3d2685" x="107.190341" y="177.319219" style="stroke: #000000; stroke-width: 0.8"/>
      </g>
     </g>
     <g id="text_3">
      <text style="font: 10px 'DejaVu Sans', 'Bitstream Vera Sans', 'Computer Modern Sans Serif', 'Lucida Grande', 'Verdana', 'Geneva', 'Lucid', 'Arial', 'Helvetica', 'Avant Garde', sans-serif; text-anchor: middle" x="107.190341" y="191.917656" transform="rotate(-0 107.190341 191.917656)">10</text>
     </g>
    </g>
    <g id="xtick_4">
     <g id="line2d_4">
      <g>
       <use xlink:href="#mdcbb3d2685" x="138.894886" y="177.319219" style="stroke: #000000; stroke-width: 0.8"/>
      </g>
     </g>
     <g id="text_4">
      <text style="font: 10px 'DejaVu Sans', 'Bitstream Vera Sans', 'Computer Modern Sans Serif', 'Lucida Grande', 'Verdana', 'Geneva', 'Lucid', 'Arial', 'Helvetica', 'Avant Garde', sans-serif; text-anchor: middle" x="138.894886" y="191.917656" transform="rotate(-0 138.894886 191.917656)">15</text>
     </g>
    </g>
    <g id="xtick_5">
     <g id="line2d_5">
      <g>
       <use xlink:href="#mdcbb3d2685" x="170.599432" y="177.319219" style="stroke: #000000; stroke-width: 0.8"/>
      </g>
     </g>
     <g id="text_5">
      <text style="font: 10px 'DejaVu Sans', 'Bitstream Vera Sans', 'Computer Modern Sans Serif', 'Lucida Grande', 'Verdana', 'Geneva', 'Lucid', 'Arial', 'Helvetica', 'Avant Garde', sans-serif; text-anchor: middle" x="170.599432" y="191.917656" transform="rotate(-0 170.599432 191.917656)">20</text>
     </g>
    </g>
    <g id="xtick_6">
     <g id="line2d_6">
      <g>
       <use xlink:href="#mdcbb3d2685" x="202.303977" y="177.319219" style="stroke: #000000; stroke-width: 0.8"/>
      </g>
     </g>
     <g id="text_6">
      <text style="font: 10px 'DejaVu Sans', 'Bitstream Vera Sans', 'Computer Modern Sans Serif', 'Lucida Grande', 'Verdana', 'Geneva', 'Lucid', 'Arial', 'Helvetica', 'Avant Garde', sans-serif; text-anchor: middle" x="202.303977" y="191.917656" transform="rotate(-0 202.303977 191.917656)">25</text>
     </g>
    </g>
    <g id="xtick_7">
     <g id="line2d_7">
      <g>
       <use xlink:href="#mdcbb3d2685" x="234.008523" y="177.319219" style="stroke: #000000; stroke-width: 0.8"/>
      </g>
     </g>
     <g id="text_7">
      <text style="font: 10px 'DejaVu Sans', 'Bitstream Vera Sans', 'Computer Modern Sans Serif', 'Lucida Grande', 'Verdana', 'Geneva', 'Lucid', 'Arial', 'Helvetica', 'Avant Garde', sans-serif; text-anchor: middle" x="234.008523" y="191.917656" transform="rotate(-0 234.008523 191.917656)">30</text>
     </g>
    </g>
    <g id="xtick_8">
     <g id="line2d_8">
      <g>
       <use xlink:href="#mdcbb3d2685" x="265.713068" y="177.319219" style="stroke: #000000; stroke-width: 0.8"/>
      </g>
     </g>
     <g id="text_8">
      <text style="font: 10px 'DejaVu Sans', 'Bitstream Vera Sans', 'Computer Modern Sans Serif', 'Lucida Grande', 'Verdana', 'Geneva', 'Lucid', 'Arial', 'Helvetica', 'Avant Garde', sans-serif; text-anchor: middle" x="265.713068" y="191.917656" transform="rotate(-0 265.713068 191.917656)">35</text>
     </g>
    </g>
    <g id="xtick_9">
     <g id="line2d_9">
      <g>
       <use xlink:href="#mdcbb3d2685" x="297.417614" y="177.319219" style="stroke: #000000; stroke-width: 0.8"/>
      </g>
     </g>
     <g id="text_9">
      <text style="font: 10px 'DejaVu Sans', 'Bitstream Vera Sans', 'Computer Modern Sans Serif', 'Lucida Grande', 'Verdana', 'Geneva', 'Lucid', 'Arial', 'Helvetica', 'Avant Garde', sans-serif; text-anchor: middle" x="297.417614" y="191.917656" transform="rotate(-0 297.417614 191.917656)">40</text>
     </g>
    </g>
    <g id="text_10">
     <text style="font: 10px 'DejaVu Sans', 'Bitstream Vera Sans', 'Computer Modern Sans Serif', 'Lucida Grande', 'Verdana', 'Geneva', 'Lucid', 'Arial', 'Helvetica', 'Avant Garde', sans-serif; text-anchor: middle" x="183.28125" y="205.595781" transform="rotate(-0 183.28125 205.595781)"># embryos per sample</text>
    </g>
   </g>
   <g id="matplotlib.axis_2">
    <g id="ytick_1">
     <g id="line2d_10">
      <defs>
       <path id="m237609c5f7" d="M 0 0 
L -3.5 0 
" style="stroke: #000000; stroke-width: 0.8"/>
      </defs>
      <g>
       <use xlink:href="#m237609c5f7" x="43.78125" y="177.319219" style="stroke: #000000; stroke-width: 0.8"/>
      </g>
     </g>
     <g id="text_11">
      <text style="font: 10px 'DejaVu Sans', 'Bitstream Vera Sans', 'Computer Modern Sans Serif', 'Lucida Grande', 'Verdana', 'Geneva', 'Lucid', 'Arial', 'Helvetica', 'Avant Garde', sans-serif; text-anchor: end" x="36.78125" y="181.118438" transform="rotate(-0 36.78125 181.118438)">0.0</text>
     </g>
    </g>
    <g id="ytick_2">
     <g id="line2d_11">
      <g>
       <use xlink:href="#m237609c5f7" x="43.78125" y="144.055219" style="stroke: #000000; stroke-width: 0.8"/>
      </g>
     </g>
     <g id="text_12">
      <text style="font: 10px 'DejaVu Sans', 'Bitstream Vera Sans', 'Computer Modern Sans Serif', 'Lucida Grande', 'Verdana', 'Geneva', 'Lucid', 'Arial', 'Helvetica', 'Avant Garde', sans-serif; text-anchor: end" x="36.78125" y="147.854438" transform="rotate(-0 36.78125 147.854438)">0.2</text>
     </g>
    </g>
    <g id="ytick_3">
     <g id="line2d_12">
      <g>
       <use xlink:href="#m237609c5f7" x="43.78125" y="110.791219" style="stroke: #000000; stroke-width: 0.8"/>
      </g>
     </g>
     <g id="text_13">
      <text style="font: 10px 'DejaVu Sans', 'Bitstream Vera Sans', 'Computer Modern Sans Serif', 'Lucida Grande', 'Verdana', 'Geneva', 'Lucid', 'Arial', 'Helvetica', 'Avant Garde', sans-serif; text-anchor: end" x="36.78125" y="114.590438" transform="rotate(-0 36.78125 114.590438)">0.4</text>
     </g>
    </g>
    <g id="ytick_4">
     <g id="line2d_13">
      <g>
       <use xlink:href="#m237609c5f7" x="43.78125" y="77.527219" style="stroke: #000000; stroke-width: 0.8"/>
      </g>
     </g>
     <g id="text_14">
      <text style="font: 10px 'DejaVu Sans', 'Bitstream Vera Sans', 'Computer Modern Sans Serif', 'Lucida Grande', 'Verdana', 'Geneva', 'Lucid', 'Arial', 'Helvetica', 'Avant Garde', sans-serif; text-anchor: end" x="36.78125" y="81.326437" transform="rotate(-0 36.78125 81.326437)">0.6</text>
     </g>
    </g>
    <g id="ytick_5">
     <g id="line2d_14">
      <g>
       <use xlink:href="#m237609c5f7" x="43.78125" y="44.263219" style="stroke: #000000; stroke-width: 0.8"/>
      </g>
     </g>
     <g id="text_15">
      <text style="font: 10px 'DejaVu Sans', 'Bitstream Vera Sans', 'Computer Modern Sans Serif', 'Lucida Grande', 'Verdana', 'Geneva', 'Lucid', 'Arial', 'Helvetica', 'Avant Garde', sans-serif; text-anchor: end" x="36.78125" y="48.062438" transform="rotate(-0 36.78125 48.062438)">0.8</text>
     </g>
    </g>
    <g id="ytick_6">
     <g id="line2d_15">
      <g>
       <use xlink:href="#m237609c5f7" x="43.78125" y="10.999219" style="stroke: #000000; stroke-width: 0.8"/>
      </g>
     </g>
     <g id="text_16">
      <text style="font: 10px 'DejaVu Sans', 'Bitstream Vera Sans', 'Computer Modern Sans Serif', 'Lucida Grande', 'Verdana', 'Geneva', 'Lucid', 'Arial', 'Helvetica', 'Avant Garde', sans-serif; text-anchor: end" x="36.78125" y="14.798438" transform="rotate(-0 36.78125 14.798438)">1.0</text>
     </g>
    </g>
    <g id="text_17">
     <text style="font: 10px 'DejaVu Sans', 'Bitstream Vera Sans', 'Computer Modern Sans Serif', 'Lucida Grande', 'Verdana', 'Geneva', 'Lucid', 'Arial', 'Helvetica', 'Avant Garde', sans-serif; text-anchor: middle" x="14.798438" y="94.159219" transform="rotate(-90 14.798438 94.159219)">Detection accuracy</text>
    </g>
   </g>
   <g id="line2d_16">
    <path d="M 62.803977 177.319219 
L 69.144886 177.319219 
L 75.485795 64.221619 
L 81.826705 40.936819 
L 88.167614 17.652019 
L 94.508523 10.999219 
L 100.849432 12.662419 
L 107.190341 10.999219 
L 113.53125 10.999219 
L 119.872159 10.999219 
L 126.213068 10.999219 
L 132.553977 10.999219 
L 138.894886 10.999219 
L 145.235795 10.999219 
L 151.576705 10.999219 
L 157.917614 10.999219 
L 164.258523 10.999219 
L 170.599432 10.999219 
L 176.940341 10.999219 
L 183.28125 10.999219 
L 189.622159 10.999219 
L 195.963068 10.999219 
L 202.303977 10.999219 
L 208.644886 10.999219 
L 214.985795 10.999219 
L 221.326705 10.999219 
L 227.667614 10.999219 
L 234.008523 10.999219 
L 240.349432 10.999219 
L 246.690341 10.999219 
L 253.03125 10.999219 
L 259.372159 10.999219 
L 265.713068 10.999219 
L 272.053977 10.999219 
L 278.394886 10.999219 
L 284.735795 10.999219 
L 291.076705 10.999219 
L 297.417614 10.999219 
L 303.758523 10.999219 
L 310.099432 10.999219 
L 316.440341 10.999219 
L 322.78125 10.999219 
" clip-path="url(#p1606b647bc)" style="fill: none; stroke: #1f77b4; stroke-linecap: square"/>
   </g>
   <g id="line2d_17">
    <path d="M 62.803977 177.319219 
L 69.144886 177.319219 
L 75.485795 129.086419 
L 81.826705 134.076019 
L 88.167614 84.180019 
L 94.508523 64.221619 
L 100.849432 37.610419 
L 107.190341 12.662419 
L 113.53125 14.325619 
L 119.872159 12.662419 
L 126.213068 10.999219 
L 132.553977 10.999219 
" clip-path="url(#p1606b647bc)" style="fill: none; stroke: #ffbb78; stroke-linecap: square"/>
   </g>
   <g id="line2d_18">
    <path d="M 62.803977 177.319219 
L 69.144886 177.319219 
L 75.485795 170.666419 
L 81.826705 164.013619 
L 88.167614 149.044819 
L 94.508523 115.780819 
L 100.849432 107.464819 
L 107.190341 99.148819 
L 113.53125 64.221619 
L 119.872159 54.242419 
L 126.213068 49.252819 
L 132.553977 29.294419 
L 138.894886 19.315219 
L 145.235795 19.315219 
L 151.576705 15.988819 
L 157.917614 10.999219 
L 164.258523 10.999219 
L 170.599432 12.662419 
L 176.940341 10.999219 
L 183.28125 10.999219 
L 189.622159 10.999219 
L 195.963068 10.999219 
L 202.303977 10.999219 
L 208.644886 10.999219 
L 214.985795 10.999219 
L 221.326705 10.999219 
L 227.667614 10.999219 
L 234.008523 10.999219 
L 240.349432 10.999219 
L 246.690341 10.999219 
L 253.03125 10.999219 
L 259.372159 10.999219 
L 265.713068 10.999219 
L 272.053977 10.999219 
L 278.394886 10.999219 
L 284.735795 10.999219 
L 291.076705 10.999219 
L 297.417614 10.999219 
L 303.758523 10.999219 
L 310.099432 10.999219 
L 316.440341 10.999219 
L 322.78125 10.999219 
" clip-path="url(#p1606b647bc)" style="fill: none; stroke: #d62728; stroke-linecap: square"/>
   </g>
   <g id="line2d_19">
    <path d="M 62.803977 177.319219 
L 69.144886 177.319219 
L 75.485795 172.329619 
L 81.826705 175.656019 
L 88.167614 155.697619 
L 94.508523 160.687219 
L 100.849432 149.044819 
L 107.190341 135.739219 
L 113.53125 144.055219 
L 119.872159 112.454419 
L 126.213068 115.780819 
L 132.553977 95.822419 
L 138.894886 94.159219 
L 145.235795 69.211219 
L 151.576705 59.232019 
L 157.917614 70.874419 
L 164.258523 44.263219 
L 170.599432 45.926419 
L 176.940341 35.947219 
L 183.28125 29.294419 
L 189.622159 32.620819 
L 195.963068 25.968019 
L 202.303977 17.652019 
L 208.644886 12.662419 
L 214.985795 14.325619 
L 221.326705 14.325619 
L 227.667614 10.999219 
L 234.008523 10.999219 
L 240.349432 10.999219 
L 246.690341 10.999219 
L 253.03125 10.999219 
L 259.372159 10.999219 
L 265.713068 10.999219 
L 272.053977 10.999219 
L 278.394886 10.999219 
L 284.735795 10.999219 
L 291.076705 10.999219 
L 297.417614 10.999219 
L 303.758523 10.999219 
L 310.099432 10.999219 
L 316.440341 10.999219 
L 322.78125 10.999219 
" clip-path="url(#p1606b647bc)" style="fill: none; stroke: #8c564b; stroke-linecap: square"/>
   </g>
   <g id="line2d_20">
    <path d="M 62.803977 177.319219 
L 69.144886 177.319219 
L 75.485795 177.319219 
L 81.826705 175.656019 
L 88.167614 177.319219 
L 94.508523 175.656019 
L 100.849432 173.992819 
L 107.190341 175.656019 
L 113.53125 177.319219 
L 119.872159 169.003219 
L 126.213068 172.329619 
L 132.553977 167.340019 
L 138.894886 165.676819 
L 145.235795 167.340019 
L 151.576705 172.329619 
L 157.917614 160.687219 
L 164.258523 170.666419 
L 170.599432 162.350419 
L 176.940341 162.350419 
L 183.28125 159.024019 
L 189.622159 150.708019 
L 195.963068 144.055219 
L 202.303977 154.034419 
L 208.644886 144.055219 
L 214.985795 132.412819 
L 221.326705 119.107219 
L 227.667614 129.086419 
L 234.008523 114.117619 
L 240.349432 120.770419 
L 246.690341 122.433619 
L 253.03125 117.444019 
L 259.372159 99.148819 
L 265.713068 94.159219 
L 272.053977 75.864019 
L 278.394886 75.864019 
L 284.735795 67.548019 
L 291.076705 69.211219 
L 297.417614 47.589619 
L 303.758523 47.589619 
L 310.099432 45.926419 
L 316.440341 20.978419 
L 322.78125 15.988819 
" clip-path="url(#p1606b647bc)" style="fill: none; stroke: #f7b6d2; stroke-linecap: square"/>
   </g>
   <g id="line2d_21">
    <path d="M 62.803977 177.319219 
L 69.144886 177.319219 
L 75.485795 177.319219 
L 81.826705 177.319219 
L 88.167614 175.656019 
L 94.508523 177.319219 
L 100.849432 173.992819 
L 107.190341 173.992819 
L 113.53125 177.319219 
L 119.872159 175.656019 
L 126.213068 175.656019 
L 132.553977 169.003219 
L 138.894886 173.992819 
L 145.235795 165.676819 
L 151.576705 169.003219 
L 157.917614 169.003219 
L 164.258523 167.340019 
L 170.599432 164.013619 
L 176.940341 162.350419 
L 183.28125 169.003219 
L 189.622159 162.350419 
L 195.963068 157.360819 
L 202.303977 155.697619 
L 208.644886 149.044819 
L 214.985795 159.024019 
L 221.326705 152.371219 
L 227.667614 117.444019 
L 234.008523 132.412819 
L 240.349432 149.044819 
L 246.690341 130.749619 
L 253.03125 130.749619 
L 259.372159 134.076019 
L 265.713068 122.433619 
L 272.053977 122.433619 
L 278.394886 107.464819 
L 284.735795 92.496019 
L 291.076705 80.853619 
L 297.417614 79.190419 
L 303.758523 74.200819 
L 310.099432 37.610419 
L 316.440341 29.294419 
L 322.78125 10.999219 
" clip-path="url(#p1606b647bc)" style="fill: none; stroke: #bcbd22; stroke-linecap: square"/>
   </g>
   <g id="line2d_22">
    <path d="M 62.803977 177.319219 
L 69.144886 177.319219 
L 75.485795 175.656019 
L 81.826705 177.319219 
L 88.167614 177.319219 
L 94.508523 177.319219 
L 100.849432 175.656019 
L 107.190341 177.319219 
L 113.53125 177.319219 
L 119.872159 177.319219 
L 126.213068 177.319219 
L 132.553977 175.656019 
L 138.894886 175.656019 
L 145.235795 177.319219 
L 151.576705 175.656019 
L 157.917614 177.319219 
" clip-path="url(#p1606b647bc)" style="fill: none; stroke: #9edae5; stroke-linecap: square"/>
   </g>
   <g id="patch_3">
    <path d="M 43.78125 177.319219 
L 43.78125 10.999219 
" style="fill: none; stroke: #000000; stroke-width: 0.8; stroke-linejoin: miter; stroke-linecap: square"/>
   </g>
   <g id="patch_4">
    <path d="M 322.78125 177.319219 
L 322.78125 10.999219 
" style="fill: none; stroke: #000000; stroke-width: 0.8; stroke-linejoin: miter; stroke-linecap: square"/>
   </g>
   <g id="patch_5">
    <path d="M 43.78125 177.319219 
L 322.78125 177.319219 
" style="fill: none; stroke: #000000; stroke-width: 0.8; stroke-linejoin: miter; stroke-linecap: square"/>
   </g>
   <g id="patch_6">
    <path d="M 43.78125 10.999219 
L 322.78125 10.999219 
" style="fill: none; stroke: #000000; stroke-width: 0.8; stroke-linejoin: miter; stroke-linecap: square"/>
   </g>
   <g id="legend_1">
    <g id="patch_7">
     <path d="M 279.766978 174.424219 
L 318.72825 174.424219 
Q 319.88625 174.424219 319.88625 173.266219 
L 319.88625 114.354778 
Q 319.88625 113.196778 318.72825 113.196778 
L 279.766978 113.196778 
Q 278.608978 113.196778 278.608978 114.354778 
L 278.608978 173.266219 
Q 278.608978 174.424219 279.766978 174.424219 
z
" style="fill: #ffffff; opacity: 0.8; stroke: #cccccc; stroke-linejoin: miter"/>
    </g>
    <g id="line2d_23">
     <path d="M 280.924978 117.885773 
L 286.714978 117.885773 
L 292.504978 117.885773 
" style="fill: none; stroke: #1f77b4; stroke-linecap: square"/>
    </g>
    <g id="text_18">
     <text style="font: 5.79px 'DejaVu Sans', 'Bitstream Vera Sans', 'Computer Modern Sans Serif', 'Lucida Grande', 'Verdana', 'Geneva', 'Lucid', 'Arial', 'Helvetica', 'Avant Garde', sans-serif; text-anchor: start" x="297.136978" y="119.912273" transform="rotate(-0 297.136978 119.912273)">BMP</text>
    </g>
    <g id="line2d_24">
     <path d="M 280.924978 126.384408 
L 286.714978 126.384408 
L 292.504978 126.384408 
" style="fill: none; stroke: #ffbb78; stroke-linecap: square"/>
    </g>
    <g id="text_19">
     <text style="font: 5.79px 'DejaVu Sans', 'Bitstream Vera Sans', 'Computer Modern Sans Serif', 'Lucida Grande', 'Verdana', 'Geneva', 'Lucid', 'Arial', 'Helvetica', 'Avant Garde', sans-serif; text-anchor: start" x="297.136978" y="128.410908" transform="rotate(-0 297.136978 128.410908)">PCP</text>
    </g>
    <g id="line2d_25">
     <path d="M 280.924978 134.883042 
L 286.714978 134.883042 
L 292.504978 134.883042 
" style="fill: none; stroke: #d62728; stroke-linecap: square"/>
    </g>
    <g id="text_20">
     <text style="font: 5.79px 'DejaVu Sans', 'Bitstream Vera Sans', 'Computer Modern Sans Serif', 'Lucida Grande', 'Verdana', 'Geneva', 'Lucid', 'Arial', 'Helvetica', 'Avant Garde', sans-serif; text-anchor: start" x="297.136978" y="136.909542" transform="rotate(-0 297.136978 136.909542)">FGF</text>
    </g>
    <g id="line2d_26">
     <path d="M 280.924978 143.381677 
L 286.714978 143.381677 
L 292.504978 143.381677 
" style="fill: none; stroke: #8c564b; stroke-linecap: square"/>
    </g>
    <g id="text_21">
     <text style="font: 5.79px 'DejaVu Sans', 'Bitstream Vera Sans', 'Computer Modern Sans Serif', 'Lucida Grande', 'Verdana', 'Geneva', 'Lucid', 'Arial', 'Helvetica', 'Avant Garde', sans-serif; text-anchor: start" x="297.136978" y="145.408177" transform="rotate(-0 297.136978 145.408177)">SSH</text>
    </g>
    <g id="line2d_27">
     <path d="M 280.924978 151.880311 
L 286.714978 151.880311 
L 292.504978 151.880311 
" style="fill: none; stroke: #f7b6d2; stroke-linecap: square"/>
    </g>
    <g id="text_22">
     <text style="font: 5.79px 'DejaVu Sans', 'Bitstream Vera Sans', 'Computer Modern Sans Serif', 'Lucida Grande', 'Verdana', 'Geneva', 'Lucid', 'Arial', 'Helvetica', 'Avant Garde', sans-serif; text-anchor: start" x="297.136978" y="153.906811" transform="rotate(-0 297.136978 153.906811)">NODAL</text>
    </g>
    <g id="line2d_28">
     <path d="M 280.924978 160.378945 
L 286.714978 160.378945 
L 292.504978 160.378945 
" style="fill: none; stroke: #bcbd22; stroke-linecap: square"/>
    </g>
    <g id="text_23">
     <text style="font: 5.79px 'DejaVu Sans', 'Bitstream Vera Sans', 'Computer Modern Sans Serif', 'Lucida Grande', 'Verdana', 'Geneva', 'Lucid', 'Arial', 'Helvetica', 'Avant Garde', sans-serif; text-anchor: start" x="297.136978" y="162.405445" transform="rotate(-0 297.136978 162.405445)">RA</text>
    </g>
    <g id="line2d_29">
     <path d="M 280.924978 168.87758 
L 286.714978 168.87758 
L 292.504978 168.87758 
" style="fill: none; stroke: #9edae5; stroke-linecap: square"/>
    </g>
    <g id="text_24">
     <text style="font: 5.79px 'DejaVu Sans', 'Bitstream Vera Sans', 'Computer Modern Sans Serif', 'Lucida Grande', 'Verdana', 'Geneva', 'Lucid', 'Arial', 'Helvetica', 'Avant Garde', sans-serif; text-anchor: start" x="297.136978" y="170.90408" transform="rotate(-0 297.136978 170.90408)">WNT</text>
    </g>
   </g>
  </g>
 </g>
 <defs>
  <clipPath id="p1606b647bc">
   <rect x="43.78125" y="10.999219" width="279" height="166.32"/>
  </clipPath>
 </defs>
</svg>
