<?xml version="1.0" encoding="utf-8" standalone="no"?>
<!DOCTYPE svg PUBLIC "-//W3C//DTD SVG 1.1//EN"
  "http://www.w3.org/Graphics/SVG/1.1/DTD/svg11.dtd">
<svg xmlns:xlink="http://www.w3.org/1999/xlink" width="263.9775pt" height="260.709375pt" viewBox="0 0 263.9775 260.709375" xmlns="http://www.w3.org/2000/svg" version="1.1">
 <metadata>
  <rdf:RDF xmlns:dc="http://purl.org/dc/elements/1.1/" xmlns:cc="http://creativecommons.org/ns#" xmlns:rdf="http://www.w3.org/1999/02/22-rdf-syntax-ns#">
   <cc:Work>
    <dc:type rdf:resource="http://purl.org/dc/dcmitype/StillImage"/>
    <dc:date>2023-07-28T12:58:06.541117</dc:date>
    <dc:format>image/svg+xml</dc:format>
    <dc:creator>
     <cc:Agent>
      <dc:title>Matplotlib v3.7.0, https://matplotlib.org/</dc:title>
     </cc:Agent>
    </dc:creator>
   </cc:Work>
  </rdf:RDF>
 </metadata>
 <defs>
  <style type="text/css">*{stroke-linejoin: round; stroke-linecap: butt}</style>
 </defs>
 <g id="figure_1">
  <g id="patch_1">
   <path d="M 0 260.709375 
L 263.9775 260.709375 
L 263.9775 0 
L 0 0 
z
" style="fill: #ffffff"/>
  </g>
  <g id="axes_1">
   <g id="patch_2">
    <path d="M 33.5775 228.96 
L 256.7775 228.96 
L 256.7775 7.2 
L 33.5775 7.2 
z
" style="fill: #ffffff"/>
   </g>
   <g id="PolyCollection_1">
    <path d="M 42.5055 219.3504 
L 42.5055 213.4368 
L 43.07342 212.6976 
L 43.64134 210.48 
L 44.20926 210.8496 
L 44.77718 209.7408 
L 45.3451 209.7408 
L 45.91302 209.7408 
L 46.48094 209.0016 
L 47.04886 209.0016 
L 47.61678 208.2624 
L 48.1847 207.5232 
L 48.75262 207.5232 
L 49.32054 208.2624 
L 49.88846 206.0448 
L 50.45638 204.936 
L 51.0243 205.3056 
L 51.59222 205.3056 
L 52.16014 205.3056 
L 52.72806 205.3056 
L 53.29598 206.0448 
L 53.8639 203.8272 
L 54.43182 203.8272 
L 54.99974 203.8272 
L 55.56766 203.088 
L 56.13558 203.088 
L 56.7035 203.8272 
L 57.27142 203.8272 
L 57.83934 203.088 
L 58.40726 203.088 
L 58.97518 203.088 
L 59.5431 202.3488 
L 60.11102 201.6096 
L 60.67894 201.6096 
L 61.24686 200.8704 
L 61.81478 200.8704 
L 62.3827 201.6096 
L 62.95062 200.1312 
L 63.51854 200.1312 
L 64.08646 200.8704 
L 64.65438 200.8704 
L 65.2223 200.8704 
L 65.79022 200.8704 
L 66.35814 200.1312 
L 66.92606 199.392 
L 67.49398 199.392 
L 68.0619 197.9136 
L 68.62982 197.9136 
L 69.19774 197.1744 
L 69.76566 197.1744 
L 70.33358 194.9568 
L 70.9015 195.696 
L 71.46942 193.4784 
L 72.03734 192.3696 
L 72.60526 190.152 
L 73.17318 192.7392 
L 73.7411 190.5216 
L 74.30902 188.304 
L 74.87694 188.304 
L 75.44486 186.0864 
L 76.01278 186.0864 
L 76.5807 184.9776 
L 77.14862 183.1296 
L 77.71654 183.8688 
L 78.28446 186.8256 
L 78.85238 183.8688 
L 79.4203 182.3904 
L 79.98822 183.1296 
L 80.55614 182.3904 
L 81.12406 182.3904 
L 81.69198 182.3904 
L 82.2599 182.3904 
L 82.82782 182.3904 
L 83.39574 182.3904 
L 83.96366 183.1296 
L 84.53158 182.3904 
L 85.0995 183.1296 
L 85.66742 183.4992 
L 86.23534 183.1296 
L 86.80326 183.1296 
L 87.37118 183.8688 
L 87.9391 183.8688 
L 88.50702 183.1296 
L 89.07494 181.6512 
L 89.64286 181.6512 
L 90.21078 181.6512 
L 90.7787 180.912 
L 91.34662 181.6512 
L 91.91454 181.6512 
L 92.48246 181.6512 
L 93.05038 180.5424 
L 93.6183 181.6512 
L 94.18622 181.6512 
L 94.75414 178.6944 
L 95.32206 181.6512 
L 95.88998 180.912 
L 96.4579 178.6944 
L 97.02582 177.216 
L 97.59374 176.4768 
L 98.16166 177.9552 
L 98.72958 175.7376 
L 99.2975 175.7376 
L 99.86542 175.7376 
L 100.43334 174.2592 
L 101.00126 167.6064 
L 101.56918 167.6064 
L 102.1371 167.6064 
L 102.70502 165.3888 
L 103.27294 165.3888 
L 103.84086 165.3888 
L 104.40878 160.9536 
L 104.9767 160.2144 
L 105.54462 160.2144 
L 106.11254 160.2144 
L 106.68046 157.9968 
L 107.24838 157.2576 
L 107.8163 157.2576 
L 108.38422 157.2576 
L 108.95214 157.2576 
L 109.52006 157.9968 
L 110.08798 157.9968 
L 110.6559 158.736 
L 111.22382 158.3664 
L 111.79174 158.736 
L 112.35966 158.736 
L 112.92758 158.736 
L 113.4955 158.736 
L 114.06342 159.4752 
L 114.63134 157.9968 
L 115.19926 159.4752 
L 115.76718 159.4752 
L 116.3351 159.4752 
L 116.90302 159.4752 
L 117.47094 159.4752 
L 118.03886 158.3664 
L 118.60678 157.2576 
L 119.1747 159.4752 
L 119.74262 159.4752 
L 120.31054 156.1488 
L 120.87846 158.736 
L 121.44638 159.4752 
L 122.0143 155.04 
L 122.58222 157.2576 
L 123.15014 157.2576 
L 123.71806 157.2576 
L 124.28598 157.2576 
L 124.8539 158.736 
L 125.42182 157.9968 
L 125.98974 155.04 
L 126.55766 158.736 
L 127.12558 159.4752 
L 127.6935 160.2144 
L 128.26142 157.9968 
L 128.82934 159.4752 
L 129.39726 159.4752 
L 129.96518 160.2144 
L 130.5331 159.4752 
L 131.10102 160.2144 
L 131.66894 159.4752 
L 132.23686 159.4752 
L 132.80478 159.4752 
L 133.3727 160.2144 
L 133.94062 160.2144 
L 134.50854 160.9536 
L 135.07646 160.2144 
L 135.64438 160.9536 
L 136.2123 160.9536 
L 136.78022 160.9536 
L 137.34814 159.8448 
L 137.91606 160.9536 
L 138.48398 160.9536 
L 139.0519 160.9536 
L 139.61982 160.9536 
L 140.18774 160.2144 
L 140.75566 159.4752 
L 141.32358 159.4752 
L 141.8915 158.736 
L 142.45942 158.736 
L 143.02734 157.9968 
L 143.59526 159.8448 
L 144.16318 159.8448 
L 144.7311 159.4752 
L 145.29902 158.736 
L 145.86694 157.2576 
L 146.43486 157.2576 
L 147.00278 157.6272 
L 147.5707 153.5616 
L 148.13862 153.192 
L 148.70654 151.344 
L 149.27446 149.8656 
L 149.84238 148.3872 
L 150.4103 146.9088 
L 150.97822 147.648 
L 151.54614 137.2992 
L 152.11406 135.0816 
L 152.68198 132.4944 
L 153.2499 134.3424 
L 153.81782 119.5584 
L 154.38574 128.4288 
L 154.95366 120.2976 
L 155.52158 120.2976 
L 156.0895 120.2976 
L 156.65742 121.4064 
L 157.22534 123.9936 
L 157.79326 121.776 
L 158.36118 125.472 
L 158.9291 125.472 
L 159.49702 126.5808 
L 160.06494 125.472 
L 160.63286 126.5808 
L 161.20078 126.9504 
L 161.7687 126.9504 
L 162.33662 127.6896 
L 162.90454 127.6896 
L 163.47246 126.9504 
L 164.04038 128.0592 
L 164.6083 129.168 
L 165.17622 129.168 
L 165.74414 129.168 
L 166.31206 128.0592 
L 166.87998 124.7328 
L 167.4479 126.2112 
L 168.01582 125.472 
L 168.58374 123.2544 
L 169.15166 123.2544 
L 169.71958 126.2112 
L 170.2875 124.7328 
L 170.85542 126.2112 
L 171.42334 126.2112 
L 171.99126 124.7328 
L 172.55918 124.7328 
L 173.1271 126.2112 
L 173.69502 123.9936 
L 174.26294 126.2112 
L 174.83086 126.2112 
L 175.39878 125.472 
L 175.9667 126.2112 
L 176.53462 124.7328 
L 177.10254 125.472 
L 177.67046 126.2112 
L 178.23838 126.2112 
L 178.8063 123.9936 
L 179.37422 123.9936 
L 179.94214 123.9936 
L 180.51006 123.624 
L 181.07798 122.5152 
L 181.6459 122.5152 
L 182.21382 122.5152 
L 182.78174 122.5152 
L 183.34966 122.5152 
L 183.91758 122.5152 
L 184.4855 118.08 
L 185.05342 118.08 
L 185.62134 118.08 
L 186.18926 115.8624 
L 186.75718 115.8624 
L 187.3251 115.8624 
L 187.89302 115.8624 
L 188.46094 115.8624 
L 189.02886 113.6448 
L 189.59678 111.4272 
L 190.1647 112.536 
L 190.73262 111.4272 
L 191.30054 111.4272 
L 191.86846 111.4272 
L 192.43638 111.4272 
L 193.0043 105.5136 
L 193.57222 109.2096 
L 194.14014 105.5136 
L 194.70806 98.1216 
L 195.27598 101.0784 
L 195.8439 96.6432 
L 196.41182 99.9696 
L 196.97974 96.6432 
L 197.54766 93.3168 
L 198.11558 95.1648 
L 198.6835 92.208 
L 199.25142 89.9904 
L 199.81934 92.208 
L 200.38726 92.208 
L 200.95518 87.7728 
L 201.5231 89.9904 
L 202.09102 85.5552 
L 202.65894 74.0976 
L 203.22686 75.576 
L 203.79478 70.032 
L 204.3627 75.9456 
L 204.93062 72.9888 
L 205.49854 73.728 
L 206.06646 73.728 
L 206.63438 73.728 
L 207.2023 72.9888 
L 207.77022 73.3584 
L 208.33814 70.7712 
L 208.90606 72.2496 
L 209.47398 71.88 
L 210.0419 75.2064 
L 210.60982 71.1408 
L 211.17774 69.2928 
L 211.74566 72.2496 
L 212.31358 75.2064 
L 212.8815 74.8368 
L 213.44942 71.88 
L 214.01734 67.8144 
L 214.58526 67.8144 
L 215.15318 72.9888 
L 215.7211 68.184 
L 216.28902 72.6192 
L 216.85694 70.032 
L 217.42486 70.032 
L 217.99278 68.9232 
L 218.5607 63.3792 
L 219.12862 64.8576 
L 219.69654 67.0752 
L 220.26446 68.184 
L 220.83238 67.0752 
L 221.4003 64.1184 
L 221.96822 55.9872 
L 222.53614 55.9872 
L 223.10406 55.9872 
L 223.67198 58.2048 
L 224.2399 55.9872 
L 224.80782 55.9872 
L 225.37574 56.7264 
L 225.94366 58.2048 
L 226.51158 55.9872 
L 227.0795 58.2048 
L 227.64742 57.8352 
L 228.21534 56.3568 
L 228.78326 51.552 
L 229.35118 53.7696 
L 229.9191 52.2912 
L 230.48702 53.0304 
L 231.05494 53.4 
L 231.62286 54.5088 
L 232.19078 45.6384 
L 232.7587 49.704 
L 233.32662 55.9872 
L 233.89454 54.5088 
L 234.46246 53.4 
L 235.03038 47.856 
L 235.5983 50.8128 
L 236.16622 46.3776 
L 236.73414 46.7472 
L 237.30206 47.4864 
L 237.86998 48.9648 
L 238.4379 44.5296 
L 239.00582 47.1168 
L 239.57374 43.0512 
L 240.14166 41.9424 
L 240.70958 43.0512 
L 241.2775 47.4864 
L 241.84542 43.4208 
L 242.41334 44.8992 
L 242.98126 43.4208 
L 243.54918 44.8992 
L 244.1171 47.4864 
L 244.68502 48.5952 
L 245.25294 44.8992 
L 245.82086 43.4208 
L 246.38878 46.008 
L 246.9567 41.9424 
L 247.52462 44.8992 
L 248.09254 43.0512 
L 248.66046 43.4208 
L 249.22838 39.7248 
L 249.7963 41.2032 
L 250.36422 47.856 
L 250.93214 44.8992 
L 251.50006 42.6816 
L 252.06798 46.7472 
L 252.6359 45.2688 
L 253.20382 45.2688 
L 253.77174 49.3344 
L 254.33966 40.464 
L 254.90758 41.5728 
L 255.4755 44.16 
L 256.04342 42.6816 
L 256.61134 42.6816 
L 256.61134 84.0768 
L 256.61134 84.0768 
L 256.04342 84.0768 
L 255.4755 82.5984 
L 254.90758 84.4464 
L 254.33966 84.816 
L 253.77174 81.8592 
L 253.20382 88.1424 
L 252.6359 88.1424 
L 252.06798 89.6208 
L 251.50006 84.0768 
L 250.93214 92.208 
L 250.36422 92.208 
L 249.7963 88.512 
L 249.22838 89.9904 
L 248.66046 92.208 
L 248.09254 94.7952 
L 247.52462 95.1648 
L 246.9567 98.1216 
L 246.38878 94.7952 
L 245.82086 95.1648 
L 245.25294 98.1216 
L 244.68502 94.4256 
L 244.1171 94.7952 
L 243.54918 98.1216 
L 242.98126 99.6 
L 242.41334 98.1216 
L 241.84542 99.6 
L 241.2775 99.2304 
L 240.70958 100.7088 
L 240.14166 101.0784 
L 239.57374 100.7088 
L 239.00582 100.3392 
L 238.4379 100.7088 
L 237.86998 100.7088 
L 237.30206 105.144 
L 236.73414 104.4048 
L 236.16622 108.4704 
L 235.5983 104.0352 
L 235.03038 106.992 
L 234.46246 111.0576 
L 233.89454 110.688 
L 233.32662 106.2528 
L 232.7587 111.7968 
L 232.19078 110.688 
L 231.62286 110.688 
L 231.05494 111.0576 
L 230.48702 112.1664 
L 229.9191 112.9056 
L 229.35118 111.4272 
L 228.78326 113.6448 
L 228.21534 116.9712 
L 227.64742 115.4928 
L 227.0795 114.384 
L 226.51158 118.08 
L 225.94366 115.8624 
L 225.37574 115.8624 
L 224.80782 118.08 
L 224.2399 118.08 
L 223.67198 115.8624 
L 223.10406 118.08 
L 222.53614 118.08 
L 221.96822 118.08 
L 221.4003 117.3408 
L 220.83238 117.3408 
L 220.26446 116.9712 
L 219.69654 117.3408 
L 219.12862 118.08 
L 218.5607 122.5152 
L 217.99278 123.624 
L 217.42486 123.2544 
L 216.85694 123.2544 
L 216.28902 121.4064 
L 215.7211 125.8416 
L 215.15318 121.776 
L 214.58526 126.9504 
L 214.01734 126.9504 
L 213.44942 125.1024 
L 212.8815 120.6672 
L 212.31358 122.5152 
L 211.74566 125.472 
L 211.17774 131.3856 
L 210.60982 131.7552 
L 210.0419 131.3856 
L 209.47398 132.4944 
L 208.90606 134.3424 
L 208.33814 135.8208 
L 207.77022 135.4512 
L 207.2023 135.0816 
L 206.63438 135.8208 
L 206.06646 135.8208 
L 205.49854 135.8208 
L 204.93062 136.56 
L 204.3627 133.6032 
L 203.79478 140.9952 
L 203.22686 139.1472 
L 202.65894 142.104 
L 202.09102 141.7344 
L 201.5231 141.7344 
L 200.95518 143.952 
L 200.38726 139.5168 
L 199.81934 142.4736 
L 199.25142 143.2128 
L 198.6835 142.4736 
L 198.11558 139.5168 
L 197.54766 142.104 
L 196.97974 140.9952 
L 196.41182 139.8864 
L 195.8439 143.952 
L 195.27598 139.5168 
L 194.70806 142.4736 
L 194.14014 138.0384 
L 193.57222 138.7776 
L 193.0043 142.4736 
L 192.43638 140.9952 
L 191.86846 140.9952 
L 191.30054 140.9952 
L 190.73262 140.9952 
L 190.1647 140.6256 
L 189.59678 140.9952 
L 189.02886 140.256 
L 188.46094 139.5168 
L 187.89302 139.5168 
L 187.3251 139.5168 
L 186.75718 139.5168 
L 186.18926 139.5168 
L 185.62134 138.7776 
L 185.05342 138.7776 
L 184.4855 138.7776 
L 183.91758 137.2992 
L 183.34966 137.2992 
L 182.78174 137.2992 
L 182.21382 137.2992 
L 181.6459 137.2992 
L 181.07798 137.2992 
L 180.51006 136.9296 
L 179.94214 138.7776 
L 179.37422 141.7344 
L 178.8063 141.7344 
L 178.23838 140.9952 
L 177.67046 140.9952 
L 177.10254 141.7344 
L 176.53462 142.4736 
L 175.9667 140.9952 
L 175.39878 141.7344 
L 174.83086 140.9952 
L 174.26294 140.9952 
L 173.69502 143.2128 
L 173.1271 140.9952 
L 172.55918 142.4736 
L 171.99126 142.4736 
L 171.42334 140.9952 
L 170.85542 140.9952 
L 170.2875 142.4736 
L 169.71958 140.9952 
L 169.15166 143.952 
L 168.58374 143.952 
L 168.01582 143.2128 
L 167.4479 143.952 
L 166.87998 145.4304 
L 166.31206 144.3216 
L 165.74414 146.9088 
L 165.17622 143.952 
L 164.6083 146.9088 
L 164.04038 150.2352 
L 163.47246 150.6048 
L 162.90454 151.344 
L 162.33662 151.344 
L 161.7687 153.5616 
L 161.20078 153.5616 
L 160.63286 154.6704 
L 160.06494 157.9968 
L 159.49702 154.6704 
L 158.9291 157.9968 
L 158.36118 157.9968 
L 157.79326 166.128 
L 157.22534 159.4752 
L 156.65742 167.2368 
L 156.0895 170.5632 
L 155.52158 170.5632 
L 154.95366 173.52 
L 154.38574 190.5216 
L 153.81782 175.7376 
L 153.2499 183.1296 
L 152.68198 190.152 
L 152.11406 188.304 
L 151.54614 187.5648 
L 150.97822 177.216 
L 150.4103 179.4336 
L 149.84238 177.9552 
L 149.27446 176.4768 
L 148.70654 174.9984 
L 148.13862 175.368 
L 147.5707 174.2592 
L 147.00278 173.8896 
L 146.43486 174.9984 
L 145.86694 174.9984 
L 145.29902 174.9984 
L 144.7311 174.2592 
L 144.16318 173.1504 
L 143.59526 173.1504 
L 143.02734 172.7808 
L 142.45942 173.52 
L 141.8915 173.52 
L 141.32358 174.2592 
L 140.75566 174.2592 
L 140.18774 173.52 
L 139.61982 172.7808 
L 139.0519 172.7808 
L 138.48398 172.7808 
L 137.91606 172.7808 
L 137.34814 173.1504 
L 136.78022 172.7808 
L 136.2123 172.7808 
L 135.64438 172.7808 
L 135.07646 172.0416 
L 134.50854 172.7808 
L 133.94062 172.0416 
L 133.3727 172.0416 
L 132.80478 171.3024 
L 132.23686 171.3024 
L 131.66894 171.3024 
L 131.10102 172.0416 
L 130.5331 171.3024 
L 129.96518 172.0416 
L 129.39726 171.3024 
L 128.82934 171.3024 
L 128.26142 171.3024 
L 127.6935 172.0416 
L 127.12558 171.3024 
L 126.55766 172.0416 
L 125.98974 172.7808 
L 125.42182 172.7808 
L 124.8539 172.0416 
L 124.28598 172.0416 
L 123.71806 172.0416 
L 123.15014 172.0416 
L 122.58222 172.0416 
L 122.0143 172.7808 
L 121.44638 171.3024 
L 120.87846 170.5632 
L 120.31054 172.4112 
L 119.74262 171.3024 
L 119.1747 171.3024 
L 118.60678 172.0416 
L 118.03886 171.672 
L 117.47094 174.2592 
L 116.90302 174.2592 
L 116.3351 174.2592 
L 115.76718 174.2592 
L 115.19926 174.2592 
L 114.63134 175.7376 
L 114.06342 174.2592 
L 113.4955 176.4768 
L 112.92758 176.4768 
L 112.35966 176.4768 
L 111.79174 176.4768 
L 111.22382 177.5856 
L 110.6559 176.4768 
L 110.08798 178.6944 
L 109.52006 178.6944 
L 108.95214 180.912 
L 108.38422 180.912 
L 107.8163 180.912 
L 107.24838 183.8688 
L 106.68046 187.5648 
L 106.11254 192.7392 
L 105.54462 192.7392 
L 104.9767 192.7392 
L 104.40878 196.4352 
L 103.84086 194.9568 
L 103.27294 194.9568 
L 102.70502 194.9568 
L 102.1371 194.2176 
L 101.56918 194.2176 
L 101.00126 194.2176 
L 100.43334 192 
L 99.86542 193.4784 
L 99.2975 193.4784 
L 98.72958 193.4784 
L 98.16166 192.7392 
L 97.59374 194.2176 
L 97.02582 194.9568 
L 96.4579 196.4352 
L 95.88998 194.2176 
L 95.32206 193.4784 
L 94.75414 196.4352 
L 94.18622 193.4784 
L 93.6183 193.4784 
L 93.05038 195.3264 
L 92.48246 193.4784 
L 91.91454 193.4784 
L 91.34662 193.4784 
L 90.7787 195.696 
L 90.21078 196.4352 
L 89.64286 196.4352 
L 89.07494 196.4352 
L 88.50702 197.9136 
L 87.9391 198.6528 
L 87.37118 197.1744 
L 86.80326 200.8704 
L 86.23534 200.8704 
L 85.66742 199.7616 
L 85.0995 200.8704 
L 84.53158 203.088 
L 83.96366 200.8704 
L 83.39574 203.088 
L 82.82782 203.088 
L 82.2599 203.088 
L 81.69198 203.088 
L 81.12406 203.088 
L 80.55614 203.088 
L 79.98822 203.8272 
L 79.4203 203.088 
L 78.85238 204.5664 
L 78.28446 201.6096 
L 77.71654 204.5664 
L 77.14862 206.784 
L 76.5807 204.1968 
L 76.01278 206.784 
L 75.44486 206.784 
L 74.87694 206.0448 
L 74.30902 206.0448 
L 73.7411 205.3056 
L 73.17318 204.5664 
L 72.60526 206.4144 
L 72.03734 205.6752 
L 71.46942 205.3056 
L 70.9015 207.5232 
L 70.33358 206.784 
L 69.76566 206.0448 
L 69.19774 206.0448 
L 68.62982 206.784 
L 68.0619 206.784 
L 67.49398 205.3056 
L 66.92606 205.3056 
L 66.35814 206.0448 
L 65.79022 206.784 
L 65.2223 206.784 
L 64.65438 206.784 
L 64.08646 206.784 
L 63.51854 209.0016 
L 62.95062 209.0016 
L 62.3827 209.0016 
L 61.81478 209.7408 
L 61.24686 209.7408 
L 60.67894 209.0016 
L 60.11102 209.0016 
L 59.5431 208.2624 
L 58.97518 209.0016 
L 58.40726 209.0016 
L 57.83934 209.0016 
L 57.27142 209.7408 
L 56.7035 209.7408 
L 56.13558 211.9584 
L 55.56766 211.9584 
L 54.99974 212.6976 
L 54.43182 212.6976 
L 53.8639 212.6976 
L 53.29598 211.9584 
L 52.72806 214.176 
L 52.16014 214.176 
L 51.59222 214.176 
L 51.0243 214.176 
L 50.45638 215.2848 
L 49.88846 214.9152 
L 49.32054 214.176 
L 48.75262 216.3936 
L 48.1847 216.3936 
L 47.61678 217.1328 
L 47.04886 217.872 
L 46.48094 217.872 
L 45.91302 218.6112 
L 45.3451 218.6112 
L 44.77718 218.6112 
L 44.20926 218.2416 
L 43.64134 219.3504 
L 43.07342 218.6112 
L 42.5055 219.3504 
z
" clip-path="url(#pa99e3db1fe)" style="fill: #2c728e; fill-opacity: 0.3"/>
   </g>
   <g id="matplotlib.axis_1">
    <g id="xtick_1">
     <g id="line2d_1">
      <defs>
       <path id="mfd70e89170" d="M 0 0 
L 0 3.5 
" style="stroke: #000000; stroke-width: 0.8"/>
      </defs>
      <g>
       <use xlink:href="#mfd70e89170" x="33.5775" y="228.96" style="stroke: #000000; stroke-width: 0.8"/>
      </g>
     </g>
     <g id="text_1">
      <text style="font: 6px 'DejaVu Sans', 'Bitstream Vera Sans', 'Computer Modern Sans Serif', 'Lucida Grande', 'Verdana', 'Geneva', 'Lucid', 'Arial', 'Helvetica', 'Avant Garde', sans-serif; text-anchor: middle" x="33.5775" y="240.519062" transform="rotate(-0 33.5775 240.519062)">0</text>
     </g>
    </g>
    <g id="xtick_2">
     <g id="line2d_2">
      <g>
       <use xlink:href="#mfd70e89170" x="69.2895" y="228.96" style="stroke: #000000; stroke-width: 0.8"/>
      </g>
     </g>
     <g id="text_2">
      <text style="font: 6px 'DejaVu Sans', 'Bitstream Vera Sans', 'Computer Modern Sans Serif', 'Lucida Grande', 'Verdana', 'Geneva', 'Lucid', 'Arial', 'Helvetica', 'Avant Garde', sans-serif; text-anchor: middle" x="69.2895" y="240.519062" transform="rotate(-0 69.2895 240.519062)">4</text>
     </g>
    </g>
    <g id="xtick_3">
     <g id="line2d_3">
      <g>
       <use xlink:href="#mfd70e89170" x="105.0015" y="228.96" style="stroke: #000000; stroke-width: 0.8"/>
      </g>
     </g>
     <g id="text_3">
      <text style="font: 6px 'DejaVu Sans', 'Bitstream Vera Sans', 'Computer Modern Sans Serif', 'Lucida Grande', 'Verdana', 'Geneva', 'Lucid', 'Arial', 'Helvetica', 'Avant Garde', sans-serif; text-anchor: middle" x="105.0015" y="240.519062" transform="rotate(-0 105.0015 240.519062)">8</text>
     </g>
    </g>
    <g id="xtick_4">
     <g id="line2d_4">
      <g>
       <use xlink:href="#mfd70e89170" x="140.7135" y="228.96" style="stroke: #000000; stroke-width: 0.8"/>
      </g>
     </g>
     <g id="text_4">
      <text style="font: 6px 'DejaVu Sans', 'Bitstream Vera Sans', 'Computer Modern Sans Serif', 'Lucida Grande', 'Verdana', 'Geneva', 'Lucid', 'Arial', 'Helvetica', 'Avant Garde', sans-serif; text-anchor: middle" x="140.7135" y="240.519062" transform="rotate(-0 140.7135 240.519062)">12</text>
     </g>
    </g>
    <g id="xtick_5">
     <g id="line2d_5">
      <g>
       <use xlink:href="#mfd70e89170" x="176.4255" y="228.96" style="stroke: #000000; stroke-width: 0.8"/>
      </g>
     </g>
     <g id="text_5">
      <text style="font: 6px 'DejaVu Sans', 'Bitstream Vera Sans', 'Computer Modern Sans Serif', 'Lucida Grande', 'Verdana', 'Geneva', 'Lucid', 'Arial', 'Helvetica', 'Avant Garde', sans-serif; text-anchor: middle" x="176.4255" y="240.519062" transform="rotate(-0 176.4255 240.519062)">16</text>
     </g>
    </g>
    <g id="xtick_6">
     <g id="line2d_6">
      <g>
       <use xlink:href="#mfd70e89170" x="212.1375" y="228.96" style="stroke: #000000; stroke-width: 0.8"/>
      </g>
     </g>
     <g id="text_6">
      <text style="font: 6px 'DejaVu Sans', 'Bitstream Vera Sans', 'Computer Modern Sans Serif', 'Lucida Grande', 'Verdana', 'Geneva', 'Lucid', 'Arial', 'Helvetica', 'Avant Garde', sans-serif; text-anchor: middle" x="212.1375" y="240.519062" transform="rotate(-0 212.1375 240.519062)">20</text>
     </g>
    </g>
    <g id="xtick_7">
     <g id="line2d_7">
      <g>
       <use xlink:href="#mfd70e89170" x="247.8495" y="228.96" style="stroke: #000000; stroke-width: 0.8"/>
      </g>
     </g>
     <g id="text_7">
      <text style="font: 6px 'DejaVu Sans', 'Bitstream Vera Sans', 'Computer Modern Sans Serif', 'Lucida Grande', 'Verdana', 'Geneva', 'Lucid', 'Arial', 'Helvetica', 'Avant Garde', sans-serif; text-anchor: middle" x="247.8495" y="240.519062" transform="rotate(-0 247.8495 240.519062)">24</text>
     </g>
    </g>
    <g id="text_8">
     <text style="font: 8px 'DejaVu Sans', 'Bitstream Vera Sans', 'Computer Modern Sans Serif', 'Lucida Grande', 'Verdana', 'Geneva', 'Lucid', 'Arial', 'Helvetica', 'Avant Garde', sans-serif; text-anchor: middle" x="145.1775" y="251.845625" transform="rotate(-0 145.1775 251.845625)">Experimental time (hpf)</text>
    </g>
   </g>
   <g id="matplotlib.axis_2">
    <g id="ytick_1">
     <g id="line2d_8">
      <defs>
       <path id="m177d1d22ff" d="M 0 0 
L -3.5 0 
" style="stroke: #000000; stroke-width: 0.8"/>
      </defs>
      <g>
       <use xlink:href="#m177d1d22ff" x="33.5775" y="228.96" style="stroke: #000000; stroke-width: 0.8"/>
      </g>
     </g>
     <g id="text_9">
      <text style="font: 6px 'DejaVu Sans', 'Bitstream Vera Sans', 'Computer Modern Sans Serif', 'Lucida Grande', 'Verdana', 'Geneva', 'Lucid', 'Arial', 'Helvetica', 'Avant Garde', sans-serif; text-anchor: end" x="26.5775" y="231.239531" transform="rotate(-0 26.5775 231.239531)">0</text>
     </g>
    </g>
    <g id="ytick_2">
     <g id="line2d_9">
      <g>
       <use xlink:href="#m177d1d22ff" x="33.5775" y="193.4784" style="stroke: #000000; stroke-width: 0.8"/>
      </g>
     </g>
     <g id="text_10">
      <text style="font: 6px 'DejaVu Sans', 'Bitstream Vera Sans', 'Computer Modern Sans Serif', 'Lucida Grande', 'Verdana', 'Geneva', 'Lucid', 'Arial', 'Helvetica', 'Avant Garde', sans-serif; text-anchor: end" x="26.5775" y="195.757931" transform="rotate(-0 26.5775 195.757931)">4</text>
     </g>
    </g>
    <g id="ytick_3">
     <g id="line2d_10">
      <g>
       <use xlink:href="#m177d1d22ff" x="33.5775" y="157.9968" style="stroke: #000000; stroke-width: 0.8"/>
      </g>
     </g>
     <g id="text_11">
      <text style="font: 6px 'DejaVu Sans', 'Bitstream Vera Sans', 'Computer Modern Sans Serif', 'Lucida Grande', 'Verdana', 'Geneva', 'Lucid', 'Arial', 'Helvetica', 'Avant Garde', sans-serif; text-anchor: end" x="26.5775" y="160.276331" transform="rotate(-0 26.5775 160.276331)">8</text>
     </g>
    </g>
    <g id="ytick_4">
     <g id="line2d_11">
      <g>
       <use xlink:href="#m177d1d22ff" x="33.5775" y="122.5152" style="stroke: #000000; stroke-width: 0.8"/>
      </g>
     </g>
     <g id="text_12">
      <text style="font: 6px 'DejaVu Sans', 'Bitstream Vera Sans', 'Computer Modern Sans Serif', 'Lucida Grande', 'Verdana', 'Geneva', 'Lucid', 'Arial', 'Helvetica', 'Avant Garde', sans-serif; text-anchor: end" x="26.5775" y="124.794731" transform="rotate(-0 26.5775 124.794731)">12</text>
     </g>
    </g>
    <g id="ytick_5">
     <g id="line2d_12">
      <g>
       <use xlink:href="#m177d1d22ff" x="33.5775" y="87.0336" style="stroke: #000000; stroke-width: 0.8"/>
      </g>
     </g>
     <g id="text_13">
      <text style="font: 6px 'DejaVu Sans', 'Bitstream Vera Sans', 'Computer Modern Sans Serif', 'Lucida Grande', 'Verdana', 'Geneva', 'Lucid', 'Arial', 'Helvetica', 'Avant Garde', sans-serif; text-anchor: end" x="26.5775" y="89.313131" transform="rotate(-0 26.5775 89.313131)">16</text>
     </g>
    </g>
    <g id="ytick_6">
     <g id="line2d_13">
      <g>
       <use xlink:href="#m177d1d22ff" x="33.5775" y="51.552" style="stroke: #000000; stroke-width: 0.8"/>
      </g>
     </g>
     <g id="text_14">
      <text style="font: 6px 'DejaVu Sans', 'Bitstream Vera Sans', 'Computer Modern Sans Serif', 'Lucida Grande', 'Verdana', 'Geneva', 'Lucid', 'Arial', 'Helvetica', 'Avant Garde', sans-serif; text-anchor: end" x="26.5775" y="53.831531" transform="rotate(-0 26.5775 53.831531)">20</text>
     </g>
    </g>
    <g id="ytick_7">
     <g id="line2d_14">
      <g>
       <use xlink:href="#m177d1d22ff" x="33.5775" y="16.0704" style="stroke: #000000; stroke-width: 0.8"/>
      </g>
     </g>
     <g id="text_15">
      <text style="font: 6px 'DejaVu Sans', 'Bitstream Vera Sans', 'Computer Modern Sans Serif', 'Lucida Grande', 'Verdana', 'Geneva', 'Lucid', 'Arial', 'Helvetica', 'Avant Garde', sans-serif; text-anchor: end" x="26.5775" y="18.349931" transform="rotate(-0 26.5775 18.349931)">24</text>
     </g>
    </g>
    <g id="text_16">
     <text style="font: 8px 'DejaVu Sans', 'Bitstream Vera Sans', 'Computer Modern Sans Serif', 'Lucida Grande', 'Verdana', 'Geneva', 'Lucid', 'Arial', 'Helvetica', 'Avant Garde', sans-serif; text-anchor: middle" x="13.27875" y="118.08" transform="rotate(-90 13.27875 118.08)">Developmental age (hpf)</text>
    </g>
   </g>
   <g id="line2d_15">
    <path d="M 42.5055 220.0896 
L 256.7775 71.830698 
L 256.7775 71.830698 
" clip-path="url(#pa99e3db1fe)" style="fill: none; stroke: #2c728e; stroke-linecap: square"/>
   </g>
   <g id="line2d_16">
    <path d="M 42.5055 220.0896 
L 256.7775 75.361602 
L 256.7775 75.361602 
" clip-path="url(#pa99e3db1fe)" style="fill: none; stroke-dasharray: 3.7,1.6; stroke-dashoffset: 0; stroke: #2c728e"/>
   </g>
   <g id="line2d_17">
    <path d="M 42.5055 220.0896 
L 256.7775 67.554609 
L 256.7775 67.554609 
" clip-path="url(#pa99e3db1fe)" style="fill: none; stroke-dasharray: 3.7,1.6; stroke-dashoffset: 0; stroke: #2c728e"/>
   </g>
   <g id="patch_3">
    <path d="M 33.5775 228.96 
L 33.5775 7.2 
" style="fill: none; stroke: #000000; stroke-width: 0.8; stroke-linejoin: miter; stroke-linecap: square"/>
   </g>
   <g id="patch_4">
    <path d="M 33.5775 228.96 
L 256.7775 228.96 
" style="fill: none; stroke: #000000; stroke-width: 0.8; stroke-linejoin: miter; stroke-linecap: square"/>
   </g>
   <g id="legend_1">
    <g id="patch_5">
     <path d="M 93.656011 28.829269 
L 252.7245 28.829269 
Q 253.8825 28.829269 253.8825 27.671269 
L 253.8825 11.253 
Q 253.8825 10.095 252.7245 10.095 
L 93.656011 10.095 
Q 92.498011 10.095 92.498011 11.253 
L 92.498011 27.671269 
Q 92.498011 28.829269 93.656011 28.829269 
z
" style="fill: #ffffff; opacity: 0.8; stroke: #cccccc; stroke-linejoin: miter"/>
    </g>
    <g id="line2d_18">
     <path d="M 94.814011 14.783995 
L 100.604011 14.783995 
L 106.394011 14.783995 
" style="fill: none; stroke: #2c728e; stroke-linecap: square"/>
    </g>
    <g id="text_17">
     <text style="font: 5.79px 'DejaVu Sans', 'Bitstream Vera Sans', 'Computer Modern Sans Serif', 'Lucida Grande', 'Verdana', 'Geneva', 'Lucid', 'Arial', 'Helvetica', 'Avant Garde', sans-serif; text-anchor: start" x="111.026011" y="16.810495" transform="rotate(-0 111.026011 16.810495)">Linear fit: slope=0.696 [0.680,0.716], R2=0.968</text>
    </g>
    <g id="patch_6">
     <path d="M 94.814011 25.30913 
L 106.394011 25.30913 
L 106.394011 21.25613 
L 94.814011 21.25613 
z
" style="fill: #2c728e; fill-opacity: 0.3"/>
    </g>
    <g id="text_18">
     <text style="font: 5.79px 'DejaVu Sans', 'Bitstream Vera Sans', 'Computer Modern Sans Serif', 'Lucida Grande', 'Verdana', 'Geneva', 'Lucid', 'Arial', 'Helvetica', 'Avant Garde', sans-serif; text-anchor: start" x="111.026011" y="25.30913" transform="rotate(-0 111.026011 25.30913)">Median:25.0C</text>
    </g>
   </g>
  </g>
 </g>
 <defs>
  <clipPath id="pa99e3db1fe">
   <rect x="33.5775" y="7.2" width="223.2" height="221.76"/>
  </clipPath>
 </defs>
</svg>
