<?xml version="1.0" encoding="utf-8" standalone="no"?>
<!DOCTYPE svg PUBLIC "-//W3C//DTD SVG 1.1//EN"
  "http://www.w3.org/Graphics/SVG/1.1/DTD/svg11.dtd">
<svg xmlns:xlink="http://www.w3.org/1999/xlink" width="263.9775pt" height="260.709375pt" viewBox="0 0 263.9775 260.709375" xmlns="http://www.w3.org/2000/svg" version="1.1">
 <metadata>
  <rdf:RDF xmlns:dc="http://purl.org/dc/elements/1.1/" xmlns:cc="http://creativecommons.org/ns#" xmlns:rdf="http://www.w3.org/1999/02/22-rdf-syntax-ns#">
   <cc:Work>
    <dc:type rdf:resource="http://purl.org/dc/dcmitype/StillImage"/>
    <dc:date>2023-07-28T13:00:36.060864</dc:date>
    <dc:format>image/svg+xml</dc:format>
    <dc:creator>
     <cc:Agent>
      <dc:title>Matplotlib v3.7.0, https://matplotlib.org/</dc:title>
     </cc:Agent>
    </dc:creator>
   </cc:Work>
  </rdf:RDF>
 </metadata>
 <defs>
  <style type="text/css">*{stroke-linejoin: round; stroke-linecap: butt}</style>
 </defs>
 <g id="figure_1">
  <g id="patch_1">
   <path d="M 0 260.709375 
L 263.9775 260.709375 
L 263.9775 0 
L 0 0 
z
" style="fill: #ffffff"/>
  </g>
  <g id="axes_1">
   <g id="patch_2">
    <path d="M 33.5775 228.96 
L 256.7775 228.96 
L 256.7775 7.2 
L 33.5775 7.2 
z
" style="fill: #ffffff"/>
   </g>
   <g id="PolyCollection_1">
    <path d="M 40.2735 219.3504 
L 40.2735 216.3936 
L 40.8563 216.3936 
L 41.4391 215.6544 
L 42.0219 215.6544 
L 42.6047 213.4368 
L 43.1875 213.4368 
L 43.7703 214.176 
L 44.3531 214.176 
L 44.9359 211.9584 
L 45.5187 211.9584 
L 46.1015 211.2192 
L 46.6843 210.48 
L 47.2671 210.48 
L 47.8499 209.7408 
L 48.4327 209.7408 
L 49.0155 209.7408 
L 49.5983 209.0016 
L 50.1811 208.2624 
L 50.7639 207.5232 
L 51.3467 207.5232 
L 51.9295 205.3056 
L 52.5123 206.0448 
L 53.0951 206.0448 
L 53.6779 203.8272 
L 54.2607 204.5664 
L 54.8435 204.5664 
L 55.4263 203.8272 
L 56.0091 203.088 
L 56.5919 203.088 
L 57.1747 202.3488 
L 57.7575 200.8704 
L 58.3403 201.6096 
L 58.9231 201.6096 
L 59.5059 199.392 
L 60.0887 200.1312 
L 60.6715 198.6528 
L 61.2543 197.9136 
L 61.8371 197.9136 
L 62.4199 196.4352 
L 63.0027 196.4352 
L 63.5855 195.696 
L 64.1683 193.4784 
L 64.7511 191.2608 
L 65.3339 189.7824 
L 65.9167 189.0432 
L 66.4995 188.304 
L 67.0823 186.0864 
L 67.6651 185.3472 
L 68.2479 183.8688 
L 68.8307 185.3472 
L 69.4135 184.608 
L 69.9963 182.3904 
L 70.5791 183.1296 
L 71.1619 183.1296 
L 71.7447 183.1296 
L 72.3275 183.1296 
L 72.9103 183.1296 
L 73.4931 183.1296 
L 74.0759 182.3904 
L 74.6587 183.1296 
L 75.2415 180.912 
L 75.8243 183.8688 
L 76.4071 183.8688 
L 76.9899 183.8688 
L 77.5727 183.8688 
L 78.1555 183.8688 
L 78.7383 183.8688 
L 79.3211 182.3904 
L 79.9039 183.1296 
L 80.4867 183.1296 
L 81.0695 182.3904 
L 81.6523 180.1728 
L 82.2351 180.1728 
L 82.8179 180.1728 
L 83.4007 180.912 
L 83.9835 180.1728 
L 84.5663 178.6944 
L 85.1491 178.6944 
L 85.7319 178.6944 
L 86.3147 178.6944 
L 86.8975 177.9552 
L 87.4803 178.6944 
L 88.0631 176.4768 
L 88.6459 176.4768 
L 89.2287 175.7376 
L 89.8115 174.9984 
L 90.3943 172.0416 
L 90.9771 172.0416 
L 91.5599 171.3024 
L 92.1427 169.0848 
L 92.7255 169.824 
L 93.3083 167.6064 
L 93.8911 167.6064 
L 94.4739 165.3888 
L 95.0567 165.3888 
L 95.6395 166.8672 
L 96.2223 163.9104 
L 96.8051 165.3888 
L 97.3879 166.128 
L 97.9707 165.3888 
L 98.5535 165.3888 
L 99.1363 164.6496 
L 99.7191 164.6496 
L 100.3019 164.6496 
L 100.8847 163.9104 
L 101.4675 163.9104 
L 102.0503 161.6928 
L 102.6331 160.9536 
L 103.2159 160.9536 
L 103.7987 160.9536 
L 104.3815 160.2144 
L 104.9643 159.4752 
L 105.5471 159.4752 
L 106.1299 159.4752 
L 106.7127 157.9968 
L 107.2955 157.9968 
L 107.8783 157.9968 
L 108.4611 157.9968 
L 109.0439 158.736 
L 109.6267 157.2576 
L 110.2095 157.2576 
L 110.7923 156.5184 
L 111.3751 156.5184 
L 111.9579 156.5184 
L 112.5407 156.5184 
L 113.1235 155.04 
L 113.7063 156.5184 
L 114.2891 155.04 
L 114.8719 155.04 
L 115.4547 152.8224 
L 116.0375 152.8224 
L 116.6203 152.0832 
L 117.2031 153.5616 
L 117.7859 150.6048 
L 118.3687 152.0832 
L 118.9515 152.0832 
L 119.5343 149.8656 
L 120.1171 149.8656 
L 120.6999 150.6048 
L 121.2827 147.648 
L 121.8655 148.3872 
L 122.4483 146.9088 
L 123.0311 149.1264 
L 123.6139 146.9088 
L 124.1967 147.648 
L 124.7795 145.4304 
L 125.3623 143.952 
L 125.9451 147.648 
L 126.5279 143.952 
L 127.1107 147.648 
L 127.6935 144.6912 
L 128.2763 141.7344 
L 128.8591 142.4736 
L 129.4419 142.4736 
L 130.0247 135.0816 
L 130.6075 126.9504 
L 131.1903 124.7328 
L 131.7731 127.6896 
L 132.3559 123.2544 
L 132.9387 126.9504 
L 133.5215 128.4288 
L 134.1043 127.6896 
L 134.6871 129.168 
L 135.2699 129.9072 
L 135.8527 128.4288 
L 136.4355 128.4288 
L 137.0183 129.9072 
L 137.6011 131.3856 
L 138.1839 129.9072 
L 138.7667 130.6464 
L 139.3495 129.9072 
L 139.9323 129.168 
L 140.5151 127.6896 
L 141.0979 129.168 
L 141.6807 129.168 
L 142.2635 127.6896 
L 142.8463 126.2112 
L 143.4291 129.168 
L 144.0119 127.6896 
L 144.5947 127.6896 
L 145.1775 127.6896 
L 145.7603 126.9504 
L 146.3431 126.9504 
L 146.9259 126.9504 
L 147.5087 125.472 
L 148.0915 124.7328 
L 148.6743 124.7328 
L 149.2571 124.7328 
L 149.8399 123.9936 
L 150.4227 122.5152 
L 151.0055 123.9936 
L 151.5883 123.2544 
L 152.1711 123.9936 
L 152.7539 123.9936 
L 153.3367 121.776 
L 153.9195 121.776 
L 154.5023 121.0368 
L 155.0851 121.0368 
L 155.6679 118.8192 
L 156.2507 118.8192 
L 156.8335 116.6016 
L 157.4163 115.8624 
L 157.9991 113.6448 
L 158.5819 114.384 
L 159.1647 113.6448 
L 159.7475 113.6448 
L 160.3303 112.1664 
L 160.9131 111.4272 
L 161.4959 112.1664 
L 162.0787 111.4272 
L 162.6615 109.9488 
L 163.2443 111.4272 
L 163.8271 106.992 
L 164.4099 108.4704 
L 164.9927 106.992 
L 165.5755 106.992 
L 166.1583 105.5136 
L 166.7411 104.7744 
L 167.3239 105.5136 
L 167.9067 104.0352 
L 168.4895 101.8176 
L 169.0723 101.8176 
L 169.6551 98.8608 
L 170.2379 98.1216 
L 170.8207 97.3824 
L 171.4035 97.3824 
L 171.9863 93.6864 
L 172.5691 93.6864 
L 173.1519 95.1648 
L 173.7347 95.1648 
L 174.3175 95.1648 
L 174.9003 95.1648 
L 175.4831 95.1648 
L 176.0659 95.904 
L 176.6487 94.4256 
L 177.2315 94.4256 
L 177.8143 93.6864 
L 178.3971 93.6864 
L 178.9799 94.4256 
L 179.5627 92.9472 
L 180.1455 92.208 
L 180.7283 93.6864 
L 181.3111 93.6864 
L 181.8939 90.7296 
L 182.4767 91.4688 
L 183.0595 91.4688 
L 183.6423 91.4688 
L 184.2251 88.512 
L 184.8079 87.7728 
L 185.3907 87.7728 
L 185.9735 89.2512 
L 186.5563 87.0336 
L 187.1391 85.5552 
L 187.7219 86.2944 
L 188.3047 87.0336 
L 188.8875 85.5552 
L 189.4703 85.5552 
L 190.0531 85.5552 
L 190.6359 86.2944 
L 191.2187 86.2944 
L 191.8015 87.7728 
L 192.3843 84.816 
L 192.9671 82.5984 
L 193.5499 81.12 
L 194.1327 79.6416 
L 194.7155 79.6416 
L 195.2983 78.1632 
L 195.8811 78.9024 
L 196.4639 78.1632 
L 197.0467 76.6848 
L 197.6295 75.2064 
L 198.2123 75.9456 
L 198.7951 76.6848 
L 199.3779 73.728 
L 199.9607 70.032 
L 200.5435 68.5536 
L 201.1263 68.5536 
L 201.7091 66.336 
L 202.2919 65.5968 
L 202.8747 67.0752 
L 203.4575 65.5968 
L 204.0403 66.336 
L 204.6231 64.8576 
L 205.2059 64.8576 
L 205.7887 61.1616 
L 206.3715 62.64 
L 206.9543 62.64 
L 207.5371 58.2048 
L 208.1199 59.6832 
L 208.7027 59.6832 
L 209.2855 58.944 
L 209.8683 56.7264 
L 210.4511 58.2048 
L 211.0339 58.2048 
L 211.6167 57.4656 
L 212.1995 53.7696 
L 212.7823 55.248 
L 213.3651 53.7696 
L 213.9479 55.248 
L 214.5307 52.2912 
L 215.1135 51.552 
L 215.6963 50.8128 
L 216.2791 53.7696 
L 216.8619 54.5088 
L 217.4447 53.7696 
L 218.0275 49.3344 
L 218.6103 52.2912 
L 219.1931 49.3344 
L 219.7759 48.5952 
L 220.3587 47.1168 
L 220.9415 47.1168 
L 221.5243 44.8992 
L 222.1071 47.1168 
L 222.6899 46.3776 
L 223.2727 47.1168 
L 223.8555 44.16 
L 224.4383 44.8992 
L 225.0211 41.9424 
L 225.6039 47.1168 
L 226.1867 41.2032 
L 226.7695 42.6816 
L 227.3523 41.2032 
L 227.9351 44.16 
L 228.5179 41.2032 
L 229.1007 41.9424 
L 229.6835 39.7248 
L 230.2663 38.2464 
L 230.8491 38.9856 
L 231.4319 38.9856 
L 232.0147 36.768 
L 232.5975 37.5072 
L 233.1803 38.2464 
L 233.7631 39.7248 
L 234.3459 38.2464 
L 234.9287 39.7248 
L 235.5115 36.0288 
L 236.0943 37.5072 
L 236.6771 38.2464 
L 237.2599 38.9856 
L 237.8427 38.2464 
L 238.4255 36.0288 
L 239.0083 34.5504 
L 239.5911 34.5504 
L 240.1739 32.3328 
L 240.7567 33.8112 
L 241.3395 36.0288 
L 241.9223 29.376 
L 242.5051 32.3328 
L 243.0879 30.8544 
L 243.6707 30.8544 
L 244.2535 30.8544 
L 244.8363 31.5936 
L 245.4191 30.1152 
L 246.0019 27.1584 
L 246.5847 27.1584 
L 247.1675 25.68 
L 247.7503 28.6368 
L 248.3331 27.1584 
L 248.3331 62.64 
L 248.3331 62.64 
L 247.7503 70.032 
L 247.1675 64.1184 
L 246.5847 65.5968 
L 246.0019 65.5968 
L 245.4191 68.5536 
L 244.8363 64.1184 
L 244.2535 66.336 
L 243.6707 66.336 
L 243.0879 66.336 
L 242.5051 67.8144 
L 241.9223 70.7712 
L 241.3395 68.5536 
L 240.7567 69.2928 
L 240.1739 73.728 
L 239.5911 70.032 
L 239.0083 70.032 
L 238.4255 71.5104 
L 237.8427 70.7712 
L 237.2599 71.5104 
L 236.6771 73.728 
L 236.0943 70.032 
L 235.5115 71.5104 
L 234.9287 72.2496 
L 234.3459 70.7712 
L 233.7631 72.2496 
L 233.1803 73.728 
L 232.5975 75.9456 
L 232.0147 75.2064 
L 231.4319 74.4672 
L 230.8491 74.4672 
L 230.2663 76.6848 
L 229.6835 75.2064 
L 229.1007 74.4672 
L 228.5179 79.6416 
L 227.9351 73.728 
L 227.3523 76.6848 
L 226.7695 78.1632 
L 226.1867 79.6416 
L 225.6039 73.728 
L 225.0211 77.424 
L 224.4383 80.3808 
L 223.8555 79.6416 
L 223.2727 79.6416 
L 222.6899 78.9024 
L 222.1071 76.6848 
L 221.5243 80.3808 
L 220.9415 79.6416 
L 220.3587 79.6416 
L 219.7759 81.12 
L 219.1931 81.8592 
L 218.6103 78.9024 
L 218.0275 81.8592 
L 217.4447 80.3808 
L 216.8619 81.12 
L 216.2791 83.3376 
L 215.6963 86.2944 
L 215.1135 87.0336 
L 214.5307 87.7728 
L 213.9479 84.816 
L 213.3651 89.2512 
L 212.7823 87.7728 
L 212.1995 89.2512 
L 211.6167 87.0336 
L 211.0339 87.7728 
L 210.4511 87.7728 
L 209.8683 89.2512 
L 209.2855 88.512 
L 208.7027 89.2512 
L 208.1199 92.208 
L 207.5371 90.7296 
L 206.9543 92.208 
L 206.3715 92.208 
L 205.7887 90.7296 
L 205.2059 94.4256 
L 204.6231 94.4256 
L 204.0403 95.904 
L 203.4575 98.1216 
L 202.8747 96.6432 
L 202.2919 98.1216 
L 201.7091 98.8608 
L 201.1263 98.1216 
L 200.5435 98.1216 
L 199.9607 99.6 
L 199.3779 97.3824 
L 198.7951 97.3824 
L 198.2123 99.6 
L 197.6295 98.8608 
L 197.0467 100.3392 
L 196.4639 101.8176 
L 195.8811 102.5568 
L 195.2983 101.8176 
L 194.7155 103.296 
L 194.1327 103.296 
L 193.5499 104.7744 
L 192.9671 103.296 
L 192.3843 102.5568 
L 191.8015 102.5568 
L 191.2187 104.0352 
L 190.6359 104.0352 
L 190.0531 106.2528 
L 189.4703 106.2528 
L 188.8875 106.2528 
L 188.3047 104.7744 
L 187.7219 106.992 
L 187.1391 109.2096 
L 186.5563 107.7312 
L 185.9735 106.992 
L 185.3907 108.4704 
L 184.8079 108.4704 
L 184.2251 109.2096 
L 183.6423 109.2096 
L 183.0595 109.2096 
L 182.4767 112.1664 
L 181.8939 111.4272 
L 181.3111 111.4272 
L 180.7283 111.4272 
L 180.1455 112.9056 
L 179.5627 113.6448 
L 178.9799 112.1664 
L 178.3971 114.384 
L 177.8143 114.384 
L 177.2315 115.1232 
L 176.6487 118.08 
L 176.0659 116.6016 
L 175.4831 118.8192 
L 174.9003 118.8192 
L 174.3175 118.8192 
L 173.7347 118.8192 
L 173.1519 118.8192 
L 172.5691 120.2976 
L 171.9863 123.2544 
L 171.4035 121.0368 
L 170.8207 123.9936 
L 170.2379 124.7328 
L 169.6551 125.472 
L 169.0723 125.472 
L 168.4895 125.472 
L 167.9067 124.7328 
L 167.3239 126.2112 
L 166.7411 125.472 
L 166.1583 126.2112 
L 165.5755 127.6896 
L 164.9927 127.6896 
L 164.4099 126.2112 
L 163.8271 127.6896 
L 163.2443 126.2112 
L 162.6615 127.6896 
L 162.0787 126.2112 
L 161.4959 126.9504 
L 160.9131 129.168 
L 160.3303 129.9072 
L 159.7475 131.3856 
L 159.1647 131.3856 
L 158.5819 132.1248 
L 157.9991 134.3424 
L 157.4163 133.6032 
L 156.8335 134.3424 
L 156.2507 133.6032 
L 155.6679 133.6032 
L 155.0851 132.864 
L 154.5023 132.864 
L 153.9195 133.6032 
L 153.3367 133.6032 
L 152.7539 132.864 
L 152.1711 132.864 
L 151.5883 135.0816 
L 151.0055 135.8208 
L 150.4227 137.2992 
L 149.8399 135.8208 
L 149.2571 136.56 
L 148.6743 136.56 
L 148.0915 136.56 
L 147.5087 137.2992 
L 146.9259 138.7776 
L 146.3431 138.7776 
L 145.7603 138.7776 
L 145.1775 139.5168 
L 144.5947 139.5168 
L 144.0119 139.5168 
L 143.4291 138.0384 
L 142.8463 140.9952 
L 142.2635 139.5168 
L 141.6807 140.9952 
L 141.0979 140.9952 
L 140.5151 142.4736 
L 139.9323 143.952 
L 139.3495 144.6912 
L 138.7667 145.4304 
L 138.1839 147.648 
L 137.6011 146.1696 
L 137.0183 147.648 
L 136.4355 152.0832 
L 135.8527 152.0832 
L 135.2699 150.6048 
L 134.6871 152.8224 
L 134.1043 154.3008 
L 133.5215 155.04 
L 132.9387 156.5184 
L 132.3559 170.5632 
L 131.7731 172.0416 
L 131.1903 169.0848 
L 130.6075 168.3456 
L 130.0247 179.4336 
L 129.4419 174.9984 
L 128.8591 174.9984 
L 128.2763 177.216 
L 127.6935 174.2592 
L 127.1107 174.2592 
L 126.5279 176.4768 
L 125.9451 174.2592 
L 125.3623 176.4768 
L 124.7795 174.9984 
L 124.1967 174.2592 
L 123.6139 176.4768 
L 123.0311 172.7808 
L 122.4483 176.4768 
L 121.8655 174.9984 
L 121.2827 174.2592 
L 120.6999 174.2592 
L 120.1171 173.52 
L 119.5343 173.52 
L 118.9515 172.7808 
L 118.3687 172.7808 
L 117.7859 174.2592 
L 117.2031 171.3024 
L 116.6203 172.7808 
L 116.0375 170.5632 
L 115.4547 170.5632 
L 114.8719 169.824 
L 114.2891 169.824 
L 113.7063 168.3456 
L 113.1235 169.824 
L 112.5407 168.3456 
L 111.9579 168.3456 
L 111.3751 168.3456 
L 110.7923 168.3456 
L 110.2095 169.0848 
L 109.6267 169.0848 
L 109.0439 167.6064 
L 108.4611 169.824 
L 107.8783 169.824 
L 107.2955 169.824 
L 106.7127 169.824 
L 106.1299 171.3024 
L 105.5471 171.3024 
L 104.9643 171.3024 
L 104.3815 172.0416 
L 103.7987 172.7808 
L 103.2159 172.7808 
L 102.6331 172.7808 
L 102.0503 173.52 
L 101.4675 172.7808 
L 100.8847 172.7808 
L 100.3019 173.52 
L 99.7191 173.52 
L 99.1363 173.52 
L 98.5535 174.2592 
L 97.9707 174.2592 
L 97.3879 174.9984 
L 96.8051 177.216 
L 96.2223 178.6944 
L 95.6395 178.6944 
L 95.0567 180.1728 
L 94.4739 180.1728 
L 93.8911 179.4336 
L 93.3083 182.3904 
L 92.7255 181.6512 
L 92.1427 183.8688 
L 91.5599 183.1296 
L 90.9771 183.8688 
L 90.3943 183.8688 
L 89.8115 183.8688 
L 89.2287 184.608 
L 88.6459 185.3472 
L 88.0631 185.3472 
L 87.4803 184.608 
L 86.8975 186.8256 
L 86.3147 187.5648 
L 85.7319 187.5648 
L 85.1491 187.5648 
L 84.5663 187.5648 
L 83.9835 189.0432 
L 83.4007 189.7824 
L 82.8179 192 
L 82.2351 192 
L 81.6523 192 
L 81.0695 191.2608 
L 80.4867 192 
L 79.9039 192 
L 79.3211 194.2176 
L 78.7383 192.7392 
L 78.1555 192.7392 
L 77.5727 192.7392 
L 76.9899 192.7392 
L 76.4071 192.7392 
L 75.8243 192.7392 
L 75.2415 195.696 
L 74.6587 194.9568 
L 74.0759 194.2176 
L 73.4931 194.9568 
L 72.9103 194.9568 
L 72.3275 194.9568 
L 71.7447 194.9568 
L 71.1619 194.9568 
L 70.5791 194.9568 
L 69.9963 197.1744 
L 69.4135 199.392 
L 68.8307 200.1312 
L 68.2479 201.6096 
L 67.6651 203.088 
L 67.0823 203.8272 
L 66.4995 203.088 
L 65.9167 203.8272 
L 65.3339 204.5664 
L 64.7511 206.0448 
L 64.1683 205.3056 
L 63.5855 204.5664 
L 63.0027 205.3056 
L 62.4199 205.3056 
L 61.8371 206.784 
L 61.2543 206.784 
L 60.6715 207.5232 
L 60.0887 206.0448 
L 59.5059 208.2624 
L 58.9231 207.5232 
L 58.3403 207.5232 
L 57.7575 209.7408 
L 57.1747 208.2624 
L 56.5919 209.0016 
L 56.0091 209.0016 
L 55.4263 209.7408 
L 54.8435 210.48 
L 54.2607 210.48 
L 53.6779 212.6976 
L 53.0951 211.9584 
L 52.5123 211.9584 
L 51.9295 214.176 
L 51.3467 213.4368 
L 50.7639 213.4368 
L 50.1811 214.176 
L 49.5983 214.9152 
L 49.0155 215.6544 
L 48.4327 215.6544 
L 47.8499 215.6544 
L 47.2671 216.3936 
L 46.6843 216.3936 
L 46.1015 217.1328 
L 45.5187 217.872 
L 44.9359 217.872 
L 44.3531 217.1328 
L 43.7703 217.1328 
L 43.1875 219.3504 
L 42.6047 219.3504 
L 42.0219 218.6112 
L 41.4391 218.6112 
L 40.8563 219.3504 
L 40.2735 219.3504 
z
" clip-path="url(#p8d6cd33ecd)" style="fill: #24868e; fill-opacity: 0.3"/>
   </g>
   <g id="matplotlib.axis_1">
    <g id="xtick_1">
     <g id="line2d_1">
      <defs>
       <path id="m081690c140" d="M 0 0 
L 0 3.5 
" style="stroke: #000000; stroke-width: 0.8"/>
      </defs>
      <g>
       <use xlink:href="#m081690c140" x="33.5775" y="228.96" style="stroke: #000000; stroke-width: 0.8"/>
      </g>
     </g>
     <g id="text_1">
      <text style="font: 6px 'DejaVu Sans', 'Bitstream Vera Sans', 'Computer Modern Sans Serif', 'Lucida Grande', 'Verdana', 'Geneva', 'Lucid', 'Arial', 'Helvetica', 'Avant Garde', sans-serif; text-anchor: middle" x="33.5775" y="240.519062" transform="rotate(-0 33.5775 240.519062)">0</text>
     </g>
    </g>
    <g id="xtick_2">
     <g id="line2d_2">
      <g>
       <use xlink:href="#m081690c140" x="69.2895" y="228.96" style="stroke: #000000; stroke-width: 0.8"/>
      </g>
     </g>
     <g id="text_2">
      <text style="font: 6px 'DejaVu Sans', 'Bitstream Vera Sans', 'Computer Modern Sans Serif', 'Lucida Grande', 'Verdana', 'Geneva', 'Lucid', 'Arial', 'Helvetica', 'Avant Garde', sans-serif; text-anchor: middle" x="69.2895" y="240.519062" transform="rotate(-0 69.2895 240.519062)">4</text>
     </g>
    </g>
    <g id="xtick_3">
     <g id="line2d_3">
      <g>
       <use xlink:href="#m081690c140" x="105.0015" y="228.96" style="stroke: #000000; stroke-width: 0.8"/>
      </g>
     </g>
     <g id="text_3">
      <text style="font: 6px 'DejaVu Sans', 'Bitstream Vera Sans', 'Computer Modern Sans Serif', 'Lucida Grande', 'Verdana', 'Geneva', 'Lucid', 'Arial', 'Helvetica', 'Avant Garde', sans-serif; text-anchor: middle" x="105.0015" y="240.519062" transform="rotate(-0 105.0015 240.519062)">8</text>
     </g>
    </g>
    <g id="xtick_4">
     <g id="line2d_4">
      <g>
       <use xlink:href="#m081690c140" x="140.7135" y="228.96" style="stroke: #000000; stroke-width: 0.8"/>
      </g>
     </g>
     <g id="text_4">
      <text style="font: 6px 'DejaVu Sans', 'Bitstream Vera Sans', 'Computer Modern Sans Serif', 'Lucida Grande', 'Verdana', 'Geneva', 'Lucid', 'Arial', 'Helvetica', 'Avant Garde', sans-serif; text-anchor: middle" x="140.7135" y="240.519062" transform="rotate(-0 140.7135 240.519062)">12</text>
     </g>
    </g>
    <g id="xtick_5">
     <g id="line2d_5">
      <g>
       <use xlink:href="#m081690c140" x="176.4255" y="228.96" style="stroke: #000000; stroke-width: 0.8"/>
      </g>
     </g>
     <g id="text_5">
      <text style="font: 6px 'DejaVu Sans', 'Bitstream Vera Sans', 'Computer Modern Sans Serif', 'Lucida Grande', 'Verdana', 'Geneva', 'Lucid', 'Arial', 'Helvetica', 'Avant Garde', sans-serif; text-anchor: middle" x="176.4255" y="240.519062" transform="rotate(-0 176.4255 240.519062)">16</text>
     </g>
    </g>
    <g id="xtick_6">
     <g id="line2d_6">
      <g>
       <use xlink:href="#m081690c140" x="212.1375" y="228.96" style="stroke: #000000; stroke-width: 0.8"/>
      </g>
     </g>
     <g id="text_6">
      <text style="font: 6px 'DejaVu Sans', 'Bitstream Vera Sans', 'Computer Modern Sans Serif', 'Lucida Grande', 'Verdana', 'Geneva', 'Lucid', 'Arial', 'Helvetica', 'Avant Garde', sans-serif; text-anchor: middle" x="212.1375" y="240.519062" transform="rotate(-0 212.1375 240.519062)">20</text>
     </g>
    </g>
    <g id="xtick_7">
     <g id="line2d_7">
      <g>
       <use xlink:href="#m081690c140" x="247.8495" y="228.96" style="stroke: #000000; stroke-width: 0.8"/>
      </g>
     </g>
     <g id="text_7">
      <text style="font: 6px 'DejaVu Sans', 'Bitstream Vera Sans', 'Computer Modern Sans Serif', 'Lucida Grande', 'Verdana', 'Geneva', 'Lucid', 'Arial', 'Helvetica', 'Avant Garde', sans-serif; text-anchor: middle" x="247.8495" y="240.519062" transform="rotate(-0 247.8495 240.519062)">24</text>
     </g>
    </g>
    <g id="text_8">
     <text style="font: 8px 'DejaVu Sans', 'Bitstream Vera Sans', 'Computer Modern Sans Serif', 'Lucida Grande', 'Verdana', 'Geneva', 'Lucid', 'Arial', 'Helvetica', 'Avant Garde', sans-serif; text-anchor: middle" x="145.1775" y="251.845625" transform="rotate(-0 145.1775 251.845625)">Experimental time (hpf)</text>
    </g>
   </g>
   <g id="matplotlib.axis_2">
    <g id="ytick_1">
     <g id="line2d_8">
      <defs>
       <path id="m77a9e7eedd" d="M 0 0 
L -3.5 0 
" style="stroke: #000000; stroke-width: 0.8"/>
      </defs>
      <g>
       <use xlink:href="#m77a9e7eedd" x="33.5775" y="228.96" style="stroke: #000000; stroke-width: 0.8"/>
      </g>
     </g>
     <g id="text_9">
      <text style="font: 6px 'DejaVu Sans', 'Bitstream Vera Sans', 'Computer Modern Sans Serif', 'Lucida Grande', 'Verdana', 'Geneva', 'Lucid', 'Arial', 'Helvetica', 'Avant Garde', sans-serif; text-anchor: end" x="26.5775" y="231.239531" transform="rotate(-0 26.5775 231.239531)">0</text>
     </g>
    </g>
    <g id="ytick_2">
     <g id="line2d_9">
      <g>
       <use xlink:href="#m77a9e7eedd" x="33.5775" y="193.4784" style="stroke: #000000; stroke-width: 0.8"/>
      </g>
     </g>
     <g id="text_10">
      <text style="font: 6px 'DejaVu Sans', 'Bitstream Vera Sans', 'Computer Modern Sans Serif', 'Lucida Grande', 'Verdana', 'Geneva', 'Lucid', 'Arial', 'Helvetica', 'Avant Garde', sans-serif; text-anchor: end" x="26.5775" y="195.757931" transform="rotate(-0 26.5775 195.757931)">4</text>
     </g>
    </g>
    <g id="ytick_3">
     <g id="line2d_10">
      <g>
       <use xlink:href="#m77a9e7eedd" x="33.5775" y="157.9968" style="stroke: #000000; stroke-width: 0.8"/>
      </g>
     </g>
     <g id="text_11">
      <text style="font: 6px 'DejaVu Sans', 'Bitstream Vera Sans', 'Computer Modern Sans Serif', 'Lucida Grande', 'Verdana', 'Geneva', 'Lucid', 'Arial', 'Helvetica', 'Avant Garde', sans-serif; text-anchor: end" x="26.5775" y="160.276331" transform="rotate(-0 26.5775 160.276331)">8</text>
     </g>
    </g>
    <g id="ytick_4">
     <g id="line2d_11">
      <g>
       <use xlink:href="#m77a9e7eedd" x="33.5775" y="122.5152" style="stroke: #000000; stroke-width: 0.8"/>
      </g>
     </g>
     <g id="text_12">
      <text style="font: 6px 'DejaVu Sans', 'Bitstream Vera Sans', 'Computer Modern Sans Serif', 'Lucida Grande', 'Verdana', 'Geneva', 'Lucid', 'Arial', 'Helvetica', 'Avant Garde', sans-serif; text-anchor: end" x="26.5775" y="124.794731" transform="rotate(-0 26.5775 124.794731)">12</text>
     </g>
    </g>
    <g id="ytick_5">
     <g id="line2d_12">
      <g>
       <use xlink:href="#m77a9e7eedd" x="33.5775" y="87.0336" style="stroke: #000000; stroke-width: 0.8"/>
      </g>
     </g>
     <g id="text_13">
      <text style="font: 6px 'DejaVu Sans', 'Bitstream Vera Sans', 'Computer Modern Sans Serif', 'Lucida Grande', 'Verdana', 'Geneva', 'Lucid', 'Arial', 'Helvetica', 'Avant Garde', sans-serif; text-anchor: end" x="26.5775" y="89.313131" transform="rotate(-0 26.5775 89.313131)">16</text>
     </g>
    </g>
    <g id="ytick_6">
     <g id="line2d_13">
      <g>
       <use xlink:href="#m77a9e7eedd" x="33.5775" y="51.552" style="stroke: #000000; stroke-width: 0.8"/>
      </g>
     </g>
     <g id="text_14">
      <text style="font: 6px 'DejaVu Sans', 'Bitstream Vera Sans', 'Computer Modern Sans Serif', 'Lucida Grande', 'Verdana', 'Geneva', 'Lucid', 'Arial', 'Helvetica', 'Avant Garde', sans-serif; text-anchor: end" x="26.5775" y="53.831531" transform="rotate(-0 26.5775 53.831531)">20</text>
     </g>
    </g>
    <g id="ytick_7">
     <g id="line2d_14">
      <g>
       <use xlink:href="#m77a9e7eedd" x="33.5775" y="16.0704" style="stroke: #000000; stroke-width: 0.8"/>
      </g>
     </g>
     <g id="text_15">
      <text style="font: 6px 'DejaVu Sans', 'Bitstream Vera Sans', 'Computer Modern Sans Serif', 'Lucida Grande', 'Verdana', 'Geneva', 'Lucid', 'Arial', 'Helvetica', 'Avant Garde', sans-serif; text-anchor: end" x="26.5775" y="18.349931" transform="rotate(-0 26.5775 18.349931)">24</text>
     </g>
    </g>
    <g id="text_16">
     <text style="font: 8px 'DejaVu Sans', 'Bitstream Vera Sans', 'Computer Modern Sans Serif', 'Lucida Grande', 'Verdana', 'Geneva', 'Lucid', 'Arial', 'Helvetica', 'Avant Garde', sans-serif; text-anchor: middle" x="13.27875" y="118.08" transform="rotate(-90 13.27875 118.08)">Developmental age (hpf)</text>
    </g>
   </g>
   <g id="line2d_15">
    <path d="M 42.5055 220.396933 
L 256.7775 37.011271 
L 256.7775 37.011271 
" clip-path="url(#p8d6cd33ecd)" style="fill: none; stroke: #24868e; stroke-linecap: square"/>
   </g>
   <g id="line2d_16">
    <path d="M 42.5055 220.412869 
L 256.7775 38.557071 
L 256.7775 38.557071 
" clip-path="url(#p8d6cd33ecd)" style="fill: none; stroke-dasharray: 3.7,1.6; stroke-dashoffset: 0; stroke: #24868e"/>
   </g>
   <g id="line2d_17">
    <path d="M 42.5055 220.376173 
L 256.7775 34.997545 
L 256.7775 34.997545 
" clip-path="url(#p8d6cd33ecd)" style="fill: none; stroke-dasharray: 3.7,1.6; stroke-dashoffset: 0; stroke: #24868e"/>
   </g>
   <g id="patch_3">
    <path d="M 33.5775 228.96 
L 33.5775 7.2 
" style="fill: none; stroke: #000000; stroke-width: 0.8; stroke-linejoin: miter; stroke-linecap: square"/>
   </g>
   <g id="patch_4">
    <path d="M 33.5775 228.96 
L 256.7775 228.96 
" style="fill: none; stroke: #000000; stroke-width: 0.8; stroke-linejoin: miter; stroke-linecap: square"/>
   </g>
   <g id="legend_1">
    <g id="patch_5">
     <path d="M 93.656011 28.829269 
L 252.7245 28.829269 
Q 253.8825 28.829269 253.8825 27.671269 
L 253.8825 11.253 
Q 253.8825 10.095 252.7245 10.095 
L 93.656011 10.095 
Q 92.498011 10.095 92.498011 11.253 
L 92.498011 27.671269 
Q 92.498011 28.829269 93.656011 28.829269 
z
" style="fill: #ffffff; opacity: 0.8; stroke: #cccccc; stroke-linejoin: miter"/>
    </g>
    <g id="line2d_18">
     <path d="M 94.814011 14.783995 
L 100.604011 14.783995 
L 106.394011 14.783995 
" style="fill: none; stroke: #24868e; stroke-linecap: square"/>
    </g>
    <g id="text_17">
     <text style="font: 5.79px 'DejaVu Sans', 'Bitstream Vera Sans', 'Computer Modern Sans Serif', 'Lucida Grande', 'Verdana', 'Geneva', 'Lucid', 'Arial', 'Helvetica', 'Avant Garde', sans-serif; text-anchor: start" x="111.026011" y="16.810495" transform="rotate(-0 111.026011 16.810495)">Linear fit: slope=0.861 [0.854,0.871], R2=0.982</text>
    </g>
    <g id="patch_6">
     <path d="M 94.814011 25.30913 
L 106.394011 25.30913 
L 106.394011 21.25613 
L 94.814011 21.25613 
z
" style="fill: #24868e; fill-opacity: 0.3"/>
    </g>
    <g id="text_18">
     <text style="font: 5.79px 'DejaVu Sans', 'Bitstream Vera Sans', 'Computer Modern Sans Serif', 'Lucida Grande', 'Verdana', 'Geneva', 'Lucid', 'Arial', 'Helvetica', 'Avant Garde', sans-serif; text-anchor: start" x="111.026011" y="25.30913" transform="rotate(-0 111.026011 25.30913)">Median:26.5C</text>
    </g>
   </g>
  </g>
 </g>
 <defs>
  <clipPath id="p8d6cd33ecd">
   <rect x="33.5775" y="7.2" width="223.2" height="221.76"/>
  </clipPath>
 </defs>
</svg>
