<?xml version="1.0" encoding="utf-8" standalone="no"?>
<!DOCTYPE svg PUBLIC "-//W3C//DTD SVG 1.1//EN"
  "http://www.w3.org/Graphics/SVG/1.1/DTD/svg11.dtd">
<svg xmlns:xlink="http://www.w3.org/1999/xlink" width="263.9775pt" height="260.709375pt" viewBox="0 0 263.9775 260.709375" xmlns="http://www.w3.org/2000/svg" version="1.1">
 <metadata>
  <rdf:RDF xmlns:dc="http://purl.org/dc/elements/1.1/" xmlns:cc="http://creativecommons.org/ns#" xmlns:rdf="http://www.w3.org/1999/02/22-rdf-syntax-ns#">
   <cc:Work>
    <dc:type rdf:resource="http://purl.org/dc/dcmitype/StillImage"/>
    <dc:date>2023-07-28T13:07:34.396985</dc:date>
    <dc:format>image/svg+xml</dc:format>
    <dc:creator>
     <cc:Agent>
      <dc:title>Matplotlib v3.7.0, https://matplotlib.org/</dc:title>
     </cc:Agent>
    </dc:creator>
   </cc:Work>
  </rdf:RDF>
 </metadata>
 <defs>
  <style type="text/css">*{stroke-linejoin: round; stroke-linecap: butt}</style>
 </defs>
 <g id="figure_1">
  <g id="patch_1">
   <path d="M 0 260.709375 
L 263.9775 260.709375 
L 263.9775 0 
L 0 0 
z
" style="fill: #ffffff"/>
  </g>
  <g id="axes_1">
   <g id="patch_2">
    <path d="M 33.5775 228.96 
L 256.7775 228.96 
L 256.7775 7.2 
L 33.5775 7.2 
z
" style="fill: #ffffff"/>
   </g>
   <g id="PolyCollection_1">
    <path d="M 44.7375 218.6112 
L 44.7375 215.6544 
L 45.3203 213.4368 
L 45.9031 213.4368 
L 46.4859 212.6976 
L 47.0687 212.6976 
L 47.6515 211.9584 
L 48.2343 210.48 
L 48.8171 210.48 
L 49.3999 210.48 
L 49.9827 210.48 
L 50.5655 209.7408 
L 51.1483 209.7408 
L 51.7311 208.2624 
L 52.3139 208.2624 
L 52.8967 206.0448 
L 53.4795 205.3056 
L 54.0623 205.3056 
L 54.6451 205.3056 
L 55.2279 203.8272 
L 55.8107 203.088 
L 56.3935 201.6096 
L 56.9763 203.088 
L 57.5591 200.8704 
L 58.1419 199.392 
L 58.7247 199.392 
L 59.3075 200.1312 
L 59.8903 200.1312 
L 60.4731 200.1312 
L 61.0559 198.6528 
L 61.6387 196.4352 
L 62.2215 196.4352 
L 62.8043 196.4352 
L 63.3871 196.4352 
L 63.9699 194.2176 
L 64.5527 194.2176 
L 65.1355 189.0432 
L 65.7183 187.5648 
L 66.3011 183.1296 
L 66.8839 180.912 
L 67.4667 182.3904 
L 68.0495 183.8688 
L 68.6323 181.6512 
L 69.2151 182.3904 
L 69.7979 180.912 
L 70.3807 181.6512 
L 70.9635 183.1296 
L 71.5463 183.1296 
L 72.1291 183.1296 
L 72.7119 183.1296 
L 73.2947 183.1296 
L 73.8775 183.1296 
L 74.4603 183.1296 
L 75.0431 184.608 
L 75.6259 183.1296 
L 76.2087 182.3904 
L 76.7915 182.3904 
L 77.3743 182.3904 
L 77.9571 179.4336 
L 78.5399 181.6512 
L 79.1227 179.4336 
L 79.7055 177.216 
L 80.2883 178.6944 
L 80.8711 175.7376 
L 81.4539 176.4768 
L 82.0367 173.52 
L 82.6195 173.52 
L 83.2023 172.7808 
L 83.7851 171.3024 
L 84.3679 169.824 
L 84.9507 165.3888 
L 85.5335 165.3888 
L 86.1163 161.6928 
L 86.6991 161.6928 
L 87.2819 160.2144 
L 87.8647 160.9536 
L 88.4475 159.4752 
L 89.0303 159.4752 
L 89.6131 156.5184 
L 90.1959 156.5184 
L 90.7787 157.2576 
L 91.3615 157.2576 
L 91.9443 157.2576 
L 92.5271 157.9968 
L 93.1099 157.9968 
L 93.6927 158.736 
L 94.2755 157.2576 
L 94.8583 158.736 
L 95.4411 158.736 
L 96.0239 158.736 
L 96.6067 158.736 
L 97.1895 159.4752 
L 97.7723 159.4752 
L 98.3551 159.4752 
L 98.9379 159.4752 
L 99.5207 159.4752 
L 100.1035 159.4752 
L 100.6863 160.9536 
L 101.2691 159.4752 
L 101.8519 159.4752 
L 102.4347 160.9536 
L 103.0175 160.2144 
L 103.6003 160.2144 
L 104.1831 160.9536 
L 104.7659 160.9536 
L 105.3487 160.9536 
L 105.9315 159.4752 
L 106.5143 160.9536 
L 107.0971 160.9536 
L 107.6799 160.2144 
L 108.2627 159.4752 
L 108.8455 157.9968 
L 109.4283 160.9536 
L 110.0111 152.8224 
L 110.5939 155.04 
L 111.1767 152.8224 
L 111.7595 148.3872 
L 112.3423 146.9088 
L 112.9251 144.6912 
L 113.5079 137.2992 
L 114.0907 136.56 
L 114.6735 135.8208 
L 115.2563 121.776 
L 115.8391 123.9936 
L 116.4219 123.9936 
L 117.0047 124.7328 
L 117.5875 125.472 
L 118.1703 127.6896 
L 118.7531 129.168 
L 119.3359 129.168 
L 119.9187 129.168 
L 120.5015 129.168 
L 121.0843 129.168 
L 121.6671 129.168 
L 122.2499 126.9504 
L 122.8327 129.168 
L 123.4155 126.9504 
L 123.9983 126.2112 
L 124.5811 126.2112 
L 125.1639 126.2112 
L 125.7467 126.2112 
L 126.3295 124.7328 
L 126.9123 126.2112 
L 127.4951 123.9936 
L 128.0779 126.2112 
L 128.6607 121.776 
L 129.2435 122.5152 
L 129.8263 122.5152 
L 130.4091 115.8624 
L 130.9919 115.8624 
L 131.5747 111.4272 
L 132.1575 111.4272 
L 132.7403 111.4272 
L 133.3231 111.4272 
L 133.9059 109.2096 
L 134.4887 103.296 
L 135.0715 105.5136 
L 135.6543 98.8608 
L 136.2371 92.208 
L 136.8199 92.208 
L 137.4027 96.6432 
L 137.9855 92.208 
L 138.5683 89.9904 
L 139.1511 84.816 
L 139.7339 86.2944 
L 140.3167 78.1632 
L 140.8995 84.816 
L 141.4823 85.5552 
L 142.0651 81.8592 
L 142.6479 85.5552 
L 143.2307 84.816 
L 143.8135 76.6848 
L 144.3963 80.3808 
L 144.9791 83.3376 
L 145.5619 79.6416 
L 146.1447 81.8592 
L 146.7275 75.2064 
L 147.3103 77.424 
L 147.8931 77.424 
L 148.4759 72.2496 
L 149.0587 72.9888 
L 149.6415 68.5536 
L 150.2243 66.336 
L 150.8071 68.5536 
L 151.3899 62.64 
L 151.9727 66.336 
L 152.5555 66.336 
L 153.1383 67.8144 
L 153.7211 73.728 
L 154.3039 72.2496 
L 154.8867 64.8576 
L 155.4695 72.2496 
L 156.0523 70.7712 
L 156.6351 67.0752 
L 157.2179 64.1184 
L 157.8007 58.944 
L 158.3835 60.4224 
L 158.9663 60.4224 
L 159.5491 57.4656 
L 160.1319 58.944 
L 160.7147 58.944 
L 161.2975 66.336 
L 161.8803 60.4224 
L 162.4631 60.4224 
L 163.0459 61.1616 
L 163.6287 58.944 
L 164.2115 55.9872 
L 164.7943 60.4224 
L 165.3771 60.4224 
L 165.9599 60.4224 
L 166.5427 61.1616 
L 167.1255 61.1616 
L 167.7083 61.1616 
L 168.2911 53.7696 
L 168.8739 58.2048 
L 169.4567 50.0736 
L 170.0395 49.3344 
L 170.6223 49.3344 
L 171.2051 49.3344 
L 171.7879 49.3344 
L 172.3707 41.9424 
L 172.9535 43.4208 
L 173.5363 34.5504 
L 174.1191 43.4208 
L 174.7019 36.0288 
L 175.2847 40.464 
L 175.8675 33.072 
L 176.4503 36.0288 
L 177.0331 41.9424 
L 177.6159 36.768 
L 178.1987 35.2896 
L 178.7815 38.2464 
L 179.3643 33.072 
L 179.9471 36.0288 
L 180.5299 33.8112 
L 181.1127 32.3328 
L 181.6955 36.0288 
L 182.2783 26.4192 
L 182.8611 28.6368 
L 183.4439 30.1152 
L 184.0267 24.9408 
L 184.6095 26.4192 
L 185.1923 24.9408 
L 185.7751 29.376 
L 186.3579 26.4192 
L 186.9407 25.68 
L 187.5235 26.4192 
L 188.1063 25.68 
L 188.6891 26.4192 
L 189.2719 23.4624 
L 189.8547 24.9408 
L 190.4375 27.1584 
L 191.0203 20.5056 
L 191.6031 23.4624 
L 192.1859 19.0272 
L 192.7687 24.2016 
L 193.3515 20.5056 
L 193.9343 27.8976 
L 194.5171 24.9408 
L 195.0999 19.7664 
L 195.6827 19.7664 
L 196.2655 20.5056 
L 196.8483 17.5488 
L 197.4311 17.5488 
L 198.0139 21.2448 
L 198.5967 19.7664 
L 199.1795 16.0704 
L 199.7623 20.5056 
L 200.3451 21.984 
L 200.9279 21.2448 
L 201.5107 20.5056 
L 202.0935 18.288 
L 202.6763 15.3312 
L 203.2591 19.0272 
L 203.8419 19.7664 
L 204.4247 19.0272 
L 205.0075 21.2448 
L 205.5903 17.5488 
L 206.1731 16.8096 
L 206.7559 19.0272 
L 207.3387 16.0704 
L 207.9215 14.592 
L 208.5043 19.0272 
L 209.0871 18.288 
L 209.6699 13.8528 
L 210.2527 18.288 
L 210.8355 16.8096 
L 211.4183 14.592 
L 212.0011 13.8528 
L 212.5839 14.592 
L 213.1667 16.8096 
L 213.7495 17.5488 
L 214.3323 14.592 
L 214.9151 14.592 
L 215.4979 13.1136 
L 216.0807 15.3312 
L 216.6635 13.1136 
L 217.2463 10.896 
L 217.8291 13.1136 
L 218.4119 13.1136 
L 218.9947 15.3312 
L 218.9947 38.9856 
L 218.9947 38.9856 
L 218.4119 42.6816 
L 217.8291 42.6816 
L 217.2463 43.4208 
L 216.6635 45.6384 
L 216.0807 44.8992 
L 215.4979 48.5952 
L 214.9151 47.1168 
L 214.3323 47.1168 
L 213.7495 47.1168 
L 213.1667 49.3344 
L 212.5839 47.1168 
L 212.0011 52.2912 
L 211.4183 47.1168 
L 210.8355 49.3344 
L 210.2527 47.856 
L 209.6699 52.2912 
L 209.0871 53.7696 
L 208.5043 51.552 
L 207.9215 55.9872 
L 207.3387 60.4224 
L 206.7559 54.5088 
L 206.1731 58.2048 
L 205.5903 53.0304 
L 205.0075 56.7264 
L 204.4247 60.4224 
L 203.8419 55.248 
L 203.2591 60.4224 
L 202.6763 62.64 
L 202.0935 62.64 
L 201.5107 58.944 
L 200.9279 59.6832 
L 200.3451 57.4656 
L 199.7623 61.9008 
L 199.1795 63.3792 
L 198.5967 64.1184 
L 198.0139 59.6832 
L 197.4311 70.7712 
L 196.8483 70.7712 
L 196.2655 67.8144 
L 195.6827 67.0752 
L 195.0999 70.032 
L 194.5171 66.336 
L 193.9343 63.3792 
L 193.3515 67.8144 
L 192.7687 68.5536 
L 192.1859 69.2928 
L 191.6031 70.7712 
L 191.0203 73.728 
L 190.4375 68.5536 
L 189.8547 72.2496 
L 189.2719 67.8144 
L 188.6891 79.6416 
L 188.1063 72.9888 
L 187.5235 73.728 
L 186.9407 75.9456 
L 186.3579 79.6416 
L 185.7751 82.5984 
L 185.1923 81.12 
L 184.6095 79.6416 
L 184.0267 81.12 
L 183.4439 86.2944 
L 182.8611 84.816 
L 182.2783 88.512 
L 181.6955 86.2944 
L 181.1127 88.512 
L 180.5299 87.0336 
L 179.9471 86.2944 
L 179.3643 89.2512 
L 178.7815 85.5552 
L 178.1987 91.4688 
L 177.6159 87.0336 
L 177.0331 86.2944 
L 176.4503 95.1648 
L 175.8675 98.1216 
L 175.2847 90.7296 
L 174.7019 95.1648 
L 174.1191 93.6864 
L 173.5363 96.6432 
L 172.9535 93.6864 
L 172.3707 101.0784 
L 171.7879 93.6864 
L 171.2051 93.6864 
L 170.6223 93.6864 
L 170.0395 93.6864 
L 169.4567 97.3824 
L 168.8739 96.6432 
L 168.2911 98.1216 
L 167.7083 96.6432 
L 167.1255 102.5568 
L 166.5427 102.5568 
L 165.9599 104.7744 
L 165.3771 104.7744 
L 164.7943 104.7744 
L 164.2115 109.2096 
L 163.6287 106.2528 
L 163.0459 108.4704 
L 162.4631 110.688 
L 161.8803 113.6448 
L 161.2975 107.7312 
L 160.7147 115.1232 
L 160.1319 115.1232 
L 159.5491 116.6016 
L 158.9663 116.6016 
L 158.3835 119.5584 
L 157.8007 118.08 
L 157.2179 117.3408 
L 156.6351 117.3408 
L 156.0523 118.08 
L 155.4695 119.5584 
L 154.8867 123.9936 
L 154.3039 122.5152 
L 153.7211 121.0368 
L 153.1383 126.9504 
L 152.5555 128.4288 
L 151.9727 134.3424 
L 151.3899 133.6032 
L 150.8071 133.6032 
L 150.2243 134.3424 
L 149.6415 133.6032 
L 149.0587 132.1248 
L 148.4759 134.3424 
L 147.8931 130.6464 
L 147.3103 130.6464 
L 146.7275 131.3856 
L 146.1447 132.1248 
L 145.5619 129.9072 
L 144.9791 130.6464 
L 144.3963 133.6032 
L 143.8135 132.864 
L 143.2307 129.168 
L 142.6479 132.864 
L 142.0651 132.1248 
L 141.4823 132.864 
L 140.8995 135.0816 
L 140.3167 140.256 
L 139.7339 139.5168 
L 139.1511 140.9952 
L 138.5683 143.2128 
L 137.9855 142.4736 
L 137.4027 138.0384 
L 136.8199 142.4736 
L 136.2371 142.4736 
L 135.6543 137.2992 
L 135.0715 138.0384 
L 134.4887 138.7776 
L 133.9059 141.7344 
L 133.3231 140.9952 
L 132.7403 140.9952 
L 132.1575 140.9952 
L 131.5747 140.9952 
L 130.9919 139.5168 
L 130.4091 139.5168 
L 129.8263 137.2992 
L 129.2435 137.2992 
L 128.6607 139.5168 
L 128.0779 138.0384 
L 127.4951 141.7344 
L 126.9123 140.9952 
L 126.3295 142.4736 
L 125.7467 140.9952 
L 125.1639 140.9952 
L 124.5811 140.9952 
L 123.9983 140.9952 
L 123.4155 141.7344 
L 122.8327 140.9952 
L 122.2499 141.7344 
L 121.6671 140.9952 
L 121.0843 143.952 
L 120.5015 146.9088 
L 119.9187 146.9088 
L 119.3359 146.9088 
L 118.7531 149.8656 
L 118.1703 151.344 
L 117.5875 157.9968 
L 117.0047 160.2144 
L 116.4219 162.432 
L 115.8391 162.432 
L 115.2563 169.0848 
L 114.6735 180.1728 
L 114.0907 180.912 
L 113.5079 181.6512 
L 112.9251 177.216 
L 112.3423 176.4768 
L 111.7595 174.9984 
L 111.1767 173.52 
L 110.5939 172.7808 
L 110.0111 173.52 
L 109.4283 172.7808 
L 108.8455 172.7808 
L 108.2627 171.3024 
L 107.6799 172.0416 
L 107.0971 172.7808 
L 106.5143 172.7808 
L 105.9315 174.2592 
L 105.3487 172.7808 
L 104.7659 172.7808 
L 104.1831 172.7808 
L 103.6003 174.9984 
L 103.0175 174.9984 
L 102.4347 172.7808 
L 101.8519 174.2592 
L 101.2691 174.2592 
L 100.6863 172.7808 
L 100.1035 174.2592 
L 99.5207 174.2592 
L 98.9379 174.2592 
L 98.3551 174.2592 
L 97.7723 174.2592 
L 97.1895 174.2592 
L 96.6067 176.4768 
L 96.0239 176.4768 
L 95.4411 176.4768 
L 94.8583 176.4768 
L 94.2755 177.9552 
L 93.6927 176.4768 
L 93.1099 178.6944 
L 92.5271 178.6944 
L 91.9443 180.912 
L 91.3615 180.912 
L 90.7787 180.912 
L 90.1959 183.1296 
L 89.6131 186.0864 
L 89.0303 183.1296 
L 88.4475 183.1296 
L 87.8647 184.608 
L 87.2819 186.8256 
L 86.6991 188.304 
L 86.1163 191.2608 
L 85.5335 189.0432 
L 84.9507 194.9568 
L 84.3679 190.5216 
L 83.7851 189.0432 
L 83.2023 187.5648 
L 82.6195 188.304 
L 82.0367 191.2608 
L 81.4539 191.2608 
L 80.8711 193.4784 
L 80.2883 190.5216 
L 79.7055 192 
L 79.1227 191.2608 
L 78.5399 193.4784 
L 77.9571 191.2608 
L 77.3743 191.2608 
L 76.7915 191.2608 
L 76.2087 191.2608 
L 75.6259 192 
L 75.0431 190.5216 
L 74.4603 192 
L 73.8775 192 
L 73.2947 192 
L 72.7119 192 
L 72.1291 192 
L 71.5463 192 
L 70.9635 192 
L 70.3807 193.4784 
L 69.7979 195.696 
L 69.2151 194.2176 
L 68.6323 196.4352 
L 68.0495 198.6528 
L 67.4667 203.088 
L 66.8839 204.5664 
L 66.3011 209.7408 
L 65.7183 208.2624 
L 65.1355 209.7408 
L 64.5527 209.0016 
L 63.9699 209.0016 
L 63.3871 208.2624 
L 62.8043 208.2624 
L 62.2215 208.2624 
L 61.6387 208.2624 
L 61.0559 207.5232 
L 60.4731 209.0016 
L 59.8903 209.0016 
L 59.3075 209.0016 
L 58.7247 211.2192 
L 58.1419 211.2192 
L 57.5591 209.7408 
L 56.9763 209.0016 
L 56.3935 210.48 
L 55.8107 211.9584 
L 55.2279 212.6976 
L 54.6451 214.176 
L 54.0623 214.176 
L 53.4795 214.176 
L 52.8967 214.9152 
L 52.3139 214.176 
L 51.7311 217.1328 
L 51.1483 215.6544 
L 50.5655 215.6544 
L 49.9827 216.3936 
L 49.3999 216.3936 
L 48.8171 216.3936 
L 48.2343 216.3936 
L 47.6515 217.872 
L 47.0687 218.6112 
L 46.4859 218.6112 
L 45.9031 219.3504 
L 45.3203 219.3504 
L 44.7375 218.6112 
z
" clip-path="url(#p1d8c30b77a)" style="fill: #2fb47c; fill-opacity: 0.3"/>
   </g>
   <g id="matplotlib.axis_1">
    <g id="xtick_1">
     <g id="line2d_1">
      <defs>
       <path id="mb4850c29ec" d="M 0 0 
L 0 3.5 
" style="stroke: #000000; stroke-width: 0.8"/>
      </defs>
      <g>
       <use xlink:href="#mb4850c29ec" x="33.5775" y="228.96" style="stroke: #000000; stroke-width: 0.8"/>
      </g>
     </g>
     <g id="text_1">
      <text style="font: 6px 'DejaVu Sans', 'Bitstream Vera Sans', 'Computer Modern Sans Serif', 'Lucida Grande', 'Verdana', 'Geneva', 'Lucid', 'Arial', 'Helvetica', 'Avant Garde', sans-serif; text-anchor: middle" x="33.5775" y="240.519062" transform="rotate(-0 33.5775 240.519062)">0</text>
     </g>
    </g>
    <g id="xtick_2">
     <g id="line2d_2">
      <g>
       <use xlink:href="#mb4850c29ec" x="69.2895" y="228.96" style="stroke: #000000; stroke-width: 0.8"/>
      </g>
     </g>
     <g id="text_2">
      <text style="font: 6px 'DejaVu Sans', 'Bitstream Vera Sans', 'Computer Modern Sans Serif', 'Lucida Grande', 'Verdana', 'Geneva', 'Lucid', 'Arial', 'Helvetica', 'Avant Garde', sans-serif; text-anchor: middle" x="69.2895" y="240.519062" transform="rotate(-0 69.2895 240.519062)">4</text>
     </g>
    </g>
    <g id="xtick_3">
     <g id="line2d_3">
      <g>
       <use xlink:href="#mb4850c29ec" x="105.0015" y="228.96" style="stroke: #000000; stroke-width: 0.8"/>
      </g>
     </g>
     <g id="text_3">
      <text style="font: 6px 'DejaVu Sans', 'Bitstream Vera Sans', 'Computer Modern Sans Serif', 'Lucida Grande', 'Verdana', 'Geneva', 'Lucid', 'Arial', 'Helvetica', 'Avant Garde', sans-serif; text-anchor: middle" x="105.0015" y="240.519062" transform="rotate(-0 105.0015 240.519062)">8</text>
     </g>
    </g>
    <g id="xtick_4">
     <g id="line2d_4">
      <g>
       <use xlink:href="#mb4850c29ec" x="140.7135" y="228.96" style="stroke: #000000; stroke-width: 0.8"/>
      </g>
     </g>
     <g id="text_4">
      <text style="font: 6px 'DejaVu Sans', 'Bitstream Vera Sans', 'Computer Modern Sans Serif', 'Lucida Grande', 'Verdana', 'Geneva', 'Lucid', 'Arial', 'Helvetica', 'Avant Garde', sans-serif; text-anchor: middle" x="140.7135" y="240.519062" transform="rotate(-0 140.7135 240.519062)">12</text>
     </g>
    </g>
    <g id="xtick_5">
     <g id="line2d_5">
      <g>
       <use xlink:href="#mb4850c29ec" x="176.4255" y="228.96" style="stroke: #000000; stroke-width: 0.8"/>
      </g>
     </g>
     <g id="text_5">
      <text style="font: 6px 'DejaVu Sans', 'Bitstream Vera Sans', 'Computer Modern Sans Serif', 'Lucida Grande', 'Verdana', 'Geneva', 'Lucid', 'Arial', 'Helvetica', 'Avant Garde', sans-serif; text-anchor: middle" x="176.4255" y="240.519062" transform="rotate(-0 176.4255 240.519062)">16</text>
     </g>
    </g>
    <g id="xtick_6">
     <g id="line2d_6">
      <g>
       <use xlink:href="#mb4850c29ec" x="212.1375" y="228.96" style="stroke: #000000; stroke-width: 0.8"/>
      </g>
     </g>
     <g id="text_6">
      <text style="font: 6px 'DejaVu Sans', 'Bitstream Vera Sans', 'Computer Modern Sans Serif', 'Lucida Grande', 'Verdana', 'Geneva', 'Lucid', 'Arial', 'Helvetica', 'Avant Garde', sans-serif; text-anchor: middle" x="212.1375" y="240.519062" transform="rotate(-0 212.1375 240.519062)">20</text>
     </g>
    </g>
    <g id="xtick_7">
     <g id="line2d_7">
      <g>
       <use xlink:href="#mb4850c29ec" x="247.8495" y="228.96" style="stroke: #000000; stroke-width: 0.8"/>
      </g>
     </g>
     <g id="text_7">
      <text style="font: 6px 'DejaVu Sans', 'Bitstream Vera Sans', 'Computer Modern Sans Serif', 'Lucida Grande', 'Verdana', 'Geneva', 'Lucid', 'Arial', 'Helvetica', 'Avant Garde', sans-serif; text-anchor: middle" x="247.8495" y="240.519062" transform="rotate(-0 247.8495 240.519062)">24</text>
     </g>
    </g>
    <g id="text_8">
     <text style="font: 8px 'DejaVu Sans', 'Bitstream Vera Sans', 'Computer Modern Sans Serif', 'Lucida Grande', 'Verdana', 'Geneva', 'Lucid', 'Arial', 'Helvetica', 'Avant Garde', sans-serif; text-anchor: middle" x="145.1775" y="251.845625" transform="rotate(-0 145.1775 251.845625)">Experimental time (hpf)</text>
    </g>
   </g>
   <g id="matplotlib.axis_2">
    <g id="ytick_1">
     <g id="line2d_8">
      <defs>
       <path id="m538b920519" d="M 0 0 
L -3.5 0 
" style="stroke: #000000; stroke-width: 0.8"/>
      </defs>
      <g>
       <use xlink:href="#m538b920519" x="33.5775" y="228.96" style="stroke: #000000; stroke-width: 0.8"/>
      </g>
     </g>
     <g id="text_9">
      <text style="font: 6px 'DejaVu Sans', 'Bitstream Vera Sans', 'Computer Modern Sans Serif', 'Lucida Grande', 'Verdana', 'Geneva', 'Lucid', 'Arial', 'Helvetica', 'Avant Garde', sans-serif; text-anchor: end" x="26.5775" y="231.239531" transform="rotate(-0 26.5775 231.239531)">0</text>
     </g>
    </g>
    <g id="ytick_2">
     <g id="line2d_9">
      <g>
       <use xlink:href="#m538b920519" x="33.5775" y="193.4784" style="stroke: #000000; stroke-width: 0.8"/>
      </g>
     </g>
     <g id="text_10">
      <text style="font: 6px 'DejaVu Sans', 'Bitstream Vera Sans', 'Computer Modern Sans Serif', 'Lucida Grande', 'Verdana', 'Geneva', 'Lucid', 'Arial', 'Helvetica', 'Avant Garde', sans-serif; text-anchor: end" x="26.5775" y="195.757931" transform="rotate(-0 26.5775 195.757931)">4</text>
     </g>
    </g>
    <g id="ytick_3">
     <g id="line2d_10">
      <g>
       <use xlink:href="#m538b920519" x="33.5775" y="157.9968" style="stroke: #000000; stroke-width: 0.8"/>
      </g>
     </g>
     <g id="text_11">
      <text style="font: 6px 'DejaVu Sans', 'Bitstream Vera Sans', 'Computer Modern Sans Serif', 'Lucida Grande', 'Verdana', 'Geneva', 'Lucid', 'Arial', 'Helvetica', 'Avant Garde', sans-serif; text-anchor: end" x="26.5775" y="160.276331" transform="rotate(-0 26.5775 160.276331)">8</text>
     </g>
    </g>
    <g id="ytick_4">
     <g id="line2d_11">
      <g>
       <use xlink:href="#m538b920519" x="33.5775" y="122.5152" style="stroke: #000000; stroke-width: 0.8"/>
      </g>
     </g>
     <g id="text_12">
      <text style="font: 6px 'DejaVu Sans', 'Bitstream Vera Sans', 'Computer Modern Sans Serif', 'Lucida Grande', 'Verdana', 'Geneva', 'Lucid', 'Arial', 'Helvetica', 'Avant Garde', sans-serif; text-anchor: end" x="26.5775" y="124.794731" transform="rotate(-0 26.5775 124.794731)">12</text>
     </g>
    </g>
    <g id="ytick_5">
     <g id="line2d_12">
      <g>
       <use xlink:href="#m538b920519" x="33.5775" y="87.0336" style="stroke: #000000; stroke-width: 0.8"/>
      </g>
     </g>
     <g id="text_13">
      <text style="font: 6px 'DejaVu Sans', 'Bitstream Vera Sans', 'Computer Modern Sans Serif', 'Lucida Grande', 'Verdana', 'Geneva', 'Lucid', 'Arial', 'Helvetica', 'Avant Garde', sans-serif; text-anchor: end" x="26.5775" y="89.313131" transform="rotate(-0 26.5775 89.313131)">16</text>
     </g>
    </g>
    <g id="ytick_6">
     <g id="line2d_13">
      <g>
       <use xlink:href="#m538b920519" x="33.5775" y="51.552" style="stroke: #000000; stroke-width: 0.8"/>
      </g>
     </g>
     <g id="text_14">
      <text style="font: 6px 'DejaVu Sans', 'Bitstream Vera Sans', 'Computer Modern Sans Serif', 'Lucida Grande', 'Verdana', 'Geneva', 'Lucid', 'Arial', 'Helvetica', 'Avant Garde', sans-serif; text-anchor: end" x="26.5775" y="53.831531" transform="rotate(-0 26.5775 53.831531)">20</text>
     </g>
    </g>
    <g id="ytick_7">
     <g id="line2d_14">
      <g>
       <use xlink:href="#m538b920519" x="33.5775" y="16.0704" style="stroke: #000000; stroke-width: 0.8"/>
      </g>
     </g>
     <g id="text_15">
      <text style="font: 6px 'DejaVu Sans', 'Bitstream Vera Sans', 'Computer Modern Sans Serif', 'Lucida Grande', 'Verdana', 'Geneva', 'Lucid', 'Arial', 'Helvetica', 'Avant Garde', sans-serif; text-anchor: end" x="26.5775" y="18.349931" transform="rotate(-0 26.5775 18.349931)">24</text>
     </g>
    </g>
    <g id="text_16">
     <text style="font: 8px 'DejaVu Sans', 'Bitstream Vera Sans', 'Computer Modern Sans Serif', 'Lucida Grande', 'Verdana', 'Geneva', 'Lucid', 'Arial', 'Helvetica', 'Avant Garde', sans-serif; text-anchor: middle" x="13.27875" y="118.08" transform="rotate(-90 13.27875 118.08)">Developmental age (hpf)</text>
    </g>
   </g>
   <g id="line2d_15">
    <path d="M 42.5055 220.34791 
L 242.047675 -1 
L 242.047675 -1 
" clip-path="url(#p1d8c30b77a)" style="fill: none; stroke: #2fb47c; stroke-linecap: square"/>
   </g>
   <g id="line2d_16">
    <path d="M 42.5055 220.309513 
L 245.155803 -1 
L 245.155803 -1 
" clip-path="url(#p1d8c30b77a)" style="fill: none; stroke-dasharray: 3.7,1.6; stroke-dashoffset: 0; stroke: #2fb47c"/>
   </g>
   <g id="line2d_17">
    <path d="M 42.5055 220.387642 
L 238.931358 -1 
L 238.931358 -1 
" clip-path="url(#p1d8c30b77a)" style="fill: none; stroke-dasharray: 3.7,1.6; stroke-dashoffset: 0; stroke: #2fb47c"/>
   </g>
   <g id="patch_3">
    <path d="M 33.5775 228.96 
L 33.5775 7.2 
" style="fill: none; stroke: #000000; stroke-width: 0.8; stroke-linejoin: miter; stroke-linecap: square"/>
   </g>
   <g id="patch_4">
    <path d="M 33.5775 228.96 
L 256.7775 228.96 
" style="fill: none; stroke: #000000; stroke-width: 0.8; stroke-linejoin: miter; stroke-linecap: square"/>
   </g>
   <g id="legend_1">
    <g id="patch_5">
     <path d="M 37.6305 28.829269 
L 196.698989 28.829269 
Q 197.856989 28.829269 197.856989 27.671269 
L 197.856989 11.253 
Q 197.856989 10.095 196.698989 10.095 
L 37.6305 10.095 
Q 36.4725 10.095 36.4725 11.253 
L 36.4725 27.671269 
Q 36.4725 28.829269 37.6305 28.829269 
z
" style="fill: #ffffff; opacity: 0.8; stroke: #cccccc; stroke-linejoin: miter"/>
    </g>
    <g id="line2d_18">
     <path d="M 38.7885 14.783995 
L 44.5785 14.783995 
L 50.3685 14.783995 
" style="fill: none; stroke: #2fb47c; stroke-linecap: square"/>
    </g>
    <g id="text_17">
     <text style="font: 5.79px 'DejaVu Sans', 'Bitstream Vera Sans', 'Computer Modern Sans Serif', 'Lucida Grande', 'Verdana', 'Geneva', 'Lucid', 'Arial', 'Helvetica', 'Avant Garde', sans-serif; text-anchor: start" x="55.0005" y="16.810495" transform="rotate(-0 55.0005 16.810495)">Linear fit: slope=1.117 [1.099,1.134], R2=0.983</text>
    </g>
    <g id="patch_6">
     <path d="M 38.7885 25.30913 
L 50.3685 25.30913 
L 50.3685 21.25613 
L 38.7885 21.25613 
z
" style="fill: #2fb47c; fill-opacity: 0.3"/>
    </g>
    <g id="text_18">
     <text style="font: 5.79px 'DejaVu Sans', 'Bitstream Vera Sans', 'Computer Modern Sans Serif', 'Lucida Grande', 'Verdana', 'Geneva', 'Lucid', 'Arial', 'Helvetica', 'Avant Garde', sans-serif; text-anchor: start" x="55.0005" y="25.30913" transform="rotate(-0 55.0005 25.30913)">Median:30.0C</text>
    </g>
   </g>
  </g>
 </g>
 <defs>
  <clipPath id="p1d8c30b77a">
   <rect x="33.5775" y="7.2" width="223.2" height="221.76"/>
  </clipPath>
 </defs>
</svg>
