<?xml version="1.0" encoding="utf-8" standalone="no"?>
<!DOCTYPE svg PUBLIC "-//W3C//DTD SVG 1.1//EN"
  "http://www.w3.org/Graphics/SVG/1.1/DTD/svg11.dtd">
<svg xmlns:xlink="http://www.w3.org/1999/xlink" width="263.9775pt" height="260.709375pt" viewBox="0 0 263.9775 260.709375" xmlns="http://www.w3.org/2000/svg" version="1.1">
 <metadata>
  <rdf:RDF xmlns:dc="http://purl.org/dc/elements/1.1/" xmlns:cc="http://creativecommons.org/ns#" xmlns:rdf="http://www.w3.org/1999/02/22-rdf-syntax-ns#">
   <cc:Work>
    <dc:type rdf:resource="http://purl.org/dc/dcmitype/StillImage"/>
    <dc:date>2023-07-28T13:17:09.219673</dc:date>
    <dc:format>image/svg+xml</dc:format>
    <dc:creator>
     <cc:Agent>
      <dc:title>Matplotlib v3.7.0, https://matplotlib.org/</dc:title>
     </cc:Agent>
    </dc:creator>
   </cc:Work>
  </rdf:RDF>
 </metadata>
 <defs>
  <style type="text/css">*{stroke-linejoin: round; stroke-linecap: butt}</style>
 </defs>
 <g id="figure_1">
  <g id="patch_1">
   <path d="M 0 260.709375 
L 263.9775 260.709375 
L 263.9775 0 
L 0 0 
z
" style="fill: #ffffff"/>
  </g>
  <g id="axes_1">
   <g id="patch_2">
    <path d="M 33.5775 228.96 
L 256.7775 228.96 
L 256.7775 7.2 
L 33.5775 7.2 
z
" style="fill: #ffffff"/>
   </g>
   <g id="PolyCollection_1">
    <path d="M 49.2015 217.1328 
L 49.2015 208.2624 
L 49.4991 209.7408 
L 49.7967 208.2624 
L 50.0943 209.0016 
L 50.3919 208.2624 
L 50.6895 206.0448 
L 50.9871 206.0448 
L 51.2847 204.5664 
L 51.5823 206.0448 
L 51.8799 203.8272 
L 52.1775 201.9792 
L 52.4751 201.6096 
L 52.7727 203.088 
L 53.0703 201.6096 
L 53.3679 201.6096 
L 53.6655 200.1312 
L 53.9631 199.392 
L 54.2607 199.392 
L 54.5583 199.392 
L 54.8559 199.392 
L 55.1535 200.8704 
L 55.4511 200.8704 
L 55.7487 200.8704 
L 56.0463 199.392 
L 56.3439 199.392 
L 56.6415 200.8704 
L 56.9391 199.392 
L 57.2367 200.8704 
L 57.5343 199.7616 
L 57.8319 198.6528 
L 58.1295 198.6528 
L 58.4271 199.392 
L 58.7247 197.9136 
L 59.0223 197.1744 
L 59.3199 197.9136 
L 59.6175 197.9136 
L 59.9151 194.9568 
L 60.2127 197.1744 
L 60.5103 197.1744 
L 60.8079 197.1744 
L 61.1055 197.1744 
L 61.4031 194.2176 
L 61.7007 195.696 
L 61.9983 195.696 
L 62.2959 194.9568 
L 62.5935 192.7392 
L 62.8911 192.7392 
L 63.1887 192.7392 
L 63.4863 192.7392 
L 63.7839 192.7392 
L 64.0815 192.7392 
L 64.3791 192.3696 
L 64.6767 189.4128 
L 64.9743 188.304 
L 65.2719 189.0432 
L 65.5695 189.7824 
L 65.8671 189.4128 
L 66.1647 189.4128 
L 66.4623 186.456 
L 66.7599 188.304 
L 67.0575 187.5648 
L 67.3551 184.2384 
L 67.6527 188.304 
L 67.9503 189.7824 
L 68.2479 183.4992 
L 68.5455 186.0864 
L 68.8431 183.1296 
L 69.1407 184.608 
L 69.4383 183.1296 
L 69.7359 182.3904 
L 70.0335 183.1296 
L 70.3311 182.3904 
L 70.6287 183.4992 
L 70.9263 182.76 
L 71.2239 183.1296 
L 71.5215 183.1296 
L 71.8191 181.6512 
L 72.1167 181.6512 
L 72.4143 182.3904 
L 72.7119 182.3904 
L 73.0095 180.912 
L 73.3071 183.1296 
L 73.6047 181.6512 
L 73.9023 181.6512 
L 74.1999 180.912 
L 74.4975 181.6512 
L 74.7951 181.6512 
L 75.0927 181.6512 
L 75.3903 181.6512 
L 75.6879 181.6512 
L 75.9855 181.6512 
L 76.2831 178.6944 
L 76.5807 182.0208 
L 76.8783 174.2592 
L 77.1759 179.4336 
L 77.4735 177.9552 
L 77.7711 177.9552 
L 78.0687 175.7376 
L 78.3663 175.7376 
L 78.6639 175.7376 
L 78.9615 176.1072 
L 79.2591 175.7376 
L 79.5567 170.5632 
L 79.8543 174.2592 
L 80.1519 172.0416 
L 80.4495 170.5632 
L 80.7471 171.3024 
L 81.0447 169.0848 
L 81.3423 172.0416 
L 81.6399 171.3024 
L 81.9375 168.3456 
L 82.2351 166.128 
L 82.5327 165.3888 
L 82.8303 163.9104 
L 83.1279 159.4752 
L 83.4255 159.8448 
L 83.7231 157.9968 
L 84.0207 161.6928 
L 84.3183 161.3232 
L 84.6159 161.3232 
L 84.9135 161.3232 
L 85.2111 158.736 
L 85.5087 155.04 
L 85.8063 156.5184 
L 86.1039 155.4096 
L 86.4015 157.6272 
L 86.6991 155.7792 
L 86.9967 157.9968 
L 87.2943 156.5184 
L 87.5919 157.6272 
L 87.8895 157.9968 
L 88.1871 157.9968 
L 88.4847 157.9968 
L 88.7823 157.9968 
L 89.0799 157.6272 
L 89.3775 157.9968 
L 89.6751 157.9968 
L 89.9727 157.9968 
L 90.2703 158.736 
L 90.5679 158.736 
L 90.8655 158.736 
L 91.1631 158.736 
L 91.4607 158.736 
L 91.7583 160.2144 
L 92.0559 160.2144 
L 92.3535 159.1056 
L 92.6511 158.3664 
L 92.9487 159.4752 
L 93.2463 159.8448 
L 93.5439 155.04 
L 93.8415 159.4752 
L 94.1391 157.2576 
L 94.4367 158.3664 
L 94.7343 158.3664 
L 95.0319 157.9968 
L 95.3295 154.3008 
L 95.6271 155.04 
L 95.9247 155.7792 
L 96.2223 155.7792 
L 96.5199 155.7792 
L 96.8175 157.9968 
L 97.1151 155.7792 
L 97.4127 155.7792 
L 97.7103 155.04 
L 98.0079 154.6704 
L 98.3055 154.3008 
L 98.6031 155.04 
L 98.9007 154.6704 
L 99.1983 155.04 
L 99.4959 152.8224 
L 99.7935 155.7792 
L 100.0911 144.6912 
L 100.3887 149.1264 
L 100.6863 149.1264 
L 100.9839 153.5616 
L 101.2815 149.1264 
L 101.5791 142.104 
L 101.8767 145.4304 
L 102.1743 145.8 
L 102.4719 139.5168 
L 102.7695 149.8656 
L 103.0671 143.2128 
L 103.3647 140.9952 
L 103.6623 140.6256 
L 103.9599 137.6688 
L 104.2575 140.6256 
L 104.5551 139.5168 
L 104.8527 138.7776 
L 105.1503 139.5168 
L 105.4479 138.7776 
L 105.7455 143.5824 
L 106.0431 144.6912 
L 106.3407 142.4736 
L 106.6383 142.4736 
L 106.9359 143.952 
L 107.2335 137.6688 
L 107.5311 122.1456 
L 107.8287 143.2128 
L 108.1263 135.0816 
L 108.4239 119.928 
L 108.7215 121.0368 
L 109.0191 120.6672 
L 109.3167 111.7968 
L 109.6143 119.928 
L 109.9119 115.8624 
L 110.2095 126.2112 
L 110.5071 125.472 
L 110.8047 119.1888 
L 111.1023 124.7328 
L 111.3999 117.7104 
L 111.6975 119.1888 
L 111.9951 123.2544 
L 112.2927 122.1456 
L 112.5903 121.776 
L 112.8879 121.776 
L 113.1855 121.776 
L 113.4831 121.0368 
L 113.7807 121.0368 
L 114.0783 121.0368 
L 114.3759 125.472 
L 114.6735 121.776 
L 114.9711 121.0368 
L 115.2687 121.4064 
L 115.5663 121.776 
L 115.8639 121.776 
L 116.1615 126.2112 
L 116.4591 125.472 
L 116.7567 121.776 
L 117.0543 121.776 
L 117.3519 122.5152 
L 117.6495 121.0368 
L 117.9471 122.5152 
L 118.2447 119.5584 
L 118.5423 118.8192 
L 118.8399 118.8192 
L 119.1375 116.6016 
L 119.4351 110.688 
L 119.7327 118.08 
L 120.0303 116.6016 
L 120.3279 119.5584 
L 120.6255 111.4272 
L 120.9231 112.1664 
L 121.2207 112.9056 
L 121.5183 112.9056 
L 121.8159 110.688 
L 122.1135 110.3184 
L 122.4111 109.9488 
L 122.7087 114.384 
L 123.0063 105.8832 
L 123.3039 88.512 
L 123.6015 102.5568 
L 123.8991 91.4688 
L 124.1967 101.0784 
L 124.4943 87.0336 
L 124.7919 82.5984 
L 125.0895 87.0336 
L 125.3871 64.488 
L 125.6847 80.3808 
L 125.9823 80.3808 
L 126.2799 65.5968 
L 126.5775 46.7472 
L 126.8751 54.5088 
L 127.1727 53.4 
L 127.4703 38.2464 
L 127.7679 41.9424 
L 128.0655 33.8112 
L 128.3631 44.16 
L 128.6607 39.7248 
L 128.9583 44.16 
L 129.2559 46.3776 
L 129.5535 38.2464 
L 129.8511 26.7888 
L 130.1487 46.3776 
L 130.4463 50.8128 
L 130.7439 45.6384 
L 131.0415 45.6384 
L 131.3391 44.16 
L 131.6367 39.7248 
L 131.9343 43.4208 
L 132.2319 29.376 
L 132.5295 44.16 
L 132.8271 26.4192 
L 133.1247 53.0304 
L 133.4223 50.0736 
L 133.7199 48.5952 
L 134.0175 33.072 
L 134.3151 29.376 
L 134.6127 30.1152 
L 134.9103 49.3344 
L 135.2079 44.8992 
L 135.5055 30.1152 
L 135.8031 33.8112 
L 136.1007 30.8544 
L 136.3983 32.3328 
L 136.6959 32.3328 
L 136.9935 33.8112 
L 137.2911 47.856 
L 137.5887 44.16 
L 137.8863 43.4208 
L 138.1839 48.5952 
L 138.4815 53.0304 
L 138.7791 42.6816 
L 139.0767 49.3344 
L 139.3743 39.7248 
L 139.6719 26.7888 
L 139.9695 41.2032 
L 140.2671 46.008 
L 140.5647 45.2688 
L 140.8623 44.8992 
L 141.1599 47.4864 
L 141.4575 50.0736 
L 141.7551 54.5088 
L 142.0527 53.0304 
L 142.3503 47.4864 
L 142.6479 53.0304 
L 142.9455 54.5088 
L 143.2431 50.4432 
L 143.5407 53.7696 
L 143.8383 46.008 
L 144.1359 42.6816 
L 144.4335 52.2912 
L 144.7311 44.16 
L 145.0287 45.2688 
L 145.3263 37.1376 
L 145.6239 26.4192 
L 145.9215 32.3328 
L 146.2191 26.4192 
L 146.5167 30.8544 
L 146.8143 33.072 
L 147.1119 21.984 
L 147.4095 25.68 
L 147.7071 28.6368 
L 148.0047 33.8112 
L 148.3023 20.5056 
L 148.5999 40.464 
L 148.8975 29.376 
L 149.1951 34.5504 
L 149.4927 31.5936 
L 149.7903 34.5504 
L 150.0879 31.5936 
L 150.3855 32.3328 
L 150.6831 33.072 
L 150.9807 36.0288 
L 151.2783 34.5504 
L 151.5759 40.464 
L 151.8735 34.5504 
L 152.1711 40.464 
L 152.4687 33.8112 
L 152.7663 40.464 
L 153.0639 43.4208 
L 153.3615 41.2032 
L 153.6591 41.2032 
L 153.9567 37.5072 
L 154.2543 49.3344 
L 154.5519 47.1168 
L 154.8495 49.3344 
L 155.1471 47.856 
L 155.4447 49.3344 
L 155.7423 49.3344 
L 156.0399 49.3344 
L 156.3375 40.464 
L 156.6351 51.552 
L 156.9327 47.856 
L 157.2303 49.3344 
L 157.5279 41.9424 
L 157.8255 44.8992 
L 158.1231 49.704 
L 158.4207 43.4208 
L 158.7183 43.4208 
L 159.0159 44.16 
L 159.3135 41.5728 
L 159.6111 52.2912 
L 159.9087 49.3344 
L 160.2063 47.1168 
L 160.5039 43.7904 
L 160.8015 50.0736 
L 161.0991 40.464 
L 161.3967 43.7904 
L 161.6943 49.3344 
L 161.9919 47.1168 
L 162.2895 39.3552 
L 162.5871 38.616 
L 162.8847 50.8128 
L 163.1823 38.2464 
L 163.4799 39.7248 
L 163.7775 41.9424 
L 164.0751 35.2896 
L 164.3727 41.2032 
L 164.6703 37.5072 
L 164.9679 39.7248 
L 165.2655 38.2464 
L 165.5631 34.1808 
L 165.8607 36.3984 
L 166.1583 31.5936 
L 166.4559 31.9632 
L 166.7535 36.768 
L 167.0511 36.0288 
L 167.3487 33.4416 
L 167.6463 30.8544 
L 167.9439 35.2896 
L 168.2415 28.2672 
L 168.5391 30.8544 
L 168.8367 26.7888 
L 169.1343 31.5936 
L 169.4319 30.8544 
L 169.7295 33.8112 
L 170.0271 31.9632 
L 170.3247 28.6368 
L 170.6223 33.4416 
L 170.9199 28.2672 
L 171.2175 29.376 
L 171.5151 34.1808 
L 171.8127 30.1152 
L 172.1103 28.6368 
L 172.4079 31.9632 
L 172.7055 33.072 
L 173.0031 25.68 
L 173.3007 26.4192 
L 173.5983 26.4192 
L 173.8959 27.8976 
L 174.1935 28.2672 
L 174.4911 28.6368 
L 174.7887 29.0064 
L 175.0863 27.8976 
L 175.3839 27.8976 
L 175.6815 25.3104 
L 175.9791 24.9408 
L 176.2767 26.7888 
L 176.5743 26.7888 
L 176.8719 29.0064 
L 177.1695 30.1152 
L 177.4671 29.376 
L 177.7647 28.2672 
L 178.0623 30.4848 
L 178.3599 29.376 
L 178.6575 26.7888 
L 178.9551 25.3104 
L 179.2527 27.1584 
L 179.5503 29.376 
L 179.8479 25.3104 
L 180.1455 29.7456 
L 180.4431 27.528 
L 180.7407 29.376 
L 181.0383 21.984 
L 181.3359 25.68 
L 181.6335 30.8544 
L 181.9311 29.0064 
L 182.2287 27.1584 
L 182.5263 27.8976 
L 182.8239 27.8976 
L 183.1215 24.2016 
L 183.4191 25.3104 
L 183.7167 26.0496 
L 184.0143 27.528 
L 184.3119 25.3104 
L 184.6095 29.7456 
L 184.9071 29.376 
L 185.2047 28.6368 
L 185.5023 30.8544 
L 185.7999 24.5712 
L 186.0975 21.984 
L 186.3951 29.0064 
L 186.6927 25.68 
L 186.9903 26.0496 
L 187.2879 27.1584 
L 187.5855 29.0064 
L 187.8831 27.528 
L 188.1807 26.4192 
L 188.4783 33.072 
L 188.7759 25.68 
L 189.0735 21.984 
L 189.3711 29.0064 
L 189.6687 30.8544 
L 189.9663 24.5712 
L 190.2639 16.8096 
L 190.5615 20.5056 
L 190.8591 16.8096 
L 191.1567 28.6368 
L 191.4543 21.2448 
L 191.7519 20.8752 
L 192.0495 23.4624 
L 192.3471 23.832 
L 192.6447 22.7232 
L 192.9423 17.5488 
L 193.2399 21.6144 
L 193.5375 21.2448 
L 193.8351 22.7232 
L 194.1327 17.5488 
L 194.4303 23.0928 
L 194.7279 19.3968 
L 195.0255 20.5056 
L 195.3231 22.7232 
L 195.6207 18.288 
L 195.9183 17.9184 
L 196.2159 24.5712 
L 196.5135 22.3536 
L 196.8111 22.7232 
L 197.1087 17.9184 
L 197.4063 19.7664 
L 197.7039 20.136 
L 198.0015 21.984 
L 198.2991 19.7664 
L 198.5967 22.3536 
L 198.8943 21.2448 
L 199.1919 21.984 
L 199.4895 26.4192 
L 199.7871 20.5056 
L 200.0847 20.5056 
L 200.3823 22.7232 
L 200.6799 21.2448 
L 200.9775 21.2448 
L 201.2751 21.6144 
L 201.5727 21.984 
L 201.8703 21.6144 
L 202.1679 20.5056 
L 202.4655 20.8752 
L 202.7631 17.5488 
L 203.0607 21.2448 
L 203.3583 21.2448 
L 203.6559 21.2448 
L 203.9535 19.3968 
L 204.2511 21.2448 
L 204.5487 18.288 
L 204.8463 19.0272 
L 205.1439 20.5056 
L 205.4415 19.7664 
L 205.7391 22.3536 
L 206.0367 21.984 
L 206.3343 17.1792 
L 206.6319 19.3968 
L 206.6319 50.4432 
L 206.6319 50.4432 
L 206.3343 60.0528 
L 206.0367 53.0304 
L 205.7391 53.4 
L 205.4415 53.7696 
L 205.1439 53.0304 
L 204.8463 60.4224 
L 204.5487 59.6832 
L 204.2511 53.7696 
L 203.9535 56.3568 
L 203.6559 59.6832 
L 203.3583 53.7696 
L 203.0607 59.6832 
L 202.7631 58.944 
L 202.4655 54.8784 
L 202.1679 54.5088 
L 201.8703 52.6608 
L 201.5727 53.0304 
L 201.2751 55.6176 
L 200.9775 56.7264 
L 200.6799 53.7696 
L 200.3823 58.2048 
L 200.0847 57.4656 
L 199.7871 58.944 
L 199.4895 53.0304 
L 199.1919 58.944 
L 198.8943 58.2048 
L 198.5967 57.8352 
L 198.2991 55.248 
L 198.0015 57.4656 
L 197.7039 54.1392 
L 197.4063 61.1616 
L 197.1087 63.7488 
L 196.8111 61.1616 
L 196.5135 63.7488 
L 196.2159 58.5744 
L 195.9183 68.184 
L 195.6207 62.64 
L 195.3231 64.1184 
L 195.0255 61.9008 
L 194.7279 66.7056 
L 194.4303 60.0528 
L 194.1327 64.8576 
L 193.8351 65.5968 
L 193.5375 65.5968 
L 193.2399 63.0096 
L 192.9423 64.8576 
L 192.6447 65.5968 
L 192.3471 59.3136 
L 192.0495 61.9008 
L 191.7519 65.2272 
L 191.4543 67.0752 
L 191.1567 62.64 
L 190.8591 71.5104 
L 190.5615 67.8144 
L 190.2639 71.5104 
L 189.9663 65.9664 
L 189.6687 57.4656 
L 189.3711 60.0528 
L 189.0735 66.336 
L 188.7759 62.64 
L 188.4783 58.2048 
L 188.1807 64.8576 
L 187.8831 67.4448 
L 187.5855 60.0528 
L 187.2879 71.5104 
L 186.9903 67.4448 
L 186.6927 72.9888 
L 186.3951 65.9664 
L 186.0975 69.2928 
L 185.7999 68.9232 
L 185.5023 66.336 
L 185.2047 70.032 
L 184.9071 70.7712 
L 184.6095 69.6624 
L 184.3119 68.184 
L 184.0143 70.4016 
L 183.7167 71.88 
L 183.4191 69.6624 
L 183.1215 71.5104 
L 182.8239 72.2496 
L 182.5263 72.2496 
L 182.2287 71.5104 
L 181.9311 71.88 
L 181.6335 66.336 
L 181.3359 74.4672 
L 181.0383 72.2496 
L 180.7407 72.2496 
L 180.4431 76.3152 
L 180.1455 71.1408 
L 179.8479 68.184 
L 179.5503 70.7712 
L 179.2527 71.5104 
L 178.9551 68.184 
L 178.6575 66.7056 
L 178.3599 70.7712 
L 178.0623 73.3584 
L 177.7647 69.6624 
L 177.4671 70.7712 
L 177.1695 68.5536 
L 176.8719 68.9232 
L 176.5743 78.5328 
L 176.2767 78.5328 
L 175.9791 72.2496 
L 175.6815 74.0976 
L 175.3839 76.6848 
L 175.0863 75.2064 
L 174.7887 71.88 
L 174.4911 75.9456 
L 174.1935 74.0976 
L 173.8959 78.1632 
L 173.5983 75.2064 
L 173.3007 79.6416 
L 173.0031 78.9024 
L 172.7055 83.3376 
L 172.4079 80.7504 
L 172.1103 81.8592 
L 171.8127 77.424 
L 171.5151 81.4896 
L 171.2175 70.7712 
L 170.9199 78.5328 
L 170.6223 82.2288 
L 170.3247 77.424 
L 170.0271 80.7504 
L 169.7295 84.0768 
L 169.4319 81.12 
L 169.1343 83.3376 
L 168.8367 78.5328 
L 168.5391 81.12 
L 168.2415 81.4896 
L 167.9439 79.6416 
L 167.6463 81.12 
L 167.3487 83.7072 
L 167.0511 83.3376 
L 166.7535 82.5984 
L 166.4559 82.2288 
L 166.1583 83.3376 
L 165.8607 85.1856 
L 165.5631 87.4032 
L 165.2655 82.5984 
L 164.9679 87.0336 
L 164.6703 84.816 
L 164.3727 84.0768 
L 164.0751 84.0768 
L 163.7775 86.2944 
L 163.4799 82.5984 
L 163.1823 85.5552 
L 162.8847 84.816 
L 162.5871 84.4464 
L 162.2895 92.5776 
L 161.9919 85.5552 
L 161.6943 87.7728 
L 161.3967 86.664 
L 161.0991 92.208 
L 160.8015 84.0768 
L 160.5039 92.5776 
L 160.2063 89.9904 
L 159.9087 86.2944 
L 159.6111 84.816 
L 159.3135 94.7952 
L 159.0159 94.4256 
L 158.7183 93.6864 
L 158.4207 93.6864 
L 158.1231 92.5776 
L 157.8255 92.208 
L 157.5279 95.1648 
L 157.2303 93.6864 
L 156.9327 89.2512 
L 156.6351 91.4688 
L 156.3375 96.6432 
L 156.0399 93.6864 
L 155.7423 93.6864 
L 155.4447 93.6864 
L 155.1471 95.1648 
L 154.8495 93.6864 
L 154.5519 95.904 
L 154.2543 93.6864 
L 153.9567 102.5568 
L 153.6591 101.8176 
L 153.3615 101.8176 
L 153.0639 99.6 
L 152.7663 102.5568 
L 152.4687 106.2528 
L 152.1711 102.5568 
L 151.8735 108.4704 
L 151.5759 102.5568 
L 151.2783 108.4704 
L 150.9807 104.0352 
L 150.6831 109.9488 
L 150.3855 110.688 
L 150.0879 111.4272 
L 149.7903 108.4704 
L 149.4927 105.5136 
L 149.1951 108.4704 
L 148.8975 113.6448 
L 148.5999 102.5568 
L 148.3023 122.5152 
L 148.0047 109.2096 
L 147.7071 114.384 
L 147.4095 117.3408 
L 147.1119 121.0368 
L 146.8143 109.9488 
L 146.5167 116.6016 
L 146.2191 121.0368 
L 145.9215 115.1232 
L 145.6239 121.0368 
L 145.3263 116.9712 
L 145.0287 119.1888 
L 144.7311 122.5152 
L 144.4335 117.3408 
L 144.1359 122.5152 
L 143.8383 118.4496 
L 143.5407 120.2976 
L 143.2431 122.8848 
L 142.9455 119.5584 
L 142.6479 121.0368 
L 142.3503 122.8848 
L 142.0527 121.0368 
L 141.7551 119.5584 
L 141.4575 123.9936 
L 141.1599 122.8848 
L 140.8623 129.168 
L 140.5647 125.1024 
L 140.2671 124.3632 
L 139.9695 132.864 
L 139.6719 131.7552 
L 139.3743 134.3424 
L 139.0767 124.7328 
L 138.7791 131.3856 
L 138.4815 121.0368 
L 138.1839 125.472 
L 137.8863 130.6464 
L 137.5887 129.9072 
L 137.2911 126.2112 
L 136.9935 140.256 
L 136.6959 141.7344 
L 136.3983 141.7344 
L 136.1007 143.2128 
L 135.8031 140.256 
L 135.5055 143.952 
L 135.2079 139.5168 
L 134.9103 138.0384 
L 134.6127 143.952 
L 134.3151 144.6912 
L 134.0175 146.9088 
L 133.7199 146.1696 
L 133.4223 144.6912 
L 133.1247 141.7344 
L 132.8271 147.648 
L 132.5295 150.6048 
L 132.2319 144.6912 
L 131.9343 151.344 
L 131.6367 155.04 
L 131.3391 153.5616 
L 131.0415 149.1264 
L 130.7439 149.1264 
L 130.4463 149.8656 
L 130.1487 151.344 
L 129.8511 158.3664 
L 129.5535 156.5184 
L 129.2559 154.3008 
L 128.9583 153.5616 
L 128.6607 155.04 
L 128.3631 153.5616 
L 128.0655 160.9536 
L 127.7679 152.8224 
L 127.4703 156.5184 
L 127.1727 155.4096 
L 126.8751 152.0832 
L 126.5775 154.6704 
L 126.2799 151.344 
L 125.9823 151.344 
L 125.6847 151.344 
L 125.3871 151.7136 
L 125.0895 149.1264 
L 124.7919 150.6048 
L 124.4943 149.1264 
L 124.1967 145.4304 
L 123.8991 152.0832 
L 123.6015 143.952 
L 123.3039 150.6048 
L 123.0063 142.8432 
L 122.7087 140.9952 
L 122.4111 143.952 
L 122.1135 144.3216 
L 121.8159 144.6912 
L 121.5183 142.4736 
L 121.2207 142.4736 
L 120.9231 144.6912 
L 120.6255 143.952 
L 120.3279 140.256 
L 120.0303 143.2128 
L 119.7327 141.7344 
L 119.4351 149.1264 
L 119.1375 143.2128 
L 118.8399 140.9952 
L 118.5423 140.9952 
L 118.2447 143.2128 
L 117.9471 143.2128 
L 117.6495 146.1696 
L 117.3519 144.6912 
L 117.0543 145.4304 
L 116.7567 145.4304 
L 116.4591 141.7344 
L 116.1615 140.9952 
L 115.8639 145.4304 
L 115.5663 145.4304 
L 115.2687 146.5392 
L 114.9711 149.1264 
L 114.6735 145.4304 
L 114.3759 143.2128 
L 114.0783 147.648 
L 113.7807 149.1264 
L 113.4831 149.1264 
L 113.1855 148.3872 
L 112.8879 148.3872 
L 112.5903 148.3872 
L 112.2927 148.7568 
L 111.9951 146.9088 
L 111.6975 156.1488 
L 111.3999 160.584 
L 111.1023 154.3008 
L 110.8047 163.5408 
L 110.5071 156.5184 
L 110.2095 152.8224 
L 109.9119 169.0848 
L 109.6143 171.672 
L 109.3167 173.8896 
L 109.0191 172.4112 
L 108.7215 174.2592 
L 108.4239 171.672 
L 108.1263 179.4336 
L 107.8287 174.2592 
L 107.5311 176.8464 
L 107.2335 179.064 
L 106.9359 173.52 
L 106.6383 174.9984 
L 106.3407 174.9984 
L 106.0431 172.7808 
L 105.7455 174.6288 
L 105.4479 178.6944 
L 105.1503 177.9552 
L 104.8527 178.6944 
L 104.5551 177.9552 
L 104.2575 177.5856 
L 103.9599 180.5424 
L 103.6623 177.5856 
L 103.3647 176.4768 
L 103.0671 174.2592 
L 102.7695 170.5632 
L 102.4719 177.9552 
L 102.1743 172.4112 
L 101.8767 172.0416 
L 101.5791 176.1072 
L 101.2815 172.7808 
L 100.9839 169.824 
L 100.6863 172.7808 
L 100.3887 172.7808 
L 100.0911 172.7808 
L 99.7935 167.6064 
L 99.4959 170.5632 
L 99.1983 169.824 
L 98.9007 170.9328 
L 98.6031 169.824 
L 98.3055 172.0416 
L 98.0079 170.9328 
L 97.7103 171.3024 
L 97.4127 170.5632 
L 97.1151 170.5632 
L 96.8175 168.3456 
L 96.5199 170.5632 
L 96.2223 170.5632 
L 95.9247 170.5632 
L 95.6271 172.7808 
L 95.3295 172.0416 
L 95.0319 172.7808 
L 94.7343 171.672 
L 94.4367 171.672 
L 94.1391 172.0416 
L 93.8415 171.3024 
L 93.5439 172.7808 
L 93.2463 173.1504 
L 92.9487 171.3024 
L 92.6511 171.672 
L 92.3535 172.4112 
L 92.0559 172.0416 
L 91.7583 172.0416 
L 91.4607 176.4768 
L 91.1631 176.4768 
L 90.8655 176.4768 
L 90.5679 176.4768 
L 90.2703 176.4768 
L 89.9727 178.6944 
L 89.6751 178.6944 
L 89.3775 178.6944 
L 89.0799 179.8032 
L 88.7823 178.6944 
L 88.4847 178.6944 
L 88.1871 178.6944 
L 87.8895 178.6944 
L 87.5919 179.8032 
L 87.2943 183.1296 
L 86.9967 180.1728 
L 86.6991 185.3472 
L 86.4015 179.8032 
L 86.1039 183.4992 
L 85.8063 181.6512 
L 85.5087 187.5648 
L 85.2111 186.8256 
L 84.9135 186.456 
L 84.6159 187.9344 
L 84.3183 192.3696 
L 84.0207 194.2176 
L 83.7231 202.3488 
L 83.4255 196.8048 
L 83.1279 199.392 
L 82.8303 196.4352 
L 82.5327 194.9568 
L 82.2351 194.2176 
L 81.9375 192 
L 81.6399 189.0432 
L 81.3423 189.7824 
L 81.0447 192.7392 
L 80.7471 192 
L 80.4495 192.7392 
L 80.1519 192.7392 
L 79.8543 192 
L 79.5567 192.7392 
L 79.2591 193.4784 
L 78.9615 189.4128 
L 78.6639 193.4784 
L 78.3663 193.4784 
L 78.0687 193.4784 
L 77.7711 192.7392 
L 77.4735 195.696 
L 77.1759 191.2608 
L 76.8783 200.8704 
L 76.5807 192.3696 
L 76.2831 196.4352 
L 75.9855 193.4784 
L 75.6879 193.4784 
L 75.3903 193.4784 
L 75.0927 193.4784 
L 74.7951 193.4784 
L 74.4975 193.4784 
L 74.1999 194.2176 
L 73.9023 193.4784 
L 73.6047 193.4784 
L 73.3071 192 
L 73.0095 194.2176 
L 72.7119 192.7392 
L 72.4143 194.2176 
L 72.1167 196.4352 
L 71.8191 196.4352 
L 71.5215 200.8704 
L 71.2239 200.8704 
L 70.9263 201.9792 
L 70.6287 196.8048 
L 70.3311 203.088 
L 70.0335 202.3488 
L 69.7359 203.088 
L 69.4383 203.8272 
L 69.1407 202.3488 
L 68.8431 203.8272 
L 68.5455 200.8704 
L 68.2479 204.1968 
L 67.9503 201.6096 
L 67.6527 203.088 
L 67.3551 203.4576 
L 67.0575 202.3488 
L 66.7599 203.088 
L 66.4623 202.7184 
L 66.1647 202.7184 
L 65.8671 202.7184 
L 65.5695 203.088 
L 65.2719 205.3056 
L 64.9743 206.0448 
L 64.6767 205.6752 
L 64.3791 204.1968 
L 64.0815 204.5664 
L 63.7839 204.5664 
L 63.4863 204.5664 
L 63.1887 204.5664 
L 62.8911 204.5664 
L 62.5935 204.5664 
L 62.2959 203.8272 
L 61.9983 206.0448 
L 61.7007 206.0448 
L 61.4031 209.0016 
L 61.1055 206.0448 
L 60.8079 206.0448 
L 60.5103 206.0448 
L 60.2127 206.0448 
L 59.9151 208.2624 
L 59.6175 206.784 
L 59.3199 206.784 
L 59.0223 207.5232 
L 58.7247 206.784 
L 58.4271 205.3056 
L 58.1295 207.5232 
L 57.8319 207.5232 
L 57.5343 207.1536 
L 57.2367 206.784 
L 56.9391 211.2192 
L 56.6415 209.7408 
L 56.3439 211.2192 
L 56.0463 211.2192 
L 55.7487 209.7408 
L 55.4511 209.7408 
L 55.1535 209.7408 
L 54.8559 211.2192 
L 54.5583 211.2192 
L 54.2607 211.2192 
L 53.9631 211.2192 
L 53.6655 213.4368 
L 53.3679 213.4368 
L 53.0703 213.4368 
L 52.7727 211.9584 
L 52.4751 213.4368 
L 52.1775 215.2848 
L 51.8799 215.6544 
L 51.5823 214.9152 
L 51.2847 216.3936 
L 50.9871 214.9152 
L 50.6895 214.9152 
L 50.3919 214.176 
L 50.0943 214.9152 
L 49.7967 217.1328 
L 49.4991 215.6544 
L 49.2015 217.1328 
z
" clip-path="url(#pcc7a5f498a)" style="fill: #dde318; fill-opacity: 0.3"/>
   </g>
   <g id="matplotlib.axis_1">
    <g id="xtick_1">
     <g id="line2d_1">
      <defs>
       <path id="m1988d5396c" d="M 0 0 
L 0 3.5 
" style="stroke: #000000; stroke-width: 0.8"/>
      </defs>
      <g>
       <use xlink:href="#m1988d5396c" x="33.5775" y="228.96" style="stroke: #000000; stroke-width: 0.8"/>
      </g>
     </g>
     <g id="text_1">
      <text style="font: 6px 'DejaVu Sans', 'Bitstream Vera Sans', 'Computer Modern Sans Serif', 'Lucida Grande', 'Verdana', 'Geneva', 'Lucid', 'Arial', 'Helvetica', 'Avant Garde', sans-serif; text-anchor: middle" x="33.5775" y="240.519062" transform="rotate(-0 33.5775 240.519062)">0</text>
     </g>
    </g>
    <g id="xtick_2">
     <g id="line2d_2">
      <g>
       <use xlink:href="#m1988d5396c" x="69.2895" y="228.96" style="stroke: #000000; stroke-width: 0.8"/>
      </g>
     </g>
     <g id="text_2">
      <text style="font: 6px 'DejaVu Sans', 'Bitstream Vera Sans', 'Computer Modern Sans Serif', 'Lucida Grande', 'Verdana', 'Geneva', 'Lucid', 'Arial', 'Helvetica', 'Avant Garde', sans-serif; text-anchor: middle" x="69.2895" y="240.519062" transform="rotate(-0 69.2895 240.519062)">4</text>
     </g>
    </g>
    <g id="xtick_3">
     <g id="line2d_3">
      <g>
       <use xlink:href="#m1988d5396c" x="105.0015" y="228.96" style="stroke: #000000; stroke-width: 0.8"/>
      </g>
     </g>
     <g id="text_3">
      <text style="font: 6px 'DejaVu Sans', 'Bitstream Vera Sans', 'Computer Modern Sans Serif', 'Lucida Grande', 'Verdana', 'Geneva', 'Lucid', 'Arial', 'Helvetica', 'Avant Garde', sans-serif; text-anchor: middle" x="105.0015" y="240.519062" transform="rotate(-0 105.0015 240.519062)">8</text>
     </g>
    </g>
    <g id="xtick_4">
     <g id="line2d_4">
      <g>
       <use xlink:href="#m1988d5396c" x="140.7135" y="228.96" style="stroke: #000000; stroke-width: 0.8"/>
      </g>
     </g>
     <g id="text_4">
      <text style="font: 6px 'DejaVu Sans', 'Bitstream Vera Sans', 'Computer Modern Sans Serif', 'Lucida Grande', 'Verdana', 'Geneva', 'Lucid', 'Arial', 'Helvetica', 'Avant Garde', sans-serif; text-anchor: middle" x="140.7135" y="240.519062" transform="rotate(-0 140.7135 240.519062)">12</text>
     </g>
    </g>
    <g id="xtick_5">
     <g id="line2d_5">
      <g>
       <use xlink:href="#m1988d5396c" x="176.4255" y="228.96" style="stroke: #000000; stroke-width: 0.8"/>
      </g>
     </g>
     <g id="text_5">
      <text style="font: 6px 'DejaVu Sans', 'Bitstream Vera Sans', 'Computer Modern Sans Serif', 'Lucida Grande', 'Verdana', 'Geneva', 'Lucid', 'Arial', 'Helvetica', 'Avant Garde', sans-serif; text-anchor: middle" x="176.4255" y="240.519062" transform="rotate(-0 176.4255 240.519062)">16</text>
     </g>
    </g>
    <g id="xtick_6">
     <g id="line2d_6">
      <g>
       <use xlink:href="#m1988d5396c" x="212.1375" y="228.96" style="stroke: #000000; stroke-width: 0.8"/>
      </g>
     </g>
     <g id="text_6">
      <text style="font: 6px 'DejaVu Sans', 'Bitstream Vera Sans', 'Computer Modern Sans Serif', 'Lucida Grande', 'Verdana', 'Geneva', 'Lucid', 'Arial', 'Helvetica', 'Avant Garde', sans-serif; text-anchor: middle" x="212.1375" y="240.519062" transform="rotate(-0 212.1375 240.519062)">20</text>
     </g>
    </g>
    <g id="xtick_7">
     <g id="line2d_7">
      <g>
       <use xlink:href="#m1988d5396c" x="247.8495" y="228.96" style="stroke: #000000; stroke-width: 0.8"/>
      </g>
     </g>
     <g id="text_7">
      <text style="font: 6px 'DejaVu Sans', 'Bitstream Vera Sans', 'Computer Modern Sans Serif', 'Lucida Grande', 'Verdana', 'Geneva', 'Lucid', 'Arial', 'Helvetica', 'Avant Garde', sans-serif; text-anchor: middle" x="247.8495" y="240.519062" transform="rotate(-0 247.8495 240.519062)">24</text>
     </g>
    </g>
    <g id="text_8">
     <text style="font: 8px 'DejaVu Sans', 'Bitstream Vera Sans', 'Computer Modern Sans Serif', 'Lucida Grande', 'Verdana', 'Geneva', 'Lucid', 'Arial', 'Helvetica', 'Avant Garde', sans-serif; text-anchor: middle" x="145.1775" y="251.845625" transform="rotate(-0 145.1775 251.845625)">Experimental time (hpf)</text>
    </g>
   </g>
   <g id="matplotlib.axis_2">
    <g id="ytick_1">
     <g id="line2d_8">
      <defs>
       <path id="m8b97918460" d="M 0 0 
L -3.5 0 
" style="stroke: #000000; stroke-width: 0.8"/>
      </defs>
      <g>
       <use xlink:href="#m8b97918460" x="33.5775" y="228.96" style="stroke: #000000; stroke-width: 0.8"/>
      </g>
     </g>
     <g id="text_9">
      <text style="font: 6px 'DejaVu Sans', 'Bitstream Vera Sans', 'Computer Modern Sans Serif', 'Lucida Grande', 'Verdana', 'Geneva', 'Lucid', 'Arial', 'Helvetica', 'Avant Garde', sans-serif; text-anchor: end" x="26.5775" y="231.239531" transform="rotate(-0 26.5775 231.239531)">0</text>
     </g>
    </g>
    <g id="ytick_2">
     <g id="line2d_9">
      <g>
       <use xlink:href="#m8b97918460" x="33.5775" y="193.4784" style="stroke: #000000; stroke-width: 0.8"/>
      </g>
     </g>
     <g id="text_10">
      <text style="font: 6px 'DejaVu Sans', 'Bitstream Vera Sans', 'Computer Modern Sans Serif', 'Lucida Grande', 'Verdana', 'Geneva', 'Lucid', 'Arial', 'Helvetica', 'Avant Garde', sans-serif; text-anchor: end" x="26.5775" y="195.757931" transform="rotate(-0 26.5775 195.757931)">4</text>
     </g>
    </g>
    <g id="ytick_3">
     <g id="line2d_10">
      <g>
       <use xlink:href="#m8b97918460" x="33.5775" y="157.9968" style="stroke: #000000; stroke-width: 0.8"/>
      </g>
     </g>
     <g id="text_11">
      <text style="font: 6px 'DejaVu Sans', 'Bitstream Vera Sans', 'Computer Modern Sans Serif', 'Lucida Grande', 'Verdana', 'Geneva', 'Lucid', 'Arial', 'Helvetica', 'Avant Garde', sans-serif; text-anchor: end" x="26.5775" y="160.276331" transform="rotate(-0 26.5775 160.276331)">8</text>
     </g>
    </g>
    <g id="ytick_4">
     <g id="line2d_11">
      <g>
       <use xlink:href="#m8b97918460" x="33.5775" y="122.5152" style="stroke: #000000; stroke-width: 0.8"/>
      </g>
     </g>
     <g id="text_12">
      <text style="font: 6px 'DejaVu Sans', 'Bitstream Vera Sans', 'Computer Modern Sans Serif', 'Lucida Grande', 'Verdana', 'Geneva', 'Lucid', 'Arial', 'Helvetica', 'Avant Garde', sans-serif; text-anchor: end" x="26.5775" y="124.794731" transform="rotate(-0 26.5775 124.794731)">12</text>
     </g>
    </g>
    <g id="ytick_5">
     <g id="line2d_12">
      <g>
       <use xlink:href="#m8b97918460" x="33.5775" y="87.0336" style="stroke: #000000; stroke-width: 0.8"/>
      </g>
     </g>
     <g id="text_13">
      <text style="font: 6px 'DejaVu Sans', 'Bitstream Vera Sans', 'Computer Modern Sans Serif', 'Lucida Grande', 'Verdana', 'Geneva', 'Lucid', 'Arial', 'Helvetica', 'Avant Garde', sans-serif; text-anchor: end" x="26.5775" y="89.313131" transform="rotate(-0 26.5775 89.313131)">16</text>
     </g>
    </g>
    <g id="ytick_6">
     <g id="line2d_13">
      <g>
       <use xlink:href="#m8b97918460" x="33.5775" y="51.552" style="stroke: #000000; stroke-width: 0.8"/>
      </g>
     </g>
     <g id="text_14">
      <text style="font: 6px 'DejaVu Sans', 'Bitstream Vera Sans', 'Computer Modern Sans Serif', 'Lucida Grande', 'Verdana', 'Geneva', 'Lucid', 'Arial', 'Helvetica', 'Avant Garde', sans-serif; text-anchor: end" x="26.5775" y="53.831531" transform="rotate(-0 26.5775 53.831531)">20</text>
     </g>
    </g>
    <g id="ytick_7">
     <g id="line2d_14">
      <g>
       <use xlink:href="#m8b97918460" x="33.5775" y="16.0704" style="stroke: #000000; stroke-width: 0.8"/>
      </g>
     </g>
     <g id="text_15">
      <text style="font: 6px 'DejaVu Sans', 'Bitstream Vera Sans', 'Computer Modern Sans Serif', 'Lucida Grande', 'Verdana', 'Geneva', 'Lucid', 'Arial', 'Helvetica', 'Avant Garde', sans-serif; text-anchor: end" x="26.5775" y="18.349931" transform="rotate(-0 26.5775 18.349931)">24</text>
     </g>
    </g>
    <g id="text_16">
     <text style="font: 8px 'DejaVu Sans', 'Bitstream Vera Sans', 'Computer Modern Sans Serif', 'Lucida Grande', 'Verdana', 'Geneva', 'Lucid', 'Arial', 'Helvetica', 'Avant Garde', sans-serif; text-anchor: middle" x="13.27875" y="118.08" transform="rotate(-90 13.27875 118.08)">Developmental age (hpf)</text>
    </g>
   </g>
   <g id="line2d_15">
    <path d="M 42.5055 221.747043 
L 221.984504 -1 
L 221.984504 -1 
" clip-path="url(#pcc7a5f498a)" style="fill: none; stroke: #dde318; stroke-linecap: square"/>
   </g>
   <g id="line2d_16">
    <path d="M 42.5055 221.525491 
L 226.717094 -1 
L 226.717094 -1 
" clip-path="url(#pcc7a5f498a)" style="fill: none; stroke-dasharray: 3.7,1.6; stroke-dashoffset: 0; stroke: #dde318"/>
   </g>
   <g id="line2d_17">
    <path d="M 42.5055 222.000085 
L 216.878842 -1 
L 216.878842 -1 
" clip-path="url(#pcc7a5f498a)" style="fill: none; stroke-dasharray: 3.7,1.6; stroke-dashoffset: 0; stroke: #dde318"/>
   </g>
   <g id="patch_3">
    <path d="M 33.5775 228.96 
L 33.5775 7.2 
" style="fill: none; stroke: #000000; stroke-width: 0.8; stroke-linejoin: miter; stroke-linecap: square"/>
   </g>
   <g id="patch_4">
    <path d="M 33.5775 228.96 
L 256.7775 228.96 
" style="fill: none; stroke: #000000; stroke-width: 0.8; stroke-linejoin: miter; stroke-linecap: square"/>
   </g>
   <g id="legend_1">
    <g id="patch_5">
     <path d="M 93.656011 226.065 
L 252.7245 226.065 
Q 253.8825 226.065 253.8825 224.907 
L 253.8825 208.488731 
Q 253.8825 207.330731 252.7245 207.330731 
L 93.656011 207.330731 
Q 92.498011 207.330731 92.498011 208.488731 
L 92.498011 224.907 
Q 92.498011 226.065 93.656011 226.065 
z
" style="fill: #ffffff; opacity: 0.8; stroke: #cccccc; stroke-linejoin: miter"/>
    </g>
    <g id="line2d_18">
     <path d="M 94.814011 212.019727 
L 100.604011 212.019727 
L 106.394011 212.019727 
" style="fill: none; stroke: #dde318; stroke-linecap: square"/>
    </g>
    <g id="text_17">
     <text style="font: 5.79px 'DejaVu Sans', 'Bitstream Vera Sans', 'Computer Modern Sans Serif', 'Lucida Grande', 'Verdana', 'Geneva', 'Lucid', 'Arial', 'Helvetica', 'Avant Garde', sans-serif; text-anchor: start" x="111.026011" y="214.046227" transform="rotate(-0 111.026011 214.046227)">Linear fit: slope=1.246 [1.216,1.287], R2=0.981</text>
    </g>
    <g id="patch_6">
     <path d="M 94.814011 222.544861 
L 106.394011 222.544861 
L 106.394011 218.491861 
L 94.814011 218.491861 
z
" style="fill: #dde318; fill-opacity: 0.3"/>
    </g>
    <g id="text_18">
     <text style="font: 5.79px 'DejaVu Sans', 'Bitstream Vera Sans', 'Computer Modern Sans Serif', 'Lucida Grande', 'Verdana', 'Geneva', 'Lucid', 'Arial', 'Helvetica', 'Avant Garde', sans-serif; text-anchor: start" x="111.026011" y="222.544861" transform="rotate(-0 111.026011 222.544861)">Median:35.5C</text>
    </g>
   </g>
  </g>
 </g>
 <defs>
  <clipPath id="pcc7a5f498a">
   <rect x="33.5775" y="7.2" width="223.2" height="221.76"/>
  </clipPath>
 </defs>
</svg>
