<?xml version="1.0" encoding="utf-8" standalone="no"?>
<!DOCTYPE svg PUBLIC "-//W3C//DTD SVG 1.1//EN"
  "http://www.w3.org/Graphics/SVG/1.1/DTD/svg11.dtd">
<svg xmlns:xlink="http://www.w3.org/1999/xlink" width="263.9775pt" height="260.709375pt" viewBox="0 0 263.9775 260.709375" xmlns="http://www.w3.org/2000/svg" version="1.1">
 <metadata>
  <rdf:RDF xmlns:dc="http://purl.org/dc/elements/1.1/" xmlns:cc="http://creativecommons.org/ns#" xmlns:rdf="http://www.w3.org/1999/02/22-rdf-syntax-ns#">
   <cc:Work>
    <dc:type rdf:resource="http://purl.org/dc/dcmitype/StillImage"/>
    <dc:date>2023-07-28T13:09:33.617024</dc:date>
    <dc:format>image/svg+xml</dc:format>
    <dc:creator>
     <cc:Agent>
      <dc:title>Matplotlib v3.7.0, https://matplotlib.org/</dc:title>
     </cc:Agent>
    </dc:creator>
   </cc:Work>
  </rdf:RDF>
 </metadata>
 <defs>
  <style type="text/css">*{stroke-linejoin: round; stroke-linecap: butt}</style>
 </defs>
 <g id="figure_1">
  <g id="patch_1">
   <path d="M 0 260.709375 
L 263.9775 260.709375 
L 263.9775 0 
L 0 0 
z
" style="fill: #ffffff"/>
  </g>
  <g id="axes_1">
   <g id="patch_2">
    <path d="M 33.5775 228.96 
L 256.7775 228.96 
L 256.7775 7.2 
L 33.5775 7.2 
z
" style="fill: #ffffff"/>
   </g>
   <g id="PolyCollection_1">
    <path d="M 49.2015 215.6544 
L 49.2015 203.8272 
L 49.4991 202.3488 
L 49.7967 201.6096 
L 50.0943 198.6528 
L 50.3919 200.8704 
L 50.6895 199.0224 
L 50.9871 201.6096 
L 51.2847 199.392 
L 51.5823 200.8704 
L 51.8799 199.392 
L 52.1775 200.8704 
L 52.4751 200.8704 
L 52.7727 200.8704 
L 53.0703 200.1312 
L 53.3679 200.1312 
L 53.6655 200.5008 
L 53.9631 200.1312 
L 54.2607 199.392 
L 54.5583 200.1312 
L 54.8559 198.6528 
L 55.1535 200.1312 
L 55.4511 200.1312 
L 55.7487 200.8704 
L 56.0463 200.8704 
L 56.3439 200.8704 
L 56.6415 200.8704 
L 56.9391 200.8704 
L 57.2367 200.8704 
L 57.5343 200.8704 
L 57.8319 200.8704 
L 58.1295 200.8704 
L 58.4271 200.1312 
L 58.7247 200.1312 
L 59.0223 200.1312 
L 59.3199 200.1312 
L 59.6175 200.1312 
L 59.9151 197.9136 
L 60.2127 197.9136 
L 60.5103 197.9136 
L 60.8079 194.9568 
L 61.1055 197.9136 
L 61.4031 194.9568 
L 61.7007 192 
L 61.9983 192 
L 62.2959 192 
L 62.5935 192 
L 62.8911 191.6304 
L 63.1887 191.2608 
L 63.4863 190.5216 
L 63.7839 190.5216 
L 64.0815 190.5216 
L 64.3791 190.5216 
L 64.6767 189.0432 
L 64.9743 189.7824 
L 65.2719 190.152 
L 65.5695 190.5216 
L 65.8671 187.5648 
L 66.1647 187.5648 
L 66.4623 187.5648 
L 66.7599 187.5648 
L 67.0575 187.5648 
L 67.3551 187.5648 
L 67.6527 187.5648 
L 67.9503 189.0432 
L 68.2479 189.0432 
L 68.5455 189.0432 
L 68.8431 186.8256 
L 69.1407 186.8256 
L 69.4383 187.5648 
L 69.7359 187.9344 
L 70.0335 186.8256 
L 70.3311 186.8256 
L 70.6287 186.8256 
L 70.9263 186.8256 
L 71.2239 185.3472 
L 71.5215 188.304 
L 71.8191 186.8256 
L 72.1167 187.5648 
L 72.4143 186.8256 
L 72.7119 185.3472 
L 73.0095 186.456 
L 73.3071 185.3472 
L 73.6047 184.608 
L 73.9023 185.3472 
L 74.1999 182.3904 
L 74.4975 184.9776 
L 74.7951 182.3904 
L 75.0927 182.0208 
L 75.3903 182.3904 
L 75.6879 183.8688 
L 75.9855 181.6512 
L 76.2831 180.912 
L 76.5807 180.912 
L 76.8783 182.76 
L 77.1759 180.912 
L 77.4735 182.3904 
L 77.7711 181.6512 
L 78.0687 181.6512 
L 78.3663 181.6512 
L 78.6639 181.6512 
L 78.9615 181.6512 
L 79.2591 181.6512 
L 79.5567 177.9552 
L 79.8543 177.216 
L 80.1519 177.216 
L 80.4495 176.8464 
L 80.7471 175.7376 
L 81.0447 173.1504 
L 81.3423 169.824 
L 81.6399 172.0416 
L 81.9375 167.6064 
L 82.2351 173.52 
L 82.5327 167.6064 
L 82.8303 171.3024 
L 83.1279 174.2592 
L 83.4255 165.3888 
L 83.7231 165.3888 
L 84.0207 162.0624 
L 84.3183 154.6704 
L 84.6159 159.8448 
L 84.9135 163.1712 
L 85.2111 155.04 
L 85.5087 157.9968 
L 85.8063 157.9968 
L 86.1039 156.5184 
L 86.4015 157.9968 
L 86.6991 156.888 
L 86.9967 157.9968 
L 87.2943 157.9968 
L 87.5919 157.9968 
L 87.8895 157.9968 
L 88.1871 157.9968 
L 88.4847 159.4752 
L 88.7823 158.3664 
L 89.0799 157.9968 
L 89.3775 158.736 
L 89.6751 159.4752 
L 89.9727 160.2144 
L 90.2703 159.4752 
L 90.5679 159.4752 
L 90.8655 160.2144 
L 91.1631 159.8448 
L 91.4607 150.6048 
L 91.7583 158.736 
L 92.0559 157.2576 
L 92.3535 158.736 
L 92.6511 159.4752 
L 92.9487 153.9312 
L 93.2463 152.8224 
L 93.5439 156.888 
L 93.8415 153.9312 
L 94.1391 154.3008 
L 94.4367 152.8224 
L 94.7343 152.8224 
L 95.0319 158.3664 
L 95.3295 152.8224 
L 95.6271 152.8224 
L 95.9247 153.5616 
L 96.2223 152.8224 
L 96.5199 152.8224 
L 96.8175 152.8224 
L 97.1151 155.04 
L 97.4127 152.8224 
L 97.7103 152.8224 
L 98.0079 151.344 
L 98.3055 149.8656 
L 98.6031 152.8224 
L 98.9007 152.8224 
L 99.1983 150.6048 
L 99.4959 150.6048 
L 99.7935 152.8224 
L 100.0911 152.8224 
L 100.3887 152.8224 
L 100.6863 154.3008 
L 100.9839 152.8224 
L 101.2815 152.8224 
L 101.5791 151.344 
L 101.8767 152.0832 
L 102.1743 152.8224 
L 102.4719 152.8224 
L 102.7695 152.8224 
L 103.0671 149.8656 
L 103.3647 152.8224 
L 103.6623 159.4752 
L 103.9599 150.6048 
L 104.2575 150.6048 
L 104.5551 152.8224 
L 104.8527 152.8224 
L 105.1503 156.1488 
L 105.4479 153.5616 
L 105.7455 142.4736 
L 106.0431 143.952 
L 106.3407 155.7792 
L 106.6383 152.8224 
L 106.9359 152.8224 
L 107.2335 152.8224 
L 107.5311 151.344 
L 107.8287 152.8224 
L 108.1263 142.4736 
L 108.4239 151.344 
L 108.7215 132.1248 
L 109.0191 152.8224 
L 109.3167 131.3856 
L 109.6143 131.3856 
L 109.9119 131.3856 
L 110.2095 131.3856 
L 110.5071 132.4944 
L 110.8047 135.0816 
L 111.1023 135.0816 
L 111.3999 135.0816 
L 111.6975 135.0816 
L 111.9951 134.3424 
L 112.2927 127.6896 
L 112.5903 135.0816 
L 112.8879 120.2976 
L 113.1855 126.2112 
L 113.4831 121.776 
L 113.7807 121.776 
L 114.0783 121.776 
L 114.3759 123.9936 
L 114.6735 125.472 
L 114.9711 125.472 
L 115.2687 125.472 
L 115.5663 126.9504 
L 115.8639 127.32 
L 116.1615 127.6896 
L 116.4591 126.9504 
L 116.7567 127.6896 
L 117.0543 128.4288 
L 117.3519 131.3856 
L 117.6495 131.3856 
L 117.9471 131.3856 
L 118.2447 131.3856 
L 118.5423 131.3856 
L 118.8399 131.3856 
L 119.1375 131.3856 
L 119.4351 131.3856 
L 119.7327 131.3856 
L 120.0303 131.3856 
L 120.3279 131.3856 
L 120.6255 131.3856 
L 120.9231 131.3856 
L 121.2207 131.3856 
L 121.5183 131.3856 
L 121.8159 132.864 
L 122.1135 131.7552 
L 122.4111 132.1248 
L 122.7087 131.7552 
L 123.0063 132.1248 
L 123.3039 132.1248 
L 123.6015 132.1248 
L 123.8991 132.1248 
L 124.1967 132.1248 
L 124.4943 132.1248 
L 124.7919 132.1248 
L 125.0895 132.1248 
L 125.3871 132.1248 
L 125.6847 132.1248 
L 125.9823 132.1248 
L 126.2799 132.1248 
L 126.5775 132.1248 
L 126.8751 132.1248 
L 127.1727 133.6032 
L 127.4703 132.1248 
L 127.7679 132.1248 
L 128.0655 132.1248 
L 128.3631 132.1248 
L 128.6607 132.864 
L 128.9583 132.1248 
L 129.2559 132.1248 
L 129.5535 132.1248 
L 129.8511 132.1248 
L 130.1487 131.3856 
L 130.4463 131.3856 
L 130.7439 132.1248 
L 131.0415 132.1248 
L 131.3391 132.1248 
L 131.6367 132.1248 
L 131.9343 131.016 
L 132.2319 131.3856 
L 132.5295 127.32 
L 132.8271 129.168 
L 133.1247 126.9504 
L 133.4223 122.5152 
L 133.7199 122.5152 
L 134.0175 122.5152 
L 134.3151 122.5152 
L 134.6127 122.5152 
L 134.9103 122.5152 
L 135.2079 122.5152 
L 135.5055 122.5152 
L 135.8031 122.5152 
L 136.1007 118.08 
L 136.3983 119.1888 
L 136.6959 116.9712 
L 136.9935 122.5152 
L 137.2911 109.2096 
L 137.5887 109.2096 
L 137.8863 108.4704 
L 138.1839 109.2096 
L 138.4815 106.2528 
L 138.7791 105.5136 
L 139.0767 108.4704 
L 139.3743 96.6432 
L 139.6719 92.208 
L 139.9695 101.0784 
L 140.2671 90.7296 
L 140.5647 87.7728 
L 140.8623 87.7728 
L 141.1599 87.7728 
L 141.4575 87.7728 
L 141.7551 84.4464 
L 142.0527 81.4896 
L 142.3503 74.4672 
L 142.6479 80.3808 
L 142.9455 72.2496 
L 143.2431 68.5536 
L 143.5407 67.8144 
L 143.8383 66.7056 
L 144.1359 75.2064 
L 144.4335 71.5104 
L 144.7311 65.5968 
L 145.0287 70.032 
L 145.3263 53.7696 
L 145.6239 59.6832 
L 145.9215 55.9872 
L 146.2191 45.6384 
L 146.5167 60.4224 
L 146.8143 45.6384 
L 147.1119 60.4224 
L 147.4095 62.64 
L 147.7071 45.6384 
L 148.0047 59.3136 
L 148.3023 76.3152 
L 148.5999 44.8992 
L 148.8975 63.7488 
L 149.1951 42.6816 
L 149.4927 30.8544 
L 149.7903 67.8144 
L 150.0879 46.3776 
L 150.3855 67.0752 
L 150.6831 51.552 
L 150.9807 52.2912 
L 151.2783 51.552 
L 151.5759 51.552 
L 151.8735 39.7248 
L 152.1711 52.2912 
L 152.4687 51.552 
L 152.7663 51.552 
L 153.0639 50.8128 
L 153.3615 28.6368 
L 153.6591 38.2464 
L 153.9567 48.5952 
L 154.2543 30.4848 
L 154.5519 41.2032 
L 154.8495 46.3776 
L 155.1471 44.5296 
L 155.4447 51.552 
L 155.7423 44.16 
L 156.0399 53.7696 
L 156.3375 34.5504 
L 156.6351 36.3984 
L 156.9327 44.5296 
L 157.2303 36.0288 
L 157.5279 35.2896 
L 157.8255 34.5504 
L 158.1231 43.7904 
L 158.4207 44.8992 
L 158.7183 61.9008 
L 159.0159 44.8992 
L 159.3135 40.464 
L 159.6111 46.3776 
L 159.9087 44.16 
L 160.2063 62.64 
L 160.5039 55.9872 
L 160.8015 48.5952 
L 161.0991 49.3344 
L 161.3967 52.6608 
L 161.6943 49.3344 
L 161.9919 49.3344 
L 162.2895 50.8128 
L 162.5871 49.3344 
L 162.8847 49.3344 
L 163.1823 49.3344 
L 163.4799 49.3344 
L 163.7775 51.552 
L 164.0751 49.3344 
L 164.3727 50.0736 
L 164.6703 50.8128 
L 164.9679 49.3344 
L 165.2655 52.2912 
L 165.5631 41.9424 
L 165.8607 51.552 
L 166.1583 53.7696 
L 166.4559 56.7264 
L 166.7535 53.0304 
L 167.0511 47.856 
L 167.3487 48.5952 
L 167.6463 50.8128 
L 167.9439 50.4432 
L 168.2415 46.3776 
L 168.5391 44.5296 
L 168.8367 43.7904 
L 169.1343 47.856 
L 169.4319 48.2256 
L 169.7295 44.16 
L 170.0271 44.5296 
L 170.3247 43.0512 
L 170.6223 44.8992 
L 170.9199 49.3344 
L 171.2175 44.8992 
L 171.5151 43.0512 
L 171.8127 39.3552 
L 172.1103 42.6816 
L 172.4079 39.7248 
L 172.7055 47.1168 
L 173.0031 40.464 
L 173.3007 40.464 
L 173.5983 36.0288 
L 173.8959 33.8112 
L 174.1935 39.7248 
L 174.4911 40.464 
L 174.7887 36.3984 
L 175.0863 37.8768 
L 175.3839 34.5504 
L 175.6815 36.3984 
L 175.9791 34.92 
L 176.2767 43.7904 
L 176.5743 34.5504 
L 176.8719 33.4416 
L 177.1695 27.1584 
L 177.4671 35.6592 
L 177.7647 31.5936 
L 178.0623 33.8112 
L 178.3599 31.5936 
L 178.6575 29.376 
L 178.9551 37.8768 
L 179.2527 30.8544 
L 179.5503 28.6368 
L 179.8479 29.0064 
L 180.1455 31.5936 
L 180.4431 29.376 
L 180.7407 26.4192 
L 181.0383 27.528 
L 181.3359 30.4848 
L 181.6335 26.4192 
L 181.9311 31.5936 
L 182.2287 27.8976 
L 182.5263 29.376 
L 182.8239 27.528 
L 183.1215 31.224 
L 183.4191 26.0496 
L 183.7167 28.6368 
L 184.0143 29.7456 
L 184.3119 27.8976 
L 184.6095 29.0064 
L 184.9071 31.5936 
L 185.2047 23.4624 
L 185.5023 32.3328 
L 185.7999 25.3104 
L 186.0975 30.8544 
L 186.3951 27.528 
L 186.6927 29.376 
L 186.9903 26.4192 
L 187.2879 28.6368 
L 187.5855 31.5936 
L 187.8831 29.0064 
L 188.1807 27.1584 
L 188.4783 25.68 
L 188.7759 21.984 
L 189.0735 20.5056 
L 189.3711 25.68 
L 189.6687 28.6368 
L 189.9663 26.4192 
L 190.2639 27.528 
L 190.5615 31.5936 
L 190.8591 22.7232 
L 191.1567 25.3104 
L 191.4543 24.2016 
L 191.7519 23.0928 
L 192.0495 25.3104 
L 192.3471 26.4192 
L 192.6447 23.4624 
L 192.9423 24.5712 
L 193.2399 19.0272 
L 193.5375 21.6144 
L 193.8351 19.7664 
L 194.1327 19.7664 
L 194.4303 21.6144 
L 194.7279 20.5056 
L 195.0255 16.8096 
L 195.3231 22.7232 
L 195.6207 21.984 
L 195.9183 17.1792 
L 196.2159 19.7664 
L 196.5135 18.288 
L 196.8111 22.7232 
L 197.1087 17.5488 
L 197.4063 23.4624 
L 197.7039 18.288 
L 198.0015 19.7664 
L 198.2991 19.7664 
L 198.5967 18.288 
L 198.8943 18.288 
L 199.1919 19.3968 
L 199.4895 19.0272 
L 199.7871 19.7664 
L 200.0847 19.0272 
L 200.3823 19.7664 
L 200.6799 19.7664 
L 200.9775 17.9184 
L 201.2751 16.44 
L 201.5727 20.8752 
L 201.8703 18.288 
L 202.1679 20.5056 
L 202.4655 20.5056 
L 202.7631 17.1792 
L 203.0607 20.8752 
L 203.3583 19.3968 
L 203.6559 19.0272 
L 203.9535 18.6576 
L 204.2511 18.288 
L 204.5487 13.1136 
L 204.8463 14.9616 
L 205.1439 18.288 
L 205.4415 19.0272 
L 205.7391 14.592 
L 206.0367 15.3312 
L 206.3343 15.3312 
L 206.6319 15.3312 
L 206.9295 15.3312 
L 207.2271 13.1136 
L 207.5247 15.3312 
L 207.8223 15.3312 
L 208.1199 16.8096 
L 208.4175 16.8096 
L 208.7151 12.3744 
L 209.0127 15.3312 
L 209.3103 12.3744 
L 209.6079 15.3312 
L 209.6079 38.9856 
L 209.6079 38.9856 
L 209.3103 40.464 
L 209.0127 38.9856 
L 208.7151 40.464 
L 208.4175 37.5072 
L 208.1199 40.464 
L 207.8223 38.9856 
L 207.5247 40.464 
L 207.2271 41.2032 
L 206.9295 38.9856 
L 206.6319 38.9856 
L 206.3343 40.464 
L 206.0367 38.9856 
L 205.7391 41.2032 
L 205.4415 41.2032 
L 205.1439 44.8992 
L 204.8463 41.5728 
L 204.5487 42.6816 
L 204.2511 41.9424 
L 203.9535 43.7904 
L 203.6559 45.6384 
L 203.3583 43.0512 
L 203.0607 43.0512 
L 202.7631 42.312 
L 202.4655 41.2032 
L 202.1679 44.16 
L 201.8703 47.856 
L 201.5727 46.008 
L 201.2751 53.4 
L 200.9775 48.9648 
L 200.6799 49.3344 
L 200.3823 47.856 
L 200.0847 48.5952 
L 199.7871 50.8128 
L 199.4895 51.552 
L 199.1919 53.4 
L 198.8943 56.7264 
L 198.5967 47.856 
L 198.2991 52.2912 
L 198.0015 56.7264 
L 197.7039 53.7696 
L 197.4063 54.5088 
L 197.1087 55.9872 
L 196.8111 52.2912 
L 196.5135 56.7264 
L 196.2159 58.2048 
L 195.9183 57.096 
L 195.6207 57.4656 
L 195.3231 58.2048 
L 195.0255 59.6832 
L 194.7279 57.4656 
L 194.4303 57.096 
L 194.1327 58.2048 
L 193.8351 58.2048 
L 193.5375 58.5744 
L 193.2399 55.9872 
L 192.9423 60.0528 
L 192.6447 60.4224 
L 192.3471 61.9008 
L 192.0495 62.2704 
L 191.7519 60.0528 
L 191.4543 59.6832 
L 191.1567 59.3136 
L 190.8591 61.1616 
L 190.5615 58.2048 
L 190.2639 58.5744 
L 189.9663 61.9008 
L 189.6687 55.248 
L 189.3711 62.64 
L 189.0735 66.336 
L 188.7759 64.8576 
L 188.4783 68.5536 
L 188.1807 59.6832 
L 187.8831 68.9232 
L 187.5855 64.1184 
L 187.2879 64.1184 
L 186.9903 61.9008 
L 186.6927 61.9008 
L 186.3951 64.488 
L 186.0975 58.944 
L 185.7999 65.2272 
L 185.5023 63.3792 
L 185.2047 73.728 
L 184.9071 62.64 
L 184.6095 63.0096 
L 184.3119 66.336 
L 184.0143 68.184 
L 183.7167 62.64 
L 183.4191 71.88 
L 183.1215 65.2272 
L 182.8239 67.4448 
L 182.5263 67.8144 
L 182.2287 70.7712 
L 181.9311 64.1184 
L 181.6335 76.6848 
L 181.3359 68.9232 
L 181.0383 73.3584 
L 180.7407 67.8144 
L 180.4431 73.728 
L 180.1455 72.9888 
L 179.8479 71.88 
L 179.5503 72.9888 
L 179.2527 72.2496 
L 178.9551 71.88 
L 178.6575 70.7712 
L 178.3599 75.9456 
L 178.0623 75.2064 
L 177.7647 71.5104 
L 177.4671 75.576 
L 177.1695 75.9456 
L 176.8719 76.3152 
L 176.5743 78.9024 
L 176.2767 74.8368 
L 175.9791 77.7936 
L 175.6815 79.272 
L 175.3839 75.9456 
L 175.0863 76.3152 
L 174.7887 74.8368 
L 174.4911 75.9456 
L 174.1935 76.6848 
L 173.8959 78.1632 
L 173.5983 80.3808 
L 173.3007 78.9024 
L 173.0031 83.3376 
L 172.7055 76.6848 
L 172.4079 81.12 
L 172.1103 81.12 
L 171.8127 82.2288 
L 171.5151 78.5328 
L 171.2175 80.3808 
L 170.9199 80.3808 
L 170.6223 80.3808 
L 170.3247 82.968 
L 170.0271 81.4896 
L 169.7295 82.5984 
L 169.4319 82.2288 
L 169.1343 83.3376 
L 168.8367 85.1856 
L 168.5391 84.4464 
L 168.2415 84.816 
L 167.9439 84.4464 
L 167.6463 84.816 
L 167.3487 87.0336 
L 167.0511 89.2512 
L 166.7535 88.512 
L 166.4559 86.2944 
L 166.1583 89.2512 
L 165.8607 84.0768 
L 165.5631 89.2512 
L 165.2655 90.7296 
L 164.9679 93.6864 
L 164.6703 92.208 
L 164.3727 92.9472 
L 164.0751 93.6864 
L 163.7775 91.4688 
L 163.4799 93.6864 
L 163.1823 93.6864 
L 162.8847 93.6864 
L 162.5871 93.6864 
L 162.2895 96.6432 
L 161.9919 93.6864 
L 161.6943 93.6864 
L 161.3967 92.5776 
L 161.0991 93.6864 
L 160.8015 98.8608 
L 160.5039 97.3824 
L 160.2063 98.1216 
L 159.9087 100.3392 
L 159.6111 101.0784 
L 159.3135 102.5568 
L 159.0159 102.5568 
L 158.7183 100.3392 
L 158.4207 101.0784 
L 158.1231 101.448 
L 157.8255 108.4704 
L 157.5279 107.7312 
L 157.2303 106.992 
L 156.9327 108.1008 
L 156.6351 108.84 
L 156.3375 108.4704 
L 156.0399 111.4272 
L 155.7423 121.0368 
L 155.4447 113.6448 
L 155.1471 118.4496 
L 154.8495 118.8192 
L 154.5519 123.9936 
L 154.2543 125.1024 
L 153.9567 122.5152 
L 153.6591 126.9504 
L 153.3615 114.384 
L 153.0639 121.776 
L 152.7663 122.5152 
L 152.4687 122.5152 
L 152.1711 121.776 
L 151.8735 134.3424 
L 151.5759 122.5152 
L 151.2783 122.5152 
L 150.9807 121.776 
L 150.6831 122.5152 
L 150.3855 117.3408 
L 150.0879 127.6896 
L 149.7903 116.6016 
L 149.4927 143.2128 
L 149.1951 140.256 
L 148.8975 127.32 
L 148.5999 139.5168 
L 148.3023 117.7104 
L 148.0047 134.712 
L 147.7071 149.1264 
L 147.4095 132.1248 
L 147.1119 134.3424 
L 146.8143 149.1264 
L 146.5167 134.3424 
L 146.2191 149.1264 
L 145.9215 138.7776 
L 145.6239 135.0816 
L 145.3263 140.9952 
L 145.0287 136.56 
L 144.7311 142.4736 
L 144.4335 130.6464 
L 144.1359 132.864 
L 143.8383 142.104 
L 143.5407 141.7344 
L 143.2431 142.4736 
L 142.9455 140.256 
L 142.6479 129.168 
L 142.3503 139.5168 
L 142.0527 137.6688 
L 141.7551 145.0608 
L 141.4575 143.952 
L 141.1599 143.952 
L 140.8623 143.952 
L 140.5647 143.952 
L 140.2671 142.4736 
L 139.9695 139.5168 
L 139.6719 142.4736 
L 139.3743 140.9952 
L 139.0767 138.0384 
L 138.7791 138.0384 
L 138.4815 140.256 
L 138.1839 137.2992 
L 137.8863 138.0384 
L 137.5887 141.7344 
L 137.2911 137.2992 
L 136.9935 137.2992 
L 136.6959 139.1472 
L 136.3983 138.408 
L 136.1007 138.7776 
L 135.8031 137.2992 
L 135.5055 137.2992 
L 135.2079 137.2992 
L 134.9103 137.2992 
L 134.6127 137.2992 
L 134.3151 137.2992 
L 134.0175 137.2992 
L 133.7199 137.2992 
L 133.4223 137.2992 
L 133.1247 135.8208 
L 132.8271 136.56 
L 132.5295 137.6688 
L 132.2319 134.3424 
L 131.9343 135.4512 
L 131.6367 135.0816 
L 131.3391 135.0816 
L 131.0415 135.0816 
L 130.7439 135.0816 
L 130.4463 135.8208 
L 130.1487 135.8208 
L 129.8511 135.0816 
L 129.5535 135.0816 
L 129.2559 135.0816 
L 128.9583 135.0816 
L 128.6607 134.3424 
L 128.3631 135.0816 
L 128.0655 135.0816 
L 127.7679 135.0816 
L 127.4703 135.0816 
L 127.1727 133.6032 
L 126.8751 135.0816 
L 126.5775 135.0816 
L 126.2799 135.0816 
L 125.9823 135.0816 
L 125.6847 135.0816 
L 125.3871 135.0816 
L 125.0895 135.0816 
L 124.7919 135.0816 
L 124.4943 135.0816 
L 124.1967 135.0816 
L 123.8991 135.0816 
L 123.6015 135.0816 
L 123.3039 135.0816 
L 123.0063 135.0816 
L 122.7087 136.1904 
L 122.4111 135.0816 
L 122.1135 136.1904 
L 121.8159 135.8208 
L 121.5183 137.2992 
L 121.2207 137.2992 
L 120.9231 137.2992 
L 120.6255 137.2992 
L 120.3279 137.2992 
L 120.0303 137.2992 
L 119.7327 137.2992 
L 119.4351 137.2992 
L 119.1375 137.2992 
L 118.8399 137.2992 
L 118.5423 137.2992 
L 118.2447 137.2992 
L 117.9471 137.2992 
L 117.6495 137.2992 
L 117.3519 137.2992 
L 117.0543 150.6048 
L 116.7567 151.344 
L 116.4591 156.5184 
L 116.1615 151.344 
L 115.8639 152.4528 
L 115.5663 153.5616 
L 115.2687 157.9968 
L 114.9711 157.9968 
L 114.6735 157.9968 
L 114.3759 159.4752 
L 114.0783 172.0416 
L 113.7807 172.0416 
L 113.4831 172.0416 
L 113.1855 191.2608 
L 112.8879 173.52 
L 112.5903 182.3904 
L 112.2927 179.4336 
L 111.9951 183.1296 
L 111.6975 182.3904 
L 111.3999 182.3904 
L 111.1023 182.3904 
L 110.8047 182.3904 
L 110.5071 190.152 
L 110.2095 193.4784 
L 109.9119 193.4784 
L 109.6143 193.4784 
L 109.3167 193.4784 
L 109.0191 173.52 
L 108.7215 194.2176 
L 108.4239 174.9984 
L 108.1263 183.8688 
L 107.8287 173.52 
L 107.5311 174.9984 
L 107.2335 173.52 
L 106.9359 173.52 
L 106.6383 173.52 
L 106.3407 170.5632 
L 106.0431 182.3904 
L 105.7455 183.8688 
L 105.4479 172.7808 
L 105.1503 172.4112 
L 104.8527 173.52 
L 104.5551 173.52 
L 104.2575 175.7376 
L 103.9599 175.7376 
L 103.6623 171.3024 
L 103.3647 173.52 
L 103.0671 176.4768 
L 102.7695 173.52 
L 102.4719 173.52 
L 102.1743 173.52 
L 101.8767 174.2592 
L 101.5791 174.9984 
L 101.2815 173.52 
L 100.9839 173.52 
L 100.6863 172.0416 
L 100.3887 173.52 
L 100.0911 173.52 
L 99.7935 173.52 
L 99.4959 175.7376 
L 99.1983 175.7376 
L 98.9007 173.52 
L 98.6031 173.52 
L 98.3055 174.9984 
L 98.0079 174.9984 
L 97.7103 173.52 
L 97.4127 173.52 
L 97.1151 172.7808 
L 96.8175 173.52 
L 96.5199 173.52 
L 96.2223 173.52 
L 95.9247 174.2592 
L 95.6271 173.52 
L 95.3295 173.52 
L 95.0319 171.672 
L 94.7343 173.52 
L 94.4367 173.52 
L 94.1391 174.9984 
L 93.8415 174.6288 
L 93.5439 173.1504 
L 93.2463 173.52 
L 92.9487 173.1504 
L 92.6511 174.2592 
L 92.3535 174.9984 
L 92.0559 176.4768 
L 91.7583 176.4768 
L 91.4607 183.1296 
L 91.1631 173.1504 
L 90.8655 172.0416 
L 90.5679 174.2592 
L 90.2703 174.2592 
L 89.9727 172.0416 
L 89.6751 174.2592 
L 89.3775 176.4768 
L 89.0799 178.6944 
L 88.7823 177.5856 
L 88.4847 174.2592 
L 88.1871 178.6944 
L 87.8895 178.6944 
L 87.5919 178.6944 
L 87.2943 178.6944 
L 86.9967 178.6944 
L 86.6991 182.0208 
L 86.4015 180.1728 
L 86.1039 183.1296 
L 85.8063 181.6512 
L 85.5087 181.6512 
L 85.2111 187.5648 
L 84.9135 189.7824 
L 84.6159 186.456 
L 84.3183 188.6736 
L 84.0207 191.6304 
L 83.7231 194.9568 
L 83.4255 194.9568 
L 83.1279 186.0864 
L 82.8303 189.0432 
L 82.5327 192.7392 
L 82.2351 188.304 
L 81.9375 194.2176 
L 81.6399 192.7392 
L 81.3423 193.4784 
L 81.0447 192.3696 
L 80.7471 193.4784 
L 80.4495 193.1088 
L 80.1519 192 
L 79.8543 196.4352 
L 79.5567 197.1744 
L 79.2591 193.4784 
L 78.9615 193.4784 
L 78.6639 193.4784 
L 78.3663 193.4784 
L 78.0687 193.4784 
L 77.7711 193.4784 
L 77.4735 192.7392 
L 77.1759 195.696 
L 76.8783 193.1088 
L 76.5807 195.696 
L 76.2831 195.696 
L 75.9855 193.4784 
L 75.6879 195.696 
L 75.3903 194.2176 
L 75.0927 195.3264 
L 74.7951 195.696 
L 74.4975 195.3264 
L 74.1999 194.2176 
L 73.9023 194.2176 
L 73.6047 196.4352 
L 73.3071 197.1744 
L 73.0095 198.2832 
L 72.7119 198.6528 
L 72.4143 198.6528 
L 72.1167 196.4352 
L 71.8191 198.6528 
L 71.5215 197.1744 
L 71.2239 200.1312 
L 70.9263 198.6528 
L 70.6287 198.6528 
L 70.3311 198.6528 
L 70.0335 198.6528 
L 69.7359 198.2832 
L 69.4383 199.392 
L 69.1407 198.6528 
L 68.8431 198.6528 
L 68.5455 197.9136 
L 68.2479 197.9136 
L 67.9503 197.9136 
L 67.6527 199.392 
L 67.3551 199.392 
L 67.0575 199.392 
L 66.7599 199.392 
L 66.4623 199.392 
L 66.1647 199.392 
L 65.8671 199.392 
L 65.5695 199.392 
L 65.2719 200.5008 
L 64.9743 198.6528 
L 64.6767 199.392 
L 64.3791 202.3488 
L 64.0815 202.3488 
L 63.7839 202.3488 
L 63.4863 202.3488 
L 63.1887 203.088 
L 62.8911 201.9792 
L 62.5935 203.8272 
L 62.2959 203.8272 
L 61.9983 203.8272 
L 61.7007 203.8272 
L 61.4031 203.8272 
L 61.1055 203.8272 
L 60.8079 203.8272 
L 60.5103 203.8272 
L 60.2127 203.8272 
L 59.9151 203.8272 
L 59.6175 203.088 
L 59.3199 203.088 
L 59.0223 203.088 
L 58.7247 203.088 
L 58.4271 203.088 
L 58.1295 203.8272 
L 57.8319 203.8272 
L 57.5343 203.8272 
L 57.2367 203.8272 
L 56.9391 203.8272 
L 56.6415 203.8272 
L 56.3439 203.8272 
L 56.0463 203.8272 
L 55.7487 203.8272 
L 55.4511 206.0448 
L 55.1535 206.0448 
L 54.8559 207.5232 
L 54.5583 209.0016 
L 54.2607 206.784 
L 53.9631 210.48 
L 53.6655 209.3712 
L 53.3679 209.0016 
L 53.0703 209.0016 
L 52.7727 209.7408 
L 52.4751 209.7408 
L 52.1775 209.7408 
L 51.8799 211.2192 
L 51.5823 209.7408 
L 51.2847 211.2192 
L 50.9871 213.4368 
L 50.6895 212.328 
L 50.3919 212.6976 
L 50.0943 213.4368 
L 49.7967 213.4368 
L 49.4991 214.176 
L 49.2015 215.6544 
z
" clip-path="url(#p15a1cff792)" style="fill: #38b977; fill-opacity: 0.3"/>
   </g>
   <g id="matplotlib.axis_1">
    <g id="xtick_1">
     <g id="line2d_1">
      <defs>
       <path id="m9a39033c9a" d="M 0 0 
L 0 3.5 
" style="stroke: #000000; stroke-width: 0.8"/>
      </defs>
      <g>
       <use xlink:href="#m9a39033c9a" x="33.5775" y="228.96" style="stroke: #000000; stroke-width: 0.8"/>
      </g>
     </g>
     <g id="text_1">
      <text style="font: 6px 'DejaVu Sans', 'Bitstream Vera Sans', 'Computer Modern Sans Serif', 'Lucida Grande', 'Verdana', 'Geneva', 'Lucid', 'Arial', 'Helvetica', 'Avant Garde', sans-serif; text-anchor: middle" x="33.5775" y="240.519062" transform="rotate(-0 33.5775 240.519062)">0</text>
     </g>
    </g>
    <g id="xtick_2">
     <g id="line2d_2">
      <g>
       <use xlink:href="#m9a39033c9a" x="69.2895" y="228.96" style="stroke: #000000; stroke-width: 0.8"/>
      </g>
     </g>
     <g id="text_2">
      <text style="font: 6px 'DejaVu Sans', 'Bitstream Vera Sans', 'Computer Modern Sans Serif', 'Lucida Grande', 'Verdana', 'Geneva', 'Lucid', 'Arial', 'Helvetica', 'Avant Garde', sans-serif; text-anchor: middle" x="69.2895" y="240.519062" transform="rotate(-0 69.2895 240.519062)">4</text>
     </g>
    </g>
    <g id="xtick_3">
     <g id="line2d_3">
      <g>
       <use xlink:href="#m9a39033c9a" x="105.0015" y="228.96" style="stroke: #000000; stroke-width: 0.8"/>
      </g>
     </g>
     <g id="text_3">
      <text style="font: 6px 'DejaVu Sans', 'Bitstream Vera Sans', 'Computer Modern Sans Serif', 'Lucida Grande', 'Verdana', 'Geneva', 'Lucid', 'Arial', 'Helvetica', 'Avant Garde', sans-serif; text-anchor: middle" x="105.0015" y="240.519062" transform="rotate(-0 105.0015 240.519062)">8</text>
     </g>
    </g>
    <g id="xtick_4">
     <g id="line2d_4">
      <g>
       <use xlink:href="#m9a39033c9a" x="140.7135" y="228.96" style="stroke: #000000; stroke-width: 0.8"/>
      </g>
     </g>
     <g id="text_4">
      <text style="font: 6px 'DejaVu Sans', 'Bitstream Vera Sans', 'Computer Modern Sans Serif', 'Lucida Grande', 'Verdana', 'Geneva', 'Lucid', 'Arial', 'Helvetica', 'Avant Garde', sans-serif; text-anchor: middle" x="140.7135" y="240.519062" transform="rotate(-0 140.7135 240.519062)">12</text>
     </g>
    </g>
    <g id="xtick_5">
     <g id="line2d_5">
      <g>
       <use xlink:href="#m9a39033c9a" x="176.4255" y="228.96" style="stroke: #000000; stroke-width: 0.8"/>
      </g>
     </g>
     <g id="text_5">
      <text style="font: 6px 'DejaVu Sans', 'Bitstream Vera Sans', 'Computer Modern Sans Serif', 'Lucida Grande', 'Verdana', 'Geneva', 'Lucid', 'Arial', 'Helvetica', 'Avant Garde', sans-serif; text-anchor: middle" x="176.4255" y="240.519062" transform="rotate(-0 176.4255 240.519062)">16</text>
     </g>
    </g>
    <g id="xtick_6">
     <g id="line2d_6">
      <g>
       <use xlink:href="#m9a39033c9a" x="212.1375" y="228.96" style="stroke: #000000; stroke-width: 0.8"/>
      </g>
     </g>
     <g id="text_6">
      <text style="font: 6px 'DejaVu Sans', 'Bitstream Vera Sans', 'Computer Modern Sans Serif', 'Lucida Grande', 'Verdana', 'Geneva', 'Lucid', 'Arial', 'Helvetica', 'Avant Garde', sans-serif; text-anchor: middle" x="212.1375" y="240.519062" transform="rotate(-0 212.1375 240.519062)">20</text>
     </g>
    </g>
    <g id="xtick_7">
     <g id="line2d_7">
      <g>
       <use xlink:href="#m9a39033c9a" x="247.8495" y="228.96" style="stroke: #000000; stroke-width: 0.8"/>
      </g>
     </g>
     <g id="text_7">
      <text style="font: 6px 'DejaVu Sans', 'Bitstream Vera Sans', 'Computer Modern Sans Serif', 'Lucida Grande', 'Verdana', 'Geneva', 'Lucid', 'Arial', 'Helvetica', 'Avant Garde', sans-serif; text-anchor: middle" x="247.8495" y="240.519062" transform="rotate(-0 247.8495 240.519062)">24</text>
     </g>
    </g>
    <g id="text_8">
     <text style="font: 8px 'DejaVu Sans', 'Bitstream Vera Sans', 'Computer Modern Sans Serif', 'Lucida Grande', 'Verdana', 'Geneva', 'Lucid', 'Arial', 'Helvetica', 'Avant Garde', sans-serif; text-anchor: middle" x="145.1775" y="251.845625" transform="rotate(-0 145.1775 251.845625)">Experimental time (hpf)</text>
    </g>
   </g>
   <g id="matplotlib.axis_2">
    <g id="ytick_1">
     <g id="line2d_8">
      <defs>
       <path id="m541fd265b7" d="M 0 0 
L -3.5 0 
" style="stroke: #000000; stroke-width: 0.8"/>
      </defs>
      <g>
       <use xlink:href="#m541fd265b7" x="33.5775" y="228.96" style="stroke: #000000; stroke-width: 0.8"/>
      </g>
     </g>
     <g id="text_9">
      <text style="font: 6px 'DejaVu Sans', 'Bitstream Vera Sans', 'Computer Modern Sans Serif', 'Lucida Grande', 'Verdana', 'Geneva', 'Lucid', 'Arial', 'Helvetica', 'Avant Garde', sans-serif; text-anchor: end" x="26.5775" y="231.239531" transform="rotate(-0 26.5775 231.239531)">0</text>
     </g>
    </g>
    <g id="ytick_2">
     <g id="line2d_9">
      <g>
       <use xlink:href="#m541fd265b7" x="33.5775" y="193.4784" style="stroke: #000000; stroke-width: 0.8"/>
      </g>
     </g>
     <g id="text_10">
      <text style="font: 6px 'DejaVu Sans', 'Bitstream Vera Sans', 'Computer Modern Sans Serif', 'Lucida Grande', 'Verdana', 'Geneva', 'Lucid', 'Arial', 'Helvetica', 'Avant Garde', sans-serif; text-anchor: end" x="26.5775" y="195.757931" transform="rotate(-0 26.5775 195.757931)">4</text>
     </g>
    </g>
    <g id="ytick_3">
     <g id="line2d_10">
      <g>
       <use xlink:href="#m541fd265b7" x="33.5775" y="157.9968" style="stroke: #000000; stroke-width: 0.8"/>
      </g>
     </g>
     <g id="text_11">
      <text style="font: 6px 'DejaVu Sans', 'Bitstream Vera Sans', 'Computer Modern Sans Serif', 'Lucida Grande', 'Verdana', 'Geneva', 'Lucid', 'Arial', 'Helvetica', 'Avant Garde', sans-serif; text-anchor: end" x="26.5775" y="160.276331" transform="rotate(-0 26.5775 160.276331)">8</text>
     </g>
    </g>
    <g id="ytick_4">
     <g id="line2d_11">
      <g>
       <use xlink:href="#m541fd265b7" x="33.5775" y="122.5152" style="stroke: #000000; stroke-width: 0.8"/>
      </g>
     </g>
     <g id="text_12">
      <text style="font: 6px 'DejaVu Sans', 'Bitstream Vera Sans', 'Computer Modern Sans Serif', 'Lucida Grande', 'Verdana', 'Geneva', 'Lucid', 'Arial', 'Helvetica', 'Avant Garde', sans-serif; text-anchor: end" x="26.5775" y="124.794731" transform="rotate(-0 26.5775 124.794731)">12</text>
     </g>
    </g>
    <g id="ytick_5">
     <g id="line2d_12">
      <g>
       <use xlink:href="#m541fd265b7" x="33.5775" y="87.0336" style="stroke: #000000; stroke-width: 0.8"/>
      </g>
     </g>
     <g id="text_13">
      <text style="font: 6px 'DejaVu Sans', 'Bitstream Vera Sans', 'Computer Modern Sans Serif', 'Lucida Grande', 'Verdana', 'Geneva', 'Lucid', 'Arial', 'Helvetica', 'Avant Garde', sans-serif; text-anchor: end" x="26.5775" y="89.313131" transform="rotate(-0 26.5775 89.313131)">16</text>
     </g>
    </g>
    <g id="ytick_6">
     <g id="line2d_13">
      <g>
       <use xlink:href="#m541fd265b7" x="33.5775" y="51.552" style="stroke: #000000; stroke-width: 0.8"/>
      </g>
     </g>
     <g id="text_14">
      <text style="font: 6px 'DejaVu Sans', 'Bitstream Vera Sans', 'Computer Modern Sans Serif', 'Lucida Grande', 'Verdana', 'Geneva', 'Lucid', 'Arial', 'Helvetica', 'Avant Garde', sans-serif; text-anchor: end" x="26.5775" y="53.831531" transform="rotate(-0 26.5775 53.831531)">20</text>
     </g>
    </g>
    <g id="ytick_7">
     <g id="line2d_14">
      <g>
       <use xlink:href="#m541fd265b7" x="33.5775" y="16.0704" style="stroke: #000000; stroke-width: 0.8"/>
      </g>
     </g>
     <g id="text_15">
      <text style="font: 6px 'DejaVu Sans', 'Bitstream Vera Sans', 'Computer Modern Sans Serif', 'Lucida Grande', 'Verdana', 'Geneva', 'Lucid', 'Arial', 'Helvetica', 'Avant Garde', sans-serif; text-anchor: end" x="26.5775" y="18.349931" transform="rotate(-0 26.5775 18.349931)">24</text>
     </g>
    </g>
    <g id="text_16">
     <text style="font: 8px 'DejaVu Sans', 'Bitstream Vera Sans', 'Computer Modern Sans Serif', 'Lucida Grande', 'Verdana', 'Geneva', 'Lucid', 'Arial', 'Helvetica', 'Avant Garde', sans-serif; text-anchor: middle" x="13.27875" y="118.08" transform="rotate(-90 13.27875 118.08)">Developmental age (hpf)</text>
    </g>
   </g>
   <g id="line2d_15">
    <path d="M 42.5055 221.294192 
L 231.942646 -1 
L 231.942646 -1 
" clip-path="url(#p15a1cff792)" style="fill: none; stroke: #38b977; stroke-linecap: square"/>
   </g>
   <g id="line2d_16">
    <path d="M 42.5055 221.188483 
L 234.434672 -1 
L 234.434672 -1 
" clip-path="url(#p15a1cff792)" style="fill: none; stroke-dasharray: 3.7,1.6; stroke-dashoffset: 0; stroke: #38b977"/>
   </g>
   <g id="line2d_17">
    <path d="M 42.5055 221.443508 
L 228.53472 -1 
L 228.53472 -1 
" clip-path="url(#p15a1cff792)" style="fill: none; stroke-dasharray: 3.7,1.6; stroke-dashoffset: 0; stroke: #38b977"/>
   </g>
   <g id="patch_3">
    <path d="M 33.5775 228.96 
L 33.5775 7.2 
" style="fill: none; stroke: #000000; stroke-width: 0.8; stroke-linejoin: miter; stroke-linecap: square"/>
   </g>
   <g id="patch_4">
    <path d="M 33.5775 228.96 
L 256.7775 228.96 
" style="fill: none; stroke: #000000; stroke-width: 0.8; stroke-linejoin: miter; stroke-linecap: square"/>
   </g>
   <g id="legend_1">
    <g id="patch_5">
     <path d="M 37.6305 28.829269 
L 196.698989 28.829269 
Q 197.856989 28.829269 197.856989 27.671269 
L 197.856989 11.253 
Q 197.856989 10.095 196.698989 10.095 
L 37.6305 10.095 
Q 36.4725 10.095 36.4725 11.253 
L 36.4725 27.671269 
Q 36.4725 28.829269 37.6305 28.829269 
z
" style="fill: #ffffff; opacity: 0.8; stroke: #cccccc; stroke-linejoin: miter"/>
    </g>
    <g id="line2d_18">
     <path d="M 38.7885 14.783995 
L 44.5785 14.783995 
L 50.3685 14.783995 
" style="fill: none; stroke: #38b977; stroke-linecap: square"/>
    </g>
    <g id="text_17">
     <text style="font: 5.79px 'DejaVu Sans', 'Bitstream Vera Sans', 'Computer Modern Sans Serif', 'Lucida Grande', 'Verdana', 'Geneva', 'Lucid', 'Arial', 'Helvetica', 'Avant Garde', sans-serif; text-anchor: start" x="55.0005" y="16.810495" transform="rotate(-0 55.0005 16.810495)">Linear fit: slope=1.182 [1.165,1.204], R2=0.981</text>
    </g>
    <g id="patch_6">
     <path d="M 38.7885 25.30913 
L 50.3685 25.30913 
L 50.3685 21.25613 
L 38.7885 21.25613 
z
" style="fill: #38b977; fill-opacity: 0.3"/>
    </g>
    <g id="text_18">
     <text style="font: 5.79px 'DejaVu Sans', 'Bitstream Vera Sans', 'Computer Modern Sans Serif', 'Lucida Grande', 'Verdana', 'Geneva', 'Lucid', 'Arial', 'Helvetica', 'Avant Garde', sans-serif; text-anchor: start" x="55.0005" y="25.30913" transform="rotate(-0 55.0005 25.30913)">Median:30.5C</text>
    </g>
   </g>
  </g>
 </g>
 <defs>
  <clipPath id="p15a1cff792">
   <rect x="33.5775" y="7.2" width="223.2" height="221.76"/>
  </clipPath>
 </defs>
</svg>
