<?xml version="1.0" encoding="utf-8" standalone="no"?>
<!DOCTYPE svg PUBLIC "-//W3C//DTD SVG 1.1//EN"
  "http://www.w3.org/Graphics/SVG/1.1/DTD/svg11.dtd">
<svg xmlns:xlink="http://www.w3.org/1999/xlink" width="263.9775pt" height="260.709375pt" viewBox="0 0 263.9775 260.709375" xmlns="http://www.w3.org/2000/svg" version="1.1">
 <metadata>
  <rdf:RDF xmlns:dc="http://purl.org/dc/elements/1.1/" xmlns:cc="http://creativecommons.org/ns#" xmlns:rdf="http://www.w3.org/1999/02/22-rdf-syntax-ns#">
   <cc:Work>
    <dc:type rdf:resource="http://purl.org/dc/dcmitype/StillImage"/>
    <dc:date>2023-07-28T13:02:37.544293</dc:date>
    <dc:format>image/svg+xml</dc:format>
    <dc:creator>
     <cc:Agent>
      <dc:title>Matplotlib v3.7.0, https://matplotlib.org/</dc:title>
     </cc:Agent>
    </dc:creator>
   </cc:Work>
  </rdf:RDF>
 </metadata>
 <defs>
  <style type="text/css">*{stroke-linejoin: round; stroke-linecap: butt}</style>
 </defs>
 <g id="figure_1">
  <g id="patch_1">
   <path d="M 0 260.709375 
L 263.9775 260.709375 
L 263.9775 0 
L 0 0 
z
" style="fill: #ffffff"/>
  </g>
  <g id="axes_1">
   <g id="patch_2">
    <path d="M 33.5775 228.96 
L 256.7775 228.96 
L 256.7775 7.2 
L 33.5775 7.2 
z
" style="fill: #ffffff"/>
   </g>
   <g id="PolyCollection_1">
    <path d="M 44.7375 219.3504 
L 44.7375 210.48 
L 45.32774 209.0016 
L 45.91798 209.0016 
L 46.50822 209.0016 
L 47.09846 208.2624 
L 47.6887 208.2624 
L 48.27894 207.5232 
L 48.86918 207.5232 
L 49.45942 206.784 
L 50.04966 206.784 
L 50.6399 206.0448 
L 51.23014 205.3056 
L 51.82038 205.3056 
L 52.41062 205.3056 
L 53.00086 205.3056 
L 53.5911 203.8272 
L 54.18134 203.8272 
L 54.77158 203.088 
L 55.36182 203.8272 
L 55.95206 203.8272 
L 56.5423 203.088 
L 57.13254 200.8704 
L 57.72278 200.8704 
L 58.31302 200.8704 
L 58.90326 200.8704 
L 59.4935 200.8704 
L 60.08374 200.8704 
L 60.67398 200.1312 
L 61.26422 200.1312 
L 61.85446 200.8704 
L 62.4447 200.1312 
L 63.03494 199.7616 
L 63.62518 199.392 
L 64.21542 199.392 
L 64.80566 199.392 
L 65.3959 197.1744 
L 65.98614 195.696 
L 66.57638 197.1744 
L 67.16662 194.5872 
L 67.75686 191.2608 
L 68.3471 188.304 
L 68.93734 187.5648 
L 69.52758 181.6512 
L 70.11782 183.1296 
L 70.70806 182.3904 
L 71.2983 182.3904 
L 71.88854 182.3904 
L 72.47878 183.8688 
L 73.06902 182.76 
L 73.65926 183.8688 
L 74.2495 183.1296 
L 74.83974 182.76 
L 75.42998 184.2384 
L 76.02022 184.2384 
L 76.61046 181.6512 
L 77.2007 182.76 
L 77.79094 182.3904 
L 78.38118 181.6512 
L 78.97142 182.3904 
L 79.56166 180.912 
L 80.1519 179.8032 
L 80.74214 180.912 
L 81.33238 180.912 
L 81.92262 180.912 
L 82.51286 179.8032 
L 83.1031 179.4336 
L 83.69334 178.6944 
L 84.28358 177.216 
L 84.87382 177.216 
L 85.46406 172.0416 
L 86.0543 171.3024 
L 86.64454 165.3888 
L 87.23478 165.3888 
L 87.82502 157.9968 
L 88.41526 157.9968 
L 89.0055 152.8224 
L 89.59574 146.9088 
L 90.18598 153.5616 
L 90.77622 150.6048 
L 91.36646 155.04 
L 91.9567 157.9968 
L 92.54694 156.5184 
L 93.13718 157.6272 
L 93.72742 157.9968 
L 94.31766 156.888 
L 94.9079 157.9968 
L 95.49814 154.3008 
L 96.08838 152.8224 
L 96.67862 155.04 
L 97.26886 149.1264 
L 97.8591 152.8224 
L 98.44934 149.8656 
L 99.03958 140.256 
L 99.62982 139.5168 
L 100.22006 140.9952 
L 100.8103 136.56 
L 101.40054 136.9296 
L 101.99078 135.4512 
L 102.58102 138.408 
L 103.17126 124.7328 
L 103.7615 124.3632 
L 104.35174 129.168 
L 104.94198 129.168 
L 105.53222 129.9072 
L 106.12246 132.1248 
L 106.7127 134.3424 
L 107.30294 132.1248 
L 107.89318 132.864 
L 108.48342 132.864 
L 109.07366 132.1248 
L 109.6639 132.1248 
L 110.25414 130.6464 
L 110.84438 132.864 
L 111.43462 135.0816 
L 112.02486 135.0816 
L 112.6151 132.1248 
L 113.20534 132.864 
L 113.79558 137.2992 
L 114.38582 137.2992 
L 114.97606 128.4288 
L 115.5663 135.8208 
L 116.15654 136.56 
L 116.74678 135.8208 
L 117.33702 136.1904 
L 117.92726 138.408 
L 118.5175 142.4736 
L 119.10774 150.6048 
L 119.69798 149.1264 
L 120.28822 151.344 
L 120.87846 150.2352 
L 121.4687 140.256 
L 122.05894 148.3872 
L 122.64918 148.0176 
L 123.23942 144.6912 
L 123.82966 146.9088 
L 124.4199 136.9296 
L 125.01014 138.0384 
L 125.60038 136.56 
L 126.19062 135.4512 
L 126.78086 122.5152 
L 127.3711 121.776 
L 127.96134 121.776 
L 128.55158 123.624 
L 129.14182 126.9504 
L 129.73206 126.5808 
L 130.3223 129.9072 
L 130.91254 129.9072 
L 131.50278 129.168 
L 132.09302 130.2768 
L 132.68326 127.32 
L 133.2735 127.6896 
L 133.86374 128.4288 
L 134.45398 129.168 
L 135.04422 129.9072 
L 135.63446 130.2768 
L 136.2247 127.6896 
L 136.81494 127.6896 
L 137.40518 128.0592 
L 137.99542 128.4288 
L 138.58566 129.9072 
L 139.1759 128.7984 
L 139.76614 129.168 
L 140.35638 129.168 
L 140.94662 129.168 
L 141.53686 129.168 
L 142.1271 130.6464 
L 142.71734 129.168 
L 143.30758 129.168 
L 143.89782 129.168 
L 144.48806 129.168 
L 145.0783 129.9072 
L 145.66854 127.6896 
L 146.25878 126.9504 
L 146.84902 127.32 
L 147.43926 126.9504 
L 148.0295 126.2112 
L 148.61974 127.6896 
L 149.20998 124.7328 
L 149.80022 122.5152 
L 150.39046 122.5152 
L 150.9807 122.5152 
L 151.57094 122.5152 
L 152.16118 122.5152 
L 152.75142 120.2976 
L 153.34166 118.08 
L 153.9319 115.1232 
L 154.52214 114.384 
L 155.11238 113.6448 
L 155.70262 112.9056 
L 156.29286 112.9056 
L 156.8831 112.1664 
L 157.47334 107.7312 
L 158.06358 109.9488 
L 158.65382 103.296 
L 159.24406 98.8608 
L 159.8343 98.8608 
L 160.42454 96.6432 
L 161.01478 96.6432 
L 161.60502 99.6 
L 162.19526 96.6432 
L 162.7855 94.4256 
L 163.37574 92.9472 
L 163.96598 92.208 
L 164.55622 90.7296 
L 165.14646 92.208 
L 165.7367 92.9472 
L 166.32694 92.208 
L 166.91718 88.512 
L 167.50742 89.9904 
L 168.09766 84.816 
L 168.6879 87.0336 
L 169.27814 79.6416 
L 169.86838 82.5984 
L 170.45862 78.5328 
L 171.04886 75.9456 
L 171.6391 77.424 
L 172.22934 74.8368 
L 172.81958 77.0544 
L 173.40982 65.5968 
L 174.00006 72.9888 
L 174.5903 72.2496 
L 175.18054 73.728 
L 175.77078 73.728 
L 176.36102 72.9888 
L 176.95126 60.0528 
L 177.5415 64.488 
L 178.13174 56.3568 
L 178.72198 66.7056 
L 179.31222 57.4656 
L 179.90246 58.944 
L 180.4927 58.2048 
L 181.08294 55.9872 
L 181.67318 54.8784 
L 182.26342 56.7264 
L 182.85366 57.096 
L 183.4439 54.5088 
L 184.03414 54.5088 
L 184.62438 51.9216 
L 185.21462 50.4432 
L 185.80486 57.4656 
L 186.3951 57.4656 
L 186.98534 50.4432 
L 187.57558 50.4432 
L 188.16582 49.3344 
L 188.75606 50.0736 
L 189.3463 50.4432 
L 189.93654 50.0736 
L 190.52678 49.3344 
L 191.11702 50.4432 
L 191.70726 50.8128 
L 192.2975 49.3344 
L 192.88774 50.0736 
L 193.47798 50.0736 
L 194.06822 52.2912 
L 194.65846 47.856 
L 195.2487 48.5952 
L 195.83894 47.4864 
L 196.42918 45.6384 
L 197.01942 49.3344 
L 197.60966 48.5952 
L 198.1999 48.5952 
L 198.79014 46.3776 
L 199.38038 39.3552 
L 199.97062 49.3344 
L 200.56086 41.5728 
L 201.1511 42.6816 
L 201.74134 41.9424 
L 202.33158 43.4208 
L 202.92182 42.6816 
L 203.51206 40.464 
L 204.1023 44.5296 
L 204.69254 38.2464 
L 205.28278 34.92 
L 205.87302 39.7248 
L 206.46326 36.768 
L 207.0535 35.2896 
L 207.64374 38.616 
L 208.23398 33.8112 
L 208.82422 35.2896 
L 209.41446 34.1808 
L 210.0047 38.2464 
L 210.59494 32.3328 
L 211.18518 31.5936 
L 211.77542 29.376 
L 212.36566 33.8112 
L 212.9559 28.2672 
L 213.54614 29.376 
L 214.13638 29.0064 
L 214.72662 30.1152 
L 215.31686 29.7456 
L 215.9071 29.7456 
L 216.49734 20.5056 
L 217.08758 23.4624 
L 217.67782 21.984 
L 218.26806 26.7888 
L 218.8583 22.7232 
L 219.44854 25.68 
L 220.03878 24.9408 
L 220.62902 24.9408 
L 221.21926 23.832 
L 221.8095 24.9408 
L 222.39974 24.9408 
L 222.98998 26.4192 
L 223.58022 22.3536 
L 224.17046 23.4624 
L 224.7607 25.68 
L 225.35094 29.376 
L 225.94118 23.4624 
L 226.53142 19.7664 
L 227.12166 21.2448 
L 227.7119 24.9408 
L 228.30214 26.0496 
L 228.89238 20.5056 
L 229.48262 21.984 
L 230.07286 21.984 
L 230.6631 19.7664 
L 231.25334 19.0272 
L 231.84358 17.5488 
L 232.43382 19.0272 
L 233.02406 19.0272 
L 233.6143 22.7232 
L 234.20454 17.9184 
L 234.79478 18.288 
L 235.38502 19.7664 
L 235.97526 18.288 
L 236.5655 20.136 
L 237.15574 19.7664 
L 237.74598 18.288 
L 238.33622 16.44 
L 238.92646 19.0272 
L 239.5167 14.2224 
L 240.10694 13.8528 
L 240.69718 16.44 
L 241.28742 14.592 
L 241.87766 13.8528 
L 242.4679 15.3312 
L 243.05814 13.8528 
L 243.64838 13.1136 
L 243.64838 45.6384 
L 243.64838 45.6384 
L 243.05814 43.4208 
L 242.4679 43.4208 
L 241.87766 46.3776 
L 241.28742 47.1168 
L 240.69718 44.5296 
L 240.10694 50.8128 
L 239.5167 48.2256 
L 238.92646 48.5952 
L 238.33622 53.4 
L 237.74598 50.8128 
L 237.15574 49.3344 
L 236.5655 48.2256 
L 235.97526 53.7696 
L 235.38502 49.3344 
L 234.79478 52.2912 
L 234.20454 54.8784 
L 233.6143 52.2912 
L 233.02406 58.944 
L 232.43382 51.552 
L 231.84358 57.4656 
L 231.25334 57.4656 
L 230.6631 59.6832 
L 230.07286 57.4656 
L 229.48262 57.4656 
L 228.89238 58.944 
L 228.30214 60.0528 
L 227.7119 61.9008 
L 227.12166 59.6832 
L 226.53142 62.64 
L 225.94118 58.944 
L 225.35094 58.944 
L 224.7607 58.2048 
L 224.17046 61.9008 
L 223.58022 65.2272 
L 222.98998 61.9008 
L 222.39974 61.9008 
L 221.8095 63.3792 
L 221.21926 66.7056 
L 220.62902 63.3792 
L 220.03878 66.336 
L 219.44854 65.5968 
L 218.8583 70.032 
L 218.26806 71.1408 
L 217.67782 69.2928 
L 217.08758 70.7712 
L 216.49734 67.8144 
L 215.9071 69.6624 
L 215.31686 69.6624 
L 214.72662 68.5536 
L 214.13638 68.9232 
L 213.54614 70.7712 
L 212.9559 74.0976 
L 212.36566 75.2064 
L 211.77542 70.7712 
L 211.18518 72.9888 
L 210.59494 76.6848 
L 210.0047 75.2064 
L 209.41446 74.0976 
L 208.82422 76.6848 
L 208.23398 81.12 
L 207.64374 78.5328 
L 207.0535 82.5984 
L 206.46326 81.12 
L 205.87302 81.12 
L 205.28278 83.7072 
L 204.69254 82.5984 
L 204.1023 78.5328 
L 203.51206 81.8592 
L 202.92182 81.12 
L 202.33158 78.9024 
L 201.74134 81.8592 
L 201.1511 84.0768 
L 200.56086 84.4464 
L 199.97062 81.8592 
L 199.38038 85.1856 
L 198.79014 84.816 
L 198.1999 84.0768 
L 197.60966 87.0336 
L 197.01942 87.7728 
L 196.42918 89.9904 
L 195.83894 90.36 
L 195.2487 87.0336 
L 194.65846 92.208 
L 194.06822 90.7296 
L 193.47798 91.4688 
L 192.88774 91.4688 
L 192.2975 93.6864 
L 191.70726 93.6864 
L 191.11702 96.2736 
L 190.52678 98.1216 
L 189.93654 97.3824 
L 189.3463 96.2736 
L 188.75606 97.3824 
L 188.16582 98.1216 
L 187.57558 100.7088 
L 186.98534 100.7088 
L 186.3951 101.8176 
L 185.80486 104.7744 
L 185.21462 106.6224 
L 184.62438 111.0576 
L 184.03414 110.688 
L 183.4439 110.688 
L 182.85366 114.7536 
L 182.26342 115.8624 
L 181.67318 115.4928 
L 181.08294 118.08 
L 180.4927 115.8624 
L 179.90246 115.1232 
L 179.31222 119.5584 
L 178.72198 116.9712 
L 178.13174 124.3632 
L 177.5415 122.1456 
L 176.95126 123.624 
L 176.36102 120.2976 
L 175.77078 121.0368 
L 175.18054 121.0368 
L 174.5903 125.472 
L 174.00006 127.6896 
L 173.40982 132.1248 
L 172.81958 128.7984 
L 172.22934 129.5376 
L 171.6391 130.6464 
L 171.04886 130.6464 
L 170.45862 130.2768 
L 169.86838 126.9504 
L 169.27814 129.9072 
L 168.6879 126.9504 
L 168.09766 126.2112 
L 167.50742 134.3424 
L 166.91718 135.8208 
L 166.32694 133.6032 
L 165.7367 134.3424 
L 165.14646 139.5168 
L 164.55622 140.9952 
L 163.96598 139.5168 
L 163.37574 138.7776 
L 162.7855 140.256 
L 162.19526 138.0384 
L 161.60502 138.0384 
L 161.01478 140.9952 
L 160.42454 140.9952 
L 159.8343 140.256 
L 159.24406 140.256 
L 158.65382 138.7776 
L 158.06358 136.56 
L 157.47334 137.2992 
L 156.8831 135.8208 
L 156.29286 139.5168 
L 155.70262 139.5168 
L 155.11238 140.256 
L 154.52214 139.5168 
L 153.9319 138.7776 
L 153.34166 138.7776 
L 152.75142 138.0384 
L 152.16118 137.2992 
L 151.57094 137.2992 
L 150.9807 137.2992 
L 150.39046 137.2992 
L 149.80022 137.2992 
L 149.20998 136.56 
L 148.61974 136.56 
L 148.0295 136.56 
L 147.43926 138.7776 
L 146.84902 137.6688 
L 146.25878 138.7776 
L 145.66854 138.0384 
L 145.0783 135.8208 
L 144.48806 138.0384 
L 143.89782 138.0384 
L 143.30758 138.0384 
L 142.71734 138.0384 
L 142.1271 136.56 
L 141.53686 138.0384 
L 140.94662 138.0384 
L 140.35638 138.0384 
L 139.76614 138.0384 
L 139.1759 139.1472 
L 138.58566 138.7776 
L 137.99542 141.7344 
L 137.40518 141.3648 
L 136.81494 142.4736 
L 136.2247 142.4736 
L 135.63446 143.5824 
L 135.04422 144.6912 
L 134.45398 146.9088 
L 133.86374 149.1264 
L 133.2735 151.344 
L 132.68326 152.4528 
L 132.09302 152.4528 
L 131.50278 152.8224 
L 130.91254 153.5616 
L 130.3223 153.5616 
L 129.73206 157.6272 
L 129.14182 162.432 
L 128.55158 169.4544 
L 127.96134 172.0416 
L 127.3711 172.0416 
L 126.78086 171.3024 
L 126.19062 181.2816 
L 125.60038 177.9552 
L 125.01014 179.4336 
L 124.4199 182.76 
L 123.82966 176.4768 
L 123.23942 180.1728 
L 122.64918 176.1072 
L 122.05894 176.4768 
L 121.4687 183.1296 
L 120.87846 175.368 
L 120.28822 174.9984 
L 119.69798 175.7376 
L 119.10774 174.2592 
L 118.5175 180.912 
L 117.92726 185.7168 
L 117.33702 184.9776 
L 116.74678 186.0864 
L 116.15654 183.8688 
L 115.5663 180.1728 
L 114.97606 168.3456 
L 114.38582 172.7808 
L 113.79558 172.7808 
L 113.20534 168.3456 
L 112.6151 170.5632 
L 112.02486 161.6928 
L 111.43462 161.6928 
L 110.84438 160.9536 
L 110.25414 166.128 
L 109.6639 161.6928 
L 109.07366 164.6496 
L 108.48342 160.9536 
L 107.89318 162.432 
L 107.30294 161.6928 
L 106.7127 159.4752 
L 106.12246 161.6928 
L 105.53222 163.9104 
L 104.94198 164.6496 
L 104.35174 164.6496 
L 103.7615 170.1936 
L 103.17126 169.0848 
L 102.58102 172.4112 
L 101.99078 172.4112 
L 101.40054 176.8464 
L 100.8103 177.9552 
L 100.22006 176.4768 
L 99.62982 177.9552 
L 99.03958 177.216 
L 98.44934 173.52 
L 97.8591 170.5632 
L 97.26886 174.2592 
L 96.67862 169.824 
L 96.08838 173.52 
L 95.49814 172.0416 
L 94.9079 172.7808 
L 94.31766 173.1504 
L 93.72742 172.7808 
L 93.13718 173.8896 
L 92.54694 177.216 
L 91.9567 178.6944 
L 91.36646 181.6512 
L 90.77622 186.0864 
L 90.18598 183.1296 
L 89.59574 191.2608 
L 89.0055 191.2608 
L 88.41526 202.3488 
L 87.82502 202.3488 
L 87.23478 200.8704 
L 86.64454 200.8704 
L 86.0543 199.392 
L 85.46406 198.6528 
L 84.87382 197.9136 
L 84.28358 197.9136 
L 83.69334 196.4352 
L 83.1031 197.1744 
L 82.51286 196.0656 
L 81.92262 195.696 
L 81.33238 195.696 
L 80.74214 195.696 
L 80.1519 196.0656 
L 79.56166 195.696 
L 78.97142 194.2176 
L 78.38118 194.9568 
L 77.79094 194.2176 
L 77.2007 196.0656 
L 76.61046 194.9568 
L 76.02022 197.544 
L 75.42998 197.544 
L 74.83974 196.0656 
L 74.2495 202.3488 
L 73.65926 198.6528 
L 73.06902 201.9792 
L 72.47878 201.6096 
L 71.88854 203.088 
L 71.2983 203.088 
L 70.70806 203.088 
L 70.11782 203.8272 
L 69.52758 205.3056 
L 68.93734 205.3056 
L 68.3471 206.0448 
L 67.75686 206.0448 
L 67.16662 204.936 
L 66.57638 206.0448 
L 65.98614 207.5232 
L 65.3959 206.0448 
L 64.80566 205.3056 
L 64.21542 205.3056 
L 63.62518 205.3056 
L 63.03494 205.6752 
L 62.4447 206.0448 
L 61.85446 206.784 
L 61.26422 209.0016 
L 60.67398 209.0016 
L 60.08374 209.7408 
L 59.4935 209.7408 
L 58.90326 209.7408 
L 58.31302 209.7408 
L 57.72278 209.7408 
L 57.13254 209.7408 
L 56.5423 209.0016 
L 55.95206 209.7408 
L 55.36182 209.7408 
L 54.77158 211.9584 
L 54.18134 212.6976 
L 53.5911 212.6976 
L 53.00086 214.176 
L 52.41062 214.176 
L 51.82038 214.176 
L 51.23014 214.176 
L 50.6399 214.9152 
L 50.04966 215.6544 
L 49.45942 215.6544 
L 48.86918 216.3936 
L 48.27894 216.3936 
L 47.6887 217.1328 
L 47.09846 217.1328 
L 46.50822 217.872 
L 45.91798 217.872 
L 45.32774 217.872 
L 44.7375 219.3504 
z
" clip-path="url(#p45d4964d97)" style="fill: #1f9a8a; fill-opacity: 0.3"/>
   </g>
   <g id="matplotlib.axis_1">
    <g id="xtick_1">
     <g id="line2d_1">
      <defs>
       <path id="m781d5de3d7" d="M 0 0 
L 0 3.5 
" style="stroke: #000000; stroke-width: 0.8"/>
      </defs>
      <g>
       <use xlink:href="#m781d5de3d7" x="33.5775" y="228.96" style="stroke: #000000; stroke-width: 0.8"/>
      </g>
     </g>
     <g id="text_1">
      <text style="font: 6px 'DejaVu Sans', 'Bitstream Vera Sans', 'Computer Modern Sans Serif', 'Lucida Grande', 'Verdana', 'Geneva', 'Lucid', 'Arial', 'Helvetica', 'Avant Garde', sans-serif; text-anchor: middle" x="33.5775" y="240.519062" transform="rotate(-0 33.5775 240.519062)">0</text>
     </g>
    </g>
    <g id="xtick_2">
     <g id="line2d_2">
      <g>
       <use xlink:href="#m781d5de3d7" x="69.2895" y="228.96" style="stroke: #000000; stroke-width: 0.8"/>
      </g>
     </g>
     <g id="text_2">
      <text style="font: 6px 'DejaVu Sans', 'Bitstream Vera Sans', 'Computer Modern Sans Serif', 'Lucida Grande', 'Verdana', 'Geneva', 'Lucid', 'Arial', 'Helvetica', 'Avant Garde', sans-serif; text-anchor: middle" x="69.2895" y="240.519062" transform="rotate(-0 69.2895 240.519062)">4</text>
     </g>
    </g>
    <g id="xtick_3">
     <g id="line2d_3">
      <g>
       <use xlink:href="#m781d5de3d7" x="105.0015" y="228.96" style="stroke: #000000; stroke-width: 0.8"/>
      </g>
     </g>
     <g id="text_3">
      <text style="font: 6px 'DejaVu Sans', 'Bitstream Vera Sans', 'Computer Modern Sans Serif', 'Lucida Grande', 'Verdana', 'Geneva', 'Lucid', 'Arial', 'Helvetica', 'Avant Garde', sans-serif; text-anchor: middle" x="105.0015" y="240.519062" transform="rotate(-0 105.0015 240.519062)">8</text>
     </g>
    </g>
    <g id="xtick_4">
     <g id="line2d_4">
      <g>
       <use xlink:href="#m781d5de3d7" x="140.7135" y="228.96" style="stroke: #000000; stroke-width: 0.8"/>
      </g>
     </g>
     <g id="text_4">
      <text style="font: 6px 'DejaVu Sans', 'Bitstream Vera Sans', 'Computer Modern Sans Serif', 'Lucida Grande', 'Verdana', 'Geneva', 'Lucid', 'Arial', 'Helvetica', 'Avant Garde', sans-serif; text-anchor: middle" x="140.7135" y="240.519062" transform="rotate(-0 140.7135 240.519062)">12</text>
     </g>
    </g>
    <g id="xtick_5">
     <g id="line2d_5">
      <g>
       <use xlink:href="#m781d5de3d7" x="176.4255" y="228.96" style="stroke: #000000; stroke-width: 0.8"/>
      </g>
     </g>
     <g id="text_5">
      <text style="font: 6px 'DejaVu Sans', 'Bitstream Vera Sans', 'Computer Modern Sans Serif', 'Lucida Grande', 'Verdana', 'Geneva', 'Lucid', 'Arial', 'Helvetica', 'Avant Garde', sans-serif; text-anchor: middle" x="176.4255" y="240.519062" transform="rotate(-0 176.4255 240.519062)">16</text>
     </g>
    </g>
    <g id="xtick_6">
     <g id="line2d_6">
      <g>
       <use xlink:href="#m781d5de3d7" x="212.1375" y="228.96" style="stroke: #000000; stroke-width: 0.8"/>
      </g>
     </g>
     <g id="text_6">
      <text style="font: 6px 'DejaVu Sans', 'Bitstream Vera Sans', 'Computer Modern Sans Serif', 'Lucida Grande', 'Verdana', 'Geneva', 'Lucid', 'Arial', 'Helvetica', 'Avant Garde', sans-serif; text-anchor: middle" x="212.1375" y="240.519062" transform="rotate(-0 212.1375 240.519062)">20</text>
     </g>
    </g>
    <g id="xtick_7">
     <g id="line2d_7">
      <g>
       <use xlink:href="#m781d5de3d7" x="247.8495" y="228.96" style="stroke: #000000; stroke-width: 0.8"/>
      </g>
     </g>
     <g id="text_7">
      <text style="font: 6px 'DejaVu Sans', 'Bitstream Vera Sans', 'Computer Modern Sans Serif', 'Lucida Grande', 'Verdana', 'Geneva', 'Lucid', 'Arial', 'Helvetica', 'Avant Garde', sans-serif; text-anchor: middle" x="247.8495" y="240.519062" transform="rotate(-0 247.8495 240.519062)">24</text>
     </g>
    </g>
    <g id="text_8">
     <text style="font: 8px 'DejaVu Sans', 'Bitstream Vera Sans', 'Computer Modern Sans Serif', 'Lucida Grande', 'Verdana', 'Geneva', 'Lucid', 'Arial', 'Helvetica', 'Avant Garde', sans-serif; text-anchor: middle" x="145.1775" y="251.845625" transform="rotate(-0 145.1775 251.845625)">Experimental time (hpf)</text>
    </g>
   </g>
   <g id="matplotlib.axis_2">
    <g id="ytick_1">
     <g id="line2d_8">
      <defs>
       <path id="mea90332302" d="M 0 0 
L -3.5 0 
" style="stroke: #000000; stroke-width: 0.8"/>
      </defs>
      <g>
       <use xlink:href="#mea90332302" x="33.5775" y="228.96" style="stroke: #000000; stroke-width: 0.8"/>
      </g>
     </g>
     <g id="text_9">
      <text style="font: 6px 'DejaVu Sans', 'Bitstream Vera Sans', 'Computer Modern Sans Serif', 'Lucida Grande', 'Verdana', 'Geneva', 'Lucid', 'Arial', 'Helvetica', 'Avant Garde', sans-serif; text-anchor: end" x="26.5775" y="231.239531" transform="rotate(-0 26.5775 231.239531)">0</text>
     </g>
    </g>
    <g id="ytick_2">
     <g id="line2d_9">
      <g>
       <use xlink:href="#mea90332302" x="33.5775" y="193.4784" style="stroke: #000000; stroke-width: 0.8"/>
      </g>
     </g>
     <g id="text_10">
      <text style="font: 6px 'DejaVu Sans', 'Bitstream Vera Sans', 'Computer Modern Sans Serif', 'Lucida Grande', 'Verdana', 'Geneva', 'Lucid', 'Arial', 'Helvetica', 'Avant Garde', sans-serif; text-anchor: end" x="26.5775" y="195.757931" transform="rotate(-0 26.5775 195.757931)">4</text>
     </g>
    </g>
    <g id="ytick_3">
     <g id="line2d_10">
      <g>
       <use xlink:href="#mea90332302" x="33.5775" y="157.9968" style="stroke: #000000; stroke-width: 0.8"/>
      </g>
     </g>
     <g id="text_11">
      <text style="font: 6px 'DejaVu Sans', 'Bitstream Vera Sans', 'Computer Modern Sans Serif', 'Lucida Grande', 'Verdana', 'Geneva', 'Lucid', 'Arial', 'Helvetica', 'Avant Garde', sans-serif; text-anchor: end" x="26.5775" y="160.276331" transform="rotate(-0 26.5775 160.276331)">8</text>
     </g>
    </g>
    <g id="ytick_4">
     <g id="line2d_11">
      <g>
       <use xlink:href="#mea90332302" x="33.5775" y="122.5152" style="stroke: #000000; stroke-width: 0.8"/>
      </g>
     </g>
     <g id="text_12">
      <text style="font: 6px 'DejaVu Sans', 'Bitstream Vera Sans', 'Computer Modern Sans Serif', 'Lucida Grande', 'Verdana', 'Geneva', 'Lucid', 'Arial', 'Helvetica', 'Avant Garde', sans-serif; text-anchor: end" x="26.5775" y="124.794731" transform="rotate(-0 26.5775 124.794731)">12</text>
     </g>
    </g>
    <g id="ytick_5">
     <g id="line2d_12">
      <g>
       <use xlink:href="#mea90332302" x="33.5775" y="87.0336" style="stroke: #000000; stroke-width: 0.8"/>
      </g>
     </g>
     <g id="text_13">
      <text style="font: 6px 'DejaVu Sans', 'Bitstream Vera Sans', 'Computer Modern Sans Serif', 'Lucida Grande', 'Verdana', 'Geneva', 'Lucid', 'Arial', 'Helvetica', 'Avant Garde', sans-serif; text-anchor: end" x="26.5775" y="89.313131" transform="rotate(-0 26.5775 89.313131)">16</text>
     </g>
    </g>
    <g id="ytick_6">
     <g id="line2d_13">
      <g>
       <use xlink:href="#mea90332302" x="33.5775" y="51.552" style="stroke: #000000; stroke-width: 0.8"/>
      </g>
     </g>
     <g id="text_14">
      <text style="font: 6px 'DejaVu Sans', 'Bitstream Vera Sans', 'Computer Modern Sans Serif', 'Lucida Grande', 'Verdana', 'Geneva', 'Lucid', 'Arial', 'Helvetica', 'Avant Garde', sans-serif; text-anchor: end" x="26.5775" y="53.831531" transform="rotate(-0 26.5775 53.831531)">20</text>
     </g>
    </g>
    <g id="ytick_7">
     <g id="line2d_14">
      <g>
       <use xlink:href="#mea90332302" x="33.5775" y="16.0704" style="stroke: #000000; stroke-width: 0.8"/>
      </g>
     </g>
     <g id="text_15">
      <text style="font: 6px 'DejaVu Sans', 'Bitstream Vera Sans', 'Computer Modern Sans Serif', 'Lucida Grande', 'Verdana', 'Geneva', 'Lucid', 'Arial', 'Helvetica', 'Avant Garde', sans-serif; text-anchor: end" x="26.5775" y="18.349931" transform="rotate(-0 26.5775 18.349931)">24</text>
     </g>
    </g>
    <g id="text_16">
     <text style="font: 8px 'DejaVu Sans', 'Bitstream Vera Sans', 'Computer Modern Sans Serif', 'Lucida Grande', 'Verdana', 'Geneva', 'Lucid', 'Arial', 'Helvetica', 'Avant Garde', sans-serif; text-anchor: middle" x="13.27875" y="118.08" transform="rotate(-90 13.27875 118.08)">Developmental age (hpf)</text>
    </g>
   </g>
   <g id="line2d_15">
    <path d="M 42.5055 219.98084 
L 256.7775 17.532233 
L 256.7775 17.532233 
" clip-path="url(#p45d4964d97)" style="fill: none; stroke: #1f9a8a; stroke-linecap: square"/>
   </g>
   <g id="line2d_16">
    <path d="M 42.5055 219.949166 
L 256.7775 20.541207 
L 256.7775 20.541207 
" clip-path="url(#p45d4964d97)" style="fill: none; stroke-dasharray: 3.7,1.6; stroke-dashoffset: 0; stroke: #1f9a8a"/>
   </g>
   <g id="line2d_17">
    <path d="M 42.5055 220.016208 
L 256.7775 14.172248 
L 256.7775 14.172248 
" clip-path="url(#p45d4964d97)" style="fill: none; stroke-dasharray: 3.7,1.6; stroke-dashoffset: 0; stroke: #1f9a8a"/>
   </g>
   <g id="patch_3">
    <path d="M 33.5775 228.96 
L 33.5775 7.2 
" style="fill: none; stroke: #000000; stroke-width: 0.8; stroke-linejoin: miter; stroke-linecap: square"/>
   </g>
   <g id="patch_4">
    <path d="M 33.5775 228.96 
L 256.7775 228.96 
" style="fill: none; stroke: #000000; stroke-width: 0.8; stroke-linejoin: miter; stroke-linecap: square"/>
   </g>
   <g id="legend_1">
    <g id="patch_5">
     <path d="M 37.6305 28.829269 
L 196.698989 28.829269 
Q 197.856989 28.829269 197.856989 27.671269 
L 197.856989 11.253 
Q 197.856989 10.095 196.698989 10.095 
L 37.6305 10.095 
Q 36.4725 10.095 36.4725 11.253 
L 36.4725 27.671269 
Q 36.4725 28.829269 37.6305 28.829269 
z
" style="fill: #ffffff; opacity: 0.8; stroke: #cccccc; stroke-linejoin: miter"/>
    </g>
    <g id="line2d_18">
     <path d="M 38.7885 14.783995 
L 44.5785 14.783995 
L 50.3685 14.783995 
" style="fill: none; stroke: #1f9a8a; stroke-linecap: square"/>
    </g>
    <g id="text_17">
     <text style="font: 5.79px 'DejaVu Sans', 'Bitstream Vera Sans', 'Computer Modern Sans Serif', 'Lucida Grande', 'Verdana', 'Geneva', 'Lucid', 'Arial', 'Helvetica', 'Avant Garde', sans-serif; text-anchor: start" x="55.0005" y="16.810495" transform="rotate(-0 55.0005 16.810495)">Linear fit: slope=0.951 [0.937,0.967], R2=0.979</text>
    </g>
    <g id="patch_6">
     <path d="M 38.7885 25.30913 
L 50.3685 25.30913 
L 50.3685 21.25613 
L 38.7885 21.25613 
z
" style="fill: #1f9a8a; fill-opacity: 0.3"/>
    </g>
    <g id="text_18">
     <text style="font: 5.79px 'DejaVu Sans', 'Bitstream Vera Sans', 'Computer Modern Sans Serif', 'Lucida Grande', 'Verdana', 'Geneva', 'Lucid', 'Arial', 'Helvetica', 'Avant Garde', sans-serif; text-anchor: start" x="55.0005" y="25.30913" transform="rotate(-0 55.0005 25.30913)">Median:28.0C</text>
    </g>
   </g>
  </g>
 </g>
 <defs>
  <clipPath id="p45d4964d97">
   <rect x="33.5775" y="7.2" width="223.2" height="221.76"/>
  </clipPath>
 </defs>
</svg>
