<?xml version="1.0" encoding="utf-8" standalone="no"?>
<!DOCTYPE svg PUBLIC "-//W3C//DTD SVG 1.1//EN"
  "http://www.w3.org/Graphics/SVG/1.1/DTD/svg11.dtd">
<svg xmlns:xlink="http://www.w3.org/1999/xlink" width="263.9775pt" height="260.709375pt" viewBox="0 0 263.9775 260.709375" xmlns="http://www.w3.org/2000/svg" version="1.1">
 <metadata>
  <rdf:RDF xmlns:dc="http://purl.org/dc/elements/1.1/" xmlns:cc="http://creativecommons.org/ns#" xmlns:rdf="http://www.w3.org/1999/02/22-rdf-syntax-ns#">
   <cc:Work>
    <dc:type rdf:resource="http://purl.org/dc/dcmitype/StillImage"/>
    <dc:date>2023-07-28T12:55:37.179003</dc:date>
    <dc:format>image/svg+xml</dc:format>
    <dc:creator>
     <cc:Agent>
      <dc:title>Matplotlib v3.7.0, https://matplotlib.org/</dc:title>
     </cc:Agent>
    </dc:creator>
   </cc:Work>
  </rdf:RDF>
 </metadata>
 <defs>
  <style type="text/css">*{stroke-linejoin: round; stroke-linecap: butt}</style>
 </defs>
 <g id="figure_1">
  <g id="patch_1">
   <path d="M 0 260.709375 
L 263.9775 260.709375 
L 263.9775 0 
L 0 0 
z
" style="fill: #ffffff"/>
  </g>
  <g id="axes_1">
   <g id="patch_2">
    <path d="M 33.5775 228.96 
L 256.7775 228.96 
L 256.7775 7.2 
L 33.5775 7.2 
z
" style="fill: #ffffff"/>
   </g>
   <g id="PolyCollection_1">
    <path d="M 42.5055 219.3504 
L 42.5055 216.3936 
L 43.0883 216.3936 
L 43.6711 215.6544 
L 44.2539 215.6544 
L 44.8367 215.6544 
L 45.4195 214.9152 
L 46.0023 214.9152 
L 46.5851 214.9152 
L 47.1679 212.6976 
L 47.7507 214.176 
L 48.3335 211.9584 
L 48.9163 211.9584 
L 49.4991 211.9584 
L 50.0819 211.2192 
L 50.6647 211.2192 
L 51.2475 210.48 
L 51.8303 209.7408 
L 52.4131 209.7408 
L 52.9959 209.7408 
L 53.5787 209.7408 
L 54.1615 209.0016 
L 54.7443 208.2624 
L 55.3271 208.2624 
L 55.9099 207.5232 
L 56.4927 207.5232 
L 57.0755 206.784 
L 57.6583 205.3056 
L 58.2411 205.3056 
L 58.8239 206.0448 
L 59.4067 203.8272 
L 59.9895 203.8272 
L 60.5723 203.8272 
L 61.1551 203.088 
L 61.7379 203.088 
L 62.3207 203.8272 
L 62.9035 203.088 
L 63.4863 203.088 
L 64.0691 203.088 
L 64.6519 200.8704 
L 65.2347 200.8704 
L 65.8175 200.8704 
L 66.4003 201.6096 
L 66.9831 201.6096 
L 67.5659 200.8704 
L 68.1487 200.8704 
L 68.7315 200.8704 
L 69.3143 200.1312 
L 69.8971 199.392 
L 70.4799 199.392 
L 71.0627 199.392 
L 71.6455 199.392 
L 72.2283 198.6528 
L 72.8111 197.1744 
L 73.3939 197.9136 
L 73.9767 194.9568 
L 74.5595 194.9568 
L 75.1423 194.9568 
L 75.7251 194.9568 
L 76.3079 194.9568 
L 76.8907 192.7392 
L 77.4735 192.7392 
L 78.0563 189.7824 
L 78.6391 189.0432 
L 79.2219 188.304 
L 79.8047 187.5648 
L 80.3875 188.304 
L 80.9703 189.0432 
L 81.5531 187.5648 
L 82.1359 187.5648 
L 82.7187 186.0864 
L 83.3015 187.5648 
L 83.8843 184.608 
L 84.4671 186.0864 
L 85.0499 187.5648 
L 85.6327 185.3472 
L 86.2155 185.3472 
L 86.7983 185.3472 
L 87.3811 185.3472 
L 87.9639 185.3472 
L 88.5467 186.0864 
L 89.1295 185.3472 
L 89.7123 184.608 
L 90.2951 184.608 
L 90.8779 183.1296 
L 91.4607 183.1296 
L 92.0435 183.1296 
L 92.6263 183.1296 
L 93.2091 183.1296 
L 93.7919 183.1296 
L 94.3747 183.1296 
L 94.9575 183.1296 
L 95.5403 183.1296 
L 96.1231 182.3904 
L 96.7059 182.3904 
L 97.2887 182.3904 
L 97.8715 182.3904 
L 98.4543 181.6512 
L 99.0371 183.1296 
L 99.6199 180.1728 
L 100.2027 180.1728 
L 100.7855 179.4336 
L 101.3683 180.912 
L 101.9511 178.6944 
L 102.5339 178.6944 
L 103.1167 178.6944 
L 103.6995 178.6944 
L 104.2823 178.6944 
L 104.8651 177.9552 
L 105.4479 177.9552 
L 106.0307 175.7376 
L 106.6135 176.4768 
L 107.1963 174.9984 
L 107.7791 174.2592 
L 108.3619 174.2592 
L 108.9447 175.7376 
L 109.5275 173.52 
L 110.1103 170.5632 
L 110.6931 170.5632 
L 111.2759 167.6064 
L 111.8587 169.0848 
L 112.4415 167.6064 
L 113.0243 167.6064 
L 113.6071 166.8672 
L 114.1899 166.8672 
L 114.7727 163.9104 
L 115.3555 163.1712 
L 115.9383 163.9104 
L 116.5211 164.6496 
L 117.1039 163.9104 
L 117.6867 164.6496 
L 118.2695 164.6496 
L 118.8523 163.9104 
L 119.4351 163.1712 
L 120.0179 164.6496 
L 120.6007 164.6496 
L 121.1835 164.6496 
L 121.7663 164.6496 
L 122.3491 164.6496 
L 122.9319 163.9104 
L 123.5147 163.9104 
L 124.0975 163.9104 
L 124.6803 163.1712 
L 125.2631 163.1712 
L 125.8459 163.1712 
L 126.4287 163.1712 
L 127.0115 163.1712 
L 127.5943 163.1712 
L 128.1771 163.1712 
L 128.7599 162.432 
L 129.3427 162.432 
L 129.9255 162.432 
L 130.5083 162.432 
L 131.0911 162.432 
L 131.6739 160.9536 
L 132.2567 162.432 
L 132.8395 162.432 
L 133.4223 162.432 
L 134.0051 161.6928 
L 134.5879 163.1712 
L 135.1707 160.9536 
L 135.7535 161.6928 
L 136.3363 161.6928 
L 136.9191 163.1712 
L 137.5019 163.1712 
L 138.0847 163.9104 
L 138.6675 161.6928 
L 139.2503 161.6928 
L 139.8331 161.6928 
L 140.4159 162.432 
L 140.9987 163.9104 
L 141.5815 162.432 
L 142.1643 163.1712 
L 142.7471 163.9104 
L 143.3299 160.9536 
L 143.9127 161.6928 
L 144.4955 161.6928 
L 145.0783 160.2144 
L 145.6611 162.432 
L 146.2439 162.432 
L 146.8267 162.432 
L 147.4095 162.432 
L 147.9923 163.1712 
L 148.5751 162.432 
L 149.1579 163.1712 
L 149.7407 163.1712 
L 150.3235 163.9104 
L 150.9063 164.6496 
L 151.4891 164.6496 
L 152.0719 163.1712 
L 152.6547 162.432 
L 153.2375 163.9104 
L 153.8203 160.9536 
L 154.4031 162.432 
L 154.9859 161.6928 
L 155.5687 163.1712 
L 156.1515 160.9536 
L 156.7343 160.9536 
L 157.3171 160.9536 
L 157.8999 160.2144 
L 158.4827 160.2144 
L 159.0655 159.4752 
L 159.6483 157.2576 
L 160.2311 157.2576 
L 160.8139 159.4752 
L 161.3967 156.5184 
L 161.9795 155.04 
L 162.5623 153.5616 
L 163.1451 154.3008 
L 163.7279 152.0832 
L 164.3107 152.0832 
L 164.8935 153.5616 
L 165.4763 148.3872 
L 166.0591 148.3872 
L 166.6419 148.3872 
L 167.2247 146.1696 
L 167.8075 146.1696 
L 168.3903 138.0384 
L 168.9731 146.1696 
L 169.5559 135.0816 
L 170.1387 118.8192 
L 170.7215 120.2976 
L 171.3043 121.0368 
L 171.8871 123.9936 
L 172.4699 124.7328 
L 173.0527 125.472 
L 173.6355 126.9504 
L 174.2183 127.6896 
L 174.8011 128.4288 
L 175.3839 129.168 
L 175.9667 129.168 
L 176.5495 129.168 
L 177.1323 129.168 
L 177.7151 130.6464 
L 178.2979 130.6464 
L 178.8807 126.9504 
L 179.4635 128.4288 
L 180.0463 128.4288 
L 180.6291 127.6896 
L 181.2119 129.168 
L 181.7947 127.6896 
L 182.3775 130.6464 
L 182.9603 129.168 
L 183.5431 129.168 
L 184.1259 126.2112 
L 184.7087 127.6896 
L 185.2915 126.2112 
L 185.8743 126.2112 
L 186.4571 126.2112 
L 187.0399 126.2112 
L 187.6227 125.472 
L 188.2055 123.9936 
L 188.7883 123.9936 
L 189.3711 122.5152 
L 189.9539 124.7328 
L 190.5367 122.5152 
L 191.1195 122.5152 
L 191.7023 122.5152 
L 192.2851 119.5584 
L 192.8679 119.5584 
L 193.4507 117.3408 
L 194.0335 117.3408 
L 194.6163 120.2976 
L 195.1991 118.8192 
L 195.7819 119.5584 
L 196.3647 117.3408 
L 196.9475 118.8192 
L 197.5303 114.384 
L 198.1131 113.6448 
L 198.6959 112.9056 
L 199.2787 112.9056 
L 199.8615 112.1664 
L 200.4443 109.9488 
L 201.0271 112.1664 
L 201.6099 107.7312 
L 202.1927 104.7744 
L 202.7755 106.2528 
L 203.3583 104.0352 
L 203.9411 104.0352 
L 204.5239 104.0352 
L 205.1067 101.8176 
L 205.6895 99.6 
L 206.2723 99.6 
L 206.8551 99.6 
L 207.4379 99.6 
L 208.0207 99.6 
L 208.6035 99.6 
L 209.1863 99.6 
L 209.7691 98.8608 
L 210.3519 102.5568 
L 210.9347 96.6432 
L 211.5175 98.1216 
L 212.1003 99.6 
L 212.6831 95.1648 
L 213.2659 97.3824 
L 213.8487 95.1648 
L 214.4315 92.9472 
L 215.0143 91.4688 
L 215.5971 87.7728 
L 216.1799 87.7728 
L 216.7627 87.7728 
L 217.3455 89.9904 
L 217.9283 90.7296 
L 218.5111 89.2512 
L 219.0939 89.9904 
L 219.6767 89.9904 
L 220.2595 89.9904 
L 220.8423 89.2512 
L 221.4251 90.7296 
L 222.0079 90.7296 
L 222.5907 90.7296 
L 223.1735 90.7296 
L 223.7563 90.7296 
L 224.3391 89.9904 
L 224.9219 87.7728 
L 225.5047 89.9904 
L 226.0875 87.0336 
L 226.6703 87.7728 
L 227.2531 89.2512 
L 227.8359 88.512 
L 228.4187 84.816 
L 229.0015 85.5552 
L 229.5843 84.816 
L 230.1671 84.0768 
L 230.7499 86.2944 
L 231.3327 85.5552 
L 231.9155 84.0768 
L 232.4983 85.5552 
L 233.0811 87.0336 
L 233.6639 84.0768 
L 234.2467 84.816 
L 234.8295 84.0768 
L 235.4123 82.5984 
L 235.9951 82.5984 
L 236.5779 84.816 
L 237.1607 80.3808 
L 237.7435 79.6416 
L 238.3263 81.8592 
L 238.9091 81.8592 
L 239.4919 81.12 
L 240.0747 79.6416 
L 240.6575 80.3808 
L 241.2403 80.3808 
L 241.8231 80.3808 
L 242.4059 80.3808 
L 242.9887 75.9456 
L 243.5715 77.424 
L 244.1543 76.6848 
L 244.7371 75.9456 
L 245.3199 74.4672 
L 245.9027 72.2496 
L 246.4855 70.7712 
L 246.4855 103.296 
L 246.4855 103.296 
L 245.9027 101.8176 
L 245.3199 101.0784 
L 244.7371 102.5568 
L 244.1543 103.296 
L 243.5715 104.0352 
L 242.9887 105.5136 
L 242.4059 104.0352 
L 241.8231 104.0352 
L 241.2403 104.0352 
L 240.6575 104.0352 
L 240.0747 109.2096 
L 239.4919 104.7744 
L 238.9091 108.4704 
L 238.3263 108.4704 
L 237.7435 109.2096 
L 237.1607 109.9488 
L 236.5779 108.4704 
L 235.9951 109.2096 
L 235.4123 109.2096 
L 234.8295 110.688 
L 234.2467 108.4704 
L 233.6639 110.688 
L 233.0811 107.7312 
L 232.4983 109.2096 
L 231.9155 110.688 
L 231.3327 109.2096 
L 230.7499 109.9488 
L 230.1671 110.688 
L 229.5843 111.4272 
L 229.0015 112.1664 
L 228.4187 114.384 
L 227.8359 112.1664 
L 227.2531 112.9056 
L 226.6703 111.4272 
L 226.0875 113.6448 
L 225.5047 113.6448 
L 224.9219 114.384 
L 224.3391 116.6016 
L 223.7563 117.3408 
L 223.1735 117.3408 
L 222.5907 117.3408 
L 222.0079 120.2976 
L 221.4251 117.3408 
L 220.8423 121.776 
L 220.2595 122.5152 
L 219.6767 122.5152 
L 219.0939 119.5584 
L 218.5111 124.7328 
L 217.9283 123.2544 
L 217.3455 122.5152 
L 216.7627 126.2112 
L 216.1799 126.2112 
L 215.5971 126.2112 
L 215.0143 126.9504 
L 214.4315 125.472 
L 213.8487 124.7328 
L 213.2659 126.9504 
L 212.6831 124.7328 
L 212.1003 126.2112 
L 211.5175 127.6896 
L 210.9347 129.168 
L 210.3519 129.168 
L 209.7691 131.3856 
L 209.1863 135.0816 
L 208.6035 135.0816 
L 208.0207 135.0816 
L 207.4379 135.0816 
L 206.8551 135.0816 
L 206.2723 135.0816 
L 205.6895 135.0816 
L 205.1067 134.3424 
L 204.5239 133.6032 
L 203.9411 133.6032 
L 203.3583 133.6032 
L 202.7755 132.864 
L 202.1927 134.3424 
L 201.6099 134.3424 
L 201.0271 132.864 
L 200.4443 133.6032 
L 199.8615 132.864 
L 199.2787 136.56 
L 198.6959 136.56 
L 198.1131 137.2992 
L 197.5303 138.0384 
L 196.9475 133.6032 
L 196.3647 135.0816 
L 195.7819 134.3424 
L 195.1991 136.56 
L 194.6163 135.0816 
L 194.0335 138.0384 
L 193.4507 138.0384 
L 192.8679 137.2992 
L 192.2851 137.2992 
L 191.7023 137.2992 
L 191.1195 137.2992 
L 190.5367 137.2992 
L 189.9539 136.56 
L 189.3711 137.2992 
L 188.7883 138.7776 
L 188.2055 138.7776 
L 187.6227 140.256 
L 187.0399 140.9952 
L 186.4571 140.9952 
L 185.8743 140.9952 
L 185.2915 140.9952 
L 184.7087 139.5168 
L 184.1259 140.9952 
L 183.5431 138.0384 
L 182.9603 138.0384 
L 182.3775 136.56 
L 181.7947 139.5168 
L 181.2119 138.0384 
L 180.6291 139.5168 
L 180.0463 140.256 
L 179.4635 140.256 
L 178.8807 141.7344 
L 178.2979 142.4736 
L 177.7151 142.4736 
L 177.1323 146.9088 
L 176.5495 146.9088 
L 175.9667 146.9088 
L 175.3839 146.9088 
L 174.8011 149.1264 
L 174.2183 151.344 
L 173.6355 153.5616 
L 173.0527 155.04 
L 172.4699 157.2576 
L 171.8871 159.4752 
L 171.3043 171.3024 
L 170.7215 173.52 
L 170.1387 174.9984 
L 169.5559 182.3904 
L 168.9731 175.7376 
L 168.3903 179.4336 
L 167.8075 175.7376 
L 167.2247 175.7376 
L 166.6419 174.9984 
L 166.0591 174.9984 
L 165.4763 174.9984 
L 164.8935 171.3024 
L 164.3107 172.7808 
L 163.7279 172.7808 
L 163.1451 172.0416 
L 162.5623 171.3024 
L 161.9795 172.7808 
L 161.3967 171.3024 
L 160.8139 171.3024 
L 160.2311 172.0416 
L 159.6483 172.0416 
L 159.0655 171.3024 
L 158.4827 172.0416 
L 157.8999 172.0416 
L 157.3171 172.7808 
L 156.7343 172.7808 
L 156.1515 172.7808 
L 155.5687 172.0416 
L 154.9859 173.52 
L 154.4031 174.2592 
L 153.8203 175.7376 
L 153.2375 172.7808 
L 152.6547 174.2592 
L 152.0719 174.9984 
L 151.4891 173.52 
L 150.9063 173.52 
L 150.3235 172.7808 
L 149.7407 174.9984 
L 149.1579 174.9984 
L 148.5751 174.2592 
L 147.9923 174.9984 
L 147.4095 174.2592 
L 146.8267 174.2592 
L 146.2439 174.2592 
L 145.6611 174.2592 
L 145.0783 174.9984 
L 144.4955 173.52 
L 143.9127 173.52 
L 143.3299 172.7808 
L 142.7471 172.7808 
L 142.1643 172.0416 
L 141.5815 171.3024 
L 140.9987 172.7808 
L 140.4159 174.2592 
L 139.8331 173.52 
L 139.2503 173.52 
L 138.6675 173.52 
L 138.0847 172.7808 
L 137.5019 172.0416 
L 136.9191 172.0416 
L 136.3363 173.52 
L 135.7535 173.52 
L 135.1707 172.7808 
L 134.5879 172.0416 
L 134.0051 173.52 
L 133.4223 171.3024 
L 132.8395 171.3024 
L 132.2567 171.3024 
L 131.6739 172.7808 
L 131.0911 171.3024 
L 130.5083 171.3024 
L 129.9255 171.3024 
L 129.3427 171.3024 
L 128.7599 171.3024 
L 128.1771 172.0416 
L 127.5943 172.0416 
L 127.0115 172.0416 
L 126.4287 172.0416 
L 125.8459 172.0416 
L 125.2631 172.0416 
L 124.6803 172.0416 
L 124.0975 172.7808 
L 123.5147 172.7808 
L 122.9319 172.7808 
L 122.3491 173.52 
L 121.7663 173.52 
L 121.1835 173.52 
L 120.6007 173.52 
L 120.0179 173.52 
L 119.4351 174.9984 
L 118.8523 175.7376 
L 118.2695 176.4768 
L 117.6867 176.4768 
L 117.1039 175.7376 
L 116.5211 179.4336 
L 115.9383 178.6944 
L 115.3555 180.912 
L 114.7727 181.6512 
L 114.1899 181.6512 
L 113.6071 181.6512 
L 113.0243 182.3904 
L 112.4415 185.3472 
L 111.8587 183.8688 
L 111.2759 185.3472 
L 110.6931 185.3472 
L 110.1103 185.3472 
L 109.5275 185.3472 
L 108.9447 184.608 
L 108.3619 186.0864 
L 107.7791 186.0864 
L 107.1963 186.8256 
L 106.6135 185.3472 
L 106.0307 187.5648 
L 105.4479 186.8256 
L 104.8651 186.8256 
L 104.2823 187.5648 
L 103.6995 190.5216 
L 103.1167 190.5216 
L 102.5339 190.5216 
L 101.9511 190.5216 
L 101.3683 189.7824 
L 100.7855 191.2608 
L 100.2027 192 
L 99.6199 192 
L 99.0371 192 
L 98.4543 193.4784 
L 97.8715 194.2176 
L 97.2887 194.2176 
L 96.7059 194.2176 
L 96.1231 194.2176 
L 95.5403 194.9568 
L 94.9575 194.9568 
L 94.3747 194.9568 
L 93.7919 194.9568 
L 93.2091 194.9568 
L 92.6263 194.9568 
L 92.0435 194.9568 
L 91.4607 194.9568 
L 90.8779 194.9568 
L 90.2951 196.4352 
L 89.7123 199.392 
L 89.1295 197.1744 
L 88.5467 197.9136 
L 87.9639 200.1312 
L 87.3811 200.1312 
L 86.7983 200.1312 
L 86.2155 200.1312 
L 85.6327 200.1312 
L 85.0499 199.392 
L 84.4671 200.8704 
L 83.8843 202.3488 
L 83.3015 199.392 
L 82.7187 200.8704 
L 82.1359 199.392 
L 81.5531 199.392 
L 80.9703 200.8704 
L 80.3875 203.088 
L 79.8047 202.3488 
L 79.2219 203.088 
L 78.6391 203.8272 
L 78.0563 204.5664 
L 77.4735 204.5664 
L 76.8907 204.5664 
L 76.3079 203.8272 
L 75.7251 203.8272 
L 75.1423 203.8272 
L 74.5595 203.8272 
L 73.9767 203.8272 
L 73.3939 203.8272 
L 72.8111 206.0448 
L 72.2283 204.5664 
L 71.6455 205.3056 
L 71.0627 205.3056 
L 70.4799 205.3056 
L 69.8971 205.3056 
L 69.3143 206.0448 
L 68.7315 206.784 
L 68.1487 206.784 
L 67.5659 206.784 
L 66.9831 207.5232 
L 66.4003 207.5232 
L 65.8175 209.7408 
L 65.2347 209.7408 
L 64.6519 209.7408 
L 64.0691 209.0016 
L 63.4863 209.0016 
L 62.9035 209.0016 
L 62.3207 209.7408 
L 61.7379 211.9584 
L 61.1551 211.9584 
L 60.5723 212.6976 
L 59.9895 212.6976 
L 59.4067 212.6976 
L 58.8239 211.9584 
L 58.2411 214.176 
L 57.6583 214.176 
L 57.0755 212.6976 
L 56.4927 213.4368 
L 55.9099 213.4368 
L 55.3271 214.176 
L 54.7443 214.176 
L 54.1615 214.9152 
L 53.5787 215.6544 
L 52.9959 215.6544 
L 52.4131 215.6544 
L 51.8303 215.6544 
L 51.2475 216.3936 
L 50.6647 217.1328 
L 50.0819 217.1328 
L 49.4991 217.872 
L 48.9163 217.872 
L 48.3335 217.872 
L 47.7507 217.1328 
L 47.1679 218.6112 
L 46.5851 217.872 
L 46.0023 217.872 
L 45.4195 217.872 
L 44.8367 218.6112 
L 44.2539 218.6112 
L 43.6711 218.6112 
L 43.0883 219.3504 
L 42.5055 219.3504 
z
" clip-path="url(#pacc5db8eb5)" style="fill: #355f8d; fill-opacity: 0.3"/>
   </g>
   <g id="matplotlib.axis_1">
    <g id="xtick_1">
     <g id="line2d_1">
      <defs>
       <path id="mcf104439d6" d="M 0 0 
L 0 3.5 
" style="stroke: #000000; stroke-width: 0.8"/>
      </defs>
      <g>
       <use xlink:href="#mcf104439d6" x="33.5775" y="228.96" style="stroke: #000000; stroke-width: 0.8"/>
      </g>
     </g>
     <g id="text_1">
      <text style="font: 6px 'DejaVu Sans', 'Bitstream Vera Sans', 'Computer Modern Sans Serif', 'Lucida Grande', 'Verdana', 'Geneva', 'Lucid', 'Arial', 'Helvetica', 'Avant Garde', sans-serif; text-anchor: middle" x="33.5775" y="240.519062" transform="rotate(-0 33.5775 240.519062)">0</text>
     </g>
    </g>
    <g id="xtick_2">
     <g id="line2d_2">
      <g>
       <use xlink:href="#mcf104439d6" x="69.2895" y="228.96" style="stroke: #000000; stroke-width: 0.8"/>
      </g>
     </g>
     <g id="text_2">
      <text style="font: 6px 'DejaVu Sans', 'Bitstream Vera Sans', 'Computer Modern Sans Serif', 'Lucida Grande', 'Verdana', 'Geneva', 'Lucid', 'Arial', 'Helvetica', 'Avant Garde', sans-serif; text-anchor: middle" x="69.2895" y="240.519062" transform="rotate(-0 69.2895 240.519062)">4</text>
     </g>
    </g>
    <g id="xtick_3">
     <g id="line2d_3">
      <g>
       <use xlink:href="#mcf104439d6" x="105.0015" y="228.96" style="stroke: #000000; stroke-width: 0.8"/>
      </g>
     </g>
     <g id="text_3">
      <text style="font: 6px 'DejaVu Sans', 'Bitstream Vera Sans', 'Computer Modern Sans Serif', 'Lucida Grande', 'Verdana', 'Geneva', 'Lucid', 'Arial', 'Helvetica', 'Avant Garde', sans-serif; text-anchor: middle" x="105.0015" y="240.519062" transform="rotate(-0 105.0015 240.519062)">8</text>
     </g>
    </g>
    <g id="xtick_4">
     <g id="line2d_4">
      <g>
       <use xlink:href="#mcf104439d6" x="140.7135" y="228.96" style="stroke: #000000; stroke-width: 0.8"/>
      </g>
     </g>
     <g id="text_4">
      <text style="font: 6px 'DejaVu Sans', 'Bitstream Vera Sans', 'Computer Modern Sans Serif', 'Lucida Grande', 'Verdana', 'Geneva', 'Lucid', 'Arial', 'Helvetica', 'Avant Garde', sans-serif; text-anchor: middle" x="140.7135" y="240.519062" transform="rotate(-0 140.7135 240.519062)">12</text>
     </g>
    </g>
    <g id="xtick_5">
     <g id="line2d_5">
      <g>
       <use xlink:href="#mcf104439d6" x="176.4255" y="228.96" style="stroke: #000000; stroke-width: 0.8"/>
      </g>
     </g>
     <g id="text_5">
      <text style="font: 6px 'DejaVu Sans', 'Bitstream Vera Sans', 'Computer Modern Sans Serif', 'Lucida Grande', 'Verdana', 'Geneva', 'Lucid', 'Arial', 'Helvetica', 'Avant Garde', sans-serif; text-anchor: middle" x="176.4255" y="240.519062" transform="rotate(-0 176.4255 240.519062)">16</text>
     </g>
    </g>
    <g id="xtick_6">
     <g id="line2d_6">
      <g>
       <use xlink:href="#mcf104439d6" x="212.1375" y="228.96" style="stroke: #000000; stroke-width: 0.8"/>
      </g>
     </g>
     <g id="text_6">
      <text style="font: 6px 'DejaVu Sans', 'Bitstream Vera Sans', 'Computer Modern Sans Serif', 'Lucida Grande', 'Verdana', 'Geneva', 'Lucid', 'Arial', 'Helvetica', 'Avant Garde', sans-serif; text-anchor: middle" x="212.1375" y="240.519062" transform="rotate(-0 212.1375 240.519062)">20</text>
     </g>
    </g>
    <g id="xtick_7">
     <g id="line2d_7">
      <g>
       <use xlink:href="#mcf104439d6" x="247.8495" y="228.96" style="stroke: #000000; stroke-width: 0.8"/>
      </g>
     </g>
     <g id="text_7">
      <text style="font: 6px 'DejaVu Sans', 'Bitstream Vera Sans', 'Computer Modern Sans Serif', 'Lucida Grande', 'Verdana', 'Geneva', 'Lucid', 'Arial', 'Helvetica', 'Avant Garde', sans-serif; text-anchor: middle" x="247.8495" y="240.519062" transform="rotate(-0 247.8495 240.519062)">24</text>
     </g>
    </g>
    <g id="text_8">
     <text style="font: 8px 'DejaVu Sans', 'Bitstream Vera Sans', 'Computer Modern Sans Serif', 'Lucida Grande', 'Verdana', 'Geneva', 'Lucid', 'Arial', 'Helvetica', 'Avant Garde', sans-serif; text-anchor: middle" x="145.1775" y="251.845625" transform="rotate(-0 145.1775 251.845625)">Experimental time (hpf)</text>
    </g>
   </g>
   <g id="matplotlib.axis_2">
    <g id="ytick_1">
     <g id="line2d_8">
      <defs>
       <path id="m23a44516e5" d="M 0 0 
L -3.5 0 
" style="stroke: #000000; stroke-width: 0.8"/>
      </defs>
      <g>
       <use xlink:href="#m23a44516e5" x="33.5775" y="228.96" style="stroke: #000000; stroke-width: 0.8"/>
      </g>
     </g>
     <g id="text_9">
      <text style="font: 6px 'DejaVu Sans', 'Bitstream Vera Sans', 'Computer Modern Sans Serif', 'Lucida Grande', 'Verdana', 'Geneva', 'Lucid', 'Arial', 'Helvetica', 'Avant Garde', sans-serif; text-anchor: end" x="26.5775" y="231.239531" transform="rotate(-0 26.5775 231.239531)">0</text>
     </g>
    </g>
    <g id="ytick_2">
     <g id="line2d_9">
      <g>
       <use xlink:href="#m23a44516e5" x="33.5775" y="193.4784" style="stroke: #000000; stroke-width: 0.8"/>
      </g>
     </g>
     <g id="text_10">
      <text style="font: 6px 'DejaVu Sans', 'Bitstream Vera Sans', 'Computer Modern Sans Serif', 'Lucida Grande', 'Verdana', 'Geneva', 'Lucid', 'Arial', 'Helvetica', 'Avant Garde', sans-serif; text-anchor: end" x="26.5775" y="195.757931" transform="rotate(-0 26.5775 195.757931)">4</text>
     </g>
    </g>
    <g id="ytick_3">
     <g id="line2d_10">
      <g>
       <use xlink:href="#m23a44516e5" x="33.5775" y="157.9968" style="stroke: #000000; stroke-width: 0.8"/>
      </g>
     </g>
     <g id="text_11">
      <text style="font: 6px 'DejaVu Sans', 'Bitstream Vera Sans', 'Computer Modern Sans Serif', 'Lucida Grande', 'Verdana', 'Geneva', 'Lucid', 'Arial', 'Helvetica', 'Avant Garde', sans-serif; text-anchor: end" x="26.5775" y="160.276331" transform="rotate(-0 26.5775 160.276331)">8</text>
     </g>
    </g>
    <g id="ytick_4">
     <g id="line2d_11">
      <g>
       <use xlink:href="#m23a44516e5" x="33.5775" y="122.5152" style="stroke: #000000; stroke-width: 0.8"/>
      </g>
     </g>
     <g id="text_12">
      <text style="font: 6px 'DejaVu Sans', 'Bitstream Vera Sans', 'Computer Modern Sans Serif', 'Lucida Grande', 'Verdana', 'Geneva', 'Lucid', 'Arial', 'Helvetica', 'Avant Garde', sans-serif; text-anchor: end" x="26.5775" y="124.794731" transform="rotate(-0 26.5775 124.794731)">12</text>
     </g>
    </g>
    <g id="ytick_5">
     <g id="line2d_12">
      <g>
       <use xlink:href="#m23a44516e5" x="33.5775" y="87.0336" style="stroke: #000000; stroke-width: 0.8"/>
      </g>
     </g>
     <g id="text_13">
      <text style="font: 6px 'DejaVu Sans', 'Bitstream Vera Sans', 'Computer Modern Sans Serif', 'Lucida Grande', 'Verdana', 'Geneva', 'Lucid', 'Arial', 'Helvetica', 'Avant Garde', sans-serif; text-anchor: end" x="26.5775" y="89.313131" transform="rotate(-0 26.5775 89.313131)">16</text>
     </g>
    </g>
    <g id="ytick_6">
     <g id="line2d_13">
      <g>
       <use xlink:href="#m23a44516e5" x="33.5775" y="51.552" style="stroke: #000000; stroke-width: 0.8"/>
      </g>
     </g>
     <g id="text_14">
      <text style="font: 6px 'DejaVu Sans', 'Bitstream Vera Sans', 'Computer Modern Sans Serif', 'Lucida Grande', 'Verdana', 'Geneva', 'Lucid', 'Arial', 'Helvetica', 'Avant Garde', sans-serif; text-anchor: end" x="26.5775" y="53.831531" transform="rotate(-0 26.5775 53.831531)">20</text>
     </g>
    </g>
    <g id="ytick_7">
     <g id="line2d_14">
      <g>
       <use xlink:href="#m23a44516e5" x="33.5775" y="16.0704" style="stroke: #000000; stroke-width: 0.8"/>
      </g>
     </g>
     <g id="text_15">
      <text style="font: 6px 'DejaVu Sans', 'Bitstream Vera Sans', 'Computer Modern Sans Serif', 'Lucida Grande', 'Verdana', 'Geneva', 'Lucid', 'Arial', 'Helvetica', 'Avant Garde', sans-serif; text-anchor: end" x="26.5775" y="18.349931" transform="rotate(-0 26.5775 18.349931)">24</text>
     </g>
    </g>
    <g id="text_16">
     <text style="font: 8px 'DejaVu Sans', 'Bitstream Vera Sans', 'Computer Modern Sans Serif', 'Lucida Grande', 'Verdana', 'Geneva', 'Lucid', 'Arial', 'Helvetica', 'Avant Garde', sans-serif; text-anchor: middle" x="13.27875" y="118.08" transform="rotate(-90 13.27875 118.08)">Developmental age (hpf)</text>
    </g>
   </g>
   <g id="line2d_15">
    <path d="M 42.5055 220.0896 
L 256.7775 87.497454 
L 256.7775 87.497454 
" clip-path="url(#pacc5db8eb5)" style="fill: none; stroke: #355f8d; stroke-linecap: square"/>
   </g>
   <g id="line2d_16">
    <path d="M 42.5055 220.0896 
L 256.7775 89.584154 
L 256.7775 89.584154 
" clip-path="url(#pacc5db8eb5)" style="fill: none; stroke-dasharray: 3.7,1.6; stroke-dashoffset: 0; stroke: #355f8d"/>
   </g>
   <g id="line2d_17">
    <path d="M 42.5055 220.0896 
L 256.7775 85.991524 
L 256.7775 85.991524 
" clip-path="url(#pacc5db8eb5)" style="fill: none; stroke-dasharray: 3.7,1.6; stroke-dashoffset: 0; stroke: #355f8d"/>
   </g>
   <g id="patch_3">
    <path d="M 33.5775 228.96 
L 33.5775 7.2 
" style="fill: none; stroke: #000000; stroke-width: 0.8; stroke-linejoin: miter; stroke-linecap: square"/>
   </g>
   <g id="patch_4">
    <path d="M 33.5775 228.96 
L 256.7775 228.96 
" style="fill: none; stroke: #000000; stroke-width: 0.8; stroke-linejoin: miter; stroke-linecap: square"/>
   </g>
   <g id="legend_1">
    <g id="patch_5">
     <path d="M 93.656011 28.829269 
L 252.7245 28.829269 
Q 253.8825 28.829269 253.8825 27.671269 
L 253.8825 11.253 
Q 253.8825 10.095 252.7245 10.095 
L 93.656011 10.095 
Q 92.498011 10.095 92.498011 11.253 
L 92.498011 27.671269 
Q 92.498011 28.829269 93.656011 28.829269 
z
" style="fill: #ffffff; opacity: 0.8; stroke: #cccccc; stroke-linejoin: miter"/>
    </g>
    <g id="line2d_18">
     <path d="M 94.814011 14.783995 
L 100.604011 14.783995 
L 106.394011 14.783995 
" style="fill: none; stroke: #355f8d; stroke-linecap: square"/>
    </g>
    <g id="text_17">
     <text style="font: 5.79px 'DejaVu Sans', 'Bitstream Vera Sans', 'Computer Modern Sans Serif', 'Lucida Grande', 'Verdana', 'Geneva', 'Lucid', 'Arial', 'Helvetica', 'Avant Garde', sans-serif; text-anchor: start" x="111.026011" y="16.810495" transform="rotate(-0 111.026011 16.810495)">Linear fit: slope=0.623 [0.613,0.630], R2=0.972</text>
    </g>
    <g id="patch_6">
     <path d="M 94.814011 25.30913 
L 106.394011 25.30913 
L 106.394011 21.25613 
L 94.814011 21.25613 
z
" style="fill: #355f8d; fill-opacity: 0.3"/>
    </g>
    <g id="text_18">
     <text style="font: 5.79px 'DejaVu Sans', 'Bitstream Vera Sans', 'Computer Modern Sans Serif', 'Lucida Grande', 'Verdana', 'Geneva', 'Lucid', 'Arial', 'Helvetica', 'Avant Garde', sans-serif; text-anchor: start" x="111.026011" y="25.30913" transform="rotate(-0 111.026011 25.30913)">Median:23.5C</text>
    </g>
   </g>
  </g>
 </g>
 <defs>
  <clipPath id="pacc5db8eb5">
   <rect x="33.5775" y="7.2" width="223.2" height="221.76"/>
  </clipPath>
 </defs>
</svg>
