<?xml version="1.0" encoding="utf-8" standalone="no"?>
<!DOCTYPE svg PUBLIC "-//W3C//DTD SVG 1.1//EN"
  "http://www.w3.org/Graphics/SVG/1.1/DTD/svg11.dtd">
<svg xmlns:xlink="http://www.w3.org/1999/xlink" width="263.9775pt" height="260.709375pt" viewBox="0 0 263.9775 260.709375" xmlns="http://www.w3.org/2000/svg" version="1.1">
 <metadata>
  <rdf:RDF xmlns:dc="http://purl.org/dc/elements/1.1/" xmlns:cc="http://creativecommons.org/ns#" xmlns:rdf="http://www.w3.org/1999/02/22-rdf-syntax-ns#">
   <cc:Work>
    <dc:type rdf:resource="http://purl.org/dc/dcmitype/StillImage"/>
    <dc:date>2023-07-28T13:11:53.557907</dc:date>
    <dc:format>image/svg+xml</dc:format>
    <dc:creator>
     <cc:Agent>
      <dc:title>Matplotlib v3.7.0, https://matplotlib.org/</dc:title>
     </cc:Agent>
    </dc:creator>
   </cc:Work>
  </rdf:RDF>
 </metadata>
 <defs>
  <style type="text/css">*{stroke-linejoin: round; stroke-linecap: butt}</style>
 </defs>
 <g id="figure_1">
  <g id="patch_1">
   <path d="M 0 260.709375 
L 263.9775 260.709375 
L 263.9775 0 
L 0 0 
z
" style="fill: #ffffff"/>
  </g>
  <g id="axes_1">
   <g id="patch_2">
    <path d="M 33.5775 228.96 
L 256.7775 228.96 
L 256.7775 7.2 
L 33.5775 7.2 
z
" style="fill: #ffffff"/>
   </g>
   <g id="PolyCollection_1">
    <path d="M 46.9695 217.5024 
L 46.9695 204.1968 
L 47.2671 206.0448 
L 47.5647 206.784 
L 47.8623 206.0448 
L 48.1599 206.0448 
L 48.4575 206.0448 
L 48.7551 206.0448 
L 49.0527 206.0448 
L 49.3503 205.3056 
L 49.6479 205.3056 
L 49.9455 205.3056 
L 50.2431 205.3056 
L 50.5407 205.3056 
L 50.8383 202.3488 
L 51.1359 202.3488 
L 51.4335 202.3488 
L 51.7311 202.3488 
L 52.0287 203.088 
L 52.3263 203.088 
L 52.6239 203.088 
L 52.9215 203.088 
L 53.2191 202.3488 
L 53.5167 201.6096 
L 53.8143 200.8704 
L 54.1119 200.8704 
L 54.4095 200.8704 
L 54.7071 200.8704 
L 55.0047 199.392 
L 55.3023 200.8704 
L 55.5999 200.8704 
L 55.8975 200.1312 
L 56.1951 200.8704 
L 56.4927 200.1312 
L 56.7903 200.1312 
L 57.0879 200.1312 
L 57.3855 200.8704 
L 57.6831 201.6096 
L 57.9807 200.8704 
L 58.2783 200.8704 
L 58.5759 200.8704 
L 58.8735 200.8704 
L 59.1711 200.8704 
L 59.4687 200.8704 
L 59.7663 199.392 
L 60.0639 200.1312 
L 60.3615 200.8704 
L 60.6591 199.7616 
L 60.9567 200.1312 
L 61.2543 200.1312 
L 61.5519 198.6528 
L 61.8495 200.1312 
L 62.1471 197.1744 
L 62.4447 197.1744 
L 62.7423 197.1744 
L 63.0399 196.4352 
L 63.3375 197.1744 
L 63.6351 196.4352 
L 63.9327 193.4784 
L 64.2303 192.7392 
L 64.5279 192.7392 
L 64.8255 190.5216 
L 65.1231 188.6736 
L 65.4207 188.6736 
L 65.7183 189.0432 
L 66.0159 189.0432 
L 66.3135 189.0432 
L 66.6111 190.5216 
L 66.9087 190.5216 
L 67.2063 190.5216 
L 67.5039 189.0432 
L 67.8015 189.7824 
L 68.0991 191.2608 
L 68.3967 189.4128 
L 68.6943 189.7824 
L 68.9919 188.6736 
L 69.2895 189.7824 
L 69.5871 187.5648 
L 69.8847 187.5648 
L 70.1823 186.8256 
L 70.4799 187.5648 
L 70.7775 185.3472 
L 71.0751 186.8256 
L 71.3727 187.5648 
L 71.6703 189.7824 
L 71.9679 189.7824 
L 72.2655 189.7824 
L 72.5631 187.5648 
L 72.8607 186.8256 
L 73.1583 186.8256 
L 73.4559 186.8256 
L 73.7535 186.8256 
L 74.0511 189.7824 
L 74.3487 186.8256 
L 74.6463 188.304 
L 74.9439 187.5648 
L 75.2415 188.304 
L 75.5391 186.8256 
L 75.8367 184.9776 
L 76.1343 185.3472 
L 76.4319 183.8688 
L 76.7295 181.6512 
L 77.0271 181.6512 
L 77.3247 180.912 
L 77.6223 179.4336 
L 77.9199 181.6512 
L 78.2175 181.6512 
L 78.5151 178.6944 
L 78.8127 181.6512 
L 79.1103 178.6944 
L 79.4079 178.6944 
L 79.7055 180.1728 
L 80.0031 179.4336 
L 80.3007 177.9552 
L 80.5983 174.2592 
L 80.8959 169.824 
L 81.1935 169.824 
L 81.4911 168.7152 
L 81.7887 167.6064 
L 82.0863 165.3888 
L 82.3839 165.3888 
L 82.6815 165.3888 
L 82.9791 165.3888 
L 83.2767 159.4752 
L 83.5743 164.6496 
L 83.8719 158.736 
L 84.1695 156.5184 
L 84.4671 154.6704 
L 84.7647 152.0832 
L 85.0623 152.0832 
L 85.3599 152.8224 
L 85.6575 149.8656 
L 85.9551 151.344 
L 86.2527 157.2576 
L 86.5503 150.6048 
L 86.8479 150.6048 
L 87.1455 157.9968 
L 87.4431 149.1264 
L 87.7407 153.192 
L 88.0383 157.9968 
L 88.3359 153.9312 
L 88.6335 153.192 
L 88.9311 152.8224 
L 89.2287 151.344 
L 89.5263 150.6048 
L 89.8239 152.8224 
L 90.1215 152.8224 
L 90.4191 152.8224 
L 90.7167 152.8224 
L 91.0143 152.8224 
L 91.3119 150.6048 
L 91.6095 149.1264 
L 91.9071 152.8224 
L 92.2047 149.8656 
L 92.5023 150.6048 
L 92.7999 149.1264 
L 93.0975 150.6048 
L 93.3951 148.3872 
L 93.6927 149.1264 
L 93.9903 152.8224 
L 94.2879 150.6048 
L 94.5855 148.3872 
L 94.8831 148.3872 
L 95.1807 148.3872 
L 95.4783 150.6048 
L 95.7759 150.6048 
L 96.0735 150.6048 
L 96.3711 150.6048 
L 96.6687 150.6048 
L 96.9663 150.6048 
L 97.2639 151.7136 
L 97.5615 150.6048 
L 97.8591 150.6048 
L 98.1567 154.3008 
L 98.4543 155.04 
L 98.7519 153.5616 
L 99.0495 152.8224 
L 99.3471 152.8224 
L 99.6447 155.04 
L 99.9423 157.2576 
L 100.2399 155.04 
L 100.5375 156.1488 
L 100.8351 155.04 
L 101.1327 156.5184 
L 101.4303 157.9968 
L 101.7279 159.4752 
L 102.0255 160.2144 
L 102.3231 158.3664 
L 102.6207 159.8448 
L 102.9183 158.736 
L 103.2159 159.4752 
L 103.5135 160.2144 
L 103.8111 157.9968 
L 104.1087 159.4752 
L 104.4063 158.736 
L 104.7039 158.3664 
L 105.0015 157.2576 
L 105.2991 157.9968 
L 105.5967 157.9968 
L 105.8943 157.2576 
L 106.1919 157.9968 
L 106.4895 151.344 
L 106.7871 149.1264 
L 107.0847 151.344 
L 107.3823 132.1248 
L 107.6799 132.1248 
L 107.9775 135.0816 
L 108.2751 132.1248 
L 108.5727 131.3856 
L 108.8703 125.8416 
L 109.1679 125.8416 
L 109.4655 118.8192 
L 109.7631 119.1888 
L 110.0607 119.5584 
L 110.3583 123.2544 
L 110.6559 123.624 
L 110.9535 123.9936 
L 111.2511 123.9936 
L 111.5487 123.9936 
L 111.8463 124.7328 
L 112.1439 126.5808 
L 112.4415 126.2112 
L 112.7391 126.9504 
L 113.0367 127.6896 
L 113.3343 129.5376 
L 113.6319 129.168 
L 113.9295 128.7984 
L 114.2271 128.0592 
L 114.5247 127.6896 
L 114.8223 128.4288 
L 115.1199 126.9504 
L 115.4175 131.3856 
L 115.7151 129.168 
L 116.0127 130.6464 
L 116.3103 130.6464 
L 116.6079 130.6464 
L 116.9055 132.1248 
L 117.2031 131.3856 
L 117.5007 130.6464 
L 117.7983 132.1248 
L 118.0959 130.6464 
L 118.3935 132.1248 
L 118.6911 132.1248 
L 118.9887 129.9072 
L 119.2863 131.3856 
L 119.5839 132.1248 
L 119.8815 132.1248 
L 120.1791 132.1248 
L 120.4767 132.1248 
L 120.7743 132.1248 
L 121.0719 130.6464 
L 121.3695 130.6464 
L 121.6671 130.6464 
L 121.9647 132.1248 
L 122.2623 129.9072 
L 122.5599 128.7984 
L 122.8575 128.4288 
L 123.1551 128.4288 
L 123.4527 127.6896 
L 123.7503 128.4288 
L 124.0479 126.9504 
L 124.3455 126.9504 
L 124.6431 127.6896 
L 124.9407 126.9504 
L 125.2383 122.5152 
L 125.5359 122.5152 
L 125.8335 122.5152 
L 126.1311 118.08 
L 126.4287 122.5152 
L 126.7263 118.08 
L 127.0239 121.4064 
L 127.3215 116.6016 
L 127.6191 115.8624 
L 127.9167 115.8624 
L 128.2143 115.8624 
L 128.5119 114.7536 
L 128.8095 116.6016 
L 129.1071 112.9056 
L 129.4047 111.4272 
L 129.7023 106.992 
L 129.9999 108.1008 
L 130.2975 109.9488 
L 130.5951 107.7312 
L 130.8927 105.5136 
L 131.1903 98.8608 
L 131.4879 105.5136 
L 131.7855 101.0784 
L 132.0831 96.6432 
L 132.3807 96.6432 
L 132.6783 92.208 
L 132.9759 94.4256 
L 133.2735 92.208 
L 133.5711 92.208 
L 133.8687 92.208 
L 134.1663 92.208 
L 134.4639 91.0992 
L 134.7615 90.36 
L 135.0591 87.7728 
L 135.3567 89.9904 
L 135.6543 84.4464 
L 135.9519 88.8816 
L 136.2495 85.1856 
L 136.5471 87.7728 
L 136.8447 81.12 
L 137.1423 67.8144 
L 137.4399 85.5552 
L 137.7375 79.272 
L 138.0351 75.2064 
L 138.3327 79.272 
L 138.6303 82.2288 
L 138.9279 70.7712 
L 139.2255 72.9888 
L 139.5231 76.6848 
L 139.8207 69.2928 
L 140.1183 70.7712 
L 140.4159 70.4016 
L 140.7135 74.4672 
L 141.0111 68.5536 
L 141.3087 65.2272 
L 141.6063 71.5104 
L 141.9039 72.2496 
L 142.2015 67.4448 
L 142.4991 66.336 
L 142.7967 71.1408 
L 143.0943 73.3584 
L 143.3919 67.8144 
L 143.6895 64.1184 
L 143.9871 74.0976 
L 144.2847 60.4224 
L 144.5823 63.7488 
L 144.8799 64.1184 
L 145.1775 61.5312 
L 145.4751 62.64 
L 145.7727 66.7056 
L 146.0703 69.2928 
L 146.3679 64.8576 
L 146.6655 73.728 
L 146.9631 70.7712 
L 147.2607 60.4224 
L 147.5583 67.8144 
L 147.8559 69.2928 
L 148.1535 72.9888 
L 148.4511 72.2496 
L 148.7487 67.0752 
L 149.0463 74.8368 
L 149.3439 68.5536 
L 149.6415 66.7056 
L 149.9391 58.944 
L 150.2367 68.184 
L 150.5343 65.5968 
L 150.8319 67.8144 
L 151.1295 65.5968 
L 151.4271 58.2048 
L 151.7247 53.0304 
L 152.0223 54.5088 
L 152.3199 58.944 
L 152.6175 61.9008 
L 152.9151 63.3792 
L 153.2127 56.7264 
L 153.5103 57.096 
L 153.8079 61.1616 
L 154.1055 60.4224 
L 154.4031 63.0096 
L 154.7007 51.9216 
L 154.9983 59.3136 
L 155.2959 58.2048 
L 155.5935 55.9872 
L 155.8911 60.4224 
L 156.1887 60.4224 
L 156.4863 55.9872 
L 156.7839 58.944 
L 157.0815 60.4224 
L 157.3791 55.248 
L 157.6767 60.4224 
L 157.9743 61.1616 
L 158.2719 61.5312 
L 158.5695 63.3792 
L 158.8671 61.1616 
L 159.1647 61.5312 
L 159.4623 56.7264 
L 159.7599 59.3136 
L 160.0575 57.4656 
L 160.3551 57.4656 
L 160.6527 50.0736 
L 160.9503 49.3344 
L 161.2479 44.5296 
L 161.5455 46.3776 
L 161.8431 49.3344 
L 162.1407 46.3776 
L 162.4383 44.16 
L 162.7359 47.856 
L 163.0335 49.3344 
L 163.3311 37.1376 
L 163.6287 47.1168 
L 163.9263 41.9424 
L 164.2239 47.4864 
L 164.5215 34.5504 
L 164.8191 28.2672 
L 165.1167 45.2688 
L 165.4143 43.0512 
L 165.7119 45.6384 
L 166.0095 37.5072 
L 166.3071 34.5504 
L 166.6047 43.0512 
L 166.9023 36.768 
L 167.1999 33.8112 
L 167.4975 33.8112 
L 167.7951 36.0288 
L 168.0927 32.3328 
L 168.3903 33.072 
L 168.6879 38.2464 
L 168.9855 39.3552 
L 169.2831 36.0288 
L 169.5807 37.1376 
L 169.8783 38.9856 
L 170.1759 36.3984 
L 170.4735 30.8544 
L 170.7711 30.8544 
L 171.0687 31.224 
L 171.3663 29.0064 
L 171.6639 28.6368 
L 171.9615 31.5936 
L 172.2591 32.3328 
L 172.5567 30.8544 
L 172.8543 29.7456 
L 173.1519 26.4192 
L 173.4495 29.0064 
L 173.7471 26.4192 
L 174.0447 32.3328 
L 174.3423 29.7456 
L 174.6399 30.8544 
L 174.9375 27.1584 
L 175.2351 27.1584 
L 175.5327 27.8976 
L 175.8303 32.3328 
L 176.1279 26.4192 
L 176.4255 26.7888 
L 176.7231 26.4192 
L 177.0207 27.8976 
L 177.3183 26.4192 
L 177.6159 26.4192 
L 177.9135 26.0496 
L 178.2111 21.6144 
L 178.5087 24.2016 
L 178.8063 21.984 
L 179.1039 26.4192 
L 179.4015 21.6144 
L 179.6991 22.7232 
L 179.9967 27.528 
L 180.2943 19.7664 
L 180.5919 26.7888 
L 180.8895 21.984 
L 181.1871 24.5712 
L 181.4847 17.9184 
L 181.7823 24.9408 
L 182.0799 25.68 
L 182.3775 25.68 
L 182.6751 22.3536 
L 182.9727 21.984 
L 183.2703 24.2016 
L 183.5679 19.3968 
L 183.8655 24.2016 
L 184.1631 21.984 
L 184.4607 21.984 
L 184.7583 19.0272 
L 185.0559 19.0272 
L 185.3535 18.6576 
L 185.6511 20.5056 
L 185.9487 20.8752 
L 186.2463 23.0928 
L 186.5439 20.5056 
L 186.8415 20.8752 
L 187.1391 21.6144 
L 187.4367 26.4192 
L 187.7343 23.832 
L 188.0319 20.8752 
L 188.3295 20.8752 
L 188.6271 19.7664 
L 188.9247 20.136 
L 189.2223 21.2448 
L 189.5199 22.7232 
L 189.8175 24.9408 
L 190.1151 19.0272 
L 190.4127 20.5056 
L 190.7103 18.6576 
L 191.0079 20.5056 
L 191.3055 20.5056 
L 191.6031 19.7664 
L 191.9007 18.288 
L 192.1983 19.0272 
L 192.4959 16.0704 
L 192.7935 21.2448 
L 193.0911 20.5056 
L 193.3887 22.3536 
L 193.6863 18.6576 
L 193.9839 21.2448 
L 194.2815 21.6144 
L 194.5791 21.6144 
L 194.8767 19.7664 
L 195.1743 20.136 
L 195.4719 16.8096 
L 195.7695 18.6576 
L 196.0671 16.8096 
L 196.3647 21.2448 
L 196.6623 18.6576 
L 196.9599 19.7664 
L 197.2575 17.9184 
L 197.5551 17.5488 
L 197.8527 17.1792 
L 198.1503 19.0272 
L 198.4479 17.5488 
L 198.7455 19.0272 
L 199.0431 17.5488 
L 199.3407 19.3968 
L 199.6383 19.0272 
L 199.9359 16.8096 
L 200.2335 16.0704 
L 200.5311 18.288 
L 200.8287 13.8528 
L 201.1263 18.6576 
L 201.4239 18.6576 
L 201.7215 19.0272 
L 202.0191 14.592 
L 202.3167 16.0704 
L 202.6143 15.3312 
L 202.9119 19.7664 
L 203.2095 12.3744 
L 203.5071 13.4832 
L 203.8047 15.3312 
L 204.1023 16.8096 
L 204.3999 19.3968 
L 204.6975 13.4832 
L 204.9951 19.3968 
L 205.2927 13.4832 
L 205.5903 16.0704 
L 205.8879 16.8096 
L 206.1855 12.3744 
L 206.4831 12.3744 
L 206.7807 13.1136 
L 207.0783 11.6352 
L 207.3759 13.8528 
L 207.3759 40.464 
L 207.3759 40.464 
L 207.0783 42.6816 
L 206.7807 42.6816 
L 206.4831 41.9424 
L 206.1855 41.9424 
L 205.8879 43.4208 
L 205.5903 42.6816 
L 205.2927 41.5728 
L 204.9951 44.5296 
L 204.6975 44.5296 
L 204.3999 41.5728 
L 204.1023 43.4208 
L 203.8047 49.3344 
L 203.5071 47.4864 
L 203.2095 47.856 
L 202.9119 46.3776 
L 202.6143 44.8992 
L 202.3167 42.6816 
L 202.0191 47.1168 
L 201.7215 42.6816 
L 201.4239 46.7472 
L 201.1263 49.704 
L 200.8287 47.856 
L 200.5311 52.2912 
L 200.2335 54.5088 
L 199.9359 49.3344 
L 199.6383 51.552 
L 199.3407 47.4864 
L 199.0431 53.0304 
L 198.7455 51.552 
L 198.4479 55.9872 
L 198.1503 51.552 
L 197.8527 57.096 
L 197.5551 54.5088 
L 197.2575 54.8784 
L 196.9599 55.248 
L 196.6623 52.6608 
L 196.3647 53.7696 
L 196.0671 58.2048 
L 195.7695 52.6608 
L 195.4719 58.2048 
L 195.1743 57.096 
L 194.8767 58.2048 
L 194.5791 55.6176 
L 194.2815 55.6176 
L 193.9839 56.7264 
L 193.6863 57.096 
L 193.3887 53.4 
L 193.0911 57.4656 
L 192.7935 56.7264 
L 192.4959 60.4224 
L 192.1983 60.4224 
L 191.9007 61.1616 
L 191.6031 59.6832 
L 191.3055 58.944 
L 191.0079 58.944 
L 190.7103 58.5744 
L 190.4127 58.944 
L 190.1151 60.4224 
L 189.8175 57.4656 
L 189.5199 58.2048 
L 189.2223 59.6832 
L 188.9247 60.0528 
L 188.6271 59.6832 
L 188.3295 60.792 
L 188.0319 60.792 
L 187.7343 62.2704 
L 187.4367 61.9008 
L 187.1391 63.0096 
L 186.8415 60.792 
L 186.5439 61.9008 
L 186.2463 65.9664 
L 185.9487 63.7488 
L 185.6511 61.9008 
L 185.3535 68.9232 
L 185.0559 66.336 
L 184.7583 66.336 
L 184.4607 66.336 
L 184.1631 66.336 
L 183.8655 62.64 
L 183.5679 68.184 
L 183.2703 68.5536 
L 182.9727 67.8144 
L 182.6751 66.7056 
L 182.3775 62.64 
L 182.0799 64.1184 
L 181.7823 66.336 
L 181.4847 72.6192 
L 181.1871 67.4448 
L 180.8895 64.8576 
L 180.5919 71.1408 
L 180.2943 68.5536 
L 179.9967 64.488 
L 179.6991 65.5968 
L 179.4015 67.4448 
L 179.1039 67.8144 
L 178.8063 66.336 
L 178.5087 74.4672 
L 178.2111 67.4448 
L 177.9135 63.0096 
L 177.6159 73.728 
L 177.3183 79.6416 
L 177.0207 72.2496 
L 176.7231 70.7712 
L 176.4255 69.6624 
L 176.1279 70.7712 
L 175.8303 73.728 
L 175.5327 75.2064 
L 175.2351 78.9024 
L 174.9375 74.4672 
L 174.6399 73.728 
L 174.3423 75.576 
L 174.0447 79.6416 
L 173.7471 85.5552 
L 173.4495 83.7072 
L 173.1519 73.728 
L 172.8543 81.4896 
L 172.5567 81.12 
L 172.2591 82.5984 
L 171.9615 86.2944 
L 171.6639 81.8592 
L 171.3663 85.1856 
L 171.0687 82.968 
L 170.7711 85.5552 
L 170.4735 84.0768 
L 170.1759 83.7072 
L 169.8783 84.816 
L 169.5807 84.4464 
L 169.2831 83.3376 
L 168.9855 82.2288 
L 168.6879 85.5552 
L 168.3903 86.2944 
L 168.0927 88.512 
L 167.7951 86.2944 
L 167.4975 89.9904 
L 167.1999 89.9904 
L 166.9023 88.512 
L 166.6047 88.8816 
L 166.3071 90.7296 
L 166.0095 90.7296 
L 165.7119 88.512 
L 165.4143 93.3168 
L 165.1167 88.1424 
L 164.8191 97.752 
L 164.5215 92.208 
L 164.2239 93.3168 
L 163.9263 95.1648 
L 163.6287 95.904 
L 163.3311 97.752 
L 163.0335 93.6864 
L 162.7359 95.1648 
L 162.4383 97.3824 
L 162.1407 96.6432 
L 161.8431 93.6864 
L 161.5455 96.6432 
L 161.2479 99.2304 
L 160.9503 99.6 
L 160.6527 97.3824 
L 160.3551 95.904 
L 160.0575 103.296 
L 159.7599 99.2304 
L 159.4623 98.1216 
L 159.1647 101.448 
L 158.8671 102.5568 
L 158.5695 101.8176 
L 158.2719 102.9264 
L 157.9743 102.5568 
L 157.6767 104.7744 
L 157.3791 108.4704 
L 157.0815 104.7744 
L 156.7839 106.2528 
L 156.4863 109.2096 
L 156.1887 104.7744 
L 155.8911 104.7744 
L 155.5935 109.2096 
L 155.2959 106.992 
L 154.9983 108.1008 
L 154.7007 114.0144 
L 154.4031 108.84 
L 154.1055 110.688 
L 153.8079 109.9488 
L 153.5103 114.7536 
L 153.2127 115.8624 
L 152.9151 110.688 
L 152.6175 112.1664 
L 152.3199 118.08 
L 152.0223 119.5584 
L 151.7247 121.0368 
L 151.4271 118.8192 
L 151.1295 115.8624 
L 150.8319 116.6016 
L 150.5343 117.3408 
L 150.2367 116.9712 
L 149.9391 123.9936 
L 149.6415 121.4064 
L 149.3439 121.776 
L 149.0463 117.7104 
L 148.7487 123.2544 
L 148.4511 122.5152 
L 148.1535 121.776 
L 147.8559 125.472 
L 147.5583 126.9504 
L 147.2607 134.3424 
L 146.9631 123.9936 
L 146.6655 121.0368 
L 146.3679 129.9072 
L 146.0703 128.4288 
L 145.7727 130.2768 
L 145.4751 133.6032 
L 145.1775 135.4512 
L 144.8799 130.6464 
L 144.5823 133.2336 
L 144.2847 134.3424 
L 143.9871 131.7552 
L 143.6895 136.56 
L 143.3919 132.864 
L 143.0943 133.9728 
L 142.7967 134.712 
L 142.4991 134.3424 
L 142.2015 133.9728 
L 141.9039 134.3424 
L 141.6063 135.0816 
L 141.3087 136.1904 
L 141.0111 136.56 
L 140.7135 132.1248 
L 140.4159 136.9296 
L 140.1183 135.8208 
L 139.8207 137.2992 
L 139.5231 132.864 
L 139.2255 136.56 
L 138.9279 138.7776 
L 138.6303 133.9728 
L 138.3327 133.9728 
L 138.0351 134.3424 
L 137.7375 133.9728 
L 137.4399 132.864 
L 137.1423 140.256 
L 136.8447 146.1696 
L 136.5471 143.952 
L 136.2495 133.9728 
L 135.9519 142.104 
L 135.6543 145.0608 
L 135.3567 143.2128 
L 135.0591 143.952 
L 134.7615 142.104 
L 134.4639 142.8432 
L 134.1663 142.4736 
L 133.8687 142.4736 
L 133.5711 142.4736 
L 133.2735 142.4736 
L 132.9759 141.7344 
L 132.6783 142.4736 
L 132.3807 140.9952 
L 132.0831 140.9952 
L 131.7855 139.5168 
L 131.4879 138.0384 
L 131.1903 140.256 
L 130.8927 138.0384 
L 130.5951 140.256 
L 130.2975 136.56 
L 129.9999 139.1472 
L 129.7023 142.4736 
L 129.4047 140.9952 
L 129.1071 139.5168 
L 128.8095 138.7776 
L 128.5119 139.8864 
L 128.2143 139.5168 
L 127.9167 139.5168 
L 127.6191 139.5168 
L 127.3215 138.7776 
L 127.0239 137.6688 
L 126.7263 138.7776 
L 126.4287 137.2992 
L 126.1311 138.7776 
L 125.8335 137.2992 
L 125.5359 137.2992 
L 125.2383 137.2992 
L 124.9407 135.8208 
L 124.6431 136.56 
L 124.3455 138.7776 
L 124.0479 138.7776 
L 123.7503 137.2992 
L 123.4527 136.56 
L 123.1551 137.2992 
L 122.8575 137.2992 
L 122.5599 137.6688 
L 122.2623 137.2992 
L 121.9647 135.0816 
L 121.6671 136.56 
L 121.3695 136.56 
L 121.0719 136.56 
L 120.7743 135.0816 
L 120.4767 135.0816 
L 120.1791 135.0816 
L 119.8815 135.0816 
L 119.5839 135.0816 
L 119.2863 135.8208 
L 118.9887 137.2992 
L 118.6911 135.0816 
L 118.3935 135.0816 
L 118.0959 136.56 
L 117.7983 135.0816 
L 117.5007 136.56 
L 117.2031 137.2992 
L 116.9055 135.0816 
L 116.6079 136.56 
L 116.3103 138.0384 
L 116.0127 138.0384 
L 115.7151 139.5168 
L 115.4175 137.2992 
L 115.1199 141.7344 
L 114.8223 140.256 
L 114.5247 140.9952 
L 114.2271 142.8432 
L 113.9295 146.5392 
L 113.6319 146.9088 
L 113.3343 145.8 
L 113.0367 148.3872 
L 112.7391 150.6048 
L 112.4415 152.8224 
L 112.1439 153.192 
L 111.8463 157.2576 
L 111.5487 159.4752 
L 111.2511 159.4752 
L 110.9535 159.4752 
L 110.6559 160.584 
L 110.3583 161.6928 
L 110.0607 172.7808 
L 109.7631 173.8896 
L 109.4655 174.9984 
L 109.1679 195.3264 
L 108.8703 180.5424 
L 108.5727 192 
L 108.2751 191.2608 
L 107.9775 191.2608 
L 107.6799 191.2608 
L 107.3823 191.2608 
L 107.0847 174.9984 
L 106.7871 177.216 
L 106.4895 174.9984 
L 106.1919 172.7808 
L 105.8943 174.9984 
L 105.5967 174.2592 
L 105.2991 175.7376 
L 105.0015 174.9984 
L 104.7039 174.6288 
L 104.4063 173.52 
L 104.1087 174.2592 
L 103.8111 174.2592 
L 103.5135 172.0416 
L 103.2159 174.2592 
L 102.9183 173.52 
L 102.6207 173.1504 
L 102.3231 171.672 
L 102.0255 172.0416 
L 101.7279 171.3024 
L 101.4303 172.7808 
L 101.1327 171.3024 
L 100.8351 172.7808 
L 100.5375 172.4112 
L 100.2399 172.7808 
L 99.9423 172.0416 
L 99.6447 172.7808 
L 99.3471 173.52 
L 99.0495 173.52 
L 98.7519 172.7808 
L 98.4543 172.7808 
L 98.1567 172.0416 
L 97.8591 174.2592 
L 97.5615 174.2592 
L 97.2639 173.8896 
L 96.9663 174.2592 
L 96.6687 174.2592 
L 96.3711 174.2592 
L 96.0735 174.2592 
L 95.7759 174.2592 
L 95.4783 174.2592 
L 95.1807 174.9984 
L 94.8831 174.9984 
L 94.5855 174.9984 
L 94.2879 174.2592 
L 93.9903 172.0416 
L 93.6927 174.2592 
L 93.3951 174.9984 
L 93.0975 174.2592 
L 92.7999 175.7376 
L 92.5023 174.2592 
L 92.2047 174.9984 
L 91.9071 173.52 
L 91.6095 175.7376 
L 91.3119 174.2592 
L 91.0143 173.52 
L 90.7167 173.52 
L 90.4191 173.52 
L 90.1215 173.52 
L 89.8239 173.52 
L 89.5263 175.7376 
L 89.2287 174.9984 
L 88.9311 173.52 
L 88.6335 175.368 
L 88.3359 173.1504 
L 88.0383 172.7808 
L 87.7407 175.368 
L 87.4431 177.216 
L 87.1455 175.7376 
L 86.8479 183.1296 
L 86.5503 183.1296 
L 86.2527 176.4768 
L 85.9551 185.3472 
L 85.6575 186.8256 
L 85.3599 185.3472 
L 85.0623 184.608 
L 84.7647 186.0864 
L 84.4671 188.6736 
L 84.1695 192 
L 83.8719 194.2176 
L 83.5743 195.696 
L 83.2767 200.8704 
L 82.9791 194.9568 
L 82.6815 194.9568 
L 82.3839 194.9568 
L 82.0863 194.9568 
L 81.7887 192.7392 
L 81.4911 192.3696 
L 81.1935 193.4784 
L 80.8959 193.4784 
L 80.5983 192 
L 80.3007 191.2608 
L 80.0031 191.2608 
L 79.7055 192 
L 79.4079 190.5216 
L 79.1103 196.4352 
L 78.8127 193.4784 
L 78.5151 196.4352 
L 78.2175 193.4784 
L 77.9199 193.4784 
L 77.6223 195.696 
L 77.3247 195.696 
L 77.0271 196.4352 
L 76.7295 196.4352 
L 76.4319 198.6528 
L 76.1343 200.1312 
L 75.8367 195.3264 
L 75.5391 198.6528 
L 75.2415 197.1744 
L 74.9439 196.4352 
L 74.6463 197.1744 
L 74.3487 198.6528 
L 74.0511 195.696 
L 73.7535 198.6528 
L 73.4559 198.6528 
L 73.1583 198.6528 
L 72.8607 198.6528 
L 72.5631 197.9136 
L 72.2655 195.696 
L 71.9679 195.696 
L 71.6703 195.696 
L 71.3727 199.392 
L 71.0751 198.6528 
L 70.7775 200.1312 
L 70.4799 199.392 
L 70.1823 200.1312 
L 69.8847 199.392 
L 69.5871 199.392 
L 69.2895 198.6528 
L 68.9919 199.0224 
L 68.6943 198.6528 
L 68.3967 202.7184 
L 68.0991 200.1312 
L 67.8015 201.6096 
L 67.5039 203.8272 
L 67.2063 202.3488 
L 66.9087 202.3488 
L 66.6111 202.3488 
L 66.3135 203.8272 
L 66.0159 203.8272 
L 65.7183 203.8272 
L 65.4207 204.936 
L 65.1231 204.936 
L 64.8255 205.3056 
L 64.5279 204.5664 
L 64.2303 204.5664 
L 63.9327 205.3056 
L 63.6351 205.3056 
L 63.3375 206.0448 
L 63.0399 205.3056 
L 62.7423 206.0448 
L 62.4447 206.0448 
L 62.1471 206.0448 
L 61.8495 203.088 
L 61.5519 204.5664 
L 61.2543 203.088 
L 60.9567 203.088 
L 60.6591 204.1968 
L 60.3615 203.8272 
L 60.0639 203.088 
L 59.7663 205.3056 
L 59.4687 203.8272 
L 59.1711 203.8272 
L 58.8735 203.8272 
L 58.5759 203.8272 
L 58.2783 203.8272 
L 57.9807 203.8272 
L 57.6831 204.5664 
L 57.3855 203.8272 
L 57.0879 206.0448 
L 56.7903 206.0448 
L 56.4927 209.0016 
L 56.1951 206.784 
L 55.8975 209.0016 
L 55.5999 209.7408 
L 55.3023 209.7408 
L 55.0047 211.2192 
L 54.7071 209.7408 
L 54.4095 209.7408 
L 54.1119 209.7408 
L 53.8143 209.7408 
L 53.5167 210.48 
L 53.2191 211.2192 
L 52.9215 211.9584 
L 52.6239 211.9584 
L 52.3263 211.9584 
L 52.0287 211.9584 
L 51.7311 214.176 
L 51.4335 214.176 
L 51.1359 214.176 
L 50.8383 214.176 
L 50.5407 214.176 
L 50.2431 214.176 
L 49.9455 214.176 
L 49.6479 214.176 
L 49.3503 214.176 
L 49.0527 214.9152 
L 48.7551 214.9152 
L 48.4575 214.9152 
L 48.1599 214.9152 
L 47.8623 214.9152 
L 47.5647 215.6544 
L 47.2671 214.9152 
L 46.9695 217.5024 
z
" clip-path="url(#pfa2a589ac6)" style="fill: #52c569; fill-opacity: 0.3"/>
   </g>
   <g id="matplotlib.axis_1">
    <g id="xtick_1">
     <g id="line2d_1">
      <defs>
       <path id="mda0ce5905e" d="M 0 0 
L 0 3.5 
" style="stroke: #000000; stroke-width: 0.8"/>
      </defs>
      <g>
       <use xlink:href="#mda0ce5905e" x="33.5775" y="228.96" style="stroke: #000000; stroke-width: 0.8"/>
      </g>
     </g>
     <g id="text_1">
      <text style="font: 6px 'DejaVu Sans', 'Bitstream Vera Sans', 'Computer Modern Sans Serif', 'Lucida Grande', 'Verdana', 'Geneva', 'Lucid', 'Arial', 'Helvetica', 'Avant Garde', sans-serif; text-anchor: middle" x="33.5775" y="240.519062" transform="rotate(-0 33.5775 240.519062)">0</text>
     </g>
    </g>
    <g id="xtick_2">
     <g id="line2d_2">
      <g>
       <use xlink:href="#mda0ce5905e" x="69.2895" y="228.96" style="stroke: #000000; stroke-width: 0.8"/>
      </g>
     </g>
     <g id="text_2">
      <text style="font: 6px 'DejaVu Sans', 'Bitstream Vera Sans', 'Computer Modern Sans Serif', 'Lucida Grande', 'Verdana', 'Geneva', 'Lucid', 'Arial', 'Helvetica', 'Avant Garde', sans-serif; text-anchor: middle" x="69.2895" y="240.519062" transform="rotate(-0 69.2895 240.519062)">4</text>
     </g>
    </g>
    <g id="xtick_3">
     <g id="line2d_3">
      <g>
       <use xlink:href="#mda0ce5905e" x="105.0015" y="228.96" style="stroke: #000000; stroke-width: 0.8"/>
      </g>
     </g>
     <g id="text_3">
      <text style="font: 6px 'DejaVu Sans', 'Bitstream Vera Sans', 'Computer Modern Sans Serif', 'Lucida Grande', 'Verdana', 'Geneva', 'Lucid', 'Arial', 'Helvetica', 'Avant Garde', sans-serif; text-anchor: middle" x="105.0015" y="240.519062" transform="rotate(-0 105.0015 240.519062)">8</text>
     </g>
    </g>
    <g id="xtick_4">
     <g id="line2d_4">
      <g>
       <use xlink:href="#mda0ce5905e" x="140.7135" y="228.96" style="stroke: #000000; stroke-width: 0.8"/>
      </g>
     </g>
     <g id="text_4">
      <text style="font: 6px 'DejaVu Sans', 'Bitstream Vera Sans', 'Computer Modern Sans Serif', 'Lucida Grande', 'Verdana', 'Geneva', 'Lucid', 'Arial', 'Helvetica', 'Avant Garde', sans-serif; text-anchor: middle" x="140.7135" y="240.519062" transform="rotate(-0 140.7135 240.519062)">12</text>
     </g>
    </g>
    <g id="xtick_5">
     <g id="line2d_5">
      <g>
       <use xlink:href="#mda0ce5905e" x="176.4255" y="228.96" style="stroke: #000000; stroke-width: 0.8"/>
      </g>
     </g>
     <g id="text_5">
      <text style="font: 6px 'DejaVu Sans', 'Bitstream Vera Sans', 'Computer Modern Sans Serif', 'Lucida Grande', 'Verdana', 'Geneva', 'Lucid', 'Arial', 'Helvetica', 'Avant Garde', sans-serif; text-anchor: middle" x="176.4255" y="240.519062" transform="rotate(-0 176.4255 240.519062)">16</text>
     </g>
    </g>
    <g id="xtick_6">
     <g id="line2d_6">
      <g>
       <use xlink:href="#mda0ce5905e" x="212.1375" y="228.96" style="stroke: #000000; stroke-width: 0.8"/>
      </g>
     </g>
     <g id="text_6">
      <text style="font: 6px 'DejaVu Sans', 'Bitstream Vera Sans', 'Computer Modern Sans Serif', 'Lucida Grande', 'Verdana', 'Geneva', 'Lucid', 'Arial', 'Helvetica', 'Avant Garde', sans-serif; text-anchor: middle" x="212.1375" y="240.519062" transform="rotate(-0 212.1375 240.519062)">20</text>
     </g>
    </g>
    <g id="xtick_7">
     <g id="line2d_7">
      <g>
       <use xlink:href="#mda0ce5905e" x="247.8495" y="228.96" style="stroke: #000000; stroke-width: 0.8"/>
      </g>
     </g>
     <g id="text_7">
      <text style="font: 6px 'DejaVu Sans', 'Bitstream Vera Sans', 'Computer Modern Sans Serif', 'Lucida Grande', 'Verdana', 'Geneva', 'Lucid', 'Arial', 'Helvetica', 'Avant Garde', sans-serif; text-anchor: middle" x="247.8495" y="240.519062" transform="rotate(-0 247.8495 240.519062)">24</text>
     </g>
    </g>
    <g id="text_8">
     <text style="font: 8px 'DejaVu Sans', 'Bitstream Vera Sans', 'Computer Modern Sans Serif', 'Lucida Grande', 'Verdana', 'Geneva', 'Lucid', 'Arial', 'Helvetica', 'Avant Garde', sans-serif; text-anchor: middle" x="145.1775" y="251.845625" transform="rotate(-0 145.1775 251.845625)">Experimental time (hpf)</text>
    </g>
   </g>
   <g id="matplotlib.axis_2">
    <g id="ytick_1">
     <g id="line2d_8">
      <defs>
       <path id="m230912a1dd" d="M 0 0 
L -3.5 0 
" style="stroke: #000000; stroke-width: 0.8"/>
      </defs>
      <g>
       <use xlink:href="#m230912a1dd" x="33.5775" y="228.96" style="stroke: #000000; stroke-width: 0.8"/>
      </g>
     </g>
     <g id="text_9">
      <text style="font: 6px 'DejaVu Sans', 'Bitstream Vera Sans', 'Computer Modern Sans Serif', 'Lucida Grande', 'Verdana', 'Geneva', 'Lucid', 'Arial', 'Helvetica', 'Avant Garde', sans-serif; text-anchor: end" x="26.5775" y="231.239531" transform="rotate(-0 26.5775 231.239531)">0</text>
     </g>
    </g>
    <g id="ytick_2">
     <g id="line2d_9">
      <g>
       <use xlink:href="#m230912a1dd" x="33.5775" y="193.4784" style="stroke: #000000; stroke-width: 0.8"/>
      </g>
     </g>
     <g id="text_10">
      <text style="font: 6px 'DejaVu Sans', 'Bitstream Vera Sans', 'Computer Modern Sans Serif', 'Lucida Grande', 'Verdana', 'Geneva', 'Lucid', 'Arial', 'Helvetica', 'Avant Garde', sans-serif; text-anchor: end" x="26.5775" y="195.757931" transform="rotate(-0 26.5775 195.757931)">4</text>
     </g>
    </g>
    <g id="ytick_3">
     <g id="line2d_10">
      <g>
       <use xlink:href="#m230912a1dd" x="33.5775" y="157.9968" style="stroke: #000000; stroke-width: 0.8"/>
      </g>
     </g>
     <g id="text_11">
      <text style="font: 6px 'DejaVu Sans', 'Bitstream Vera Sans', 'Computer Modern Sans Serif', 'Lucida Grande', 'Verdana', 'Geneva', 'Lucid', 'Arial', 'Helvetica', 'Avant Garde', sans-serif; text-anchor: end" x="26.5775" y="160.276331" transform="rotate(-0 26.5775 160.276331)">8</text>
     </g>
    </g>
    <g id="ytick_4">
     <g id="line2d_11">
      <g>
       <use xlink:href="#m230912a1dd" x="33.5775" y="122.5152" style="stroke: #000000; stroke-width: 0.8"/>
      </g>
     </g>
     <g id="text_12">
      <text style="font: 6px 'DejaVu Sans', 'Bitstream Vera Sans', 'Computer Modern Sans Serif', 'Lucida Grande', 'Verdana', 'Geneva', 'Lucid', 'Arial', 'Helvetica', 'Avant Garde', sans-serif; text-anchor: end" x="26.5775" y="124.794731" transform="rotate(-0 26.5775 124.794731)">12</text>
     </g>
    </g>
    <g id="ytick_5">
     <g id="line2d_12">
      <g>
       <use xlink:href="#m230912a1dd" x="33.5775" y="87.0336" style="stroke: #000000; stroke-width: 0.8"/>
      </g>
     </g>
     <g id="text_13">
      <text style="font: 6px 'DejaVu Sans', 'Bitstream Vera Sans', 'Computer Modern Sans Serif', 'Lucida Grande', 'Verdana', 'Geneva', 'Lucid', 'Arial', 'Helvetica', 'Avant Garde', sans-serif; text-anchor: end" x="26.5775" y="89.313131" transform="rotate(-0 26.5775 89.313131)">16</text>
     </g>
    </g>
    <g id="ytick_6">
     <g id="line2d_13">
      <g>
       <use xlink:href="#m230912a1dd" x="33.5775" y="51.552" style="stroke: #000000; stroke-width: 0.8"/>
      </g>
     </g>
     <g id="text_14">
      <text style="font: 6px 'DejaVu Sans', 'Bitstream Vera Sans', 'Computer Modern Sans Serif', 'Lucida Grande', 'Verdana', 'Geneva', 'Lucid', 'Arial', 'Helvetica', 'Avant Garde', sans-serif; text-anchor: end" x="26.5775" y="53.831531" transform="rotate(-0 26.5775 53.831531)">20</text>
     </g>
    </g>
    <g id="ytick_7">
     <g id="line2d_14">
      <g>
       <use xlink:href="#m230912a1dd" x="33.5775" y="16.0704" style="stroke: #000000; stroke-width: 0.8"/>
      </g>
     </g>
     <g id="text_15">
      <text style="font: 6px 'DejaVu Sans', 'Bitstream Vera Sans', 'Computer Modern Sans Serif', 'Lucida Grande', 'Verdana', 'Geneva', 'Lucid', 'Arial', 'Helvetica', 'Avant Garde', sans-serif; text-anchor: end" x="26.5775" y="18.349931" transform="rotate(-0 26.5775 18.349931)">24</text>
     </g>
    </g>
    <g id="text_16">
     <text style="font: 8px 'DejaVu Sans', 'Bitstream Vera Sans', 'Computer Modern Sans Serif', 'Lucida Grande', 'Verdana', 'Geneva', 'Lucid', 'Arial', 'Helvetica', 'Avant Garde', sans-serif; text-anchor: middle" x="13.27875" y="118.08" transform="rotate(-90 13.27875 118.08)">Developmental age (hpf)</text>
    </g>
   </g>
   <g id="line2d_15">
    <path d="M 42.5055 221.007205 
L 227.649593 -1 
L 227.649593 -1 
" clip-path="url(#pfa2a589ac6)" style="fill: none; stroke: #52c569; stroke-linecap: square"/>
   </g>
   <g id="line2d_16">
    <path d="M 42.5055 220.900057 
L 231.340166 -1 
L 231.340166 -1 
" clip-path="url(#pfa2a589ac6)" style="fill: none; stroke-dasharray: 3.7,1.6; stroke-dashoffset: 0; stroke: #52c569"/>
   </g>
   <g id="line2d_17">
    <path d="M 42.5055 221.141166 
L 223.238224 -1 
L 223.238224 -1 
" clip-path="url(#pfa2a589ac6)" style="fill: none; stroke-dasharray: 3.7,1.6; stroke-dashoffset: 0; stroke: #52c569"/>
   </g>
   <g id="patch_3">
    <path d="M 33.5775 228.96 
L 33.5775 7.2 
" style="fill: none; stroke: #000000; stroke-width: 0.8; stroke-linejoin: miter; stroke-linecap: square"/>
   </g>
   <g id="patch_4">
    <path d="M 33.5775 228.96 
L 256.7775 228.96 
" style="fill: none; stroke: #000000; stroke-width: 0.8; stroke-linejoin: miter; stroke-linecap: square"/>
   </g>
   <g id="legend_1">
    <g id="patch_5">
     <path d="M 37.6305 28.829269 
L 196.698989 28.829269 
Q 197.856989 28.829269 197.856989 27.671269 
L 197.856989 11.253 
Q 197.856989 10.095 196.698989 10.095 
L 37.6305 10.095 
Q 36.4725 10.095 36.4725 11.253 
L 36.4725 27.671269 
Q 36.4725 28.829269 37.6305 28.829269 
z
" style="fill: #ffffff; opacity: 0.8; stroke: #cccccc; stroke-linejoin: miter"/>
    </g>
    <g id="line2d_18">
     <path d="M 38.7885 14.783995 
L 44.5785 14.783995 
L 50.3685 14.783995 
" style="fill: none; stroke: #52c569; stroke-linecap: square"/>
    </g>
    <g id="text_17">
     <text style="font: 5.79px 'DejaVu Sans', 'Bitstream Vera Sans', 'Computer Modern Sans Serif', 'Lucida Grande', 'Verdana', 'Geneva', 'Lucid', 'Arial', 'Helvetica', 'Avant Garde', sans-serif; text-anchor: start" x="55.0005" y="16.810495" transform="rotate(-0 55.0005 16.810495)">Linear fit: slope=1.207 [1.183,1.237], R2=0.981</text>
    </g>
    <g id="patch_6">
     <path d="M 38.7885 25.30913 
L 50.3685 25.30913 
L 50.3685 21.25613 
L 38.7885 21.25613 
z
" style="fill: #52c569; fill-opacity: 0.3"/>
    </g>
    <g id="text_18">
     <text style="font: 5.79px 'DejaVu Sans', 'Bitstream Vera Sans', 'Computer Modern Sans Serif', 'Lucida Grande', 'Verdana', 'Geneva', 'Lucid', 'Arial', 'Helvetica', 'Avant Garde', sans-serif; text-anchor: start" x="55.0005" y="25.30913" transform="rotate(-0 55.0005 25.30913)">Median:31.5C</text>
    </g>
   </g>
  </g>
 </g>
 <defs>
  <clipPath id="pfa2a589ac6">
   <rect x="33.5775" y="7.2" width="223.2" height="221.76"/>
  </clipPath>
 </defs>
</svg>
