<?xml version="1.0" encoding="utf-8" standalone="no"?>
<!DOCTYPE svg PUBLIC "-//W3C//DTD SVG 1.1//EN"
  "http://www.w3.org/Graphics/SVG/1.1/DTD/svg11.dtd">
<svg xmlns:xlink="http://www.w3.org/1999/xlink" width="263.9775pt" height="260.709375pt" viewBox="0 0 263.9775 260.709375" xmlns="http://www.w3.org/2000/svg" version="1.1">
 <metadata>
  <rdf:RDF xmlns:dc="http://purl.org/dc/elements/1.1/" xmlns:cc="http://creativecommons.org/ns#" xmlns:rdf="http://www.w3.org/1999/02/22-rdf-syntax-ns#">
   <cc:Work>
    <dc:type rdf:resource="http://purl.org/dc/dcmitype/StillImage"/>
    <dc:date>2023-07-28T13:05:34.070781</dc:date>
    <dc:format>image/svg+xml</dc:format>
    <dc:creator>
     <cc:Agent>
      <dc:title>Matplotlib v3.7.0, https://matplotlib.org/</dc:title>
     </cc:Agent>
    </dc:creator>
   </cc:Work>
  </rdf:RDF>
 </metadata>
 <defs>
  <style type="text/css">*{stroke-linejoin: round; stroke-linecap: butt}</style>
 </defs>
 <g id="figure_1">
  <g id="patch_1">
   <path d="M 0 260.709375 
L 263.9775 260.709375 
L 263.9775 0 
L 0 0 
z
" style="fill: #ffffff"/>
  </g>
  <g id="axes_1">
   <g id="patch_2">
    <path d="M 33.5775 228.96 
L 256.7775 228.96 
L 256.7775 7.2 
L 33.5775 7.2 
z
" style="fill: #ffffff"/>
   </g>
   <g id="PolyCollection_1">
    <path d="M 42.5055 220.4592 
L 42.5055 213.0672 
L 42.8031 211.2192 
L 43.1007 210.48 
L 43.3983 207.5232 
L 43.6959 208.2624 
L 43.9935 207.5232 
L 44.2911 209.7408 
L 44.5887 209.3712 
L 44.8863 210.48 
L 45.1839 208.2624 
L 45.4815 208.2624 
L 45.7791 209.7408 
L 46.0767 207.8928 
L 46.3743 206.784 
L 46.6719 207.5232 
L 46.9695 208.2624 
L 47.2671 206.0448 
L 47.5647 208.2624 
L 47.8623 206.0448 
L 48.1599 206.0448 
L 48.4575 206.0448 
L 48.7551 205.3056 
L 49.0527 206.784 
L 49.3503 205.3056 
L 49.6479 205.3056 
L 49.9455 206.784 
L 50.2431 206.784 
L 50.5407 206.784 
L 50.8383 206.784 
L 51.1359 202.3488 
L 51.4335 202.3488 
L 51.7311 203.088 
L 52.0287 202.7184 
L 52.3263 203.088 
L 52.6239 203.088 
L 52.9215 203.088 
L 53.2191 203.4576 
L 53.5167 203.088 
L 53.8143 203.088 
L 54.1119 200.8704 
L 54.4095 202.3488 
L 54.7071 200.8704 
L 55.0047 200.8704 
L 55.3023 202.3488 
L 55.5999 202.3488 
L 55.8975 200.8704 
L 56.1951 201.6096 
L 56.4927 200.1312 
L 56.7903 200.8704 
L 57.0879 200.8704 
L 57.3855 201.6096 
L 57.6831 201.6096 
L 57.9807 200.8704 
L 58.2783 201.6096 
L 58.5759 201.6096 
L 58.8735 200.8704 
L 59.1711 199.392 
L 59.4687 200.8704 
L 59.7663 200.8704 
L 60.0639 200.1312 
L 60.3615 200.1312 
L 60.6591 200.1312 
L 60.9567 200.1312 
L 61.2543 198.6528 
L 61.5519 197.1744 
L 61.8495 197.9136 
L 62.1471 194.9568 
L 62.4447 194.9568 
L 62.7423 194.2176 
L 63.0399 194.9568 
L 63.3375 194.9568 
L 63.6351 194.9568 
L 63.9327 193.4784 
L 64.2303 192 
L 64.5279 193.4784 
L 64.8255 193.4784 
L 65.1231 192 
L 65.4207 192 
L 65.7183 192 
L 66.0159 190.5216 
L 66.3135 192.7392 
L 66.6111 189.7824 
L 66.9087 189.7824 
L 67.2063 189.7824 
L 67.5039 189.0432 
L 67.8015 190.5216 
L 68.0991 190.5216 
L 68.3967 189.7824 
L 68.6943 189.7824 
L 68.9919 189.7824 
L 69.2895 189.7824 
L 69.5871 189.0432 
L 69.8847 189.0432 
L 70.1823 189.0432 
L 70.4799 189.0432 
L 70.7775 189.0432 
L 71.0751 187.5648 
L 71.3727 189.0432 
L 71.6703 188.304 
L 71.9679 187.5648 
L 72.2655 185.7168 
L 72.5631 186.0864 
L 72.8607 186.0864 
L 73.1583 184.9776 
L 73.4559 184.2384 
L 73.7535 185.3472 
L 74.0511 184.608 
L 74.3487 183.1296 
L 74.6463 183.1296 
L 74.9439 183.1296 
L 75.2415 183.1296 
L 75.5391 181.6512 
L 75.8367 181.6512 
L 76.1343 180.912 
L 76.4319 181.2816 
L 76.7295 180.1728 
L 77.0271 180.1728 
L 77.3247 181.6512 
L 77.6223 180.1728 
L 77.9199 181.6512 
L 78.2175 180.1728 
L 78.5151 180.1728 
L 78.8127 179.4336 
L 79.1103 179.4336 
L 79.4079 179.064 
L 79.7055 179.8032 
L 80.0031 176.4768 
L 80.3007 176.4768 
L 80.5983 177.216 
L 80.8959 177.216 
L 81.1935 177.5856 
L 81.4911 177.9552 
L 81.7887 177.9552 
L 82.0863 177.9552 
L 82.3839 177.9552 
L 82.6815 174.9984 
L 82.9791 175.7376 
L 83.2767 174.2592 
L 83.5743 174.9984 
L 83.8719 174.2592 
L 84.1695 174.2592 
L 84.4671 173.52 
L 84.7647 172.7808 
L 85.0623 170.5632 
L 85.3599 172.4112 
L 85.6575 170.1936 
L 85.9551 167.6064 
L 86.2527 167.2368 
L 86.5503 168.3456 
L 86.8479 166.128 
L 87.1455 165.3888 
L 87.4431 163.9104 
L 87.7407 165.3888 
L 88.0383 165.3888 
L 88.3359 165.3888 
L 88.6335 163.5408 
L 88.9311 162.432 
L 89.2287 163.1712 
L 89.5263 163.9104 
L 89.8239 163.5408 
L 90.1215 163.1712 
L 90.4191 162.432 
L 90.7167 162.432 
L 91.0143 163.1712 
L 91.3119 163.9104 
L 91.6095 163.1712 
L 91.9071 162.432 
L 92.2047 162.432 
L 92.5023 163.9104 
L 92.7999 162.432 
L 93.0975 163.1712 
L 93.3951 162.0624 
L 93.6927 162.432 
L 93.9903 162.432 
L 94.2879 160.584 
L 94.5855 161.6928 
L 94.8831 160.9536 
L 95.1807 160.9536 
L 95.4783 159.4752 
L 95.7759 160.9536 
L 96.0735 160.9536 
L 96.3711 159.4752 
L 96.6687 160.9536 
L 96.9663 158.736 
L 97.2639 160.2144 
L 97.5615 157.9968 
L 97.8591 157.2576 
L 98.1567 158.736 
L 98.4543 157.2576 
L 98.7519 156.5184 
L 99.0495 155.7792 
L 99.3471 155.7792 
L 99.6447 155.7792 
L 99.9423 155.7792 
L 100.2399 154.3008 
L 100.5375 155.04 
L 100.8351 155.04 
L 101.1327 151.344 
L 101.4303 149.8656 
L 101.7279 153.5616 
L 102.0255 151.344 
L 102.3231 148.3872 
L 102.6207 151.344 
L 102.9183 149.8656 
L 103.2159 149.8656 
L 103.5135 151.344 
L 103.8111 148.3872 
L 104.1087 149.8656 
L 104.4063 147.2784 
L 104.7039 146.5392 
L 105.0015 145.4304 
L 105.2991 143.952 
L 105.5967 144.6912 
L 105.8943 146.5392 
L 106.1919 143.952 
L 106.4895 144.3216 
L 106.7871 142.8432 
L 107.0847 139.5168 
L 107.3823 140.256 
L 107.6799 141.7344 
L 107.9775 143.2128 
L 108.2751 143.2128 
L 108.5727 143.952 
L 108.8703 140.9952 
L 109.1679 144.6912 
L 109.4655 143.2128 
L 109.7631 146.1696 
L 110.0607 144.6912 
L 110.3583 142.8432 
L 110.6559 142.4736 
L 110.9535 142.104 
L 111.2511 141.7344 
L 111.5487 142.4736 
L 111.8463 142.4736 
L 112.1439 140.6256 
L 112.4415 142.4736 
L 112.7391 140.256 
L 113.0367 140.9952 
L 113.3343 140.256 
L 113.6319 138.7776 
L 113.9295 140.256 
L 114.2271 140.256 
L 114.5247 140.256 
L 114.8223 141.7344 
L 115.1199 140.256 
L 115.4175 140.256 
L 115.7151 140.9952 
L 116.0127 140.9952 
L 116.3103 140.256 
L 116.6079 140.256 
L 116.9055 141.7344 
L 117.2031 140.256 
L 117.5007 140.256 
L 117.7983 140.9952 
L 118.0959 140.256 
L 118.3935 140.9952 
L 118.6911 139.1472 
L 118.9887 138.408 
L 119.2863 140.256 
L 119.5839 138.0384 
L 119.8815 138.0384 
L 120.1791 138.0384 
L 120.4767 139.5168 
L 120.7743 138.0384 
L 121.0719 137.2992 
L 121.3695 136.56 
L 121.6671 136.1904 
L 121.9647 135.8208 
L 122.2623 135.8208 
L 122.5599 133.9728 
L 122.8575 135.0816 
L 123.1551 134.3424 
L 123.4527 135.8208 
L 123.7503 134.3424 
L 124.0479 132.864 
L 124.3455 134.3424 
L 124.6431 135.0816 
L 124.9407 135.0816 
L 125.2383 132.864 
L 125.5359 130.2768 
L 125.8335 130.6464 
L 126.1311 132.1248 
L 126.4287 130.6464 
L 126.7263 130.6464 
L 127.0239 130.6464 
L 127.3215 130.2768 
L 127.6191 131.3856 
L 127.9167 129.9072 
L 128.2143 130.6464 
L 128.5119 131.3856 
L 128.8095 130.6464 
L 129.1071 131.016 
L 129.4047 130.6464 
L 129.7023 130.6464 
L 129.9999 131.016 
L 130.2975 130.6464 
L 130.5951 131.3856 
L 130.8927 131.3856 
L 131.1903 130.6464 
L 131.4879 129.168 
L 131.7855 129.9072 
L 132.0831 128.4288 
L 132.3807 128.4288 
L 132.6783 129.9072 
L 132.9759 128.4288 
L 133.2735 128.4288 
L 133.5711 126.2112 
L 133.8687 129.9072 
L 134.1663 127.6896 
L 134.4639 127.6896 
L 134.7615 126.5808 
L 135.0591 127.6896 
L 135.3567 126.9504 
L 135.6543 126.5808 
L 135.9519 126.2112 
L 136.2495 126.9504 
L 136.5471 125.8416 
L 136.8447 125.1024 
L 137.1423 122.8848 
L 137.4399 123.9936 
L 137.7375 123.624 
L 138.0351 122.5152 
L 138.3327 122.5152 
L 138.6303 121.0368 
L 138.9279 121.0368 
L 139.2255 121.0368 
L 139.5231 121.0368 
L 139.8207 121.0368 
L 140.1183 118.8192 
L 140.4159 121.0368 
L 140.7135 121.0368 
L 141.0111 118.08 
L 141.3087 118.08 
L 141.6063 119.5584 
L 141.9039 119.1888 
L 142.2015 119.5584 
L 142.4991 116.6016 
L 142.7967 116.9712 
L 143.0943 115.4928 
L 143.3919 109.9488 
L 143.6895 109.9488 
L 143.9871 112.1664 
L 144.2847 109.9488 
L 144.5823 112.9056 
L 144.8799 109.9488 
L 145.1775 110.688 
L 145.4751 110.688 
L 145.7727 109.9488 
L 146.0703 111.0576 
L 146.3679 111.7968 
L 146.6655 109.9488 
L 146.9631 111.0576 
L 147.2607 107.7312 
L 147.5583 109.9488 
L 147.8559 112.1664 
L 148.1535 106.2528 
L 148.4511 109.9488 
L 148.7487 106.6224 
L 149.0463 103.296 
L 149.3439 103.296 
L 149.6415 102.5568 
L 149.9391 101.0784 
L 150.2367 101.8176 
L 150.5343 104.0352 
L 150.8319 101.8176 
L 151.1295 99.6 
L 151.4271 100.3392 
L 151.7247 95.904 
L 152.0223 101.0784 
L 152.3199 99.2304 
L 152.6175 95.904 
L 152.9151 97.3824 
L 153.2127 95.904 
L 153.5103 95.1648 
L 153.8079 96.2736 
L 154.1055 92.9472 
L 154.4031 92.5776 
L 154.7007 92.5776 
L 154.9983 92.208 
L 155.2959 88.512 
L 155.5935 89.9904 
L 155.8911 89.2512 
L 156.1887 89.2512 
L 156.4863 89.9904 
L 156.7839 89.9904 
L 157.0815 89.9904 
L 157.3791 90.7296 
L 157.6767 89.9904 
L 157.9743 89.9904 
L 158.2719 92.9472 
L 158.5695 89.9904 
L 158.8671 89.9904 
L 159.1647 93.6864 
L 159.4623 89.9904 
L 159.7599 90.7296 
L 160.0575 92.9472 
L 160.3551 91.4688 
L 160.6527 91.0992 
L 160.9503 92.208 
L 161.2479 91.4688 
L 161.5455 91.4688 
L 161.8431 91.4688 
L 162.1407 89.6208 
L 162.4383 90.36 
L 162.7359 87.0336 
L 163.0335 90.7296 
L 163.3311 90.7296 
L 163.6287 89.2512 
L 163.9263 86.2944 
L 164.2239 86.2944 
L 164.5215 86.2944 
L 164.8191 88.512 
L 165.1167 84.0768 
L 165.4143 85.9248 
L 165.7119 85.9248 
L 166.0095 84.0768 
L 166.3071 84.0768 
L 166.6047 84.0768 
L 166.9023 84.0768 
L 167.1999 79.272 
L 167.4975 79.6416 
L 167.7951 79.272 
L 168.0927 79.6416 
L 168.3903 79.6416 
L 168.6879 78.9024 
L 168.9855 78.1632 
L 169.2831 79.6416 
L 169.5807 81.8592 
L 169.8783 80.3808 
L 170.1759 75.9456 
L 170.4735 80.3808 
L 170.7711 75.9456 
L 171.0687 72.2496 
L 171.3663 80.3808 
L 171.6639 75.2064 
L 171.9615 80.3808 
L 172.2591 75.9456 
L 172.5567 75.2064 
L 172.8543 75.2064 
L 173.1519 75.9456 
L 173.4495 75.2064 
L 173.7471 69.2928 
L 174.0447 74.0976 
L 174.3423 66.336 
L 174.6399 70.032 
L 174.9375 71.5104 
L 175.2351 71.5104 
L 175.5327 72.2496 
L 175.8303 74.4672 
L 176.1279 73.728 
L 176.4255 75.9456 
L 176.7231 74.4672 
L 177.0207 76.6848 
L 177.3183 70.4016 
L 177.6159 72.9888 
L 177.9135 68.5536 
L 178.2111 63.3792 
L 178.5087 65.5968 
L 178.8063 66.336 
L 179.1039 66.336 
L 179.4015 66.336 
L 179.6991 64.1184 
L 179.9967 67.8144 
L 180.2943 64.8576 
L 180.5919 65.2272 
L 180.8895 65.2272 
L 181.1871 62.2704 
L 181.4847 67.0752 
L 181.7823 61.9008 
L 182.0799 58.2048 
L 182.3775 59.6832 
L 182.6751 63.7488 
L 182.9727 62.64 
L 183.2703 58.2048 
L 183.5679 60.4224 
L 183.8655 62.64 
L 184.1631 57.4656 
L 184.4607 53.7696 
L 184.7583 54.8784 
L 185.0559 59.6832 
L 185.3535 55.6176 
L 185.6511 53.7696 
L 185.9487 56.7264 
L 186.2463 51.552 
L 186.5439 49.3344 
L 186.8415 50.0736 
L 187.1391 45.6384 
L 187.4367 49.704 
L 187.7343 48.5952 
L 188.0319 47.4864 
L 188.3295 43.0512 
L 188.6271 46.3776 
L 188.9247 42.6816 
L 189.2223 49.3344 
L 189.5199 44.8992 
L 189.8175 48.5952 
L 190.1151 47.856 
L 190.4127 44.16 
L 190.7103 47.856 
L 191.0079 44.8992 
L 191.3055 50.0736 
L 191.6031 44.8992 
L 191.9007 48.2256 
L 192.1983 47.856 
L 192.4959 46.3776 
L 192.7935 45.2688 
L 193.0911 46.3776 
L 193.3887 40.0944 
L 193.6863 39.7248 
L 193.9839 46.008 
L 194.2815 43.0512 
L 194.5791 43.0512 
L 194.8767 43.0512 
L 195.1743 41.2032 
L 195.4719 42.6816 
L 195.7695 38.2464 
L 196.0671 45.2688 
L 196.3647 39.7248 
L 196.6623 41.2032 
L 196.9599 40.8336 
L 197.2575 40.8336 
L 197.5551 43.4208 
L 197.8527 38.2464 
L 198.1503 41.5728 
L 198.4479 36.768 
L 198.7455 39.7248 
L 199.0431 37.5072 
L 199.3407 36.768 
L 199.6383 40.464 
L 199.9359 35.2896 
L 200.2335 38.9856 
L 200.5311 38.616 
L 200.8287 37.5072 
L 201.1263 40.8336 
L 201.4239 36.0288 
L 201.7215 34.5504 
L 202.0191 37.8768 
L 202.3167 34.1808 
L 202.6143 36.3984 
L 202.9119 33.8112 
L 203.2095 34.5504 
L 203.5071 33.072 
L 203.8047 33.4416 
L 204.1023 36.768 
L 204.3999 35.6592 
L 204.6975 33.4416 
L 204.9951 30.8544 
L 205.2927 33.8112 
L 205.5903 35.2896 
L 205.8879 33.8112 
L 206.1855 36.0288 
L 206.4831 34.5504 
L 206.7807 34.5504 
L 207.0783 30.8544 
L 207.3759 34.5504 
L 207.6735 33.072 
L 207.9711 34.92 
L 208.2687 36.0288 
L 208.5663 33.4416 
L 208.8639 34.5504 
L 209.1615 34.5504 
L 209.4591 34.92 
L 209.7567 36.0288 
L 210.0543 32.3328 
L 210.3519 33.072 
L 210.6495 31.5936 
L 210.9471 33.072 
L 211.2447 30.4848 
L 211.5423 32.7024 
L 211.8399 34.5504 
L 212.1375 32.3328 
L 212.4351 33.4416 
L 212.7327 31.224 
L 213.0303 32.7024 
L 213.3279 36.0288 
L 213.6255 28.6368 
L 213.9231 30.8544 
L 214.2207 32.3328 
L 214.5183 27.1584 
L 214.8159 30.4848 
L 215.1135 31.224 
L 215.4111 30.8544 
L 215.7087 30.8544 
L 216.0063 26.4192 
L 216.3039 29.0064 
L 216.6015 27.1584 
L 216.8991 27.528 
L 217.1967 24.2016 
L 217.4943 24.9408 
L 217.7919 25.68 
L 218.0895 25.68 
L 218.3871 27.8976 
L 218.6847 24.9408 
L 218.9823 24.9408 
L 219.2799 25.3104 
L 219.5775 26.0496 
L 219.8751 26.4192 
L 220.1727 24.9408 
L 220.4703 24.5712 
L 220.7679 24.9408 
L 221.0655 26.4192 
L 221.3631 24.9408 
L 221.6607 24.2016 
L 221.9583 24.9408 
L 222.2559 24.5712 
L 222.5535 26.4192 
L 222.8511 24.9408 
L 223.1487 19.7664 
L 223.4463 23.832 
L 223.7439 26.4192 
L 224.0415 25.68 
L 224.3391 24.5712 
L 224.6367 26.4192 
L 224.9343 24.9408 
L 225.2319 24.2016 
L 225.5295 23.832 
L 225.8271 19.7664 
L 226.1247 25.68 
L 226.4223 22.7232 
L 226.7199 21.2448 
L 227.0175 21.984 
L 227.3151 23.0928 
L 227.6127 21.6144 
L 227.9103 19.7664 
L 228.2079 21.2448 
L 228.5055 21.984 
L 228.8031 25.68 
L 229.1007 20.5056 
L 229.3983 21.984 
L 229.6959 21.2448 
L 229.9935 19.0272 
L 230.2911 19.0272 
L 230.5887 24.2016 
L 230.8863 18.288 
L 231.1839 20.8752 
L 231.4815 18.288 
L 231.7791 19.7664 
L 232.0767 19.7664 
L 232.3743 20.5056 
L 232.6719 20.136 
L 232.9695 20.5056 
L 233.2671 20.5056 
L 233.5647 21.2448 
L 233.8623 19.3968 
L 234.1599 15.3312 
L 234.4575 16.8096 
L 234.7551 12.744 
L 235.0527 13.4832 
L 235.3503 16.44 
L 235.6479 16.8096 
L 235.9455 14.9616 
L 236.2431 13.1136 
L 236.5407 14.2224 
L 236.8383 13.1136 
L 237.1359 16.0704 
L 237.4335 12.3744 
L 237.7311 13.1136 
L 238.0287 11.6352 
L 238.3263 12.3744 
L 238.6239 12.3744 
L 238.9215 12.3744 
L 239.2191 10.1568 
L 239.5167 13.8528 
L 239.8143 13.8528 
L 240.1119 10.1568 
L 240.4095 10.1568 
L 240.7071 11.2656 
L 241.0047 7.9392 
L 241.3023 10.5264 
L 241.5999 7.2 
L 241.8975 9.048 
L 242.1951 10.5264 
L 242.4927 7.9392 
L 242.7903 7.2 
L 243.0879 9.4176 
L 243.3855 7.9392 
L 243.6831 7.9392 
L 243.9807 7.9392 
L 244.2783 9.048 
L 244.5759 8.6784 
L 244.8735 7.9392 
L 245.1711 8.6784 
L 245.4687 9.4176 
L 245.7663 8.3088 
L 246.0639 7.9392 
L 246.3615 7.2 
L 246.6591 7.2 
L 246.9567 7.5696 
L 247.2543 6.4608 
L 247.5519 5.7216 
L 247.8495 7.9392 
L 248.1471 6.4608 
L 248.4447 7.2 
L 248.7423 6.4608 
L 249.0399 7.9392 
L 249.3375 7.2 
L 249.6351 8.6784 
L 249.9327 7.5696 
L 250.2303 7.9392 
L 250.5279 5.7216 
L 250.8255 9.048 
L 251.1231 7.2 
L 251.4207 6.8304 
L 251.7183 8.6784 
L 252.0159 8.6784 
L 252.3135 7.9392 
L 252.6111 6.8304 
L 252.9087 7.2 
L 253.2063 9.4176 
L 253.5039 9.4176 
L 253.8015 7.9392 
L 254.0991 7.9392 
L 254.3967 9.048 
L 254.6943 7.9392 
L 254.9919 8.6784 
L 255.2895 8.6784 
L 255.5871 8.6784 
L 255.8847 8.6784 
L 256.1823 7.9392 
L 256.4799 7.9392 
L 256.4799 25.68 
L 256.4799 25.68 
L 256.1823 24.2016 
L 255.8847 23.4624 
L 255.5871 23.4624 
L 255.2895 23.4624 
L 254.9919 23.4624 
L 254.6943 25.68 
L 254.3967 25.3104 
L 254.0991 25.68 
L 253.8015 25.68 
L 253.5039 24.2016 
L 253.2063 21.2448 
L 252.9087 24.9408 
L 252.6111 30.4848 
L 252.3135 28.6368 
L 252.0159 23.4624 
L 251.7183 26.4192 
L 251.4207 31.9632 
L 251.1231 27.8976 
L 250.8255 28.2672 
L 250.5279 35.2896 
L 250.2303 28.6368 
L 249.9327 32.7024 
L 249.6351 32.3328 
L 249.3375 30.8544 
L 249.0399 31.5936 
L 248.7423 33.072 
L 248.4447 33.8112 
L 248.1471 31.5936 
L 247.8495 31.5936 
L 247.5519 35.2896 
L 247.2543 36.0288 
L 246.9567 32.7024 
L 246.6591 33.8112 
L 246.3615 32.3328 
L 246.0639 34.5504 
L 245.7663 33.4416 
L 245.4687 33.072 
L 245.1711 35.2896 
L 244.8735 37.5072 
L 244.5759 35.2896 
L 244.2783 40.0944 
L 243.9807 34.5504 
L 243.6831 34.5504 
L 243.3855 31.5936 
L 243.0879 33.072 
L 242.7903 38.2464 
L 242.4927 37.5072 
L 242.1951 41.5728 
L 241.8975 40.0944 
L 241.5999 36.768 
L 241.3023 35.6592 
L 241.0047 40.464 
L 240.7071 39.3552 
L 240.4095 42.6816 
L 240.1119 42.6816 
L 239.8143 40.464 
L 239.5167 40.464 
L 239.2191 39.7248 
L 238.9215 41.9424 
L 238.6239 41.9424 
L 238.3263 41.9424 
L 238.0287 44.16 
L 237.7311 39.7248 
L 237.4335 41.9424 
L 237.1359 39.7248 
L 236.8383 45.6384 
L 236.5407 43.7904 
L 236.2431 47.1168 
L 235.9455 46.008 
L 235.6479 43.4208 
L 235.3503 41.5728 
L 235.0527 44.5296 
L 234.7551 46.7472 
L 234.4575 43.4208 
L 234.1599 46.3776 
L 233.8623 46.008 
L 233.5647 41.9424 
L 233.2671 44.16 
L 232.9695 44.16 
L 232.6719 45.2688 
L 232.3743 44.16 
L 232.0767 46.3776 
L 231.7791 46.3776 
L 231.4815 44.8992 
L 231.1839 46.008 
L 230.8863 44.8992 
L 230.5887 44.8992 
L 230.2911 48.5952 
L 229.9935 51.552 
L 229.6959 47.856 
L 229.3983 47.1168 
L 229.1007 45.6384 
L 228.8031 46.3776 
L 228.5055 45.6384 
L 228.2079 47.856 
L 227.9103 46.3776 
L 227.6127 48.2256 
L 227.3151 48.2256 
L 227.0175 48.5952 
L 226.7199 47.856 
L 226.4223 47.856 
L 226.1247 46.3776 
L 225.8271 53.7696 
L 225.5295 48.9648 
L 225.2319 53.7696 
L 224.9343 48.5952 
L 224.6367 47.1168 
L 224.3391 52.6608 
L 224.0415 49.3344 
L 223.7439 48.5952 
L 223.4463 54.8784 
L 223.1487 55.248 
L 222.8511 54.5088 
L 222.5535 47.1168 
L 222.2559 51.1824 
L 221.9583 53.0304 
L 221.6607 53.7696 
L 221.3631 54.5088 
L 221.0655 53.0304 
L 220.7679 54.5088 
L 220.4703 55.6176 
L 220.1727 60.4224 
L 219.8751 55.9872 
L 219.5775 55.6176 
L 219.2799 59.3136 
L 218.9823 57.4656 
L 218.6847 57.4656 
L 218.3871 54.5088 
L 218.0895 58.2048 
L 217.7919 58.2048 
L 217.4943 57.4656 
L 217.1967 59.6832 
L 216.8991 58.5744 
L 216.6015 59.6832 
L 216.3039 57.096 
L 216.0063 58.944 
L 215.7087 60.4224 
L 215.4111 57.4656 
L 215.1135 62.2704 
L 214.8159 58.5744 
L 214.5183 58.2048 
L 214.2207 61.9008 
L 213.9231 61.9008 
L 213.6255 59.6832 
L 213.3279 59.6832 
L 213.0303 60.792 
L 212.7327 62.2704 
L 212.4351 58.5744 
L 212.1375 61.9008 
L 211.8399 61.1616 
L 211.5423 60.792 
L 211.2447 61.5312 
L 210.9471 62.64 
L 210.6495 64.1184 
L 210.3519 61.1616 
L 210.0543 61.9008 
L 209.7567 59.6832 
L 209.4591 61.5312 
L 209.1615 67.0752 
L 208.8639 61.1616 
L 208.5663 65.9664 
L 208.2687 62.64 
L 207.9711 63.0096 
L 207.6735 62.64 
L 207.3759 67.0752 
L 207.0783 64.8576 
L 206.7807 67.0752 
L 206.4831 67.0752 
L 206.1855 65.5968 
L 205.8879 66.336 
L 205.5903 66.336 
L 205.2927 66.336 
L 204.9951 66.336 
L 204.6975 67.4448 
L 204.3999 65.2272 
L 204.1023 66.336 
L 203.8047 71.88 
L 203.5071 68.5536 
L 203.2095 67.0752 
L 202.9119 69.2928 
L 202.6143 67.4448 
L 202.3167 69.6624 
L 202.0191 68.9232 
L 201.7215 72.9888 
L 201.4239 71.5104 
L 201.1263 68.9232 
L 200.8287 75.9456 
L 200.5311 72.6192 
L 200.2335 72.9888 
L 199.9359 73.728 
L 199.6383 72.9888 
L 199.3407 76.6848 
L 199.0431 75.9456 
L 198.7455 75.2064 
L 198.4479 75.2064 
L 198.1503 75.576 
L 197.8527 75.2064 
L 197.5551 77.424 
L 197.2575 76.3152 
L 196.9599 76.3152 
L 196.6623 76.6848 
L 196.3647 81.12 
L 196.0671 73.3584 
L 195.7695 78.1632 
L 195.4719 78.1632 
L 195.1743 79.6416 
L 194.8767 78.5328 
L 194.5791 78.5328 
L 194.2815 78.5328 
L 193.9839 77.0544 
L 193.6863 82.5984 
L 193.3887 82.968 
L 193.0911 75.9456 
L 192.7935 82.2288 
L 192.4959 78.9024 
L 192.1983 77.424 
L 191.9007 79.272 
L 191.6031 80.3808 
L 191.3055 76.6848 
L 191.0079 80.3808 
L 190.7103 81.8592 
L 190.4127 85.5552 
L 190.1151 80.3808 
L 189.8175 81.12 
L 189.5199 86.2944 
L 189.2223 84.816 
L 188.9247 88.512 
L 188.6271 89.2512 
L 188.3295 91.8384 
L 188.0319 90.36 
L 187.7343 87.0336 
L 187.4367 89.6208 
L 187.1391 89.9904 
L 186.8415 91.4688 
L 186.5439 93.6864 
L 186.2463 92.9472 
L 185.9487 92.208 
L 185.6511 95.1648 
L 185.3535 92.5776 
L 185.0559 92.208 
L 184.7583 97.752 
L 184.4607 98.1216 
L 184.1631 95.904 
L 183.8655 95.1648 
L 183.5679 97.3824 
L 183.2703 96.6432 
L 182.9727 96.6432 
L 182.6751 94.7952 
L 182.3775 99.6 
L 182.0799 101.0784 
L 181.7823 97.3824 
L 181.4847 96.6432 
L 181.1871 99.2304 
L 180.8895 99.2304 
L 180.5919 99.2304 
L 180.2943 100.3392 
L 179.9967 97.3824 
L 179.6991 101.0784 
L 179.4015 98.8608 
L 179.1039 98.8608 
L 178.8063 98.8608 
L 178.5087 99.6 
L 178.2111 101.8176 
L 177.9135 98.1216 
L 177.6159 99.6 
L 177.3183 99.9696 
L 177.0207 97.3824 
L 176.7231 99.6 
L 176.4255 98.1216 
L 176.1279 100.3392 
L 175.8303 99.6 
L 175.5327 101.8176 
L 175.2351 102.5568 
L 174.9375 102.5568 
L 174.6399 104.0352 
L 174.3423 107.7312 
L 174.0447 103.6656 
L 173.7471 104.7744 
L 173.4495 104.7744 
L 173.1519 105.5136 
L 172.8543 106.2528 
L 172.5567 106.2528 
L 172.2591 105.5136 
L 171.9615 104.0352 
L 171.6639 109.2096 
L 171.3663 104.0352 
L 171.0687 112.1664 
L 170.7711 108.4704 
L 170.4735 104.0352 
L 170.1759 108.4704 
L 169.8783 104.0352 
L 169.5807 102.5568 
L 169.2831 109.2096 
L 168.9855 110.688 
L 168.6879 111.4272 
L 168.3903 109.2096 
L 168.0927 112.1664 
L 167.7951 113.2752 
L 167.4975 109.2096 
L 167.1999 111.7968 
L 166.9023 110.688 
L 166.6047 110.688 
L 166.3071 110.688 
L 166.0095 110.688 
L 165.7119 111.0576 
L 165.4143 111.0576 
L 165.1167 112.1664 
L 164.8191 110.688 
L 164.5215 112.9056 
L 164.2239 112.9056 
L 163.9263 114.384 
L 163.6287 109.9488 
L 163.3311 111.4272 
L 163.0335 111.4272 
L 162.7359 113.6448 
L 162.4383 112.536 
L 162.1407 111.7968 
L 161.8431 115.1232 
L 161.5455 115.1232 
L 161.2479 115.1232 
L 160.9503 115.8624 
L 160.6527 116.232 
L 160.3551 116.6016 
L 160.0575 115.1232 
L 159.7599 117.3408 
L 159.4623 119.5584 
L 159.1647 114.384 
L 158.8671 119.5584 
L 158.5695 119.5584 
L 158.2719 116.6016 
L 157.9743 119.5584 
L 157.6767 119.5584 
L 157.3791 118.8192 
L 157.0815 119.5584 
L 156.7839 119.5584 
L 156.4863 119.5584 
L 156.1887 121.776 
L 155.8911 121.776 
L 155.5935 119.5584 
L 155.2959 123.9936 
L 154.9983 124.7328 
L 154.7007 123.624 
L 154.4031 123.624 
L 154.1055 125.472 
L 153.8079 124.3632 
L 153.5103 129.168 
L 153.2127 131.3856 
L 152.9151 129.9072 
L 152.6175 131.3856 
L 152.3199 130.2768 
L 152.0223 130.6464 
L 151.7247 131.3856 
L 151.4271 131.3856 
L 151.1295 132.1248 
L 150.8319 129.9072 
L 150.5343 127.6896 
L 150.2367 129.9072 
L 149.9391 130.6464 
L 149.6415 129.168 
L 149.3439 129.9072 
L 149.0463 129.9072 
L 148.7487 128.7984 
L 148.4511 127.6896 
L 148.1535 128.4288 
L 147.8559 126.9504 
L 147.5583 130.6464 
L 147.2607 131.3856 
L 146.9631 128.7984 
L 146.6655 133.6032 
L 146.3679 128.0592 
L 146.0703 130.2768 
L 145.7727 133.6032 
L 145.4751 134.3424 
L 145.1775 134.3424 
L 144.8799 136.56 
L 144.5823 133.6032 
L 144.2847 136.56 
L 143.9871 135.8208 
L 143.6895 136.56 
L 143.3919 136.56 
L 143.0943 134.712 
L 142.7967 136.1904 
L 142.4991 134.3424 
L 142.2015 134.3424 
L 141.9039 135.4512 
L 141.6063 134.3424 
L 141.3087 138.7776 
L 141.0111 138.7776 
L 140.7135 138.7776 
L 140.4159 138.7776 
L 140.1183 138.0384 
L 139.8207 138.7776 
L 139.5231 138.7776 
L 139.2255 138.7776 
L 138.9279 138.7776 
L 138.6303 138.7776 
L 138.3327 137.2992 
L 138.0351 137.2992 
L 137.7375 138.408 
L 137.4399 138.7776 
L 137.1423 139.1472 
L 136.8447 138.408 
L 136.5471 139.1472 
L 136.2495 138.7776 
L 135.9519 138.0384 
L 135.6543 139.8864 
L 135.3567 138.7776 
L 135.0591 139.5168 
L 134.7615 139.8864 
L 134.4639 139.5168 
L 134.1663 139.5168 
L 133.8687 138.7776 
L 133.5711 140.9952 
L 133.2735 140.256 
L 132.9759 140.256 
L 132.6783 138.7776 
L 132.3807 140.256 
L 132.0831 140.256 
L 131.7855 140.256 
L 131.4879 140.9952 
L 131.1903 140.9952 
L 130.8927 140.256 
L 130.5951 140.256 
L 130.2975 142.4736 
L 129.9999 141.3648 
L 129.7023 142.4736 
L 129.4047 142.4736 
L 129.1071 141.3648 
L 128.8095 142.4736 
L 128.5119 143.2128 
L 128.2143 145.4304 
L 127.9167 144.6912 
L 127.6191 143.2128 
L 127.3215 146.5392 
L 127.0239 145.4304 
L 126.7263 148.3872 
L 126.4287 145.4304 
L 126.1311 146.9088 
L 125.8335 145.4304 
L 125.5359 146.5392 
L 125.2383 147.648 
L 124.9407 146.9088 
L 124.6431 146.9088 
L 124.3455 149.1264 
L 124.0479 150.6048 
L 123.7503 149.1264 
L 123.4527 147.648 
L 123.1551 149.1264 
L 122.8575 148.3872 
L 122.5599 150.2352 
L 122.2623 150.6048 
L 121.9647 150.6048 
L 121.6671 149.496 
L 121.3695 149.8656 
L 121.0719 149.1264 
L 120.7743 149.8656 
L 120.4767 148.3872 
L 120.1791 149.8656 
L 119.8815 149.8656 
L 119.5839 149.8656 
L 119.2863 149.1264 
L 118.9887 151.7136 
L 118.6911 152.4528 
L 118.3935 149.8656 
L 118.0959 152.0832 
L 117.7983 151.344 
L 117.5007 152.0832 
L 117.2031 152.0832 
L 116.9055 150.6048 
L 116.6079 152.0832 
L 116.3103 152.0832 
L 116.0127 151.344 
L 115.7151 151.344 
L 115.4175 152.0832 
L 115.1199 152.0832 
L 114.8223 150.6048 
L 114.5247 152.0832 
L 114.2271 152.0832 
L 113.9295 152.0832 
L 113.6319 153.5616 
L 113.3343 152.0832 
L 113.0367 154.3008 
L 112.7391 155.04 
L 112.4415 157.2576 
L 112.1439 156.888 
L 111.8463 157.2576 
L 111.5487 157.2576 
L 111.2511 157.9968 
L 110.9535 159.8448 
L 110.6559 157.2576 
L 110.3583 159.1056 
L 110.0607 159.4752 
L 109.7631 157.9968 
L 109.4655 160.9536 
L 109.1679 159.4752 
L 108.8703 160.2144 
L 108.5727 160.2144 
L 108.2751 162.432 
L 107.9775 162.432 
L 107.6799 162.432 
L 107.3823 163.9104 
L 107.0847 166.128 
L 106.7871 165.0192 
L 106.4895 165.0192 
L 106.1919 164.6496 
L 105.8943 164.28 
L 105.5967 165.3888 
L 105.2991 167.6064 
L 105.0015 166.128 
L 104.7039 165.7584 
L 104.4063 166.4976 
L 104.1087 167.6064 
L 103.8111 169.0848 
L 103.5135 166.128 
L 103.2159 167.6064 
L 102.9183 167.6064 
L 102.6207 166.128 
L 102.3231 169.0848 
L 102.0255 167.6064 
L 101.7279 166.8672 
L 101.4303 170.5632 
L 101.1327 169.0848 
L 100.8351 166.8672 
L 100.5375 166.8672 
L 100.2399 169.0848 
L 99.9423 167.6064 
L 99.6447 167.6064 
L 99.3471 167.6064 
L 99.0495 167.6064 
L 98.7519 168.3456 
L 98.4543 169.0848 
L 98.1567 167.6064 
L 97.8591 169.0848 
L 97.5615 169.824 
L 97.2639 169.0848 
L 96.9663 170.5632 
L 96.6687 169.824 
L 96.3711 171.3024 
L 96.0735 169.824 
L 95.7759 169.824 
L 95.4783 171.3024 
L 95.1807 169.824 
L 94.8831 169.824 
L 94.5855 170.5632 
L 94.2879 170.9328 
L 93.9903 171.3024 
L 93.6927 171.3024 
L 93.3951 172.4112 
L 93.0975 172.0416 
L 92.7999 174.2592 
L 92.5023 172.7808 
L 92.2047 174.2592 
L 91.9071 174.2592 
L 91.6095 174.9984 
L 91.3119 174.2592 
L 91.0143 174.9984 
L 90.7167 177.216 
L 90.4191 177.216 
L 90.1215 177.9552 
L 89.8239 176.8464 
L 89.5263 178.6944 
L 89.2287 177.9552 
L 88.9311 180.1728 
L 88.6335 182.76 
L 88.3359 183.1296 
L 88.0383 183.1296 
L 87.7407 183.1296 
L 87.4431 184.608 
L 87.1455 186.0864 
L 86.8479 186.8256 
L 86.5503 186.0864 
L 86.2527 186.456 
L 85.9551 186.8256 
L 85.6575 186.456 
L 85.3599 185.7168 
L 85.0623 185.3472 
L 84.7647 187.5648 
L 84.4671 186.8256 
L 84.1695 186.0864 
L 83.8719 187.5648 
L 83.5743 186.8256 
L 83.2767 189.0432 
L 82.9791 187.5648 
L 82.6815 189.7824 
L 82.3839 186.8256 
L 82.0863 186.8256 
L 81.7887 186.8256 
L 81.4911 186.8256 
L 81.1935 187.9344 
L 80.8959 189.0432 
L 80.5983 189.0432 
L 80.3007 191.2608 
L 80.0031 191.2608 
L 79.7055 190.152 
L 79.4079 192.3696 
L 79.1103 191.2608 
L 78.8127 194.2176 
L 78.5151 194.9568 
L 78.2175 194.9568 
L 77.9199 193.4784 
L 77.6223 194.9568 
L 77.3247 193.4784 
L 77.0271 194.9568 
L 76.7295 194.9568 
L 76.4319 194.5872 
L 76.1343 195.696 
L 75.8367 194.9568 
L 75.5391 193.4784 
L 75.2415 194.9568 
L 74.9439 194.9568 
L 74.6463 194.9568 
L 74.3487 194.9568 
L 74.0511 196.4352 
L 73.7535 194.2176 
L 73.4559 196.0656 
L 73.1583 195.3264 
L 72.8607 194.9568 
L 72.5631 194.9568 
L 72.2655 196.0656 
L 71.9679 196.4352 
L 71.6703 195.696 
L 71.3727 194.9568 
L 71.0751 196.4352 
L 70.7775 194.9568 
L 70.4799 194.9568 
L 70.1823 194.9568 
L 69.8847 194.9568 
L 69.5871 194.9568 
L 69.2895 195.696 
L 68.9919 195.696 
L 68.6943 195.696 
L 68.3967 195.696 
L 68.0991 196.4352 
L 67.8015 196.4352 
L 67.5039 197.9136 
L 67.2063 198.6528 
L 66.9087 198.6528 
L 66.6111 198.6528 
L 66.3135 200.1312 
L 66.0159 199.392 
L 65.7183 200.8704 
L 65.4207 200.8704 
L 65.1231 200.8704 
L 64.8255 199.392 
L 64.5279 199.392 
L 64.2303 200.8704 
L 63.9327 199.392 
L 63.6351 200.8704 
L 63.3375 200.8704 
L 63.0399 200.8704 
L 62.7423 203.088 
L 62.4447 203.8272 
L 62.1471 203.8272 
L 61.8495 203.8272 
L 61.5519 206.0448 
L 61.2543 204.5664 
L 60.9567 203.088 
L 60.6591 203.088 
L 60.3615 203.088 
L 60.0639 203.088 
L 59.7663 203.8272 
L 59.4687 203.8272 
L 59.1711 205.3056 
L 58.8735 203.8272 
L 58.5759 204.5664 
L 58.2783 204.5664 
L 57.9807 205.3056 
L 57.6831 204.5664 
L 57.3855 204.5664 
L 57.0879 206.784 
L 56.7903 206.784 
L 56.4927 209.0016 
L 56.1951 207.5232 
L 55.8975 209.7408 
L 55.5999 208.2624 
L 55.3023 208.2624 
L 55.0047 209.7408 
L 54.7071 209.7408 
L 54.4095 208.2624 
L 54.1119 209.7408 
L 53.8143 209.0016 
L 53.5167 209.0016 
L 53.2191 210.8496 
L 52.9215 211.9584 
L 52.6239 211.9584 
L 52.3263 211.9584 
L 52.0287 213.0672 
L 51.7311 211.9584 
L 51.4335 214.176 
L 51.1359 214.176 
L 50.8383 212.6976 
L 50.5407 212.6976 
L 50.2431 212.6976 
L 49.9455 212.6976 
L 49.6479 214.176 
L 49.3503 214.176 
L 49.0527 212.6976 
L 48.7551 214.176 
L 48.4575 214.9152 
L 48.1599 214.9152 
L 47.8623 214.9152 
L 47.5647 214.176 
L 47.2671 214.9152 
L 46.9695 214.176 
L 46.6719 216.3936 
L 46.3743 215.6544 
L 46.0767 216.7632 
L 45.7791 215.6544 
L 45.4815 217.1328 
L 45.1839 217.1328 
L 44.8863 216.3936 
L 44.5887 216.7632 
L 44.2911 217.1328 
L 43.9935 219.3504 
L 43.6959 220.0896 
L 43.3983 219.3504 
L 43.1007 219.3504 
L 42.8031 220.0896 
L 42.5055 220.4592 
z
" clip-path="url(#pc9da41a7dc)" style="fill: #1fa188; fill-opacity: 0.3"/>
   </g>
   <g id="matplotlib.axis_1">
    <g id="xtick_1">
     <g id="line2d_1">
      <defs>
       <path id="m867c112a8d" d="M 0 0 
L 0 3.5 
" style="stroke: #000000; stroke-width: 0.8"/>
      </defs>
      <g>
       <use xlink:href="#m867c112a8d" x="33.5775" y="228.96" style="stroke: #000000; stroke-width: 0.8"/>
      </g>
     </g>
     <g id="text_1">
      <text style="font: 6px 'DejaVu Sans', 'Bitstream Vera Sans', 'Computer Modern Sans Serif', 'Lucida Grande', 'Verdana', 'Geneva', 'Lucid', 'Arial', 'Helvetica', 'Avant Garde', sans-serif; text-anchor: middle" x="33.5775" y="240.519062" transform="rotate(-0 33.5775 240.519062)">0</text>
     </g>
    </g>
    <g id="xtick_2">
     <g id="line2d_2">
      <g>
       <use xlink:href="#m867c112a8d" x="69.2895" y="228.96" style="stroke: #000000; stroke-width: 0.8"/>
      </g>
     </g>
     <g id="text_2">
      <text style="font: 6px 'DejaVu Sans', 'Bitstream Vera Sans', 'Computer Modern Sans Serif', 'Lucida Grande', 'Verdana', 'Geneva', 'Lucid', 'Arial', 'Helvetica', 'Avant Garde', sans-serif; text-anchor: middle" x="69.2895" y="240.519062" transform="rotate(-0 69.2895 240.519062)">4</text>
     </g>
    </g>
    <g id="xtick_3">
     <g id="line2d_3">
      <g>
       <use xlink:href="#m867c112a8d" x="105.0015" y="228.96" style="stroke: #000000; stroke-width: 0.8"/>
      </g>
     </g>
     <g id="text_3">
      <text style="font: 6px 'DejaVu Sans', 'Bitstream Vera Sans', 'Computer Modern Sans Serif', 'Lucida Grande', 'Verdana', 'Geneva', 'Lucid', 'Arial', 'Helvetica', 'Avant Garde', sans-serif; text-anchor: middle" x="105.0015" y="240.519062" transform="rotate(-0 105.0015 240.519062)">8</text>
     </g>
    </g>
    <g id="xtick_4">
     <g id="line2d_4">
      <g>
       <use xlink:href="#m867c112a8d" x="140.7135" y="228.96" style="stroke: #000000; stroke-width: 0.8"/>
      </g>
     </g>
     <g id="text_4">
      <text style="font: 6px 'DejaVu Sans', 'Bitstream Vera Sans', 'Computer Modern Sans Serif', 'Lucida Grande', 'Verdana', 'Geneva', 'Lucid', 'Arial', 'Helvetica', 'Avant Garde', sans-serif; text-anchor: middle" x="140.7135" y="240.519062" transform="rotate(-0 140.7135 240.519062)">12</text>
     </g>
    </g>
    <g id="xtick_5">
     <g id="line2d_5">
      <g>
       <use xlink:href="#m867c112a8d" x="176.4255" y="228.96" style="stroke: #000000; stroke-width: 0.8"/>
      </g>
     </g>
     <g id="text_5">
      <text style="font: 6px 'DejaVu Sans', 'Bitstream Vera Sans', 'Computer Modern Sans Serif', 'Lucida Grande', 'Verdana', 'Geneva', 'Lucid', 'Arial', 'Helvetica', 'Avant Garde', sans-serif; text-anchor: middle" x="176.4255" y="240.519062" transform="rotate(-0 176.4255 240.519062)">16</text>
     </g>
    </g>
    <g id="xtick_6">
     <g id="line2d_6">
      <g>
       <use xlink:href="#m867c112a8d" x="212.1375" y="228.96" style="stroke: #000000; stroke-width: 0.8"/>
      </g>
     </g>
     <g id="text_6">
      <text style="font: 6px 'DejaVu Sans', 'Bitstream Vera Sans', 'Computer Modern Sans Serif', 'Lucida Grande', 'Verdana', 'Geneva', 'Lucid', 'Arial', 'Helvetica', 'Avant Garde', sans-serif; text-anchor: middle" x="212.1375" y="240.519062" transform="rotate(-0 212.1375 240.519062)">20</text>
     </g>
    </g>
    <g id="xtick_7">
     <g id="line2d_7">
      <g>
       <use xlink:href="#m867c112a8d" x="247.8495" y="228.96" style="stroke: #000000; stroke-width: 0.8"/>
      </g>
     </g>
     <g id="text_7">
      <text style="font: 6px 'DejaVu Sans', 'Bitstream Vera Sans', 'Computer Modern Sans Serif', 'Lucida Grande', 'Verdana', 'Geneva', 'Lucid', 'Arial', 'Helvetica', 'Avant Garde', sans-serif; text-anchor: middle" x="247.8495" y="240.519062" transform="rotate(-0 247.8495 240.519062)">24</text>
     </g>
    </g>
    <g id="text_8">
     <text style="font: 8px 'DejaVu Sans', 'Bitstream Vera Sans', 'Computer Modern Sans Serif', 'Lucida Grande', 'Verdana', 'Geneva', 'Lucid', 'Arial', 'Helvetica', 'Avant Garde', sans-serif; text-anchor: middle" x="145.1775" y="251.845625" transform="rotate(-0 145.1775 251.845625)">Experimental time (hpf)</text>
    </g>
   </g>
   <g id="matplotlib.axis_2">
    <g id="ytick_1">
     <g id="line2d_8">
      <defs>
       <path id="m55df30dcaa" d="M 0 0 
L -3.5 0 
" style="stroke: #000000; stroke-width: 0.8"/>
      </defs>
      <g>
       <use xlink:href="#m55df30dcaa" x="33.5775" y="228.96" style="stroke: #000000; stroke-width: 0.8"/>
      </g>
     </g>
     <g id="text_9">
      <text style="font: 6px 'DejaVu Sans', 'Bitstream Vera Sans', 'Computer Modern Sans Serif', 'Lucida Grande', 'Verdana', 'Geneva', 'Lucid', 'Arial', 'Helvetica', 'Avant Garde', sans-serif; text-anchor: end" x="26.5775" y="231.239531" transform="rotate(-0 26.5775 231.239531)">0</text>
     </g>
    </g>
    <g id="ytick_2">
     <g id="line2d_9">
      <g>
       <use xlink:href="#m55df30dcaa" x="33.5775" y="193.4784" style="stroke: #000000; stroke-width: 0.8"/>
      </g>
     </g>
     <g id="text_10">
      <text style="font: 6px 'DejaVu Sans', 'Bitstream Vera Sans', 'Computer Modern Sans Serif', 'Lucida Grande', 'Verdana', 'Geneva', 'Lucid', 'Arial', 'Helvetica', 'Avant Garde', sans-serif; text-anchor: end" x="26.5775" y="195.757931" transform="rotate(-0 26.5775 195.757931)">4</text>
     </g>
    </g>
    <g id="ytick_3">
     <g id="line2d_10">
      <g>
       <use xlink:href="#m55df30dcaa" x="33.5775" y="157.9968" style="stroke: #000000; stroke-width: 0.8"/>
      </g>
     </g>
     <g id="text_11">
      <text style="font: 6px 'DejaVu Sans', 'Bitstream Vera Sans', 'Computer Modern Sans Serif', 'Lucida Grande', 'Verdana', 'Geneva', 'Lucid', 'Arial', 'Helvetica', 'Avant Garde', sans-serif; text-anchor: end" x="26.5775" y="160.276331" transform="rotate(-0 26.5775 160.276331)">8</text>
     </g>
    </g>
    <g id="ytick_4">
     <g id="line2d_11">
      <g>
       <use xlink:href="#m55df30dcaa" x="33.5775" y="122.5152" style="stroke: #000000; stroke-width: 0.8"/>
      </g>
     </g>
     <g id="text_12">
      <text style="font: 6px 'DejaVu Sans', 'Bitstream Vera Sans', 'Computer Modern Sans Serif', 'Lucida Grande', 'Verdana', 'Geneva', 'Lucid', 'Arial', 'Helvetica', 'Avant Garde', sans-serif; text-anchor: end" x="26.5775" y="124.794731" transform="rotate(-0 26.5775 124.794731)">12</text>
     </g>
    </g>
    <g id="ytick_5">
     <g id="line2d_12">
      <g>
       <use xlink:href="#m55df30dcaa" x="33.5775" y="87.0336" style="stroke: #000000; stroke-width: 0.8"/>
      </g>
     </g>
     <g id="text_13">
      <text style="font: 6px 'DejaVu Sans', 'Bitstream Vera Sans', 'Computer Modern Sans Serif', 'Lucida Grande', 'Verdana', 'Geneva', 'Lucid', 'Arial', 'Helvetica', 'Avant Garde', sans-serif; text-anchor: end" x="26.5775" y="89.313131" transform="rotate(-0 26.5775 89.313131)">16</text>
     </g>
    </g>
    <g id="ytick_6">
     <g id="line2d_13">
      <g>
       <use xlink:href="#m55df30dcaa" x="33.5775" y="51.552" style="stroke: #000000; stroke-width: 0.8"/>
      </g>
     </g>
     <g id="text_14">
      <text style="font: 6px 'DejaVu Sans', 'Bitstream Vera Sans', 'Computer Modern Sans Serif', 'Lucida Grande', 'Verdana', 'Geneva', 'Lucid', 'Arial', 'Helvetica', 'Avant Garde', sans-serif; text-anchor: end" x="26.5775" y="53.831531" transform="rotate(-0 26.5775 53.831531)">20</text>
     </g>
    </g>
    <g id="ytick_7">
     <g id="line2d_14">
      <g>
       <use xlink:href="#m55df30dcaa" x="33.5775" y="16.0704" style="stroke: #000000; stroke-width: 0.8"/>
      </g>
     </g>
     <g id="text_15">
      <text style="font: 6px 'DejaVu Sans', 'Bitstream Vera Sans', 'Computer Modern Sans Serif', 'Lucida Grande', 'Verdana', 'Geneva', 'Lucid', 'Arial', 'Helvetica', 'Avant Garde', sans-serif; text-anchor: end" x="26.5775" y="18.349931" transform="rotate(-0 26.5775 18.349931)">24</text>
     </g>
    </g>
    <g id="text_16">
     <text style="font: 8px 'DejaVu Sans', 'Bitstream Vera Sans', 'Computer Modern Sans Serif', 'Lucida Grande', 'Verdana', 'Geneva', 'Lucid', 'Arial', 'Helvetica', 'Avant Garde', sans-serif; text-anchor: middle" x="13.27875" y="118.08" transform="rotate(-90 13.27875 118.08)">Developmental age (hpf)</text>
    </g>
   </g>
   <g id="line2d_15">
    <path d="M 42.5055 220.0896 
L 256.7775 7.185388 
L 256.7775 7.185388 
" clip-path="url(#pc9da41a7dc)" style="fill: none; stroke: #1fa188; stroke-linecap: square"/>
   </g>
   <g id="line2d_16">
    <path d="M 42.5055 220.0896 
L 256.7775 9.095017 
L 256.7775 9.095017 
" clip-path="url(#pc9da41a7dc)" style="fill: none; stroke-dasharray: 3.7,1.6; stroke-dashoffset: 0; stroke: #1fa188"/>
   </g>
   <g id="line2d_17">
    <path d="M 42.5055 220.0896 
L 256.7775 5.379578 
L 256.7775 5.379578 
" clip-path="url(#pc9da41a7dc)" style="fill: none; stroke-dasharray: 3.7,1.6; stroke-dashoffset: 0; stroke: #1fa188"/>
   </g>
   <g id="patch_3">
    <path d="M 33.5775 228.96 
L 33.5775 7.2 
" style="fill: none; stroke: #000000; stroke-width: 0.8; stroke-linejoin: miter; stroke-linecap: square"/>
   </g>
   <g id="patch_4">
    <path d="M 33.5775 228.96 
L 256.7775 228.96 
" style="fill: none; stroke: #000000; stroke-width: 0.8; stroke-linejoin: miter; stroke-linecap: square"/>
   </g>
   <g id="legend_1">
    <g id="patch_5">
     <path d="M 37.6305 28.829269 
L 196.698989 28.829269 
Q 197.856989 28.829269 197.856989 27.671269 
L 197.856989 11.253 
Q 197.856989 10.095 196.698989 10.095 
L 37.6305 10.095 
Q 36.4725 10.095 36.4725 11.253 
L 36.4725 27.671269 
Q 36.4725 28.829269 37.6305 28.829269 
z
" style="fill: #ffffff; opacity: 0.8; stroke: #cccccc; stroke-linejoin: miter"/>
    </g>
    <g id="line2d_18">
     <path d="M 38.7885 14.783995 
L 44.5785 14.783995 
L 50.3685 14.783995 
" style="fill: none; stroke: #1fa188; stroke-linecap: square"/>
    </g>
    <g id="text_17">
     <text style="font: 5.79px 'DejaVu Sans', 'Bitstream Vera Sans', 'Computer Modern Sans Serif', 'Lucida Grande', 'Verdana', 'Geneva', 'Lucid', 'Arial', 'Helvetica', 'Avant Garde', sans-serif; text-anchor: start" x="55.0005" y="16.810495" transform="rotate(-0 55.0005 16.810495)">Linear fit: slope=1.000 [0.991,1.009], R2=0.987</text>
    </g>
    <g id="patch_6">
     <path d="M 38.7885 25.30913 
L 50.3685 25.30913 
L 50.3685 21.25613 
L 38.7885 21.25613 
z
" style="fill: #1fa188; fill-opacity: 0.3"/>
    </g>
    <g id="text_18">
     <text style="font: 5.79px 'DejaVu Sans', 'Bitstream Vera Sans', 'Computer Modern Sans Serif', 'Lucida Grande', 'Verdana', 'Geneva', 'Lucid', 'Arial', 'Helvetica', 'Avant Garde', sans-serif; text-anchor: start" x="55.0005" y="25.30913" transform="rotate(-0 55.0005 25.30913)">Median:28.5C</text>
    </g>
   </g>
  </g>
 </g>
 <defs>
  <clipPath id="pc9da41a7dc">
   <rect x="33.5775" y="7.2" width="223.2" height="221.76"/>
  </clipPath>
 </defs>
</svg>
