<?xml version="1.0" encoding="utf-8" standalone="no"?>
<!DOCTYPE svg PUBLIC "-//W3C//DTD SVG 1.1//EN"
  "http://www.w3.org/Graphics/SVG/1.1/DTD/svg11.dtd">
<svg xmlns:xlink="http://www.w3.org/1999/xlink" width="263.9775pt" height="260.709375pt" viewBox="0 0 263.9775 260.709375" xmlns="http://www.w3.org/2000/svg" version="1.1">
 <metadata>
  <rdf:RDF xmlns:dc="http://purl.org/dc/elements/1.1/" xmlns:cc="http://creativecommons.org/ns#" xmlns:rdf="http://www.w3.org/1999/02/22-rdf-syntax-ns#">
   <cc:Work>
    <dc:type rdf:resource="http://purl.org/dc/dcmitype/StillImage"/>
    <dc:date>2023-07-28T13:13:48.884028</dc:date>
    <dc:format>image/svg+xml</dc:format>
    <dc:creator>
     <cc:Agent>
      <dc:title>Matplotlib v3.7.0, https://matplotlib.org/</dc:title>
     </cc:Agent>
    </dc:creator>
   </cc:Work>
  </rdf:RDF>
 </metadata>
 <defs>
  <style type="text/css">*{stroke-linejoin: round; stroke-linecap: butt}</style>
 </defs>
 <g id="figure_1">
  <g id="patch_1">
   <path d="M 0 260.709375 
L 263.9775 260.709375 
L 263.9775 0 
L 0 0 
z
" style="fill: #ffffff"/>
  </g>
  <g id="axes_1">
   <g id="patch_2">
    <path d="M 33.5775 228.96 
L 256.7775 228.96 
L 256.7775 7.2 
L 33.5775 7.2 
z
" style="fill: #ffffff"/>
   </g>
   <g id="PolyCollection_1">
    <path d="M 49.2015 215.6544 
L 49.2015 205.3056 
L 49.4991 206.0448 
L 49.7967 206.0448 
L 50.0943 206.0448 
L 50.3919 205.3056 
L 50.6895 205.3056 
L 50.9871 204.1968 
L 51.2847 204.1968 
L 51.5823 204.5664 
L 51.8799 203.8272 
L 52.1775 203.088 
L 52.4751 203.8272 
L 52.7727 203.8272 
L 53.0703 203.088 
L 53.3679 203.088 
L 53.6655 203.088 
L 53.9631 202.3488 
L 54.2607 200.8704 
L 54.5583 200.8704 
L 54.8559 200.8704 
L 55.1535 200.8704 
L 55.4511 200.8704 
L 55.7487 200.1312 
L 56.0463 200.1312 
L 56.3439 200.1312 
L 56.6415 201.6096 
L 56.9391 200.8704 
L 57.2367 199.392 
L 57.5343 199.392 
L 57.8319 199.0224 
L 58.1295 197.9136 
L 58.4271 197.9136 
L 58.7247 199.392 
L 59.0223 198.2832 
L 59.3199 197.1744 
L 59.6175 196.4352 
L 59.9151 197.1744 
L 60.2127 196.4352 
L 60.5103 196.4352 
L 60.8079 196.0656 
L 61.1055 196.0656 
L 61.4031 194.2176 
L 61.7007 192.7392 
L 61.9983 192.7392 
L 62.2959 192.7392 
L 62.5935 190.152 
L 62.8911 189.0432 
L 63.1887 188.304 
L 63.4863 188.304 
L 63.7839 186.8256 
L 64.0815 187.1952 
L 64.3791 184.608 
L 64.6767 184.608 
L 64.9743 183.4992 
L 65.2719 186.0864 
L 65.5695 184.9776 
L 65.8671 185.3472 
L 66.1647 185.3472 
L 66.4623 185.3472 
L 66.7599 185.3472 
L 67.0575 183.8688 
L 67.3551 183.8688 
L 67.6527 186.8256 
L 67.9503 187.9344 
L 68.2479 184.608 
L 68.5455 186.8256 
L 68.8431 185.3472 
L 69.1407 185.3472 
L 69.4383 184.608 
L 69.7359 183.1296 
L 70.0335 184.608 
L 70.3311 183.1296 
L 70.6287 184.608 
L 70.9263 184.2384 
L 71.2239 183.8688 
L 71.5215 184.608 
L 71.8191 181.6512 
L 72.1167 182.3904 
L 72.4143 180.1728 
L 72.7119 180.1728 
L 73.0095 179.4336 
L 73.3071 177.216 
L 73.6047 177.216 
L 73.9023 179.4336 
L 74.1999 177.216 
L 74.4975 174.2592 
L 74.7951 174.6288 
L 75.0927 175.7376 
L 75.3903 175.7376 
L 75.6879 176.4768 
L 75.9855 174.2592 
L 76.2831 169.824 
L 76.5807 165.3888 
L 76.8783 167.6064 
L 77.1759 165.3888 
L 77.4735 165.3888 
L 77.7711 166.8672 
L 78.0687 166.8672 
L 78.3663 161.3232 
L 78.6639 163.1712 
L 78.9615 165.7584 
L 79.2591 162.432 
L 79.5567 160.9536 
L 79.8543 162.8016 
L 80.1519 160.2144 
L 80.4495 155.4096 
L 80.7471 155.7792 
L 81.0447 155.7792 
L 81.3423 156.5184 
L 81.6399 155.04 
L 81.9375 158.736 
L 82.2351 157.9968 
L 82.5327 156.5184 
L 82.8303 156.5184 
L 83.1279 157.9968 
L 83.4255 158.736 
L 83.7231 157.9968 
L 84.0207 157.9968 
L 84.3183 157.2576 
L 84.6159 157.9968 
L 84.9135 159.1056 
L 85.2111 157.6272 
L 85.5087 159.4752 
L 85.8063 157.9968 
L 86.1039 157.9968 
L 86.4015 158.736 
L 86.6991 157.9968 
L 86.9967 157.9968 
L 87.2943 157.9968 
L 87.5919 155.04 
L 87.8895 155.04 
L 88.1871 155.04 
L 88.4847 157.9968 
L 88.7823 155.7792 
L 89.0799 154.3008 
L 89.3775 155.04 
L 89.6751 155.7792 
L 89.9727 154.3008 
L 90.2703 154.3008 
L 90.5679 154.6704 
L 90.8655 153.5616 
L 91.1631 154.3008 
L 91.4607 153.5616 
L 91.7583 155.04 
L 92.0559 154.3008 
L 92.3535 153.5616 
L 92.6511 155.04 
L 92.9487 155.7792 
L 93.2463 153.5616 
L 93.5439 153.5616 
L 93.8415 154.6704 
L 94.1391 154.6704 
L 94.4367 153.5616 
L 94.7343 154.3008 
L 95.0319 155.04 
L 95.3295 155.04 
L 95.6271 153.5616 
L 95.9247 156.888 
L 96.2223 155.04 
L 96.5199 154.3008 
L 96.8175 153.5616 
L 97.1151 155.04 
L 97.4127 155.04 
L 97.7103 155.04 
L 98.0079 156.888 
L 98.3055 154.3008 
L 98.6031 154.3008 
L 98.9007 155.04 
L 99.1983 156.5184 
L 99.4959 155.4096 
L 99.7935 153.9312 
L 100.0911 152.8224 
L 100.3887 155.7792 
L 100.6863 152.8224 
L 100.9839 153.5616 
L 101.2815 150.6048 
L 101.5791 150.6048 
L 101.8767 146.9088 
L 102.1743 141.3648 
L 102.4719 144.6912 
L 102.7695 143.952 
L 103.0671 137.2992 
L 103.3647 138.0384 
L 103.6623 134.3424 
L 103.9599 133.6032 
L 104.2575 128.7984 
L 104.5551 121.0368 
L 104.8527 121.0368 
L 105.1503 120.2976 
L 105.4479 124.3632 
L 105.7455 123.2544 
L 106.0431 124.7328 
L 106.3407 123.9936 
L 106.6383 125.472 
L 106.9359 126.2112 
L 107.2335 125.472 
L 107.5311 127.6896 
L 107.8287 127.6896 
L 108.1263 127.6896 
L 108.4239 128.4288 
L 108.7215 129.168 
L 109.0191 129.9072 
L 109.3167 129.9072 
L 109.6143 130.2768 
L 109.9119 129.9072 
L 110.2095 129.9072 
L 110.5071 130.2768 
L 110.8047 128.4288 
L 111.1023 129.168 
L 111.3999 126.9504 
L 111.6975 129.168 
L 111.9951 126.2112 
L 112.2927 126.2112 
L 112.5903 126.2112 
L 112.8879 126.2112 
L 113.1855 127.6896 
L 113.4831 126.2112 
L 113.7807 126.2112 
L 114.0783 127.32 
L 114.3759 123.9936 
L 114.6735 126.2112 
L 114.9711 125.8416 
L 115.2687 124.3632 
L 115.5663 123.9936 
L 115.8639 124.7328 
L 116.1615 124.3632 
L 116.4591 122.5152 
L 116.7567 122.5152 
L 117.0543 122.5152 
L 117.3519 121.0368 
L 117.6495 122.5152 
L 117.9471 121.0368 
L 118.2447 114.7536 
L 118.5423 114.7536 
L 118.8399 112.536 
L 119.1375 111.4272 
L 119.4351 111.4272 
L 119.7327 111.4272 
L 120.0303 108.4704 
L 120.3279 107.7312 
L 120.6255 105.5136 
L 120.9231 106.6224 
L 121.2207 102.5568 
L 121.5183 103.296 
L 121.8159 96.6432 
L 122.1135 104.4048 
L 122.4111 92.208 
L 122.7087 96.6432 
L 123.0063 95.904 
L 123.3039 91.4688 
L 123.6015 92.208 
L 123.8991 94.4256 
L 124.1967 92.208 
L 124.4943 91.0992 
L 124.7919 92.9472 
L 125.0895 92.208 
L 125.3871 92.208 
L 125.6847 86.2944 
L 125.9823 92.208 
L 126.2799 91.0992 
L 126.5775 92.9472 
L 126.8751 94.056 
L 127.1727 85.5552 
L 127.4703 85.5552 
L 127.7679 78.9024 
L 128.0655 75.9456 
L 128.3631 77.7936 
L 128.6607 79.6416 
L 128.9583 91.4688 
L 129.2559 84.0768 
L 129.5535 74.4672 
L 129.8511 75.2064 
L 130.1487 75.2064 
L 130.4463 77.424 
L 130.7439 75.2064 
L 131.0415 70.7712 
L 131.3391 75.2064 
L 131.6367 73.728 
L 131.9343 75.2064 
L 132.2319 60.4224 
L 132.5295 73.3584 
L 132.8271 68.184 
L 133.1247 72.9888 
L 133.4223 76.6848 
L 133.7199 70.032 
L 134.0175 76.6848 
L 134.3151 67.8144 
L 134.6127 76.6848 
L 134.9103 67.8144 
L 135.2079 76.6848 
L 135.5055 67.8144 
L 135.8031 69.2928 
L 136.1007 74.4672 
L 136.3983 67.0752 
L 136.6959 61.9008 
L 136.9935 52.2912 
L 137.2911 76.6848 
L 137.5887 59.6832 
L 137.8863 61.5312 
L 138.1839 61.5312 
L 138.4815 58.2048 
L 138.7791 46.008 
L 139.0767 42.6816 
L 139.3743 63.3792 
L 139.6719 55.248 
L 139.9695 55.248 
L 140.2671 52.2912 
L 140.5647 52.2912 
L 140.8623 52.2912 
L 141.1599 54.5088 
L 141.4575 55.9872 
L 141.7551 57.4656 
L 142.0527 54.5088 
L 142.3503 55.9872 
L 142.6479 55.9872 
L 142.9455 60.4224 
L 143.2431 63.3792 
L 143.5407 51.9216 
L 143.8383 58.2048 
L 144.1359 55.9872 
L 144.4335 55.248 
L 144.7311 55.248 
L 145.0287 54.1392 
L 145.3263 57.8352 
L 145.6239 54.8784 
L 145.9215 51.1824 
L 146.2191 58.944 
L 146.5167 53.7696 
L 146.8143 53.7696 
L 147.1119 59.6832 
L 147.4095 55.9872 
L 147.7071 55.6176 
L 148.0047 52.2912 
L 148.3023 54.5088 
L 148.5999 60.792 
L 148.8975 50.8128 
L 149.1951 56.7264 
L 149.4927 50.8128 
L 149.7903 54.5088 
L 150.0879 50.4432 
L 150.3855 48.2256 
L 150.6831 49.3344 
L 150.9807 50.0736 
L 151.2783 47.1168 
L 151.5759 47.1168 
L 151.8735 49.3344 
L 152.1711 48.5952 
L 152.4687 47.1168 
L 152.7663 48.2256 
L 153.0639 50.0736 
L 153.3615 44.16 
L 153.6591 43.4208 
L 153.9567 50.4432 
L 154.2543 49.3344 
L 154.5519 47.1168 
L 154.8495 47.856 
L 155.1471 48.5952 
L 155.4447 47.4864 
L 155.7423 48.5952 
L 156.0399 48.5952 
L 156.3375 47.4864 
L 156.6351 47.856 
L 156.9327 44.8992 
L 157.2303 44.5296 
L 157.5279 41.9424 
L 157.8255 42.312 
L 158.1231 50.4432 
L 158.4207 42.6816 
L 158.7183 43.7904 
L 159.0159 35.2896 
L 159.3135 43.4208 
L 159.6111 43.4208 
L 159.9087 36.3984 
L 160.2063 42.6816 
L 160.5039 38.2464 
L 160.8015 41.9424 
L 161.0991 47.1168 
L 161.3967 41.5728 
L 161.6943 41.9424 
L 161.9919 40.464 
L 162.2895 42.6816 
L 162.5871 47.856 
L 162.8847 43.4208 
L 163.1823 40.464 
L 163.4799 40.0944 
L 163.7775 44.16 
L 164.0751 36.3984 
L 164.3727 40.8336 
L 164.6703 37.1376 
L 164.9679 43.0512 
L 165.2655 36.0288 
L 165.5631 44.8992 
L 165.8607 39.3552 
L 166.1583 40.0944 
L 166.4559 36.0288 
L 166.7535 35.6592 
L 167.0511 37.5072 
L 167.3487 38.616 
L 167.6463 32.3328 
L 167.9439 33.8112 
L 168.2415 35.2896 
L 168.5391 30.4848 
L 168.8367 31.5936 
L 169.1343 34.5504 
L 169.4319 36.768 
L 169.7295 33.4416 
L 170.0271 36.0288 
L 170.3247 33.072 
L 170.6223 31.224 
L 170.9199 32.3328 
L 171.2175 29.376 
L 171.5151 33.8112 
L 171.8127 33.072 
L 172.1103 29.376 
L 172.4079 30.8544 
L 172.7055 28.2672 
L 173.0031 32.7024 
L 173.3007 26.0496 
L 173.5983 27.528 
L 173.8959 27.8976 
L 174.1935 30.8544 
L 174.4911 29.376 
L 174.7887 30.8544 
L 175.0863 30.1152 
L 175.3839 29.376 
L 175.6815 26.7888 
L 175.9791 27.1584 
L 176.2767 30.4848 
L 176.5743 23.4624 
L 176.8719 28.6368 
L 177.1695 27.528 
L 177.4671 26.4192 
L 177.7647 25.3104 
L 178.0623 29.376 
L 178.3599 27.1584 
L 178.6575 28.6368 
L 178.9551 28.6368 
L 179.2527 30.8544 
L 179.5503 27.528 
L 179.8479 20.5056 
L 180.1455 23.4624 
L 180.4431 26.4192 
L 180.7407 22.7232 
L 181.0383 25.3104 
L 181.3359 27.8976 
L 181.6335 22.3536 
L 181.9311 24.2016 
L 182.2287 23.832 
L 182.5263 27.8976 
L 182.8239 22.7232 
L 183.1215 24.9408 
L 183.4191 23.4624 
L 183.7167 20.5056 
L 184.0143 24.5712 
L 184.3119 21.2448 
L 184.6095 23.832 
L 184.9071 22.3536 
L 185.2047 26.4192 
L 185.5023 22.7232 
L 185.7999 22.7232 
L 186.0975 23.832 
L 186.3951 25.68 
L 186.6927 23.0928 
L 186.9903 18.6576 
L 187.2879 22.7232 
L 187.5855 21.984 
L 187.8831 21.6144 
L 188.1807 20.8752 
L 188.4783 16.8096 
L 188.7759 19.7664 
L 189.0735 25.3104 
L 189.3711 20.136 
L 189.6687 19.0272 
L 189.9663 24.2016 
L 190.2639 22.3536 
L 190.5615 19.0272 
L 190.8591 21.984 
L 191.1567 21.2448 
L 191.4543 20.136 
L 191.7519 16.44 
L 192.0495 21.2448 
L 192.3471 21.2448 
L 192.6447 21.984 
L 192.9423 20.8752 
L 193.2399 19.0272 
L 193.5375 17.5488 
L 193.8351 17.5488 
L 194.1327 21.2448 
L 194.4303 21.6144 
L 194.7279 17.5488 
L 195.0255 20.8752 
L 195.3231 21.984 
L 195.6207 17.9184 
L 195.9183 17.1792 
L 196.2159 16.0704 
L 196.5135 13.1136 
L 196.8111 16.8096 
L 197.1087 14.592 
L 197.4063 17.9184 
L 197.7039 16.8096 
L 198.0015 15.3312 
L 198.2991 16.8096 
L 198.5967 16.44 
L 198.8943 15.3312 
L 199.1919 16.44 
L 199.4895 13.1136 
L 199.7871 14.592 
L 200.0847 16.0704 
L 200.3823 15.7008 
L 200.6799 13.1136 
L 200.9775 18.6576 
L 201.2751 16.0704 
L 201.5727 17.5488 
L 201.8703 14.592 
L 202.1679 15.3312 
L 202.4655 11.6352 
L 202.7631 12.744 
L 203.0607 13.8528 
L 203.3583 13.8528 
L 203.6559 13.4832 
L 203.9535 11.2656 
L 204.2511 15.3312 
L 204.5487 15.3312 
L 204.8463 12.3744 
L 205.1439 13.4832 
L 205.4415 13.4832 
L 205.7391 10.1568 
L 206.0367 11.6352 
L 206.3343 10.1568 
L 206.6319 12.3744 
L 206.6319 44.8992 
L 206.6319 44.8992 
L 206.3343 45.6384 
L 206.0367 47.1168 
L 205.7391 45.6384 
L 205.4415 44.5296 
L 205.1439 44.5296 
L 204.8463 41.9424 
L 204.5487 47.856 
L 204.2511 44.8992 
L 203.9535 51.1824 
L 203.6559 46.008 
L 203.3583 46.3776 
L 203.0607 50.8128 
L 202.7631 48.2256 
L 202.4655 50.0736 
L 202.1679 46.3776 
L 201.8703 50.0736 
L 201.5727 47.1168 
L 201.2751 48.5952 
L 200.9775 46.7472 
L 200.6799 51.552 
L 200.3823 48.2256 
L 200.0847 50.0736 
L 199.7871 50.0736 
L 199.4895 51.552 
L 199.1919 48.9648 
L 198.8943 49.3344 
L 198.5967 51.9216 
L 198.2991 50.8128 
L 198.0015 49.3344 
L 197.7039 47.856 
L 197.4063 47.4864 
L 197.1087 50.0736 
L 196.8111 52.2912 
L 196.5135 48.5952 
L 196.2159 48.5952 
L 195.9183 54.1392 
L 195.6207 50.4432 
L 195.3231 54.5088 
L 195.0255 51.9216 
L 194.7279 53.0304 
L 194.4303 52.6608 
L 194.1327 56.7264 
L 193.8351 55.9872 
L 193.5375 55.9872 
L 193.2399 54.5088 
L 192.9423 51.9216 
L 192.6447 51.552 
L 192.3471 52.2912 
L 192.0495 53.7696 
L 191.7519 57.8352 
L 191.4543 57.096 
L 191.1567 52.2912 
L 190.8591 57.4656 
L 190.5615 57.4656 
L 190.2639 57.8352 
L 189.9663 53.7696 
L 189.6687 60.4224 
L 189.3711 60.0528 
L 189.0735 56.3568 
L 188.7759 61.1616 
L 188.4783 59.6832 
L 188.1807 60.792 
L 187.8831 57.096 
L 187.5855 57.4656 
L 187.2879 52.2912 
L 186.9903 60.0528 
L 186.6927 60.0528 
L 186.3951 56.7264 
L 186.0975 57.8352 
L 185.7999 64.1184 
L 185.5023 61.1616 
L 185.2047 55.9872 
L 184.9071 62.2704 
L 184.6095 60.792 
L 184.3119 67.0752 
L 184.0143 63.0096 
L 183.7167 58.944 
L 183.4191 63.3792 
L 183.1215 60.4224 
L 182.8239 67.0752 
L 182.5263 60.4224 
L 182.2287 60.792 
L 181.9311 64.1184 
L 181.6335 68.184 
L 181.3359 60.4224 
L 181.0383 65.2272 
L 180.7407 65.5968 
L 180.4431 64.8576 
L 180.1455 67.8144 
L 179.8479 67.8144 
L 179.5503 63.0096 
L 179.2527 60.4224 
L 178.9551 64.1184 
L 178.6575 61.1616 
L 178.3599 71.5104 
L 178.0623 67.8144 
L 177.7647 63.7488 
L 177.4671 64.8576 
L 177.1695 70.4016 
L 176.8719 62.64 
L 176.5743 67.8144 
L 176.2767 65.9664 
L 175.9791 65.5968 
L 175.6815 66.7056 
L 175.3839 67.8144 
L 175.0863 70.032 
L 174.7887 75.2064 
L 174.4911 63.3792 
L 174.1935 66.336 
L 173.8959 72.2496 
L 173.5983 64.488 
L 173.3007 70.4016 
L 173.0031 60.792 
L 172.7055 69.6624 
L 172.4079 69.2928 
L 172.1103 70.7712 
L 171.8127 70.032 
L 171.5151 69.2928 
L 171.2175 70.7712 
L 170.9199 72.2496 
L 170.6223 75.576 
L 170.3247 72.9888 
L 170.0271 71.5104 
L 169.7295 74.8368 
L 169.4319 69.2928 
L 169.1343 70.032 
L 168.8367 72.9888 
L 168.5391 70.4016 
L 168.2415 70.7712 
L 167.9439 73.728 
L 167.6463 73.728 
L 167.3487 74.0976 
L 167.0511 78.9024 
L 166.7535 78.5328 
L 166.4559 77.424 
L 166.1583 77.0544 
L 165.8607 82.2288 
L 165.5631 77.424 
L 165.2655 80.3808 
L 164.9679 77.0544 
L 164.6703 80.0112 
L 164.3727 77.7936 
L 164.0751 76.3152 
L 163.7775 76.6848 
L 163.4799 80.0112 
L 163.1823 78.9024 
L 162.8847 81.8592 
L 162.5871 75.9456 
L 162.2895 81.12 
L 161.9919 81.8592 
L 161.6943 80.3808 
L 161.3967 81.4896 
L 161.0991 79.6416 
L 160.8015 77.424 
L 160.5039 85.5552 
L 160.2063 82.5984 
L 159.9087 88.1424 
L 159.6111 81.8592 
L 159.3135 86.2944 
L 159.0159 88.512 
L 158.7183 85.1856 
L 158.4207 85.5552 
L 158.1231 84.4464 
L 157.8255 83.7072 
L 157.5279 87.7728 
L 157.2303 85.9248 
L 156.9327 89.2512 
L 156.6351 87.7728 
L 156.3375 84.4464 
L 156.0399 88.512 
L 155.7423 87.0336 
L 155.4447 87.4032 
L 155.1471 84.0768 
L 154.8495 92.208 
L 154.5519 92.9472 
L 154.2543 96.6432 
L 153.9567 96.2736 
L 153.6591 99.6 
L 153.3615 98.8608 
L 153.0639 94.4256 
L 152.7663 94.056 
L 152.4687 95.904 
L 152.1711 94.4256 
L 151.8735 93.6864 
L 151.5759 100.3392 
L 151.2783 100.3392 
L 150.9807 97.3824 
L 150.6831 99.6 
L 150.3855 99.9696 
L 150.0879 99.2304 
L 149.7903 98.8608 
L 149.4927 101.0784 
L 149.1951 102.5568 
L 148.8975 104.0352 
L 148.5999 100.7088 
L 148.3023 104.7744 
L 148.0047 99.6 
L 147.7071 107.3616 
L 147.4095 104.7744 
L 147.1119 104.0352 
L 146.8143 109.9488 
L 146.5167 106.992 
L 146.2191 106.2528 
L 145.9215 111.7968 
L 145.6239 109.5792 
L 145.3263 106.6224 
L 145.0287 111.7968 
L 144.7311 111.4272 
L 144.4335 111.4272 
L 144.1359 109.2096 
L 143.8383 114.384 
L 143.5407 114.0144 
L 143.2431 110.688 
L 142.9455 113.6448 
L 142.6479 118.08 
L 142.3503 118.08 
L 142.0527 119.5584 
L 141.7551 119.5584 
L 141.4575 118.08 
L 141.1599 119.5584 
L 140.8623 121.776 
L 140.5647 121.776 
L 140.2671 121.776 
L 139.9695 123.2544 
L 139.6719 120.2976 
L 139.3743 118.08 
L 139.0767 131.3856 
L 138.7791 131.7552 
L 138.4815 123.2544 
L 138.1839 122.1456 
L 137.8863 125.1024 
L 137.5887 127.6896 
L 137.2911 118.08 
L 136.9935 129.168 
L 136.6959 125.472 
L 136.3983 127.6896 
L 136.1007 120.2976 
L 135.8031 122.5152 
L 135.5055 126.9504 
L 135.2079 118.08 
L 134.9103 126.9504 
L 134.6127 118.08 
L 134.3151 126.9504 
L 134.0175 118.08 
L 133.7199 124.7328 
L 133.4223 118.08 
L 133.1247 123.2544 
L 132.8271 127.32 
L 132.5295 125.1024 
L 132.2319 134.3424 
L 131.9343 131.3856 
L 131.6367 126.9504 
L 131.3391 131.3856 
L 131.0415 129.9072 
L 130.7439 131.3856 
L 130.4463 130.6464 
L 130.1487 131.3856 
L 129.8511 131.3856 
L 129.5535 132.1248 
L 129.2559 128.4288 
L 128.9583 126.9504 
L 128.6607 129.9072 
L 128.3631 131.016 
L 128.0655 132.1248 
L 127.7679 132.1248 
L 127.4703 132.864 
L 127.1727 132.864 
L 126.8751 131.016 
L 126.5775 134.3424 
L 126.2799 139.8864 
L 125.9823 138.0384 
L 125.6847 139.5168 
L 125.3871 142.4736 
L 125.0895 139.5168 
L 124.7919 138.7776 
L 124.4943 142.8432 
L 124.1967 142.4736 
L 123.8991 141.7344 
L 123.6015 142.4736 
L 123.3039 143.2128 
L 123.0063 138.7776 
L 122.7087 140.9952 
L 122.4111 142.4736 
L 122.1135 138.408 
L 121.8159 140.9952 
L 121.5183 138.7776 
L 121.2207 139.5168 
L 120.9231 140.6256 
L 120.6255 139.5168 
L 120.3279 140.256 
L 120.0303 140.9952 
L 119.7327 140.9952 
L 119.4351 140.9952 
L 119.1375 140.9952 
L 118.8399 140.6256 
L 118.5423 139.8864 
L 118.2447 139.8864 
L 117.9471 138.7776 
L 117.6495 137.2992 
L 117.3519 138.7776 
L 117.0543 137.2992 
L 116.7567 137.2992 
L 116.4591 137.2992 
L 116.1615 137.6688 
L 115.8639 136.56 
L 115.5663 137.2992 
L 115.2687 140.6256 
L 114.9711 139.1472 
L 114.6735 139.5168 
L 114.3759 141.7344 
L 114.0783 139.1472 
L 113.7807 140.9952 
L 113.4831 140.9952 
L 113.1855 139.5168 
L 112.8879 140.9952 
L 112.5903 140.9952 
L 112.2927 140.9952 
L 111.9951 140.9952 
L 111.6975 138.0384 
L 111.3999 141.7344 
L 111.1023 140.9952 
L 110.8047 140.256 
L 110.5071 140.6256 
L 110.2095 140.256 
L 109.9119 140.256 
L 109.6143 140.6256 
L 109.3167 141.7344 
L 109.0191 141.7344 
L 108.7215 146.9088 
L 108.4239 149.1264 
L 108.1263 151.344 
L 107.8287 151.344 
L 107.5311 151.344 
L 107.2335 157.9968 
L 106.9359 155.7792 
L 106.6383 157.9968 
L 106.3407 159.4752 
L 106.0431 158.736 
L 105.7455 161.6928 
L 105.4479 161.3232 
L 105.1503 173.52 
L 104.8527 172.7808 
L 104.5551 168.3456 
L 104.2575 171.672 
L 103.9599 183.8688 
L 103.6623 181.6512 
L 103.3647 179.4336 
L 103.0671 180.1728 
L 102.7695 176.4768 
L 102.4719 177.216 
L 102.1743 178.3248 
L 101.8767 176.4768 
L 101.5791 174.2592 
L 101.2815 174.2592 
L 100.9839 171.3024 
L 100.6863 173.52 
L 100.3887 170.5632 
L 100.0911 173.52 
L 99.7935 173.1504 
L 99.4959 174.6288 
L 99.1983 171.3024 
L 98.9007 172.7808 
L 98.6031 172.0416 
L 98.3055 172.0416 
L 98.0079 170.1936 
L 97.7103 172.7808 
L 97.4127 172.7808 
L 97.1151 172.7808 
L 96.8175 174.2592 
L 96.5199 172.0416 
L 96.2223 169.824 
L 95.9247 170.1936 
L 95.6271 171.3024 
L 95.3295 169.824 
L 95.0319 172.7808 
L 94.7343 172.0416 
L 94.4367 171.3024 
L 94.1391 170.9328 
L 93.8415 170.9328 
L 93.5439 171.3024 
L 93.2463 171.3024 
L 92.9487 170.5632 
L 92.6511 169.824 
L 92.3535 171.3024 
L 92.0559 172.0416 
L 91.7583 168.3456 
L 91.4607 171.3024 
L 91.1631 172.0416 
L 90.8655 172.7808 
L 90.5679 170.9328 
L 90.2703 170.5632 
L 89.9727 172.0416 
L 89.6751 170.5632 
L 89.3775 169.824 
L 89.0799 172.0416 
L 88.7823 170.5632 
L 88.4847 172.7808 
L 88.1871 172.7808 
L 87.8895 172.7808 
L 87.5919 172.7808 
L 87.2943 172.7808 
L 86.9967 172.7808 
L 86.6991 172.7808 
L 86.4015 173.52 
L 86.1039 172.7808 
L 85.8063 172.7808 
L 85.5087 174.2592 
L 85.2111 173.8896 
L 84.9135 175.368 
L 84.6159 178.6944 
L 84.3183 179.4336 
L 84.0207 178.6944 
L 83.7231 178.6944 
L 83.4255 176.4768 
L 83.1279 178.6944 
L 82.8303 180.1728 
L 82.5327 180.1728 
L 82.2351 178.6944 
L 81.9375 179.4336 
L 81.6399 184.608 
L 81.3423 183.1296 
L 81.0447 185.3472 
L 80.7471 183.8688 
L 80.4495 186.456 
L 80.1519 186.8256 
L 79.8543 187.9344 
L 79.5567 196.4352 
L 79.2591 190.5216 
L 78.9615 190.8912 
L 78.6639 189.7824 
L 78.3663 193.848 
L 78.0687 192 
L 77.7711 193.4784 
L 77.4735 194.9568 
L 77.1759 194.9568 
L 76.8783 194.2176 
L 76.5807 194.9568 
L 76.2831 193.4784 
L 75.9855 192 
L 75.6879 191.2608 
L 75.3903 193.4784 
L 75.0927 193.4784 
L 74.7951 196.8048 
L 74.4975 197.9136 
L 74.1999 197.9136 
L 73.9023 195.696 
L 73.6047 197.9136 
L 73.3071 197.9136 
L 73.0095 197.1744 
L 72.7119 194.9568 
L 72.4143 194.9568 
L 72.1167 197.1744 
L 71.8191 196.4352 
L 71.5215 196.4352 
L 71.2239 195.696 
L 70.9263 197.544 
L 70.6287 199.392 
L 70.3311 200.8704 
L 70.0335 196.4352 
L 69.7359 200.8704 
L 69.4383 199.392 
L 69.1407 198.6528 
L 68.8431 198.6528 
L 68.5455 198.6528 
L 68.2479 199.392 
L 67.9503 196.8048 
L 67.6527 198.6528 
L 67.3551 201.6096 
L 67.0575 201.6096 
L 66.7599 200.1312 
L 66.4623 200.1312 
L 66.1647 200.1312 
L 65.8671 200.1312 
L 65.5695 201.24 
L 65.2719 200.8704 
L 64.9743 202.7184 
L 64.6767 202.3488 
L 64.3791 202.3488 
L 64.0815 200.5008 
L 63.7839 204.5664 
L 63.4863 203.088 
L 63.1887 204.5664 
L 62.8911 203.8272 
L 62.5935 204.936 
L 62.2959 204.5664 
L 61.9983 204.5664 
L 61.7007 204.5664 
L 61.4031 203.088 
L 61.1055 203.4576 
L 60.8079 203.4576 
L 60.5103 205.3056 
L 60.2127 205.3056 
L 59.9151 206.0448 
L 59.6175 206.784 
L 59.3199 206.0448 
L 59.0223 205.6752 
L 58.7247 205.3056 
L 58.4271 206.784 
L 58.1295 206.784 
L 57.8319 206.4144 
L 57.5343 208.2624 
L 57.2367 208.2624 
L 56.9391 206.784 
L 56.6415 207.5232 
L 56.3439 209.0016 
L 56.0463 209.0016 
L 55.7487 209.0016 
L 55.4511 209.7408 
L 55.1535 209.7408 
L 54.8559 209.7408 
L 54.5583 209.7408 
L 54.2607 209.7408 
L 53.9631 209.7408 
L 53.6655 209.0016 
L 53.3679 210.48 
L 53.0703 209.0016 
L 52.7727 209.7408 
L 52.4751 211.2192 
L 52.1775 211.9584 
L 51.8799 212.6976 
L 51.5823 213.4368 
L 51.2847 214.5456 
L 50.9871 214.5456 
L 50.6895 214.176 
L 50.3919 214.176 
L 50.0943 214.9152 
L 49.7967 214.9152 
L 49.4991 214.9152 
L 49.2015 215.6544 
z
" clip-path="url(#pe59ae7941e)" style="fill: #81d34d; fill-opacity: 0.3"/>
   </g>
   <g id="matplotlib.axis_1">
    <g id="xtick_1">
     <g id="line2d_1">
      <defs>
       <path id="me2c7f19362" d="M 0 0 
L 0 3.5 
" style="stroke: #000000; stroke-width: 0.8"/>
      </defs>
      <g>
       <use xlink:href="#me2c7f19362" x="33.5775" y="228.96" style="stroke: #000000; stroke-width: 0.8"/>
      </g>
     </g>
     <g id="text_1">
      <text style="font: 6px 'DejaVu Sans', 'Bitstream Vera Sans', 'Computer Modern Sans Serif', 'Lucida Grande', 'Verdana', 'Geneva', 'Lucid', 'Arial', 'Helvetica', 'Avant Garde', sans-serif; text-anchor: middle" x="33.5775" y="240.519062" transform="rotate(-0 33.5775 240.519062)">0</text>
     </g>
    </g>
    <g id="xtick_2">
     <g id="line2d_2">
      <g>
       <use xlink:href="#me2c7f19362" x="69.2895" y="228.96" style="stroke: #000000; stroke-width: 0.8"/>
      </g>
     </g>
     <g id="text_2">
      <text style="font: 6px 'DejaVu Sans', 'Bitstream Vera Sans', 'Computer Modern Sans Serif', 'Lucida Grande', 'Verdana', 'Geneva', 'Lucid', 'Arial', 'Helvetica', 'Avant Garde', sans-serif; text-anchor: middle" x="69.2895" y="240.519062" transform="rotate(-0 69.2895 240.519062)">4</text>
     </g>
    </g>
    <g id="xtick_3">
     <g id="line2d_3">
      <g>
       <use xlink:href="#me2c7f19362" x="105.0015" y="228.96" style="stroke: #000000; stroke-width: 0.8"/>
      </g>
     </g>
     <g id="text_3">
      <text style="font: 6px 'DejaVu Sans', 'Bitstream Vera Sans', 'Computer Modern Sans Serif', 'Lucida Grande', 'Verdana', 'Geneva', 'Lucid', 'Arial', 'Helvetica', 'Avant Garde', sans-serif; text-anchor: middle" x="105.0015" y="240.519062" transform="rotate(-0 105.0015 240.519062)">8</text>
     </g>
    </g>
    <g id="xtick_4">
     <g id="line2d_4">
      <g>
       <use xlink:href="#me2c7f19362" x="140.7135" y="228.96" style="stroke: #000000; stroke-width: 0.8"/>
      </g>
     </g>
     <g id="text_4">
      <text style="font: 6px 'DejaVu Sans', 'Bitstream Vera Sans', 'Computer Modern Sans Serif', 'Lucida Grande', 'Verdana', 'Geneva', 'Lucid', 'Arial', 'Helvetica', 'Avant Garde', sans-serif; text-anchor: middle" x="140.7135" y="240.519062" transform="rotate(-0 140.7135 240.519062)">12</text>
     </g>
    </g>
    <g id="xtick_5">
     <g id="line2d_5">
      <g>
       <use xlink:href="#me2c7f19362" x="176.4255" y="228.96" style="stroke: #000000; stroke-width: 0.8"/>
      </g>
     </g>
     <g id="text_5">
      <text style="font: 6px 'DejaVu Sans', 'Bitstream Vera Sans', 'Computer Modern Sans Serif', 'Lucida Grande', 'Verdana', 'Geneva', 'Lucid', 'Arial', 'Helvetica', 'Avant Garde', sans-serif; text-anchor: middle" x="176.4255" y="240.519062" transform="rotate(-0 176.4255 240.519062)">16</text>
     </g>
    </g>
    <g id="xtick_6">
     <g id="line2d_6">
      <g>
       <use xlink:href="#me2c7f19362" x="212.1375" y="228.96" style="stroke: #000000; stroke-width: 0.8"/>
      </g>
     </g>
     <g id="text_6">
      <text style="font: 6px 'DejaVu Sans', 'Bitstream Vera Sans', 'Computer Modern Sans Serif', 'Lucida Grande', 'Verdana', 'Geneva', 'Lucid', 'Arial', 'Helvetica', 'Avant Garde', sans-serif; text-anchor: middle" x="212.1375" y="240.519062" transform="rotate(-0 212.1375 240.519062)">20</text>
     </g>
    </g>
    <g id="xtick_7">
     <g id="line2d_7">
      <g>
       <use xlink:href="#me2c7f19362" x="247.8495" y="228.96" style="stroke: #000000; stroke-width: 0.8"/>
      </g>
     </g>
     <g id="text_7">
      <text style="font: 6px 'DejaVu Sans', 'Bitstream Vera Sans', 'Computer Modern Sans Serif', 'Lucida Grande', 'Verdana', 'Geneva', 'Lucid', 'Arial', 'Helvetica', 'Avant Garde', sans-serif; text-anchor: middle" x="247.8495" y="240.519062" transform="rotate(-0 247.8495 240.519062)">24</text>
     </g>
    </g>
    <g id="text_8">
     <text style="font: 8px 'DejaVu Sans', 'Bitstream Vera Sans', 'Computer Modern Sans Serif', 'Lucida Grande', 'Verdana', 'Geneva', 'Lucid', 'Arial', 'Helvetica', 'Avant Garde', sans-serif; text-anchor: middle" x="145.1775" y="251.845625" transform="rotate(-0 145.1775 251.845625)">Experimental time (hpf)</text>
    </g>
   </g>
   <g id="matplotlib.axis_2">
    <g id="ytick_1">
     <g id="line2d_8">
      <defs>
       <path id="m16127ef48b" d="M 0 0 
L -3.5 0 
" style="stroke: #000000; stroke-width: 0.8"/>
      </defs>
      <g>
       <use xlink:href="#m16127ef48b" x="33.5775" y="228.96" style="stroke: #000000; stroke-width: 0.8"/>
      </g>
     </g>
     <g id="text_9">
      <text style="font: 6px 'DejaVu Sans', 'Bitstream Vera Sans', 'Computer Modern Sans Serif', 'Lucida Grande', 'Verdana', 'Geneva', 'Lucid', 'Arial', 'Helvetica', 'Avant Garde', sans-serif; text-anchor: end" x="26.5775" y="231.239531" transform="rotate(-0 26.5775 231.239531)">0</text>
     </g>
    </g>
    <g id="ytick_2">
     <g id="line2d_9">
      <g>
       <use xlink:href="#m16127ef48b" x="33.5775" y="193.4784" style="stroke: #000000; stroke-width: 0.8"/>
      </g>
     </g>
     <g id="text_10">
      <text style="font: 6px 'DejaVu Sans', 'Bitstream Vera Sans', 'Computer Modern Sans Serif', 'Lucida Grande', 'Verdana', 'Geneva', 'Lucid', 'Arial', 'Helvetica', 'Avant Garde', sans-serif; text-anchor: end" x="26.5775" y="195.757931" transform="rotate(-0 26.5775 195.757931)">4</text>
     </g>
    </g>
    <g id="ytick_3">
     <g id="line2d_10">
      <g>
       <use xlink:href="#m16127ef48b" x="33.5775" y="157.9968" style="stroke: #000000; stroke-width: 0.8"/>
      </g>
     </g>
     <g id="text_11">
      <text style="font: 6px 'DejaVu Sans', 'Bitstream Vera Sans', 'Computer Modern Sans Serif', 'Lucida Grande', 'Verdana', 'Geneva', 'Lucid', 'Arial', 'Helvetica', 'Avant Garde', sans-serif; text-anchor: end" x="26.5775" y="160.276331" transform="rotate(-0 26.5775 160.276331)">8</text>
     </g>
    </g>
    <g id="ytick_4">
     <g id="line2d_11">
      <g>
       <use xlink:href="#m16127ef48b" x="33.5775" y="122.5152" style="stroke: #000000; stroke-width: 0.8"/>
      </g>
     </g>
     <g id="text_12">
      <text style="font: 6px 'DejaVu Sans', 'Bitstream Vera Sans', 'Computer Modern Sans Serif', 'Lucida Grande', 'Verdana', 'Geneva', 'Lucid', 'Arial', 'Helvetica', 'Avant Garde', sans-serif; text-anchor: end" x="26.5775" y="124.794731" transform="rotate(-0 26.5775 124.794731)">12</text>
     </g>
    </g>
    <g id="ytick_5">
     <g id="line2d_12">
      <g>
       <use xlink:href="#m16127ef48b" x="33.5775" y="87.0336" style="stroke: #000000; stroke-width: 0.8"/>
      </g>
     </g>
     <g id="text_13">
      <text style="font: 6px 'DejaVu Sans', 'Bitstream Vera Sans', 'Computer Modern Sans Serif', 'Lucida Grande', 'Verdana', 'Geneva', 'Lucid', 'Arial', 'Helvetica', 'Avant Garde', sans-serif; text-anchor: end" x="26.5775" y="89.313131" transform="rotate(-0 26.5775 89.313131)">16</text>
     </g>
    </g>
    <g id="ytick_6">
     <g id="line2d_13">
      <g>
       <use xlink:href="#m16127ef48b" x="33.5775" y="51.552" style="stroke: #000000; stroke-width: 0.8"/>
      </g>
     </g>
     <g id="text_14">
      <text style="font: 6px 'DejaVu Sans', 'Bitstream Vera Sans', 'Computer Modern Sans Serif', 'Lucida Grande', 'Verdana', 'Geneva', 'Lucid', 'Arial', 'Helvetica', 'Avant Garde', sans-serif; text-anchor: end" x="26.5775" y="53.831531" transform="rotate(-0 26.5775 53.831531)">20</text>
     </g>
    </g>
    <g id="ytick_7">
     <g id="line2d_14">
      <g>
       <use xlink:href="#m16127ef48b" x="33.5775" y="16.0704" style="stroke: #000000; stroke-width: 0.8"/>
      </g>
     </g>
     <g id="text_15">
      <text style="font: 6px 'DejaVu Sans', 'Bitstream Vera Sans', 'Computer Modern Sans Serif', 'Lucida Grande', 'Verdana', 'Geneva', 'Lucid', 'Arial', 'Helvetica', 'Avant Garde', sans-serif; text-anchor: end" x="26.5775" y="18.349931" transform="rotate(-0 26.5775 18.349931)">24</text>
     </g>
    </g>
    <g id="text_16">
     <text style="font: 8px 'DejaVu Sans', 'Bitstream Vera Sans', 'Computer Modern Sans Serif', 'Lucida Grande', 'Verdana', 'Geneva', 'Lucid', 'Arial', 'Helvetica', 'Avant Garde', sans-serif; text-anchor: middle" x="13.27875" y="118.08" transform="rotate(-90 13.27875 118.08)">Developmental age (hpf)</text>
    </g>
   </g>
   <g id="line2d_15">
    <path d="M 42.5055 221.964684 
L 217.574891 -1 
L 217.574891 -1 
" clip-path="url(#pe59ae7941e)" style="fill: none; stroke: #81d34d; stroke-linecap: square"/>
   </g>
   <g id="line2d_16">
    <path d="M 42.5055 221.810237 
L 220.680529 -1 
L 220.680529 -1 
" clip-path="url(#pe59ae7941e)" style="fill: none; stroke-dasharray: 3.7,1.6; stroke-dashoffset: 0; stroke: #81d34d"/>
   </g>
   <g id="line2d_17">
    <path d="M 42.5055 222.119545 
L 214.57188 -1 
L 214.57188 -1 
" clip-path="url(#pe59ae7941e)" style="fill: none; stroke-dasharray: 3.7,1.6; stroke-dashoffset: 0; stroke: #81d34d"/>
   </g>
   <g id="patch_3">
    <path d="M 33.5775 228.96 
L 33.5775 7.2 
" style="fill: none; stroke: #000000; stroke-width: 0.8; stroke-linejoin: miter; stroke-linecap: square"/>
   </g>
   <g id="patch_4">
    <path d="M 33.5775 228.96 
L 256.7775 228.96 
" style="fill: none; stroke: #000000; stroke-width: 0.8; stroke-linejoin: miter; stroke-linecap: square"/>
   </g>
   <g id="legend_1">
    <g id="patch_5">
     <path d="M 93.656011 226.065 
L 252.7245 226.065 
Q 253.8825 226.065 253.8825 224.907 
L 253.8825 208.488731 
Q 253.8825 207.330731 252.7245 207.330731 
L 93.656011 207.330731 
Q 92.498011 207.330731 92.498011 208.488731 
L 92.498011 224.907 
Q 92.498011 226.065 93.656011 226.065 
z
" style="fill: #ffffff; opacity: 0.8; stroke: #cccccc; stroke-linejoin: miter"/>
    </g>
    <g id="line2d_18">
     <path d="M 94.814011 212.019727 
L 100.604011 212.019727 
L 106.394011 212.019727 
" style="fill: none; stroke: #81d34d; stroke-linecap: square"/>
    </g>
    <g id="text_17">
     <text style="font: 5.79px 'DejaVu Sans', 'Bitstream Vera Sans', 'Computer Modern Sans Serif', 'Lucida Grande', 'Verdana', 'Geneva', 'Lucid', 'Arial', 'Helvetica', 'Avant Garde', sans-serif; text-anchor: start" x="111.026011" y="214.046227" transform="rotate(-0 111.026011 214.046227)">Linear fit: slope=1.284 [1.259,1.305], R2=0.983</text>
    </g>
    <g id="patch_6">
     <path d="M 94.814011 222.544861 
L 106.394011 222.544861 
L 106.394011 218.491861 
L 94.814011 218.491861 
z
" style="fill: #81d34d; fill-opacity: 0.3"/>
    </g>
    <g id="text_18">
     <text style="font: 5.79px 'DejaVu Sans', 'Bitstream Vera Sans', 'Computer Modern Sans Serif', 'Lucida Grande', 'Verdana', 'Geneva', 'Lucid', 'Arial', 'Helvetica', 'Avant Garde', sans-serif; text-anchor: start" x="111.026011" y="222.544861" transform="rotate(-0 111.026011 222.544861)">Median:33.0C</text>
    </g>
   </g>
  </g>
 </g>
 <defs>
  <clipPath id="pe59ae7941e">
   <rect x="33.5775" y="7.2" width="223.2" height="221.76"/>
  </clipPath>
 </defs>
</svg>
