<?xml version="1.0" encoding="utf-8" standalone="no"?>
<!DOCTYPE svg PUBLIC "-//W3C//DTD SVG 1.1//EN"
  "http://www.w3.org/Graphics/SVG/1.1/DTD/svg11.dtd">
<svg xmlns:xlink="http://www.w3.org/1999/xlink" width="275.43pt" height="268.379844pt" viewBox="0 0 275.43 268.379844" xmlns="http://www.w3.org/2000/svg" version="1.1">
 <metadata>
  <rdf:RDF xmlns:dc="http://purl.org/dc/elements/1.1/" xmlns:cc="http://creativecommons.org/ns#" xmlns:rdf="http://www.w3.org/1999/02/22-rdf-syntax-ns#">
   <cc:Work>
    <dc:type rdf:resource="http://purl.org/dc/dcmitype/StillImage"/>
    <dc:date>2023-07-28T11:51:04.123108</dc:date>
    <dc:format>image/svg+xml</dc:format>
    <dc:creator>
     <cc:Agent>
      <dc:title>Matplotlib v3.7.0, https://matplotlib.org/</dc:title>
     </cc:Agent>
    </dc:creator>
   </cc:Work>
  </rdf:RDF>
 </metadata>
 <defs>
  <style type="text/css">*{stroke-linejoin: round; stroke-linecap: butt}</style>
 </defs>
 <g id="figure_1">
  <g id="patch_1">
   <path d="M 0 268.379844 
L 275.43 268.379844 
L 275.43 0 
L 0 0 
z
" style="fill: #ffffff"/>
  </g>
  <g id="axes_1">
   <g id="patch_2">
    <path d="M 38.6675 232.759219 
L 261.8675 232.759219 
L 261.8675 10.999219 
L 38.6675 10.999219 
z
" style="fill: #ffffff"/>
   </g>
   <g id="PolyCollection_1">
    <path d="M 47.5955 220.192819 
L 47.5955 223.149619 
L 48.1783 223.149619 
L 48.7611 222.410419 
L 49.3439 222.410419 
L 49.9267 222.410419 
L 50.5095 221.671219 
L 51.0923 221.671219 
L 51.6751 221.671219 
L 52.2579 222.410419 
L 52.8407 220.932019 
L 53.4235 221.671219 
L 54.0063 221.671219 
L 54.5891 221.671219 
L 55.1719 220.932019 
L 55.7547 220.932019 
L 56.3375 220.192819 
L 56.9203 219.453619 
L 57.5031 219.453619 
L 58.0859 219.453619 
L 58.6687 219.453619 
L 59.2515 218.714419 
L 59.8343 217.975219 
L 60.4171 217.975219 
L 60.9999 217.236019 
L 61.5827 217.236019 
L 62.1655 216.496819 
L 62.7483 217.975219 
L 63.3311 217.975219 
L 63.9139 215.757619 
L 64.4967 216.496819 
L 65.0795 216.496819 
L 65.6623 216.496819 
L 66.2451 215.757619 
L 66.8279 215.757619 
L 67.4107 213.540019 
L 67.9935 212.800819 
L 68.5763 212.800819 
L 69.1591 212.800819 
L 69.7419 213.540019 
L 70.3247 213.540019 
L 70.9075 213.540019 
L 71.4903 211.322419 
L 72.0731 211.322419 
L 72.6559 210.583219 
L 73.2387 210.583219 
L 73.8215 210.583219 
L 74.4043 209.844019 
L 74.9871 209.104819 
L 75.5699 209.104819 
L 76.1527 209.104819 
L 76.7355 209.104819 
L 77.3183 208.365619 
L 77.9011 209.844019 
L 78.4839 207.626419 
L 79.0667 207.626419 
L 79.6495 207.626419 
L 80.2323 207.626419 
L 80.8151 207.626419 
L 81.3979 207.626419 
L 81.9807 208.365619 
L 82.5635 208.365619 
L 83.1463 208.365619 
L 83.7291 207.626419 
L 84.3119 206.887219 
L 84.8947 206.148019 
L 85.4775 206.887219 
L 86.0603 204.669619 
L 86.6431 203.191219 
L 87.2259 203.191219 
L 87.8087 204.669619 
L 88.3915 203.191219 
L 88.9743 206.148019 
L 89.5571 204.669619 
L 90.1399 203.191219 
L 90.7227 203.930419 
L 91.3055 203.930419 
L 91.8883 203.930419 
L 92.4711 203.930419 
L 93.0539 203.930419 
L 93.6367 201.712819 
L 94.2195 200.973619 
L 94.8023 203.191219 
L 95.3851 200.234419 
L 95.9679 198.756019 
L 96.5507 198.756019 
L 97.1335 198.756019 
L 97.7163 198.756019 
L 98.2991 198.756019 
L 98.8819 198.756019 
L 99.4647 198.756019 
L 100.0475 198.756019 
L 100.6303 198.756019 
L 101.2131 198.016819 
L 101.7959 198.016819 
L 102.3787 198.016819 
L 102.9615 198.016819 
L 103.5443 197.277619 
L 104.1271 195.799219 
L 104.7099 195.799219 
L 105.2927 195.799219 
L 105.8755 195.060019 
L 106.4583 193.581619 
L 107.0411 194.320819 
L 107.6239 194.320819 
L 108.2067 194.320819 
L 108.7895 194.320819 
L 109.3723 191.364019 
L 109.9551 190.624819 
L 110.5379 190.624819 
L 111.1207 191.364019 
L 111.7035 189.146419 
L 112.2863 190.624819 
L 112.8691 189.885619 
L 113.4519 189.885619 
L 114.0347 188.407219 
L 114.6175 189.146419 
L 115.2003 189.146419 
L 115.7831 189.146419 
L 116.3659 189.146419 
L 116.9487 187.668019 
L 117.5315 189.146419 
L 118.1143 186.189619 
L 118.6971 185.450419 
L 119.2799 185.450419 
L 119.8627 185.450419 
L 120.4455 184.711219 
L 121.0283 182.493619 
L 121.6111 183.232819 
L 122.1939 179.536819 
L 122.7767 180.276019 
L 123.3595 180.276019 
L 123.9423 179.536819 
L 124.5251 178.797619 
L 125.1079 177.319219 
L 125.6907 177.319219 
L 126.2735 177.319219 
L 126.8563 177.319219 
L 127.4391 177.319219 
L 128.0219 176.580019 
L 128.6047 176.580019 
L 129.1875 176.580019 
L 129.7703 175.840819 
L 130.3531 175.840819 
L 130.9359 175.840819 
L 131.5187 175.840819 
L 132.1015 175.840819 
L 132.6843 175.840819 
L 133.2671 175.840819 
L 133.8499 175.101619 
L 134.4327 175.101619 
L 135.0155 175.101619 
L 135.5983 175.101619 
L 136.1811 175.101619 
L 136.7639 176.580019 
L 137.3467 175.101619 
L 137.9295 175.101619 
L 138.5123 175.101619 
L 139.0951 177.319219 
L 139.6779 175.840819 
L 140.2607 176.580019 
L 140.8435 177.319219 
L 141.4263 177.319219 
L 142.0091 175.840819 
L 142.5919 175.840819 
L 143.1747 176.580019 
L 143.7575 177.319219 
L 144.3403 177.319219 
L 144.9231 177.319219 
L 145.5059 178.058419 
L 146.0887 176.580019 
L 146.6715 175.101619 
L 147.2543 175.840819 
L 147.8371 176.580019 
L 148.4199 176.580019 
L 149.0027 177.319219 
L 149.5855 177.319219 
L 150.1683 178.797619 
L 150.7511 178.058419 
L 151.3339 178.058419 
L 151.9167 178.058419 
L 152.4995 178.058419 
L 153.0823 178.797619 
L 153.6651 178.058419 
L 154.2479 178.797619 
L 154.8307 178.797619 
L 155.4135 176.580019 
L 155.9963 177.319219 
L 156.5791 177.319219 
L 157.1619 178.797619 
L 157.7447 178.058419 
L 158.3275 176.580019 
L 158.9103 179.536819 
L 159.4931 178.058419 
L 160.0759 177.319219 
L 160.6587 175.840819 
L 161.2415 176.580019 
L 161.8243 176.580019 
L 162.4071 176.580019 
L 162.9899 175.840819 
L 163.5727 175.840819 
L 164.1555 175.101619 
L 164.7383 175.840819 
L 165.3211 175.840819 
L 165.9039 175.101619 
L 166.4867 175.101619 
L 167.0695 176.580019 
L 167.6523 175.101619 
L 168.2351 175.840819 
L 168.8179 176.580019 
L 169.4007 176.580019 
L 169.9835 175.101619 
L 170.5663 178.797619 
L 171.1491 178.797619 
L 171.7319 178.797619 
L 172.3147 179.536819 
L 172.8975 179.536819 
L 173.4803 183.232819 
L 174.0631 179.536819 
L 174.6459 186.189619 
L 175.2287 178.797619 
L 175.8115 177.319219 
L 176.3943 175.101619 
L 176.9771 163.274419 
L 177.5599 161.056819 
L 178.1427 158.839219 
L 178.7255 157.360819 
L 179.3083 155.143219 
L 179.8911 152.925619 
L 180.4739 150.708019 
L 181.0567 150.708019 
L 181.6395 150.708019 
L 182.2223 150.708019 
L 182.8051 146.272819 
L 183.3879 146.272819 
L 183.9707 145.533619 
L 184.5535 144.055219 
L 185.1363 144.055219 
L 185.7191 143.316019 
L 186.3019 141.837619 
L 186.8847 143.316019 
L 187.4675 140.359219 
L 188.0503 141.837619 
L 188.6331 141.837619 
L 189.2159 144.794419 
L 189.7987 143.316019 
L 190.3815 144.794419 
L 190.9643 144.794419 
L 191.5471 144.794419 
L 192.1299 144.794419 
L 192.7127 144.055219 
L 193.2955 142.576819 
L 193.8783 142.576819 
L 194.4611 141.098419 
L 195.0439 140.359219 
L 195.6267 141.098419 
L 196.2095 141.098419 
L 196.7923 141.098419 
L 197.3751 141.098419 
L 197.9579 141.098419 
L 198.5407 141.837619 
L 199.1235 141.837619 
L 199.7063 138.880819 
L 200.2891 140.359219 
L 200.8719 138.141619 
L 201.4547 138.880819 
L 202.0375 137.402419 
L 202.6203 141.837619 
L 203.2031 141.098419 
L 203.7859 140.359219 
L 204.3687 140.359219 
L 204.9515 136.663219 
L 205.5343 137.402419 
L 206.1171 136.663219 
L 206.6999 138.141619 
L 207.2827 138.141619 
L 207.8655 136.663219 
L 208.4483 137.402419 
L 209.0311 137.402419 
L 209.6139 137.402419 
L 210.1967 138.141619 
L 210.7795 138.880819 
L 211.3623 138.880819 
L 211.9451 138.880819 
L 212.5279 138.880819 
L 213.1107 138.880819 
L 213.6935 138.880819 
L 214.2763 138.880819 
L 214.8591 135.184819 
L 215.4419 132.967219 
L 216.0247 132.967219 
L 216.6075 131.488819 
L 217.1903 130.010419 
L 217.7731 128.532019 
L 218.3559 130.749619 
L 218.9387 128.532019 
L 219.5215 129.271219 
L 220.1043 130.749619 
L 220.6871 130.010419 
L 221.2699 130.010419 
L 221.8527 130.010419 
L 222.4355 126.314419 
L 223.0183 127.053619 
L 223.6011 128.532019 
L 224.1839 123.357619 
L 224.7667 126.314419 
L 225.3495 126.314419 
L 225.9323 125.575219 
L 226.5151 121.140019 
L 227.0979 124.096819 
L 227.6807 121.140019 
L 228.2635 121.140019 
L 228.8463 121.140019 
L 229.4291 120.400819 
L 230.0119 118.183219 
L 230.5947 117.444019 
L 231.1775 117.444019 
L 231.7603 115.226419 
L 232.3431 116.704819 
L 232.9259 115.965619 
L 233.5087 118.183219 
L 234.0915 115.965619 
L 234.6743 115.226419 
L 235.2571 114.487219 
L 235.8399 113.748019 
L 236.4227 113.008819 
L 237.0055 114.487219 
L 237.5883 113.008819 
L 238.1711 111.530419 
L 238.7539 114.487219 
L 239.3367 112.269619 
L 239.9195 114.487219 
L 240.5023 113.008819 
L 241.0851 113.008819 
L 241.6679 112.269619 
L 242.2507 113.748019 
L 242.8335 113.008819 
L 243.4163 112.269619 
L 243.9991 112.269619 
L 244.5819 108.573619 
L 245.1647 113.008819 
L 245.7475 107.834419 
L 246.3303 107.834419 
L 246.9131 107.834419 
L 247.4959 107.834419 
L 248.0787 109.312819 
L 248.6615 107.834419 
L 249.2443 107.095219 
L 249.8271 106.356019 
L 250.4099 104.877619 
L 250.9927 105.616819 
L 251.5755 107.095219 
L 251.5755 74.570419 
L 251.5755 74.570419 
L 250.9927 76.048819 
L 250.4099 78.266419 
L 249.8271 79.744819 
L 249.2443 80.484019 
L 248.6615 81.223219 
L 248.0787 79.744819 
L 247.4959 84.180019 
L 246.9131 84.180019 
L 246.3303 84.180019 
L 245.7475 84.180019 
L 245.1647 83.440819 
L 244.5819 84.919219 
L 243.9991 85.658419 
L 243.4163 85.658419 
L 242.8335 83.440819 
L 242.2507 84.180019 
L 241.6679 88.615219 
L 241.0851 86.397619 
L 240.5023 86.397619 
L 239.9195 87.876019 
L 239.3367 88.615219 
L 238.7539 87.876019 
L 238.1711 90.832819 
L 237.5883 89.354419 
L 237.0055 87.876019 
L 236.4227 89.354419 
L 235.8399 90.093619 
L 235.2571 87.876019 
L 234.6743 88.615219 
L 234.0915 89.354419 
L 233.5087 88.615219 
L 232.9259 92.311219 
L 232.3431 93.050419 
L 231.7603 91.572019 
L 231.1775 90.832819 
L 230.5947 93.789619 
L 230.0119 91.572019 
L 229.4291 93.789619 
L 228.8463 94.528819 
L 228.2635 94.528819 
L 227.6807 94.528819 
L 227.0979 94.528819 
L 226.5151 94.528819 
L 225.9323 93.050419 
L 225.3495 93.789619 
L 224.7667 93.789619 
L 224.1839 93.789619 
L 223.6011 93.050419 
L 223.0183 94.528819 
L 222.4355 93.789619 
L 221.8527 91.572019 
L 221.2699 91.572019 
L 220.6871 91.572019 
L 220.1043 95.268019 
L 219.5215 96.746419 
L 218.9387 98.964019 
L 218.3559 101.181619 
L 217.7731 98.964019 
L 217.1903 103.399219 
L 216.6075 101.920819 
L 216.0247 100.442419 
L 215.4419 106.356019 
L 214.8591 102.660019 
L 214.2763 103.399219 
L 213.6935 103.399219 
L 213.1107 103.399219 
L 212.5279 103.399219 
L 211.9451 103.399219 
L 211.3623 103.399219 
L 210.7795 103.399219 
L 210.1967 105.616819 
L 209.6139 107.834419 
L 209.0311 107.834419 
L 208.4483 107.834419 
L 207.8655 110.052019 
L 207.2827 108.573619 
L 206.6999 111.530419 
L 206.1171 115.965619 
L 205.5343 113.748019 
L 204.9515 115.965619 
L 204.3687 116.704819 
L 203.7859 116.704819 
L 203.2031 117.444019 
L 202.6203 118.183219 
L 202.0375 122.618419 
L 201.4547 121.140019 
L 200.8719 123.357619 
L 200.2891 122.618419 
L 199.7063 124.096819 
L 199.1235 121.140019 
L 198.5407 121.140019 
L 197.9579 123.357619 
L 197.3751 123.357619 
L 196.7923 126.314419 
L 196.2095 126.314419 
L 195.6267 126.314419 
L 195.0439 128.532019 
L 194.4611 126.314419 
L 193.8783 127.792819 
L 193.2955 127.792819 
L 192.7127 129.271219 
L 192.1299 130.010419 
L 191.5471 130.010419 
L 190.9643 130.010419 
L 190.3815 130.010419 
L 189.7987 131.488819 
L 189.2159 130.010419 
L 188.6331 132.967219 
L 188.0503 132.967219 
L 187.4675 134.445619 
L 186.8847 131.488819 
L 186.3019 132.967219 
L 185.7191 131.488819 
L 185.1363 132.228019 
L 184.5535 132.228019 
L 183.9707 130.749619 
L 183.3879 134.445619 
L 182.8051 134.445619 
L 182.2223 132.967219 
L 181.6395 132.967219 
L 181.0567 132.967219 
L 180.4739 132.967219 
L 179.8911 132.228019 
L 179.3083 131.488819 
L 178.7255 130.749619 
L 178.1427 129.271219 
L 177.5599 128.532019 
L 176.9771 127.792819 
L 176.3943 124.836019 
L 175.8115 124.096819 
L 175.2287 122.618419 
L 174.6459 138.880819 
L 174.0631 149.968819 
L 173.4803 141.837619 
L 172.8975 149.968819 
L 172.3147 149.968819 
L 171.7319 152.186419 
L 171.1491 152.186419 
L 170.5663 152.186419 
L 169.9835 157.360819 
L 169.4007 155.882419 
L 168.8179 155.882419 
L 168.2351 158.100019 
L 167.6523 157.360819 
L 167.0695 158.839219 
L 166.4867 160.317619 
L 165.9039 163.274419 
L 165.3211 161.056819 
L 164.7383 161.056819 
L 164.1555 163.274419 
L 163.5727 164.013619 
L 162.9899 164.013619 
L 162.4071 164.752819 
L 161.8243 164.752819 
L 161.2415 164.752819 
L 160.6587 166.970419 
L 160.0759 165.492019 
L 159.4931 166.231219 
L 158.9103 164.752819 
L 158.3275 167.709619 
L 157.7447 166.231219 
L 157.1619 166.970419 
L 156.5791 168.448819 
L 155.9963 168.448819 
L 155.4135 167.709619 
L 154.8307 166.970419 
L 154.2479 166.970419 
L 153.6651 166.231219 
L 153.0823 166.970419 
L 152.4995 166.231219 
L 151.9167 166.231219 
L 151.3339 166.231219 
L 150.7511 166.231219 
L 150.1683 164.013619 
L 149.5855 165.492019 
L 149.0027 165.492019 
L 148.4199 164.752819 
L 147.8371 167.709619 
L 147.2543 166.970419 
L 146.6715 166.231219 
L 146.0887 167.709619 
L 145.5059 166.231219 
L 144.9231 165.492019 
L 144.3403 165.492019 
L 143.7575 165.492019 
L 143.1747 167.709619 
L 142.5919 166.970419 
L 142.0091 166.970419 
L 141.4263 165.492019 
L 140.8435 165.492019 
L 140.2607 164.752819 
L 139.6779 166.970419 
L 139.0951 165.492019 
L 138.5123 166.231219 
L 137.9295 166.231219 
L 137.3467 166.231219 
L 136.7639 164.752819 
L 136.1811 166.231219 
L 135.5983 166.231219 
L 135.0155 166.231219 
L 134.4327 166.231219 
L 133.8499 166.231219 
L 133.2671 166.970419 
L 132.6843 166.970419 
L 132.1015 166.970419 
L 131.5187 166.970419 
L 130.9359 166.970419 
L 130.3531 166.970419 
L 129.7703 166.970419 
L 129.1875 167.709619 
L 128.6047 167.709619 
L 128.0219 167.709619 
L 127.4391 168.448819 
L 126.8563 168.448819 
L 126.2735 168.448819 
L 125.6907 168.448819 
L 125.1079 168.448819 
L 124.5251 166.970419 
L 123.9423 167.709619 
L 123.3595 168.448819 
L 122.7767 168.448819 
L 122.1939 167.709619 
L 121.6111 168.448819 
L 121.0283 167.709619 
L 120.4455 166.970419 
L 119.8627 167.709619 
L 119.2799 170.666419 
L 118.6971 170.666419 
L 118.1143 171.405619 
L 117.5315 171.405619 
L 116.9487 172.884019 
L 116.3659 171.405619 
L 115.7831 174.362419 
L 115.2003 174.362419 
L 114.6175 177.319219 
L 114.0347 179.536819 
L 113.4519 178.058419 
L 112.8691 178.058419 
L 112.2863 178.797619 
L 111.7035 180.276019 
L 111.1207 179.536819 
L 110.5379 181.754419 
L 109.9551 181.754419 
L 109.3723 182.493619 
L 108.7895 182.493619 
L 108.2067 182.493619 
L 107.6239 182.493619 
L 107.0411 182.493619 
L 106.4583 184.711219 
L 105.8755 183.232819 
L 105.2927 183.972019 
L 104.7099 183.972019 
L 104.1271 186.928819 
L 103.5443 185.450419 
L 102.9615 186.189619 
L 102.3787 186.189619 
L 101.7959 186.189619 
L 101.2131 186.189619 
L 100.6303 186.928819 
L 100.0475 186.928819 
L 99.4647 186.928819 
L 98.8819 186.928819 
L 98.2991 186.928819 
L 97.7163 186.928819 
L 97.1335 186.928819 
L 96.5507 186.928819 
L 95.9679 186.928819 
L 95.3851 188.407219 
L 94.8023 188.407219 
L 94.2195 189.146419 
L 93.6367 189.885619 
L 93.0539 189.146419 
L 92.4711 189.146419 
L 91.8883 189.146419 
L 91.3055 189.146419 
L 90.7227 189.146419 
L 90.1399 191.364019 
L 89.5571 189.885619 
L 88.9743 188.407219 
L 88.3915 191.364019 
L 87.8087 189.885619 
L 87.2259 191.364019 
L 86.6431 191.364019 
L 86.0603 192.842419 
L 85.4775 192.103219 
L 84.8947 191.364019 
L 84.3119 192.103219 
L 83.7291 192.842419 
L 83.1463 193.581619 
L 82.5635 196.538419 
L 81.9807 196.538419 
L 81.3979 198.756019 
L 80.8151 198.756019 
L 80.2323 198.756019 
L 79.6495 198.756019 
L 79.0667 198.756019 
L 78.4839 201.712819 
L 77.9011 200.973619 
L 77.3183 202.452019 
L 76.7355 203.191219 
L 76.1527 203.191219 
L 75.5699 203.191219 
L 74.9871 203.191219 
L 74.4043 203.930419 
L 73.8215 204.669619 
L 73.2387 204.669619 
L 72.6559 204.669619 
L 72.0731 205.408819 
L 71.4903 205.408819 
L 70.9075 204.669619 
L 70.3247 204.669619 
L 69.7419 204.669619 
L 69.1591 206.887219 
L 68.5763 206.887219 
L 67.9935 206.887219 
L 67.4107 207.626419 
L 66.8279 206.887219 
L 66.2451 206.887219 
L 65.6623 207.626419 
L 65.0795 207.626419 
L 64.4967 207.626419 
L 63.9139 209.844019 
L 63.3311 209.104819 
L 62.7483 209.104819 
L 62.1655 210.583219 
L 61.5827 211.322419 
L 60.9999 211.322419 
L 60.4171 212.061619 
L 59.8343 212.061619 
L 59.2515 212.800819 
L 58.6687 213.540019 
L 58.0859 213.540019 
L 57.5031 213.540019 
L 56.9203 213.540019 
L 56.3375 214.279219 
L 55.7547 215.018419 
L 55.1719 215.018419 
L 54.5891 215.757619 
L 54.0063 215.757619 
L 53.4235 215.757619 
L 52.8407 217.975219 
L 52.2579 216.496819 
L 51.6751 218.714419 
L 51.0923 218.714419 
L 50.5095 218.714419 
L 49.9267 219.453619 
L 49.3439 219.453619 
L 48.7611 219.453619 
L 48.1783 220.192819 
L 47.5955 220.192819 
z
" clip-path="url(#p5a9d32a951)" style="fill: #355f8d; fill-opacity: 0.2"/>
   </g>
   <g id="PolyCollection_2">
    <path d="M 47.5955 216.866419 
L 47.5955 224.258419 
L 47.8931 223.888819 
L 48.1907 223.149619 
L 48.4883 223.149619 
L 48.7859 223.888819 
L 49.0835 223.149619 
L 49.3811 220.932019 
L 49.6787 220.562419 
L 49.9763 220.192819 
L 50.2739 220.932019 
L 50.5715 220.932019 
L 50.8691 219.453619 
L 51.1667 220.562419 
L 51.4643 219.453619 
L 51.7619 220.192819 
L 52.0595 217.975219 
L 52.3571 218.714419 
L 52.6547 217.975219 
L 52.9523 218.714419 
L 53.2499 218.714419 
L 53.5475 218.714419 
L 53.8451 217.975219 
L 54.1427 216.496819 
L 54.4403 217.975219 
L 54.7379 217.975219 
L 55.0355 216.496819 
L 55.3331 216.496819 
L 55.6307 216.496819 
L 55.9283 216.496819 
L 56.2259 217.975219 
L 56.5235 217.975219 
L 56.8211 215.757619 
L 57.1187 216.866419 
L 57.4163 215.757619 
L 57.7139 215.757619 
L 58.0115 215.757619 
L 58.3091 214.648819 
L 58.6067 212.800819 
L 58.9043 212.800819 
L 59.2019 213.540019 
L 59.4995 212.061619 
L 59.7971 213.540019 
L 60.0947 213.540019 
L 60.3923 212.061619 
L 60.6899 212.061619 
L 60.9875 213.540019 
L 61.2851 211.322419 
L 61.5827 212.800819 
L 61.8803 210.583219 
L 62.1779 210.583219 
L 62.4755 208.365619 
L 62.7731 208.365619 
L 63.0707 209.104819 
L 63.3683 208.365619 
L 63.6659 208.365619 
L 63.9635 207.626419 
L 64.2611 209.104819 
L 64.5587 207.626419 
L 64.8563 207.626419 
L 65.1539 206.887219 
L 65.4515 206.887219 
L 65.7491 206.887219 
L 66.0467 206.887219 
L 66.3443 208.365619 
L 66.6419 209.844019 
L 66.9395 207.626419 
L 67.2371 207.626419 
L 67.5347 207.626419 
L 67.8323 206.887219 
L 68.1299 204.669619 
L 68.4275 204.669619 
L 68.7251 204.669619 
L 69.0227 203.191219 
L 69.3203 204.669619 
L 69.6179 203.191219 
L 69.9155 203.191219 
L 70.2131 204.669619 
L 70.5107 204.669619 
L 70.8083 204.669619 
L 71.1059 203.191219 
L 71.4035 203.930419 
L 71.7011 202.452019 
L 71.9987 202.452019 
L 72.2963 202.452019 
L 72.5939 201.712819 
L 72.8915 200.234419 
L 73.1891 200.234419 
L 73.4867 199.495219 
L 73.7843 199.495219 
L 74.0819 199.495219 
L 74.3795 199.495219 
L 74.6771 198.756019 
L 74.9747 198.756019 
L 75.2723 198.756019 
L 75.5699 198.756019 
L 75.8675 198.756019 
L 76.1651 200.234419 
L 76.4627 198.756019 
L 76.7603 199.495219 
L 77.0579 200.234419 
L 77.3555 199.864819 
L 77.6531 198.756019 
L 77.9507 198.756019 
L 78.2483 199.125619 
L 78.5459 199.864819 
L 78.8435 198.016819 
L 79.1411 200.234419 
L 79.4387 198.756019 
L 79.7363 198.756019 
L 80.0339 198.756019 
L 80.3315 198.756019 
L 80.6291 197.277619 
L 80.9267 198.756019 
L 81.2243 199.495219 
L 81.5219 198.386419 
L 81.8195 198.756019 
L 82.1171 198.756019 
L 82.4147 197.277619 
L 82.7123 198.756019 
L 83.0099 197.277619 
L 83.3075 198.756019 
L 83.6051 198.756019 
L 83.9027 198.016819 
L 84.2003 195.060019 
L 84.4979 196.168819 
L 84.7955 193.951219 
L 85.0931 195.060019 
L 85.3907 195.060019 
L 85.6883 192.842419 
L 85.9859 192.842419 
L 86.2835 191.733619 
L 86.5811 190.624819 
L 86.8787 190.624819 
L 87.1763 190.624819 
L 87.4739 190.624819 
L 87.7715 193.581619 
L 88.0691 191.364019 
L 88.3667 192.842419 
L 88.6643 190.624819 
L 88.9619 191.364019 
L 89.2595 189.885619 
L 89.5571 190.624819 
L 89.8547 191.364019 
L 90.1523 189.146419 
L 90.4499 189.516019 
L 90.7475 190.255219 
L 91.0451 190.624819 
L 91.3427 190.255219 
L 91.6403 189.885619 
L 91.9379 190.624819 
L 92.2355 189.885619 
L 92.5331 188.407219 
L 92.8307 186.928819 
L 93.1283 186.928819 
L 93.4259 186.928819 
L 93.7235 186.559219 
L 94.0211 183.972019 
L 94.3187 181.754419 
L 94.6163 182.493619 
L 94.9139 180.645619 
L 95.2115 181.754419 
L 95.5091 181.015219 
L 95.8067 181.015219 
L 96.1043 178.797619 
L 96.4019 178.058419 
L 96.6995 178.797619 
L 96.9971 178.058419 
L 97.2947 178.058419 
L 97.5923 176.580019 
L 97.8899 178.058419 
L 98.1875 175.840819 
L 98.4851 176.210419 
L 98.7827 175.101619 
L 99.0803 175.101619 
L 99.3779 174.732019 
L 99.6755 174.362419 
L 99.9731 173.623219 
L 100.2707 173.623219 
L 100.5683 175.101619 
L 100.8659 173.623219 
L 101.1635 173.623219 
L 101.4611 175.101619 
L 101.7587 173.623219 
L 102.0563 174.362419 
L 102.3539 172.884019 
L 102.6515 173.623219 
L 102.9491 172.884019 
L 103.2467 171.405619 
L 103.5443 172.884019 
L 103.8419 172.144819 
L 104.1395 171.405619 
L 104.4371 171.405619 
L 104.7347 171.405619 
L 105.0323 171.405619 
L 105.3299 172.884019 
L 105.6275 170.666419 
L 105.9251 170.666419 
L 106.2227 172.884019 
L 106.5203 174.362419 
L 106.8179 170.666419 
L 107.1155 171.405619 
L 107.4131 172.884019 
L 107.7107 169.927219 
L 108.0083 171.405619 
L 108.3059 171.405619 
L 108.6035 169.927219 
L 108.9011 172.884019 
L 109.1987 171.405619 
L 109.4963 170.296819 
L 109.7939 169.557619 
L 110.0915 169.927219 
L 110.3891 171.405619 
L 110.6867 169.188019 
L 110.9843 168.079219 
L 111.2819 168.448819 
L 111.5795 168.818419 
L 111.8771 168.818419 
L 112.1747 169.927219 
L 112.4723 167.709619 
L 112.7699 166.231219 
L 113.0675 166.231219 
L 113.3651 166.231219 
L 113.6627 164.013619 
L 113.9603 164.013619 
L 114.2579 163.274419 
L 114.5555 164.752819 
L 114.8531 161.796019 
L 115.1507 163.274419 
L 115.4483 162.904819 
L 115.7459 161.056819 
L 116.0435 163.644019 
L 116.3411 161.796019 
L 116.6387 161.056819 
L 116.9363 161.056819 
L 117.2339 160.687219 
L 117.5315 161.056819 
L 117.8291 158.839219 
L 118.1267 158.100019 
L 118.4243 155.882419 
L 118.7219 157.360819 
L 119.0195 155.882419 
L 119.3171 155.882419 
L 119.6147 155.882419 
L 119.9123 154.404019 
L 120.2099 155.882419 
L 120.5075 155.882419 
L 120.8051 155.143219 
L 121.1027 155.143219 
L 121.4003 155.882419 
L 121.6979 155.882419 
L 121.9955 154.404019 
L 122.2931 155.882419 
L 122.5907 155.882419 
L 122.8883 155.143219 
L 123.1859 155.882419 
L 123.4835 153.664819 
L 123.7811 156.252019 
L 124.0787 155.512819 
L 124.3763 152.925619 
L 124.6739 153.664819 
L 124.9715 153.664819 
L 125.2691 153.664819 
L 125.5667 152.186419 
L 125.8643 153.664819 
L 126.1619 152.925619 
L 126.4595 153.664819 
L 126.7571 153.295219 
L 127.0547 154.404019 
L 127.3523 154.404019 
L 127.6499 154.034419 
L 127.9475 152.186419 
L 128.2451 152.925619 
L 128.5427 151.447219 
L 128.8403 152.925619 
L 129.1379 154.404019 
L 129.4355 152.925619 
L 129.7331 150.708019 
L 130.0307 150.708019 
L 130.3283 151.447219 
L 130.6259 150.338419 
L 130.9235 149.229619 
L 131.2211 150.708019 
L 131.5187 149.229619 
L 131.8163 152.186419 
L 132.1139 149.229619 
L 132.4115 150.338419 
L 132.7091 147.012019 
L 133.0067 148.490419 
L 133.3043 149.229619 
L 133.6019 147.012019 
L 133.8995 146.272819 
L 134.1971 145.164019 
L 134.4947 146.272819 
L 134.7923 146.272819 
L 135.0899 145.164019 
L 135.3875 146.272819 
L 135.6851 144.055219 
L 135.9827 144.055219 
L 136.2803 144.794419 
L 136.5779 144.794419 
L 136.8755 144.055219 
L 137.1731 144.055219 
L 137.4707 144.055219 
L 137.7683 142.576819 
L 138.0659 144.055219 
L 138.3635 144.055219 
L 138.6611 144.794419 
L 138.9587 142.576819 
L 139.2563 143.316019 
L 139.5539 143.316019 
L 139.8515 143.685619 
L 140.1491 143.316019 
L 140.4467 142.576819 
L 140.7443 143.685619 
L 141.0419 141.837619 
L 141.3395 142.576819 
L 141.6371 142.946419 
L 141.9347 142.207219 
L 142.2323 142.946419 
L 142.5299 142.576819 
L 142.8275 142.207219 
L 143.1251 141.098419 
L 143.4227 141.098419 
L 143.7203 142.576819 
L 144.0179 142.576819 
L 144.3155 142.576819 
L 144.6131 142.576819 
L 144.9107 142.576819 
L 145.2083 141.837619 
L 145.5059 142.576819 
L 145.8035 142.576819 
L 146.1011 142.576819 
L 146.3987 142.576819 
L 146.6963 138.141619 
L 146.9939 139.250419 
L 147.2915 138.141619 
L 147.5891 138.141619 
L 147.8867 139.989619 
L 148.1843 138.511219 
L 148.4819 140.359219 
L 148.7795 140.359219 
L 149.0771 139.620019 
L 149.3747 140.359219 
L 149.6723 137.402419 
L 149.9699 140.359219 
L 150.2675 138.141619 
L 150.5651 138.141619 
L 150.8627 137.402419 
L 151.1603 134.076019 
L 151.4579 131.858419 
L 151.7555 137.402419 
L 152.0531 132.597619 
L 152.3507 135.184819 
L 152.6483 134.445619 
L 152.9459 130.749619 
L 153.2435 132.228019 
L 153.5411 131.488819 
L 153.8387 132.597619 
L 154.1363 133.706419 
L 154.4339 133.706419 
L 154.7315 132.967219 
L 155.0291 134.445619 
L 155.3267 133.706419 
L 155.6243 131.488819 
L 155.9219 133.706419 
L 156.2195 135.924019 
L 156.5171 135.184819 
L 156.8147 135.184819 
L 157.1123 134.445619 
L 157.4099 134.076019 
L 157.7075 135.184819 
L 158.0051 133.706419 
L 158.3027 135.184819 
L 158.6003 132.967219 
L 158.8979 128.162419 
L 159.1955 129.271219 
L 159.4931 127.423219 
L 159.7907 127.423219 
L 160.0883 128.532019 
L 160.3859 127.792819 
L 160.6835 123.357619 
L 160.9811 125.575219 
L 161.2787 125.575219 
L 161.5763 123.357619 
L 161.8739 123.357619 
L 162.1715 123.357619 
L 162.4691 122.618419 
L 162.7667 123.357619 
L 163.0643 123.357619 
L 163.3619 120.400819 
L 163.6595 123.357619 
L 163.9571 123.357619 
L 164.2547 118.183219 
L 164.5523 123.357619 
L 164.8499 121.140019 
L 165.1475 118.922419 
L 165.4451 120.400819 
L 165.7427 120.031219 
L 166.0403 119.661619 
L 166.3379 118.922419 
L 166.6355 118.922419 
L 166.9331 118.922419 
L 167.2307 115.596019 
L 167.5283 116.335219 
L 167.8259 117.444019 
L 168.1235 115.226419 
L 168.4211 115.226419 
L 168.7187 113.748019 
L 169.0163 118.183219 
L 169.3139 116.704819 
L 169.6115 116.704819 
L 169.9091 114.487219 
L 170.2067 115.965619 
L 170.5043 114.856819 
L 170.8019 114.856819 
L 171.0995 114.487219 
L 171.3971 114.487219 
L 171.6947 114.487219 
L 171.9923 114.487219 
L 172.2899 115.596019 
L 172.5875 113.008819 
L 172.8851 117.074419 
L 173.1827 115.965619 
L 173.4803 113.008819 
L 173.7779 115.226419 
L 174.0755 114.487219 
L 174.3731 113.008819 
L 174.6707 106.356019 
L 174.9683 107.834419 
L 175.2659 112.269619 
L 175.5635 107.834419 
L 175.8611 112.269619 
L 176.1587 115.965619 
L 176.4563 107.834419 
L 176.7539 113.008819 
L 177.0515 107.834419 
L 177.3491 109.312819 
L 177.6467 110.052019 
L 177.9443 110.052019 
L 178.2419 109.312819 
L 178.5395 108.573619 
L 178.8371 108.573619 
L 179.1347 107.464819 
L 179.4323 111.530419 
L 179.7299 107.834419 
L 180.0275 106.356019 
L 180.3251 106.356019 
L 180.6227 105.616819 
L 180.9203 103.399219 
L 181.2179 104.138419 
L 181.5155 101.920819 
L 181.8131 103.399219 
L 182.1107 101.181619 
L 182.4083 103.768819 
L 182.7059 103.399219 
L 183.0035 101.920819 
L 183.3011 105.616819 
L 183.5987 103.399219 
L 183.8963 102.660019 
L 184.1939 102.660019 
L 184.4915 102.660019 
L 184.7891 104.877619 
L 185.0867 101.181619 
L 185.3843 104.138419 
L 185.6819 103.029619 
L 185.9795 103.029619 
L 186.2771 103.029619 
L 186.5747 100.442419 
L 186.8723 101.181619 
L 187.1699 104.877619 
L 187.4675 103.399219 
L 187.7651 98.594419 
L 188.0627 100.442419 
L 188.3603 100.442419 
L 188.6579 101.181619 
L 188.9555 98.964019 
L 189.2531 99.703219 
L 189.5507 101.920819 
L 189.8483 101.551219 
L 190.1459 96.007219 
L 190.4435 96.376819 
L 190.7411 98.964019 
L 191.0387 96.007219 
L 191.3363 96.746419 
L 191.6339 97.485619 
L 191.9315 95.268019 
L 192.2291 93.789619 
L 192.5267 93.420019 
L 192.8243 90.832819 
L 193.1219 94.159219 
L 193.4195 95.637619 
L 193.7171 93.050419 
L 194.0147 92.311219 
L 194.3123 88.615219 
L 194.6099 90.093619 
L 194.9075 84.919219 
L 195.2051 84.180019 
L 195.5027 89.354419 
L 195.8003 85.658419 
L 196.0979 84.180019 
L 196.3955 80.484019 
L 196.6931 84.180019 
L 196.9907 83.071219 
L 197.2883 81.223219 
L 197.5859 82.701619 
L 197.8835 86.028019 
L 198.1811 79.744819 
L 198.4787 86.767219 
L 198.7763 86.397619 
L 199.0739 80.853619 
L 199.3715 82.332019 
L 199.6691 82.332019 
L 199.9667 82.332019 
L 200.2643 83.440819 
L 200.5619 81.962419 
L 200.8595 81.962419 
L 201.1571 77.157619 
L 201.4547 84.919219 
L 201.7523 80.484019 
L 202.0499 80.114419 
L 202.3475 80.114419 
L 202.6451 81.223219 
L 202.9427 79.005619 
L 203.2403 79.375219 
L 203.5379 79.005619 
L 203.8355 79.005619 
L 204.1331 79.744819 
L 204.4307 80.484019 
L 204.7283 76.788019 
L 205.0259 77.527219 
L 205.3235 76.788019 
L 205.6211 76.418419 
L 205.9187 79.744819 
L 206.2163 72.722419 
L 206.5139 75.309619 
L 206.8115 76.788019 
L 207.1091 72.722419 
L 207.4067 73.461619 
L 207.7043 71.244019 
L 208.0019 73.092019 
L 208.2995 70.874419 
L 208.5971 72.352819 
L 208.8947 75.679219 
L 209.1923 70.135219 
L 209.4899 69.026419 
L 209.7875 71.244019 
L 210.0851 70.135219 
L 210.3827 70.135219 
L 210.6803 70.135219 
L 210.9779 70.135219 
L 211.2755 69.396019 
L 211.5731 70.874419 
L 211.8707 70.874419 
L 212.1683 68.656819 
L 212.4659 70.874419 
L 212.7635 66.439219 
L 213.0611 66.808819 
L 213.3587 66.439219 
L 213.6563 69.765619 
L 213.9539 64.960819 
L 214.2515 70.874419 
L 214.5491 65.330419 
L 214.8467 63.482419 
L 215.1443 65.700019 
L 215.4419 64.960819 
L 215.7395 67.917619 
L 216.0371 66.439219 
L 216.3347 65.330419 
L 216.6323 64.591219 
L 216.9299 64.960819 
L 217.2275 65.700019 
L 217.5251 62.373619 
L 217.8227 66.069619 
L 218.1203 64.591219 
L 218.4179 63.482419 
L 218.7155 63.482419 
L 219.0131 65.700019 
L 219.3107 65.700019 
L 219.6083 62.004019 
L 219.9059 62.373619 
L 220.2035 66.069619 
L 220.5011 61.264819 
L 220.7987 64.221619 
L 221.0963 62.743219 
L 221.3939 60.895219 
L 221.6915 63.482419 
L 221.9891 62.373619 
L 222.2867 63.482419 
L 222.5843 61.264819 
L 222.8819 62.004019 
L 223.1795 62.004019 
L 223.4771 58.308019 
L 223.7747 61.264819 
L 224.0723 61.264819 
L 224.3699 63.112819 
L 224.6675 59.416819 
L 224.9651 59.786419 
L 225.2627 64.221619 
L 225.5603 59.416819 
L 225.8579 58.308019 
L 226.1555 56.829619 
L 226.4531 58.308019 
L 226.7507 57.568819 
L 227.0483 56.829619 
L 227.3459 54.981619 
L 227.6435 50.916019 
L 227.9411 58.308019 
L 228.2387 59.047219 
L 228.5363 58.677619 
L 228.8339 52.394419 
L 229.1315 53.133619 
L 229.4291 56.460019 
L 229.7267 50.916019 
L 230.0243 52.394419 
L 230.3219 57.568819 
L 230.6195 52.764019 
L 230.9171 57.568819 
L 231.2147 50.176819 
L 231.5123 51.655219 
L 231.8099 51.655219 
L 232.1075 52.394419 
L 232.4051 52.024819 
L 232.7027 52.024819 
L 233.0003 50.176819 
L 233.2979 51.655219 
L 233.5955 49.437619 
L 233.8931 50.176819 
L 234.1907 49.437619 
L 234.4883 50.916019 
L 234.7859 51.655219 
L 235.0835 55.351219 
L 235.3811 52.394419 
L 235.6787 48.698419 
L 235.9763 48.698419 
L 236.2739 49.807219 
L 236.5715 48.698419 
L 236.8691 50.176819 
L 237.1667 50.176819 
L 237.4643 47.959219 
L 237.7619 49.068019 
L 238.0595 47.959219 
L 238.3571 47.959219 
L 238.6547 45.741619 
L 238.9523 49.807219 
L 239.2499 50.176819 
L 239.5475 47.220019 
L 239.8451 50.546419 
L 240.1427 48.328819 
L 240.4403 45.372019 
L 240.7379 47.220019 
L 241.0355 49.807219 
L 241.3331 50.916019 
L 241.6307 47.589619 
L 241.9283 49.437619 
L 242.2259 43.524019 
L 242.5235 45.741619 
L 242.8211 43.524019 
L 243.1187 47.959219 
L 243.4163 45.741619 
L 243.7139 45.741619 
L 244.0115 45.741619 
L 244.3091 43.524019 
L 244.6067 44.263219 
L 244.9043 44.263219 
L 245.2019 46.480819 
L 245.4995 46.480819 
L 245.7971 43.154419 
L 246.0947 44.263219 
L 246.3923 39.458419 
L 246.6899 40.567219 
L 246.9875 43.893619 
L 247.2851 45.372019 
L 247.5827 41.306419 
L 247.8803 42.045619 
L 248.1779 36.871219 
L 248.4755 35.392819 
L 248.7731 38.349619 
L 249.0707 38.349619 
L 249.3683 43.893619 
L 249.6659 39.088819 
L 249.9635 41.306419 
L 250.2611 39.088819 
L 250.5587 36.871219 
L 250.8563 37.240819 
L 251.1539 38.349619 
L 251.4515 36.132019 
L 251.7491 37.610419 
L 252.0467 36.501619 
L 252.3443 39.828019 
L 252.6419 39.088819 
L 252.9395 35.392819 
L 253.2371 35.392819 
L 253.5347 37.610419 
L 253.8323 36.871219 
L 254.1299 35.392819 
L 254.4275 34.653619 
L 254.7251 36.132019 
L 255.0227 36.501619 
L 255.3203 32.436019 
L 255.6179 39.088819 
L 255.9155 32.066419 
L 256.2131 31.696819 
L 256.5107 35.762419 
L 256.8083 30.218419 
L 257.1059 27.261619 
L 257.4035 32.436019 
L 257.7011 34.284019 
L 257.9987 28.740019 
L 258.2963 25.044019 
L 258.5939 28.000819 
L 258.8915 29.479219 
L 259.1891 29.479219 
L 259.4867 29.109619 
L 259.7843 29.479219 
L 260.0819 27.261619 
L 260.3795 27.261619 
L 260.6771 27.261619 
L 260.9747 27.261619 
L 261.2723 28.000819 
L 261.5699 29.479219 
L 261.5699 11.738419 
L 261.5699 11.738419 
L 261.2723 11.738419 
L 260.9747 12.477619 
L 260.6771 12.477619 
L 260.3795 12.477619 
L 260.0819 12.477619 
L 259.7843 11.738419 
L 259.4867 12.847219 
L 259.1891 11.738419 
L 258.8915 11.738419 
L 258.5939 13.216819 
L 258.2963 13.216819 
L 257.9987 10.999219 
L 257.7011 10.629619 
L 257.4035 11.738419 
L 257.1059 12.477619 
L 256.8083 12.477619 
L 256.5107 10.629619 
L 256.2131 10.999219 
L 255.9155 12.847219 
L 255.6179 9.520819 
L 255.3203 11.738419 
L 255.0227 11.368819 
L 254.7251 12.477619 
L 254.4275 10.999219 
L 254.1299 11.738419 
L 253.8323 10.260019 
L 253.5347 10.999219 
L 253.2371 10.260019 
L 252.9395 11.738419 
L 252.6419 9.520819 
L 252.3443 10.260019 
L 252.0467 11.368819 
L 251.7491 10.999219 
L 251.4515 10.999219 
L 251.1539 11.738419 
L 250.8563 12.108019 
L 250.5587 13.216819 
L 250.2611 12.477619 
L 249.9635 11.738419 
L 249.6659 12.477619 
L 249.3683 12.847219 
L 249.0707 11.738419 
L 248.7731 11.738419 
L 248.4755 11.738419 
L 248.1779 13.216819 
L 247.8803 10.999219 
L 247.5827 11.738419 
L 247.2851 14.325619 
L 246.9875 12.847219 
L 246.6899 10.999219 
L 246.3923 14.325619 
L 246.0947 11.738419 
L 245.7971 15.064819 
L 245.4995 13.956019 
L 245.2019 13.956019 
L 244.9043 17.652019 
L 244.6067 17.652019 
L 244.3091 13.956019 
L 244.0115 16.173619 
L 243.7139 16.173619 
L 243.4163 16.173619 
L 243.1187 15.434419 
L 242.8211 16.912819 
L 242.5235 16.173619 
L 242.2259 19.869619 
L 241.9283 16.912819 
L 241.6307 18.021619 
L 241.3331 16.912819 
L 241.0355 18.760819 
L 240.7379 20.608819 
L 240.4403 20.239219 
L 240.1427 17.282419 
L 239.8451 16.543219 
L 239.5475 20.608819 
L 239.2499 19.130419 
L 238.9523 23.196019 
L 238.6547 25.044019 
L 238.3571 24.304819 
L 238.0595 24.304819 
L 237.7619 23.935219 
L 237.4643 24.304819 
L 237.1667 23.565619 
L 236.8691 23.565619 
L 236.5715 22.087219 
L 236.2739 24.674419 
L 235.9763 22.087219 
L 235.6787 28.000819 
L 235.3811 22.826419 
L 235.0835 22.826419 
L 234.7859 25.044019 
L 234.4883 25.783219 
L 234.1907 24.304819 
L 233.8931 29.479219 
L 233.5955 25.783219 
L 233.2979 25.044019 
L 233.0003 23.565619 
L 232.7027 25.413619 
L 232.4051 26.892019 
L 232.1075 25.783219 
L 231.8099 25.044019 
L 231.5123 26.522419 
L 231.2147 29.479219 
L 230.9171 23.565619 
L 230.6195 27.631219 
L 230.3219 28.000819 
L 230.0243 28.740019 
L 229.7267 30.218419 
L 229.4291 28.370419 
L 229.1315 29.479219 
L 228.8339 30.218419 
L 228.5363 27.631219 
L 228.2387 23.565619 
L 227.9411 28.740019 
L 227.6435 30.218419 
L 227.3459 28.370419 
L 227.0483 28.740019 
L 226.7507 28.000819 
L 226.4531 28.740019 
L 226.1555 30.218419 
L 225.8579 28.740019 
L 225.5603 28.370419 
L 225.2627 28.740019 
L 224.9651 30.218419 
L 224.6675 29.848819 
L 224.3699 29.109619 
L 224.0723 28.740019 
L 223.7747 28.740019 
L 223.4771 31.696819 
L 223.1795 29.479219 
L 222.8819 29.479219 
L 222.5843 28.740019 
L 222.2867 28.000819 
L 221.9891 31.327219 
L 221.6915 30.957619 
L 221.3939 32.805619 
L 221.0963 30.218419 
L 220.7987 34.653619 
L 220.5011 34.653619 
L 220.2035 35.023219 
L 219.9059 34.284019 
L 219.6083 30.957619 
L 219.3107 36.132019 
L 219.0131 34.653619 
L 218.7155 32.436019 
L 218.4179 39.828019 
L 218.1203 36.501619 
L 217.8227 35.023219 
L 217.5251 37.240819 
L 217.2275 36.132019 
L 216.9299 38.349619 
L 216.6323 36.501619 
L 216.3347 34.284019 
L 216.0371 36.871219 
L 215.7395 35.392819 
L 215.4419 36.871219 
L 215.1443 36.132019 
L 214.8467 39.828019 
L 214.5491 38.719219 
L 214.2515 38.349619 
L 213.9539 38.349619 
L 213.6563 37.240819 
L 213.3587 39.828019 
L 213.0611 38.719219 
L 212.7635 36.871219 
L 212.4659 38.349619 
L 212.1683 34.653619 
L 211.8707 38.349619 
L 211.5731 38.349619 
L 211.2755 39.828019 
L 210.9779 37.610419 
L 210.6803 39.088819 
L 210.3827 37.610419 
L 210.0851 34.653619 
L 209.7875 37.240819 
L 209.4899 39.458419 
L 209.1923 40.567219 
L 208.8947 37.240819 
L 208.5971 36.871219 
L 208.2995 38.349619 
L 208.0019 37.610419 
L 207.7043 40.197619 
L 207.4067 37.980019 
L 207.1091 41.676019 
L 206.8115 38.349619 
L 206.5139 39.828019 
L 206.2163 44.632819 
L 205.9187 41.306419 
L 205.6211 42.415219 
L 205.3235 42.784819 
L 205.0259 39.088819 
L 204.7283 44.263219 
L 204.4307 40.567219 
L 204.1331 41.306419 
L 203.8355 43.524019 
L 203.5379 40.567219 
L 203.2403 45.372019 
L 202.9427 42.045619 
L 202.6451 47.220019 
L 202.3475 44.632819 
L 202.0499 44.632819 
L 201.7523 45.002419 
L 201.4547 43.524019 
L 201.1571 49.068019 
L 200.8595 42.045619 
L 200.5619 46.480819 
L 200.2643 45.002419 
L 199.9667 46.850419 
L 199.6691 46.850419 
L 199.3715 46.850419 
L 199.0739 49.807219 
L 198.7763 43.524019 
L 198.4787 43.893619 
L 198.1811 50.176819 
L 197.8835 49.068019 
L 197.5859 50.176819 
L 197.2883 51.655219 
L 196.9907 52.024819 
L 196.6931 48.698419 
L 196.3955 53.872819 
L 196.0979 48.698419 
L 195.8003 51.655219 
L 195.5027 47.959219 
L 195.2051 51.655219 
L 194.9075 52.394419 
L 194.6099 48.698419 
L 194.3123 53.133619 
L 194.0147 46.480819 
L 193.7171 50.176819 
L 193.4195 46.850419 
L 193.1219 51.285619 
L 192.8243 52.394419 
L 192.5267 53.503219 
L 192.2291 49.437619 
L 191.9315 53.872819 
L 191.6339 53.133619 
L 191.3363 55.351219 
L 191.0387 60.525619 
L 190.7411 57.568819 
L 190.4435 59.416819 
L 190.1459 63.482419 
L 189.8483 58.677619 
L 189.5507 57.568819 
L 189.2531 61.264819 
L 188.9555 66.439219 
L 188.6579 64.221619 
L 188.3603 62.004019 
L 188.0627 66.439219 
L 187.7651 67.548019 
L 187.4675 63.482419 
L 187.1699 62.004019 
L 186.8723 65.700019 
L 186.5747 70.874419 
L 186.2771 66.069619 
L 185.9795 69.026419 
L 185.6819 69.026419 
L 185.3843 68.656819 
L 185.0867 71.613619 
L 184.7891 67.917619 
L 184.4915 70.135219 
L 184.1939 70.135219 
L 183.8963 70.135219 
L 183.5987 69.396019 
L 183.3011 67.178419 
L 183.0035 72.352819 
L 182.7059 76.788019 
L 182.4083 74.200819 
L 182.1107 80.484019 
L 181.8131 78.266419 
L 181.5155 79.744819 
L 181.2179 77.527219 
L 180.9203 78.266419 
L 180.6227 76.048819 
L 180.3251 75.309619 
L 180.0275 75.309619 
L 179.7299 73.831219 
L 179.4323 70.135219 
L 179.1347 77.896819 
L 178.8371 73.092019 
L 178.5395 79.005619 
L 178.2419 79.744819 
L 177.9443 79.005619 
L 177.6467 79.005619 
L 177.3491 79.744819 
L 177.0515 84.180019 
L 176.7539 79.005619 
L 176.4563 84.180019 
L 176.1587 76.048819 
L 175.8611 79.744819 
L 175.5635 84.180019 
L 175.2659 79.744819 
L 174.9683 84.180019 
L 174.6707 85.658419 
L 174.3731 83.440819 
L 174.0755 81.962419 
L 173.7779 82.701619 
L 173.4803 83.440819 
L 173.1827 83.440819 
L 172.8851 83.071219 
L 172.5875 83.440819 
L 172.2899 83.071219 
L 171.9923 87.876019 
L 171.6947 87.876019 
L 171.3971 87.876019 
L 171.0995 87.876019 
L 170.8019 89.724019 
L 170.5043 89.724019 
L 170.2067 87.876019 
L 169.9091 92.311219 
L 169.6115 90.093619 
L 169.3139 90.093619 
L 169.0163 90.093619 
L 168.7187 93.050419 
L 168.4211 94.528819 
L 168.1235 94.528819 
L 167.8259 90.832819 
L 167.5283 94.159219 
L 167.2307 93.420019 
L 166.9331 95.268019 
L 166.6355 95.268019 
L 166.3379 95.268019 
L 166.0403 96.007219 
L 165.7427 94.898419 
L 165.4451 95.268019 
L 165.1475 96.746419 
L 164.8499 94.528819 
L 164.5523 93.789619 
L 164.2547 97.485619 
L 163.9571 93.789619 
L 163.6595 93.789619 
L 163.3619 96.746419 
L 163.0643 93.789619 
L 162.7667 93.789619 
L 162.4691 94.528819 
L 162.1715 93.789619 
L 161.8739 93.789619 
L 161.5763 93.789619 
L 161.2787 93.050419 
L 160.9811 93.050419 
L 160.6835 93.789619 
L 160.3859 92.311219 
L 160.0883 96.007219 
L 159.7907 96.376819 
L 159.4931 96.376819 
L 159.1955 96.746419 
L 158.8979 100.072819 
L 158.6003 98.964019 
L 158.3027 99.703219 
L 158.0051 101.181619 
L 157.7075 99.703219 
L 157.4099 103.029619 
L 157.1123 104.877619 
L 156.8147 99.703219 
L 156.5171 104.138419 
L 156.2195 103.399219 
L 155.9219 105.616819 
L 155.6243 107.834419 
L 155.3267 105.616819 
L 155.0291 104.877619 
L 154.7315 106.356019 
L 154.4339 107.095219 
L 154.1363 107.095219 
L 153.8387 110.421619 
L 153.5411 113.748019 
L 153.2435 110.052019 
L 152.9459 115.965619 
L 152.6483 113.748019 
L 152.3507 111.530419 
L 152.0531 114.856819 
L 151.7555 113.748019 
L 151.4579 115.596019 
L 151.1603 114.856819 
L 150.8627 113.748019 
L 150.5651 114.487219 
L 150.2675 114.487219 
L 149.9699 113.748019 
L 149.6723 116.704819 
L 149.3747 113.748019 
L 149.0771 115.965619 
L 148.7795 113.748019 
L 148.4819 113.748019 
L 148.1843 119.292019 
L 147.8867 120.770419 
L 147.5891 120.400819 
L 147.2915 123.357619 
L 146.9939 122.988019 
L 146.6963 123.357619 
L 146.3987 121.879219 
L 146.1011 121.879219 
L 145.8035 124.836019 
L 145.5059 124.836019 
L 145.2083 122.618419 
L 144.9107 124.836019 
L 144.6131 124.836019 
L 144.3155 124.836019 
L 144.0179 124.836019 
L 143.7203 124.836019 
L 143.4227 126.314419 
L 143.1251 126.314419 
L 142.8275 127.423219 
L 142.5299 127.792819 
L 142.2323 126.684019 
L 141.9347 128.901619 
L 141.6371 129.640819 
L 141.3395 130.749619 
L 141.0419 130.010419 
L 140.7443 130.380019 
L 140.4467 130.749619 
L 140.1491 131.488819 
L 139.8515 130.380019 
L 139.5539 131.488819 
L 139.2563 131.488819 
L 138.9587 133.706419 
L 138.6611 130.010419 
L 138.3635 132.228019 
L 138.0659 132.228019 
L 137.7683 133.706419 
L 137.4707 132.228019 
L 137.1731 132.228019 
L 136.8755 133.706419 
L 136.5779 132.967219 
L 136.2803 134.445619 
L 135.9827 135.184819 
L 135.6851 135.184819 
L 135.3875 134.445619 
L 135.0899 134.815219 
L 134.7923 134.445619 
L 134.4947 134.445619 
L 134.1971 134.815219 
L 133.8995 134.445619 
L 133.6019 135.184819 
L 133.3043 134.445619 
L 133.0067 133.706419 
L 132.7091 135.184819 
L 132.4115 134.076019 
L 132.1139 134.445619 
L 131.8163 134.445619 
L 131.5187 134.445619 
L 131.2211 135.924019 
L 130.9235 134.445619 
L 130.6259 134.076019 
L 130.3283 136.663219 
L 130.0307 138.880819 
L 129.7331 138.880819 
L 129.4355 138.141619 
L 129.1379 136.663219 
L 128.8403 138.141619 
L 128.5427 139.620019 
L 128.2451 138.141619 
L 127.9475 138.880819 
L 127.6499 137.772019 
L 127.3523 139.620019 
L 127.0547 139.620019 
L 126.7571 139.989619 
L 126.4595 140.359219 
L 126.1619 141.098419 
L 125.8643 141.837619 
L 125.5667 143.316019 
L 125.2691 141.837619 
L 124.9715 141.837619 
L 124.6739 141.837619 
L 124.3763 144.055219 
L 124.0787 142.207219 
L 123.7811 142.946419 
L 123.4835 144.794419 
L 123.1859 144.055219 
L 122.8883 144.794419 
L 122.5907 144.055219 
L 122.2931 144.055219 
L 121.9955 145.533619 
L 121.6979 144.055219 
L 121.4003 144.055219 
L 121.1027 144.794419 
L 120.8051 144.794419 
L 120.5075 144.055219 
L 120.2099 144.055219 
L 119.9123 145.533619 
L 119.6147 144.055219 
L 119.3171 144.055219 
L 119.0195 144.055219 
L 118.7219 142.576819 
L 118.4243 144.055219 
L 118.1267 144.794419 
L 117.8291 144.055219 
L 117.5315 146.272819 
L 117.2339 144.424819 
L 116.9363 146.272819 
L 116.6387 146.272819 
L 116.3411 145.533619 
L 116.0435 145.903219 
L 115.7459 146.272819 
L 115.4483 146.642419 
L 115.1507 148.490419 
L 114.8531 149.968819 
L 114.5555 147.012019 
L 114.2579 148.490419 
L 113.9603 144.794419 
L 113.6627 147.751219 
L 113.3651 147.012019 
L 113.0675 147.012019 
L 112.7699 145.533619 
L 112.4723 144.055219 
L 112.1747 143.316019 
L 111.8771 146.642419 
L 111.5795 148.120819 
L 111.2819 147.751219 
L 110.9843 150.338419 
L 110.6867 148.490419 
L 110.3891 147.751219 
L 110.0915 149.229619 
L 109.7939 150.338419 
L 109.4963 151.077619 
L 109.1987 153.664819 
L 108.9011 152.186419 
L 108.6035 155.143219 
L 108.3059 153.664819 
L 108.0083 153.664819 
L 107.7107 155.143219 
L 107.4131 152.186419 
L 107.1155 155.143219 
L 106.8179 157.360819 
L 106.5203 153.664819 
L 106.2227 155.143219 
L 105.9251 158.839219 
L 105.6275 158.839219 
L 105.3299 158.100019 
L 105.0323 159.578419 
L 104.7347 159.578419 
L 104.4371 159.578419 
L 104.1395 159.578419 
L 103.8419 160.317619 
L 103.5443 161.056819 
L 103.2467 162.535219 
L 102.9491 161.056819 
L 102.6515 161.796019 
L 102.3539 164.013619 
L 102.0563 162.535219 
L 101.7587 164.752819 
L 101.4611 163.274419 
L 101.1635 164.752819 
L 100.8659 164.752819 
L 100.5683 163.274419 
L 100.2707 164.752819 
L 99.9731 164.752819 
L 99.6755 165.492019 
L 99.3779 164.383219 
L 99.0803 166.231219 
L 98.7827 166.231219 
L 98.4851 165.861619 
L 98.1875 166.970419 
L 97.8899 166.231219 
L 97.5923 167.709619 
L 97.2947 166.231219 
L 96.9971 166.231219 
L 96.6995 166.970419 
L 96.4019 167.709619 
L 96.1043 166.970419 
L 95.8067 166.231219 
L 95.5091 166.231219 
L 95.2115 166.970419 
L 94.9139 167.340019 
L 94.6163 167.709619 
L 94.3187 166.970419 
L 94.0211 166.231219 
L 93.7235 167.340019 
L 93.4259 169.188019 
L 93.1283 169.188019 
L 92.8307 169.188019 
L 92.5331 167.709619 
L 92.2355 169.188019 
L 91.9379 169.927219 
L 91.6403 172.144819 
L 91.3427 171.036019 
L 91.0451 171.405619 
L 90.7475 173.992819 
L 90.4499 176.210419 
L 90.1523 174.362419 
L 89.8547 176.580019 
L 89.5571 177.319219 
L 89.2595 178.058419 
L 88.9619 178.058419 
L 88.6643 178.797619 
L 88.3667 178.058419 
L 88.0691 179.536819 
L 87.7715 178.797619 
L 87.4739 181.754419 
L 87.1763 181.754419 
L 86.8787 181.754419 
L 86.5811 181.754419 
L 86.2835 181.384819 
L 85.9859 181.015219 
L 85.6883 181.015219 
L 85.3907 180.276019 
L 85.0931 180.276019 
L 84.7955 183.602419 
L 84.4979 182.863219 
L 84.2003 183.232819 
L 83.9027 183.232819 
L 83.6051 183.972019 
L 83.3075 183.972019 
L 83.0099 185.450419 
L 82.7123 183.972019 
L 82.4147 185.450419 
L 82.1171 183.972019 
L 81.8195 183.972019 
L 81.5219 185.080819 
L 81.2243 184.711219 
L 80.9267 185.450419 
L 80.6291 185.450419 
L 80.3315 186.928819 
L 80.0339 186.928819 
L 79.7363 186.928819 
L 79.4387 186.928819 
L 79.1411 188.407219 
L 78.8435 189.146419 
L 78.5459 188.037619 
L 78.2483 188.776819 
L 77.9507 189.885619 
L 77.6531 189.885619 
L 77.3555 189.516019 
L 77.0579 191.364019 
L 76.7603 192.103219 
L 76.4627 192.842419 
L 76.1651 191.364019 
L 75.8675 192.842419 
L 75.5699 192.842419 
L 75.2723 192.842419 
L 74.9747 192.842419 
L 74.6771 192.842419 
L 74.3795 193.581619 
L 74.0819 193.581619 
L 73.7843 193.581619 
L 73.4867 193.581619 
L 73.1891 194.320819 
L 72.8915 194.320819 
L 72.5939 192.842419 
L 72.2963 193.581619 
L 71.9987 193.581619 
L 71.7011 193.581619 
L 71.4035 196.538419 
L 71.1059 194.320819 
L 70.8083 195.799219 
L 70.5107 195.799219 
L 70.2131 195.799219 
L 69.9155 197.277619 
L 69.6179 197.277619 
L 69.3203 195.799219 
L 69.0227 197.277619 
L 68.7251 198.756019 
L 68.4275 198.756019 
L 68.1299 198.756019 
L 67.8323 198.016819 
L 67.5347 198.756019 
L 67.2371 198.756019 
L 66.9395 201.712819 
L 66.6419 200.973619 
L 66.3443 202.452019 
L 66.0467 203.930419 
L 65.7491 203.930419 
L 65.4515 203.930419 
L 65.1539 203.930419 
L 64.8563 204.669619 
L 64.5587 204.669619 
L 64.2611 203.191219 
L 63.9635 204.669619 
L 63.6659 205.408819 
L 63.3683 205.408819 
L 63.0707 204.669619 
L 62.7731 205.408819 
L 62.4755 205.408819 
L 62.1779 204.669619 
L 61.8803 204.669619 
L 61.5827 203.930419 
L 61.2851 205.408819 
L 60.9875 204.669619 
L 60.6899 206.148019 
L 60.3923 206.148019 
L 60.0947 204.669619 
L 59.7971 204.669619 
L 59.4995 206.148019 
L 59.2019 204.669619 
L 58.9043 206.887219 
L 58.6067 206.887219 
L 58.3091 207.256819 
L 58.0115 206.887219 
L 57.7139 206.887219 
L 57.4163 206.887219 
L 57.1187 206.517619 
L 56.8211 206.887219 
L 56.5235 206.148019 
L 56.2259 206.148019 
L 55.9283 210.583219 
L 55.6307 210.583219 
L 55.3331 210.583219 
L 55.0355 210.583219 
L 54.7379 209.104819 
L 54.4403 209.104819 
L 54.1427 210.583219 
L 53.8451 209.104819 
L 53.5475 209.844019 
L 53.2499 209.844019 
L 52.9523 209.844019 
L 52.6547 212.061619 
L 52.3571 209.844019 
L 52.0595 212.061619 
L 51.7619 211.322419 
L 51.4643 210.583219 
L 51.1667 211.692019 
L 50.8691 213.540019 
L 50.5715 212.061619 
L 50.2739 212.061619 
L 49.9763 214.279219 
L 49.6787 213.170419 
L 49.3811 213.540019 
L 49.0835 211.322419 
L 48.7859 212.061619 
L 48.4883 211.322419 
L 48.1907 214.279219 
L 47.8931 215.018419 
L 47.5955 216.866419 
z
" clip-path="url(#p5a9d32a951)" style="fill: #1fa188; fill-opacity: 0.2"/>
   </g>
   <g id="PolyCollection_3">
    <path d="M 54.2915 212.061619 
L 54.2915 220.932019 
L 54.5891 219.453619 
L 54.8867 220.932019 
L 55.1843 218.714419 
L 55.4819 217.975219 
L 55.7795 218.714419 
L 56.0771 218.714419 
L 56.3747 220.192819 
L 56.6723 218.714419 
L 56.9699 219.453619 
L 57.2675 219.084019 
L 57.5651 217.236019 
L 57.8627 215.757619 
L 58.1603 217.236019 
L 58.4579 217.236019 
L 58.7555 217.236019 
L 59.0531 215.018419 
L 59.3507 215.018419 
L 59.6483 215.018419 
L 59.9459 215.018419 
L 60.2435 213.540019 
L 60.5411 213.540019 
L 60.8387 213.540019 
L 61.1363 215.018419 
L 61.4339 215.018419 
L 61.7315 213.540019 
L 62.0291 215.018419 
L 62.3267 210.583219 
L 62.6243 210.952819 
L 62.9219 211.322419 
L 63.2195 211.322419 
L 63.5171 209.104819 
L 63.8147 210.583219 
L 64.1123 211.322419 
L 64.4099 210.583219 
L 64.7075 210.583219 
L 65.0051 212.061619 
L 65.3027 209.844019 
L 65.6003 209.844019 
L 65.8979 209.844019 
L 66.1955 209.844019 
L 66.4931 212.800819 
L 66.7907 209.844019 
L 67.0883 209.844019 
L 67.3859 207.626419 
L 67.6835 208.365619 
L 67.9811 208.365619 
L 68.2787 208.365619 
L 68.5763 208.365619 
L 68.8739 208.365619 
L 69.1715 208.365619 
L 69.4691 207.996019 
L 69.7667 209.474419 
L 70.0643 209.844019 
L 70.3619 209.104819 
L 70.6595 206.887219 
L 70.9571 206.517619 
L 71.2547 206.517619 
L 71.5523 206.517619 
L 71.8499 206.887219 
L 72.1475 206.148019 
L 72.4451 207.256819 
L 72.7427 206.887219 
L 73.0403 205.408819 
L 73.3379 207.996019 
L 73.6355 204.669619 
L 73.9331 207.626419 
L 74.2307 206.148019 
L 74.5283 207.626419 
L 74.8259 206.887219 
L 75.1235 206.148019 
L 75.4211 206.887219 
L 75.7187 200.604019 
L 76.0163 205.778419 
L 76.3139 204.669619 
L 76.6115 204.669619 
L 76.9091 200.234419 
L 77.2067 200.234419 
L 77.5043 198.016819 
L 77.8019 196.538419 
L 78.0995 198.016819 
L 78.3971 195.799219 
L 78.6947 197.277619 
L 78.9923 197.277619 
L 79.2899 198.016819 
L 79.5875 197.277619 
L 79.8851 197.277619 
L 80.1827 197.277619 
L 80.4803 197.277619 
L 80.7779 197.277619 
L 81.0755 197.277619 
L 81.3731 200.234419 
L 81.6707 196.168819 
L 81.9683 204.669619 
L 82.2659 195.060019 
L 82.5635 199.495219 
L 82.8611 196.538419 
L 83.1587 197.277619 
L 83.4563 197.277619 
L 83.7539 197.277619 
L 84.0515 193.212019 
L 84.3491 197.277619 
L 84.6467 196.538419 
L 84.9443 195.799219 
L 85.2419 196.538419 
L 85.5395 196.538419 
L 85.8371 195.799219 
L 86.1347 196.538419 
L 86.4323 193.581619 
L 86.7299 192.842419 
L 87.0275 195.799219 
L 87.3251 198.016819 
L 87.6227 198.756019 
L 87.9203 200.234419 
L 88.2179 203.191219 
L 88.5155 200.604019 
L 88.8131 206.148019 
L 89.1107 198.016819 
L 89.4083 196.168819 
L 89.7059 191.733619 
L 90.0035 190.255219 
L 90.3011 190.624819 
L 90.5987 191.364019 
L 90.8963 185.450419 
L 91.1939 187.298419 
L 91.4915 183.602419 
L 91.7891 189.146419 
L 92.0867 183.972019 
L 92.3843 186.928819 
L 92.6819 183.602419 
L 92.9795 182.493619 
L 93.2771 182.493619 
L 93.5747 182.493619 
L 93.8723 182.493619 
L 94.1699 183.602419 
L 94.4675 182.493619 
L 94.7651 182.493619 
L 95.0627 182.493619 
L 95.3603 180.276019 
L 95.6579 180.276019 
L 95.9555 180.276019 
L 96.2531 180.276019 
L 96.5507 180.276019 
L 96.8483 175.840819 
L 97.1459 175.840819 
L 97.4435 176.210419 
L 97.7411 175.471219 
L 98.0387 175.101619 
L 98.3363 176.949619 
L 98.6339 176.580019 
L 98.9315 175.101619 
L 99.2291 175.840819 
L 99.5267 175.471219 
L 99.8243 175.471219 
L 100.1219 176.580019 
L 100.4195 175.840819 
L 100.7171 176.580019 
L 101.0147 174.362419 
L 101.3123 174.362419 
L 101.6099 174.362419 
L 101.9075 172.144819 
L 102.2051 174.362419 
L 102.5027 174.362419 
L 102.8003 175.101619 
L 103.0979 174.732019 
L 103.3955 175.840819 
L 103.6931 173.623219 
L 103.9907 174.732019 
L 104.2883 173.623219 
L 104.5859 174.362419 
L 104.8835 171.405619 
L 105.1811 176.580019 
L 105.4787 176.580019 
L 105.7763 176.580019 
L 106.0739 173.623219 
L 106.3715 176.580019 
L 106.6691 179.906419 
L 106.9667 175.840819 
L 107.2643 176.210419 
L 107.5619 181.754419 
L 107.8595 174.362419 
L 108.1571 178.058419 
L 108.4547 180.276019 
L 108.7523 181.384819 
L 109.0499 184.341619 
L 109.3475 181.384819 
L 109.6451 181.754419 
L 109.9427 182.493619 
L 110.2403 181.754419 
L 110.5379 182.493619 
L 110.8355 178.428019 
L 111.1331 176.580019 
L 111.4307 178.797619 
L 111.7283 178.797619 
L 112.0259 177.319219 
L 112.3235 182.863219 
L 112.6211 180.645619 
L 112.9187 178.058419 
L 113.2163 183.232819 
L 113.5139 175.471219 
L 113.8115 178.058419 
L 114.1091 176.210419 
L 114.4067 177.688819 
L 114.7043 175.471219 
L 115.0019 172.884019 
L 115.2995 156.621619 
L 115.5971 160.317619 
L 115.8947 167.340019 
L 116.1923 158.100019 
L 116.4899 164.383219 
L 116.7875 159.948019 
L 117.0851 150.708019 
L 117.3827 152.556019 
L 117.6803 152.186419 
L 117.9779 152.186419 
L 118.2755 152.186419 
L 118.5731 152.925619 
L 118.8707 152.925619 
L 119.1683 151.447219 
L 119.4659 147.012019 
L 119.7635 149.229619 
L 120.0611 152.925619 
L 120.3587 150.338419 
L 120.6563 149.229619 
L 120.9539 149.229619 
L 121.2515 144.794419 
L 121.5491 145.533619 
L 121.8467 149.229619 
L 122.1443 149.229619 
L 122.4419 148.490419 
L 122.7395 149.968819 
L 123.0371 147.012019 
L 123.3347 147.012019 
L 123.6323 144.794419 
L 123.9299 144.794419 
L 124.2275 147.012019 
L 124.5251 152.925619 
L 124.8227 145.533619 
L 125.1203 147.012019 
L 125.4179 144.055219 
L 125.7155 147.751219 
L 126.0131 148.490419 
L 126.3107 146.272819 
L 126.6083 146.272819 
L 126.9059 148.490419 
L 127.2035 148.120819 
L 127.5011 147.751219 
L 127.7987 144.794419 
L 128.0963 146.642419 
L 128.3939 154.404019 
L 128.6915 147.751219 
L 128.9891 155.882419 
L 129.2867 149.229619 
L 129.5843 152.925619 
L 129.8819 154.404019 
L 130.1795 152.925619 
L 130.4771 155.512819 
L 130.7747 155.143219 
L 131.0723 155.143219 
L 131.3699 155.143219 
L 131.6675 158.469619 
L 131.9651 155.882419 
L 132.2627 159.208819 
L 132.5603 160.317619 
L 132.8579 156.621619 
L 133.1555 164.752819 
L 133.4531 157.360819 
L 133.7507 158.839219 
L 134.0483 157.360819 
L 134.3459 158.100019 
L 134.6435 160.317619 
L 134.9411 162.165619 
L 135.2387 155.143219 
L 135.5363 153.664819 
L 135.8339 152.925619 
L 136.1315 152.925619 
L 136.4291 157.360819 
L 136.7267 158.839219 
L 137.0243 155.143219 
L 137.3219 148.490419 
L 137.6195 154.404019 
L 137.9171 151.447219 
L 138.2147 145.533619 
L 138.5123 148.490419 
L 138.8099 149.968819 
L 139.1075 150.708019 
L 139.4051 148.490419 
L 139.7027 147.751219 
L 140.0003 141.837619 
L 140.2979 143.316019 
L 140.5955 147.751219 
L 140.8931 144.055219 
L 141.1907 147.012019 
L 141.4883 145.533619 
L 141.7859 145.533619 
L 142.0835 144.055219 
L 142.3811 130.010419 
L 142.6787 133.706419 
L 142.9763 134.445619 
L 143.2739 129.271219 
L 143.5715 124.836019 
L 143.8691 135.184819 
L 144.1667 128.532019 
L 144.4643 138.141619 
L 144.7619 135.554419 
L 145.0595 136.663219 
L 145.3571 128.162419 
L 145.6547 128.901619 
L 145.9523 132.967219 
L 146.2499 126.684019 
L 146.5475 127.792819 
L 146.8451 123.357619 
L 147.1427 124.836019 
L 147.4403 126.684019 
L 147.7379 124.836019 
L 148.0355 123.357619 
L 148.3331 126.684019 
L 148.6307 124.096819 
L 148.9283 122.248819 
L 149.2259 126.314419 
L 149.5235 121.140019 
L 149.8211 126.314419 
L 150.1187 122.988019 
L 150.4163 120.770419 
L 150.7139 124.836019 
L 151.0115 118.922419 
L 151.3091 124.836019 
L 151.6067 120.400819 
L 151.9043 113.748019 
L 152.2019 124.836019 
L 152.4995 121.140019 
L 152.7971 118.183219 
L 153.0947 113.008819 
L 153.3923 126.314419 
L 153.6899 106.356019 
L 153.9875 117.444019 
L 154.2851 112.269619 
L 154.5827 109.312819 
L 154.8803 112.269619 
L 155.1779 115.226419 
L 155.4755 114.487219 
L 155.7731 113.748019 
L 156.0707 107.834419 
L 156.3683 112.269619 
L 156.6659 106.356019 
L 156.9635 112.269619 
L 157.2611 106.356019 
L 157.5587 110.052019 
L 157.8563 106.356019 
L 158.1539 103.399219 
L 158.4515 105.616819 
L 158.7491 105.616819 
L 159.0467 106.356019 
L 159.3443 97.485619 
L 159.6419 99.703219 
L 159.9395 97.485619 
L 160.2371 98.964019 
L 160.5347 97.485619 
L 160.8323 97.485619 
L 161.1299 97.485619 
L 161.4275 100.442419 
L 161.7251 95.268019 
L 162.0227 93.050419 
L 162.3203 97.485619 
L 162.6179 98.964019 
L 162.9155 96.007219 
L 163.2131 96.376819 
L 163.5107 97.485619 
L 163.8083 97.485619 
L 164.1059 98.224819 
L 164.4035 98.594419 
L 164.7011 88.615219 
L 164.9987 90.093619 
L 165.2963 93.789619 
L 165.5939 96.376819 
L 165.8915 87.876019 
L 166.1891 96.007219 
L 166.4867 90.463219 
L 166.7843 91.572019 
L 167.0819 89.354419 
L 167.3795 96.376819 
L 167.6771 88.245619 
L 167.9747 88.615219 
L 168.2723 89.354419 
L 168.5699 86.397619 
L 168.8675 90.093619 
L 169.1651 87.876019 
L 169.4627 87.876019 
L 169.7603 88.615219 
L 170.0579 90.832819 
L 170.3555 86.397619 
L 170.6531 91.202419 
L 170.9507 88.984819 
L 171.2483 87.136819 
L 171.5459 86.028019 
L 171.8435 86.397619 
L 172.1411 87.136819 
L 172.4387 87.506419 
L 172.7363 84.919219 
L 173.0339 83.440819 
L 173.3315 85.288819 
L 173.6291 84.919219 
L 173.9267 82.332019 
L 174.2243 87.136819 
L 174.5219 84.919219 
L 174.8195 87.876019 
L 175.1171 84.549619 
L 175.4147 81.223219 
L 175.7123 86.028019 
L 176.0099 82.332019 
L 176.3075 74.570419 
L 176.6051 85.288819 
L 176.9027 81.223219 
L 177.2003 85.658419 
L 177.4979 84.549619 
L 177.7955 87.136819 
L 178.0931 82.701619 
L 178.3907 83.440819 
L 178.6883 79.005619 
L 178.9859 81.962419 
L 179.2835 77.896819 
L 179.5811 79.744819 
L 179.8787 75.679219 
L 180.1763 79.005619 
L 180.4739 80.484019 
L 180.7715 77.896819 
L 181.0691 76.048819 
L 181.3667 82.332019 
L 181.6643 82.332019 
L 181.9619 72.722419 
L 182.2595 72.352819 
L 182.5571 74.570419 
L 182.8547 73.461619 
L 183.1523 77.157619 
L 183.4499 74.570419 
L 183.7475 70.504819 
L 184.0451 71.983219 
L 184.3427 75.309619 
L 184.6403 74.570419 
L 184.9379 71.983219 
L 185.2355 74.940019 
L 185.5331 80.114419 
L 185.8307 76.048819 
L 186.1283 76.048819 
L 186.4259 78.266419 
L 186.7235 70.135219 
L 187.0211 75.679219 
L 187.3187 75.309619 
L 187.6163 76.048819 
L 187.9139 76.048819 
L 188.2115 75.309619 
L 188.5091 73.461619 
L 188.8067 75.679219 
L 189.1043 74.200819 
L 189.4019 71.983219 
L 189.6995 73.461619 
L 189.9971 74.570419 
L 190.2947 73.831219 
L 190.5923 70.135219 
L 190.8899 72.722419 
L 191.1875 73.092019 
L 191.4851 69.765619 
L 191.7827 76.788019 
L 192.0803 71.244019 
L 192.3779 75.309619 
L 192.6755 63.852019 
L 192.9731 71.244019 
L 193.2707 68.656819 
L 193.5683 62.004019 
L 193.8659 66.439219 
L 194.1635 70.135219 
L 194.4611 63.852019 
L 194.7587 61.264819 
L 195.0563 69.765619 
L 195.3539 75.309619 
L 195.6515 71.613619 
L 195.9491 75.309619 
L 196.2467 66.439219 
L 196.5443 70.874419 
L 196.8419 69.026419 
L 197.1395 65.700019 
L 197.4371 63.112819 
L 197.7347 69.396019 
L 198.0323 68.656819 
L 198.3299 66.808819 
L 198.6275 69.396019 
L 198.9251 69.396019 
L 199.2227 68.656819 
L 199.5203 63.852019 
L 199.8179 70.504819 
L 200.1155 65.700019 
L 200.4131 67.917619 
L 200.7107 66.439219 
L 201.0083 71.983219 
L 201.3059 62.373619 
L 201.6035 67.548019 
L 201.9011 64.960819 
L 202.1987 67.548019 
L 202.4963 64.960819 
L 202.7939 57.938419 
L 203.0915 61.264819 
L 203.3891 59.047219 
L 203.6867 61.634419 
L 203.9843 62.004019 
L 204.2819 62.743219 
L 204.5795 56.829619 
L 204.8771 62.743219 
L 205.1747 61.264819 
L 205.4723 62.004019 
L 205.7699 57.568819 
L 206.0675 60.525619 
L 206.3651 59.416819 
L 206.6627 56.829619 
L 206.9603 56.460019 
L 207.2579 58.308019 
L 207.5555 58.677619 
L 207.8531 62.743219 
L 208.1507 63.482419 
L 208.4483 57.568819 
L 208.7459 63.482419 
L 209.0435 60.156019 
L 209.3411 57.568819 
L 209.6387 63.482419 
L 209.9363 64.221619 
L 210.2339 56.829619 
L 210.5315 57.568819 
L 210.8291 57.199219 
L 211.1267 56.829619 
L 211.4243 63.852019 
L 211.7219 54.242419 
L 211.7219 23.196019 
L 211.7219 23.196019 
L 211.4243 20.978419 
L 211.1267 25.783219 
L 210.8291 26.152819 
L 210.5315 23.565619 
L 210.2339 24.304819 
L 209.9363 22.826419 
L 209.6387 22.087219 
L 209.3411 25.044019 
L 209.0435 23.196019 
L 208.7459 25.044019 
L 208.4483 25.044019 
L 208.1507 25.044019 
L 207.8531 21.348019 
L 207.5555 24.674419 
L 207.2579 24.304819 
L 206.9603 25.413619 
L 206.6627 25.783219 
L 206.3651 25.413619 
L 206.0675 25.044019 
L 205.7699 25.044019 
L 205.4723 26.522419 
L 205.1747 24.304819 
L 204.8771 24.304819 
L 204.5795 30.218419 
L 204.2819 25.783219 
L 203.9843 25.044019 
L 203.6867 26.152819 
L 203.3891 23.565619 
L 203.0915 25.783219 
L 202.7939 23.935219 
L 202.4963 23.565619 
L 202.1987 21.717619 
L 201.9011 26.522419 
L 201.6035 26.152819 
L 201.3059 28.370419 
L 201.0083 21.717619 
L 200.7107 22.087219 
L 200.4131 26.522419 
L 200.1155 24.304819 
L 199.8179 23.196019 
L 199.5203 26.892019 
L 199.2227 21.348019 
L 198.9251 26.522419 
L 198.6275 25.044019 
L 198.3299 25.413619 
L 198.0323 21.348019 
L 197.7347 26.522419 
L 197.4371 27.631219 
L 197.1395 27.261619 
L 196.8419 24.674419 
L 196.5443 25.044019 
L 196.2467 32.436019 
L 195.9491 20.608819 
L 195.6515 24.304819 
L 195.3539 20.608819 
L 195.0563 28.370419 
L 194.7587 34.653619 
L 194.4611 32.805619 
L 194.1635 25.783219 
L 193.8659 29.479219 
L 193.5683 36.871219 
L 193.2707 30.218419 
L 192.9731 31.327219 
L 192.6755 32.805619 
L 192.3779 30.957619 
L 192.0803 29.848819 
L 191.7827 29.479219 
L 191.4851 32.805619 
L 191.1875 25.783219 
L 190.8899 28.370419 
L 190.5923 34.653619 
L 190.2947 32.436019 
L 189.9971 33.175219 
L 189.6995 33.544819 
L 189.4019 29.109619 
L 189.1043 31.327219 
L 188.8067 29.848819 
L 188.5091 29.109619 
L 188.2115 28.000819 
L 187.9139 31.696819 
L 187.6163 31.696819 
L 187.3187 30.957619 
L 187.0211 32.805619 
L 186.7235 34.653619 
L 186.4259 29.479219 
L 186.1283 25.783219 
L 185.8307 33.175219 
L 185.5331 31.327219 
L 185.2355 33.544819 
L 184.9379 29.109619 
L 184.6403 33.175219 
L 184.3427 30.957619 
L 184.0451 29.109619 
L 183.7475 30.588019 
L 183.4499 33.175219 
L 183.1523 34.284019 
L 182.8547 32.066419 
L 182.5571 33.175219 
L 182.2595 33.914419 
L 181.9619 32.805619 
L 181.6643 30.588019 
L 181.3667 30.588019 
L 181.0691 28.740019 
L 180.7715 29.109619 
L 180.4739 31.696819 
L 180.1763 31.696819 
L 179.8787 32.805619 
L 179.5811 32.436019 
L 179.2835 32.066419 
L 178.9859 31.696819 
L 178.6883 30.218419 
L 178.3907 30.218419 
L 178.0931 29.479219 
L 177.7955 36.871219 
L 177.4979 35.762419 
L 177.2003 32.436019 
L 176.9027 33.914419 
L 176.6051 37.980019 
L 176.3075 33.175219 
L 176.0099 32.066419 
L 175.7123 37.240819 
L 175.4147 32.436019 
L 175.1171 35.762419 
L 174.8195 37.610419 
L 174.5219 34.653619 
L 174.2243 35.392819 
L 173.9267 30.588019 
L 173.6291 34.653619 
L 173.3315 32.066419 
L 173.0339 39.088819 
L 172.7363 34.653619 
L 172.4387 37.240819 
L 172.1411 39.828019 
L 171.8435 40.567219 
L 171.5459 35.762419 
L 171.2483 35.392819 
L 170.9507 40.197619 
L 170.6531 37.980019 
L 170.3555 42.045619 
L 170.0579 43.524019 
L 169.7603 41.306419 
L 169.4627 45.002419 
L 169.1651 39.088819 
L 168.8675 45.741619 
L 168.5699 43.524019 
L 168.2723 42.045619 
L 167.9747 54.612019 
L 167.6771 42.415219 
L 167.3795 43.154419 
L 167.0819 50.916019 
L 166.7843 53.133619 
L 166.4867 47.589619 
L 166.1891 44.263219 
L 165.8915 53.872819 
L 165.5939 47.589619 
L 165.2963 50.916019 
L 164.9987 53.133619 
L 164.7011 56.090419 
L 164.4035 45.372019 
L 164.1059 47.959219 
L 163.8083 47.220019 
L 163.5107 47.220019 
L 163.2131 53.503219 
L 162.9155 48.698419 
L 162.6179 45.741619 
L 162.3203 53.133619 
L 162.0227 51.655219 
L 161.7251 55.351219 
L 161.4275 44.263219 
L 161.1299 53.133619 
L 160.8323 53.133619 
L 160.5347 53.133619 
L 160.2371 51.655219 
L 159.9395 53.133619 
L 159.6419 50.916019 
L 159.3443 53.133619 
L 159.0467 41.306419 
L 158.7491 45.002419 
L 158.4515 45.002419 
L 158.1539 47.220019 
L 157.8563 44.263219 
L 157.5587 37.610419 
L 157.2611 44.263219 
L 156.9635 38.349619 
L 156.6659 44.263219 
L 156.3683 38.349619 
L 156.0707 39.828019 
L 155.7731 36.871219 
L 155.4755 36.132019 
L 155.1779 35.392819 
L 154.8803 38.349619 
L 154.5827 35.392819 
L 154.2851 38.349619 
L 153.9875 33.175219 
L 153.6899 44.263219 
L 153.3923 24.304819 
L 153.0947 37.610419 
L 152.7971 32.436019 
L 152.4995 29.479219 
L 152.2019 25.783219 
L 151.9043 36.871219 
L 151.6067 34.653619 
L 151.3091 30.218419 
L 151.0115 36.132019 
L 150.7139 30.218419 
L 150.4163 40.936819 
L 150.1187 49.068019 
L 149.8211 47.959219 
L 149.5235 56.090419 
L 149.2259 46.480819 
L 148.9283 49.807219 
L 148.6307 57.568819 
L 148.3331 54.242419 
L 148.0355 58.308019 
L 147.7379 56.829619 
L 147.4403 51.285619 
L 147.1427 56.829619 
L 146.8451 58.308019 
L 146.5475 53.872819 
L 146.2499 51.285619 
L 145.9523 48.698419 
L 145.6547 49.068019 
L 145.3571 49.807219 
L 145.0595 45.002419 
L 144.7619 30.588019 
L 144.4643 43.524019 
L 144.1667 53.133619 
L 143.8691 46.480819 
L 143.5715 56.829619 
L 143.2739 52.394419 
L 142.9763 47.220019 
L 142.6787 47.959219 
L 142.3811 51.655219 
L 142.0835 37.610419 
L 141.7859 36.132019 
L 141.4883 36.132019 
L 141.1907 34.653619 
L 140.8931 37.610419 
L 140.5955 33.914419 
L 140.2979 48.698419 
L 140.0003 53.133619 
L 139.7027 33.914419 
L 139.4051 33.175219 
L 139.1075 36.871219 
L 138.8099 52.394419 
L 138.5123 53.872819 
L 138.2147 56.829619 
L 137.9171 30.218419 
L 137.6195 47.959219 
L 137.3219 33.175219 
L 137.0243 47.220019 
L 136.7267 43.524019 
L 136.4291 47.959219 
L 136.1315 49.437619 
L 135.8339 49.437619 
L 135.5363 54.612019 
L 135.2387 50.176819 
L 134.9411 30.588019 
L 134.6435 42.045619 
L 134.3459 50.176819 
L 134.0483 47.959219 
L 133.7507 43.524019 
L 133.4531 47.959219 
L 133.1555 37.610419 
L 132.8579 45.741619 
L 132.5603 42.045619 
L 132.2627 57.199219 
L 131.9651 58.308019 
L 131.6675 50.546419 
L 131.3699 69.396019 
L 131.0723 84.180019 
L 130.7747 84.180019 
L 130.4771 68.287219 
L 130.1795 90.832819 
L 129.8819 86.397619 
L 129.5843 90.832819 
L 129.2867 104.877619 
L 128.9891 95.268019 
L 128.6915 106.356019 
L 128.3939 92.311219 
L 128.0963 109.682419 
L 127.7987 118.183219 
L 127.5011 113.748019 
L 127.2035 114.117619 
L 126.9059 114.487219 
L 126.6083 116.704819 
L 126.3107 116.704819 
L 126.0131 115.965619 
L 125.7155 115.226419 
L 125.4179 123.357619 
L 125.1203 120.400819 
L 124.8227 121.879219 
L 124.5251 114.487219 
L 124.2275 120.400819 
L 123.9299 122.618419 
L 123.6323 122.618419 
L 123.3347 123.357619 
L 123.0371 126.314419 
L 122.7395 124.836019 
L 122.4419 126.314419 
L 122.1443 125.575219 
L 121.8467 125.575219 
L 121.5491 129.271219 
L 121.2515 130.010419 
L 120.9539 125.575219 
L 120.6563 125.575219 
L 120.3587 125.205619 
L 120.0611 124.836019 
L 119.7635 125.575219 
L 119.4659 129.271219 
L 119.1683 124.836019 
L 118.8707 124.836019 
L 118.5731 124.836019 
L 118.2755 125.575219 
L 117.9779 125.575219 
L 117.6803 125.575219 
L 117.3827 125.944819 
L 117.0851 127.053619 
L 116.7875 122.988019 
L 116.4899 121.509619 
L 116.1923 128.532019 
L 115.8947 122.988019 
L 115.5971 129.271219 
L 115.2995 130.010419 
L 115.0019 119.661619 
L 114.7043 123.727219 
L 114.4067 115.596019 
L 114.1091 124.466419 
L 113.8115 124.836019 
L 113.5139 123.727219 
L 113.2163 138.880819 
L 112.9187 147.012019 
L 112.6211 125.944819 
L 112.3235 141.468019 
L 112.0259 147.751219 
L 111.7283 146.272819 
L 111.4307 146.272819 
L 111.1331 148.490419 
L 110.8355 147.381619 
L 110.5379 142.576819 
L 110.2403 143.316019 
L 109.9427 142.576819 
L 109.6451 143.316019 
L 109.3475 144.424819 
L 109.0499 141.468019 
L 108.7523 144.424819 
L 108.4547 144.794419 
L 108.1571 147.012019 
L 107.8595 153.664819 
L 107.5619 143.316019 
L 107.2643 149.599219 
L 106.9667 149.229619 
L 106.6691 145.903219 
L 106.3715 152.925619 
L 106.0739 157.360819 
L 105.7763 152.925619 
L 105.4787 152.925619 
L 105.1811 148.490419 
L 104.8835 159.578419 
L 104.5859 156.621619 
L 104.2883 158.839219 
L 103.9907 158.469619 
L 103.6931 158.839219 
L 103.3955 158.100019 
L 103.0979 158.469619 
L 102.8003 158.839219 
L 102.5027 159.578419 
L 102.2051 159.578419 
L 101.9075 161.796019 
L 101.6099 159.578419 
L 101.3123 159.578419 
L 101.0147 159.578419 
L 100.7171 158.839219 
L 100.4195 158.100019 
L 100.1219 161.796019 
L 99.8243 162.165619 
L 99.5267 162.165619 
L 99.2291 161.056819 
L 98.9315 163.274419 
L 98.6339 158.839219 
L 98.3363 163.644019 
L 98.0387 163.274419 
L 97.7411 162.165619 
L 97.4435 162.904819 
L 97.1459 164.013619 
L 96.8483 164.013619 
L 96.5507 162.535219 
L 96.2531 162.535219 
L 95.9555 162.535219 
L 95.6579 162.535219 
L 95.3603 162.535219 
L 95.0627 161.796019 
L 94.7651 161.796019 
L 94.4675 161.796019 
L 94.1699 161.426419 
L 93.8723 161.796019 
L 93.5747 161.796019 
L 93.2771 161.796019 
L 92.9795 161.796019 
L 92.6819 161.426419 
L 92.3843 160.317619 
L 92.0867 161.796019 
L 91.7891 159.578419 
L 91.4915 161.426419 
L 91.1939 159.208819 
L 90.8963 160.317619 
L 90.5987 158.839219 
L 90.3011 162.535219 
L 90.0035 165.122419 
L 89.7059 165.122419 
L 89.4083 165.122419 
L 89.1107 165.492019 
L 88.8131 161.796019 
L 88.5155 163.644019 
L 88.2179 163.274419 
L 87.9203 167.709619 
L 87.6227 169.188019 
L 87.3251 169.927219 
L 87.0275 172.144819 
L 86.7299 175.101619 
L 86.4323 175.840819 
L 86.1347 172.884019 
L 85.8371 175.101619 
L 85.5395 174.362419 
L 85.2419 175.840819 
L 84.9443 178.058419 
L 84.6467 174.362419 
L 84.3491 179.536819 
L 84.0515 179.906419 
L 83.7539 179.536819 
L 83.4563 179.536819 
L 83.1587 179.536819 
L 82.8611 181.754419 
L 82.5635 181.754419 
L 82.2659 183.232819 
L 81.9683 178.058419 
L 81.6707 185.820019 
L 81.3731 182.493619 
L 81.0755 185.450419 
L 80.7779 185.450419 
L 80.4803 185.450419 
L 80.1827 185.450419 
L 79.8851 185.450419 
L 79.5875 185.450419 
L 79.2899 184.711219 
L 78.9923 185.450419 
L 78.6947 185.450419 
L 78.3971 186.928819 
L 78.0995 184.711219 
L 77.8019 186.189619 
L 77.5043 186.189619 
L 77.2067 185.450419 
L 76.9091 185.450419 
L 76.6115 186.928819 
L 76.3139 186.928819 
L 76.0163 186.559219 
L 75.7187 187.298419 
L 75.4211 186.189619 
L 75.1235 186.928819 
L 74.8259 186.189619 
L 74.5283 186.928819 
L 74.2307 188.407219 
L 73.9331 186.928819 
L 73.6355 189.885619 
L 73.3379 187.298419 
L 73.0403 193.581619 
L 72.7427 192.103219 
L 72.4451 188.037619 
L 72.1475 191.364019 
L 71.8499 192.103219 
L 71.5523 190.255219 
L 71.2547 193.212019 
L 70.9571 193.212019 
L 70.6595 193.581619 
L 70.3619 192.842419 
L 70.0643 192.103219 
L 69.7667 193.212019 
L 69.4691 196.168819 
L 69.1715 196.538419 
L 68.8739 196.538419 
L 68.5763 196.538419 
L 68.2787 196.538419 
L 67.9811 196.538419 
L 67.6835 196.538419 
L 67.3859 198.756019 
L 67.0883 199.495219 
L 66.7907 199.495219 
L 66.4931 198.016819 
L 66.1955 200.973619 
L 65.8979 200.973619 
L 65.6003 200.973619 
L 65.3027 200.973619 
L 65.0051 198.756019 
L 64.7075 201.712819 
L 64.4099 201.712819 
L 64.1123 200.973619 
L 63.8147 201.712819 
L 63.5171 203.191219 
L 63.2195 202.452019 
L 62.9219 202.452019 
L 62.6243 203.560819 
L 62.3267 204.669619 
L 62.0291 203.191219 
L 61.7315 204.669619 
L 61.4339 203.191219 
L 61.1363 203.191219 
L 60.8387 204.669619 
L 60.5411 204.669619 
L 60.2435 204.669619 
L 59.9459 203.191219 
L 59.6483 203.191219 
L 59.3507 203.191219 
L 59.0531 203.191219 
L 58.7555 203.930419 
L 58.4579 205.408819 
L 58.1603 205.408819 
L 57.8627 206.887219 
L 57.5651 205.408819 
L 57.2675 205.778419 
L 56.9699 207.626419 
L 56.6723 209.844019 
L 56.3747 208.365619 
L 56.0771 209.844019 
L 55.7795 209.844019 
L 55.4819 212.061619 
L 55.1843 212.800819 
L 54.8867 212.061619 
L 54.5891 213.540019 
L 54.2915 212.061619 
z
" clip-path="url(#p5a9d32a951)" style="fill: #dde318; fill-opacity: 0.2"/>
   </g>
   <g id="matplotlib.axis_1">
    <g id="xtick_1">
     <g id="line2d_1">
      <defs>
       <path id="mdb665a1717" d="M 0 0 
L 0 3.5 
" style="stroke: #000000; stroke-width: 0.8"/>
      </defs>
      <g>
       <use xlink:href="#mdb665a1717" x="38.6675" y="232.759219" style="stroke: #000000; stroke-width: 0.8"/>
      </g>
     </g>
     <g id="text_1">
      <text style="font: 10px 'DejaVu Sans', 'Bitstream Vera Sans', 'Computer Modern Sans Serif', 'Lucida Grande', 'Verdana', 'Geneva', 'Lucid', 'Arial', 'Helvetica', 'Avant Garde', sans-serif; text-anchor: middle" x="38.6675" y="247.357656" transform="rotate(-0 38.6675 247.357656)">0</text>
     </g>
    </g>
    <g id="xtick_2">
     <g id="line2d_2">
      <g>
       <use xlink:href="#mdb665a1717" x="83.3075" y="232.759219" style="stroke: #000000; stroke-width: 0.8"/>
      </g>
     </g>
     <g id="text_2">
      <text style="font: 10px 'DejaVu Sans', 'Bitstream Vera Sans', 'Computer Modern Sans Serif', 'Lucida Grande', 'Verdana', 'Geneva', 'Lucid', 'Arial', 'Helvetica', 'Avant Garde', sans-serif; text-anchor: middle" x="83.3075" y="247.357656" transform="rotate(-0 83.3075 247.357656)">5</text>
     </g>
    </g>
    <g id="xtick_3">
     <g id="line2d_3">
      <g>
       <use xlink:href="#mdb665a1717" x="127.9475" y="232.759219" style="stroke: #000000; stroke-width: 0.8"/>
      </g>
     </g>
     <g id="text_3">
      <text style="font: 10px 'DejaVu Sans', 'Bitstream Vera Sans', 'Computer Modern Sans Serif', 'Lucida Grande', 'Verdana', 'Geneva', 'Lucid', 'Arial', 'Helvetica', 'Avant Garde', sans-serif; text-anchor: middle" x="127.9475" y="247.357656" transform="rotate(-0 127.9475 247.357656)">10</text>
     </g>
    </g>
    <g id="xtick_4">
     <g id="line2d_4">
      <g>
       <use xlink:href="#mdb665a1717" x="172.5875" y="232.759219" style="stroke: #000000; stroke-width: 0.8"/>
      </g>
     </g>
     <g id="text_4">
      <text style="font: 10px 'DejaVu Sans', 'Bitstream Vera Sans', 'Computer Modern Sans Serif', 'Lucida Grande', 'Verdana', 'Geneva', 'Lucid', 'Arial', 'Helvetica', 'Avant Garde', sans-serif; text-anchor: middle" x="172.5875" y="247.357656" transform="rotate(-0 172.5875 247.357656)">15</text>
     </g>
    </g>
    <g id="xtick_5">
     <g id="line2d_5">
      <g>
       <use xlink:href="#mdb665a1717" x="217.2275" y="232.759219" style="stroke: #000000; stroke-width: 0.8"/>
      </g>
     </g>
     <g id="text_5">
      <text style="font: 10px 'DejaVu Sans', 'Bitstream Vera Sans', 'Computer Modern Sans Serif', 'Lucida Grande', 'Verdana', 'Geneva', 'Lucid', 'Arial', 'Helvetica', 'Avant Garde', sans-serif; text-anchor: middle" x="217.2275" y="247.357656" transform="rotate(-0 217.2275 247.357656)">20</text>
     </g>
    </g>
    <g id="xtick_6">
     <g id="line2d_6">
      <g>
       <use xlink:href="#mdb665a1717" x="261.8675" y="232.759219" style="stroke: #000000; stroke-width: 0.8"/>
      </g>
     </g>
     <g id="text_6">
      <text style="font: 10px 'DejaVu Sans', 'Bitstream Vera Sans', 'Computer Modern Sans Serif', 'Lucida Grande', 'Verdana', 'Geneva', 'Lucid', 'Arial', 'Helvetica', 'Avant Garde', sans-serif; text-anchor: middle" x="261.8675" y="247.357656" transform="rotate(-0 261.8675 247.357656)">25</text>
     </g>
    </g>
    <g id="text_7">
     <text style="font: 8px 'DejaVu Sans', 'Bitstream Vera Sans', 'Computer Modern Sans Serif', 'Lucida Grande', 'Verdana', 'Geneva', 'Lucid', 'Arial', 'Helvetica', 'Avant Garde', sans-serif; text-anchor: middle" x="150.2675" y="259.516094" transform="rotate(-0 150.2675 259.516094)">Experimental time (hpf)</text>
    </g>
   </g>
   <g id="matplotlib.axis_2">
    <g id="ytick_1">
     <g id="line2d_7">
      <defs>
       <path id="mea9ed28fb5" d="M 0 0 
L -3.5 0 
" style="stroke: #000000; stroke-width: 0.8"/>
      </defs>
      <g>
       <use xlink:href="#mea9ed28fb5" x="38.6675" y="232.759219" style="stroke: #000000; stroke-width: 0.8"/>
      </g>
     </g>
     <g id="text_8">
      <text style="font: 10px 'DejaVu Sans', 'Bitstream Vera Sans', 'Computer Modern Sans Serif', 'Lucida Grande', 'Verdana', 'Geneva', 'Lucid', 'Arial', 'Helvetica', 'Avant Garde', sans-serif; text-anchor: end" x="31.6675" y="236.558438" transform="rotate(-0 31.6675 236.558438)">0</text>
     </g>
    </g>
    <g id="ytick_2">
     <g id="line2d_8">
      <g>
       <use xlink:href="#mea9ed28fb5" x="38.6675" y="188.407219" style="stroke: #000000; stroke-width: 0.8"/>
      </g>
     </g>
     <g id="text_9">
      <text style="font: 10px 'DejaVu Sans', 'Bitstream Vera Sans', 'Computer Modern Sans Serif', 'Lucida Grande', 'Verdana', 'Geneva', 'Lucid', 'Arial', 'Helvetica', 'Avant Garde', sans-serif; text-anchor: end" x="31.6675" y="192.206437" transform="rotate(-0 31.6675 192.206437)">5</text>
     </g>
    </g>
    <g id="ytick_3">
     <g id="line2d_9">
      <g>
       <use xlink:href="#mea9ed28fb5" x="38.6675" y="144.055219" style="stroke: #000000; stroke-width: 0.8"/>
      </g>
     </g>
     <g id="text_10">
      <text style="font: 10px 'DejaVu Sans', 'Bitstream Vera Sans', 'Computer Modern Sans Serif', 'Lucida Grande', 'Verdana', 'Geneva', 'Lucid', 'Arial', 'Helvetica', 'Avant Garde', sans-serif; text-anchor: end" x="31.6675" y="147.854438" transform="rotate(-0 31.6675 147.854438)">10</text>
     </g>
    </g>
    <g id="ytick_4">
     <g id="line2d_10">
      <g>
       <use xlink:href="#mea9ed28fb5" x="38.6675" y="99.703219" style="stroke: #000000; stroke-width: 0.8"/>
      </g>
     </g>
     <g id="text_11">
      <text style="font: 10px 'DejaVu Sans', 'Bitstream Vera Sans', 'Computer Modern Sans Serif', 'Lucida Grande', 'Verdana', 'Geneva', 'Lucid', 'Arial', 'Helvetica', 'Avant Garde', sans-serif; text-anchor: end" x="31.6675" y="103.502438" transform="rotate(-0 31.6675 103.502438)">15</text>
     </g>
    </g>
    <g id="ytick_5">
     <g id="line2d_11">
      <g>
       <use xlink:href="#mea9ed28fb5" x="38.6675" y="55.351219" style="stroke: #000000; stroke-width: 0.8"/>
      </g>
     </g>
     <g id="text_12">
      <text style="font: 10px 'DejaVu Sans', 'Bitstream Vera Sans', 'Computer Modern Sans Serif', 'Lucida Grande', 'Verdana', 'Geneva', 'Lucid', 'Arial', 'Helvetica', 'Avant Garde', sans-serif; text-anchor: end" x="31.6675" y="59.150437" transform="rotate(-0 31.6675 59.150437)">20</text>
     </g>
    </g>
    <g id="ytick_6">
     <g id="line2d_12">
      <g>
       <use xlink:href="#mea9ed28fb5" x="38.6675" y="10.999219" style="stroke: #000000; stroke-width: 0.8"/>
      </g>
     </g>
     <g id="text_13">
      <text style="font: 10px 'DejaVu Sans', 'Bitstream Vera Sans', 'Computer Modern Sans Serif', 'Lucida Grande', 'Verdana', 'Geneva', 'Lucid', 'Arial', 'Helvetica', 'Avant Garde', sans-serif; text-anchor: end" x="31.6675" y="14.798438" transform="rotate(-0 31.6675 14.798438)">25</text>
     </g>
    </g>
    <g id="text_14">
     <text style="font: 8px 'DejaVu Sans', 'Bitstream Vera Sans', 'Computer Modern Sans Serif', 'Lucida Grande', 'Verdana', 'Geneva', 'Lucid', 'Arial', 'Helvetica', 'Avant Garde', sans-serif; text-anchor: middle" x="13.27875" y="121.879219" transform="rotate(-90 13.27875 121.879219)">Developmental age (hpf)</text>
    </g>
   </g>
   <g id="line2d_13">
    <path d="M 47.5955 223.888819 
L 261.8675 91.296672 
L 261.8675 91.296672 
" clip-path="url(#p5a9d32a951)" style="fill: none; stroke: #355f8d; stroke-linecap: square"/>
   </g>
   <g id="line2d_14">
    <path d="M 47.5955 223.888819 
L 261.8675 93.383373 
L 261.8675 93.383373 
" clip-path="url(#p5a9d32a951)" style="fill: none; stroke-dasharray: 3.7,1.6; stroke-dashoffset: 0; stroke: #355f8d"/>
   </g>
   <g id="line2d_15">
    <path d="M 47.5955 223.888819 
L 261.8675 89.790743 
L 261.8675 89.790743 
" clip-path="url(#p5a9d32a951)" style="fill: none; stroke-dasharray: 3.7,1.6; stroke-dashoffset: 0; stroke: #355f8d"/>
   </g>
   <g id="line2d_16">
    <path d="M 47.5955 223.888819 
L 261.8675 10.984607 
L 261.8675 10.984607 
" clip-path="url(#p5a9d32a951)" style="fill: none; stroke: #1fa188; stroke-linecap: square"/>
   </g>
   <g id="line2d_17">
    <path d="M 47.5955 223.888819 
L 261.8675 12.894236 
L 261.8675 12.894236 
" clip-path="url(#p5a9d32a951)" style="fill: none; stroke-dasharray: 3.7,1.6; stroke-dashoffset: 0; stroke: #1fa188"/>
   </g>
   <g id="line2d_18">
    <path d="M 47.5955 223.888819 
L 261.8675 9.178796 
L 261.8675 9.178796 
" clip-path="url(#p5a9d32a951)" style="fill: none; stroke-dasharray: 3.7,1.6; stroke-dashoffset: 0; stroke: #1fa188"/>
   </g>
   <g id="line2d_19">
    <path d="M 47.5955 225.546262 
L 230.135734 -1 
L 230.135734 -1 
" clip-path="url(#p5a9d32a951)" style="fill: none; stroke: #dde318; stroke-linecap: square"/>
   </g>
   <g id="line2d_20">
    <path d="M 47.5955 225.32471 
L 234.952172 -1 
L 234.952172 -1 
" clip-path="url(#p5a9d32a951)" style="fill: none; stroke-dasharray: 3.7,1.6; stroke-dashoffset: 0; stroke: #dde318"/>
   </g>
   <g id="line2d_21">
    <path d="M 47.5955 225.799303 
L 224.939615 -1 
L 224.939615 -1 
" clip-path="url(#p5a9d32a951)" style="fill: none; stroke-dasharray: 3.7,1.6; stroke-dashoffset: 0; stroke: #dde318"/>
   </g>
   <g id="patch_3">
    <path d="M 38.6675 232.759219 
L 38.6675 10.999219 
" style="fill: none; stroke: #000000; stroke-width: 0.8; stroke-linejoin: miter; stroke-linecap: square"/>
   </g>
   <g id="patch_4">
    <path d="M 38.6675 232.759219 
L 261.8675 232.759219 
" style="fill: none; stroke: #000000; stroke-width: 0.8; stroke-linejoin: miter; stroke-linecap: square"/>
   </g>
   <g id="legend_1">
    <g id="patch_5">
     <path d="M 42.7205 66.623025 
L 101.194072 66.623025 
Q 102.352072 66.623025 102.352072 65.465025 
L 102.352072 15.052219 
Q 102.352072 13.894219 101.194072 13.894219 
L 42.7205 13.894219 
Q 41.5625 13.894219 41.5625 15.052219 
L 41.5625 65.465025 
Q 41.5625 66.623025 42.7205 66.623025 
z
" style="fill: #ffffff; opacity: 0.8; stroke: #cccccc; stroke-linejoin: miter"/>
    </g>
    <g id="patch_6">
     <path d="M 43.8785 20.609714 
L 55.4585 20.609714 
L 55.4585 16.556714 
L 43.8785 16.556714 
z
" style="fill: #355f8d; fill-opacity: 0.2"/>
    </g>
    <g id="text_15">
     <text style="font: 5.79px 'DejaVu Sans', 'Bitstream Vera Sans', 'Computer Modern Sans Serif', 'Lucida Grande', 'Verdana', 'Geneva', 'Lucid', 'Arial', 'Helvetica', 'Avant Garde', sans-serif; text-anchor: start" x="60.0905" y="20.609714" transform="rotate(-0 60.0905 20.609714)">Median:23.5C</text>
    </g>
    <g id="line2d_22">
     <path d="M 43.8785 27.081848 
L 49.6685 27.081848 
L 55.4585 27.081848 
" style="fill: none; stroke: #355f8d; stroke-linecap: square"/>
    </g>
    <g id="text_16">
     <text style="font: 5.79px 'DejaVu Sans', 'Bitstream Vera Sans', 'Computer Modern Sans Serif', 'Lucida Grande', 'Verdana', 'Geneva', 'Lucid', 'Arial', 'Helvetica', 'Avant Garde', sans-serif; text-anchor: start" x="60.0905" y="29.108348" transform="rotate(-0 60.0905 29.108348)">-</text>
    </g>
    <g id="patch_7">
     <path d="M 43.8785 37.606983 
L 55.4585 37.606983 
L 55.4585 33.553983 
L 43.8785 33.553983 
z
" style="fill: #1fa188; fill-opacity: 0.2"/>
    </g>
    <g id="text_17">
     <text style="font: 5.79px 'DejaVu Sans', 'Bitstream Vera Sans', 'Computer Modern Sans Serif', 'Lucida Grande', 'Verdana', 'Geneva', 'Lucid', 'Arial', 'Helvetica', 'Avant Garde', sans-serif; text-anchor: start" x="60.0905" y="37.606983" transform="rotate(-0 60.0905 37.606983)">Median:28.5C</text>
    </g>
    <g id="line2d_23">
     <path d="M 43.8785 44.079117 
L 49.6685 44.079117 
L 55.4585 44.079117 
" style="fill: none; stroke: #1fa188; stroke-linecap: square"/>
    </g>
    <g id="text_18">
     <text style="font: 5.79px 'DejaVu Sans', 'Bitstream Vera Sans', 'Computer Modern Sans Serif', 'Lucida Grande', 'Verdana', 'Geneva', 'Lucid', 'Arial', 'Helvetica', 'Avant Garde', sans-serif; text-anchor: start" x="60.0905" y="46.105617" transform="rotate(-0 60.0905 46.105617)">-</text>
    </g>
    <g id="patch_8">
     <path d="M 43.8785 54.604252 
L 55.4585 54.604252 
L 55.4585 50.551252 
L 43.8785 50.551252 
z
" style="fill: #dde318; fill-opacity: 0.2"/>
    </g>
    <g id="text_19">
     <text style="font: 5.79px 'DejaVu Sans', 'Bitstream Vera Sans', 'Computer Modern Sans Serif', 'Lucida Grande', 'Verdana', 'Geneva', 'Lucid', 'Arial', 'Helvetica', 'Avant Garde', sans-serif; text-anchor: start" x="60.0905" y="54.604252" transform="rotate(-0 60.0905 54.604252)">Median:35.5C</text>
    </g>
    <g id="line2d_24">
     <path d="M 43.8785 61.076386 
L 49.6685 61.076386 
L 55.4585 61.076386 
" style="fill: none; stroke: #dde318; stroke-linecap: square"/>
    </g>
    <g id="text_20">
     <text style="font: 5.79px 'DejaVu Sans', 'Bitstream Vera Sans', 'Computer Modern Sans Serif', 'Lucida Grande', 'Verdana', 'Geneva', 'Lucid', 'Arial', 'Helvetica', 'Avant Garde', sans-serif; text-anchor: start" x="60.0905" y="63.102886" transform="rotate(-0 60.0905 63.102886)">-</text>
    </g>
   </g>
  </g>
 </g>
 <defs>
  <clipPath id="p5a9d32a951">
   <rect x="38.6675" y="10.999219" width="223.2" height="221.76"/>
  </clipPath>
 </defs>
</svg>
