<?xml version="1.0" encoding="utf-8" standalone="no"?>
<!DOCTYPE svg PUBLIC "-//W3C//DTD SVG 1.1//EN"
  "http://www.w3.org/Graphics/SVG/1.1/DTD/svg11.dtd">
<svg xmlns:xlink="http://www.w3.org/1999/xlink" width="263.9775pt" height="260.709375pt" viewBox="0 0 263.9775 260.709375" xmlns="http://www.w3.org/2000/svg" version="1.1">
 <metadata>
  <rdf:RDF xmlns:dc="http://purl.org/dc/elements/1.1/" xmlns:cc="http://creativecommons.org/ns#" xmlns:rdf="http://www.w3.org/1999/02/22-rdf-syntax-ns#">
   <cc:Work>
    <dc:type rdf:resource="http://purl.org/dc/dcmitype/StillImage"/>
    <dc:date>2023-07-28T13:15:21.573336</dc:date>
    <dc:format>image/svg+xml</dc:format>
    <dc:creator>
     <cc:Agent>
      <dc:title>Matplotlib v3.7.0, https://matplotlib.org/</dc:title>
     </cc:Agent>
    </dc:creator>
   </cc:Work>
  </rdf:RDF>
 </metadata>
 <defs>
  <style type="text/css">*{stroke-linejoin: round; stroke-linecap: butt}</style>
 </defs>
 <g id="figure_1">
  <g id="patch_1">
   <path d="M 0 260.709375 
L 263.9775 260.709375 
L 263.9775 0 
L 0 0 
z
" style="fill: #ffffff"/>
  </g>
  <g id="axes_1">
   <g id="patch_2">
    <path d="M 33.5775 228.96 
L 256.7775 228.96 
L 256.7775 7.2 
L 33.5775 7.2 
z
" style="fill: #ffffff"/>
   </g>
   <g id="PolyCollection_1">
    <path d="M 46.9695 218.6112 
L 46.9695 212.6976 
L 47.2671 211.9584 
L 47.5647 211.2192 
L 47.8623 212.6976 
L 48.1599 211.9584 
L 48.4575 209.0016 
L 48.7551 209.0016 
L 49.0527 210.48 
L 49.3503 209.0016 
L 49.6479 209.0016 
L 49.9455 207.8928 
L 50.2431 206.784 
L 50.5407 205.3056 
L 50.8383 205.3056 
L 51.1359 204.5664 
L 51.4335 204.5664 
L 51.7311 204.5664 
L 52.0287 202.3488 
L 52.3263 202.3488 
L 52.6239 202.3488 
L 52.9215 201.24 
L 53.2191 202.7184 
L 53.5167 200.8704 
L 53.8143 197.544 
L 54.1119 199.0224 
L 54.4095 199.392 
L 54.7071 199.392 
L 55.0047 202.3488 
L 55.3023 200.8704 
L 55.5999 199.392 
L 55.8975 199.392 
L 56.1951 199.392 
L 56.4927 199.392 
L 56.7903 199.392 
L 57.0879 199.392 
L 57.3855 199.392 
L 57.6831 199.392 
L 57.9807 199.392 
L 58.2783 198.6528 
L 58.5759 198.6528 
L 58.8735 196.4352 
L 59.1711 196.4352 
L 59.4687 194.9568 
L 59.7663 193.4784 
L 60.0639 193.4784 
L 60.3615 192 
L 60.6591 193.4784 
L 60.9567 191.2608 
L 61.2543 188.6736 
L 61.5519 192.7392 
L 61.8495 190.152 
L 62.1471 190.5216 
L 62.4447 189.7824 
L 62.7423 185.3472 
L 63.0399 180.5424 
L 63.3375 179.8032 
L 63.6351 182.3904 
L 63.9327 179.4336 
L 64.2303 174.9984 
L 64.5279 178.3248 
L 64.8255 177.9552 
L 65.1231 176.4768 
L 65.4207 178.6944 
L 65.7183 176.1072 
L 66.0159 177.216 
L 66.3135 172.4112 
L 66.6111 176.4768 
L 66.9087 180.5424 
L 67.2063 178.6944 
L 67.5039 177.9552 
L 67.8015 179.064 
L 68.0991 176.4768 
L 68.3967 177.9552 
L 68.6943 175.7376 
L 68.9919 179.4336 
L 69.2895 178.3248 
L 69.5871 175.7376 
L 69.8847 176.8464 
L 70.1823 177.5856 
L 70.4799 179.8032 
L 70.7775 176.4768 
L 71.0751 176.4768 
L 71.3727 176.8464 
L 71.6703 172.4112 
L 71.9679 173.1504 
L 72.2655 172.7808 
L 72.5631 172.7808 
L 72.8607 150.6048 
L 73.1583 159.4752 
L 73.4559 155.7792 
L 73.7535 151.344 
L 74.0511 143.2128 
L 74.3487 138.7776 
L 74.6463 138.408 
L 74.9439 150.2352 
L 75.2415 138.7776 
L 75.5391 140.256 
L 75.8367 147.648 
L 76.1343 138.7776 
L 76.4319 138.7776 
L 76.7295 138.7776 
L 77.0271 134.3424 
L 77.3247 135.0816 
L 77.6223 134.3424 
L 77.9199 134.3424 
L 78.2175 134.3424 
L 78.5151 120.2976 
L 78.8127 138.408 
L 79.1103 131.7552 
L 79.4079 145.4304 
L 79.7055 123.624 
L 80.0031 130.2768 
L 80.3007 143.2128 
L 80.5983 122.1456 
L 80.8959 96.6432 
L 81.1935 147.648 
L 81.4911 128.0592 
L 81.7887 146.1696 
L 82.0863 143.2128 
L 82.3839 145.4304 
L 82.6815 135.4512 
L 82.9791 148.3872 
L 83.2767 148.7568 
L 83.5743 150.9744 
L 83.8719 148.3872 
L 84.1695 139.1472 
L 84.4671 148.0176 
L 84.7647 150.6048 
L 85.0623 150.6048 
L 85.3599 149.8656 
L 85.6575 153.192 
L 85.9551 154.3008 
L 86.2527 155.04 
L 86.5503 152.8224 
L 86.8479 152.4528 
L 87.1455 150.6048 
L 87.4431 150.6048 
L 87.7407 148.3872 
L 88.0383 149.496 
L 88.3359 152.8224 
L 88.6335 150.6048 
L 88.9311 150.6048 
L 89.2287 148.3872 
L 89.5263 147.648 
L 89.8239 150.9744 
L 90.1215 151.344 
L 90.4191 148.7568 
L 90.7167 141.7344 
L 91.0143 139.5168 
L 91.3119 142.8432 
L 91.6095 147.648 
L 91.9071 150.6048 
L 92.2047 147.648 
L 92.5023 145.4304 
L 92.7999 150.6048 
L 93.0975 144.6912 
L 93.3951 146.9088 
L 93.6927 143.952 
L 93.9903 139.5168 
L 94.2879 148.3872 
L 94.5855 145.4304 
L 94.8831 141.7344 
L 95.1807 147.648 
L 95.4783 147.648 
L 95.7759 146.9088 
L 96.0735 142.4736 
L 96.3711 143.952 
L 96.6687 148.3872 
L 96.9663 140.256 
L 97.2639 138.7776 
L 97.5615 145.4304 
L 97.8591 146.5392 
L 98.1567 144.6912 
L 98.4543 139.5168 
L 98.7519 143.2128 
L 99.0495 146.5392 
L 99.3471 137.6688 
L 99.6447 148.3872 
L 99.9423 143.952 
L 100.2399 145.4304 
L 100.5375 139.8864 
L 100.8351 141.3648 
L 101.1327 137.2992 
L 101.4303 135.8208 
L 101.7279 138.0384 
L 102.0255 136.9296 
L 102.3231 136.9296 
L 102.6207 134.712 
L 102.9183 138.0384 
L 103.2159 127.32 
L 103.5135 129.9072 
L 103.8111 129.168 
L 104.1087 121.4064 
L 104.4063 121.0368 
L 104.7039 121.776 
L 105.0015 121.4064 
L 105.2991 121.776 
L 105.5967 123.624 
L 105.8943 120.2976 
L 106.1919 123.624 
L 106.4895 121.776 
L 106.7871 124.7328 
L 107.0847 125.472 
L 107.3823 126.2112 
L 107.6799 125.472 
L 107.9775 124.7328 
L 108.2751 128.0592 
L 108.5727 125.8416 
L 108.8703 128.0592 
L 109.1679 128.4288 
L 109.4655 127.6896 
L 109.7631 129.5376 
L 110.0607 128.4288 
L 110.3583 128.4288 
L 110.6559 129.168 
L 110.9535 129.9072 
L 111.2511 129.5376 
L 111.5487 131.3856 
L 111.8463 129.9072 
L 112.1439 131.3856 
L 112.4415 129.168 
L 112.7391 129.9072 
L 113.0367 127.6896 
L 113.3343 127.6896 
L 113.6319 129.168 
L 113.9295 125.8416 
L 114.2271 126.2112 
L 114.5247 125.8416 
L 114.8223 126.2112 
L 115.1199 125.472 
L 115.4175 126.2112 
L 115.7151 126.2112 
L 116.0127 125.472 
L 116.3103 126.9504 
L 116.6079 126.9504 
L 116.9055 123.624 
L 117.2031 122.8848 
L 117.5007 121.0368 
L 117.7983 119.5584 
L 118.0959 119.5584 
L 118.3935 118.8192 
L 118.6911 118.08 
L 118.9887 118.08 
L 119.2863 112.9056 
L 119.5839 118.4496 
L 119.8815 116.6016 
L 120.1791 114.0144 
L 120.4767 108.4704 
L 120.7743 105.8832 
L 121.0719 109.2096 
L 121.3695 109.2096 
L 121.6671 110.688 
L 121.9647 106.992 
L 122.2623 107.3616 
L 122.5599 105.8832 
L 122.8575 106.992 
L 123.1551 100.3392 
L 123.4527 106.6224 
L 123.7503 108.84 
L 124.0479 91.4688 
L 124.3455 89.2512 
L 124.6431 86.2944 
L 124.9407 74.4672 
L 125.2383 91.4688 
L 125.5359 87.7728 
L 125.8335 91.4688 
L 126.1311 75.2064 
L 126.4287 59.6832 
L 126.7263 58.944 
L 127.0239 79.272 
L 127.3215 64.8576 
L 127.6191 63.7488 
L 127.9167 61.1616 
L 128.2143 58.944 
L 128.5119 55.9872 
L 128.8095 58.5744 
L 129.1071 47.1168 
L 129.4047 57.4656 
L 129.7023 55.9872 
L 129.9999 56.7264 
L 130.2975 46.3776 
L 130.5951 41.2032 
L 130.8927 44.8992 
L 131.1903 45.6384 
L 131.4879 45.6384 
L 131.7855 47.1168 
L 132.0831 42.6816 
L 132.3807 37.5072 
L 132.6783 36.0288 
L 132.9759 43.4208 
L 133.2735 33.8112 
L 133.5711 47.856 
L 133.8687 41.5728 
L 134.1663 33.8112 
L 134.4639 39.7248 
L 134.7615 39.7248 
L 135.0591 38.2464 
L 135.3567 35.6592 
L 135.6543 44.16 
L 135.9519 35.2896 
L 136.2495 33.4416 
L 136.5471 30.4848 
L 136.8447 39.3552 
L 137.1423 22.7232 
L 137.4399 33.8112 
L 137.7375 40.464 
L 138.0351 31.5936 
L 138.3327 29.7456 
L 138.6303 38.616 
L 138.9279 24.5712 
L 139.2255 19.7664 
L 139.5231 17.5488 
L 139.8207 24.5712 
L 140.1183 31.9632 
L 140.4159 39.7248 
L 140.7135 34.92 
L 141.0111 26.4192 
L 141.3087 33.4416 
L 141.6063 31.5936 
L 141.9039 36.3984 
L 142.2015 46.3776 
L 142.4991 33.4416 
L 142.7967 40.464 
L 143.0943 31.5936 
L 143.3919 33.072 
L 143.6895 37.1376 
L 143.9871 50.4432 
L 144.2847 45.6384 
L 144.5823 42.6816 
L 144.8799 47.1168 
L 145.1775 46.008 
L 145.4751 47.1168 
L 145.7727 41.9424 
L 146.0703 41.2032 
L 146.3679 50.4432 
L 146.6655 41.2032 
L 146.9631 44.16 
L 147.2607 48.2256 
L 147.5583 47.4864 
L 147.8559 47.856 
L 148.1535 54.5088 
L 148.4511 44.8992 
L 148.7487 54.5088 
L 149.0463 55.9872 
L 149.3439 50.0736 
L 149.6415 50.8128 
L 149.9391 50.4432 
L 150.2367 50.8128 
L 150.5343 50.8128 
L 150.8319 50.8128 
L 151.1295 52.2912 
L 151.4271 53.4 
L 151.7247 52.2912 
L 152.0223 52.2912 
L 152.3199 52.6608 
L 152.6175 52.2912 
L 152.9151 51.552 
L 153.2127 53.0304 
L 153.5103 53.0304 
L 153.8079 52.2912 
L 154.1055 46.3776 
L 154.4031 50.8128 
L 154.7007 47.856 
L 154.9983 45.6384 
L 155.2959 53.0304 
L 155.5935 44.8992 
L 155.8911 50.8128 
L 156.1887 49.704 
L 156.4863 44.8992 
L 156.7839 51.552 
L 157.0815 52.2912 
L 157.3791 45.2688 
L 157.6767 48.2256 
L 157.9743 37.1376 
L 158.2719 44.5296 
L 158.5695 47.856 
L 158.8671 51.1824 
L 159.1647 48.2256 
L 159.4623 51.552 
L 159.7599 47.1168 
L 160.0575 41.9424 
L 160.3551 41.9424 
L 160.6527 42.6816 
L 160.9503 48.5952 
L 161.2479 46.3776 
L 161.5455 43.7904 
L 161.8431 37.8768 
L 162.1407 41.5728 
L 162.4383 43.4208 
L 162.7359 41.2032 
L 163.0335 47.4864 
L 163.3311 41.2032 
L 163.6287 36.0288 
L 163.9263 41.5728 
L 164.2239 41.2032 
L 164.5215 39.3552 
L 164.8191 36.0288 
L 165.1167 39.7248 
L 165.4143 36.768 
L 165.7119 35.2896 
L 166.0095 42.6816 
L 166.3071 42.6816 
L 166.6047 33.8112 
L 166.9023 36.0288 
L 167.1999 38.616 
L 167.4975 33.072 
L 167.7951 37.1376 
L 168.0927 35.6592 
L 168.3903 35.2896 
L 168.6879 36.0288 
L 168.9855 40.8336 
L 169.2831 39.7248 
L 169.5807 33.8112 
L 169.8783 30.1152 
L 170.1759 38.616 
L 170.4735 35.6592 
L 170.7711 32.7024 
L 171.0687 35.2896 
L 171.3663 32.3328 
L 171.6639 35.2896 
L 171.9615 40.0944 
L 172.2591 35.2896 
L 172.5567 36.3984 
L 172.8543 34.5504 
L 173.1519 41.9424 
L 173.4495 34.5504 
L 173.7471 34.5504 
L 174.0447 26.7888 
L 174.3423 29.376 
L 174.6399 30.4848 
L 174.9375 32.3328 
L 175.2351 28.2672 
L 175.5327 29.376 
L 175.8303 30.1152 
L 176.1279 33.8112 
L 176.4255 28.6368 
L 176.7231 26.7888 
L 177.0207 29.7456 
L 177.3183 30.8544 
L 177.6159 29.7456 
L 177.9135 29.376 
L 178.2111 24.2016 
L 178.5087 28.6368 
L 178.8063 30.1152 
L 179.1039 29.376 
L 179.4015 25.3104 
L 179.6991 28.2672 
L 179.9967 26.0496 
L 180.2943 25.3104 
L 180.5919 28.2672 
L 180.8895 26.0496 
L 181.1871 29.7456 
L 181.4847 28.6368 
L 181.7823 23.4624 
L 182.0799 29.7456 
L 182.3775 23.0928 
L 182.6751 30.8544 
L 182.9727 21.984 
L 183.2703 19.3968 
L 183.5679 24.9408 
L 183.8655 26.7888 
L 184.1631 24.2016 
L 184.4607 29.376 
L 184.7583 24.9408 
L 185.0559 25.68 
L 185.3535 26.4192 
L 185.6511 23.832 
L 185.9487 22.3536 
L 186.2463 26.0496 
L 186.5439 27.8976 
L 186.8415 22.7232 
L 187.1391 22.7232 
L 187.4367 22.7232 
L 187.7343 23.0928 
L 188.0319 19.3968 
L 188.3295 18.6576 
L 188.6271 23.832 
L 188.9247 28.2672 
L 189.2223 27.1584 
L 189.5199 27.528 
L 189.8175 18.288 
L 190.1151 19.7664 
L 190.4127 25.68 
L 190.7103 23.4624 
L 191.0079 20.136 
L 191.3055 19.7664 
L 191.6031 18.6576 
L 191.9007 27.1584 
L 192.1983 23.832 
L 192.4959 21.6144 
L 192.7935 23.4624 
L 193.0911 19.7664 
L 193.3887 25.68 
L 193.6863 24.2016 
L 193.9839 22.3536 
L 194.2815 24.2016 
L 194.5791 20.8752 
L 194.8767 16.8096 
L 195.1743 23.0928 
L 195.4719 20.5056 
L 195.7695 22.3536 
L 196.0671 21.6144 
L 196.3647 20.5056 
L 196.6623 13.8528 
L 196.9599 17.5488 
L 197.2575 19.7664 
L 197.5551 22.3536 
L 197.8527 20.5056 
L 198.1503 20.136 
L 198.4479 17.5488 
L 198.7455 20.5056 
L 199.0431 21.2448 
L 199.3407 15.7008 
L 199.6383 17.9184 
L 199.9359 17.5488 
L 200.2335 19.7664 
L 200.5311 21.2448 
L 200.8287 19.7664 
L 201.1263 20.8752 
L 201.4239 20.136 
L 201.7215 16.8096 
L 202.0191 13.8528 
L 202.3167 22.7232 
L 202.6143 23.0928 
L 202.9119 16.0704 
L 203.2095 19.3968 
L 203.5071 17.1792 
L 203.8047 19.3968 
L 204.1023 18.288 
L 204.3999 19.7664 
L 204.3999 49.3344 
L 204.3999 49.3344 
L 204.1023 53.7696 
L 203.8047 47.4864 
L 203.5071 51.1824 
L 203.2095 50.4432 
L 202.9119 47.1168 
L 202.6143 48.2256 
L 202.3167 49.3344 
L 202.0191 53.7696 
L 201.7215 55.248 
L 201.4239 52.6608 
L 201.1263 54.8784 
L 200.8287 52.2912 
L 200.5311 55.248 
L 200.2335 55.248 
L 199.9359 55.9872 
L 199.6383 57.8352 
L 199.3407 58.5744 
L 199.0431 56.7264 
L 198.7455 58.944 
L 198.4479 57.4656 
L 198.1503 57.096 
L 197.8527 57.4656 
L 197.5551 51.9216 
L 197.2575 52.2912 
L 196.9599 54.5088 
L 196.6623 61.1616 
L 196.3647 53.0304 
L 196.0671 55.6176 
L 195.7695 53.4 
L 195.4719 58.944 
L 195.1743 57.096 
L 194.8767 58.2048 
L 194.5791 62.2704 
L 194.2815 56.7264 
L 193.9839 53.4 
L 193.6863 58.2048 
L 193.3887 64.1184 
L 193.0911 61.1616 
L 192.7935 55.9872 
L 192.4959 57.096 
L 192.1983 57.8352 
L 191.9007 59.6832 
L 191.6031 55.6176 
L 191.3055 62.64 
L 191.0079 60.0528 
L 190.7103 55.9872 
L 190.4127 61.1616 
L 190.1151 62.64 
L 189.8175 59.6832 
L 189.5199 55.6176 
L 189.2223 59.6832 
L 188.9247 57.8352 
L 188.6271 62.2704 
L 188.3295 63.0096 
L 188.0319 63.7488 
L 187.7343 60.0528 
L 187.4367 68.5536 
L 187.1391 70.032 
L 186.8415 64.1184 
L 186.5439 63.3792 
L 186.2463 65.9664 
L 185.9487 65.2272 
L 185.6511 63.7488 
L 185.3535 64.8576 
L 185.0559 68.5536 
L 184.7583 67.8144 
L 184.4607 63.3792 
L 184.1631 65.5968 
L 183.8655 66.7056 
L 183.5679 67.8144 
L 183.2703 68.184 
L 182.9727 64.8576 
L 182.6751 72.2496 
L 182.3775 70.4016 
L 182.0799 68.184 
L 181.7823 67.8144 
L 181.4847 65.5968 
L 181.1871 66.7056 
L 180.8895 71.88 
L 180.5919 71.1408 
L 180.2943 66.7056 
L 179.9967 65.9664 
L 179.6991 71.1408 
L 179.4015 71.1408 
L 179.1039 70.7712 
L 178.8063 71.5104 
L 178.5087 71.5104 
L 178.2111 67.0752 
L 177.9135 67.8144 
L 177.6159 72.6192 
L 177.3183 73.728 
L 177.0207 71.1408 
L 176.7231 71.1408 
L 176.4255 71.5104 
L 176.1279 69.2928 
L 175.8303 71.5104 
L 175.5327 70.7712 
L 175.2351 74.0976 
L 174.9375 72.2496 
L 174.6399 70.4016 
L 174.3423 73.728 
L 174.0447 71.1408 
L 173.7471 75.9456 
L 173.4495 74.4672 
L 173.1519 71.5104 
L 172.8543 70.032 
L 172.5567 76.3152 
L 172.2591 76.6848 
L 171.9615 75.576 
L 171.6639 76.6848 
L 171.3663 79.6416 
L 171.0687 82.5984 
L 170.7711 72.6192 
L 170.4735 80.0112 
L 170.1759 81.4896 
L 169.8783 75.9456 
L 169.5807 84.0768 
L 169.2831 79.6416 
L 168.9855 77.7936 
L 168.6879 83.3376 
L 168.3903 82.5984 
L 168.0927 81.4896 
L 167.7951 82.968 
L 167.4975 86.2944 
L 167.1999 82.968 
L 166.9023 83.3376 
L 166.6047 84.0768 
L 166.3071 81.12 
L 166.0095 81.12 
L 165.7119 84.0768 
L 165.4143 84.0768 
L 165.1167 84.0768 
L 164.8191 83.3376 
L 164.5215 79.272 
L 164.2239 82.5984 
L 163.9263 78.5328 
L 163.6287 84.816 
L 163.3311 82.5984 
L 163.0335 77.0544 
L 162.7359 79.6416 
L 162.4383 78.9024 
L 162.1407 81.4896 
L 161.8431 83.7072 
L 161.5455 86.664 
L 161.2479 81.8592 
L 160.9503 82.5984 
L 160.6527 84.0768 
L 160.3551 81.8592 
L 160.0575 81.8592 
L 159.7599 84.0768 
L 159.4623 84.0768 
L 159.1647 85.1856 
L 158.8671 80.7504 
L 158.5695 89.2512 
L 158.2719 91.8384 
L 157.9743 94.7952 
L 157.6767 89.6208 
L 157.3791 91.0992 
L 157.0815 84.816 
L 156.7839 85.5552 
L 156.4863 86.2944 
L 156.1887 89.6208 
L 155.8911 89.2512 
L 155.5935 92.208 
L 155.2959 82.5984 
L 154.9983 89.9904 
L 154.7007 89.2512 
L 154.4031 92.208 
L 154.1055 92.208 
L 153.8079 90.7296 
L 153.5103 89.9904 
L 153.2127 89.9904 
L 152.9151 91.4688 
L 152.6175 90.7296 
L 152.3199 91.0992 
L 152.0223 90.7296 
L 151.7247 90.7296 
L 151.4271 90.36 
L 151.1295 90.7296 
L 150.8319 92.208 
L 150.5343 92.208 
L 150.2367 92.208 
L 149.9391 94.7952 
L 149.6415 92.208 
L 149.3439 91.4688 
L 149.0463 91.4688 
L 148.7487 92.9472 
L 148.4511 93.6864 
L 148.1535 97.3824 
L 147.8559 99.6 
L 147.5583 99.2304 
L 147.2607 95.5344 
L 146.9631 98.8608 
L 146.6655 101.8176 
L 146.3679 99.2304 
L 146.0703 106.2528 
L 145.7727 105.5136 
L 145.4751 100.3392 
L 145.1775 100.7088 
L 144.8799 100.3392 
L 144.5823 103.296 
L 144.2847 103.296 
L 143.9871 111.0576 
L 143.6895 115.4928 
L 143.3919 115.8624 
L 143.0943 105.5136 
L 142.7967 106.992 
L 142.4991 111.7968 
L 142.2015 114.384 
L 141.9039 117.7104 
L 141.6063 114.384 
L 141.3087 111.7968 
L 141.0111 121.0368 
L 140.7135 110.3184 
L 140.4159 122.5152 
L 140.1183 111.7968 
L 139.8207 120.6672 
L 139.5231 123.9936 
L 139.2255 123.2544 
L 138.9279 120.6672 
L 138.6303 122.8848 
L 138.3327 124.3632 
L 138.0351 130.6464 
L 137.7375 127.6896 
L 137.4399 134.3424 
L 137.1423 132.1248 
L 136.8447 128.0592 
L 136.5471 133.9728 
L 136.2495 135.4512 
L 135.9519 128.4288 
L 135.6543 129.9072 
L 135.3567 143.5824 
L 135.0591 135.8208 
L 134.7615 134.3424 
L 134.4639 137.2992 
L 134.1663 140.256 
L 133.8687 140.6256 
L 133.5711 146.9088 
L 133.2735 143.2128 
L 132.9759 151.344 
L 132.6783 138.0384 
L 132.3807 139.5168 
L 132.0831 141.7344 
L 131.7855 147.648 
L 131.4879 149.1264 
L 131.1903 149.1264 
L 130.8927 149.8656 
L 130.5951 153.5616 
L 130.2975 148.3872 
L 129.9999 146.9088 
L 129.7023 146.1696 
L 129.4047 146.1696 
L 129.1071 150.6048 
L 128.8095 144.3216 
L 128.5119 144.6912 
L 128.2143 147.648 
L 127.9167 145.4304 
L 127.6191 145.0608 
L 127.3215 144.6912 
L 127.0239 139.8864 
L 126.7263 149.1264 
L 126.4287 146.9088 
L 126.1311 143.2128 
L 125.8335 140.256 
L 125.5359 143.952 
L 125.2383 143.2128 
L 124.9407 148.3872 
L 124.6431 145.4304 
L 124.3455 145.4304 
L 124.0479 147.648 
L 123.7503 139.8864 
L 123.4527 142.104 
L 123.1551 146.1696 
L 122.8575 142.4736 
L 122.5599 142.8432 
L 122.2623 141.3648 
L 121.9647 142.4736 
L 121.6671 141.7344 
L 121.3695 143.2128 
L 121.0719 143.2128 
L 120.7743 144.3216 
L 120.4767 143.952 
L 120.1791 140.6256 
L 119.8815 140.256 
L 119.5839 139.1472 
L 119.2863 142.4736 
L 118.9887 141.7344 
L 118.6911 141.7344 
L 118.3935 140.9952 
L 118.0959 140.256 
L 117.7983 140.256 
L 117.5007 138.7776 
L 117.2031 139.1472 
L 116.9055 139.8864 
L 116.6079 138.7776 
L 116.3103 138.7776 
L 116.0127 141.7344 
L 115.7151 140.9952 
L 115.4175 140.9952 
L 115.1199 140.256 
L 114.8223 140.9952 
L 114.5247 142.104 
L 114.2271 140.9952 
L 113.9295 142.104 
L 113.6319 140.9952 
L 113.3343 139.5168 
L 113.0367 140.9952 
L 112.7391 140.256 
L 112.4415 140.9952 
L 112.1439 140.256 
L 111.8463 141.7344 
L 111.5487 140.256 
L 111.2511 141.3648 
L 110.9535 144.6912 
L 110.6559 143.952 
L 110.3583 143.2128 
L 110.0607 146.1696 
L 109.7631 145.8 
L 109.4655 151.344 
L 109.1679 150.6048 
L 108.8703 153.192 
L 108.5727 156.888 
L 108.2751 153.192 
L 107.9775 160.2144 
L 107.6799 157.9968 
L 107.3823 158.736 
L 107.0847 157.9968 
L 106.7871 160.2144 
L 106.4895 169.0848 
L 106.1919 163.5408 
L 105.8943 164.6496 
L 105.5967 163.5408 
L 105.2991 169.0848 
L 105.0015 170.1936 
L 104.7039 172.0416 
L 104.4063 171.3024 
L 104.1087 173.1504 
L 103.8111 179.4336 
L 103.5135 181.6512 
L 103.2159 182.0208 
L 102.9183 179.4336 
L 102.6207 180.5424 
L 102.3231 179.8032 
L 102.0255 179.8032 
L 101.7279 179.4336 
L 101.4303 180.1728 
L 101.1327 178.6944 
L 100.8351 175.368 
L 100.5375 176.8464 
L 100.2399 172.0416 
L 99.9423 173.52 
L 99.6447 170.5632 
L 99.3471 179.064 
L 99.0495 171.672 
L 98.7519 174.2592 
L 98.4543 177.9552 
L 98.1567 172.7808 
L 97.8591 174.6288 
L 97.5615 172.0416 
L 97.2639 178.6944 
L 96.9663 177.216 
L 96.6687 169.0848 
L 96.3711 173.52 
L 96.0735 174.9984 
L 95.7759 170.5632 
L 95.4783 169.824 
L 95.1807 169.824 
L 94.8831 175.7376 
L 94.5855 172.0416 
L 94.2879 169.0848 
L 93.9903 177.9552 
L 93.6927 173.52 
L 93.3951 170.5632 
L 93.0975 172.7808 
L 92.7999 168.3456 
L 92.5023 172.0416 
L 92.2047 171.3024 
L 91.9071 166.8672 
L 91.6095 169.824 
L 91.3119 176.8464 
L 91.0143 177.9552 
L 90.7167 177.216 
L 90.4191 170.9328 
L 90.1215 167.6064 
L 89.8239 170.1936 
L 89.5263 169.824 
L 89.2287 174.9984 
L 88.9311 172.7808 
L 88.6335 171.3024 
L 88.3359 170.5632 
L 88.0383 171.672 
L 87.7407 174.9984 
L 87.4431 174.2592 
L 87.1455 174.2592 
L 86.8479 174.6288 
L 86.5503 173.52 
L 86.2527 174.2592 
L 85.9551 174.9984 
L 85.6575 175.368 
L 85.3599 185.3472 
L 85.0623 183.1296 
L 84.7647 180.1728 
L 84.4671 187.9344 
L 84.1695 193.848 
L 83.8719 186.8256 
L 83.5743 184.9776 
L 83.2767 184.2384 
L 82.9791 188.304 
L 82.6815 201.9792 
L 82.3839 191.2608 
L 82.0863 193.4784 
L 81.7887 192 
L 81.4911 209.3712 
L 81.1935 190.5216 
L 80.8959 241.5264 
L 80.5983 219.72 
L 80.3007 203.8272 
L 80.0031 220.4592 
L 79.7055 216.7632 
L 79.4079 192.7392 
L 79.1103 218.9808 
L 78.8127 207.8928 
L 78.5151 240.048 
L 78.2175 226.0032 
L 77.9199 226.0032 
L 77.6223 226.0032 
L 77.3247 225.264 
L 77.0271 231.9168 
L 76.7295 236.352 
L 76.4319 230.4384 
L 76.1343 236.352 
L 75.8367 227.4816 
L 75.5391 234.8736 
L 75.2415 236.352 
L 74.9439 224.1552 
L 74.6463 237.4608 
L 74.3487 236.352 
L 74.0511 231.9168 
L 73.7535 223.7856 
L 73.4559 219.3504 
L 73.1583 215.6544 
L 72.8607 224.5248 
L 72.5631 202.3488 
L 72.2655 202.3488 
L 71.9679 207.1536 
L 71.6703 204.936 
L 71.3727 199.0224 
L 71.0751 198.6528 
L 70.7775 198.6528 
L 70.4799 199.0224 
L 70.1823 205.6752 
L 69.8847 199.0224 
L 69.5871 199.392 
L 69.2895 203.4576 
L 68.9919 200.1312 
L 68.6943 199.392 
L 68.3967 197.1744 
L 68.0991 198.6528 
L 67.8015 198.2832 
L 67.5039 198.6528 
L 67.2063 205.3056 
L 66.9087 204.1968 
L 66.6111 209.0016 
L 66.3135 210.8496 
L 66.0159 209.7408 
L 65.7183 210.1104 
L 65.4207 206.784 
L 65.1231 209.0016 
L 64.8255 213.4368 
L 64.5279 210.8496 
L 64.2303 210.48 
L 63.9327 214.9152 
L 63.6351 210.48 
L 63.3375 213.8064 
L 63.0399 214.5456 
L 62.7423 214.9152 
L 62.4447 211.9584 
L 62.1471 211.2192 
L 61.8495 212.328 
L 61.5519 210.48 
L 61.2543 215.2848 
L 60.9567 211.9584 
L 60.6591 211.2192 
L 60.3615 212.6976 
L 60.0639 211.2192 
L 59.7663 211.2192 
L 59.4687 209.7408 
L 59.1711 208.2624 
L 58.8735 208.2624 
L 58.5759 207.5232 
L 58.2783 207.5232 
L 57.9807 211.2192 
L 57.6831 211.2192 
L 57.3855 211.2192 
L 57.0879 211.2192 
L 56.7903 211.2192 
L 56.4927 211.2192 
L 56.1951 211.2192 
L 55.8975 211.2192 
L 55.5999 211.2192 
L 55.3023 209.7408 
L 55.0047 209.7408 
L 54.7071 211.2192 
L 54.4095 214.176 
L 54.1119 212.328 
L 53.8143 216.7632 
L 53.5167 214.176 
L 53.2191 213.0672 
L 52.9215 214.5456 
L 52.6239 214.176 
L 52.3263 217.1328 
L 52.0287 217.1328 
L 51.7311 216.3936 
L 51.4335 216.3936 
L 51.1359 216.3936 
L 50.8383 217.1328 
L 50.5407 217.1328 
L 50.2431 218.6112 
L 49.9455 218.2416 
L 49.6479 217.872 
L 49.3503 217.872 
L 49.0527 216.3936 
L 48.7551 217.872 
L 48.4575 217.872 
L 48.1599 217.872 
L 47.8623 218.6112 
L 47.5647 220.0896 
L 47.2671 217.872 
L 46.9695 218.6112 
z
" clip-path="url(#pef93932ce5)" style="fill: #b8de29; fill-opacity: 0.3"/>
   </g>
   <g id="matplotlib.axis_1">
    <g id="xtick_1">
     <g id="line2d_1">
      <defs>
       <path id="me421fda226" d="M 0 0 
L 0 3.5 
" style="stroke: #000000; stroke-width: 0.8"/>
      </defs>
      <g>
       <use xlink:href="#me421fda226" x="33.5775" y="228.96" style="stroke: #000000; stroke-width: 0.8"/>
      </g>
     </g>
     <g id="text_1">
      <text style="font: 6px 'DejaVu Sans', 'Bitstream Vera Sans', 'Computer Modern Sans Serif', 'Lucida Grande', 'Verdana', 'Geneva', 'Lucid', 'Arial', 'Helvetica', 'Avant Garde', sans-serif; text-anchor: middle" x="33.5775" y="240.519062" transform="rotate(-0 33.5775 240.519062)">0</text>
     </g>
    </g>
    <g id="xtick_2">
     <g id="line2d_2">
      <g>
       <use xlink:href="#me421fda226" x="69.2895" y="228.96" style="stroke: #000000; stroke-width: 0.8"/>
      </g>
     </g>
     <g id="text_2">
      <text style="font: 6px 'DejaVu Sans', 'Bitstream Vera Sans', 'Computer Modern Sans Serif', 'Lucida Grande', 'Verdana', 'Geneva', 'Lucid', 'Arial', 'Helvetica', 'Avant Garde', sans-serif; text-anchor: middle" x="69.2895" y="240.519062" transform="rotate(-0 69.2895 240.519062)">4</text>
     </g>
    </g>
    <g id="xtick_3">
     <g id="line2d_3">
      <g>
       <use xlink:href="#me421fda226" x="105.0015" y="228.96" style="stroke: #000000; stroke-width: 0.8"/>
      </g>
     </g>
     <g id="text_3">
      <text style="font: 6px 'DejaVu Sans', 'Bitstream Vera Sans', 'Computer Modern Sans Serif', 'Lucida Grande', 'Verdana', 'Geneva', 'Lucid', 'Arial', 'Helvetica', 'Avant Garde', sans-serif; text-anchor: middle" x="105.0015" y="240.519062" transform="rotate(-0 105.0015 240.519062)">8</text>
     </g>
    </g>
    <g id="xtick_4">
     <g id="line2d_4">
      <g>
       <use xlink:href="#me421fda226" x="140.7135" y="228.96" style="stroke: #000000; stroke-width: 0.8"/>
      </g>
     </g>
     <g id="text_4">
      <text style="font: 6px 'DejaVu Sans', 'Bitstream Vera Sans', 'Computer Modern Sans Serif', 'Lucida Grande', 'Verdana', 'Geneva', 'Lucid', 'Arial', 'Helvetica', 'Avant Garde', sans-serif; text-anchor: middle" x="140.7135" y="240.519062" transform="rotate(-0 140.7135 240.519062)">12</text>
     </g>
    </g>
    <g id="xtick_5">
     <g id="line2d_5">
      <g>
       <use xlink:href="#me421fda226" x="176.4255" y="228.96" style="stroke: #000000; stroke-width: 0.8"/>
      </g>
     </g>
     <g id="text_5">
      <text style="font: 6px 'DejaVu Sans', 'Bitstream Vera Sans', 'Computer Modern Sans Serif', 'Lucida Grande', 'Verdana', 'Geneva', 'Lucid', 'Arial', 'Helvetica', 'Avant Garde', sans-serif; text-anchor: middle" x="176.4255" y="240.519062" transform="rotate(-0 176.4255 240.519062)">16</text>
     </g>
    </g>
    <g id="xtick_6">
     <g id="line2d_6">
      <g>
       <use xlink:href="#me421fda226" x="212.1375" y="228.96" style="stroke: #000000; stroke-width: 0.8"/>
      </g>
     </g>
     <g id="text_6">
      <text style="font: 6px 'DejaVu Sans', 'Bitstream Vera Sans', 'Computer Modern Sans Serif', 'Lucida Grande', 'Verdana', 'Geneva', 'Lucid', 'Arial', 'Helvetica', 'Avant Garde', sans-serif; text-anchor: middle" x="212.1375" y="240.519062" transform="rotate(-0 212.1375 240.519062)">20</text>
     </g>
    </g>
    <g id="xtick_7">
     <g id="line2d_7">
      <g>
       <use xlink:href="#me421fda226" x="247.8495" y="228.96" style="stroke: #000000; stroke-width: 0.8"/>
      </g>
     </g>
     <g id="text_7">
      <text style="font: 6px 'DejaVu Sans', 'Bitstream Vera Sans', 'Computer Modern Sans Serif', 'Lucida Grande', 'Verdana', 'Geneva', 'Lucid', 'Arial', 'Helvetica', 'Avant Garde', sans-serif; text-anchor: middle" x="247.8495" y="240.519062" transform="rotate(-0 247.8495 240.519062)">24</text>
     </g>
    </g>
    <g id="text_8">
     <text style="font: 8px 'DejaVu Sans', 'Bitstream Vera Sans', 'Computer Modern Sans Serif', 'Lucida Grande', 'Verdana', 'Geneva', 'Lucid', 'Arial', 'Helvetica', 'Avant Garde', sans-serif; text-anchor: middle" x="145.1775" y="251.845625" transform="rotate(-0 145.1775 251.845625)">Experimental time (hpf)</text>
    </g>
   </g>
   <g id="matplotlib.axis_2">
    <g id="ytick_1">
     <g id="line2d_8">
      <defs>
       <path id="m8b9653bc51" d="M 0 0 
L -3.5 0 
" style="stroke: #000000; stroke-width: 0.8"/>
      </defs>
      <g>
       <use xlink:href="#m8b9653bc51" x="33.5775" y="228.96" style="stroke: #000000; stroke-width: 0.8"/>
      </g>
     </g>
     <g id="text_9">
      <text style="font: 6px 'DejaVu Sans', 'Bitstream Vera Sans', 'Computer Modern Sans Serif', 'Lucida Grande', 'Verdana', 'Geneva', 'Lucid', 'Arial', 'Helvetica', 'Avant Garde', sans-serif; text-anchor: end" x="26.5775" y="231.239531" transform="rotate(-0 26.5775 231.239531)">0</text>
     </g>
    </g>
    <g id="ytick_2">
     <g id="line2d_9">
      <g>
       <use xlink:href="#m8b9653bc51" x="33.5775" y="193.4784" style="stroke: #000000; stroke-width: 0.8"/>
      </g>
     </g>
     <g id="text_10">
      <text style="font: 6px 'DejaVu Sans', 'Bitstream Vera Sans', 'Computer Modern Sans Serif', 'Lucida Grande', 'Verdana', 'Geneva', 'Lucid', 'Arial', 'Helvetica', 'Avant Garde', sans-serif; text-anchor: end" x="26.5775" y="195.757931" transform="rotate(-0 26.5775 195.757931)">4</text>
     </g>
    </g>
    <g id="ytick_3">
     <g id="line2d_10">
      <g>
       <use xlink:href="#m8b9653bc51" x="33.5775" y="157.9968" style="stroke: #000000; stroke-width: 0.8"/>
      </g>
     </g>
     <g id="text_11">
      <text style="font: 6px 'DejaVu Sans', 'Bitstream Vera Sans', 'Computer Modern Sans Serif', 'Lucida Grande', 'Verdana', 'Geneva', 'Lucid', 'Arial', 'Helvetica', 'Avant Garde', sans-serif; text-anchor: end" x="26.5775" y="160.276331" transform="rotate(-0 26.5775 160.276331)">8</text>
     </g>
    </g>
    <g id="ytick_4">
     <g id="line2d_11">
      <g>
       <use xlink:href="#m8b9653bc51" x="33.5775" y="122.5152" style="stroke: #000000; stroke-width: 0.8"/>
      </g>
     </g>
     <g id="text_12">
      <text style="font: 6px 'DejaVu Sans', 'Bitstream Vera Sans', 'Computer Modern Sans Serif', 'Lucida Grande', 'Verdana', 'Geneva', 'Lucid', 'Arial', 'Helvetica', 'Avant Garde', sans-serif; text-anchor: end" x="26.5775" y="124.794731" transform="rotate(-0 26.5775 124.794731)">12</text>
     </g>
    </g>
    <g id="ytick_5">
     <g id="line2d_12">
      <g>
       <use xlink:href="#m8b9653bc51" x="33.5775" y="87.0336" style="stroke: #000000; stroke-width: 0.8"/>
      </g>
     </g>
     <g id="text_13">
      <text style="font: 6px 'DejaVu Sans', 'Bitstream Vera Sans', 'Computer Modern Sans Serif', 'Lucida Grande', 'Verdana', 'Geneva', 'Lucid', 'Arial', 'Helvetica', 'Avant Garde', sans-serif; text-anchor: end" x="26.5775" y="89.313131" transform="rotate(-0 26.5775 89.313131)">16</text>
     </g>
    </g>
    <g id="ytick_6">
     <g id="line2d_13">
      <g>
       <use xlink:href="#m8b9653bc51" x="33.5775" y="51.552" style="stroke: #000000; stroke-width: 0.8"/>
      </g>
     </g>
     <g id="text_14">
      <text style="font: 6px 'DejaVu Sans', 'Bitstream Vera Sans', 'Computer Modern Sans Serif', 'Lucida Grande', 'Verdana', 'Geneva', 'Lucid', 'Arial', 'Helvetica', 'Avant Garde', sans-serif; text-anchor: end" x="26.5775" y="53.831531" transform="rotate(-0 26.5775 53.831531)">20</text>
     </g>
    </g>
    <g id="ytick_7">
     <g id="line2d_14">
      <g>
       <use xlink:href="#m8b9653bc51" x="33.5775" y="16.0704" style="stroke: #000000; stroke-width: 0.8"/>
      </g>
     </g>
     <g id="text_15">
      <text style="font: 6px 'DejaVu Sans', 'Bitstream Vera Sans', 'Computer Modern Sans Serif', 'Lucida Grande', 'Verdana', 'Geneva', 'Lucid', 'Arial', 'Helvetica', 'Avant Garde', sans-serif; text-anchor: end" x="26.5775" y="18.349931" transform="rotate(-0 26.5775 18.349931)">24</text>
     </g>
    </g>
    <g id="text_16">
     <text style="font: 8px 'DejaVu Sans', 'Bitstream Vera Sans', 'Computer Modern Sans Serif', 'Lucida Grande', 'Verdana', 'Geneva', 'Lucid', 'Arial', 'Helvetica', 'Avant Garde', sans-serif; text-anchor: middle" x="13.27875" y="118.08" transform="rotate(-90 13.27875 118.08)">Developmental age (hpf)</text>
    </g>
   </g>
   <g id="line2d_15">
    <path d="M 42.5055 221.305947 
L 218.098782 -1 
L 218.098782 -1 
" clip-path="url(#pef93932ce5)" style="fill: none; stroke: #b8de29; stroke-linecap: square"/>
   </g>
   <g id="line2d_16">
    <path d="M 42.5055 221.145541 
L 223.097794 -1 
L 223.097794 -1 
" clip-path="url(#pef93932ce5)" style="fill: none; stroke-dasharray: 3.7,1.6; stroke-dashoffset: 0; stroke: #b8de29"/>
   </g>
   <g id="line2d_17">
    <path d="M 42.5055 221.44462 
L 214.000315 -1 
L 214.000315 -1 
" clip-path="url(#pef93932ce5)" style="fill: none; stroke-dasharray: 3.7,1.6; stroke-dashoffset: 0; stroke: #b8de29"/>
   </g>
   <g id="patch_3">
    <path d="M 33.5775 228.96 
L 33.5775 7.2 
" style="fill: none; stroke: #000000; stroke-width: 0.8; stroke-linejoin: miter; stroke-linecap: square"/>
   </g>
   <g id="patch_4">
    <path d="M 33.5775 228.96 
L 256.7775 228.96 
" style="fill: none; stroke: #000000; stroke-width: 0.8; stroke-linejoin: miter; stroke-linecap: square"/>
   </g>
   <g id="legend_1">
    <g id="patch_5">
     <path d="M 93.656011 226.065 
L 252.7245 226.065 
Q 253.8825 226.065 253.8825 224.907 
L 253.8825 208.488731 
Q 253.8825 207.330731 252.7245 207.330731 
L 93.656011 207.330731 
Q 92.498011 207.330731 92.498011 208.488731 
L 92.498011 224.907 
Q 92.498011 226.065 93.656011 226.065 
z
" style="fill: #ffffff; opacity: 0.8; stroke: #cccccc; stroke-linejoin: miter"/>
    </g>
    <g id="line2d_18">
     <path d="M 94.814011 212.019727 
L 100.604011 212.019727 
L 106.394011 212.019727 
" style="fill: none; stroke: #b8de29; stroke-linecap: square"/>
    </g>
    <g id="text_17">
     <text style="font: 5.79px 'DejaVu Sans', 'Bitstream Vera Sans', 'Computer Modern Sans Serif', 'Lucida Grande', 'Verdana', 'Geneva', 'Lucid', 'Arial', 'Helvetica', 'Avant Garde', sans-serif; text-anchor: start" x="111.026011" y="214.046227" transform="rotate(-0 111.026011 214.046227)">Linear fit: slope=1.273 [1.238,1.306], R2=0.981</text>
    </g>
    <g id="patch_6">
     <path d="M 94.814011 222.544861 
L 106.394011 222.544861 
L 106.394011 218.491861 
L 94.814011 218.491861 
z
" style="fill: #b8de29; fill-opacity: 0.3"/>
    </g>
    <g id="text_18">
     <text style="font: 5.79px 'DejaVu Sans', 'Bitstream Vera Sans', 'Computer Modern Sans Serif', 'Lucida Grande', 'Verdana', 'Geneva', 'Lucid', 'Arial', 'Helvetica', 'Avant Garde', sans-serif; text-anchor: start" x="111.026011" y="222.544861" transform="rotate(-0 111.026011 222.544861)">Median:34.5C</text>
    </g>
   </g>
  </g>
 </g>
 <defs>
  <clipPath id="pef93932ce5">
   <rect x="33.5775" y="7.2" width="223.2" height="221.76"/>
  </clipPath>
 </defs>
</svg>
