<?xml version="1.0" encoding="utf-8" standalone="no"?>
<!DOCTYPE svg PUBLIC "-//W3C//DTD SVG 1.1//EN"
  "http://www.w3.org/Graphics/SVG/1.1/DTD/svg11.dtd">
<svg xmlns:xlink="http://www.w3.org/1999/xlink" width="360pt" height="216pt" viewBox="0 0 360 216" xmlns="http://www.w3.org/2000/svg" version="1.1">
 <metadata>
  <rdf:RDF xmlns:dc="http://purl.org/dc/elements/1.1/" xmlns:cc="http://creativecommons.org/ns#" xmlns:rdf="http://www.w3.org/1999/02/22-rdf-syntax-ns#">
   <cc:Work>
    <dc:type rdf:resource="http://purl.org/dc/dcmitype/StillImage"/>
    <dc:date>2023-05-16T18:35:21.810662</dc:date>
    <dc:format>image/svg+xml</dc:format>
    <dc:creator>
     <cc:Agent>
      <dc:title>Matplotlib v3.5.1, https://matplotlib.org/</dc:title>
     </cc:Agent>
    </dc:creator>
   </cc:Work>
  </rdf:RDF>
 </metadata>
 <defs>
  <style type="text/css">*{stroke-linejoin: round; stroke-linecap: butt}</style>
 </defs>
 <g id="figure_1">
  <g id="patch_1">
   <path d="M 0 216 
L 360 216 
L 360 0 
L 0 0 
z
" style="fill: #ffffff"/>
  </g>
  <g id="axes_1">
   <g id="patch_2">
    <path d="M 45 192.24 
L 324 192.24 
L 324 25.92 
L 45 25.92 
z
" style="fill: #ffffff"/>
   </g>
   <g id="PolyCollection_1">
    <defs>
     <path id="m50704dbcae" d="M 45.3875 -187.446672 
L 45.3875 -185.477307 
L 45.775 -185.298468 
L 46.1625 -184.900186 
L 46.55 -184.049909 
L 46.9375 -185.193544 
L 47.325 -185.286969 
L 47.7125 -185.699665 
L 48.1 -186.137334 
L 48.4875 -185.853334 
L 48.875 -184.060001 
L 49.2625 -186.382206 
L 49.65 -186.373185 
L 50.0375 -186.9888 
L 50.425 -186.770684 
L 50.8125 -186.593561 
L 51.2 -186.848049 
L 51.5875 -187.317034 
L 51.975 -187.393952 
L 52.3625 -187.609788 
L 52.75 -187.073361 
L 53.1375 -187.242148 
L 53.525 -187.107117 
L 53.9125 -187.403172 
L 54.3 -187.57403 
L 54.6875 -187.6301 
L 55.075 -187.353486 
L 55.4625 -187.218078 
L 55.85 -186.880337 
L 56.2375 -187.30719 
L 56.625 -187.135509 
L 57.0125 -186.835141 
L 57.4 -187.05635 
L 57.7875 -186.982435 
L 58.175 -187.443014 
L 58.5625 -187.115672 
L 58.95 -187.360128 
L 59.3375 -187.755823 
L 59.725 -187.631012 
L 60.1125 -187.434419 
L 60.5 -186.82158 
L 60.8875 -187.154691 
L 61.275 -187.314099 
L 61.6625 -187.815541 
L 62.05 -187.906953 
L 62.4375 -187.846243 
L 62.825 -187.823046 
L 63.2125 -187.757607 
L 63.6 -187.576538 
L 63.9875 -187.382829 
L 64.375 -187.910423 
L 64.7625 -187.872861 
L 65.15 -188.107562 
L 65.5375 -188.021255 
L 65.925 -188.015644 
L 66.3125 -188.156068 
L 66.7 -188.212386 
L 67.0875 -188.273998 
L 67.475 -188.080666 
L 67.8625 -188.152767 
L 68.25 -188.268982 
L 68.6375 -188.454978 
L 69.025 -188.075264 
L 69.4125 -188.106412 
L 69.8 -187.73896 
L 70.1875 -188.304829 
L 70.575 -187.930914 
L 70.9625 -187.672123 
L 71.35 -187.769454 
L 71.7375 -188.080072 
L 72.125 -187.910958 
L 72.5125 -187.949502 
L 72.9 -187.838352 
L 73.2875 -188.063209 
L 73.675 -188.005641 
L 74.0625 -187.921417 
L 74.45 -187.917412 
L 74.8375 -187.952327 
L 75.225 -187.36666 
L 75.6125 -187.800354 
L 76 -188.034162 
L 76.3875 -187.954895 
L 76.775 -188.019828 
L 77.1625 -188.043521 
L 77.55 -188.205288 
L 77.9375 -187.611979 
L 78.325 -187.881832 
L 78.7125 -187.568141 
L 79.1 -188.040963 
L 79.4875 -187.731436 
L 79.875 -187.674929 
L 80.2625 -187.511536 
L 80.65 -187.576538 
L 81.0375 -187.734737 
L 81.425 -188.001577 
L 81.8125 -188.312829 
L 82.2 -187.888018 
L 82.5875 -187.851418 
L 82.975 -188.069861 
L 83.3625 -187.986925 
L 83.75 -188.037493 
L 84.1375 -187.775431 
L 84.525 -187.897337 
L 84.9125 -187.967405 
L 85.3 -188.23833 
L 85.6875 -188.102922 
L 86.075 -187.990444 
L 86.4625 -187.908985 
L 86.85 -187.831462 
L 87.2375 -187.75846 
L 87.625 -187.853639 
L 88.0125 -187.934869 
L 88.4 -187.917015 
L 88.7875 -188.115413 
L 89.175 -188.210443 
L 89.5625 -187.774956 
L 89.95 -187.973532 
L 90.3375 -187.727064 
L 90.725 -187.831284 
L 91.1125 -187.552825 
L 91.5 -187.841614 
L 91.8875 -187.874556 
L 92.275 -187.690255 
L 92.6625 -187.362527 
L 93.05 -187.537796 
L 93.4375 -187.054774 
L 93.825 -186.97733 
L 94.2125 -187.123176 
L 94.6 -186.882775 
L 94.9875 -186.566358 
L 95.375 -186.786873 
L 95.7625 -186.473935 
L 96.15 -185.508742 
L 96.5375 -185.295058 
L 96.925 -185.108784 
L 97.3125 -185.532594 
L 97.7 -185.313537 
L 98.0875 -185.075802 
L 98.475 -185.141043 
L 98.8625 -184.929391 
L 99.25 -185.042612 
L 99.6375 -185.245778 
L 100.025 -184.726968 
L 100.4125 -184.639561 
L 100.8 -184.310326 
L 101.1875 -184.220391 
L 101.575 -183.183692 
L 101.9625 -184.211637 
L 102.35 -184.487994 
L 102.7375 -183.421942 
L 103.125 -184.315302 
L 103.5125 -184.086212 
L 103.9 -184.308442 
L 104.2875 -184.220421 
L 104.675 -184.531554 
L 105.0625 -184.875005 
L 105.45 -184.634981 
L 105.8375 -184.445872 
L 106.225 -185.064987 
L 106.6125 -185.370797 
L 107 -185.868739 
L 107.3875 -185.340699 
L 107.775 -185.708072 
L 108.1625 -184.910129 
L 108.55 -184.299976 
L 108.9375 -185.223235 
L 109.325 -185.181975 
L 109.7125 -184.859015 
L 110.1 -185.626891 
L 110.4875 -185.10702 
L 110.875 -185.350791 
L 111.2625 -185.101577 
L 111.65 -184.509586 
L 112.0375 -184.784387 
L 112.425 -186.011344 
L 112.8125 -185.38534 
L 113.2 -185.983983 
L 113.5875 -185.988959 
L 113.975 -185.795588 
L 114.3625 -185.570681 
L 114.75 -185.637448 
L 115.1375 -185.919258 
L 115.525 -185.6316 
L 115.9125 -186.173905 
L 116.3 -186.040202 
L 116.6875 -186.113819 
L 117.075 -186.739863 
L 117.4625 -186.430673 
L 117.85 -186.789599 
L 118.2375 -187.060623 
L 118.625 -186.72873 
L 119.0125 -186.624966 
L 119.4 -186.790025 
L 119.7875 -186.55696 
L 120.175 -186.011037 
L 120.5625 -186.427996 
L 120.95 -186.082037 
L 121.3375 -185.357453 
L 121.725 -185.921954 
L 122.1125 -186.462128 
L 122.5 -186.989513 
L 122.8875 -186.869838 
L 123.275 -187.010857 
L 123.6625 -187.079071 
L 124.05 -186.944516 
L 124.4375 -186.799096 
L 124.825 -186.815096 
L 125.2125 -186.820241 
L 125.6 -186.824851 
L 125.9875 -187.137878 
L 126.375 -186.669954 
L 126.7625 -186.990802 
L 127.15 -187.053852 
L 127.5375 -187.040607 
L 127.925 -187.37355 
L 128.3125 -187.179505 
L 128.7 -187.298724 
L 129.0875 -187.169809 
L 129.475 -187.461106 
L 129.8625 -187.584915 
L 130.25 -187.433765 
L 130.6375 -187.190419 
L 131.025 -187.378041 
L 131.4125 -187.314833 
L 131.8 -187.301271 
L 132.1875 -187.154007 
L 132.575 -187.083364 
L 132.9625 -187.396678 
L 133.35 -187.424426 
L 133.7375 -187.44117 
L 134.125 -187.38276 
L 134.5125 -187.329247 
L 134.9 -187.19377 
L 135.2875 -187.201711 
L 135.675 -187.042074 
L 136.0625 -187.015715 
L 136.45 -187.341778 
L 136.8375 -187.310233 
L 137.225 -187.436917 
L 137.6125 -187.588761 
L 138 -187.672004 
L 138.3875 -187.439376 
L 138.775 -187.548057 
L 139.1625 -187.668555 
L 139.55 -187.810456 
L 139.9375 -188.291099 
L 140.325 -188.325747 
L 140.7125 -188.130452 
L 141.1 -188.176995 
L 141.4875 -187.585153 
L 141.875 -182.937175 
L 142.2625 -182.910518 
L 142.65 -183.429526 
L 143.0375 -187.389917 
L 143.425 -188.359026 
L 143.8125 -188.150179 
L 144.2 -187.461473 
L 144.5875 -187.867398 
L 144.975 -187.83741 
L 145.3625 -187.848474 
L 145.75 -188.151914 
L 146.1375 -188.21307 
L 146.525 -188.235078 
L 146.9125 -188.301429 
L 147.3 -188.265691 
L 147.6875 -188.151954 
L 148.075 -188.423394 
L 148.4625 -188.364449 
L 148.85 -188.502365 
L 149.2375 -188.589633 
L 149.625 -188.649401 
L 150.0125 -188.352245 
L 150.4 -188.441446 
L 150.7875 -188.218077 
L 151.175 -188.081301 
L 151.5625 -187.938845 
L 151.95 -187.667881 
L 152.3375 -187.903692 
L 152.725 -187.932203 
L 153.1125 -187.925561 
L 153.5 -188.056557 
L 153.8875 -188.073142 
L 154.275 -188.310896 
L 154.6625 -188.119755 
L 155.05 -188.0688 
L 155.4375 -187.615319 
L 155.825 -187.451153 
L 156.2125 -187.2258 
L 156.6 -187.283507 
L 156.9875 -187.251843 
L 157.375 -187.29222 
L 157.7625 -186.891241 
L 158.15 -187.156406 
L 158.5375 -187.223481 
L 158.925 -187.434786 
L 159.3125 -187.233929 
L 159.7 -186.984438 
L 160.0875 -186.889239 
L 160.475 -187.068464 
L 160.8625 -186.814601 
L 161.25 -186.610116 
L 161.6375 -186.414871 
L 162.025 -186.570651 
L 162.4125 -186.273515 
L 162.8 -186.628912 
L 163.1875 -186.471714 
L 163.575 -186.43325 
L 163.9625 -185.933543 
L 164.35 -186.06797 
L 164.7375 -185.728464 
L 165.125 -185.733014 
L 165.5125 -185.587772 
L 165.9 -185.60177 
L 166.2875 -185.553412 
L 166.675 -185.656433 
L 167.0625 -186.168393 
L 167.45 -185.919486 
L 167.8375 -185.834736 
L 168.225 -185.954242 
L 168.6125 -185.541328 
L 169 -185.073274 
L 169.3875 -184.427592 
L 169.775 -184.315907 
L 170.1625 -184.459811 
L 170.55 -184.675636 
L 170.9375 -184.165084 
L 171.325 -184.161743 
L 171.7125 -184.425817 
L 172.1 -184.312586 
L 172.4875 -184.22165 
L 172.875 -184.695532 
L 173.2625 -184.707369 
L 173.65 -184.462676 
L 174.0375 -184.816229 
L 174.425 -184.667239 
L 174.8125 -184.8561 
L 175.2 -184.862148 
L 175.5875 -184.478071 
L 175.975 -184.481204 
L 176.3625 -183.720783 
L 176.75 -183.72568 
L 177.1375 -184.177823 
L 177.525 -183.826183 
L 177.9125 -183.717234 
L 178.3 -183.416738 
L 178.6875 -183.985105 
L 179.075 -183.543511 
L 179.4625 -183.489245 
L 179.85 -182.801093 
L 180.2375 -183.001077 
L 180.625 -182.48073 
L 181.0125 -182.463639 
L 181.4 -182.578576 
L 181.7875 -182.209022 
L 182.175 -182.210668 
L 182.5625 -182.405913 
L 182.95 -182.33191 
L 183.3375 -181.87826 
L 183.725 -181.922564 
L 184.1125 -181.88058 
L 184.5 -182.012498 
L 184.8875 -182.748691 
L 185.275 -182.956526 
L 185.6625 -182.719307 
L 186.05 -182.328499 
L 186.4375 -181.68246 
L 186.825 -181.025347 
L 187.2125 -181.604867 
L 187.6 -181.873938 
L 187.9875 -181.741901 
L 188.375 -181.61608 
L 188.7625 -181.256985 
L 189.15 -180.68025 
L 189.5375 -180.954119 
L 189.925 -180.886133 
L 190.3125 -181.421984 
L 190.7 -180.741198 
L 191.0875 -180.61844 
L 191.475 -180.260337 
L 191.8625 -180.53937 
L 192.25 -180.473724 
L 192.6375 -180.420587 
L 193.025 -179.714949 
L 193.4125 -180.176033 
L 193.8 -180.206308 
L 194.1875 -180.162313 
L 194.575 -179.953833 
L 194.9625 -179.973719 
L 195.35 -180.177629 
L 195.7375 -179.641034 
L 196.125 -179.055913 
L 196.5125 -179.311114 
L 196.9 -179.565662 
L 197.2875 -179.188535 
L 197.675 -179.118863 
L 198.0625 -178.420183 
L 198.45 -178.249474 
L 198.8375 -179.283644 
L 199.225 -178.654874 
L 199.6125 -177.623638 
L 200 -177.440269 
L 200.3875 -177.595355 
L 200.775 -177.137998 
L 201.1625 -177.153324 
L 201.55 -177.73913 
L 201.9375 -174.908207 
L 202.325 -171.016466 
L 202.7125 -168.870027 
L 203.1 -168.77229 
L 203.4875 -168.879871 
L 203.875 -170.07337 
L 204.2625 -170.330594 
L 204.65 -168.184314 
L 205.0375 -168.433488 
L 205.425 -168.501782 
L 205.8125 -168.117904 
L 206.2 -167.40248 
L 206.5875 -166.535282 
L 206.975 -166.840586 
L 207.3625 -166.496381 
L 207.75 -166.30639 
L 208.1375 -165.111989 
L 208.525 -165.034882 
L 208.9125 -164.64565 
L 209.3 -163.487334 
L 209.6875 -162.62305 
L 210.075 -163.237118 
L 210.4625 -163.69166 
L 210.85 -162.593657 
L 211.2375 -162.242463 
L 211.625 -162.410476 
L 212.0125 -162.448861 
L 212.4 -162.256044 
L 212.7875 -163.08921 
L 213.175 -162.472177 
L 213.5625 -161.735281 
L 213.95 -162.740524 
L 214.3375 -162.194313 
L 214.725 -162.650728 
L 215.1125 -162.61268 
L 215.5 -162.922951 
L 215.8875 -163.32398 
L 216.275 -164.320113 
L 216.6625 -163.526125 
L 217.05 -163.048654 
L 217.4375 -162.842375 
L 217.825 -163.348446 
L 218.2125 -163.770373 
L 218.6 -162.20043 
L 218.9875 -163.239557 
L 219.375 -162.31837 
L 219.7625 -163.142861 
L 220.15 -163.318825 
L 220.5375 -164.008831 
L 220.925 -163.911956 
L 221.3125 -162.57728 
L 221.7 -162.947705 
L 222.0875 -162.69517 
L 222.475 -161.634769 
L 222.8625 -161.805042 
L 223.25 -162.52569 
L 223.6375 -160.858853 
L 224.025 -161.623458 
L 224.4125 -161.686368 
L 224.8 -161.396608 
L 225.1875 -160.335542 
L 225.575 -161.02533 
L 225.9625 -160.297029 
L 226.35 -162.079565 
L 226.7375 -162.462184 
L 227.125 -162.171701 
L 227.5125 -161.840165 
L 227.9 -160.523977 
L 228.2875 -162.855034 
L 228.675 -160.999753 
L 229.0625 -160.362249 
L 229.45 -160.612455 
L 229.8375 -160.007626 
L 230.225 -160.112777 
L 230.6125 -160.275804 
L 231 -159.884134 
L 231.3875 -160.141289 
L 231.775 -160.040925 
L 232.1625 -159.235467 
L 232.55 -158.54112 
L 232.9375 -159.158361 
L 233.325 -159.029228 
L 233.7125 -158.36362 
L 234.1 -159.05762 
L 234.4875 -157.990834 
L 234.875 -157.689852 
L 235.2625 -157.490285 
L 235.65 -159.482838 
L 236.0375 -158.848774 
L 236.425 -158.472767 
L 236.8125 -157.920736 
L 237.2 -157.208436 
L 237.5875 -157.442482 
L 237.975 -157.351259 
L 238.3625 -156.599007 
L 238.75 -157.058455 
L 239.1375 -157.055897 
L 239.525 -156.754439 
L 239.9125 -156.990498 
L 240.3 -157.335932 
L 240.6875 -156.383568 
L 241.075 -156.367647 
L 241.4625 -155.426405 
L 241.85 -155.280518 
L 242.2375 -156.663186 
L 242.625 -155.643004 
L 243.0125 -155.928838 
L 243.4 -155.386126 
L 243.7875 -155.594913 
L 244.175 -154.919758 
L 244.5625 -154.417791 
L 244.95 -154.986595 
L 245.3375 -154.301913 
L 245.725 -154.899763 
L 246.1125 -154.964537 
L 246.5 -154.341021 
L 246.8875 -156.461111 
L 247.275 -155.214862 
L 247.6625 -155.680159 
L 248.05 -155.93201 
L 248.4375 -156.017652 
L 248.825 -154.149682 
L 249.2125 -154.870984 
L 249.6 -154.201579 
L 249.9875 -153.789933 
L 250.375 -154.149345 
L 250.7625 -153.491429 
L 251.15 -153.35621 
L 251.5375 -153.884596 
L 251.925 -153.9415 
L 252.3125 -153.347218 
L 252.7 -152.925173 
L 253.0875 -154.041328 
L 253.475 -154.580927 
L 253.8625 -156.318892 
L 254.25 -155.666142 
L 254.6375 -155.398607 
L 255.025 -156.222038 
L 255.4125 -156.667965 
L 255.8 -155.41433 
L 256.1875 -154.689776 
L 256.575 -155.222327 
L 256.9625 -154.763711 
L 257.35 -154.350261 
L 257.7375 -154.493213 
L 258.125 -153.877389 
L 258.5125 -153.543316 
L 258.9 -153.678942 
L 259.2875 -155.173632 
L 259.675 -153.067352 
L 260.0625 -155.156551 
L 260.45 -153.288313 
L 260.8375 -152.761869 
L 261.225 -150.648422 
L 261.6125 -151.424992 
L 262 -152.176758 
L 262.3875 -151.098542 
L 262.775 -151.231144 
L 263.1625 -150.605546 
L 263.55 -152.787476 
L 263.9375 -153.805378 
L 264.325 -153.550275 
L 264.7125 -152.306763 
L 265.1 -151.564464 
L 265.4875 -151.898884 
L 265.875 -153.16487 
L 266.2625 -152.621574 
L 266.65 -151.783402 
L 267.0375 -150.639698 
L 267.425 -152.868934 
L 267.8125 -154.540103 
L 268.2 -152.124256 
L 268.5875 -153.595669 
L 268.975 -153.579272 
L 269.3625 -153.723245 
L 269.75 -152.701447 
L 270.1375 -152.141813 
L 270.525 -153.383036 
L 270.9125 -151.415425 
L 271.3 -152.838153 
L 271.6875 -153.584586 
L 272.075 -150.843241 
L 272.4625 -150.853997 
L 272.85 -152.988282 
L 273.2375 -152.788616 
L 273.625 -154.842919 
L 274.0125 -152.889534 
L 274.4 -153.441198 
L 274.7875 -154.063772 
L 275.175 -152.35519 
L 275.5625 -156.351795 
L 275.95 -156.178914 
L 276.3375 -153.550434 
L 276.725 -154.026725 
L 277.1125 -153.80854 
L 277.5 -154.575445 
L 277.8875 -153.265095 
L 278.275 -155.679039 
L 278.6625 -157.201635 
L 279.05 -158.356075 
L 279.4375 -156.101927 
L 279.825 -155.411634 
L 280.2125 -157.003128 
L 280.6 -157.394679 
L 280.9875 -157.200148 
L 281.375 -159.196498 
L 281.7625 -156.601088 
L 282.15 -161.33112 
L 282.5375 -159.788013 
L 282.925 -159.446346 
L 283.3125 -160.128649 
L 283.7 -159.061982 
L 284.0875 -158.583262 
L 284.475 -160.073818 
L 284.8625 -157.988148 
L 285.25 -158.878187 
L 285.6375 -160.173993 
L 286.025 -157.392687 
L 286.4125 -158.081889 
L 286.8 -158.805026 
L 287.1875 -156.717988 
L 287.575 -159.922142 
L 287.9625 -156.085351 
L 288.35 -156.480838 
L 288.7375 -159.717449 
L 289.125 -161.277191 
L 289.5125 -160.048003 
L 289.9 -155.067122 
L 290.2875 -156.505057 
L 290.675 -155.900932 
L 291.0625 -159.841813 
L 291.45 -157.768387 
L 291.8375 -156.979346 
L 292.225 -157.014786 
L 292.6125 -157.365732 
L 293 -160.077605 
L 293.3875 -158.107089 
L 293.775 -157.026861 
L 294.1625 -158.532822 
L 294.55 -158.630906 
L 294.9375 -157.137138 
L 295.325 -158.856526 
L 295.7125 -161.039427 
L 296.1 -156.776309 
L 296.4875 -157.445595 
L 296.875 -159.760315 
L 297.2625 -160.951009 
L 297.65 -159.669835 
L 298.0375 -161.244278 
L 298.425 -160.554461 
L 298.8125 -163.394822 
L 299.2 -161.960435 
L 299.5875 -161.624885 
L 299.975 -159.33933 
L 300.3625 -161.2269 
L 300.75 -159.138583 
L 301.1375 -162.956736 
L 301.525 -162.166516 
L 301.9125 -159.678271 
L 302.3 -161.762454 
L 302.6875 -159.041392 
L 303.075 -161.573474 
L 303.4625 -160.889159 
L 303.85 -162.825205 
L 304.2375 -160.307815 
L 304.625 -162.303014 
L 305.0125 -162.646089 
L 305.4 -160.776453 
L 305.7875 -161.39865 
L 306.175 -160.567894 
L 306.5625 -161.235237 
L 306.95 -161.111398 
L 307.3375 -161.710745 
L 307.725 -163.498209 
L 308.1125 -162.690927 
L 308.5 -158.657533 
L 308.8875 -158.773481 
L 309.275 -160.292241 
L 309.6625 -159.863563 
L 310.05 -158.669439 
L 310.4375 -161.680638 
L 310.825 -162.895035 
L 311.2125 -161.57282 
L 311.6 -160.660981 
L 311.9875 -160.609044 
L 312.375 -162.226572 
L 312.7625 -161.116226 
L 313.15 -162.478552 
L 313.5375 -162.074291 
L 313.925 -160.647885 
L 314.3125 -160.788954 
L 314.7 -163.309219 
L 315.0875 -161.7377 
L 315.475 -162.571163 
L 315.8625 -162.242324 
L 316.25 -160.80661 
L 316.6375 -160.725577 
L 317.025 -161.148286 
L 317.4125 -161.232372 
L 317.8 -163.375679 
L 318.1875 -161.944762 
L 318.575 -161.430829 
L 318.9625 -161.504258 
L 319.35 -161.908866 
L 319.7375 -162.365856 
L 320.125 -162.762522 
L 320.5125 -162.576546 
L 320.9 -161.90946 
L 321.2875 -162.381162 
L 321.675 -163.153905 
L 322.0625 -164.305619 
L 322.45 -161.559377 
L 322.8375 -162.379001 
L 323.225 -161.773616 
L 323.6125 -161.515451 
L 324 -161.861241 
L 324 -169.592856 
L 324 -169.592856 
L 323.6125 -168.159738 
L 323.225 -166.811946 
L 322.8375 -168.366265 
L 322.45 -167.653449 
L 322.0625 -168.239968 
L 321.675 -168.908223 
L 321.2875 -167.645935 
L 320.9 -168.43673 
L 320.5125 -168.083266 
L 320.125 -167.911149 
L 319.7375 -167.829849 
L 319.35 -168.393904 
L 318.9625 -167.249892 
L 318.575 -166.980475 
L 318.1875 -167.358157 
L 317.8 -167.519062 
L 317.4125 -167.379263 
L 317.025 -166.82062 
L 316.6375 -167.309433 
L 316.25 -166.553552 
L 315.8625 -166.500049 
L 315.475 -167.293611 
L 315.0875 -167.339411 
L 314.7 -166.393252 
L 314.3125 -166.216545 
L 313.925 -165.227203 
L 313.5375 -167.446823 
L 313.15 -166.02237 
L 312.7625 -167.335406 
L 312.375 -165.502767 
L 311.9875 -164.940466 
L 311.6 -167.651129 
L 311.2125 -165.674864 
L 310.825 -165.581876 
L 310.4375 -167.373295 
L 310.05 -167.37733 
L 309.6625 -166.404989 
L 309.275 -165.919052 
L 308.8875 -165.947325 
L 308.5 -167.523008 
L 308.1125 -166.43123 
L 307.725 -167.908423 
L 307.3375 -166.74854 
L 306.95 -168.598329 
L 306.5625 -167.303157 
L 306.175 -165.591076 
L 305.7875 -167.791751 
L 305.4 -165.613183 
L 305.0125 -169.120183 
L 304.625 -169.506282 
L 304.2375 -167.417261 
L 303.85 -168.00498 
L 303.4625 -166.505839 
L 303.075 -167.064789 
L 302.6875 -166.185337 
L 302.3 -170.720897 
L 301.9125 -166.639789 
L 301.525 -166.494488 
L 301.1375 -167.363183 
L 300.75 -165.642913 
L 300.3625 -167.435095 
L 299.975 -168.327256 
L 299.5875 -167.381008 
L 299.2 -166.38546 
L 298.8125 -167.236242 
L 298.425 -167.975785 
L 298.0375 -166.749075 
L 297.65 -165.292641 
L 297.2625 -167.020277 
L 296.875 -166.109955 
L 296.4875 -167.067525 
L 296.1 -165.506583 
L 295.7125 -165.761855 
L 295.325 -165.690101 
L 294.9375 -166.155597 
L 294.55 -164.53119 
L 294.1625 -164.906354 
L 293.775 -164.872262 
L 293.3875 -165.604905 
L 293 -168.350771 
L 292.6125 -164.583513 
L 292.225 -165.083299 
L 291.8375 -163.712141 
L 291.45 -165.664386 
L 291.0625 -163.218709 
L 290.675 -164.971277 
L 290.2875 -164.68347 
L 289.9 -164.617219 
L 289.5125 -165.384351 
L 289.125 -166.000888 
L 288.7375 -164.58152 
L 288.35 -164.869238 
L 287.9625 -165.921947 
L 287.575 -168.207382 
L 287.1875 -166.415716 
L 286.8 -166.733005 
L 286.4125 -168.241961 
L 286.025 -168.888099 
L 285.6375 -170.396955 
L 285.25 -168.59822 
L 284.8625 -168.444353 
L 284.475 -168.362706 
L 284.0875 -168.850438 
L 283.7 -169.968496 
L 283.3125 -169.047953 
L 282.925 -166.463538 
L 282.5375 -171.185718 
L 282.15 -167.830731 
L 281.7625 -168.471764 
L 281.375 -169.892926 
L 280.9875 -168.146078 
L 280.6 -167.38073 
L 280.2125 -168.875093 
L 279.825 -170.092711 
L 279.4375 -168.045942 
L 279.05 -168.196716 
L 278.6625 -168.954004 
L 278.275 -166.695533 
L 277.8875 -166.883353 
L 277.5 -166.69469 
L 277.1125 -166.93174 
L 276.725 -164.28601 
L 276.3375 -166.196678 
L 275.95 -168.842567 
L 275.5625 -165.17022 
L 275.175 -166.815555 
L 274.7875 -162.740534 
L 274.4 -164.639008 
L 274.0125 -164.049773 
L 273.625 -167.051921 
L 273.2375 -162.472108 
L 272.85 -163.751309 
L 272.4625 -161.725913 
L 272.075 -163.483358 
L 271.6875 -164.974261 
L 271.3 -163.198317 
L 270.9125 -165.138765 
L 270.525 -161.412311 
L 270.1375 -162.421044 
L 269.75 -161.99084 
L 269.3625 -161.741457 
L 268.975 -160.500819 
L 268.5875 -161.889336 
L 268.2 -162.990581 
L 267.8125 -166.263366 
L 267.425 -162.24396 
L 267.0375 -162.104597 
L 266.65 -164.470351 
L 266.2625 -162.1981 
L 265.875 -162.856611 
L 265.4875 -162.079793 
L 265.1 -166.247306 
L 264.7125 -162.071704 
L 264.325 -161.229626 
L 263.9375 -162.52794 
L 263.55 -161.149922 
L 263.1625 -159.362587 
L 262.775 -158.863822 
L 262.3875 -158.359843 
L 262 -161.193829 
L 261.6125 -160.263898 
L 261.225 -160.854035 
L 260.8375 -158.402639 
L 260.45 -158.935487 
L 260.0625 -161.104618 
L 259.675 -164.206197 
L 259.2875 -162.138362 
L 258.9 -160.30715 
L 258.5125 -160.350938 
L 258.125 -161.351651 
L 257.7375 -160.915935 
L 257.35 -163.211076 
L 256.9625 -161.567883 
L 256.575 -161.630615 
L 256.1875 -161.026113 
L 255.8 -160.812102 
L 255.4125 -162.299654 
L 255.025 -160.922121 
L 254.6375 -160.981721 
L 254.25 -161.700237 
L 253.8625 -162.591842 
L 253.475 -160.470167 
L 253.0875 -159.936397 
L 252.7 -160.059324 
L 252.3125 -160.530897 
L 251.925 -160.389462 
L 251.5375 -161.006455 
L 251.15 -159.921507 
L 250.7625 -160.993508 
L 250.375 -161.594401 
L 249.9875 -160.993874 
L 249.6 -161.368166 
L 249.2125 -162.807866 
L 248.825 -161.893767 
L 248.4375 -163.235631 
L 248.05 -163.133374 
L 247.6625 -162.96208 
L 247.275 -163.389726 
L 246.8875 -164.032643 
L 246.5 -162.863213 
L 246.1125 -162.386694 
L 245.725 -162.940617 
L 245.3375 -161.890833 
L 244.95 -162.190417 
L 244.5625 -161.151915 
L 244.175 -162.764604 
L 243.7875 -162.945078 
L 243.4 -163.152696 
L 243.0125 -162.709218 
L 242.625 -162.493293 
L 242.2375 -162.849731 
L 241.85 -162.476747 
L 241.4625 -162.507261 
L 241.075 -162.539995 
L 240.6875 -162.162769 
L 240.3 -162.66314 
L 239.9125 -162.363645 
L 239.525 -162.590464 
L 239.1375 -162.856631 
L 238.75 -162.926421 
L 238.3625 -162.961891 
L 237.975 -163.208161 
L 237.5875 -163.953097 
L 237.2 -163.632586 
L 236.8125 -163.895708 
L 236.425 -165.028369 
L 236.0375 -164.850333 
L 235.65 -165.546416 
L 235.2625 -163.369493 
L 234.875 -163.21513 
L 234.4875 -164.256607 
L 234.1 -164.931752 
L 233.7125 -164.546417 
L 233.325 -165.045063 
L 232.9375 -166.08655 
L 232.55 -165.660063 
L 232.1625 -165.80249 
L 231.775 -166.083546 
L 231.3875 -166.575471 
L 231 -166.791366 
L 230.6125 -166.890371 
L 230.225 -167.789848 
L 229.8375 -167.352893 
L 229.45 -166.537146 
L 229.0625 -166.628954 
L 228.675 -167.02225 
L 228.2875 -168.075553 
L 227.9 -166.982348 
L 227.5125 -168.070091 
L 227.125 -167.573081 
L 226.7375 -168.130335 
L 226.35 -167.910673 
L 225.9625 -167.154733 
L 225.575 -167.327485 
L 225.1875 -167.555762 
L 224.8 -168.476374 
L 224.4125 -168.711511 
L 224.025 -168.406018 
L 223.6375 -168.267626 
L 223.25 -169.251665 
L 222.8625 -169.44462 
L 222.475 -168.235358 
L 222.0875 -168.70131 
L 221.7 -167.753565 
L 221.3125 -167.958119 
L 220.925 -168.296574 
L 220.5375 -169.63818 
L 220.15 -168.665126 
L 219.7625 -168.713226 
L 219.375 -168.318284 
L 218.9875 -168.9888 
L 218.6 -168.722227 
L 218.2125 -170.372409 
L 217.825 -169.392654 
L 217.4375 -169.678012 
L 217.05 -169.734023 
L 216.6625 -169.842258 
L 216.275 -170.374927 
L 215.8875 -170.406165 
L 215.5 -170.275337 
L 215.1125 -169.568211 
L 214.725 -169.484522 
L 214.3375 -168.781619 
L 213.95 -169.637506 
L 213.5625 -169.016805 
L 213.175 -168.926147 
L 212.7875 -169.940847 
L 212.4 -169.880118 
L 212.0125 -170.274118 
L 211.625 -170.420737 
L 211.2375 -169.506936 
L 210.85 -169.28432 
L 210.4625 -170.775411 
L 210.075 -169.486078 
L 209.6875 -170.051075 
L 209.3 -170.768759 
L 208.9125 -170.80408 
L 208.525 -170.760194 
L 208.1375 -171.481773 
L 207.75 -172.18427 
L 207.3625 -172.134494 
L 206.975 -172.661642 
L 206.5875 -172.505218 
L 206.2 -173.539557 
L 205.8125 -174.067616 
L 205.425 -174.481255 
L 205.0375 -174.575799 
L 204.65 -174.662373 
L 204.2625 -176.434322 
L 203.875 -175.592661 
L 203.4875 -174.250955 
L 203.1 -173.829555 
L 202.7125 -174.569742 
L 202.325 -176.688562 
L 201.9375 -179.639834 
L 201.55 -182.14633 
L 201.1625 -181.636263 
L 200.775 -181.901646 
L 200.3875 -181.99395 
L 200 -181.961573 
L 199.6125 -182.449146 
L 199.225 -182.990083 
L 198.8375 -182.894914 
L 198.45 -182.301792 
L 198.0625 -182.538922 
L 197.675 -182.708363 
L 197.2875 -182.460923 
L 196.9 -182.391311 
L 196.5125 -183.001989 
L 196.125 -182.43836 
L 195.7375 -182.902577 
L 195.35 -183.163717 
L 194.9625 -182.769073 
L 194.575 -182.649497 
L 194.1875 -182.927807 
L 193.8 -182.859701 
L 193.4125 -182.71893 
L 193.025 -182.63077 
L 192.6375 -182.321788 
L 192.25 -182.365129 
L 191.8625 -182.788235 
L 191.475 -182.435505 
L 191.0875 -183.061926 
L 190.7 -182.873441 
L 190.3125 -183.519253 
L 189.925 -183.088781 
L 189.5375 -183.761884 
L 189.15 -183.684103 
L 188.7625 -183.641664 
L 188.375 -183.844959 
L 187.9875 -183.508596 
L 187.6 -184.003762 
L 187.2125 -183.716629 
L 186.825 -183.362323 
L 186.4375 -183.527015 
L 186.05 -183.783396 
L 185.6625 -184.592968 
L 185.275 -184.591669 
L 184.8875 -184.439805 
L 184.5 -183.849737 
L 184.1125 -183.720615 
L 183.725 -183.743624 
L 183.3375 -183.457413 
L 182.95 -184.117083 
L 182.5625 -184.334772 
L 182.175 -184.103819 
L 181.7875 -183.953888 
L 181.4 -184.53886 
L 181.0125 -184.377192 
L 180.625 -184.36369 
L 180.2375 -184.851283 
L 179.85 -184.337677 
L 179.4625 -184.877147 
L 179.075 -184.856487 
L 178.6875 -185.431477 
L 178.3 -184.885256 
L 177.9125 -185.136522 
L 177.525 -185.321804 
L 177.1375 -185.456954 
L 176.75 -185.139179 
L 176.3625 -185.235597 
L 175.975 -185.716875 
L 175.5875 -185.666217 
L 175.2 -186.155555 
L 174.8125 -186.232325 
L 174.425 -186.240999 
L 174.0375 -186.2031 
L 173.65 -185.945766 
L 173.2625 -186.093189 
L 172.875 -185.954976 
L 172.4875 -185.737336 
L 172.1 -186.161899 
L 171.7125 -185.80793 
L 171.325 -185.637875 
L 170.9375 -185.447328 
L 170.55 -185.927387 
L 170.1625 -185.983844 
L 169.775 -185.824971 
L 169.3875 -185.927813 
L 169 -186.08964 
L 168.6125 -186.312197 
L 168.225 -186.555691 
L 167.8375 -186.44584 
L 167.45 -186.455684 
L 167.0625 -186.617848 
L 166.675 -186.171555 
L 166.2875 -186.229529 
L 165.9 -186.225603 
L 165.5125 -186.110687 
L 165.125 -186.258347 
L 164.7375 -186.159183 
L 164.35 -186.514451 
L 163.9625 -186.271334 
L 163.575 -186.720463 
L 163.1875 -186.733528 
L 162.8 -187.06552 
L 162.4125 -186.664144 
L 162.025 -186.902969 
L 161.6375 -186.752265 
L 161.25 -187.085267 
L 160.8625 -187.396282 
L 160.475 -187.783541 
L 160.0875 -187.568012 
L 159.7 -187.724913 
L 159.3125 -187.799194 
L 158.925 -187.991564 
L 158.5375 -187.930527 
L 158.15 -188.105044 
L 157.7625 -188.064161 
L 157.375 -188.088508 
L 156.9875 -188.065519 
L 156.6 -188.167112 
L 156.2125 -188.296175 
L 155.825 -188.389401 
L 155.4375 -188.48917 
L 155.05 -188.666918 
L 154.6625 -188.709209 
L 154.275 -188.87285 
L 153.8875 -188.755187 
L 153.5 -188.679141 
L 153.1125 -188.658898 
L 152.725 -188.441456 
L 152.3375 -188.587739 
L 151.95 -188.369832 
L 151.5625 -188.686576 
L 151.175 -188.795842 
L 150.7875 -188.828824 
L 150.4 -188.853072 
L 150.0125 -188.731534 
L 149.625 -188.970418 
L 149.2375 -188.854817 
L 148.85 -188.787773 
L 148.4625 -188.622258 
L 148.075 -188.707434 
L 147.6875 -188.395051 
L 147.3 -188.544239 
L 146.9125 -188.490161 
L 146.525 -188.623884 
L 146.1375 -188.411339 
L 145.75 -188.500055 
L 145.3625 -188.21313 
L 144.975 -188.269914 
L 144.5875 -188.227613 
L 144.2 -187.938527 
L 143.8125 -188.834762 
L 143.425 -188.833127 
L 143.0375 -187.788101 
L 142.65 -184.005854 
L 142.2625 -183.404346 
L 141.875 -183.586208 
L 141.4875 -188.353722 
L 141.1 -189.160508 
L 140.7125 -189.04346 
L 140.325 -189.060967 
L 139.9375 -189.133306 
L 139.55 -188.714621 
L 139.1625 -188.731732 
L 138.775 -188.552626 
L 138.3875 -188.556125 
L 138 -188.607635 
L 137.6125 -188.715107 
L 137.225 -188.392851 
L 136.8375 -188.191142 
L 136.45 -188.223876 
L 136.0625 -187.881971 
L 135.675 -187.864633 
L 135.2875 -187.957948 
L 134.9 -188.065757 
L 134.5125 -188.266167 
L 134.125 -187.970607 
L 133.7375 -187.96684 
L 133.35 -188.113252 
L 132.9625 -188.267118 
L 132.575 -188.194027 
L 132.1875 -188.032814 
L 131.8 -188.110684 
L 131.4125 -188.243485 
L 131.025 -188.433902 
L 130.6375 -188.488545 
L 130.25 -188.378119 
L 129.8625 -188.233671 
L 129.475 -188.335234 
L 129.0875 -188.471821 
L 128.7 -188.607695 
L 128.3125 -188.826841 
L 127.925 -188.904603 
L 127.5375 -188.640836 
L 127.15 -188.669109 
L 126.7625 -188.538152 
L 126.375 -188.547798 
L 125.9875 -188.545329 
L 125.6 -188.601241 
L 125.2125 -189.043549 
L 124.825 -189.024387 
L 124.4375 -188.942521 
L 124.05 -189.039525 
L 123.6625 -189.117038 
L 123.275 -188.835704 
L 122.8875 -188.955488 
L 122.5 -189.040823 
L 122.1125 -189.446868 
L 121.725 -189.326945 
L 121.3375 -189.476767 
L 120.95 -188.970596 
L 120.5625 -188.98618 
L 120.175 -189.033785 
L 119.7875 -188.660315 
L 119.4 -189.032426 
L 119.0125 -189.105766 
L 118.625 -188.811287 
L 118.2375 -188.941381 
L 117.85 -189.167636 
L 117.4625 -189.013502 
L 117.075 -189.102118 
L 116.6875 -188.764932 
L 116.3 -188.875784 
L 115.9125 -188.804655 
L 115.525 -188.293835 
L 115.1375 -188.492213 
L 114.75 -188.446601 
L 114.3625 -188.582822 
L 113.975 -188.482647 
L 113.5875 -188.543218 
L 113.2 -188.371299 
L 112.8125 -188.628483 
L 112.425 -188.297226 
L 112.0375 -188.257383 
L 111.65 -188.008655 
L 111.2625 -188.18337 
L 110.875 -187.987391 
L 110.4875 -187.71031 
L 110.1 -187.583606 
L 109.7125 -187.68974 
L 109.325 -187.672748 
L 108.9375 -187.503942 
L 108.55 -187.833048 
L 108.1625 -187.990216 
L 107.775 -187.890556 
L 107.3875 -187.889248 
L 107 -187.788934 
L 106.6125 -187.301083 
L 106.225 -187.365739 
L 105.8375 -187.122998 
L 105.45 -187.353704 
L 105.0625 -187.36792 
L 104.675 -187.417635 
L 104.2875 -187.254192 
L 103.9 -186.775284 
L 103.5125 -187.110606 
L 103.125 -186.91435 
L 102.7375 -186.987075 
L 102.35 -187.419797 
L 101.9625 -187.173894 
L 101.575 -186.771527 
L 101.1875 -186.917621 
L 100.8 -186.752205 
L 100.4125 -186.989365 
L 100.025 -187.467104 
L 99.6375 -187.711192 
L 99.25 -187.312949 
L 98.8625 -187.709933 
L 98.475 -187.533335 
L 98.0875 -187.405482 
L 97.7 -187.429105 
L 97.3125 -187.492264 
L 96.925 -187.250624 
L 96.5375 -187.505042 
L 96.15 -187.426121 
L 95.7625 -188.051957 
L 95.375 -187.917917 
L 94.9875 -187.926998 
L 94.6 -188.323139 
L 94.2125 -188.158418 
L 93.825 -188.386466 
L 93.4375 -188.258841 
L 93.05 -188.384325 
L 92.6625 -188.310054 
L 92.275 -188.265453 
L 91.8875 -188.499896 
L 91.5 -188.708306 
L 91.1125 -188.539015 
L 90.725 -188.539044 
L 90.3375 -188.515361 
L 89.95 -188.817602 
L 89.5625 -188.520823 
L 89.175 -188.689858 
L 88.7875 -188.58529 
L 88.4 -188.549156 
L 88.0125 -188.733417 
L 87.625 -188.562153 
L 87.2375 -188.689947 
L 86.85 -188.607963 
L 86.4625 -188.669862 
L 86.075 -188.75144 
L 85.6875 -189.060898 
L 85.3 -189.093682 
L 84.9125 -189.055406 
L 84.525 -189.028223 
L 84.1375 -188.865633 
L 83.75 -189.002587 
L 83.3625 -188.911512 
L 82.975 -188.98509 
L 82.5875 -188.870857 
L 82.2 -188.674531 
L 81.8125 -188.960693 
L 81.425 -188.784937 
L 81.0375 -188.699176 
L 80.65 -188.588463 
L 80.2625 -188.588552 
L 79.875 -188.536606 
L 79.4875 -188.604731 
L 79.1 -188.757784 
L 78.7125 -188.239837 
L 78.325 -188.728837 
L 77.9375 -188.78119 
L 77.55 -188.986071 
L 77.1625 -188.851129 
L 76.775 -189.02979 
L 76.3875 -188.804616 
L 76 -188.888602 
L 75.6125 -188.663339 
L 75.225 -188.192827 
L 74.8375 -188.63227 
L 74.45 -188.586232 
L 74.0625 -188.55782 
L 73.675 -188.702418 
L 73.2875 -188.806836 
L 72.9 -188.875041 
L 72.5125 -188.904424 
L 72.125 -188.582772 
L 71.7375 -188.582723 
L 71.35 -188.269448 
L 70.9625 -188.276804 
L 70.575 -188.548323 
L 70.1875 -188.871997 
L 69.8 -189.100314 
L 69.4125 -188.990949 
L 69.025 -188.846331 
L 68.6375 -189.043083 
L 68.25 -188.780357 
L 67.8625 -188.705878 
L 67.475 -188.678348 
L 67.0875 -188.860993 
L 66.7 -188.810108 
L 66.3125 -188.799312 
L 65.925 -188.739365 
L 65.5375 -188.817701 
L 65.15 -188.82125 
L 64.7625 -188.660504 
L 64.375 -188.584735 
L 63.9875 -188.2292 
L 63.6 -188.232451 
L 63.2125 -188.284864 
L 62.825 -188.352741 
L 62.4375 -188.538559 
L 62.05 -188.45253 
L 61.6625 -188.436222 
L 61.275 -188.3883 
L 60.8875 -187.971599 
L 60.5 -187.723227 
L 60.1125 -188.122828 
L 59.725 -188.38951 
L 59.3375 -188.638972 
L 58.95 -188.445531 
L 58.5625 -188.383264 
L 58.175 -188.470503 
L 57.7875 -188.059809 
L 57.4 -187.83055 
L 57.0125 -188.220684 
L 56.625 -188.357499 
L 56.2375 -188.176004 
L 55.85 -187.746573 
L 55.4625 -187.92909 
L 55.075 -188.133138 
L 54.6875 -188.296462 
L 54.3 -188.256531 
L 53.9125 -187.851775 
L 53.525 -187.81795 
L 53.1375 -188.254092 
L 52.75 -187.996799 
L 52.3625 -188.331486 
L 51.975 -187.979103 
L 51.5875 -187.721245 
L 51.2 -187.954984 
L 50.8125 -188.024328 
L 50.425 -188.001517 
L 50.0375 -188.209977 
L 49.65 -187.630586 
L 49.2625 -187.750103 
L 48.875 -187.431247 
L 48.4875 -187.843993 
L 48.1 -188.167191 
L 47.7125 -188.030019 
L 47.325 -187.77211 
L 46.9375 -187.92791 
L 46.55 -187.292716 
L 46.1625 -187.404778 
L 45.775 -187.533196 
L 45.3875 -187.446672 
z
" style="stroke: #195387; stroke-opacity: 0.1"/>
    </defs>
    <g clip-path="url(#p250ce1bfe4)">
     <use xlink:href="#m50704dbcae" x="0" y="216" style="fill: #195387; fill-opacity: 0.1; stroke: #195387; stroke-opacity: 0.1"/>
    </g>
   </g>
   <g id="matplotlib.axis_1">
    <g id="xtick_1">
     <g id="line2d_1">
      <defs>
       <path id="mf46241feda" d="M 0 0 
L 0 3.5 
" style="stroke: #000000; stroke-width: 0.8"/>
      </defs>
      <g>
       <use xlink:href="#mf46241feda" x="45" y="192.24" style="stroke: #000000; stroke-width: 0.8"/>
      </g>
     </g>
     <g id="text_1">
      <text style="font: 6px 'sans-serif'; text-anchor: middle" x="45" y="203.799062" transform="rotate(-0, 45, 203.799062)">0</text>
     </g>
    </g>
    <g id="xtick_2">
     <g id="line2d_2">
      <g>
       <use xlink:href="#mf46241feda" x="83.75" y="192.24" style="stroke: #000000; stroke-width: 0.8"/>
      </g>
     </g>
     <g id="text_2">
      <text style="font: 6px 'sans-serif'; text-anchor: middle" x="83.75" y="203.799062" transform="rotate(-0, 83.75, 203.799062)">200</text>
     </g>
    </g>
    <g id="xtick_3">
     <g id="line2d_3">
      <g>
       <use xlink:href="#mf46241feda" x="122.5" y="192.24" style="stroke: #000000; stroke-width: 0.8"/>
      </g>
     </g>
     <g id="text_3">
      <text style="font: 6px 'sans-serif'; text-anchor: middle" x="122.5" y="203.799062" transform="rotate(-0, 122.5, 203.799062)">400</text>
     </g>
    </g>
    <g id="xtick_4">
     <g id="line2d_4">
      <g>
       <use xlink:href="#mf46241feda" x="161.25" y="192.24" style="stroke: #000000; stroke-width: 0.8"/>
      </g>
     </g>
     <g id="text_4">
      <text style="font: 6px 'sans-serif'; text-anchor: middle" x="161.25" y="203.799062" transform="rotate(-0, 161.25, 203.799062)">600</text>
     </g>
    </g>
    <g id="xtick_5">
     <g id="line2d_5">
      <g>
       <use xlink:href="#mf46241feda" x="200" y="192.24" style="stroke: #000000; stroke-width: 0.8"/>
      </g>
     </g>
     <g id="text_5">
      <text style="font: 6px 'sans-serif'; text-anchor: middle" x="200" y="203.799062" transform="rotate(-0, 200, 203.799062)">800</text>
     </g>
    </g>
    <g id="xtick_6">
     <g id="line2d_6">
      <g>
       <use xlink:href="#mf46241feda" x="238.75" y="192.24" style="stroke: #000000; stroke-width: 0.8"/>
      </g>
     </g>
     <g id="text_6">
      <text style="font: 6px 'sans-serif'; text-anchor: middle" x="238.75" y="203.799062" transform="rotate(-0, 238.75, 203.799062)">1000</text>
     </g>
    </g>
    <g id="xtick_7">
     <g id="line2d_7">
      <g>
       <use xlink:href="#mf46241feda" x="277.5" y="192.24" style="stroke: #000000; stroke-width: 0.8"/>
      </g>
     </g>
     <g id="text_7">
      <text style="font: 6px 'sans-serif'; text-anchor: middle" x="277.5" y="203.799062" transform="rotate(-0, 277.5, 203.799062)">1200</text>
     </g>
    </g>
    <g id="xtick_8">
     <g id="line2d_8">
      <g>
       <use xlink:href="#mf46241feda" x="316.25" y="192.24" style="stroke: #000000; stroke-width: 0.8"/>
      </g>
     </g>
     <g id="text_8">
      <text style="font: 6px 'sans-serif'; text-anchor: middle" x="316.25" y="203.799062" transform="rotate(-0, 316.25, 203.799062)">1400</text>
     </g>
    </g>
    <g id="text_9">
     <text style="font: 8px 'sans-serif'; text-anchor: middle" x="184.5" y="215.125625" transform="rotate(-0, 184.5, 215.125625)">Time (min)</text>
    </g>
   </g>
   <g id="matplotlib.axis_2">
    <g id="ytick_1">
     <g id="line2d_9">
      <defs>
       <path id="mf16bebdba2" d="M 0 0 
L -3.5 0 
" style="stroke: #000000; stroke-width: 0.8"/>
      </defs>
      <g>
       <use xlink:href="#mf16bebdba2" x="45" y="192.24" style="stroke: #000000; stroke-width: 0.8"/>
      </g>
     </g>
     <g id="text_10">
      <text style="font: 6px 'sans-serif'; text-anchor: end" x="38" y="194.519531" transform="rotate(-0, 38, 194.519531)">0.0</text>
     </g>
    </g>
    <g id="ytick_2">
     <g id="line2d_10">
      <g>
       <use xlink:href="#mf16bebdba2" x="45" y="158.976" style="stroke: #000000; stroke-width: 0.8"/>
      </g>
     </g>
     <g id="text_11">
      <text style="font: 6px 'sans-serif'; text-anchor: end" x="38" y="161.255531" transform="rotate(-0, 38, 161.255531)">0.2</text>
     </g>
    </g>
    <g id="ytick_3">
     <g id="line2d_11">
      <g>
       <use xlink:href="#mf16bebdba2" x="45" y="125.712" style="stroke: #000000; stroke-width: 0.8"/>
      </g>
     </g>
     <g id="text_12">
      <text style="font: 6px 'sans-serif'; text-anchor: end" x="38" y="127.991531" transform="rotate(-0, 38, 127.991531)">0.4</text>
     </g>
    </g>
    <g id="ytick_4">
     <g id="line2d_12">
      <g>
       <use xlink:href="#mf16bebdba2" x="45" y="92.448" style="stroke: #000000; stroke-width: 0.8"/>
      </g>
     </g>
     <g id="text_13">
      <text style="font: 6px 'sans-serif'; text-anchor: end" x="38" y="94.727531" transform="rotate(-0, 38, 94.727531)">0.6</text>
     </g>
    </g>
    <g id="ytick_5">
     <g id="line2d_13">
      <g>
       <use xlink:href="#mf16bebdba2" x="45" y="59.184" style="stroke: #000000; stroke-width: 0.8"/>
      </g>
     </g>
     <g id="text_14">
      <text style="font: 6px 'sans-serif'; text-anchor: end" x="38" y="61.463531" transform="rotate(-0, 38, 61.463531)">0.8</text>
     </g>
    </g>
    <g id="ytick_6">
     <g id="line2d_14">
      <g>
       <use xlink:href="#mf16bebdba2" x="45" y="25.92" style="stroke: #000000; stroke-width: 0.8"/>
      </g>
     </g>
     <g id="text_15">
      <text style="font: 6px 'sans-serif'; text-anchor: end" x="38" y="28.199531" transform="rotate(-0, 38, 28.199531)">1.0</text>
     </g>
    </g>
    <g id="text_16">
     <text style="font: 8px 'sans-serif'; text-anchor: middle" x="22.794375" y="109.08" transform="rotate(-90, 22.794375, 109.08)">Cosine similarity φ</text>
    </g>
   </g>
   <g id="line2d_15">
    <path d="M 45.3875 29.538011 
L 45.775 29.584168 
L 46.1625 29.847518 
L 46.55 30.328687 
L 46.9375 29.439273 
L 47.325 29.470461 
L 48.1 28.847738 
L 48.4875 29.151337 
L 48.875 30.254376 
L 49.2625 28.933846 
L 49.65 28.998115 
L 50.0375 28.400611 
L 50.425 28.613899 
L 50.8125 28.691056 
L 51.975 28.313472 
L 52.3625 28.029363 
L 52.75 28.46492 
L 53.1375 28.25188 
L 53.525 28.537467 
L 53.9125 28.372527 
L 54.3 28.08472 
L 54.6875 28.036719 
L 55.85 28.686545 
L 56.2375 28.258403 
L 56.625 28.253496 
L 57.0125 28.472087 
L 57.4 28.55655 
L 57.7875 28.478878 
L 58.175 28.043242 
L 58.5625 28.250532 
L 58.95 28.097171 
L 59.3375 27.802603 
L 60.1125 28.221376 
L 60.5 28.727597 
L 61.6625 27.874118 
L 62.4375 27.807599 
L 63.9875 28.193986 
L 64.375 27.752421 
L 64.7625 27.733318 
L 65.15 27.535594 
L 65.925 27.622495 
L 67.0875 27.432504 
L 67.475 27.620493 
L 68.25 27.47533 
L 68.6375 27.250969 
L 69.025 27.539203 
L 69.4125 27.45132 
L 69.8 27.580363 
L 70.1875 27.411587 
L 70.9625 28.025536 
L 71.35 27.980549 
L 71.7375 27.668603 
L 72.125 27.753135 
L 72.5125 27.573037 
L 72.9 27.643304 
L 73.2875 27.564978 
L 74.45 27.748178 
L 74.8375 27.707701 
L 75.225 28.220256 
L 75.6125 27.768154 
L 76 27.538618 
L 76.3875 27.620245 
L 76.775 27.475191 
L 77.1625 27.552675 
L 77.55 27.40432 
L 77.9375 27.803416 
L 78.325 27.694665 
L 78.7125 28.096011 
L 79.1 27.600626 
L 79.4875 27.831917 
L 80.65 27.9175 
L 81.425 27.606743 
L 81.8125 27.363239 
L 82.2 27.718725 
L 83.75 27.47996 
L 84.1375 27.679468 
L 85.3 27.333994 
L 85.6875 27.41809 
L 86.075 27.629058 
L 87.2375 27.775797 
L 87.625 27.792104 
L 88.0125 27.665857 
L 88.4 27.766914 
L 89.175 27.54985 
L 89.5625 27.852111 
L 89.95 27.604433 
L 90.3375 27.878788 
L 90.725 27.814836 
L 91.1125 27.95408 
L 91.5 27.72504 
L 91.8875 27.812774 
L 92.6625 28.16371 
L 93.05 28.038939 
L 93.4375 28.343193 
L 94.2125 28.359203 
L 94.6 28.397043 
L 94.9875 28.753322 
L 95.375 28.647605 
L 95.7625 28.737054 
L 96.15 29.532568 
L 96.5375 29.59995 
L 96.925 29.820296 
L 97.3125 29.487571 
L 98.0875 29.759358 
L 98.8625 29.680338 
L 99.25 29.822219 
L 99.6375 29.521515 
L 100.4125 30.185537 
L 100.8 30.468734 
L 101.1875 30.430994 
L 101.575 31.02239 
L 101.9625 30.307235 
L 102.35 30.046104 
L 102.7375 30.795491 
L 103.125 30.385174 
L 103.9 30.458137 
L 105.0625 29.878538 
L 105.8375 30.215565 
L 106.225 29.784637 
L 106.6125 29.66406 
L 107 29.171164 
L 107.3875 29.385026 
L 107.775 29.200686 
L 108.55 29.933488 
L 108.9375 29.636412 
L 109.325 29.572638 
L 109.7125 29.725623 
L 110.1 29.394752 
L 110.4875 29.591335 
L 110.875 29.330909 
L 111.2625 29.357527 
L 111.65 29.740879 
L 112.0375 29.479115 
L 112.425 28.845715 
L 112.8125 28.993088 
L 113.5875 28.733911 
L 114.3625 28.923248 
L 114.75 28.957975 
L 115.1375 28.794264 
L 115.525 29.037283 
L 115.9125 28.51072 
L 116.6875 28.560624 
L 117.075 28.079009 
L 117.4625 28.277913 
L 117.85 28.021383 
L 118.2375 27.998998 
L 118.625 28.229991 
L 119.4 28.088774 
L 119.7875 28.391362 
L 120.175 28.477589 
L 120.5625 28.292912 
L 121.3375 28.58289 
L 122.5 27.984832 
L 123.275 28.076719 
L 123.6625 27.901945 
L 124.4375 28.129191 
L 125.2125 28.068105 
L 125.6 28.286954 
L 125.9875 28.158396 
L 126.375 28.391124 
L 127.15 28.13852 
L 127.5375 28.159279 
L 127.925 27.860924 
L 129.0875 28.179185 
L 129.8625 28.090707 
L 131.025 28.094028 
L 132.1875 28.406589 
L 132.575 28.361305 
L 132.9625 28.168102 
L 134.125 28.323316 
L 134.5125 28.202293 
L 135.2875 28.420171 
L 135.675 28.546646 
L 136.0625 28.551157 
L 136.45 28.217173 
L 136.8375 28.249312 
L 138 27.86018 
L 138.3875 28.00225 
L 139.55 27.737462 
L 139.9375 27.287798 
L 141.1 27.331248 
L 141.4875 28.030562 
L 141.875 32.738309 
L 142.2625 32.842568 
L 142.65 32.28231 
L 143.0375 28.410991 
L 143.425 27.403924 
L 143.8125 27.507529 
L 144.2 28.3 
L 144.5875 27.952494 
L 145.3625 27.969198 
L 145.75 27.674015 
L 146.1375 27.687795 
L 146.525 27.570519 
L 147.6875 27.726497 
L 148.075 27.434586 
L 148.4625 27.506647 
L 149.2375 27.277775 
L 149.625 27.190091 
L 150.0125 27.458111 
L 150.4 27.352741 
L 151.5625 27.68729 
L 151.95 27.981144 
L 152.3375 27.754285 
L 152.725 27.81317 
L 154.275 27.408127 
L 154.6625 27.585518 
L 155.05 27.632141 
L 155.4375 27.947755 
L 156.6 28.274691 
L 157.7625 28.522299 
L 158.15 28.369275 
L 158.5375 28.422996 
L 158.925 28.286825 
L 160.0875 28.771374 
L 160.475 28.573998 
L 161.6375 29.416432 
L 162.025 29.26319 
L 162.4125 29.53117 
L 162.8 29.152784 
L 163.1875 29.397379 
L 163.575 29.423144 
L 163.9625 29.897561 
L 164.35 29.70879 
L 164.7375 30.056177 
L 165.125 30.004319 
L 165.5125 30.150771 
L 166.2875 30.108529 
L 166.675 30.086006 
L 167.0625 29.606879 
L 167.45 29.812415 
L 167.8375 29.859712 
L 168.225 29.745033 
L 169.775 30.929561 
L 170.55 30.698488 
L 170.9375 31.193794 
L 171.325 31.100191 
L 172.1 30.762757 
L 172.4875 31.020507 
L 172.875 30.674746 
L 173.2625 30.599721 
L 173.65 30.795779 
L 174.0375 30.490336 
L 174.425 30.545881 
L 174.8125 30.455787 
L 175.2 30.491149 
L 175.5875 30.927856 
L 175.975 30.900961 
L 176.3625 31.52181 
L 176.75 31.56757 
L 177.1375 31.182612 
L 178.3 31.849003 
L 178.6875 31.291709 
L 179.075 31.800001 
L 179.4625 31.816804 
L 179.85 32.430615 
L 180.2375 32.07382 
L 180.625 32.57779 
L 181.0125 32.579584 
L 181.4 32.441282 
L 181.7875 32.918545 
L 182.175 32.842757 
L 182.5625 32.629657 
L 182.95 32.775504 
L 183.3375 33.332164 
L 183.725 33.166906 
L 184.1125 33.199403 
L 184.5 33.068882 
L 184.8875 32.405752 
L 185.275 32.225902 
L 185.6625 32.343862 
L 186.4375 33.395263 
L 186.825 33.806165 
L 187.2125 33.339252 
L 187.6 33.06115 
L 187.9875 33.374752 
L 188.375 33.269481 
L 189.15 33.817823 
L 189.5375 33.641998 
L 189.925 34.012543 
L 190.3125 33.529382 
L 190.7 34.19268 
L 191.0875 34.159817 
L 191.475 34.652079 
L 191.8625 34.336197 
L 192.25 34.580573 
L 192.6375 34.628812 
L 193.025 34.827141 
L 193.4125 34.552518 
L 194.1875 34.45494 
L 194.575 34.698335 
L 194.9625 34.628604 
L 195.35 34.329327 
L 196.125 35.252864 
L 196.5125 34.843448 
L 197.2875 35.175271 
L 197.675 35.086387 
L 198.0625 35.520447 
L 198.45 35.724367 
L 198.8375 34.910721 
L 199.225 35.177521 
L 199.6125 35.963608 
L 200 36.299079 
L 200.3875 36.205347 
L 200.775 36.480178 
L 201.1625 36.605206 
L 201.55 36.05727 
L 202.7125 44.280116 
L 203.1 44.699078 
L 203.4875 44.434587 
L 203.875 43.166984 
L 204.2625 42.617542 
L 204.65 44.576656 
L 205.425 44.508482 
L 205.8125 44.90724 
L 206.2 45.528982 
L 206.5875 46.47975 
L 206.975 46.248886 
L 207.3625 46.684562 
L 207.75 46.75467 
L 208.1375 47.703119 
L 208.525 48.102462 
L 208.9125 48.275135 
L 209.6875 49.662938 
L 210.075 49.638402 
L 210.4625 48.766465 
L 210.85 50.061012 
L 211.2375 50.125301 
L 211.625 49.584393 
L 212.0125 49.638511 
L 212.4 49.931919 
L 212.7875 49.484971 
L 213.175 50.300838 
L 213.5625 50.623957 
L 213.95 49.810985 
L 214.3375 50.512034 
L 214.725 49.932375 
L 215.1125 49.909554 
L 215.5 49.400856 
L 215.8875 49.134928 
L 216.275 48.65248 
L 216.6625 49.315808 
L 217.05 49.608661 
L 217.4375 49.739806 
L 217.825 49.62945 
L 218.2125 48.928609 
L 218.6 50.538671 
L 218.9875 49.885822 
L 219.375 50.681673 
L 219.7625 50.071956 
L 220.15 50.008025 
L 220.5375 49.176495 
L 221.3125 50.732301 
L 221.7 50.649365 
L 222.0875 50.30176 
L 222.475 51.064937 
L 222.8625 50.375169 
L 223.25 50.111323 
L 223.6375 51.43676 
L 224.025 50.985262 
L 224.4125 50.80106 
L 224.8 51.063509 
L 225.1875 52.054348 
L 225.575 51.823593 
L 225.9625 52.274119 
L 226.35 51.004881 
L 226.7375 50.70374 
L 227.125 51.127609 
L 227.5125 51.044872 
L 227.9 52.246837 
L 228.2875 50.534706 
L 228.675 51.988998 
L 229.0625 52.504398 
L 229.8375 52.319741 
L 230.225 52.048687 
L 231 52.66225 
L 231.3875 52.64162 
L 231.775 52.937765 
L 232.55 53.899408 
L 232.9375 53.377545 
L 233.7125 54.544982 
L 234.1 54.005314 
L 234.875 55.547509 
L 235.2625 55.570111 
L 235.65 53.485373 
L 236.0375 54.150447 
L 236.425 54.249432 
L 236.8125 55.091778 
L 237.2 55.579489 
L 237.5875 55.30221 
L 238.3625 56.219551 
L 238.75 56.007562 
L 239.1375 56.043736 
L 239.525 56.327548 
L 239.9125 56.322928 
L 240.3 56.000464 
L 240.6875 56.726832 
L 241.075 56.546179 
L 241.4625 57.033167 
L 241.85 57.121367 
L 242.2375 56.243541 
L 242.625 56.931852 
L 243.0125 56.680972 
L 243.7875 56.730004 
L 244.175 57.157819 
L 244.5625 58.215147 
L 244.95 57.411494 
L 245.3375 57.903627 
L 245.725 57.07981 
L 246.1125 57.324385 
L 246.5 57.397883 
L 246.8875 55.753123 
L 247.275 56.697706 
L 247.6625 56.678881 
L 248.4375 56.373358 
L 248.825 57.978275 
L 249.2125 57.160575 
L 249.6 58.215127 
L 249.9875 58.608096 
L 250.375 58.128127 
L 251.15 59.361141 
L 251.5375 58.554474 
L 252.7 59.507751 
L 253.475 58.474453 
L 253.8625 56.544633 
L 254.25 57.316811 
L 254.6375 57.809836 
L 255.025 57.427921 
L 255.4125 56.516191 
L 255.8 57.886784 
L 256.1875 58.142055 
L 256.575 57.573529 
L 256.9625 57.834203 
L 257.35 57.219332 
L 257.7375 58.295426 
L 258.125 58.38548 
L 258.5125 59.052873 
L 258.9 59.006954 
L 259.2875 57.344003 
L 259.675 57.363225 
L 260.0625 57.869416 
L 260.45 59.8881 
L 260.8375 60.417746 
L 261.6125 60.155555 
L 262 59.314707 
L 262.3875 61.270808 
L 262.775 60.952517 
L 263.1625 61.015933 
L 263.55 59.031301 
L 263.9375 57.833341 
L 264.325 58.610049 
L 264.7125 58.810767 
L 265.1 57.094115 
L 265.4875 59.010661 
L 265.875 57.989259 
L 266.2625 58.590163 
L 266.65 57.873123 
L 267.0375 59.627853 
L 267.425 58.443553 
L 267.8125 55.598265 
L 268.2 58.442581 
L 268.5875 58.257497 
L 268.975 58.959954 
L 269.3625 58.267649 
L 269.75 58.653857 
L 270.1375 58.718572 
L 270.525 58.602327 
L 270.9125 57.722905 
L 271.3 57.981765 
L 271.6875 56.720576 
L 272.075 58.8367 
L 272.4625 59.710045 
L 272.85 57.630204 
L 273.2375 58.369638 
L 273.625 55.05258 
L 274.0125 57.530346 
L 274.4 56.959897 
L 274.7875 57.597847 
L 275.5625 55.238992 
L 275.95 53.489259 
L 276.3375 56.126444 
L 276.725 56.843632 
L 277.1125 55.62986 
L 277.5 55.364933 
L 277.8875 55.925776 
L 278.275 54.812714 
L 278.6625 52.922181 
L 279.05 52.723604 
L 279.4375 53.926066 
L 279.825 53.247827 
L 280.2125 53.06089 
L 280.6 53.612295 
L 280.9875 53.326887 
L 281.375 51.455288 
L 281.7625 53.463574 
L 282.15 51.419075 
L 282.5375 50.513134 
L 282.925 53.045058 
L 283.3125 51.411699 
L 283.7 51.484761 
L 284.0875 52.28315 
L 284.475 51.781738 
L 284.8625 52.783749 
L 285.25 52.261797 
L 285.6375 50.714526 
L 286.025 52.859607 
L 286.4125 52.838075 
L 286.8 53.230984 
L 287.1875 54.433148 
L 287.575 51.935238 
L 287.9625 54.996351 
L 288.35 55.324962 
L 289.125 52.360961 
L 289.5125 53.283823 
L 289.9 56.15783 
L 290.2875 55.405736 
L 290.675 55.563896 
L 291.0625 54.469739 
L 291.45 54.283614 
L 291.8375 55.654257 
L 292.225 54.950957 
L 292.6125 55.025377 
L 293 51.785812 
L 293.3875 54.144003 
L 293.775 55.050439 
L 294.1625 54.280412 
L 294.55 54.418952 
L 294.9375 54.353633 
L 295.325 53.726686 
L 295.7125 52.599359 
L 296.1 54.858554 
L 296.4875 53.74344 
L 296.875 53.064865 
L 297.2625 52.014357 
L 297.65 53.518762 
L 298.0375 52.003323 
L 298.425 51.734877 
L 298.8125 50.684468 
L 299.2 51.827052 
L 299.5875 51.497054 
L 299.975 52.166707 
L 300.3625 51.669002 
L 300.75 53.609252 
L 301.1375 50.84004 
L 301.525 51.669498 
L 301.9125 52.84097 
L 302.3 49.758325 
L 302.6875 53.386635 
L 303.075 51.680869 
L 303.4625 52.302501 
L 303.85 50.584908 
L 304.2375 52.137462 
L 304.625 50.095352 
L 305.0125 50.116864 
L 305.4 52.805182 
L 305.7875 51.404799 
L 306.175 52.920515 
L 306.5625 51.730803 
L 306.95 51.145136 
L 307.3375 51.770357 
L 307.725 50.296684 
L 308.8875 53.639597 
L 309.275 52.894354 
L 309.6625 52.865724 
L 310.05 52.976615 
L 310.4375 51.473033 
L 310.825 51.761544 
L 311.2125 52.376158 
L 311.6 51.843945 
L 311.9875 53.225245 
L 312.375 52.135331 
L 312.7625 51.774184 
L 313.15 51.749539 
L 313.5375 51.239443 
L 313.925 53.062456 
L 314.3125 52.497251 
L 314.7 51.148765 
L 315.0875 51.461445 
L 315.475 51.067613 
L 316.25 52.319919 
L 316.6375 51.982495 
L 317.025 52.015547 
L 317.4125 51.694183 
L 317.8 50.55263 
L 318.1875 51.34854 
L 318.575 51.794348 
L 318.9625 51.622925 
L 319.35 50.848615 
L 319.7375 50.902148 
L 320.125 50.663164 
L 320.5125 50.670094 
L 321.2875 50.986452 
L 321.675 49.968936 
L 322.0625 49.727206 
L 322.45 51.393587 
L 322.8375 50.627367 
L 323.225 51.707219 
L 323.6125 51.162406 
L 324 50.272951 
L 324 50.272951 
" clip-path="url(#p250ce1bfe4)" style="fill: none; stroke: #195387; stroke-linecap: square"/>
   </g>
   <g id="patch_3">
    <path d="M 45 192.24 
L 45 25.92 
" style="fill: none; stroke: #000000; stroke-width: 0.8; stroke-linejoin: miter; stroke-linecap: square"/>
   </g>
   <g id="patch_4">
    <path d="M 324 192.24 
L 324 25.92 
" style="fill: none; stroke: #000000; stroke-width: 0.8; stroke-linejoin: miter; stroke-linecap: square"/>
   </g>
   <g id="patch_5">
    <path d="M 45 192.24 
L 324 192.24 
" style="fill: none; stroke: #000000; stroke-width: 0.8; stroke-linejoin: miter; stroke-linecap: square"/>
   </g>
   <g id="patch_6">
    <path d="M 45 25.92 
L 324 25.92 
" style="fill: none; stroke: #000000; stroke-width: 0.8; stroke-linejoin: miter; stroke-linecap: square"/>
   </g>
   <g id="text_17">
    <text style="font: 8px 'sans-serif'; text-anchor: middle" x="184.5" y="19.92" transform="rotate(-0, 184.5, 19.92)">Nodal-inh._BMP-inh.</text>
   </g>
  </g>
 </g>
 <defs>
  <clipPath id="p250ce1bfe4">
   <rect x="45" y="25.92" width="279" height="166.32"/>
  </clipPath>
 </defs>
</svg>
