<?xml version="1.0" encoding="utf-8" standalone="no"?>
<!DOCTYPE svg PUBLIC "-//W3C//DTD SVG 1.1//EN"
  "http://www.w3.org/Graphics/SVG/1.1/DTD/svg11.dtd">
<svg xmlns:xlink="http://www.w3.org/1999/xlink" width="360pt" height="216pt" viewBox="0 0 360 216" xmlns="http://www.w3.org/2000/svg" version="1.1">
 <metadata>
  <rdf:RDF xmlns:dc="http://purl.org/dc/elements/1.1/" xmlns:cc="http://creativecommons.org/ns#" xmlns:rdf="http://www.w3.org/1999/02/22-rdf-syntax-ns#">
   <cc:Work>
    <dc:type rdf:resource="http://purl.org/dc/dcmitype/StillImage"/>
    <dc:date>2023-05-16T18:35:20.355215</dc:date>
    <dc:format>image/svg+xml</dc:format>
    <dc:creator>
     <cc:Agent>
      <dc:title>Matplotlib v3.5.1, https://matplotlib.org/</dc:title>
     </cc:Agent>
    </dc:creator>
   </cc:Work>
  </rdf:RDF>
 </metadata>
 <defs>
  <style type="text/css">*{stroke-linejoin: round; stroke-linecap: butt}</style>
 </defs>
 <g id="figure_1">
  <g id="patch_1">
   <path d="M 0 216 
L 360 216 
L 360 0 
L 0 0 
z
" style="fill: #ffffff"/>
  </g>
  <g id="axes_1">
   <g id="patch_2">
    <path d="M 45 192.24 
L 324 192.24 
L 324 25.92 
L 45 25.92 
z
" style="fill: #ffffff"/>
   </g>
   <g id="PolyCollection_1">
    <defs>
     <path id="mc44948746d" d="M 45.3875 -188.241938 
L 45.3875 -186.536251 
L 45.775 -186.393378 
L 46.1625 -186.261579 
L 46.55 -185.419957 
L 46.9375 -186.117765 
L 47.325 -185.164379 
L 47.7125 -185.656244 
L 48.1 -185.923392 
L 48.4875 -185.723636 
L 48.875 -184.103422 
L 49.2625 -185.649136 
L 49.65 -185.836798 
L 50.0375 -186.60274 
L 50.425 -185.900621 
L 50.8125 -186.266209 
L 51.2 -185.715646 
L 51.5875 -185.758958 
L 51.975 -186.389344 
L 52.3625 -186.752423 
L 52.75 -186.295899 
L 53.1375 -186.031875 
L 53.525 -184.996604 
L 53.9125 -185.016698 
L 54.3 -185.500058 
L 54.6875 -185.772291 
L 55.075 -185.513292 
L 55.4625 -185.664621 
L 55.85 -185.417707 
L 56.2375 -186.050343 
L 56.625 -186.171971 
L 57.0125 -185.361468 
L 57.4 -185.257258 
L 57.7875 -185.442164 
L 58.175 -186.196904 
L 58.5625 -186.383108 
L 58.95 -186.17213 
L 59.3375 -186.637051 
L 59.725 -186.554601 
L 60.1125 -185.667 
L 60.5 -184.794479 
L 60.8875 -184.907016 
L 61.275 -185.435204 
L 61.6625 -185.782631 
L 62.05 -186.320822 
L 62.4375 -186.193226 
L 62.825 -185.487795 
L 63.2125 -185.361161 
L 63.6 -185.228013 
L 63.9875 -185.384438 
L 64.375 -186.138484 
L 64.7625 -186.262967 
L 65.15 -186.609254 
L 65.5375 -186.765331 
L 65.925 -186.627415 
L 66.3125 -186.851746 
L 66.7 -186.569282 
L 67.0875 -186.544578 
L 67.475 -186.121661 
L 67.8625 -186.115614 
L 68.25 -187.086705 
L 68.6375 -187.616529 
L 69.025 -187.197418 
L 69.4125 -187.617183 
L 69.8 -187.526862 
L 70.1875 -187.195832 
L 70.575 -185.84342 
L 70.9625 -184.788887 
L 71.35 -184.667973 
L 71.7375 -186.119192 
L 72.125 -186.052286 
L 72.5125 -186.639688 
L 72.9 -186.782322 
L 73.2875 -186.776067 
L 73.675 -186.327206 
L 74.0625 -185.558825 
L 74.45 -185.766601 
L 74.8375 -185.736662 
L 75.225 -184.626327 
L 75.6125 -186.072758 
L 76 -186.783115 
L 76.3875 -186.866607 
L 76.775 -187.509711 
L 77.1625 -187.05977 
L 77.55 -187.46982 
L 77.9375 -186.091682 
L 78.325 -186.078289 
L 78.7125 -185.174124 
L 79.1 -186.757162 
L 79.4875 -186.484949 
L 79.875 -186.223036 
L 80.2625 -186.215918 
L 80.65 -186.273138 
L 81.0375 -186.992031 
L 81.425 -187.063765 
L 81.8125 -187.457815 
L 82.2 -186.969647 
L 82.5875 -187.265375 
L 82.975 -187.29567 
L 83.3625 -187.222261 
L 83.75 -187.491213 
L 84.1375 -187.493156 
L 84.525 -187.538163 
L 84.9125 -187.779893 
L 85.3 -187.777781 
L 85.6875 -188.126486 
L 86.075 -187.831621 
L 86.4625 -187.707415 
L 86.85 -187.287065 
L 87.2375 -187.635731 
L 87.625 -187.97032 
L 88.0125 -188.056686 
L 88.4 -187.869956 
L 88.7875 -188.336433 
L 89.175 -188.571293 
L 89.5625 -188.35279 
L 89.95 -188.661535 
L 90.3375 -188.836011 
L 90.725 -189.117573 
L 91.1125 -188.769016 
L 91.5 -188.755831 
L 91.8875 -188.913574 
L 92.275 -188.723305 
L 92.6625 -188.878372 
L 93.05 -188.756109 
L 93.4375 -188.778821 
L 93.825 -188.625222 
L 94.2125 -188.459152 
L 94.6 -188.712599 
L 94.9875 -188.360325 
L 95.375 -188.372756 
L 95.7625 -188.717952 
L 96.15 -188.564036 
L 96.5375 -188.643056 
L 96.925 -188.461937 
L 97.3125 -188.527267 
L 97.7 -188.520843 
L 98.0875 -188.30472 
L 98.475 -188.946358 
L 98.8625 -189.011251 
L 99.25 -188.773269 
L 99.6375 -189.093384 
L 100.025 -188.678804 
L 100.4125 -188.887214 
L 100.8 -188.753413 
L 101.1875 -188.80527 
L 101.575 -188.651076 
L 101.9625 -188.746632 
L 102.35 -188.630456 
L 102.7375 -188.539936 
L 103.125 -188.399879 
L 103.5125 -188.188564 
L 103.9 -187.920584 
L 104.2875 -188.17873 
L 104.675 -188.000001 
L 105.0625 -188.131314 
L 105.45 -188.179791 
L 105.8375 -188.219068 
L 106.225 -188.312492 
L 106.6125 -188.447484 
L 107 -188.267664 
L 107.3875 -188.430918 
L 107.775 -188.134923 
L 108.1625 -188.505973 
L 108.55 -188.321692 
L 108.9375 -187.747555 
L 109.325 -187.647528 
L 109.7125 -187.671628 
L 110.1 -188.379805 
L 110.4875 -187.861629 
L 110.875 -188.102496 
L 111.2625 -188.600666 
L 111.65 -188.250127 
L 112.0375 -188.78803 
L 112.425 -188.876141 
L 112.8125 -188.897217 
L 113.2 -188.486176 
L 113.5875 -188.899596 
L 113.975 -188.907874 
L 114.3625 -188.949917 
L 114.75 -188.908657 
L 115.1375 -189.047406 
L 115.525 -189.018538 
L 115.9125 -189.06181 
L 116.3 -189.138173 
L 116.6875 -188.995588 
L 117.075 -189.3871 
L 117.4625 -188.877529 
L 117.85 -189.10536 
L 118.2375 -188.862728 
L 118.625 -188.214429 
L 119.0125 -188.557047 
L 119.4 -188.298187 
L 119.7875 -188.350114 
L 120.175 -188.597137 
L 120.5625 -188.39527 
L 120.95 -188.705253 
L 121.3375 -188.588403 
L 121.725 -188.18337 
L 122.1125 -188.87173 
L 122.5 -188.776283 
L 122.8875 -188.310886 
L 123.275 -188.361722 
L 123.6625 -188.750121 
L 124.05 -188.882545 
L 124.4375 -188.547025 
L 124.825 -188.674799 
L 125.2125 -188.928068 
L 125.6 -188.150348 
L 125.9875 -187.947231 
L 126.375 -188.08021 
L 126.7625 -187.902373 
L 127.15 -188.273404 
L 127.5375 -188.153203 
L 127.925 -188.728451 
L 128.3125 -188.565939 
L 128.7 -188.596622 
L 129.0875 -188.01148 
L 129.475 -187.828677 
L 129.8625 -188.058173 
L 130.25 -188.381252 
L 130.6375 -188.466091 
L 131.025 -188.097539 
L 131.4125 -188.041984 
L 131.8 -187.828865 
L 132.1875 -187.4228 
L 132.575 -187.700337 
L 132.9625 -188.052542 
L 133.35 -188.348518 
L 133.7375 -188.037493 
L 134.125 -187.444947 
L 134.5125 -187.280929 
L 134.9 -186.930033 
L 135.2875 -186.978192 
L 135.675 -185.932215 
L 136.0625 -186.292311 
L 136.45 -187.302521 
L 136.8375 -186.724864 
L 137.225 -186.85014 
L 137.6125 -187.041083 
L 138 -186.909571 
L 138.3875 -186.651029 
L 138.775 -186.473657 
L 139.1625 -187.036741 
L 139.55 -186.863335 
L 139.9375 -188.095279 
L 140.325 -188.211385 
L 140.7125 -187.439058 
L 141.1 -187.436213 
L 141.4875 -184.445555 
L 141.875 -167.505818 
L 142.2625 -167.13796 
L 142.65 -169.313455 
L 143.0375 -183.586307 
L 143.425 -187.295403 
L 143.8125 -186.413463 
L 144.2 -183.30313 
L 144.5875 -184.247653 
L 144.975 -183.878209 
L 145.3625 -184.114575 
L 145.75 -184.978581 
L 146.1375 -184.970175 
L 146.525 -185.672919 
L 146.9125 -185.664532 
L 147.3 -185.467116 
L 147.6875 -185.226348 
L 148.075 -185.772113 
L 148.4625 -185.352972 
L 148.85 -185.975973 
L 149.2375 -186.342007 
L 149.625 -186.624441 
L 150.0125 -185.759166 
L 150.4 -186.022586 
L 150.7875 -186.323865 
L 151.175 -186.381234 
L 151.5625 -185.582419 
L 151.95 -185.041621 
L 152.3375 -185.572674 
L 152.725 -184.946561 
L 153.1125 -185.701856 
L 153.5 -185.636983 
L 153.8875 -185.941305 
L 154.275 -186.483908 
L 154.6625 -185.768048 
L 155.05 -185.884551 
L 155.4375 -185.22612 
L 155.825 -184.589488 
L 156.2125 -184.233031 
L 156.6 -183.952936 
L 156.9875 -183.791337 
L 157.375 -183.538396 
L 157.7625 -183.55963 
L 158.15 -183.538306 
L 158.5375 -183.389337 
L 158.925 -183.271298 
L 159.3125 -182.784885 
L 159.7 -182.316306 
L 160.0875 -181.78207 
L 160.475 -182.589689 
L 160.8625 -181.183427 
L 161.25 -179.993457 
L 161.6375 -179.196168 
L 162.025 -179.856364 
L 162.4125 -179.141148 
L 162.8 -180.486968 
L 163.1875 -179.212823 
L 163.575 -178.980848 
L 163.9625 -177.567796 
L 164.35 -178.683365 
L 164.7375 -176.892155 
L 165.125 -177.395926 
L 165.5125 -176.926763 
L 165.9 -178.05636 
L 166.2875 -178.349738 
L 166.675 -178.725141 
L 167.0625 -178.999287 
L 167.45 -178.928148 
L 167.8375 -178.635959 
L 168.225 -178.505369 
L 168.6125 -178.127925 
L 169 -177.348401 
L 169.3875 -177.098057 
L 169.775 -176.236073 
L 170.1625 -177.184869 
L 170.55 -176.732935 
L 170.9375 -174.796869 
L 171.325 -175.618356 
L 171.7125 -176.123783 
L 172.1 -177.445434 
L 172.4875 -175.760704 
L 172.875 -176.169167 
L 173.2625 -177.071538 
L 173.65 -176.875857 
L 174.0375 -177.146365 
L 174.425 -177.949652 
L 174.8125 -178.549048 
L 175.2 -178.341689 
L 175.5875 -176.873924 
L 175.975 -177.14238 
L 176.3625 -176.08865 
L 176.75 -176.010215 
L 177.1375 -177.257138 
L 177.525 -176.703195 
L 177.9125 -176.403005 
L 178.3 -175.702204 
L 178.6875 -177.215918 
L 179.075 -176.851629 
L 179.4625 -176.375565 
L 179.85 -174.681169 
L 180.2375 -176.758888 
L 180.625 -174.11755 
L 181.0125 -175.255693 
L 181.4 -175.388325 
L 181.7875 -175.33159 
L 182.175 -176.079401 
L 182.5625 -176.575033 
L 182.95 -175.106079 
L 183.3375 -174.52987 
L 183.725 -175.858688 
L 184.1125 -176.059802 
L 184.5 -176.238095 
L 184.8875 -178.806659 
L 185.275 -178.970399 
L 185.6625 -180.687408 
L 186.05 -180.300655 
L 186.4375 -179.951414 
L 186.825 -180.434218 
L 187.2125 -180.689212 
L 187.6 -181.572391 
L 187.9875 -180.905712 
L 188.375 -181.191318 
L 188.7625 -181.331048 
L 189.15 -181.107659 
L 189.5375 -180.357409 
L 189.925 -180.203146 
L 190.3125 -179.791599 
L 190.7 -178.790322 
L 191.0875 -179.016943 
L 191.475 -179.232273 
L 191.8625 -180.068512 
L 192.25 -179.653118 
L 192.6375 -179.173922 
L 193.025 -179.614575 
L 193.4125 -178.481547 
L 193.8 -179.791897 
L 194.1875 -180.843029 
L 194.575 -180.367977 
L 194.9625 -180.661177 
L 195.35 -180.865156 
L 195.7375 -180.6643 
L 196.125 -181.066409 
L 196.5125 -182.164105 
L 196.9 -181.306721 
L 197.2875 -181.871043 
L 197.675 -182.127078 
L 198.0625 -182.145557 
L 198.45 -182.363077 
L 198.8375 -181.684631 
L 199.225 -181.300079 
L 199.6125 -182.372426 
L 200 -181.656863 
L 200.3875 -181.677563 
L 200.775 -181.809897 
L 201.1625 -182.286605 
L 201.55 -183.08664 
L 201.9375 -178.035918 
L 202.325 -171.782042 
L 202.7125 -160.494286 
L 203.1 -162.789398 
L 203.4875 -162.73761 
L 203.875 -167.527251 
L 204.2625 -169.436729 
L 204.65 -166.377331 
L 205.0375 -167.657246 
L 205.425 -166.976182 
L 205.8125 -167.245372 
L 206.2 -166.372225 
L 206.5875 -166.585136 
L 206.975 -167.815048 
L 207.3625 -166.859035 
L 207.75 -168.045308 
L 208.1375 -166.570514 
L 208.525 -166.505165 
L 208.9125 -164.301119 
L 209.3 -164.263388 
L 209.6875 -164.065416 
L 210.075 -164.529346 
L 210.4625 -164.266025 
L 210.85 -164.215556 
L 211.2375 -165.00986 
L 211.625 -165.327785 
L 212.0125 -165.035179 
L 212.4 -164.433711 
L 212.7875 -163.545159 
L 213.175 -163.388754 
L 213.5625 -164.299671 
L 213.95 -164.679079 
L 214.3375 -164.125175 
L 214.725 -163.268891 
L 215.1125 -163.615931 
L 215.5 -163.907307 
L 215.8875 -163.411992 
L 216.275 -162.506765 
L 216.6625 -162.608636 
L 217.05 -162.406174 
L 217.4375 -163.653899 
L 217.825 -163.697152 
L 218.2125 -164.632089 
L 218.6 -165.415608 
L 218.9875 -166.01781 
L 219.375 -165.238722 
L 219.7625 -163.855906 
L 220.15 -164.114121 
L 220.5375 -164.236057 
L 220.925 -164.419198 
L 221.3125 -162.757159 
L 221.7 -162.930218 
L 222.0875 -161.29794 
L 222.475 -162.450883 
L 222.8625 -161.464376 
L 223.25 -160.867676 
L 223.6375 -160.417229 
L 224.025 -162.584566 
L 224.4125 -161.887472 
L 224.8 -161.139166 
L 225.1875 -161.36771 
L 225.575 -161.967841 
L 225.9625 -163.278705 
L 226.35 -162.222874 
L 226.7375 -162.879679 
L 227.125 -163.203393 
L 227.5125 -163.151397 
L 227.9 -163.800232 
L 228.2875 -163.620868 
L 228.675 -165.035526 
L 229.0625 -164.446886 
L 229.45 -163.417355 
L 229.8375 -164.830209 
L 230.225 -163.875366 
L 230.6125 -164.790466 
L 231 -164.688635 
L 231.3875 -164.626032 
L 231.775 -164.780761 
L 232.1625 -166.655423 
L 232.55 -166.373752 
L 232.9375 -167.240613 
L 233.325 -167.250527 
L 233.7125 -166.771222 
L 234.1 -166.640543 
L 234.4875 -165.2882 
L 234.875 -165.56766 
L 235.2625 -165.475287 
L 235.65 -165.825152 
L 236.0375 -166.151711 
L 236.425 -166.984559 
L 236.8125 -165.085619 
L 237.2 -165.525003 
L 237.5875 -166.459196 
L 237.975 -166.132717 
L 238.3625 -165.330917 
L 238.75 -164.537326 
L 239.1375 -164.098379 
L 239.525 -163.896333 
L 239.9125 -164.845158 
L 240.3 -165.022203 
L 240.6875 -163.44994 
L 241.075 -165.253107 
L 241.4625 -164.185518 
L 241.85 -164.072971 
L 242.2375 -163.162837 
L 242.625 -162.255122 
L 243.0125 -163.929226 
L 243.4 -162.741476 
L 243.7875 -163.069561 
L 244.175 -163.879242 
L 244.5625 -164.193915 
L 244.95 -164.687664 
L 245.3375 -164.204641 
L 245.725 -164.111276 
L 246.1125 -164.059379 
L 246.5 -163.981906 
L 246.8875 -164.178053 
L 247.275 -163.280113 
L 247.6625 -162.587084 
L 248.05 -162.274057 
L 248.4375 -163.619391 
L 248.825 -162.705292 
L 249.2125 -164.070106 
L 249.6 -162.538449 
L 249.9875 -164.325228 
L 250.375 -163.9974 
L 250.7625 -163.489782 
L 251.15 -163.525629 
L 251.5375 -164.000414 
L 251.925 -163.54734 
L 252.3125 -163.84511 
L 252.7 -163.383828 
L 253.0875 -161.829389 
L 253.475 -163.215121 
L 253.8625 -163.004063 
L 254.25 -163.962654 
L 254.6375 -162.371358 
L 255.025 -163.389518 
L 255.4125 -162.713976 
L 255.8 -161.484699 
L 256.1875 -161.899874 
L 256.575 -162.959899 
L 256.9625 -163.000941 
L 257.35 -162.997867 
L 257.7375 -162.937613 
L 258.125 -162.666074 
L 258.5125 -163.054523 
L 258.9 -165.752933 
L 259.2875 -168.065204 
L 259.675 -167.677043 
L 260.0625 -166.513789 
L 260.45 -164.530773 
L 260.8375 -164.587102 
L 261.225 -163.396259 
L 261.6125 -163.818899 
L 262 -162.861458 
L 262.3875 -162.573988 
L 262.775 -162.195463 
L 263.1625 -162.303361 
L 263.55 -165.433958 
L 263.9375 -165.603606 
L 264.325 -166.681099 
L 264.7125 -167.978828 
L 265.1 -167.371907 
L 265.4875 -167.275945 
L 265.875 -167.675566 
L 266.2625 -166.53887 
L 266.65 -166.942417 
L 267.0375 -167.141895 
L 267.425 -164.545207 
L 267.8125 -165.311943 
L 268.2 -165.317098 
L 268.5875 -166.097841 
L 268.975 -166.452445 
L 269.3625 -168.068336 
L 269.75 -166.718056 
L 270.1375 -165.917635 
L 270.525 -166.173897 
L 270.9125 -165.275174 
L 271.3 -166.848001 
L 271.6875 -165.98573 
L 272.075 -166.518508 
L 272.4625 -165.842213 
L 272.85 -167.214115 
L 273.2375 -168.583836 
L 273.625 -169.333728 
L 274.0125 -169.337049 
L 274.4 -170.562767 
L 274.7875 -170.750221 
L 275.175 -174.35573 
L 275.5625 -173.35478 
L 275.95 -177.730783 
L 276.3375 -175.523772 
L 276.725 -173.037728 
L 277.1125 -174.533449 
L 277.5 -175.938402 
L 277.8875 -177.359177 
L 278.275 -177.134975 
L 278.6625 -178.278243 
L 279.05 -178.653774 
L 279.4375 -178.626849 
L 279.825 -179.418646 
L 280.2125 -178.190191 
L 280.6 -177.524623 
L 280.9875 -178.080281 
L 281.375 -176.237382 
L 281.7625 -177.570205 
L 282.15 -177.012871 
L 282.5375 -176.322855 
L 282.925 -174.848528 
L 283.3125 -176.171596 
L 283.7 -176.834409 
L 284.0875 -175.75541 
L 284.475 -176.46323 
L 284.8625 -177.219933 
L 285.25 -176.561809 
L 285.6375 -176.144899 
L 286.025 -175.832298 
L 286.4125 -175.930015 
L 286.8 -175.694858 
L 287.1875 -176.279662 
L 287.575 -176.99118 
L 287.9625 -176.205698 
L 288.35 -175.224188 
L 288.7375 -176.039053 
L 289.125 -175.764441 
L 289.5125 -174.961888 
L 289.9 -173.581441 
L 290.2875 -173.917527 
L 290.675 -174.678671 
L 291.0625 -173.790109 
L 291.45 -174.40271 
L 291.8375 -174.190781 
L 292.225 -174.265399 
L 292.6125 -173.128198 
L 293 -174.985591 
L 293.3875 -174.423667 
L 293.775 -175.323084 
L 294.1625 -174.994622 
L 294.55 -175.783078 
L 294.9375 -176.84798 
L 295.325 -177.676348 
L 295.7125 -175.729942 
L 296.1 -175.383794 
L 296.4875 -175.361093 
L 296.875 -177.021495 
L 297.2625 -176.823683 
L 297.65 -175.462428 
L 298.0375 -175.800397 
L 298.425 -175.383755 
L 298.8125 -176.365126 
L 299.2 -176.780242 
L 299.5875 -175.884473 
L 299.975 -176.509684 
L 300.3625 -177.094458 
L 300.75 -176.603227 
L 301.1375 -177.055677 
L 301.525 -176.265744 
L 301.9125 -176.351247 
L 302.3 -177.014457 
L 302.6875 -176.851906 
L 303.075 -177.017044 
L 303.4625 -176.991249 
L 303.85 -177.804509 
L 304.2375 -176.093676 
L 304.625 -177.43791 
L 305.0125 -177.197429 
L 305.4 -175.791207 
L 305.7875 -176.02112 
L 306.175 -175.577959 
L 306.5625 -175.785616 
L 306.95 -175.607452 
L 307.3375 -175.150947 
L 307.725 -175.673872 
L 308.1125 -175.871149 
L 308.5 -175.282538 
L 308.8875 -175.801339 
L 309.275 -174.807615 
L 309.6625 -173.954523 
L 310.05 -174.912004 
L 310.4375 -174.925109 
L 310.825 -175.250538 
L 311.2125 -174.089991 
L 311.6 -174.536879 
L 311.9875 -173.213603 
L 312.375 -174.612538 
L 312.7625 -174.610298 
L 313.15 -173.803581 
L 313.5375 -173.192963 
L 313.925 -173.653482 
L 314.3125 -173.470579 
L 314.7 -172.006373 
L 315.0875 -173.439461 
L 315.475 -174.074883 
L 315.8625 -173.352331 
L 316.25 -174.887716 
L 316.6375 -173.443 
L 317.025 -173.992284 
L 317.4125 -173.684333 
L 317.8 -175.060527 
L 318.1875 -173.808132 
L 318.575 -173.367271 
L 318.9625 -173.265708 
L 319.35 -172.919104 
L 319.7375 -173.860832 
L 320.125 -173.322373 
L 320.5125 -172.648635 
L 320.9 -173.406141 
L 321.2875 -171.832085 
L 321.675 -172.349567 
L 322.0625 -172.374975 
L 322.45 -172.032217 
L 322.8375 -173.037143 
L 323.225 -174.19434 
L 323.6125 -174.509756 
L 324 -174.169913 
L 324 -184.223236 
L 324 -184.223236 
L 323.6125 -184.889925 
L 323.225 -185.021268 
L 322.8375 -185.497867 
L 322.45 -184.61222 
L 322.0625 -184.245769 
L 321.675 -184.060596 
L 321.2875 -183.671275 
L 320.9 -183.748243 
L 320.5125 -183.466979 
L 320.125 -185.234526 
L 319.7375 -184.955602 
L 319.35 -184.570633 
L 318.9625 -184.310455 
L 318.575 -183.602327 
L 318.1875 -184.136414 
L 317.8 -184.576363 
L 317.4125 -183.439043 
L 317.025 -184.19879 
L 316.6375 -184.268203 
L 316.25 -184.09798 
L 315.8625 -183.761924 
L 315.475 -183.582391 
L 315.0875 -183.557578 
L 314.7 -183.041286 
L 314.3125 -184.067377 
L 313.925 -183.623671 
L 313.5375 -183.187043 
L 313.15 -184.030469 
L 312.7625 -185.075069 
L 312.375 -184.571644 
L 311.9875 -184.439468 
L 311.6 -184.340542 
L 311.2125 -184.260887 
L 310.825 -184.481025 
L 310.4375 -184.698953 
L 310.05 -184.389257 
L 309.6625 -183.749522 
L 309.275 -184.422566 
L 308.8875 -184.439419 
L 308.5 -184.446784 
L 308.1125 -184.146496 
L 307.725 -183.920767 
L 307.3375 -184.230572 
L 306.95 -184.150878 
L 306.5625 -184.175067 
L 306.175 -184.051615 
L 305.7875 -184.824814 
L 305.4 -184.481313 
L 305.0125 -185.200573 
L 304.625 -185.275697 
L 304.2375 -184.231682 
L 303.85 -185.501327 
L 303.4625 -185.201961 
L 303.075 -184.634238 
L 302.6875 -185.121384 
L 302.3 -184.355957 
L 301.9125 -184.355462 
L 301.525 -184.681525 
L 301.1375 -184.554464 
L 300.75 -184.377251 
L 300.3625 -184.326217 
L 299.975 -184.360993 
L 299.5875 -184.184207 
L 299.2 -184.127056 
L 298.8125 -183.797394 
L 298.425 -184.063372 
L 298.0375 -184.009641 
L 297.65 -184.186874 
L 297.2625 -184.513779 
L 296.875 -184.595724 
L 296.4875 -184.840725 
L 296.1 -184.220639 
L 295.7125 -184.702997 
L 295.325 -184.970085 
L 294.9375 -185.111986 
L 294.55 -185.044317 
L 294.1625 -184.864547 
L 293.775 -184.246374 
L 293.3875 -184.190016 
L 293 -184.455825 
L 292.6125 -183.260254 
L 292.225 -183.754251 
L 291.8375 -183.696029 
L 291.45 -183.82304 
L 291.0625 -183.775981 
L 290.675 -183.604399 
L 290.2875 -183.120118 
L 289.9 -183.110323 
L 289.5125 -183.447539 
L 289.125 -183.489314 
L 288.7375 -183.615324 
L 288.35 -183.816527 
L 287.9625 -184.484336 
L 287.575 -184.973525 
L 287.1875 -184.855625 
L 286.8 -184.208485 
L 286.4125 -184.698893 
L 286.025 -184.798018 
L 285.6375 -185.231503 
L 285.25 -185.931501 
L 284.8625 -185.411551 
L 284.475 -185.880387 
L 284.0875 -185.945915 
L 283.7 -185.944825 
L 283.3125 -186.692298 
L 282.925 -185.710768 
L 282.5375 -186.409706 
L 282.15 -186.689503 
L 281.7625 -186.508979 
L 281.375 -185.540257 
L 280.9875 -185.813561 
L 280.6 -185.746397 
L 280.2125 -186.539413 
L 279.825 -186.71619 
L 279.4375 -186.19394 
L 279.05 -186.303701 
L 278.6625 -186.301848 
L 278.275 -185.639897 
L 277.8875 -185.389146 
L 277.5 -185.154118 
L 277.1125 -185.589239 
L 276.725 -184.355432 
L 276.3375 -184.888408 
L 275.95 -186.095747 
L 275.5625 -185.499999 
L 275.175 -185.730813 
L 274.7875 -185.819905 
L 274.4 -185.439933 
L 274.0125 -185.325393 
L 273.625 -185.47232 
L 273.2375 -185.718193 
L 272.85 -186.122662 
L 272.4625 -186.314923 
L 272.075 -185.987859 
L 271.6875 -185.80338 
L 271.3 -186.03474 
L 270.9125 -185.622102 
L 270.525 -185.981058 
L 270.1375 -185.832674 
L 269.75 -185.623986 
L 269.3625 -185.610593 
L 268.975 -185.253273 
L 268.5875 -184.997565 
L 268.2 -185.145157 
L 267.8125 -185.45178 
L 267.425 -185.242219 
L 267.0375 -184.966487 
L 266.65 -185.298865 
L 266.2625 -185.130406 
L 265.875 -185.214452 
L 265.4875 -185.037031 
L 265.1 -185.134896 
L 264.7125 -185.610424 
L 264.325 -186.118607 
L 263.9375 -185.801139 
L 263.55 -186.401785 
L 263.1625 -186.321694 
L 262.775 -185.477445 
L 262.3875 -186.027592 
L 262 -185.565288 
L 261.6125 -185.70481 
L 261.225 -185.526854 
L 260.8375 -185.606419 
L 260.45 -185.826855 
L 260.0625 -185.329844 
L 259.675 -186.431614 
L 259.2875 -185.771766 
L 258.9 -185.210863 
L 258.5125 -185.44943 
L 258.125 -185.149529 
L 257.7375 -185.95449 
L 257.35 -185.838087 
L 256.9625 -185.708141 
L 256.575 -185.290409 
L 256.1875 -185.232336 
L 255.8 -185.457847 
L 255.4125 -186.1195 
L 255.025 -186.520221 
L 254.6375 -185.548951 
L 254.25 -186.290507 
L 253.8625 -186.2981 
L 253.475 -186.48941 
L 253.0875 -185.615113 
L 252.7 -185.925315 
L 252.3125 -186.064549 
L 251.925 -186.304445 
L 251.5375 -185.902564 
L 251.15 -185.947957 
L 250.7625 -185.970342 
L 250.375 -186.235457 
L 249.9875 -185.901701 
L 249.6 -185.244004 
L 249.2125 -186.115762 
L 248.825 -185.731765 
L 248.4375 -185.933523 
L 248.05 -186.090691 
L 247.6625 -186.638766 
L 247.275 -186.200373 
L 246.8875 -186.429652 
L 246.5 -185.767989 
L 246.1125 -185.799147 
L 245.725 -186.04963 
L 245.3375 -186.397354 
L 244.95 -186.669379 
L 244.5625 -186.203328 
L 244.175 -186.73788 
L 243.7875 -186.871801 
L 243.4 -187.179861 
L 243.0125 -187.022892 
L 242.625 -186.351335 
L 242.2375 -186.805807 
L 241.85 -186.302006 
L 241.4625 -186.576797 
L 241.075 -186.975307 
L 240.6875 -186.266328 
L 240.3 -186.713969 
L 239.9125 -187.091681 
L 239.525 -186.992755 
L 239.1375 -186.363023 
L 238.75 -186.550249 
L 238.3625 -187.155544 
L 237.975 -186.688204 
L 237.5875 -186.279245 
L 237.2 -185.668606 
L 236.8125 -186.138087 
L 236.425 -186.902037 
L 236.0375 -187.015388 
L 235.65 -187.484165 
L 235.2625 -186.803488 
L 234.875 -186.379509 
L 234.4875 -186.842844 
L 234.1 -186.830839 
L 233.7125 -186.990703 
L 233.325 -186.530432 
L 232.9375 -186.759234 
L 232.55 -186.232404 
L 232.1625 -186.375326 
L 231.775 -186.609769 
L 231.3875 -187.088569 
L 231 -187.943157 
L 230.6125 -187.56022 
L 230.225 -187.478544 
L 229.8375 -187.701715 
L 229.45 -187.655727 
L 229.0625 -187.411737 
L 228.675 -187.429244 
L 228.2875 -187.955004 
L 227.9 -187.422106 
L 227.5125 -188.03212 
L 227.125 -188.511287 
L 226.7375 -188.239559 
L 226.35 -187.275516 
L 225.9625 -187.312265 
L 225.575 -187.184669 
L 225.1875 -186.241752 
L 224.8 -187.002748 
L 224.4125 -187.139474 
L 224.025 -187.029891 
L 223.6375 -186.881526 
L 223.25 -187.035304 
L 222.8625 -186.457142 
L 222.475 -186.785911 
L 222.0875 -187.09072 
L 221.7 -187.408951 
L 221.3125 -187.723416 
L 220.925 -186.764121 
L 220.5375 -187.693209 
L 220.15 -186.786783 
L 219.7625 -186.84334 
L 219.375 -185.784455 
L 218.9875 -186.478089 
L 218.6 -186.280276 
L 218.2125 -187.634254 
L 217.825 -187.594937 
L 217.4375 -188.310579 
L 217.05 -188.245468 
L 216.6625 -188.218751 
L 216.275 -188.119141 
L 215.8875 -188.272888 
L 215.5 -187.315943 
L 215.1125 -187.818317 
L 214.725 -187.570649 
L 214.3375 -187.337089 
L 213.95 -186.957523 
L 213.5625 -186.599053 
L 213.175 -186.729008 
L 212.7875 -186.624609 
L 212.4 -186.885581 
L 212.0125 -187.212725 
L 211.625 -186.240791 
L 211.2375 -186.180081 
L 210.85 -185.792108 
L 210.4625 -186.410638 
L 210.075 -185.559231 
L 209.6875 -186.208542 
L 209.3 -186.564415 
L 208.9125 -186.677329 
L 208.525 -186.392427 
L 208.1375 -185.993529 
L 207.75 -186.075702 
L 207.3625 -186.503537 
L 206.975 -185.822959 
L 206.5875 -185.9752 
L 206.2 -186.282506 
L 205.8125 -186.784375 
L 205.425 -187.199768 
L 205.0375 -186.817396 
L 204.65 -186.607558 
L 204.2625 -186.929834 
L 203.875 -186.913269 
L 203.4875 -187.056796 
L 203.1 -186.393666 
L 202.7125 -187.543338 
L 202.325 -186.592668 
L 201.9375 -187.367801 
L 201.55 -189.02406 
L 201.1625 -189.078009 
L 200.775 -189.016159 
L 200.3875 -188.955459 
L 200 -188.975404 
L 199.6125 -188.97704 
L 199.225 -188.870203 
L 198.8375 -189.284892 
L 198.45 -189.067302 
L 198.0625 -189.032288 
L 197.675 -188.84072 
L 197.2875 -189.219027 
L 196.9 -189.226115 
L 196.5125 -189.24849 
L 196.125 -189.173029 
L 195.7375 -188.967543 
L 195.35 -189.045314 
L 194.9625 -188.820576 
L 194.575 -189.001794 
L 194.1875 -188.579223 
L 193.8 -188.443816 
L 193.4125 -188.349251 
L 193.025 -187.752303 
L 192.6375 -188.753541 
L 192.25 -188.846589 
L 191.8625 -188.487564 
L 191.475 -188.300299 
L 191.0875 -188.483668 
L 190.7 -188.299793 
L 190.3125 -188.5693 
L 189.925 -188.50399 
L 189.5375 -188.767282 
L 189.15 -188.739266 
L 188.7625 -188.752372 
L 188.375 -188.581157 
L 187.9875 -188.9129 
L 187.6 -188.36885 
L 187.2125 -188.566316 
L 186.825 -188.567308 
L 186.4375 -188.79958 
L 186.05 -188.457536 
L 185.6625 -188.698819 
L 185.275 -188.906982 
L 184.8875 -189.308526 
L 184.5 -189.520247 
L 184.1125 -189.558761 
L 183.725 -189.980687 
L 183.3375 -190.015007 
L 182.95 -190.388288 
L 182.5625 -190.222377 
L 182.175 -190.105438 
L 181.7875 -190.317665 
L 181.4 -190.301466 
L 181.0125 -190.477906 
L 180.625 -190.01354 
L 180.2375 -189.913335 
L 179.85 -190.105002 
L 179.4625 -190.35831 
L 179.075 -190.089735 
L 178.6875 -190.072545 
L 178.3 -190.35942 
L 177.9125 -190.143506 
L 177.525 -189.874058 
L 177.1375 -190.280688 
L 176.75 -190.153122 
L 176.3625 -190.212622 
L 175.975 -190.641696 
L 175.5875 -190.647802 
L 175.2 -190.491249 
L 174.8125 -190.324049 
L 174.425 -190.670544 
L 174.0375 -190.673657 
L 173.65 -190.566532 
L 173.2625 -190.603093 
L 172.875 -190.266888 
L 172.4875 -189.95862 
L 172.1 -189.966491 
L 171.7125 -190.103872 
L 171.325 -189.962912 
L 170.9375 -189.943422 
L 170.55 -190.04453 
L 170.1625 -189.755295 
L 169.775 -189.703031 
L 169.3875 -189.47525 
L 169 -189.857364 
L 168.6125 -189.79369 
L 168.225 -190.05249 
L 167.8375 -189.903263 
L 167.45 -189.874098 
L 167.0625 -189.631892 
L 166.675 -189.363377 
L 166.2875 -189.611352 
L 165.9 -189.690104 
L 165.5125 -189.967978 
L 165.125 -189.518344 
L 164.7375 -189.975621 
L 164.35 -189.438025 
L 163.9625 -189.562885 
L 163.575 -189.74671 
L 163.1875 -189.679576 
L 162.8 -189.804912 
L 162.4125 -189.665003 
L 162.025 -189.993872 
L 161.6375 -189.827465 
L 161.25 -189.982105 
L 160.8625 -189.623535 
L 160.475 -189.810999 
L 160.0875 -189.512535 
L 159.7 -189.464831 
L 159.3125 -189.293497 
L 158.925 -189.734348 
L 158.5375 -189.679299 
L 158.15 -189.893954 
L 157.7625 -190.078612 
L 157.375 -190.050676 
L 156.9875 -189.908547 
L 156.6 -190.217301 
L 156.2125 -190.147451 
L 155.825 -190.099926 
L 155.4375 -190.158158 
L 155.05 -190.059558 
L 154.6625 -190.082736 
L 154.275 -190.119158 
L 153.8875 -190.072456 
L 153.5 -190.1854 
L 153.1125 -190.145468 
L 152.725 -190.160041 
L 152.3375 -190.028014 
L 151.95 -190.084739 
L 151.5625 -190.180304 
L 151.175 -189.994566 
L 150.7875 -190.105041 
L 150.4 -190.217321 
L 150.0125 -190.231616 
L 149.625 -190.172849 
L 149.2375 -190.091143 
L 148.85 -190.050299 
L 148.4625 -190.148918 
L 148.075 -190.01124 
L 147.6875 -190.076005 
L 147.3 -190.137597 
L 146.9125 -190.170847 
L 146.525 -190.0754 
L 146.1375 -190.243473 
L 145.75 -190.209251 
L 145.3625 -190.405657 
L 144.975 -190.420428 
L 144.5875 -190.324585 
L 144.2 -190.266948 
L 143.8125 -190.063454 
L 143.425 -189.876527 
L 143.0375 -190.396318 
L 142.65 -191.740859 
L 142.2625 -192.018039 
L 141.875 -192.069708 
L 141.4875 -190.135218 
L 141.1 -189.857215 
L 140.7125 -189.899595 
L 140.325 -189.928453 
L 139.9375 -189.845696 
L 139.55 -190.078721 
L 139.1625 -189.995924 
L 138.775 -190.022651 
L 138.3875 -190.029194 
L 138 -189.818592 
L 137.6125 -189.849403 
L 137.225 -189.79939 
L 136.8375 -189.76851 
L 136.45 -189.775548 
L 136.0625 -189.72036 
L 135.675 -189.798478 
L 135.2875 -189.568516 
L 134.9 -189.44436 
L 134.5125 -189.732742 
L 134.125 -189.796892 
L 133.7375 -189.720677 
L 133.35 -189.585161 
L 132.9625 -189.594003 
L 132.575 -189.469233 
L 132.1875 -189.752341 
L 131.8 -189.681489 
L 131.4125 -189.554835 
L 131.025 -189.685138 
L 130.6375 -189.650768 
L 130.25 -189.656022 
L 129.8625 -189.644641 
L 129.475 -189.417167 
L 129.0875 -189.512574 
L 128.7 -189.58632 
L 128.3125 -189.686635 
L 127.925 -189.610866 
L 127.5375 -189.465644 
L 127.15 -189.622604 
L 126.7625 -189.537913 
L 126.375 -189.458913 
L 125.9875 -189.369831 
L 125.6 -189.35846 
L 125.2125 -189.551068 
L 124.825 -189.47182 
L 124.4375 -189.546439 
L 124.05 -189.562151 
L 123.6625 -189.631982 
L 123.275 -189.391372 
L 122.8875 -189.536783 
L 122.5 -189.351084 
L 122.1125 -189.529368 
L 121.725 -189.412359 
L 121.3375 -189.564203 
L 120.95 -189.583683 
L 120.5625 -189.522508 
L 120.175 -189.674947 
L 119.7875 -189.543177 
L 119.4 -189.45808 
L 119.0125 -189.62417 
L 118.625 -189.564085 
L 118.2375 -189.559723 
L 117.85 -189.589076 
L 117.4625 -189.596611 
L 117.075 -189.769679 
L 116.6875 -189.721788 
L 116.3 -189.595778 
L 115.9125 -189.504505 
L 115.525 -189.493868 
L 115.1375 -189.551108 
L 114.75 -189.56808 
L 114.3625 -189.627878 
L 113.975 -189.426823 
L 113.5875 -189.566474 
L 113.2 -189.313948 
L 112.8125 -189.630277 
L 112.425 -189.463592 
L 112.0375 -189.271985 
L 111.65 -189.168052 
L 111.2625 -189.240163 
L 110.875 -189.075401 
L 110.4875 -188.905059 
L 110.1 -189.150634 
L 109.7125 -188.804933 
L 109.325 -189.082975 
L 108.9375 -189.063803 
L 108.55 -189.252485 
L 108.1625 -189.328868 
L 107.775 -189.136696 
L 107.3875 -189.014999 
L 107 -189.154719 
L 106.6125 -189.085533 
L 106.225 -189.183547 
L 105.8375 -189.273383 
L 105.45 -189.392701 
L 105.0625 -189.435646 
L 104.675 -189.247112 
L 104.2875 -189.38139 
L 103.9 -189.517224 
L 103.5125 -189.34467 
L 103.125 -189.422947 
L 102.7375 -189.274106 
L 102.35 -189.464018 
L 101.9625 -189.471106 
L 101.575 -189.239816 
L 101.1875 -189.404319 
L 100.8 -189.568595 
L 100.4125 -189.45466 
L 100.025 -189.378237 
L 99.6375 -189.440176 
L 99.25 -189.37101 
L 98.8625 -189.443854 
L 98.475 -189.525561 
L 98.0875 -189.411735 
L 97.7 -189.350242 
L 97.3125 -189.398124 
L 96.925 -189.346574 
L 96.5375 -189.331307 
L 96.15 -189.240629 
L 95.7625 -189.531053 
L 95.375 -189.364636 
L 94.9875 -189.447235 
L 94.6 -189.458467 
L 94.2125 -189.35961 
L 93.825 -189.475042 
L 93.4375 -189.530101 
L 93.05 -189.487721 
L 92.6625 -189.516659 
L 92.275 -189.518939 
L 91.8875 -189.387318 
L 91.5 -189.415908 
L 91.1125 -189.457644 
L 90.725 -189.647883 
L 90.3375 -189.501144 
L 89.95 -189.578687 
L 89.5625 -189.364537 
L 89.175 -189.451071 
L 88.7875 -189.520832 
L 88.4 -189.231032 
L 88.0125 -189.358281 
L 87.625 -189.464851 
L 87.2375 -189.550196 
L 86.85 -189.61389 
L 86.4625 -189.52907 
L 86.075 -189.525928 
L 85.6875 -189.581641 
L 85.3 -189.631516 
L 84.9125 -189.537963 
L 84.525 -189.472455 
L 84.1375 -189.450526 
L 83.75 -189.565601 
L 83.3625 -189.423046 
L 82.975 -189.417227 
L 82.5875 -189.389965 
L 82.2 -189.247816 
L 81.8125 -189.32297 
L 81.425 -189.390887 
L 81.0375 -189.27482 
L 80.65 -189.068036 
L 80.2625 -188.756833 
L 79.875 -188.980599 
L 79.4875 -189.050509 
L 79.1 -189.126158 
L 78.7125 -188.950789 
L 78.325 -189.155522 
L 77.9375 -189.025309 
L 77.55 -189.127288 
L 77.1625 -189.171235 
L 76.775 -189.141187 
L 76.3875 -189.187721 
L 76 -189.38254 
L 75.6125 -189.330871 
L 75.225 -189.348596 
L 74.8375 -189.372002 
L 74.45 -189.423849 
L 74.0625 -189.499657 
L 73.675 -189.239161 
L 73.2875 -189.342182 
L 72.9 -189.408671 
L 72.5125 -189.540163 
L 72.125 -189.344184 
L 71.7375 -189.405122 
L 71.35 -189.383898 
L 70.9625 -189.296075 
L 70.575 -189.059302 
L 70.1875 -189.153678 
L 69.8 -189.156394 
L 69.4125 -189.050291 
L 69.025 -189.14652 
L 68.6375 -189.339664 
L 68.25 -189.34239 
L 67.8625 -189.533472 
L 67.475 -189.443497 
L 67.0875 -189.557274 
L 66.7 -189.527811 
L 66.3125 -189.38594 
L 65.925 -189.433257 
L 65.5375 -189.550295 
L 65.15 -189.502849 
L 64.7625 -189.535673 
L 64.375 -189.346593 
L 63.9875 -189.282939 
L 63.6 -189.157663 
L 63.2125 -189.385405 
L 62.825 -189.457337 
L 62.4375 -189.435596 
L 62.05 -189.304967 
L 61.6625 -189.599743 
L 61.275 -189.63329 
L 60.8875 -189.472554 
L 60.5 -189.214527 
L 60.1125 -189.210581 
L 59.725 -189.158644 
L 59.3375 -189.4077 
L 58.95 -189.213277 
L 58.5625 -189.337215 
L 58.175 -189.432137 
L 57.7875 -189.180484 
L 57.4 -188.912404 
L 57.0125 -188.98616 
L 56.625 -188.80752 
L 56.2375 -188.885549 
L 55.85 -188.740119 
L 55.4625 -188.577766 
L 55.075 -188.878054 
L 54.6875 -189.152914 
L 54.3 -189.040288 
L 53.9125 -188.311828 
L 53.525 -188.180346 
L 53.1375 -188.805994 
L 52.75 -188.883943 
L 52.3625 -188.89343 
L 51.975 -188.693664 
L 51.5875 -188.284844 
L 51.2 -188.597028 
L 50.8125 -188.272749 
L 50.425 -188.052175 
L 50.0375 -188.629723 
L 49.65 -188.516065 
L 49.2625 -188.219514 
L 48.875 -187.875805 
L 48.4875 -188.401515 
L 48.1 -188.562172 
L 47.7125 -187.988759 
L 47.325 -187.644088 
L 46.9375 -188.180316 
L 46.55 -187.604048 
L 46.1625 -187.794555 
L 45.775 -188.383621 
L 45.3875 -188.241938 
z
" style="stroke: #2e6e8e; stroke-opacity: 0.1"/>
    </defs>
    <g clip-path="url(#pd727806076)">
     <use xlink:href="#mc44948746d" x="0" y="216" style="fill: #2e6e8e; fill-opacity: 0.1; stroke: #2e6e8e; stroke-opacity: 0.1"/>
    </g>
   </g>
   <g id="matplotlib.axis_1">
    <g id="xtick_1">
     <g id="line2d_1">
      <defs>
       <path id="m7cc72c4040" d="M 0 0 
L 0 3.5 
" style="stroke: #000000; stroke-width: 0.8"/>
      </defs>
      <g>
       <use xlink:href="#m7cc72c4040" x="45" y="192.24" style="stroke: #000000; stroke-width: 0.8"/>
      </g>
     </g>
     <g id="text_1">
      <text style="font: 6px 'sans-serif'; text-anchor: middle" x="45" y="203.799062" transform="rotate(-0, 45, 203.799062)">0</text>
     </g>
    </g>
    <g id="xtick_2">
     <g id="line2d_2">
      <g>
       <use xlink:href="#m7cc72c4040" x="83.75" y="192.24" style="stroke: #000000; stroke-width: 0.8"/>
      </g>
     </g>
     <g id="text_2">
      <text style="font: 6px 'sans-serif'; text-anchor: middle" x="83.75" y="203.799062" transform="rotate(-0, 83.75, 203.799062)">200</text>
     </g>
    </g>
    <g id="xtick_3">
     <g id="line2d_3">
      <g>
       <use xlink:href="#m7cc72c4040" x="122.5" y="192.24" style="stroke: #000000; stroke-width: 0.8"/>
      </g>
     </g>
     <g id="text_3">
      <text style="font: 6px 'sans-serif'; text-anchor: middle" x="122.5" y="203.799062" transform="rotate(-0, 122.5, 203.799062)">400</text>
     </g>
    </g>
    <g id="xtick_4">
     <g id="line2d_4">
      <g>
       <use xlink:href="#m7cc72c4040" x="161.25" y="192.24" style="stroke: #000000; stroke-width: 0.8"/>
      </g>
     </g>
     <g id="text_4">
      <text style="font: 6px 'sans-serif'; text-anchor: middle" x="161.25" y="203.799062" transform="rotate(-0, 161.25, 203.799062)">600</text>
     </g>
    </g>
    <g id="xtick_5">
     <g id="line2d_5">
      <g>
       <use xlink:href="#m7cc72c4040" x="200" y="192.24" style="stroke: #000000; stroke-width: 0.8"/>
      </g>
     </g>
     <g id="text_5">
      <text style="font: 6px 'sans-serif'; text-anchor: middle" x="200" y="203.799062" transform="rotate(-0, 200, 203.799062)">800</text>
     </g>
    </g>
    <g id="xtick_6">
     <g id="line2d_6">
      <g>
       <use xlink:href="#m7cc72c4040" x="238.75" y="192.24" style="stroke: #000000; stroke-width: 0.8"/>
      </g>
     </g>
     <g id="text_6">
      <text style="font: 6px 'sans-serif'; text-anchor: middle" x="238.75" y="203.799062" transform="rotate(-0, 238.75, 203.799062)">1000</text>
     </g>
    </g>
    <g id="xtick_7">
     <g id="line2d_7">
      <g>
       <use xlink:href="#m7cc72c4040" x="277.5" y="192.24" style="stroke: #000000; stroke-width: 0.8"/>
      </g>
     </g>
     <g id="text_7">
      <text style="font: 6px 'sans-serif'; text-anchor: middle" x="277.5" y="203.799062" transform="rotate(-0, 277.5, 203.799062)">1200</text>
     </g>
    </g>
    <g id="xtick_8">
     <g id="line2d_8">
      <g>
       <use xlink:href="#m7cc72c4040" x="316.25" y="192.24" style="stroke: #000000; stroke-width: 0.8"/>
      </g>
     </g>
     <g id="text_8">
      <text style="font: 6px 'sans-serif'; text-anchor: middle" x="316.25" y="203.799062" transform="rotate(-0, 316.25, 203.799062)">1400</text>
     </g>
    </g>
    <g id="text_9">
     <text style="font: 8px 'sans-serif'; text-anchor: middle" x="184.5" y="215.125625" transform="rotate(-0, 184.5, 215.125625)">Time (min)</text>
    </g>
   </g>
   <g id="matplotlib.axis_2">
    <g id="ytick_1">
     <g id="line2d_9">
      <defs>
       <path id="m20ced2181a" d="M 0 0 
L -3.5 0 
" style="stroke: #000000; stroke-width: 0.8"/>
      </defs>
      <g>
       <use xlink:href="#m20ced2181a" x="45" y="192.24" style="stroke: #000000; stroke-width: 0.8"/>
      </g>
     </g>
     <g id="text_10">
      <text style="font: 6px 'sans-serif'; text-anchor: end" x="38" y="194.519531" transform="rotate(-0, 38, 194.519531)">0.0</text>
     </g>
    </g>
    <g id="ytick_2">
     <g id="line2d_10">
      <g>
       <use xlink:href="#m20ced2181a" x="45" y="158.976" style="stroke: #000000; stroke-width: 0.8"/>
      </g>
     </g>
     <g id="text_11">
      <text style="font: 6px 'sans-serif'; text-anchor: end" x="38" y="161.255531" transform="rotate(-0, 38, 161.255531)">0.2</text>
     </g>
    </g>
    <g id="ytick_3">
     <g id="line2d_11">
      <g>
       <use xlink:href="#m20ced2181a" x="45" y="125.712" style="stroke: #000000; stroke-width: 0.8"/>
      </g>
     </g>
     <g id="text_12">
      <text style="font: 6px 'sans-serif'; text-anchor: end" x="38" y="127.991531" transform="rotate(-0, 38, 127.991531)">0.4</text>
     </g>
    </g>
    <g id="ytick_4">
     <g id="line2d_12">
      <g>
       <use xlink:href="#m20ced2181a" x="45" y="92.448" style="stroke: #000000; stroke-width: 0.8"/>
      </g>
     </g>
     <g id="text_13">
      <text style="font: 6px 'sans-serif'; text-anchor: end" x="38" y="94.727531" transform="rotate(-0, 38, 94.727531)">0.6</text>
     </g>
    </g>
    <g id="ytick_5">
     <g id="line2d_13">
      <g>
       <use xlink:href="#m20ced2181a" x="45" y="59.184" style="stroke: #000000; stroke-width: 0.8"/>
      </g>
     </g>
     <g id="text_14">
      <text style="font: 6px 'sans-serif'; text-anchor: end" x="38" y="61.463531" transform="rotate(-0, 38, 61.463531)">0.8</text>
     </g>
    </g>
    <g id="ytick_6">
     <g id="line2d_14">
      <g>
       <use xlink:href="#m20ced2181a" x="45" y="25.92" style="stroke: #000000; stroke-width: 0.8"/>
      </g>
     </g>
     <g id="text_15">
      <text style="font: 6px 'sans-serif'; text-anchor: end" x="38" y="28.199531" transform="rotate(-0, 38, 28.199531)">1.0</text>
     </g>
    </g>
    <g id="text_16">
     <text style="font: 8px 'sans-serif'; text-anchor: middle" x="22.794375" y="109.08" transform="rotate(-90, 22.794375, 109.08)">Cosine similarity φ</text>
    </g>
   </g>
   <g id="line2d_15">
    <path d="M 45.3875 28.610905 
L 45.775 28.6115 
L 46.1625 28.971933 
L 46.55 29.487997 
L 46.9375 28.850959 
L 47.325 29.595766 
L 48.1 28.757218 
L 48.4875 28.937425 
L 48.875 30.010386 
L 49.2625 29.065675 
L 49.65 28.823569 
L 50.0375 28.383769 
L 50.425 29.023602 
L 50.8125 28.730521 
L 51.5875 28.978099 
L 51.975 28.458496 
L 52.3625 28.177073 
L 53.1375 28.581066 
L 53.525 29.411525 
L 53.9125 29.335737 
L 54.3 28.729827 
L 54.6875 28.537397 
L 55.075 28.804327 
L 55.85 28.921087 
L 56.2375 28.532054 
L 56.625 28.510254 
L 57.0125 28.826186 
L 57.4 28.915169 
L 57.7875 28.688676 
L 58.175 28.18548 
L 58.5625 28.139838 
L 58.95 28.307296 
L 59.3375 27.977625 
L 59.725 28.143377 
L 60.5 28.995497 
L 60.8875 28.810215 
L 61.275 28.465753 
L 62.05 28.187106 
L 62.4375 28.185589 
L 62.825 28.527434 
L 63.6 28.807162 
L 63.9875 28.666312 
L 64.375 28.257461 
L 65.5375 27.842187 
L 65.925 27.969664 
L 66.3125 27.881157 
L 67.0875 27.949074 
L 67.475 28.217421 
L 67.8625 28.175457 
L 68.6375 27.521904 
L 69.025 27.828031 
L 69.4125 27.666263 
L 69.8 27.658372 
L 70.1875 27.825245 
L 70.575 28.548639 
L 70.9625 28.957519 
L 71.35 28.974065 
L 71.7375 28.237843 
L 72.125 28.301765 
L 72.5125 27.910074 
L 73.2875 27.940875 
L 74.0625 28.470759 
L 74.8375 28.445668 
L 75.225 29.012539 
L 75.6125 28.298186 
L 76 27.917172 
L 76.3875 27.972836 
L 76.775 27.674551 
L 77.1625 27.884498 
L 77.55 27.701446 
L 77.9375 28.441504 
L 78.325 28.383094 
L 78.7125 28.937543 
L 79.1 28.05834 
L 80.2625 28.513625 
L 80.65 28.329413 
L 81.0375 27.866574 
L 81.8125 27.609608 
L 82.2 27.891269 
L 82.5875 27.67233 
L 83.3625 27.677346 
L 83.75 27.471593 
L 84.525 27.494691 
L 85.6875 27.145936 
L 86.4625 27.381757 
L 86.85 27.549522 
L 87.625 27.282415 
L 88.0125 27.292516 
L 88.4 27.449506 
L 88.7875 27.071367 
L 89.175 26.988818 
L 89.5625 27.141336 
L 89.95 26.879889 
L 90.3375 26.831422 
L 90.725 26.617272 
L 91.1125 26.88667 
L 92.275 26.878878 
L 92.6625 26.802485 
L 94.2125 27.090619 
L 94.6 26.914467 
L 94.9875 27.09622 
L 95.375 27.131304 
L 95.7625 26.875497 
L 96.15 27.097668 
L 96.5375 27.012818 
L 96.925 27.095744 
L 97.7 27.064458 
L 98.0875 27.141773 
L 98.475 26.764041 
L 98.8625 26.772447 
L 99.25 26.92786 
L 99.6375 26.73322 
L 100.025 26.971479 
L 100.4125 26.829063 
L 101.1875 26.895205 
L 101.575 27.054554 
L 101.9625 26.891131 
L 104.675 27.376444 
L 105.0625 27.21652 
L 107.3875 27.277042 
L 107.775 27.364191 
L 108.1625 27.082579 
L 108.55 27.212911 
L 108.9375 27.594321 
L 109.7125 27.76172 
L 110.1 27.23478 
L 110.4875 27.616656 
L 110.875 27.411051 
L 111.2625 27.079586 
L 111.65 27.29091 
L 112.0375 26.969992 
L 112.8125 26.736253 
L 113.2 27.099938 
L 113.5875 26.766965 
L 113.975 26.832652 
L 114.3625 26.711103 
L 115.1375 26.700743 
L 115.9125 26.716843 
L 117.075 26.42161 
L 117.4625 26.76293 
L 117.85 26.652782 
L 118.2375 26.788775 
L 118.625 27.110743 
L 119.0125 26.909392 
L 119.4 27.121866 
L 119.7875 27.053355 
L 120.175 26.863958 
L 120.5625 27.041111 
L 120.95 26.855532 
L 121.3375 26.923697 
L 121.725 27.202136 
L 122.1125 26.799451 
L 123.275 27.123453 
L 123.6625 26.808948 
L 124.05 26.777652 
L 124.4375 26.953268 
L 124.825 26.92669 
L 125.2125 26.760432 
L 125.6 27.245596 
L 125.9875 27.341469 
L 126.375 27.230438 
L 126.7625 27.279857 
L 127.15 27.051996 
L 127.5375 27.190576 
L 127.925 26.830342 
L 128.7 26.908529 
L 129.0875 27.237973 
L 129.475 27.377078 
L 130.25 26.981363 
L 130.6375 26.941571 
L 131.4125 27.20159 
L 131.8 27.244823 
L 132.1875 27.412429 
L 132.575 27.415215 
L 133.35 27.033161 
L 133.7375 27.120915 
L 134.125 27.379081 
L 134.5125 27.493165 
L 134.9 27.812804 
L 135.2875 27.726646 
L 135.675 28.134654 
L 136.0625 27.993665 
L 136.45 27.460966 
L 136.8375 27.753313 
L 137.6125 27.554757 
L 138.775 27.751846 
L 139.1625 27.483667 
L 139.55 27.528972 
L 139.9375 27.029513 
L 140.325 26.930081 
L 140.7125 27.330673 
L 141.1 27.353286 
L 141.4875 28.709614 
L 141.875 36.212237 
L 142.2625 36.421996 
L 142.65 35.472843 
L 143.0375 29.008692 
L 143.425 27.414035 
L 143.8125 27.761541 
L 144.2 29.214961 
L 144.5875 28.713886 
L 144.975 28.850682 
L 145.3625 28.739879 
L 145.75 28.406084 
L 146.1375 28.393176 
L 146.525 28.125841 
L 146.9125 28.082311 
L 147.6875 28.348824 
L 148.075 28.108323 
L 148.4625 28.249055 
L 149.2375 27.78343 
L 149.625 27.60136 
L 150.0125 28.004609 
L 150.7875 27.785542 
L 151.175 27.8121 
L 151.95 28.436815 
L 152.3375 28.199656 
L 152.725 28.446699 
L 153.1125 28.076333 
L 153.8875 27.993119 
L 154.275 27.698462 
L 154.6625 28.074608 
L 155.05 28.027945 
L 156.2125 28.809759 
L 156.6 28.914881 
L 156.9875 29.150058 
L 158.925 29.497177 
L 159.3125 29.960809 
L 160.0875 30.352698 
L 160.475 29.799656 
L 160.8625 30.596519 
L 161.6375 31.488184 
L 162.025 31.074882 
L 162.4125 31.596924 
L 162.8 30.85406 
L 163.1875 31.553801 
L 163.575 31.636221 
L 163.9625 32.43466 
L 164.35 31.939305 
L 164.7375 32.566112 
L 165.5125 32.55263 
L 165.9 32.126768 
L 166.675 31.955741 
L 167.0625 31.68441 
L 167.45 31.598877 
L 167.8375 31.730389 
L 168.225 31.72107 
L 169.775 33.030448 
L 170.1625 32.529918 
L 170.55 32.611268 
L 170.9375 33.629854 
L 172.1 32.294038 
L 172.4875 33.140338 
L 172.875 32.781967 
L 173.2625 32.162684 
L 173.65 32.27881 
L 174.0375 32.089989 
L 174.425 31.689902 
L 174.8125 31.563456 
L 175.2 31.583531 
L 175.5875 32.239137 
L 175.975 32.107962 
L 176.3625 32.849369 
L 176.75 32.918327 
L 177.1375 32.231087 
L 177.525 32.711374 
L 177.9125 32.72674 
L 178.3 32.969193 
L 178.6875 32.355769 
L 179.4625 32.633067 
L 179.85 33.606915 
L 180.2375 32.663888 
L 180.625 33.934455 
L 181.0125 33.133201 
L 181.7875 33.175372 
L 182.5625 32.601295 
L 183.3375 33.727561 
L 183.725 33.080312 
L 184.1125 33.190718 
L 184.5 33.120829 
L 184.8875 31.942408 
L 185.275 32.061309 
L 185.6625 31.306886 
L 186.05 31.620905 
L 186.4375 31.624503 
L 187.2125 31.372236 
L 187.6 31.029379 
L 188.375 31.113763 
L 188.7625 30.95829 
L 189.15 31.076538 
L 189.5375 31.437655 
L 190.3125 31.81955 
L 190.7 32.454943 
L 191.0875 32.249695 
L 191.475 32.233714 
L 191.8625 31.721962 
L 192.25 31.750146 
L 193.4125 32.584601 
L 194.1875 31.288874 
L 194.9625 31.259123 
L 195.35 31.044765 
L 195.7375 31.184079 
L 196.125 30.880281 
L 196.5125 30.293703 
L 196.9 30.733582 
L 197.2875 30.454965 
L 197.675 30.516101 
L 198.45 30.28481 
L 198.8375 30.515238 
L 199.225 30.914859 
L 199.6125 30.325267 
L 200 30.683866 
L 200.775 30.586972 
L 201.55 29.94465 
L 202.325 36.812645 
L 202.7125 41.981188 
L 203.1 41.408468 
L 203.4875 41.102797 
L 203.875 38.77974 
L 204.2625 37.816718 
L 204.65 39.507555 
L 205.0375 38.762679 
L 205.8125 38.985127 
L 206.2 39.672634 
L 206.5875 39.719832 
L 206.975 39.180997 
L 207.3625 39.318714 
L 207.75 38.939495 
L 208.1375 39.717978 
L 208.525 39.551204 
L 208.9125 40.510776 
L 209.3 40.586099 
L 209.6875 40.863021 
L 210.075 40.955711 
L 210.4625 40.661669 
L 210.85 40.996168 
L 211.2375 40.405029 
L 211.625 40.215712 
L 212.0125 39.876048 
L 212.7875 40.915116 
L 213.175 40.941119 
L 213.95 40.181699 
L 214.3375 40.268868 
L 214.725 40.58023 
L 215.1125 40.282876 
L 215.5 40.388375 
L 215.8875 40.15756 
L 216.275 40.687047 
L 216.6625 40.586307 
L 217.05 40.674179 
L 217.4375 40.017761 
L 217.825 40.353955 
L 218.2125 39.866829 
L 218.6 40.152058 
L 218.9875 39.752051 
L 219.375 40.488411 
L 219.7625 40.650377 
L 220.15 40.549548 
L 220.5375 40.035367 
L 221.3125 40.759713 
L 221.7 40.830415 
L 222.0875 41.80567 
L 222.475 41.381603 
L 222.8625 42.039241 
L 223.25 42.04851 
L 223.6375 42.350622 
L 224.025 41.192772 
L 224.4125 41.486527 
L 224.8 41.929043 
L 225.1875 42.195269 
L 225.9625 40.704515 
L 226.35 41.250805 
L 226.7375 40.440381 
L 227.125 40.14266 
L 227.5125 40.408241 
L 227.9 40.388831 
L 228.2875 40.212064 
L 228.675 39.767615 
L 229.45 40.463459 
L 229.8375 39.734038 
L 230.225 40.323045 
L 230.6125 39.824657 
L 231 39.684104 
L 231.3875 40.1427 
L 231.775 40.304735 
L 232.1625 39.484626 
L 232.55 39.696922 
L 232.9375 39.000076 
L 234.1 39.264309 
L 234.4875 39.934478 
L 234.875 40.026415 
L 235.2625 39.860613 
L 235.65 39.345342 
L 236.0375 39.416451 
L 236.425 39.056702 
L 236.8125 40.388147 
L 237.2 40.403195 
L 237.5875 39.63078 
L 237.975 39.58954 
L 238.3625 39.756769 
L 238.75 40.456213 
L 239.1375 40.769299 
L 239.525 40.555456 
L 239.9125 40.03158 
L 240.3 40.131914 
L 240.6875 41.141866 
L 241.075 39.885793 
L 241.4625 40.618843 
L 242.2375 41.015678 
L 242.625 41.696771 
L 243.0125 40.523941 
L 243.4 41.039331 
L 243.7875 41.029319 
L 244.175 40.691439 
L 244.5625 40.801379 
L 244.95 40.321479 
L 245.3375 40.699003 
L 246.1125 41.070737 
L 246.5 41.125053 
L 246.8875 40.696148 
L 247.275 41.259757 
L 247.6625 41.387075 
L 248.05 41.817626 
L 248.4375 41.223543 
L 248.825 41.781472 
L 249.2125 40.907066 
L 249.6 42.108774 
L 249.9875 40.886535 
L 250.375 40.883571 
L 250.7625 41.269938 
L 251.15 41.263207 
L 251.5375 41.048511 
L 252.3125 41.04517 
L 252.7 41.345429 
L 253.0875 42.277749 
L 253.475 41.147735 
L 253.8625 41.348918 
L 254.25 40.87342 
L 254.6375 42.039846 
L 255.025 41.045131 
L 255.4125 41.583262 
L 255.8 42.528727 
L 256.1875 42.433895 
L 256.575 41.874846 
L 256.9625 41.645459 
L 257.7375 41.553948 
L 258.125 42.092199 
L 258.5125 41.748024 
L 259.2875 39.081515 
L 259.675 38.945671 
L 260.0625 40.078183 
L 260.45 40.821186 
L 260.8375 40.90324 
L 261.225 41.538443 
L 261.6125 41.238145 
L 262 41.786627 
L 262.3875 41.69921 
L 262.775 42.163546 
L 263.1625 41.687472 
L 263.55 40.082129 
L 263.9375 40.297627 
L 264.325 39.600147 
L 264.7125 39.205374 
L 265.1 39.746598 
L 265.4875 39.843512 
L 265.875 39.554991 
L 266.2625 40.165362 
L 266.65 39.879359 
L 267.0375 39.945809 
L 267.425 41.106287 
L 267.8125 40.618139 
L 268.2 40.768873 
L 268.975 40.147141 
L 269.3625 39.160535 
L 269.75 39.828979 
L 270.1375 40.124846 
L 270.525 39.922522 
L 270.9125 40.551362 
L 271.3 39.558629 
L 271.6875 40.105445 
L 272.075 39.746816 
L 272.4625 39.921432 
L 273.2375 38.848985 
L 273.625 38.596976 
L 274.0125 38.668779 
L 274.4 37.99865 
L 274.7875 37.714937 
L 275.175 35.956728 
L 275.5625 36.572611 
L 275.95 34.086735 
L 276.725 37.30342 
L 277.1125 35.938656 
L 277.5 35.45374 
L 277.8875 34.625838 
L 278.275 34.612564 
L 278.6625 33.709955 
L 279.05 33.521262 
L 279.4375 33.589606 
L 279.825 32.932582 
L 280.6 34.36449 
L 280.9875 34.053079 
L 281.375 35.111181 
L 281.7625 33.960408 
L 282.15 34.148813 
L 282.5375 34.633719 
L 282.925 35.720352 
L 283.3125 34.568053 
L 283.7 34.610383 
L 284.0875 35.149338 
L 284.475 34.828192 
L 284.8625 34.684258 
L 285.25 34.753345 
L 286.025 35.684842 
L 286.4125 35.685546 
L 286.8 36.048328 
L 287.575 35.017647 
L 288.35 36.479642 
L 288.7375 36.172811 
L 289.125 36.373123 
L 289.5125 36.795287 
L 289.9 37.654118 
L 290.2875 37.481178 
L 290.675 36.858465 
L 291.0625 37.216955 
L 291.45 36.887125 
L 291.8375 37.056595 
L 292.225 36.990175 
L 292.6125 37.805774 
L 293 36.279292 
L 293.3875 36.693158 
L 293.775 36.215271 
L 294.1625 36.070415 
L 295.325 34.676783 
L 295.7125 35.78353 
L 296.1 36.197783 
L 296.4875 35.899091 
L 296.875 35.19139 
L 297.2625 35.331269 
L 297.65 36.175349 
L 298.0375 36.094981 
L 298.425 36.276437 
L 299.2 35.546351 
L 299.5875 35.96566 
L 300.3625 35.289662 
L 300.75 35.509761 
L 301.1375 35.194929 
L 301.525 35.526366 
L 301.9125 35.646645 
L 302.6875 35.013355 
L 303.075 35.174359 
L 303.4625 34.903395 
L 303.85 34.347082 
L 304.2375 35.837321 
L 304.625 34.643197 
L 305.0125 34.800999 
L 305.4 35.86374 
L 305.7875 35.577033 
L 306.175 36.185213 
L 306.5625 36.019659 
L 307.3375 36.30924 
L 308.1125 35.991177 
L 308.5 36.135339 
L 308.8875 35.879621 
L 309.275 36.38491 
L 309.6625 37.147977 
L 310.05 36.34937 
L 310.825 36.134218 
L 311.2125 36.824561 
L 311.6 36.56129 
L 311.9875 37.173465 
L 312.375 36.407909 
L 312.7625 36.157317 
L 313.5375 37.809997 
L 313.925 37.361424 
L 314.3125 37.231022 
L 314.7 38.476171 
L 315.0875 37.501481 
L 315.475 37.171363 
L 315.8625 37.442872 
L 316.25 36.507152 
L 316.6375 37.144398 
L 317.025 36.904463 
L 317.4125 37.438312 
L 317.8 36.181555 
L 318.1875 37.027727 
L 318.575 37.515201 
L 318.9625 37.211919 
L 319.35 37.255132 
L 319.7375 36.591783 
L 320.125 36.72155 
L 320.5125 37.942193 
L 320.9 37.422808 
L 321.2875 38.24832 
L 321.675 37.794919 
L 322.45 37.677781 
L 322.8375 36.732495 
L 323.225 36.392196 
L 323.6125 36.30016 
L 324 36.803425 
L 324 36.803425 
" clip-path="url(#pd727806076)" style="fill: none; stroke: #2e6e8e; stroke-linecap: square"/>
   </g>
   <g id="patch_3">
    <path d="M 45 192.24 
L 45 25.92 
" style="fill: none; stroke: #000000; stroke-width: 0.8; stroke-linejoin: miter; stroke-linecap: square"/>
   </g>
   <g id="patch_4">
    <path d="M 324 192.24 
L 324 25.92 
" style="fill: none; stroke: #000000; stroke-width: 0.8; stroke-linejoin: miter; stroke-linecap: square"/>
   </g>
   <g id="patch_5">
    <path d="M 45 192.24 
L 324 192.24 
" style="fill: none; stroke: #000000; stroke-width: 0.8; stroke-linejoin: miter; stroke-linecap: square"/>
   </g>
   <g id="patch_6">
    <path d="M 45 25.92 
L 324 25.92 
" style="fill: none; stroke: #000000; stroke-width: 0.8; stroke-linejoin: miter; stroke-linecap: square"/>
   </g>
   <g id="text_17">
    <text style="font: 8px 'sans-serif'; text-anchor: middle" x="184.5" y="19.92" transform="rotate(-0, 184.5, 19.92)">BMP-inh._BMP-inh.</text>
   </g>
  </g>
 </g>
 <defs>
  <clipPath id="pd727806076">
   <rect x="45" y="25.92" width="279" height="166.32"/>
  </clipPath>
 </defs>
</svg>
