<?xml version="1.0" encoding="utf-8" standalone="no"?>
<!DOCTYPE svg PUBLIC "-//W3C//DTD SVG 1.1//EN"
  "http://www.w3.org/Graphics/SVG/1.1/DTD/svg11.dtd">
<svg xmlns:xlink="http://www.w3.org/1999/xlink" width="360pt" height="216pt" viewBox="0 0 360 216" xmlns="http://www.w3.org/2000/svg" version="1.1">
 <metadata>
  <rdf:RDF xmlns:dc="http://purl.org/dc/elements/1.1/" xmlns:cc="http://creativecommons.org/ns#" xmlns:rdf="http://www.w3.org/1999/02/22-rdf-syntax-ns#">
   <cc:Work>
    <dc:type rdf:resource="http://purl.org/dc/dcmitype/StillImage"/>
    <dc:date>2023-05-16T18:35:20.134420</dc:date>
    <dc:format>image/svg+xml</dc:format>
    <dc:creator>
     <cc:Agent>
      <dc:title>Matplotlib v3.5.1, https://matplotlib.org/</dc:title>
     </cc:Agent>
    </dc:creator>
   </cc:Work>
  </rdf:RDF>
 </metadata>
 <defs>
  <style type="text/css">*{stroke-linejoin: round; stroke-linecap: butt}</style>
 </defs>
 <g id="figure_1">
  <g id="patch_1">
   <path d="M 0 216 
L 360 216 
L 360 0 
L 0 0 
z
" style="fill: #ffffff"/>
  </g>
  <g id="axes_1">
   <g id="patch_2">
    <path d="M 45 192.24 
L 324 192.24 
L 324 25.92 
L 45 25.92 
z
" style="fill: #ffffff"/>
   </g>
   <g id="PolyCollection_1">
    <defs>
     <path id="m2e50a0e3ea" d="M 45.3875 -188.676296 
L 45.3875 -186.226367 
L 45.775 -186.432398 
L 46.1625 -187.012146 
L 46.55 -187.684664 
L 46.9375 -187.715891 
L 47.325 -187.506926 
L 47.7125 -187.412094 
L 48.1 -187.535149 
L 48.4875 -186.854661 
L 48.875 -185.219299 
L 49.2625 -187.21673 
L 49.65 -187.533444 
L 50.0375 -188.299079 
L 50.425 -188.334302 
L 50.8125 -188.175489 
L 51.2 -188.006831 
L 51.5875 -188.497269 
L 51.975 -188.151895 
L 52.3625 -188.540184 
L 52.75 -188.170849 
L 53.1375 -188.295838 
L 53.525 -188.733774 
L 53.9125 -188.81326 
L 54.3 -188.584656 
L 54.6875 -188.570966 
L 55.075 -188.290574 
L 55.4625 -188.024824 
L 55.85 -187.359017 
L 56.2375 -188.371229 
L 56.625 -188.213695 
L 57.0125 -187.824384 
L 57.4 -187.922924 
L 57.7875 -187.619562 
L 58.175 -188.353147 
L 58.5625 -188.052978 
L 58.95 -188.35509 
L 59.3375 -188.42155 
L 59.725 -188.097866 
L 60.1125 -188.232193 
L 60.5 -188.06537 
L 60.8875 -187.781905 
L 61.275 -187.756616 
L 61.6625 -188.445888 
L 62.05 -188.361534 
L 62.4375 -188.420321 
L 62.825 -188.577082 
L 63.2125 -188.520566 
L 63.6 -188.559099 
L 63.9875 -187.999455 
L 64.375 -188.539183 
L 64.7625 -188.537696 
L 65.15 -188.668365 
L 65.5375 -188.513378 
L 65.925 -188.568279 
L 66.3125 -188.829449 
L 66.7 -188.903036 
L 67.0875 -188.950908 
L 67.475 -188.838351 
L 67.8625 -189.036065 
L 68.25 -188.885569 
L 68.6375 -189.009536 
L 69.025 -188.568041 
L 69.4125 -188.466775 
L 69.8 -188.684663 
L 70.1875 -189.008753 
L 70.575 -188.97471 
L 70.9625 -188.807362 
L 71.35 -188.890228 
L 71.7375 -188.864285 
L 72.125 -188.86712 
L 72.5125 -188.938695 
L 72.9 -188.835119 
L 73.2875 -188.821538 
L 73.675 -188.730988 
L 74.0625 -188.859833 
L 74.45 -188.621594 
L 74.8375 -188.763366 
L 75.225 -188.240927 
L 75.6125 -188.407909 
L 76 -188.478285 
L 76.3875 -188.405084 
L 76.775 -188.48341 
L 77.1625 -188.45704 
L 77.55 -188.570886 
L 77.9375 -188.347229 
L 78.325 -188.674462 
L 78.7125 -188.523857 
L 79.1 -188.606366 
L 79.4875 -188.323764 
L 79.875 -188.365093 
L 80.2625 -188.465794 
L 80.65 -188.314713 
L 81.0375 -187.98752 
L 81.425 -188.343303 
L 81.8125 -188.785245 
L 82.2 -188.371795 
L 82.5875 -188.114075 
L 82.975 -188.449625 
L 83.3625 -188.631953 
L 83.75 -188.535406 
L 84.1375 -188.15245 
L 84.525 -188.959662 
L 84.9125 -189.096785 
L 85.3 -189.216876 
L 85.6875 -189.036858 
L 86.075 -188.548482 
L 86.4625 -188.637614 
L 86.85 -189.053721 
L 87.2375 -188.882476 
L 87.625 -189.01487 
L 88.0125 -189.192836 
L 88.4 -189.257878 
L 88.7875 -189.184122 
L 89.175 -189.168142 
L 89.5625 -188.965987 
L 89.95 -189.335609 
L 90.3375 -188.963102 
L 90.725 -189.171958 
L 91.1125 -189.086306 
L 91.5 -189.168449 
L 91.8875 -189.22328 
L 92.275 -189.317022 
L 92.6625 -188.879859 
L 93.05 -189.419735 
L 93.4375 -189.00797 
L 93.825 -188.951166 
L 94.2125 -189.225441 
L 94.6 -189.247687 
L 94.9875 -189.329552 
L 95.375 -189.155036 
L 95.7625 -188.887343 
L 96.15 -188.574346 
L 96.5375 -188.575992 
L 96.925 -188.859853 
L 97.3125 -188.818901 
L 97.7 -188.557979 
L 98.0875 -188.446591 
L 98.475 -188.220149 
L 98.8625 -188.347378 
L 99.25 -188.194265 
L 99.6375 -188.46737 
L 100.025 -188.314207 
L 100.4125 -188.133783 
L 100.8 -188.154938 
L 101.1875 -188.012046 
L 101.575 -187.836726 
L 101.9625 -187.313832 
L 102.35 -187.291497 
L 102.7375 -187.26589 
L 103.125 -187.761691 
L 103.5125 -187.896217 
L 103.9 -187.892073 
L 104.2875 -187.869788 
L 104.675 -187.828716 
L 105.0625 -188.062981 
L 105.45 -188.515748 
L 105.8375 -188.273106 
L 106.225 -188.132653 
L 106.6125 -188.554708 
L 107 -188.359135 
L 107.3875 -188.507589 
L 107.775 -188.702705 
L 108.1625 -188.479752 
L 108.55 -188.461363 
L 108.9375 -188.586827 
L 109.325 -188.569419 
L 109.7125 -188.775262 
L 110.1 -188.667265 
L 110.4875 -188.483846 
L 110.875 -188.493393 
L 111.2625 -188.167538 
L 111.65 -187.912237 
L 112.0375 -187.979173 
L 112.425 -188.593776 
L 112.8125 -188.028264 
L 113.2 -188.128568 
L 113.5875 -187.857356 
L 113.975 -187.856375 
L 114.3625 -187.810386 
L 114.75 -188.189913 
L 115.1375 -188.487356 
L 115.525 -188.590971 
L 115.9125 -188.600537 
L 116.3 -188.444093 
L 116.6875 -188.606961 
L 117.075 -188.691493 
L 117.4625 -188.516561 
L 117.85 -188.527069 
L 118.2375 -188.388776 
L 118.625 -188.091423 
L 119.0125 -188.20165 
L 119.4 -188.116979 
L 119.7875 -187.851398 
L 120.175 -186.705057 
L 120.5625 -187.031755 
L 120.95 -186.838641 
L 121.3375 -186.658275 
L 121.725 -187.291358 
L 122.1125 -187.030803 
L 122.5 -187.361515 
L 122.8875 -187.055705 
L 123.275 -187.177472 
L 123.6625 -187.346516 
L 124.05 -187.0254 
L 124.4375 -186.940254 
L 124.825 -186.911762 
L 125.2125 -186.730971 
L 125.6 -187.124257 
L 125.9875 -187.549811 
L 126.375 -187.464298 
L 126.7625 -187.98974 
L 127.15 -187.923162 
L 127.5375 -187.979321 
L 127.925 -188.053008 
L 128.3125 -187.932619 
L 128.7 -187.805667 
L 129.0875 -187.902532 
L 129.475 -188.516283 
L 129.8625 -188.403181 
L 130.25 -188.340537 
L 130.6375 -188.289622 
L 131.025 -188.579957 
L 131.4125 -188.788149 
L 131.8 -188.525007 
L 132.1875 -188.723742 
L 132.575 -188.763217 
L 132.9625 -188.728946 
L 133.35 -188.47888 
L 133.7375 -188.92666 
L 134.125 -189.049359 
L 134.5125 -189.195473 
L 134.9 -189.247181 
L 135.2875 -189.020064 
L 135.675 -189.244346 
L 136.0625 -189.020748 
L 136.45 -188.880582 
L 136.8375 -188.984495 
L 137.225 -189.087793 
L 137.6125 -189.001873 
L 138 -189.017715 
L 138.3875 -189.02629 
L 138.775 -189.12476 
L 139.1625 -189.030801 
L 139.55 -189.057944 
L 139.9375 -189.05836 
L 140.325 -188.872542 
L 140.7125 -188.904067 
L 141.1 -188.933183 
L 141.4875 -188.955399 
L 141.875 -188.904979 
L 142.2625 -188.991682 
L 142.65 -189.035956 
L 143.0375 -189.154937 
L 143.425 -189.242324 
L 143.8125 -189.143735 
L 144.2 -189.331495 
L 144.5875 -189.372983 
L 144.975 -189.261259 
L 145.3625 -189.175815 
L 145.75 -189.297928 
L 146.1375 -189.331138 
L 146.525 -189.193114 
L 146.9125 -189.268466 
L 147.3 -189.304134 
L 147.6875 -189.328412 
L 148.075 -189.394684 
L 148.4625 -189.473267 
L 148.85 -189.606098 
L 149.2375 -189.516877 
L 149.625 -189.400562 
L 150.0125 -189.373598 
L 150.4 -189.547757 
L 150.7875 -189.381181 
L 151.175 -189.130609 
L 151.5625 -189.198001 
L 151.95 -189.281214 
L 152.3375 -189.349062 
L 152.725 -189.373855 
L 153.1125 -189.011331 
L 153.5 -189.536367 
L 153.8875 -189.323624 
L 154.275 -189.407254 
L 154.6625 -189.6196 
L 155.05 -189.508014 
L 155.4375 -189.352551 
L 155.825 -189.190586 
L 156.2125 -189.146223 
L 156.6 -189.572947 
L 156.9875 -189.611877 
L 157.375 -189.598791 
L 157.7625 -189.28747 
L 158.15 -189.345245 
L 158.5375 -189.639853 
L 158.925 -189.655863 
L 159.3125 -189.587242 
L 159.7 -189.505526 
L 160.0875 -189.49587 
L 160.475 -189.596293 
L 160.8625 -189.559554 
L 161.25 -189.650064 
L 161.6375 -189.524936 
L 162.025 -189.44325 
L 162.4125 -189.293408 
L 162.8 -189.381816 
L 163.1875 -189.498973 
L 163.575 -189.503038 
L 163.9625 -189.351828 
L 164.35 -189.428954 
L 164.7375 -189.543078 
L 165.125 -189.409147 
L 165.5125 -189.324149 
L 165.9 -189.222824 
L 166.2875 -189.416563 
L 166.675 -189.522845 
L 167.0625 -189.61957 
L 167.45 -189.481396 
L 167.8375 -189.582315 
L 168.225 -189.426417 
L 168.6125 -189.33435 
L 169 -189.344522 
L 169.3875 -189.323227 
L 169.775 -189.30232 
L 170.1625 -189.327827 
L 170.55 -189.402178 
L 170.9375 -189.369067 
L 171.325 -189.438075 
L 171.7125 -189.436082 
L 172.1 -189.331961 
L 172.4875 -189.392522 
L 172.875 -189.392364 
L 173.2625 -189.248659 
L 173.65 -189.270389 
L 174.0375 -189.181138 
L 174.425 -189.155859 
L 174.8125 -189.275762 
L 175.2 -189.19461 
L 175.5875 -189.157366 
L 175.975 -189.164464 
L 176.3625 -188.815372 
L 176.75 -189.030969 
L 177.1375 -188.994636 
L 177.525 -188.870659 
L 177.9125 -188.833493 
L 178.3 -188.961486 
L 178.6875 -188.804288 
L 179.075 -188.899894 
L 179.4625 -188.831114 
L 179.85 -188.724049 
L 180.2375 -189.07098 
L 180.625 -189.022057 
L 181.0125 -189.036194 
L 181.4 -188.914734 
L 181.7875 -189.131521 
L 182.175 -188.878798 
L 182.5625 -189.120626 
L 182.95 -189.039842 
L 183.3375 -189.056367 
L 183.725 -188.862024 
L 184.1125 -188.898377 
L 184.5 -189.017675 
L 184.8875 -188.893757 
L 185.275 -188.644216 
L 185.6625 -188.698423 
L 186.05 -188.7468 
L 186.4375 -188.710696 
L 186.825 -188.849028 
L 187.2125 -189.208004 
L 187.6 -189.043173 
L 187.9875 -188.775847 
L 188.375 -189.069136 
L 188.7625 -188.887076 
L 189.15 -188.649549 
L 189.5375 -188.913693 
L 189.925 -189.024268 
L 190.3125 -189.180494 
L 190.7 -189.21874 
L 191.0875 -189.044412 
L 191.475 -189.016396 
L 191.8625 -189.013194 
L 192.25 -189.114599 
L 192.6375 -189.05839 
L 193.025 -188.931656 
L 193.4125 -189.023703 
L 193.8 -188.952792 
L 194.1875 -188.841464 
L 194.575 -188.992346 
L 194.9625 -188.875427 
L 195.35 -188.830668 
L 195.7375 -188.962309 
L 196.125 -188.944425 
L 196.5125 -188.818128 
L 196.9 -189.032327 
L 197.2875 -188.772565 
L 197.675 -188.457407 
L 198.0625 -187.913952 
L 198.45 -188.359492 
L 198.8375 -188.633916 
L 199.225 -188.089846 
L 199.6125 -187.962766 
L 200 -188.077038 
L 200.3875 -188.360424 
L 200.775 -188.391156 
L 201.1625 -188.724594 
L 201.55 -188.563778 
L 201.9375 -188.390154 
L 202.325 -187.747515 
L 202.7125 -188.347685 
L 203.1 -188.577697 
L 203.4875 -188.67467 
L 203.875 -188.242464 
L 204.2625 -188.147037 
L 204.65 -188.064587 
L 205.0375 -188.107453 
L 205.425 -187.839244 
L 205.8125 -187.913546 
L 206.2 -187.825851 
L 206.5875 -187.792968 
L 206.975 -188.06538 
L 207.3625 -188.227088 
L 207.75 -188.250722 
L 208.1375 -187.896286 
L 208.525 -188.087239 
L 208.9125 -188.089995 
L 209.3 -187.780666 
L 209.6875 -187.938527 
L 210.075 -188.265265 
L 210.4625 -188.065519 
L 210.85 -188.168272 
L 211.2375 -187.565703 
L 211.625 -187.871275 
L 212.0125 -187.758539 
L 212.4 -187.444769 
L 212.7875 -187.841049 
L 213.175 -187.7515 
L 213.5625 -187.562263 
L 213.95 -187.340687 
L 214.3375 -187.691286 
L 214.725 -187.579512 
L 215.1125 -187.469156 
L 215.5 -187.35181 
L 215.8875 -187.632073 
L 216.275 -187.914289 
L 216.6625 -187.873515 
L 217.05 -187.558813 
L 217.4375 -187.838065 
L 217.825 -188.080191 
L 218.2125 -187.654408 
L 218.6 -188.010331 
L 218.9875 -187.970241 
L 219.375 -187.984209 
L 219.7625 -187.771882 
L 220.15 -187.993954 
L 220.5375 -187.696699 
L 220.925 -188.258286 
L 221.3125 -188.426219 
L 221.7 -188.43992 
L 222.0875 -187.863929 
L 222.475 -187.673779 
L 222.8625 -187.6107 
L 223.25 -187.852796 
L 223.6375 -187.467262 
L 224.025 -187.782549 
L 224.4125 -187.6622 
L 224.8 -187.802951 
L 225.1875 -187.491838 
L 225.575 -187.434112 
L 225.9625 -187.585569 
L 226.35 -187.608995 
L 226.7375 -187.73204 
L 227.125 -187.227377 
L 227.5125 -187.500938 
L 227.9 -187.603959 
L 228.2875 -187.789479 
L 228.675 -187.872672 
L 229.0625 -187.719688 
L 229.45 -187.894958 
L 229.8375 -187.600053 
L 230.225 -187.395548 
L 230.6125 -187.594234 
L 231 -187.743629 
L 231.3875 -187.919424 
L 231.775 -187.798807 
L 232.1625 -187.945794 
L 232.55 -187.72979 
L 232.9375 -187.959712 
L 233.325 -187.865108 
L 233.7125 -187.081133 
L 234.1 -186.770892 
L 234.4875 -187.090621 
L 234.875 -186.63596 
L 235.2625 -187.078368 
L 235.65 -187.245191 
L 236.0375 -187.054427 
L 236.425 -187.391652 
L 236.8125 -187.172288 
L 237.2 -187.244646 
L 237.5875 -187.279383 
L 237.975 -187.538173 
L 238.3625 -187.043343 
L 238.75 -187.52939 
L 239.1375 -187.465071 
L 239.525 -186.782679 
L 239.9125 -186.862116 
L 240.3 -187.083612 
L 240.6875 -186.456577 
L 241.075 -186.387906 
L 241.4625 -185.997951 
L 241.85 -186.254015 
L 242.2375 -185.928279 
L 242.625 -185.554562 
L 243.0125 -185.99692 
L 243.4 -185.40936 
L 243.7875 -185.724905 
L 244.175 -185.242566 
L 244.5625 -185.170208 
L 244.95 -185.880407 
L 245.3375 -184.878356 
L 245.725 -185.191978 
L 246.1125 -185.360635 
L 246.5 -185.412681 
L 246.8875 -185.940473 
L 247.275 -185.651734 
L 247.6625 -186.216027 
L 248.05 -185.991269 
L 248.4375 -185.596516 
L 248.825 -185.913022 
L 249.2125 -185.987462 
L 249.6 -185.773124 
L 249.9875 -186.004414 
L 250.375 -186.618949 
L 250.7625 -186.217831 
L 251.15 -186.234763 
L 251.5375 -185.985044 
L 251.925 -185.488558 
L 252.3125 -186.057709 
L 252.7 -186.675783 
L 253.0875 -186.838433 
L 253.475 -186.93498 
L 253.8625 -187.030565 
L 254.25 -187.051324 
L 254.6375 -186.805074 
L 255.025 -186.881328 
L 255.4125 -186.784107 
L 255.8 -186.776434 
L 256.1875 -186.839493 
L 256.575 -187.03689 
L 256.9625 -186.99797 
L 257.35 -187.064142 
L 257.7375 -187.168174 
L 258.125 -186.439684 
L 258.5125 -187.183817 
L 258.9 -186.800771 
L 259.2875 -186.615261 
L 259.675 -185.832951 
L 260.0625 -186.689899 
L 260.45 -186.797629 
L 260.8375 -187.589465 
L 261.225 -186.177027 
L 261.6125 -186.220884 
L 262 -187.242495 
L 262.3875 -186.926979 
L 262.775 -187.034104 
L 263.1625 -186.240929 
L 263.55 -186.855335 
L 263.9375 -186.565139 
L 264.325 -187.161809 
L 264.7125 -185.944389 
L 265.1 -185.40931 
L 265.4875 -186.479744 
L 265.875 -186.87878 
L 266.2625 -186.571087 
L 266.65 -186.573981 
L 267.0375 -186.756865 
L 267.425 -186.661983 
L 267.8125 -186.66125 
L 268.2 -186.178653 
L 268.5875 -187.282178 
L 268.975 -186.747427 
L 269.3625 -186.782709 
L 269.75 -186.230629 
L 270.1375 -186.888267 
L 270.525 -186.698881 
L 270.9125 -185.738546 
L 271.3 -186.222471 
L 271.6875 -186.397175 
L 272.075 -185.767899 
L 272.4625 -184.738477 
L 272.85 -185.121969 
L 273.2375 -186.252013 
L 273.625 -185.528192 
L 274.0125 -186.447744 
L 274.4 -186.540038 
L 274.7875 -186.947094 
L 275.175 -184.547168 
L 275.5625 -187.255501 
L 275.95 -185.796688 
L 276.3375 -185.562205 
L 276.725 -187.061287 
L 277.1125 -185.64992 
L 277.5 -185.353359 
L 277.8875 -185.286711 
L 278.275 -186.398246 
L 278.6625 -185.64753 
L 279.05 -186.466064 
L 279.4375 -185.405008 
L 279.825 -185.723626 
L 280.2125 -185.681335 
L 280.6 -186.531681 
L 280.9875 -186.959555 
L 281.375 -186.069476 
L 281.7625 -185.683645 
L 282.15 -187.038694 
L 282.5375 -186.861987 
L 282.925 -187.043512 
L 283.3125 -186.957027 
L 283.7 -186.105631 
L 284.0875 -186.811052 
L 284.475 -186.068545 
L 284.8625 -187.032458 
L 285.25 -186.251616 
L 285.6375 -186.566953 
L 286.025 -185.596377 
L 286.4125 -186.162385 
L 286.8 -186.553034 
L 287.1875 -186.045664 
L 287.575 -187.306397 
L 287.9625 -185.880308 
L 288.35 -187.138225 
L 288.7375 -187.825465 
L 289.125 -187.295472 
L 289.5125 -187.670835 
L 289.9 -184.765848 
L 290.2875 -187.569351 
L 290.675 -186.251547 
L 291.0625 -187.52133 
L 291.45 -187.247045 
L 291.8375 -186.705186 
L 292.225 -185.626335 
L 292.6125 -186.514987 
L 293 -187.543645 
L 293.3875 -185.922678 
L 293.775 -184.902585 
L 294.1625 -186.004851 
L 294.55 -185.280872 
L 294.9375 -186.19276 
L 295.325 -185.43456 
L 295.7125 -186.868302 
L 296.1 -186.113948 
L 296.4875 -185.982208 
L 296.875 -187.044186 
L 297.2625 -186.591023 
L 297.65 -186.781658 
L 298.0375 -186.511903 
L 298.425 -185.808049 
L 298.8125 -187.829975 
L 299.2 -186.318918 
L 299.5875 -186.26035 
L 299.975 -186.838512 
L 300.3625 -187.145036 
L 300.75 -187.278639 
L 301.1375 -187.740734 
L 301.525 -187.763337 
L 301.9125 -186.90291 
L 302.3 -185.170277 
L 302.6875 -187.706087 
L 303.075 -187.102428 
L 303.4625 -186.923192 
L 303.85 -187.384673 
L 304.2375 -186.918375 
L 304.625 -186.912783 
L 305.0125 -187.301737 
L 305.4 -186.899579 
L 305.7875 -187.159787 
L 306.175 -187.031318 
L 306.5625 -186.786149 
L 306.95 -186.668407 
L 307.3375 -187.542971 
L 307.725 -187.89586 
L 308.1125 -188.191598 
L 308.5 -187.525811 
L 308.8875 -187.632589 
L 309.275 -187.400237 
L 309.6625 -186.199838 
L 310.05 -186.889378 
L 310.4375 -187.14342 
L 310.825 -187.449656 
L 311.2125 -186.630538 
L 311.6 -187.254252 
L 311.9875 -186.678083 
L 312.375 -187.141853 
L 312.7625 -186.879494 
L 313.15 -187.291001 
L 313.5375 -187.108276 
L 313.925 -187.359543 
L 314.3125 -186.730198 
L 314.7 -187.219674 
L 315.0875 -186.216453 
L 315.475 -186.852946 
L 315.8625 -186.111926 
L 316.25 -187.022971 
L 316.6375 -184.874777 
L 317.025 -185.891163 
L 317.4125 -184.860383 
L 317.8 -186.661111 
L 318.1875 -185.470228 
L 318.575 -186.04733 
L 318.9625 -185.9282 
L 319.35 -186.147802 
L 319.7375 -186.157389 
L 320.125 -185.205311 
L 320.5125 -187.099563 
L 320.9 -186.482966 
L 321.2875 -186.070656 
L 321.675 -186.835865 
L 322.0625 -187.303205 
L 322.45 -186.259973 
L 322.8375 -185.280931 
L 323.225 -185.163744 
L 323.6125 -185.657702 
L 324 -185.908363 
L 324 -188.350838 
L 324 -188.350838 
L 323.6125 -188.049578 
L 323.225 -188.265522 
L 322.8375 -188.202899 
L 322.45 -188.143309 
L 322.0625 -188.47305 
L 321.675 -188.354208 
L 321.2875 -188.353028 
L 320.9 -188.354664 
L 320.5125 -188.322802 
L 320.125 -188.396172 
L 319.7375 -188.621237 
L 319.35 -188.314049 
L 318.9625 -188.561726 
L 318.575 -188.085237 
L 318.1875 -188.541433 
L 317.8 -188.598317 
L 317.4125 -188.305741 
L 317.025 -188.206765 
L 316.6375 -187.982226 
L 316.25 -188.258702 
L 315.8625 -188.943642 
L 315.475 -188.356102 
L 315.0875 -188.023971 
L 314.7 -188.638089 
L 314.3125 -188.540531 
L 313.925 -188.669862 
L 313.5375 -188.690224 
L 313.15 -188.849851 
L 312.7625 -188.52693 
L 312.375 -188.569687 
L 311.9875 -188.324904 
L 311.6 -188.425545 
L 311.2125 -188.601509 
L 310.825 -189.048595 
L 310.4375 -188.382838 
L 310.05 -188.834197 
L 309.6625 -188.304998 
L 309.275 -188.826802 
L 308.8875 -188.699136 
L 308.5 -188.463603 
L 308.1125 -189.055277 
L 307.725 -188.725318 
L 307.3375 -188.575555 
L 306.95 -188.651235 
L 306.5625 -188.201055 
L 306.175 -188.560447 
L 305.7875 -188.156306 
L 305.4 -188.691414 
L 305.0125 -188.465536 
L 304.625 -188.164177 
L 304.2375 -188.221338 
L 303.85 -188.28303 
L 303.4625 -188.601003 
L 303.075 -188.253953 
L 302.6875 -188.484729 
L 302.3 -188.170185 
L 301.9125 -188.2898 
L 301.525 -188.767708 
L 301.1375 -188.712748 
L 300.75 -188.36549 
L 300.3625 -188.52578 
L 299.975 -188.364072 
L 299.5875 -187.939786 
L 299.2 -188.77313 
L 298.8125 -188.571441 
L 298.425 -188.784561 
L 298.0375 -188.491737 
L 297.65 -188.702567 
L 297.2625 -188.247242 
L 296.875 -188.649212 
L 296.4875 -187.842744 
L 296.1 -187.81799 
L 295.7125 -188.422214 
L 295.325 -188.157287 
L 294.9375 -187.68168 
L 294.55 -187.54197 
L 294.1625 -187.820696 
L 293.775 -187.539779 
L 293.3875 -188.076929 
L 293 -188.811714 
L 292.6125 -188.316279 
L 292.225 -188.078347 
L 291.8375 -188.235425 
L 291.45 -188.606932 
L 291.0625 -188.518385 
L 290.675 -188.10197 
L 290.2875 -188.910263 
L 289.9 -187.696719 
L 289.5125 -188.563659 
L 289.125 -188.669793 
L 288.7375 -188.658055 
L 288.35 -188.345524 
L 287.9625 -187.787615 
L 287.575 -188.579124 
L 287.1875 -187.807799 
L 286.8 -188.493571 
L 286.4125 -187.975891 
L 286.025 -187.861242 
L 285.6375 -188.861618 
L 285.25 -188.246241 
L 284.8625 -188.405986 
L 284.475 -188.09977 
L 284.0875 -188.08368 
L 283.7 -188.377277 
L 283.3125 -188.413966 
L 282.925 -188.661049 
L 282.5375 -188.342976 
L 282.15 -188.826207 
L 281.7625 -187.468541 
L 281.375 -188.380915 
L 280.9875 -188.438661 
L 280.6 -188.27724 
L 280.2125 -188.102179 
L 279.825 -187.251783 
L 279.4375 -187.194345 
L 279.05 -188.229646 
L 278.6625 -187.603076 
L 278.275 -187.989374 
L 277.8875 -187.608122 
L 277.5 -187.352365 
L 277.1125 -187.937824 
L 276.725 -188.52463 
L 276.3375 -188.007694 
L 275.95 -187.727609 
L 275.5625 -188.381688 
L 275.175 -188.296333 
L 274.7875 -188.462185 
L 274.4 -188.418695 
L 274.0125 -188.309984 
L 273.625 -187.877699 
L 273.2375 -188.318272 
L 272.85 -187.660941 
L 272.4625 -187.372856 
L 272.075 -187.678399 
L 271.6875 -188.226245 
L 271.3 -188.138244 
L 270.9125 -187.629714 
L 270.525 -188.17422 
L 270.1375 -188.360335 
L 269.75 -188.394377 
L 269.3625 -188.354327 
L 268.975 -188.231946 
L 268.5875 -188.415543 
L 268.2 -187.959306 
L 267.8125 -187.974761 
L 267.425 -188.442477 
L 267.0375 -188.434616 
L 266.65 -188.208708 
L 266.2625 -188.238766 
L 265.875 -188.411994 
L 265.4875 -188.462988 
L 265.1 -187.90046 
L 264.7125 -188.243693 
L 264.325 -188.698968 
L 263.9375 -188.702418 
L 263.55 -188.244625 
L 263.1625 -188.111953 
L 262.775 -188.523262 
L 262.3875 -188.614248 
L 262 -188.554579 
L 261.6125 -188.581474 
L 261.225 -188.354317 
L 260.8375 -188.663527 
L 260.45 -188.560299 
L 260.0625 -188.671775 
L 259.675 -188.304076 
L 259.2875 -188.693555 
L 258.9 -188.740614 
L 258.5125 -188.66554 
L 258.125 -188.398026 
L 257.7375 -188.643611 
L 257.35 -188.582842 
L 256.9625 -188.613802 
L 256.575 -188.624112 
L 256.1875 -188.609539 
L 255.8 -188.533532 
L 255.4125 -188.389391 
L 255.025 -188.648955 
L 254.6375 -188.629623 
L 254.25 -188.743053 
L 253.8625 -188.425605 
L 253.475 -188.573573 
L 253.0875 -188.195167 
L 252.7 -188.384206 
L 252.3125 -188.303065 
L 251.925 -188.605306 
L 251.5375 -188.447087 
L 251.15 -188.315714 
L 250.7625 -188.351462 
L 250.375 -188.348369 
L 249.9875 -187.943464 
L 249.6 -188.192897 
L 249.2125 -188.074837 
L 248.825 -188.310371 
L 248.4375 -188.176212 
L 248.05 -188.312383 
L 247.6625 -188.311451 
L 247.275 -188.278241 
L 246.8875 -188.339863 
L 246.5 -188.02182 
L 246.1125 -188.234503 
L 245.725 -188.359839 
L 245.3375 -188.49488 
L 244.95 -188.17993 
L 244.5625 -188.434804 
L 244.175 -188.163483 
L 243.7875 -188.14892 
L 243.4 -187.841465 
L 243.0125 -188.244 
L 242.625 -188.126923 
L 242.2375 -188.138164 
L 241.85 -187.834833 
L 241.4625 -187.923816 
L 241.075 -188.091551 
L 240.6875 -188.096121 
L 240.3 -188.224788 
L 239.9125 -188.163949 
L 239.525 -188.26004 
L 239.1375 -188.49373 
L 238.75 -188.552675 
L 238.3625 -188.430155 
L 237.975 -188.485522 
L 237.5875 -188.232521 
L 237.2 -188.3219 
L 236.8125 -188.34366 
L 236.425 -188.298475 
L 236.0375 -188.130392 
L 235.65 -188.354882 
L 235.2625 -188.342411 
L 234.875 -188.464118 
L 234.4875 -188.29447 
L 234.1 -188.432921 
L 233.7125 -188.499906 
L 233.325 -188.622634 
L 232.9375 -188.722433 
L 232.55 -188.637524 
L 232.1625 -188.636484 
L 231.775 -188.588255 
L 231.3875 -188.748724 
L 231 -188.803119 
L 230.6125 -188.647339 
L 230.225 -188.57848 
L 229.8375 -188.746582 
L 229.45 -188.908845 
L 229.0625 -188.819069 
L 228.675 -188.839392 
L 228.2875 -188.690928 
L 227.9 -188.969972 
L 227.5125 -189.022771 
L 227.125 -188.918908 
L 226.7375 -188.983216 
L 226.35 -189.072536 
L 225.9625 -189.042667 
L 225.575 -188.81676 
L 225.1875 -188.742756 
L 224.8 -188.897851 
L 224.4125 -188.673867 
L 224.025 -188.855521 
L 223.6375 -188.695578 
L 223.25 -188.822688 
L 222.8625 -188.568576 
L 222.475 -188.851595 
L 222.0875 -188.946814 
L 221.7 -189.116255 
L 221.3125 -189.061394 
L 220.925 -189.099402 
L 220.5375 -188.831372 
L 220.15 -188.846014 
L 219.7625 -188.952514 
L 219.375 -189.021988 
L 218.9875 -188.868716 
L 218.6 -188.798886 
L 218.2125 -188.793721 
L 217.825 -188.86706 
L 217.4375 -188.605167 
L 217.05 -188.920722 
L 216.6625 -188.921208 
L 216.275 -188.894491 
L 215.8875 -188.830866 
L 215.5 -188.803198 
L 215.1125 -188.86251 
L 214.725 -189.107987 
L 214.3375 -189.089141 
L 213.95 -189.092135 
L 213.5625 -189.07664 
L 213.175 -189.189604 
L 212.7875 -189.015356 
L 212.4 -189.055307 
L 212.0125 -189.053037 
L 211.625 -189.060551 
L 211.2375 -189.037314 
L 210.85 -189.287936 
L 210.4625 -189.200985 
L 210.075 -189.233808 
L 209.6875 -189.299346 
L 209.3 -189.30914 
L 208.9125 -189.430075 
L 208.525 -189.291604 
L 208.1375 -189.287896 
L 207.75 -189.389201 
L 207.3625 -189.408037 
L 206.975 -189.360353 
L 206.5875 -189.46035 
L 206.2 -189.33787 
L 205.8125 -189.331228 
L 205.425 -189.272768 
L 205.0375 -189.222319 
L 204.65 -189.140929 
L 204.2625 -189.235454 
L 203.875 -189.348804 
L 203.4875 -189.401326 
L 203.1 -189.113657 
L 202.7125 -188.959206 
L 202.325 -189.005492 
L 201.9375 -189.143913 
L 201.55 -189.283256 
L 201.1625 -189.400731 
L 200.775 -189.184747 
L 200.3875 -189.272163 
L 200 -189.186273 
L 199.6125 -189.163086 
L 199.225 -189.463255 
L 198.8375 -189.371099 
L 198.45 -189.559792 
L 198.0625 -189.427418 
L 197.675 -189.35503 
L 197.2875 -189.380795 
L 196.9 -189.48216 
L 196.5125 -189.38024 
L 196.125 -189.450248 
L 195.7375 -189.410991 
L 195.35 -189.311629 
L 194.9625 -189.440097 
L 194.575 -189.438075 
L 194.1875 -189.337314 
L 193.8 -189.342489 
L 193.4125 -189.459676 
L 193.025 -189.341518 
L 192.6375 -189.400998 
L 192.25 -189.489506 
L 191.8625 -189.532897 
L 191.475 -189.584794 
L 191.0875 -189.471225 
L 190.7 -189.560397 
L 190.3125 -189.483092 
L 189.925 -189.466665 
L 189.5375 -189.363645 
L 189.15 -189.382193 
L 188.7625 -189.444092 
L 188.375 -189.548689 
L 187.9875 -189.427001 
L 187.6 -189.421926 
L 187.2125 -189.564213 
L 186.825 -189.309368 
L 186.4375 -189.3264 
L 186.05 -189.325389 
L 185.6625 -189.266443 
L 185.275 -189.298464 
L 184.8875 -189.44893 
L 184.5 -189.423611 
L 184.1125 -189.474725 
L 183.725 -189.406907 
L 183.3375 -189.595956 
L 182.95 -189.522111 
L 182.5625 -189.497278 
L 182.175 -189.432107 
L 181.7875 -189.522904 
L 181.4 -189.430669 
L 181.0125 -189.410129 
L 180.625 -189.445242 
L 180.2375 -189.454491 
L 179.85 -189.355654 
L 179.4625 -189.455582 
L 179.075 -189.499796 
L 178.6875 -189.47412 
L 178.3 -189.485431 
L 177.9125 -189.385434 
L 177.525 -189.409534 
L 177.1375 -189.537596 
L 176.75 -189.490279 
L 176.3625 -189.382659 
L 175.975 -189.601686 
L 175.5875 -189.604958 
L 175.2 -189.58068 
L 174.8125 -189.627689 
L 174.425 -189.556778 
L 174.0375 -189.585369 
L 173.65 -189.611847 
L 173.2625 -189.664686 
L 172.875 -189.684771 
L 172.4875 -189.735746 
L 172.1 -189.777313 
L 171.7125 -189.727141 
L 171.325 -189.750784 
L 170.9375 -189.68945 
L 170.55 -189.633598 
L 170.1625 -189.679398 
L 169.775 -189.658173 
L 169.3875 -189.70781 
L 169 -189.691591 
L 168.6125 -189.738085 
L 168.225 -189.725545 
L 167.8375 -189.785521 
L 167.45 -189.74668 
L 167.0625 -189.843574 
L 166.675 -189.698432 
L 166.2875 -189.702129 
L 165.9 -189.663397 
L 165.5125 -189.722947 
L 165.125 -189.75935 
L 164.7375 -189.745966 
L 164.35 -189.792996 
L 163.9625 -189.744975 
L 163.575 -189.792193 
L 163.1875 -189.803236 
L 162.8 -189.776946 
L 162.4125 -189.726625 
L 162.025 -189.750665 
L 161.6375 -189.759092 
L 161.25 -189.762106 
L 160.8625 -189.722135 
L 160.475 -189.733515 
L 160.0875 -189.729411 
L 159.7 -189.732187 
L 159.3125 -189.780753 
L 158.925 -189.814161 
L 158.5375 -189.802513 
L 158.15 -189.725862 
L 157.7625 -189.783697 
L 157.375 -189.822697 
L 156.9875 -189.807549 
L 156.6 -189.806349 
L 156.2125 -189.805566 
L 155.825 -189.826969 
L 155.4375 -189.86238 
L 155.05 -189.883853 
L 154.6625 -189.899655 
L 154.275 -189.899119 
L 153.8875 -189.868725 
L 153.5 -189.832104 
L 153.1125 -189.785491 
L 152.725 -189.841592 
L 152.3375 -189.795484 
L 151.95 -189.751032 
L 151.5625 -189.79249 
L 151.175 -189.737748 
L 150.7875 -189.798696 
L 150.4 -189.933628 
L 150.0125 -189.853389 
L 149.625 -189.900577 
L 149.2375 -189.822885 
L 148.85 -189.85437 
L 148.4625 -189.903214 
L 148.075 -189.811028 
L 147.6875 -189.891595 
L 147.3 -189.883615 
L 146.9125 -189.834841 
L 146.525 -189.846231 
L 146.1375 -189.84868 
L 145.75 -189.84402 
L 145.3625 -189.806904 
L 144.975 -189.834553 
L 144.5875 -189.867089 
L 144.2 -189.839658 
L 143.8125 -189.860318 
L 143.425 -189.850474 
L 143.0375 -189.875882 
L 142.65 -189.893627 
L 142.2625 -189.909132 
L 141.875 -189.891208 
L 141.4875 -189.853835 
L 141.1 -189.860407 
L 140.7125 -189.771553 
L 140.325 -189.765665 
L 139.9375 -189.828694 
L 139.55 -189.659353 
L 139.1625 -189.700454 
L 138.775 -189.699899 
L 138.3875 -189.743865 
L 138 -189.758566 
L 137.6125 -189.77649 
L 137.225 -189.789685 
L 136.8375 -189.854023 
L 136.45 -189.838756 
L 136.0625 -189.832481 
L 135.675 -189.88761 
L 135.2875 -189.821428 
L 134.9 -189.792461 
L 134.5125 -189.734665 
L 134.125 -189.746829 
L 133.7375 -189.690927 
L 133.35 -189.618866 
L 132.9625 -189.662753 
L 132.575 -189.737451 
L 132.1875 -189.705986 
L 131.8 -189.731651 
L 131.4125 -189.720449 
L 131.025 -189.621087 
L 130.6375 -189.465555 
L 130.25 -189.513258 
L 129.8625 -189.522468 
L 129.475 -189.549958 
L 129.0875 -189.390619 
L 128.7 -189.377067 
L 128.3125 -189.602499 
L 127.925 -189.558166 
L 127.5375 -189.467666 
L 127.15 -189.445847 
L 126.7625 -189.459012 
L 126.375 -189.333181 
L 125.9875 -189.245744 
L 125.6 -189.264946 
L 125.2125 -189.342985 
L 124.825 -189.386277 
L 124.4375 -189.472187 
L 124.05 -189.381984 
L 123.6625 -189.384919 
L 123.275 -189.278508 
L 122.8875 -189.201946 
L 122.5 -189.358341 
L 122.1125 -189.103129 
L 121.725 -188.981243 
L 121.3375 -189.017715 
L 120.95 -188.694973 
L 120.5625 -188.953278 
L 120.175 -188.74794 
L 119.7875 -189.098609 
L 119.4 -189.284109 
L 119.0125 -189.248569 
L 118.625 -189.209163 
L 118.2375 -189.296233 
L 117.85 -189.365151 
L 117.4625 -189.408116 
L 117.075 -189.32637 
L 116.6875 -189.406937 
L 116.3 -189.493174 
L 115.9125 -189.516698 
L 115.525 -189.543772 
L 115.1375 -189.541531 
L 114.75 -189.428816 
L 114.3625 -189.27946 
L 113.975 -189.353285 
L 113.5875 -189.328075 
L 113.2 -189.228505 
L 112.8125 -189.325835 
L 112.425 -189.490527 
L 112.0375 -189.520218 
L 111.65 -189.213337 
L 111.2625 -189.396508 
L 110.875 -189.443815 
L 110.4875 -189.356844 
L 110.1 -189.4375 
L 109.7125 -189.474001 
L 109.325 -189.359243 
L 108.9375 -189.401157 
L 108.55 -189.28394 
L 108.1625 -189.464554 
L 107.775 -189.390976 
L 107.3875 -189.442268 
L 107 -189.424493 
L 106.6125 -189.681727 
L 106.225 -189.373439 
L 105.8375 -189.293973 
L 105.45 -189.433158 
L 105.0625 -189.364339 
L 104.675 -189.19128 
L 104.2875 -189.180365 
L 103.9 -189.475508 
L 103.5125 -189.353473 
L 103.125 -189.272679 
L 102.7375 -189.123947 
L 102.35 -189.037195 
L 101.9625 -189.209877 
L 101.575 -188.965174 
L 101.1875 -189.286161 
L 100.8 -189.433177 
L 100.4125 -189.510383 
L 100.025 -189.379546 
L 99.6375 -189.305195 
L 99.25 -189.507162 
L 98.8625 -189.268 
L 98.475 -189.28749 
L 98.0875 -189.425663 
L 97.7 -189.468707 
L 97.3125 -189.522894 
L 96.925 -189.351045 
L 96.5375 -189.295827 
L 96.15 -189.352452 
L 95.7625 -189.56687 
L 95.375 -189.627114 
L 94.9875 -189.736162 
L 94.6 -189.685366 
L 94.2125 -189.763821 
L 93.825 -189.5383 
L 93.4375 -189.778324 
L 93.05 -189.91273 
L 92.6625 -189.642401 
L 92.275 -189.732157 
L 91.8875 -189.661038 
L 91.5 -189.604898 
L 91.1125 -189.590385 
L 90.725 -189.707482 
L 90.3375 -189.540322 
L 89.95 -189.70778 
L 89.5625 -189.483944 
L 89.175 -189.728648 
L 88.7875 -189.660205 
L 88.4 -189.625588 
L 88.0125 -189.665568 
L 87.625 -189.55892 
L 87.2375 -189.608219 
L 86.85 -189.608517 
L 86.4625 -189.531172 
L 86.075 -189.532451 
L 85.6875 -189.607535 
L 85.3 -189.710367 
L 84.9125 -189.578994 
L 84.525 -189.474982 
L 84.1375 -189.478155 
L 83.75 -189.242294 
L 83.3625 -189.376314 
L 82.975 -189.405003 
L 82.5875 -189.14428 
L 82.2 -188.980143 
L 81.8125 -189.350232 
L 81.425 -189.114331 
L 81.0375 -189.059857 
L 80.65 -189.301477 
L 80.2625 -189.347297 
L 79.875 -189.068373 
L 79.4875 -189.134386 
L 79.1 -189.306494 
L 78.7125 -189.181614 
L 78.325 -189.505486 
L 77.9375 -189.535593 
L 77.55 -189.519861 
L 77.1625 -189.422193 
L 76.775 -189.40649 
L 76.3875 -189.321959 
L 76 -189.340814 
L 75.6125 -189.291296 
L 75.225 -189.23584 
L 74.8375 -189.545497 
L 74.45 -189.416493 
L 74.0625 -189.446174 
L 73.675 -189.427804 
L 73.2875 -189.362554 
L 72.9 -189.347327 
L 72.5125 -189.402684 
L 72.125 -189.423819 
L 71.7375 -189.478046 
L 71.35 -189.52796 
L 70.9625 -189.461272 
L 70.575 -189.532778 
L 70.1875 -189.450774 
L 69.8 -189.288312 
L 69.4125 -189.331644 
L 69.025 -189.283514 
L 68.6375 -189.518691 
L 68.25 -189.275207 
L 67.8625 -189.469996 
L 67.475 -189.400344 
L 67.0875 -189.564194 
L 66.7 -189.392007 
L 66.3125 -189.262408 
L 65.925 -189.241323 
L 65.5375 -189.311649 
L 65.15 -189.452578 
L 64.7625 -189.372448 
L 64.375 -189.320224 
L 63.9875 -189.007395 
L 63.6 -189.223696 
L 63.2125 -189.181971 
L 62.825 -189.192588 
L 62.4375 -189.1466 
L 62.05 -189.138332 
L 61.6625 -189.140681 
L 61.275 -189.04229 
L 60.8875 -188.977645 
L 60.5 -189.138679 
L 60.1125 -189.283435 
L 59.725 -189.060501 
L 59.3375 -189.160419 
L 58.95 -189.233501 
L 58.5625 -189.281888 
L 58.175 -189.080001 
L 57.7875 -188.866594 
L 57.4 -188.955845 
L 57.0125 -189.299604 
L 56.625 -189.166892 
L 56.2375 -189.090608 
L 55.85 -189.360244 
L 55.4625 -189.067679 
L 55.075 -189.093404 
L 54.6875 -189.098519 
L 54.3 -189.245724 
L 53.9125 -189.374202 
L 53.525 -189.315317 
L 53.1375 -189.145182 
L 52.75 -189.33215 
L 52.3625 -189.305661 
L 51.975 -188.954546 
L 51.5875 -189.110891 
L 51.2 -189.00335 
L 50.8125 -189.205674 
L 50.425 -189.27025 
L 50.0375 -189.094792 
L 49.65 -189.10423 
L 49.2625 -188.842812 
L 48.875 -188.383611 
L 48.4875 -188.57738 
L 48.1 -188.820249 
L 47.7125 -188.774003 
L 47.325 -189.127477 
L 46.9375 -189.023475 
L 46.55 -188.868012 
L 46.1625 -188.848631 
L 45.775 -189.35272 
L 45.3875 -188.676296 
z
" style="stroke: #440154; stroke-opacity: 0.1"/>
    </defs>
    <g clip-path="url(#p6146ea69e4)">
     <use xlink:href="#m2e50a0e3ea" x="0" y="216" style="fill: #440154; fill-opacity: 0.1; stroke: #440154; stroke-opacity: 0.1"/>
    </g>
   </g>
   <g id="matplotlib.axis_1">
    <g id="xtick_1">
     <g id="line2d_1">
      <defs>
       <path id="md688da28c7" d="M 0 0 
L 0 3.5 
" style="stroke: #000000; stroke-width: 0.8"/>
      </defs>
      <g>
       <use xlink:href="#md688da28c7" x="45" y="192.24" style="stroke: #000000; stroke-width: 0.8"/>
      </g>
     </g>
     <g id="text_1">
      <text style="font: 6px 'sans-serif'; text-anchor: middle" x="45" y="203.799062" transform="rotate(-0, 45, 203.799062)">0</text>
     </g>
    </g>
    <g id="xtick_2">
     <g id="line2d_2">
      <g>
       <use xlink:href="#md688da28c7" x="83.75" y="192.24" style="stroke: #000000; stroke-width: 0.8"/>
      </g>
     </g>
     <g id="text_2">
      <text style="font: 6px 'sans-serif'; text-anchor: middle" x="83.75" y="203.799062" transform="rotate(-0, 83.75, 203.799062)">200</text>
     </g>
    </g>
    <g id="xtick_3">
     <g id="line2d_3">
      <g>
       <use xlink:href="#md688da28c7" x="122.5" y="192.24" style="stroke: #000000; stroke-width: 0.8"/>
      </g>
     </g>
     <g id="text_3">
      <text style="font: 6px 'sans-serif'; text-anchor: middle" x="122.5" y="203.799062" transform="rotate(-0, 122.5, 203.799062)">400</text>
     </g>
    </g>
    <g id="xtick_4">
     <g id="line2d_4">
      <g>
       <use xlink:href="#md688da28c7" x="161.25" y="192.24" style="stroke: #000000; stroke-width: 0.8"/>
      </g>
     </g>
     <g id="text_4">
      <text style="font: 6px 'sans-serif'; text-anchor: middle" x="161.25" y="203.799062" transform="rotate(-0, 161.25, 203.799062)">600</text>
     </g>
    </g>
    <g id="xtick_5">
     <g id="line2d_5">
      <g>
       <use xlink:href="#md688da28c7" x="200" y="192.24" style="stroke: #000000; stroke-width: 0.8"/>
      </g>
     </g>
     <g id="text_5">
      <text style="font: 6px 'sans-serif'; text-anchor: middle" x="200" y="203.799062" transform="rotate(-0, 200, 203.799062)">800</text>
     </g>
    </g>
    <g id="xtick_6">
     <g id="line2d_6">
      <g>
       <use xlink:href="#md688da28c7" x="238.75" y="192.24" style="stroke: #000000; stroke-width: 0.8"/>
      </g>
     </g>
     <g id="text_6">
      <text style="font: 6px 'sans-serif'; text-anchor: middle" x="238.75" y="203.799062" transform="rotate(-0, 238.75, 203.799062)">1000</text>
     </g>
    </g>
    <g id="xtick_7">
     <g id="line2d_7">
      <g>
       <use xlink:href="#md688da28c7" x="277.5" y="192.24" style="stroke: #000000; stroke-width: 0.8"/>
      </g>
     </g>
     <g id="text_7">
      <text style="font: 6px 'sans-serif'; text-anchor: middle" x="277.5" y="203.799062" transform="rotate(-0, 277.5, 203.799062)">1200</text>
     </g>
    </g>
    <g id="xtick_8">
     <g id="line2d_8">
      <g>
       <use xlink:href="#md688da28c7" x="316.25" y="192.24" style="stroke: #000000; stroke-width: 0.8"/>
      </g>
     </g>
     <g id="text_8">
      <text style="font: 6px 'sans-serif'; text-anchor: middle" x="316.25" y="203.799062" transform="rotate(-0, 316.25, 203.799062)">1400</text>
     </g>
    </g>
    <g id="text_9">
     <text style="font: 8px 'sans-serif'; text-anchor: middle" x="184.5" y="215.125625" transform="rotate(-0, 184.5, 215.125625)">Time (min)</text>
    </g>
   </g>
   <g id="matplotlib.axis_2">
    <g id="ytick_1">
     <g id="line2d_9">
      <defs>
       <path id="m08733bca2c" d="M 0 0 
L -3.5 0 
" style="stroke: #000000; stroke-width: 0.8"/>
      </defs>
      <g>
       <use xlink:href="#m08733bca2c" x="45" y="192.24" style="stroke: #000000; stroke-width: 0.8"/>
      </g>
     </g>
     <g id="text_10">
      <text style="font: 6px 'sans-serif'; text-anchor: end" x="38" y="194.519531" transform="rotate(-0, 38, 194.519531)">0.0</text>
     </g>
    </g>
    <g id="ytick_2">
     <g id="line2d_10">
      <g>
       <use xlink:href="#m08733bca2c" x="45" y="158.976" style="stroke: #000000; stroke-width: 0.8"/>
      </g>
     </g>
     <g id="text_11">
      <text style="font: 6px 'sans-serif'; text-anchor: end" x="38" y="161.255531" transform="rotate(-0, 38, 161.255531)">0.2</text>
     </g>
    </g>
    <g id="ytick_3">
     <g id="line2d_11">
      <g>
       <use xlink:href="#m08733bca2c" x="45" y="125.712" style="stroke: #000000; stroke-width: 0.8"/>
      </g>
     </g>
     <g id="text_12">
      <text style="font: 6px 'sans-serif'; text-anchor: end" x="38" y="127.991531" transform="rotate(-0, 38, 127.991531)">0.4</text>
     </g>
    </g>
    <g id="ytick_4">
     <g id="line2d_12">
      <g>
       <use xlink:href="#m08733bca2c" x="45" y="92.448" style="stroke: #000000; stroke-width: 0.8"/>
      </g>
     </g>
     <g id="text_13">
      <text style="font: 6px 'sans-serif'; text-anchor: end" x="38" y="94.727531" transform="rotate(-0, 38, 94.727531)">0.6</text>
     </g>
    </g>
    <g id="ytick_5">
     <g id="line2d_13">
      <g>
       <use xlink:href="#m08733bca2c" x="45" y="59.184" style="stroke: #000000; stroke-width: 0.8"/>
      </g>
     </g>
     <g id="text_14">
      <text style="font: 6px 'sans-serif'; text-anchor: end" x="38" y="61.463531" transform="rotate(-0, 38, 61.463531)">0.8</text>
     </g>
    </g>
    <g id="ytick_6">
     <g id="line2d_14">
      <g>
       <use xlink:href="#m08733bca2c" x="45" y="25.92" style="stroke: #000000; stroke-width: 0.8"/>
      </g>
     </g>
     <g id="text_15">
      <text style="font: 6px 'sans-serif'; text-anchor: end" x="38" y="28.199531" transform="rotate(-0, 38, 28.199531)">1.0</text>
     </g>
    </g>
    <g id="text_16">
     <text style="font: 8px 'sans-serif'; text-anchor: middle" x="22.794375" y="109.08" transform="rotate(-90, 22.794375, 109.08)">Cosine similarity φ</text>
    </g>
   </g>
   <g id="line2d_15">
    <path d="M 45.3875 28.548669 
L 45.775 28.107441 
L 46.1625 28.069611 
L 46.55 27.723662 
L 46.9375 27.630317 
L 47.325 27.682799 
L 47.7125 27.906952 
L 48.1 27.822301 
L 48.4875 28.28398 
L 48.875 29.198545 
L 49.2625 27.970229 
L 50.425 27.197724 
L 51.2 27.494909 
L 51.5875 27.19592 
L 51.975 27.44678 
L 52.3625 27.077077 
L 52.75 27.248501 
L 53.1375 27.27949 
L 53.525 26.975455 
L 53.9125 26.906269 
L 54.6875 27.165258 
L 55.85 27.640369 
L 56.2375 27.269081 
L 57.0125 27.438006 
L 57.7875 27.756922 
L 58.175 27.283426 
L 58.5625 27.332567 
L 58.95 27.205704 
L 59.3375 27.209015 
L 59.725 27.420816 
L 60.1125 27.242186 
L 61.275 27.600547 
L 61.6625 27.206716 
L 62.4375 27.21654 
L 62.825 27.115165 
L 63.6 27.108602 
L 63.9875 27.496575 
L 64.375 27.070297 
L 65.5375 27.087487 
L 65.925 27.095199 
L 67.0875 26.742449 
L 67.475 26.880652 
L 67.8625 26.74697 
L 68.25 26.919612 
L 68.6375 26.735886 
L 69.025 27.074222 
L 69.4125 27.10079 
L 69.8 27.013512 
L 70.1875 26.770236 
L 70.575 26.746256 
L 70.9625 26.865683 
L 71.7375 26.828835 
L 73.675 26.920604 
L 74.0625 26.846996 
L 74.45 26.980957 
L 74.8375 26.845569 
L 75.225 27.261616 
L 76 27.090451 
L 76.3875 27.136479 
L 77.55 26.954627 
L 77.9375 27.058589 
L 78.325 26.910026 
L 78.7125 27.147265 
L 79.1 27.04357 
L 79.4875 27.270925 
L 79.875 27.283267 
L 80.2625 27.093454 
L 80.65 27.191905 
L 81.0375 27.476312 
L 81.425 27.271183 
L 81.8125 26.932262 
L 82.2 27.324031 
L 82.5875 27.370823 
L 82.975 27.072686 
L 83.3625 26.995866 
L 84.1375 27.184698 
L 84.525 26.782678 
L 85.3 26.536378 
L 85.6875 26.677804 
L 86.075 26.959534 
L 86.4625 26.915607 
L 86.85 26.668881 
L 87.2375 26.754653 
L 89.175 26.551605 
L 89.5625 26.775035 
L 89.95 26.478305 
L 90.3375 26.748288 
L 90.725 26.56028 
L 91.1125 26.661655 
L 92.275 26.475411 
L 92.6625 26.73887 
L 93.05 26.333767 
L 93.825 26.755267 
L 94.2125 26.505369 
L 95.375 26.608925 
L 96.5375 27.064091 
L 97.3125 26.829103 
L 98.475 27.246181 
L 99.6375 27.113718 
L 101.1875 27.350897 
L 101.9625 27.738146 
L 102.35 27.835654 
L 102.7375 27.805081 
L 103.125 27.482815 
L 103.9 27.31621 
L 104.2875 27.474924 
L 104.675 27.490002 
L 105.45 27.025547 
L 105.8375 27.21646 
L 106.225 27.246954 
L 106.6125 26.881783 
L 107 27.108186 
L 107.775 26.953159 
L 108.55 27.127348 
L 108.9375 27.006008 
L 109.325 27.035669 
L 109.7125 26.875369 
L 111.2625 27.217977 
L 111.65 27.437213 
L 112.425 26.957848 
L 112.8125 27.322951 
L 113.975 27.39517 
L 114.3625 27.455077 
L 115.1375 26.985556 
L 115.9125 26.941382 
L 116.3 27.031367 
L 117.075 26.991068 
L 118.2375 27.157495 
L 118.625 27.349707 
L 119.4 27.299456 
L 119.7875 27.524997 
L 120.175 28.273501 
L 120.5625 28.007484 
L 120.95 28.233193 
L 121.3375 28.162005 
L 121.725 27.863699 
L 122.1125 27.933034 
L 122.5 27.640072 
L 122.8875 27.871174 
L 123.6625 27.634282 
L 124.05 27.796308 
L 124.825 27.85098 
L 125.2125 27.963022 
L 126.7625 27.275624 
L 127.5375 27.276506 
L 127.925 27.194413 
L 128.3125 27.232441 
L 128.7 27.408633 
L 129.0875 27.353425 
L 129.475 26.96688 
L 130.6375 27.122412 
L 131.4125 26.745701 
L 131.8 26.871671 
L 132.575 26.749666 
L 133.35 26.951127 
L 133.7375 26.691207 
L 134.9 26.480179 
L 135.2875 26.579254 
L 135.675 26.434022 
L 136.45 26.640331 
L 137.225 26.561261 
L 138.3875 26.614923 
L 139.9375 26.556473 
L 140.325 26.680897 
L 149.2375 26.330119 
L 150.0125 26.386507 
L 150.4 26.259307 
L 151.175 26.565821 
L 152.725 26.392276 
L 153.1125 26.601589 
L 153.5 26.315765 
L 153.8875 26.403826 
L 155.05 26.304067 
L 156.2125 26.524105 
L 156.6 26.310352 
L 157.375 26.289256 
L 157.7625 26.464417 
L 158.15 26.464446 
L 158.5375 26.278817 
L 159.3125 26.316002 
L 160.0875 26.387359 
L 161.25 26.293915 
L 162.4125 26.489983 
L 163.575 26.352385 
L 163.9625 26.451599 
L 164.7375 26.355478 
L 165.9 26.556889 
L 167.0625 26.268428 
L 167.45 26.385962 
L 167.8375 26.316082 
L 168.6125 26.463782 
L 170.9375 26.470741 
L 171.7125 26.418389 
L 175.975 26.616925 
L 176.3625 26.900985 
L 176.75 26.739376 
L 177.1375 26.733884 
L 177.9125 26.890536 
L 178.3 26.776541 
L 178.6875 26.860796 
L 179.075 26.800155 
L 179.85 26.960148 
L 180.2375 26.737264 
L 181.4 26.827298 
L 181.7875 26.672787 
L 182.175 26.844548 
L 182.5625 26.691048 
L 184.8875 26.828656 
L 185.275 27.02866 
L 186.825 26.920802 
L 187.2125 26.613892 
L 187.9875 26.898576 
L 188.375 26.691088 
L 189.15 26.984129 
L 190.3125 26.668207 
L 190.7 26.610432 
L 191.0875 26.742181 
L 192.25 26.697948 
L 193.025 26.863413 
L 193.4125 26.758311 
L 194.1875 26.910611 
L 194.575 26.784789 
L 195.35 26.928852 
L 196.125 26.802663 
L 196.5125 26.900816 
L 196.9 26.742756 
L 198.0625 27.329315 
L 198.45 27.040358 
L 198.8375 26.997492 
L 199.6125 27.437074 
L 200 27.368344 
L 200.3875 27.183706 
L 200.775 27.212049 
L 201.1625 26.937338 
L 201.9375 27.232966 
L 202.325 27.623497 
L 203.1 27.154323 
L 203.4875 26.962002 
L 203.875 27.204366 
L 204.65 27.397242 
L 205.0375 27.335114 
L 205.425 27.443994 
L 206.2 27.41814 
L 207.75 27.180038 
L 208.1375 27.407909 
L 208.9125 27.239965 
L 209.3 27.455097 
L 210.075 27.250464 
L 210.4625 27.366748 
L 210.85 27.271896 
L 211.2375 27.698492 
L 211.625 27.534087 
L 212.4 27.749962 
L 212.7875 27.571798 
L 213.175 27.529448 
L 213.95 27.783589 
L 214.3375 27.609786 
L 214.725 27.656251 
L 215.5 27.922496 
L 216.275 27.59561 
L 216.6625 27.602639 
L 217.05 27.760233 
L 217.4375 27.778384 
L 217.825 27.526375 
L 218.2125 27.775936 
L 218.6 27.595392 
L 220.15 27.580016 
L 220.5375 27.735965 
L 220.925 27.321156 
L 221.7 27.221913 
L 222.0875 27.594629 
L 222.8625 27.910362 
L 223.25 27.662258 
L 223.6375 27.91858 
L 224.025 27.680965 
L 224.4125 27.831966 
L 224.8 27.649599 
L 225.1875 27.882703 
L 225.575 27.874564 
L 225.9625 27.685882 
L 226.7375 27.642372 
L 227.125 27.926858 
L 227.5125 27.738146 
L 229.45 27.598098 
L 230.225 28.012986 
L 231.3875 27.665926 
L 231.775 27.806469 
L 232.1625 27.708861 
L 232.55 27.816343 
L 232.9375 27.658927 
L 233.325 27.756129 
L 233.7125 28.20948 
L 234.1 28.398093 
L 234.4875 28.307455 
L 234.875 28.449961 
L 235.65 28.199963 
L 236.0375 28.407591 
L 236.425 28.154936 
L 237.2 28.216727 
L 237.5875 28.244048 
L 237.975 27.988153 
L 238.3625 28.263251 
L 238.75 27.958968 
L 239.1375 28.020599 
L 239.525 28.47864 
L 239.9125 28.486967 
L 240.3 28.3458 
L 240.6875 28.723651 
L 241.075 28.760271 
L 241.4625 29.039117 
L 242.2375 28.966778 
L 242.625 29.159258 
L 243.0125 28.87954 
L 243.4 29.374588 
L 243.7875 29.063087 
L 244.175 29.296975 
L 244.5625 29.197494 
L 244.95 28.969832 
L 245.3375 29.313382 
L 246.1125 29.202431 
L 246.5 29.282749 
L 246.8875 28.859832 
L 247.275 29.035012 
L 247.6625 28.736261 
L 248.05 28.848174 
L 248.4375 29.113636 
L 248.825 28.888303 
L 249.9875 29.026061 
L 250.375 28.516341 
L 250.7625 28.715353 
L 251.5375 28.783935 
L 251.925 28.953068 
L 252.3125 28.819613 
L 252.7 28.470006 
L 253.0875 28.4832 
L 253.475 28.245724 
L 253.8625 28.271915 
L 254.25 28.102812 
L 254.6375 28.282651 
L 255.025 28.234859 
L 255.4125 28.413251 
L 257.7375 28.094108 
L 258.125 28.581145 
L 258.5125 28.075322 
L 259.2875 28.345592 
L 259.675 28.931486 
L 260.0625 28.319163 
L 260.45 28.321036 
L 260.8375 27.873504 
L 261.225 28.734328 
L 261.6125 28.598821 
L 262 28.101463 
L 262.3875 28.229386 
L 262.775 28.221317 
L 263.1625 28.823559 
L 263.55 28.45002 
L 263.9375 28.366222 
L 264.325 28.069611 
L 264.7125 28.905959 
L 265.1 29.345115 
L 265.4875 28.528634 
L 265.875 28.354613 
L 266.2625 28.595074 
L 266.65 28.608655 
L 267.0375 28.40426 
L 267.425 28.44777 
L 268.2 28.93102 
L 268.5875 28.15114 
L 268.975 28.510314 
L 269.3625 28.431482 
L 269.75 28.687497 
L 270.1375 28.375699 
L 270.525 28.56345 
L 270.9125 29.31587 
L 271.3 28.819643 
L 271.6875 28.68829 
L 272.4625 29.944333 
L 272.85 29.608545 
L 273.2375 28.714858 
L 273.625 29.297055 
L 274.0125 28.621136 
L 274.4 28.520634 
L 274.7875 28.29536 
L 275.175 29.578249 
L 275.5625 28.181405 
L 275.95 29.237851 
L 276.3375 29.215051 
L 276.725 28.207042 
L 277.1125 29.206128 
L 277.5 29.647138 
L 277.8875 29.552583 
L 278.275 28.80619 
L 278.6625 29.374697 
L 279.05 28.652145 
L 279.4375 29.700324 
L 279.825 29.512295 
L 280.9875 28.300892 
L 281.7625 29.423907 
L 282.15 28.067549 
L 282.5375 28.397518 
L 282.925 28.14772 
L 283.3125 28.314503 
L 283.7 28.758546 
L 284.0875 28.552634 
L 284.475 28.915843 
L 284.8625 28.280778 
L 285.25 28.751072 
L 285.6375 28.285715 
L 286.025 29.27119 
L 286.8 28.476697 
L 287.1875 29.073268 
L 287.575 28.05724 
L 287.9625 29.166038 
L 288.35 28.258126 
L 288.7375 27.75824 
L 289.125 28.017368 
L 289.5125 27.882753 
L 289.9 29.768716 
L 290.2875 27.760193 
L 290.675 28.823241 
L 291.0625 27.980143 
L 291.45 28.073012 
L 292.225 29.147659 
L 292.6125 28.584367 
L 293 27.822321 
L 293.3875 29.000196 
L 293.775 29.778818 
L 294.1625 29.087227 
L 294.55 29.588579 
L 294.9375 29.06278 
L 295.325 29.204076 
L 295.7125 28.354742 
L 296.1 29.034031 
L 296.4875 29.087524 
L 296.875 28.153301 
L 297.2625 28.580868 
L 297.65 28.257888 
L 298.425 28.703695 
L 298.8125 27.799292 
L 299.5875 28.899932 
L 299.975 28.398708 
L 300.3625 28.164592 
L 300.75 28.177936 
L 301.1375 27.773259 
L 301.525 27.734478 
L 301.9125 28.403645 
L 302.3 29.329769 
L 302.6875 27.904592 
L 303.075 28.32181 
L 303.85 28.166149 
L 304.2375 28.430144 
L 304.625 28.46152 
L 305.0125 28.116363 
L 305.7875 28.341954 
L 306.175 28.204117 
L 306.5625 28.506398 
L 306.95 28.340179 
L 307.725 27.689411 
L 308.1125 27.376563 
L 308.5 28.005293 
L 308.8875 27.834137 
L 309.275 27.88648 
L 309.6625 28.747582 
L 310.05 28.138213 
L 310.4375 28.236871 
L 310.825 27.750874 
L 311.2125 28.383977 
L 311.6 28.160101 
L 311.9875 28.498507 
L 312.375 28.14423 
L 312.7625 28.296788 
L 313.15 27.929574 
L 313.5375 28.10075 
L 313.925 27.985298 
L 314.3125 28.364636 
L 314.7 28.071118 
L 315.0875 28.879788 
L 315.475 28.395476 
L 315.8625 28.472216 
L 316.25 28.359163 
L 316.6375 29.571498 
L 317.025 28.951036 
L 317.4125 29.416938 
L 317.8 28.370286 
L 318.1875 28.994169 
L 318.575 28.933717 
L 318.9625 28.755037 
L 319.35 28.769074 
L 319.7375 28.610687 
L 320.125 29.199258 
L 320.5125 28.288818 
L 321.2875 28.788158 
L 322.0625 28.111872 
L 322.45 28.798359 
L 322.8375 29.258085 
L 323.225 29.285367 
L 323.6125 29.14636 
L 324 28.8704 
L 324 28.8704 
" clip-path="url(#p6146ea69e4)" style="fill: none; stroke: #440154; stroke-linecap: square"/>
   </g>
   <g id="patch_3">
    <path d="M 45 192.24 
L 45 25.92 
" style="fill: none; stroke: #000000; stroke-width: 0.8; stroke-linejoin: miter; stroke-linecap: square"/>
   </g>
   <g id="patch_4">
    <path d="M 324 192.24 
L 324 25.92 
" style="fill: none; stroke: #000000; stroke-width: 0.8; stroke-linejoin: miter; stroke-linecap: square"/>
   </g>
   <g id="patch_5">
    <path d="M 45 192.24 
L 324 192.24 
" style="fill: none; stroke: #000000; stroke-width: 0.8; stroke-linejoin: miter; stroke-linecap: square"/>
   </g>
   <g id="patch_6">
    <path d="M 45 25.92 
L 324 25.92 
" style="fill: none; stroke: #000000; stroke-width: 0.8; stroke-linejoin: miter; stroke-linecap: square"/>
   </g>
   <g id="text_17">
    <text style="font: 8px 'sans-serif'; text-anchor: middle" x="184.5" y="19.92" transform="rotate(-0, 184.5, 19.92)">Nodal-inh._Nodal-inh.</text>
   </g>
  </g>
 </g>
 <defs>
  <clipPath id="p6146ea69e4">
   <rect x="45" y="25.92" width="279" height="166.32"/>
  </clipPath>
 </defs>
</svg>
