<?xml version="1.0" encoding="utf-8" standalone="no"?>
<!DOCTYPE svg PUBLIC "-//W3C//DTD SVG 1.1//EN"
  "http://www.w3.org/Graphics/SVG/1.1/DTD/svg11.dtd">
<svg xmlns:xlink="http://www.w3.org/1999/xlink" width="360pt" height="216pt" viewBox="0 0 360 216" xmlns="http://www.w3.org/2000/svg" version="1.1">
 <metadata>
  <rdf:RDF xmlns:dc="http://purl.org/dc/elements/1.1/" xmlns:cc="http://creativecommons.org/ns#" xmlns:rdf="http://www.w3.org/1999/02/22-rdf-syntax-ns#">
   <cc:Work>
    <dc:type rdf:resource="http://purl.org/dc/dcmitype/StillImage"/>
    <dc:date>2023-05-16T18:35:21.123216</dc:date>
    <dc:format>image/svg+xml</dc:format>
    <dc:creator>
     <cc:Agent>
      <dc:title>Matplotlib v3.5.1, https://matplotlib.org/</dc:title>
     </cc:Agent>
    </dc:creator>
   </cc:Work>
  </rdf:RDF>
 </metadata>
 <defs>
  <style type="text/css">*{stroke-linejoin: round; stroke-linecap: butt}</style>
 </defs>
 <g id="figure_1">
  <g id="patch_1">
   <path d="M 0 216 
L 360 216 
L 360 0 
L 0 0 
z
" style="fill: #ffffff"/>
  </g>
  <g id="axes_1">
   <g id="patch_2">
    <path d="M 45 192.24 
L 324 192.24 
L 324 25.92 
L 45 25.92 
z
" style="fill: #ffffff"/>
   </g>
   <g id="PolyCollection_1">
    <defs>
     <path id="ma2b506b7ff" d="M 45.3875 -188.504476 
L 45.3875 -186.794803 
L 45.775 -186.87655 
L 46.1625 -187.284161 
L 46.55 -187.342521 
L 46.9375 -187.540126 
L 47.325 -187.631389 
L 47.7125 -187.066462 
L 48.1 -187.321951 
L 48.4875 -186.856525 
L 48.875 -185.934515 
L 49.2625 -187.389798 
L 49.65 -187.352167 
L 50.0375 -187.921675 
L 50.425 -187.830292 
L 50.8125 -187.718776 
L 51.2 -187.683881 
L 51.5875 -187.693546 
L 51.975 -186.802387 
L 52.3625 -187.208491 
L 52.75 -187.248264 
L 53.1375 -187.297207 
L 53.525 -187.689829 
L 53.9125 -188.250057 
L 54.3 -188.171216 
L 54.6875 -187.892717 
L 55.075 -187.795625 
L 55.4625 -187.478633 
L 55.85 -187.425963 
L 56.2375 -187.773915 
L 56.625 -187.70006 
L 57.0125 -187.477334 
L 57.4 -187.783223 
L 57.7875 -187.638547 
L 58.175 -188.043858 
L 58.5625 -187.610492 
L 58.95 -187.720035 
L 59.3375 -188.006722 
L 59.725 -187.721354 
L 60.1125 -187.578719 
L 60.5 -187.529063 
L 60.8875 -187.311671 
L 61.275 -187.086378 
L 61.6625 -188.110189 
L 62.05 -188.074748 
L 62.4375 -187.780874 
L 62.825 -187.991475 
L 63.2125 -187.763506 
L 63.6 -187.590228 
L 63.9875 -187.048003 
L 64.375 -187.508443 
L 64.7625 -187.7515 
L 65.15 -187.809098 
L 65.5375 -187.970459 
L 65.925 -188.0436 
L 66.3125 -188.255708 
L 66.7 -188.41125 
L 67.0875 -188.125971 
L 67.475 -188.169362 
L 67.8625 -188.364429 
L 68.25 -188.135498 
L 68.6375 -188.219554 
L 69.025 -187.998335 
L 69.4125 -187.82828 
L 69.8 -188.052225 
L 70.1875 -187.96227 
L 70.575 -187.918056 
L 70.9625 -187.972709 
L 71.35 -187.838491 
L 71.7375 -187.824959 
L 72.125 -187.895186 
L 72.5125 -188.007703 
L 72.9 -188.167508 
L 73.2875 -188.084324 
L 73.675 -188.139751 
L 74.0625 -187.926502 
L 74.45 -187.849475 
L 74.8375 -187.974275 
L 75.225 -187.760502 
L 75.6125 -187.714642 
L 76 -187.693001 
L 76.3875 -187.695063 
L 76.775 -187.818545 
L 77.1625 -187.504685 
L 77.55 -187.534624 
L 77.9375 -187.306248 
L 78.325 -187.937249 
L 78.7125 -187.787625 
L 79.1 -187.667246 
L 79.4875 -187.369089 
L 79.875 -187.691901 
L 80.2625 -187.781241 
L 80.65 -187.426359 
L 81.0375 -187.423841 
L 81.425 -187.452104 
L 81.8125 -187.871909 
L 82.2 -187.408247 
L 82.5875 -187.566625 
L 82.975 -187.7699 
L 83.3625 -187.423514 
L 83.75 -187.621208 
L 84.1375 -187.31743 
L 84.525 -187.360286 
L 84.9125 -187.326818 
L 85.3 -187.607012 
L 85.6875 -187.037762 
L 86.075 -186.965166 
L 86.4625 -187.487416 
L 86.85 -187.262222 
L 87.2375 -187.06088 
L 87.625 -186.695838 
L 88.0125 -186.851736 
L 88.4 -187.221518 
L 88.7875 -186.608193 
L 89.175 -186.857903 
L 89.5625 -186.687322 
L 89.95 -187.059651 
L 90.3375 -186.30047 
L 90.725 -186.386637 
L 91.1125 -186.501187 
L 91.5 -186.965116 
L 91.8875 -186.794179 
L 92.275 -186.755011 
L 92.6625 -186.316668 
L 93.05 -187.00828 
L 93.4375 -186.608817 
L 93.825 -186.41725 
L 94.2125 -186.475333 
L 94.6 -186.848733 
L 94.9875 -186.982386 
L 95.375 -186.590626 
L 95.7625 -185.660517 
L 96.15 -185.879574 
L 96.5375 -185.518329 
L 96.925 -186.024559 
L 97.3125 -185.744395 
L 97.7 -185.477426 
L 98.0875 -185.446278 
L 98.475 -184.924999 
L 98.8625 -185.579851 
L 99.25 -185.141737 
L 99.6375 -185.455725 
L 100.025 -186.234406 
L 100.4125 -186.228815 
L 100.8 -186.210931 
L 101.1875 -186.155634 
L 101.575 -186.360258 
L 101.9625 -185.563246 
L 102.35 -185.67282 
L 102.7375 -185.903377 
L 103.125 -186.169483 
L 103.5125 -186.434807 
L 103.9 -186.4757 
L 104.2875 -186.64521 
L 104.675 -186.494337 
L 105.0625 -186.460106 
L 105.45 -186.790997 
L 105.8375 -186.501881 
L 106.225 -186.6326 
L 106.6125 -186.816801 
L 107 -186.376605 
L 107.3875 -186.60509 
L 107.775 -186.620793 
L 108.1625 -186.498372 
L 108.55 -186.652575 
L 108.9375 -186.823354 
L 109.325 -186.879177 
L 109.7125 -186.983932 
L 110.1 -187.294461 
L 110.4875 -187.021375 
L 110.875 -187.143836 
L 111.2625 -186.646151 
L 111.65 -186.490679 
L 112.0375 -186.398504 
L 112.425 -187.133724 
L 112.8125 -186.813342 
L 113.2 -187.080717 
L 113.5875 -186.948452 
L 113.975 -186.741876 
L 114.3625 -186.611415 
L 114.75 -186.811032 
L 115.1375 -187.163365 
L 115.525 -187.418389 
L 115.9125 -187.692119 
L 116.3 -187.514797 
L 116.6875 -187.998494 
L 117.075 -187.914824 
L 117.4625 -187.813559 
L 117.85 -187.824057 
L 118.2375 -187.627513 
L 118.625 -187.791769 
L 119.0125 -187.804904 
L 119.4 -187.852766 
L 119.7875 -187.797191 
L 120.175 -187.111479 
L 120.5625 -187.466063 
L 120.95 -187.386101 
L 121.3375 -187.105669 
L 121.725 -187.688411 
L 122.1125 -187.676912 
L 122.5 -187.713641 
L 122.8875 -187.59926 
L 123.275 -187.600053 
L 123.6625 -187.851587 
L 124.05 -187.860747 
L 124.4375 -187.602016 
L 124.825 -187.779546 
L 125.2125 -187.596246 
L 125.6 -187.830283 
L 125.9875 -187.955797 
L 126.375 -187.915439 
L 126.7625 -188.113153 
L 127.15 -188.183152 
L 127.5375 -188.185868 
L 127.925 -188.205784 
L 128.3125 -188.267475 
L 128.7 -188.25783 
L 129.0875 -188.168083 
L 129.475 -188.620721 
L 129.8625 -188.563431 
L 130.25 -188.443657 
L 130.6375 -188.20398 
L 131.025 -188.549166 
L 131.4125 -188.405986 
L 131.8 -188.43415 
L 132.1875 -188.382134 
L 132.575 -188.439265 
L 132.9625 -188.349232 
L 133.35 -188.223361 
L 133.7375 -188.309697 
L 134.125 -188.782469 
L 134.5125 -188.796814 
L 134.9 -188.693674 
L 135.2875 -188.299744 
L 135.675 -188.51657 
L 136.0625 -188.311184 
L 136.45 -188.465169 
L 136.8375 -188.643968 
L 137.225 -188.543614 
L 137.6125 -188.74341 
L 138 -188.773993 
L 138.3875 -188.569865 
L 138.775 -188.794781 
L 139.1625 -188.502573 
L 139.55 -188.642798 
L 139.9375 -188.661743 
L 140.325 -188.420499 
L 140.7125 -188.506637 
L 141.1 -188.535079 
L 141.4875 -188.640746 
L 141.875 -188.446919 
L 142.2625 -188.226493 
L 142.65 -188.175151 
L 143.0375 -188.039992 
L 143.425 -188.320641 
L 143.8125 -188.244327 
L 144.2 -188.103725 
L 144.5875 -188.080091 
L 144.975 -187.961725 
L 145.3625 -188.034906 
L 145.75 -187.956619 
L 146.1375 -187.895761 
L 146.525 -187.530559 
L 146.9125 -187.638775 
L 147.3 -187.863037 
L 147.6875 -187.912068 
L 148.075 -187.527427 
L 148.4625 -187.712937 
L 148.85 -187.764398 
L 149.2375 -187.476462 
L 149.625 -187.794555 
L 150.0125 -187.532156 
L 150.4 -187.871106 
L 150.7875 -187.73441 
L 151.175 -187.863126 
L 151.5625 -187.81112 
L 151.95 -187.657818 
L 152.3375 -187.616003 
L 152.725 -187.630854 
L 153.1125 -187.669546 
L 153.5 -187.851834 
L 153.8875 -187.671092 
L 154.275 -187.999812 
L 154.6625 -188.012343 
L 155.05 -187.992605 
L 155.4375 -188.056894 
L 155.825 -187.888593 
L 156.2125 -188.190497 
L 156.6 -187.894502 
L 156.9875 -188.19026 
L 157.375 -188.1295 
L 157.7625 -188.304829 
L 158.15 -188.021384 
L 158.5375 -188.114164 
L 158.925 -188.191211 
L 159.3125 -188.029582 
L 159.7 -188.147671 
L 160.0875 -188.21317 
L 160.475 -188.232778 
L 160.8625 -188.109217 
L 161.25 -188.171543 
L 161.6375 -188.212218 
L 162.025 -188.073192 
L 162.4125 -187.884578 
L 162.8 -187.922716 
L 163.1875 -187.771159 
L 163.575 -187.632797 
L 163.9625 -187.372361 
L 164.35 -187.454355 
L 164.7375 -187.669943 
L 165.125 -187.752284 
L 165.5125 -187.589287 
L 165.9 -187.58891 
L 166.2875 -187.572761 
L 166.675 -187.380837 
L 167.0625 -187.75044 
L 167.45 -187.244616 
L 167.8375 -187.517583 
L 168.225 -187.376485 
L 168.6125 -187.681987 
L 169 -187.37134 
L 169.3875 -187.206776 
L 169.775 -186.823315 
L 170.1625 -186.741479 
L 170.55 -186.941126 
L 170.9375 -187.004235 
L 171.325 -187.137819 
L 171.7125 -186.725756 
L 172.1 -186.858428 
L 172.4875 -186.934999 
L 172.875 -187.079518 
L 173.2625 -186.998128 
L 173.65 -186.952417 
L 174.0375 -186.658137 
L 174.425 -186.76995 
L 174.8125 -186.555037 
L 175.2 -186.71161 
L 175.5875 -186.60396 
L 175.975 -186.50886 
L 176.3625 -186.320287 
L 176.75 -186.577441 
L 177.1375 -186.872168 
L 177.525 -186.398801 
L 177.9125 -186.273991 
L 178.3 -186.185999 
L 178.6875 -186.356768 
L 179.075 -186.604961 
L 179.4625 -186.611563 
L 179.85 -186.314309 
L 180.2375 -186.329903 
L 180.625 -186.465509 
L 181.0125 -186.174103 
L 181.4 -186.085199 
L 181.7875 -186.131188 
L 182.175 -186.253291 
L 182.5625 -186.355122 
L 182.95 -186.04267 
L 183.3375 -185.823306 
L 183.725 -185.832337 
L 184.1125 -185.673246 
L 184.5 -185.880318 
L 184.8875 -185.913171 
L 185.275 -185.498621 
L 185.6625 -185.675625 
L 186.05 -185.571851 
L 186.4375 -185.612417 
L 186.825 -185.563692 
L 187.2125 -185.98321 
L 187.6 -185.702709 
L 187.9875 -185.600025 
L 188.375 -185.683804 
L 188.7625 -185.904973 
L 189.15 -185.522502 
L 189.5375 -186.141775 
L 189.925 -186.487675 
L 190.3125 -186.419689 
L 190.7 -186.349244 
L 191.0875 -186.146296 
L 191.475 -186.268846 
L 191.8625 -186.308797 
L 192.25 -186.315806 
L 192.6375 -185.976577 
L 193.025 -186.264087 
L 193.4125 -186.327692 
L 193.8 -185.697306 
L 194.1875 -185.751275 
L 194.575 -185.60404 
L 194.9625 -185.714327 
L 195.35 -185.306924 
L 195.7375 -185.80218 
L 196.125 -185.541883 
L 196.5125 -185.611049 
L 196.9 -185.668805 
L 197.2875 -185.447348 
L 197.675 -185.643585 
L 198.0625 -185.52046 
L 198.45 -185.84921 
L 198.8375 -186.091177 
L 199.225 -185.985619 
L 199.6125 -185.460285 
L 200 -185.409241 
L 200.3875 -185.52841 
L 200.775 -185.619188 
L 201.1625 -185.792247 
L 201.55 -185.551152 
L 201.9375 -185.306954 
L 202.325 -184.913717 
L 202.7125 -185.014309 
L 203.1 -185.268728 
L 203.4875 -185.772152 
L 203.875 -185.766472 
L 204.2625 -185.397028 
L 204.65 -185.434837 
L 205.0375 -185.349195 
L 205.425 -185.053616 
L 205.8125 -185.512331 
L 206.2 -185.167472 
L 206.5875 -185.411313 
L 206.975 -184.623174 
L 207.3625 -184.772986 
L 207.75 -184.994225 
L 208.1375 -184.936974 
L 208.525 -185.34863 
L 208.9125 -184.964504 
L 209.3 -183.96283 
L 209.6875 -183.919052 
L 210.075 -184.213898 
L 210.4625 -184.182224 
L 210.85 -184.380711 
L 211.2375 -183.723519 
L 211.625 -184.367744 
L 212.0125 -183.301216 
L 212.4 -182.787968 
L 212.7875 -183.254792 
L 213.175 -183.757175 
L 213.5625 -183.652856 
L 213.95 -183.793687 
L 214.3375 -183.961035 
L 214.725 -183.552899 
L 215.1125 -182.993087 
L 215.5 -182.733741 
L 215.8875 -182.504086 
L 216.275 -183.088067 
L 216.6625 -182.393789 
L 217.05 -182.603171 
L 217.4375 -182.180769 
L 217.825 -182.635618 
L 218.2125 -183.034565 
L 218.6 -182.419802 
L 218.9875 -182.372684 
L 219.375 -182.086225 
L 219.7625 -182.47844 
L 220.15 -182.529227 
L 220.5375 -182.010446 
L 220.925 -182.76247 
L 221.3125 -182.177656 
L 221.7 -181.360759 
L 222.0875 -181.277506 
L 222.475 -181.638216 
L 222.8625 -180.823044 
L 223.25 -180.336145 
L 223.6375 -180.174139 
L 224.025 -179.99996 
L 224.4125 -179.90836 
L 224.8 -180.156612 
L 225.1875 -179.659017 
L 225.575 -179.106977 
L 225.9625 -179.088568 
L 226.35 -179.208302 
L 226.7375 -178.77217 
L 227.125 -178.733141 
L 227.5125 -178.303433 
L 227.9 -177.97269 
L 228.2875 -178.135459 
L 228.675 -178.308617 
L 229.0625 -177.145404 
L 229.45 -176.991587 
L 229.8375 -176.778824 
L 230.225 -176.724072 
L 230.6125 -176.486625 
L 231 -176.588664 
L 231.3875 -175.844432 
L 231.775 -175.288923 
L 232.1625 -175.181292 
L 232.55 -174.809935 
L 232.9375 -174.761686 
L 233.325 -174.48404 
L 233.7125 -174.409917 
L 234.1 -173.68691 
L 234.4875 -173.559443 
L 234.875 -172.865621 
L 235.2625 -173.547349 
L 235.65 -173.01919 
L 236.0375 -172.572391 
L 236.425 -172.383282 
L 236.8125 -171.977902 
L 237.2 -171.607644 
L 237.5875 -172.381488 
L 237.975 -171.977356 
L 238.3625 -170.332964 
L 238.75 -171.042271 
L 239.1375 -170.995777 
L 239.525 -170.711737 
L 239.9125 -172.614028 
L 240.3 -170.876528 
L 240.6875 -170.538697 
L 241.075 -171.031981 
L 241.4625 -171.492926 
L 241.85 -171.985386 
L 242.2375 -172.226491 
L 242.625 -170.455177 
L 243.0125 -170.627106 
L 243.4 -169.628465 
L 243.7875 -170.034212 
L 244.175 -170.17994 
L 244.5625 -169.53859 
L 244.95 -171.442358 
L 245.3375 -170.946328 
L 245.725 -170.171018 
L 246.1125 -169.768145 
L 246.5 -169.276052 
L 246.8875 -170.339318 
L 247.275 -169.950434 
L 247.6625 -170.218682 
L 248.05 -171.292238 
L 248.4375 -171.258761 
L 248.825 -170.983801 
L 249.2125 -170.584498 
L 249.6 -170.314406 
L 249.9875 -171.936563 
L 250.375 -172.503007 
L 250.7625 -171.228594 
L 251.15 -170.71252 
L 251.5375 -171.442209 
L 251.925 -170.765884 
L 252.3125 -170.779356 
L 252.7 -171.103803 
L 253.0875 -171.982422 
L 253.475 -172.43275 
L 253.8625 -172.976998 
L 254.25 -172.112239 
L 254.6375 -171.960722 
L 255.025 -172.670435 
L 255.4125 -172.632675 
L 255.8 -170.999236 
L 256.1875 -170.260397 
L 256.575 -169.981354 
L 256.9625 -170.783589 
L 257.35 -170.889891 
L 257.7375 -170.958809 
L 258.125 -171.142773 
L 258.5125 -172.04342 
L 258.9 -170.313851 
L 259.2875 -171.915487 
L 259.675 -171.855471 
L 260.0625 -172.329432 
L 260.45 -171.677713 
L 260.8375 -170.590475 
L 261.225 -172.460171 
L 261.6125 -170.408296 
L 262 -172.775408 
L 262.3875 -170.336315 
L 262.775 -172.212067 
L 263.1625 -169.577351 
L 263.55 -169.847264 
L 263.9375 -171.376671 
L 264.325 -171.73064 
L 264.7125 -170.242999 
L 265.1 -172.008802 
L 265.4875 -172.211234 
L 265.875 -173.388664 
L 266.2625 -173.208021 
L 266.65 -174.478637 
L 267.0375 -173.596787 
L 267.425 -176.401211 
L 267.8125 -175.578356 
L 268.2 -173.644887 
L 268.5875 -174.504581 
L 268.975 -173.943034 
L 269.3625 -175.187478 
L 269.75 -175.814851 
L 270.1375 -175.440559 
L 270.525 -176.334593 
L 270.9125 -175.465541 
L 271.3 -175.950546 
L 271.6875 -174.932396 
L 272.075 -174.511798 
L 272.4625 -171.78569 
L 272.85 -176.185851 
L 273.2375 -174.199851 
L 273.625 -174.261305 
L 274.0125 -175.054361 
L 274.4 -176.491245 
L 274.7875 -175.897281 
L 275.175 -177.414207 
L 275.5625 -177.256047 
L 275.95 -175.646421 
L 276.3375 -175.198314 
L 276.725 -175.941654 
L 277.1125 -175.670174 
L 277.5 -174.962552 
L 277.8875 -174.769954 
L 278.275 -176.319039 
L 278.6625 -176.596486 
L 279.05 -176.842449 
L 279.4375 -175.686323 
L 279.825 -175.648047 
L 280.2125 -177.056837 
L 280.6 -178.528973 
L 280.9875 -176.818795 
L 281.375 -178.913565 
L 281.7625 -177.018571 
L 282.15 -179.58541 
L 282.5375 -175.664454 
L 282.925 -177.305912 
L 283.3125 -178.749072 
L 283.7 -177.939817 
L 284.0875 -177.293213 
L 284.475 -178.879929 
L 284.8625 -179.299526 
L 285.25 -177.567022 
L 285.6375 -179.706512 
L 286.025 -176.210903 
L 286.4125 -180.127159 
L 286.8 -181.378712 
L 287.1875 -179.960465 
L 287.575 -177.437573 
L 287.9625 -180.084294 
L 288.35 -180.460529 
L 288.7375 -180.102594 
L 289.125 -180.721689 
L 289.5125 -180.859941 
L 289.9 -178.64621 
L 290.2875 -180.949242 
L 290.675 -178.013435 
L 291.0625 -181.663555 
L 291.45 -179.347368 
L 291.8375 -179.931448 
L 292.225 -180.478363 
L 292.6125 -180.621811 
L 293 -179.650323 
L 293.3875 -179.337633 
L 293.775 -179.077336 
L 294.1625 -180.578558 
L 294.55 -178.236101 
L 294.9375 -181.570616 
L 295.325 -177.581724 
L 295.7125 -177.695471 
L 296.1 -177.778902 
L 296.4875 -179.138779 
L 296.875 -179.354853 
L 297.2625 -178.607716 
L 297.65 -181.426128 
L 298.0375 -179.270578 
L 298.425 -180.373171 
L 298.8125 -182.699163 
L 299.2 -178.822164 
L 299.5875 -180.642391 
L 299.975 -178.218355 
L 300.3625 -181.801451 
L 300.75 -182.462281 
L 301.1375 -182.474415 
L 301.525 -182.452626 
L 301.9125 -181.245872 
L 302.3 -176.481708 
L 302.6875 -181.132125 
L 303.075 -181.631386 
L 303.4625 -178.861381 
L 303.85 -181.122549 
L 304.2375 -181.861804 
L 304.625 -182.067974 
L 305.0125 -179.999167 
L 305.4 -179.825285 
L 305.7875 -182.580122 
L 306.175 -180.883208 
L 306.5625 -181.792806 
L 306.95 -181.223834 
L 307.3375 -181.53476 
L 307.725 -180.913851 
L 308.1125 -182.275799 
L 308.5 -179.385911 
L 308.8875 -182.471045 
L 309.275 -180.771444 
L 309.6625 -179.423632 
L 310.05 -180.736301 
L 310.4375 -182.780394 
L 310.825 -181.424463 
L 311.2125 -180.598058 
L 311.6 -179.469016 
L 311.9875 -179.876092 
L 312.375 -179.910521 
L 312.7625 -181.720002 
L 313.15 -180.606286 
L 313.5375 -179.802177 
L 313.925 -181.56105 
L 314.3125 -178.332429 
L 314.7 -178.965086 
L 315.0875 -183.141322 
L 315.475 -179.827536 
L 315.8625 -181.640358 
L 316.25 -180.653415 
L 316.6375 -176.707428 
L 317.025 -180.327867 
L 317.4125 -180.334638 
L 317.8 -181.656407 
L 318.1875 -180.019192 
L 318.575 -179.763058 
L 318.9625 -178.390046 
L 319.35 -180.266235 
L 319.7375 -179.739415 
L 320.125 -179.888503 
L 320.5125 -180.363972 
L 320.9 -181.340773 
L 321.2875 -180.005512 
L 321.675 -179.414105 
L 322.0625 -181.927699 
L 322.45 -181.957112 
L 322.8375 -179.683572 
L 323.225 -180.088438 
L 323.6125 -177.568539 
L 324 -177.282169 
L 324 -181.265669 
L 324 -181.265669 
L 323.6125 -181.747433 
L 323.225 -183.625138 
L 322.8375 -182.751308 
L 322.45 -185.196647 
L 322.0625 -183.942864 
L 321.675 -183.199792 
L 321.2875 -182.447213 
L 320.9 -183.913907 
L 320.5125 -183.745646 
L 320.125 -183.151256 
L 319.7375 -183.997775 
L 319.35 -184.572378 
L 318.9625 -181.683253 
L 318.575 -183.350199 
L 318.1875 -183.100885 
L 317.8 -183.69136 
L 317.4125 -182.871191 
L 317.025 -184.517903 
L 316.6375 -180.7651 
L 316.25 -183.518499 
L 315.8625 -183.564299 
L 315.475 -182.853614 
L 315.0875 -184.844611 
L 314.7 -181.696616 
L 314.3125 -182.315334 
L 313.925 -183.572329 
L 313.5375 -182.862477 
L 313.15 -182.75786 
L 312.7625 -184.235182 
L 312.375 -182.921056 
L 311.9875 -183.386641 
L 311.6 -182.977483 
L 311.2125 -182.279755 
L 310.825 -183.814495 
L 310.4375 -185.561868 
L 310.05 -183.871111 
L 309.6625 -183.424956 
L 309.275 -183.971544 
L 308.8875 -184.91346 
L 308.5 -181.782427 
L 308.1125 -184.385519 
L 307.725 -182.658538 
L 307.3375 -183.653461 
L 306.95 -183.467068 
L 306.5625 -184.318712 
L 306.175 -183.747936 
L 305.7875 -184.96843 
L 305.4 -181.986634 
L 305.0125 -182.575612 
L 304.625 -183.867899 
L 304.2375 -184.574222 
L 303.85 -183.179271 
L 303.4625 -181.343509 
L 303.075 -184.103799 
L 302.6875 -183.04649 
L 302.3 -182.68007 
L 301.9125 -183.884395 
L 301.525 -184.271842 
L 301.1375 -184.011257 
L 300.75 -183.796254 
L 300.3625 -184.138962 
L 299.975 -181.406321 
L 299.5875 -182.853248 
L 299.2 -182.904064 
L 298.8125 -184.456103 
L 298.425 -182.706717 
L 298.0375 -181.805268 
L 297.65 -182.770272 
L 297.2625 -182.257648 
L 296.875 -182.656942 
L 296.4875 -183.389287 
L 296.1 -182.280379 
L 295.7125 -180.688935 
L 295.325 -183.337668 
L 294.9375 -182.997716 
L 294.55 -182.057773 
L 294.1625 -182.946047 
L 293.775 -183.247089 
L 293.3875 -182.853495 
L 293 -182.627826 
L 292.6125 -182.824221 
L 292.225 -183.925704 
L 291.8375 -182.957428 
L 291.45 -181.106509 
L 291.0625 -183.41538 
L 290.675 -181.320441 
L 290.2875 -183.545811 
L 289.9 -182.971485 
L 289.5125 -184.318504 
L 289.125 -183.127186 
L 288.7375 -182.74986 
L 288.35 -183.662492 
L 287.9625 -183.812106 
L 287.575 -179.708287 
L 287.1875 -183.432391 
L 286.8 -183.639532 
L 286.4125 -183.583383 
L 286.025 -181.332922 
L 285.6375 -183.573767 
L 285.25 -181.725296 
L 284.8625 -183.134661 
L 284.475 -182.100014 
L 284.0875 -181.668769 
L 283.7 -182.770857 
L 283.3125 -183.182999 
L 282.925 -180.083263 
L 282.5375 -180.590226 
L 282.15 -182.718851 
L 281.7625 -180.810265 
L 281.375 -183.333039 
L 280.9875 -180.402922 
L 280.6 -181.652918 
L 280.2125 -182.776954 
L 279.825 -180.496316 
L 279.4375 -181.346701 
L 279.05 -181.234898 
L 278.6625 -182.225062 
L 278.275 -181.838626 
L 277.8875 -181.672765 
L 277.5 -180.703428 
L 277.1125 -180.734834 
L 276.725 -179.88663 
L 276.3375 -180.04696 
L 275.95 -181.649884 
L 275.5625 -181.62522 
L 275.175 -182.002862 
L 274.7875 -180.874802 
L 274.4 -182.439748 
L 274.0125 -180.29433 
L 273.625 -179.582743 
L 273.2375 -180.710645 
L 272.85 -182.200457 
L 272.4625 -180.344839 
L 272.075 -181.659986 
L 271.6875 -180.702655 
L 271.3 -181.635629 
L 270.9125 -181.151119 
L 270.525 -182.067756 
L 270.1375 -181.730302 
L 269.75 -182.209498 
L 269.3625 -181.268187 
L 268.975 -180.537873 
L 268.5875 -180.351491 
L 268.2 -179.095358 
L 267.8125 -181.671714 
L 267.425 -182.493637 
L 267.0375 -180.388171 
L 266.65 -181.566592 
L 266.2625 -181.654177 
L 265.875 -180.752807 
L 265.4875 -180.317795 
L 265.1 -181.68472 
L 264.7125 -179.233383 
L 264.325 -179.356855 
L 263.9375 -180.7284 
L 263.55 -180.052561 
L 263.1625 -179.956569 
L 262.775 -179.829875 
L 262.3875 -179.681064 
L 262 -181.000177 
L 261.6125 -181.307613 
L 261.225 -181.510888 
L 260.8375 -179.472148 
L 260.45 -181.341933 
L 260.0625 -181.409295 
L 259.675 -181.49915 
L 259.2875 -181.589303 
L 258.9 -180.266711 
L 258.5125 -180.454363 
L 258.125 -181.792529 
L 257.7375 -179.938923 
L 257.35 -179.663924 
L 256.9625 -180.27597 
L 256.575 -179.402596 
L 256.1875 -180.565859 
L 255.8 -181.169201 
L 255.4125 -182.009921 
L 255.025 -181.543404 
L 254.6375 -181.996478 
L 254.25 -181.183219 
L 253.8625 -181.996944 
L 253.475 -182.038263 
L 253.0875 -182.124094 
L 252.7 -181.427665 
L 252.3125 -181.33543 
L 251.925 -181.371009 
L 251.5375 -182.154955 
L 251.15 -182.270367 
L 250.7625 -181.955377 
L 250.375 -182.456978 
L 249.9875 -182.816251 
L 249.6 -182.414439 
L 249.2125 -182.101402 
L 248.825 -182.588618 
L 248.4375 -183.340295 
L 248.05 -182.898126 
L 247.6625 -181.772028 
L 247.275 -182.149324 
L 246.8875 -181.761827 
L 246.5 -182.141819 
L 246.1125 -182.266441 
L 245.725 -182.388486 
L 245.3375 -182.888857 
L 244.95 -183.07866 
L 244.5625 -182.221751 
L 244.175 -182.754728 
L 243.7875 -182.404724 
L 243.4 -182.711198 
L 243.0125 -182.441374 
L 242.625 -182.882691 
L 242.2375 -183.202558 
L 241.85 -182.966271 
L 241.4625 -183.224357 
L 241.075 -182.739897 
L 240.6875 -181.807131 
L 240.3 -181.301605 
L 239.9125 -182.809034 
L 239.525 -182.203203 
L 239.1375 -181.383381 
L 238.75 -180.61729 
L 238.3625 -180.975859 
L 237.975 -181.692532 
L 237.5875 -181.684046 
L 237.2 -181.398043 
L 236.8125 -181.774645 
L 236.425 -181.576317 
L 236.0375 -182.39826 
L 235.65 -181.707769 
L 235.2625 -182.233985 
L 234.875 -181.79579 
L 234.4875 -182.263011 
L 234.1 -182.010734 
L 233.7125 -182.314125 
L 233.325 -181.862716 
L 232.9375 -181.905473 
L 232.55 -182.624802 
L 232.1625 -182.783021 
L 231.775 -182.731005 
L 231.3875 -183.157699 
L 231 -183.725056 
L 230.6125 -184.085459 
L 230.225 -184.460267 
L 229.8375 -183.898125 
L 229.45 -183.958914 
L 229.0625 -184.252392 
L 228.675 -184.511222 
L 228.2875 -184.763668 
L 227.9 -184.916662 
L 227.5125 -184.817458 
L 227.125 -185.369676 
L 226.7375 -184.932047 
L 226.35 -185.598667 
L 225.9625 -185.381662 
L 225.575 -185.379055 
L 225.1875 -185.093111 
L 224.8 -185.417182 
L 224.4125 -185.367892 
L 224.025 -185.378579 
L 223.6375 -185.486338 
L 223.25 -185.346836 
L 222.8625 -185.381245 
L 222.475 -186.019364 
L 222.0875 -185.321021 
L 221.7 -185.140061 
L 221.3125 -185.53877 
L 220.925 -185.912884 
L 220.5375 -185.838483 
L 220.15 -185.940681 
L 219.7625 -185.914162 
L 219.375 -185.481203 
L 218.9875 -185.863782 
L 218.6 -186.039597 
L 218.2125 -186.344168 
L 217.825 -185.72205 
L 217.4375 -186.169285 
L 217.05 -186.013971 
L 216.6625 -185.986084 
L 216.275 -186.226367 
L 215.8875 -186.090453 
L 215.5 -186.611722 
L 215.1125 -186.579315 
L 214.725 -186.581674 
L 214.3375 -186.642027 
L 213.95 -186.432507 
L 213.5625 -186.570284 
L 213.175 -186.280682 
L 212.7875 -186.073481 
L 212.4 -186.130662 
L 212.0125 -185.994223 
L 211.625 -186.255899 
L 211.2375 -186.909304 
L 210.85 -186.911395 
L 210.4625 -186.925968 
L 210.075 -186.739387 
L 209.6875 -187.239441 
L 209.3 -187.065103 
L 208.9125 -187.161264 
L 208.525 -187.22929 
L 208.1375 -187.013643 
L 207.75 -186.808226 
L 207.3625 -186.476056 
L 206.975 -186.434281 
L 206.5875 -186.612842 
L 206.2 -186.963748 
L 205.8125 -186.974187 
L 205.425 -186.978093 
L 205.0375 -187.291437 
L 204.65 -187.224512 
L 204.2625 -187.271779 
L 203.875 -187.313386 
L 203.4875 -187.155752 
L 203.1 -187.389927 
L 202.7125 -187.140346 
L 202.325 -187.396381 
L 201.9375 -187.313554 
L 201.55 -187.257137 
L 201.1625 -187.595245 
L 200.775 -187.563928 
L 200.3875 -187.456992 
L 200 -187.498678 
L 199.6125 -187.363072 
L 199.225 -187.223035 
L 198.8375 -187.626869 
L 198.45 -187.376653 
L 198.0625 -187.104747 
L 197.675 -187.522758 
L 197.2875 -187.494276 
L 196.9 -187.511337 
L 196.5125 -187.698781 
L 196.125 -187.591666 
L 195.7375 -187.759372 
L 195.35 -187.727668 
L 194.9625 -187.828468 
L 194.575 -187.804468 
L 194.1875 -187.877907 
L 193.8 -187.955727 
L 193.4125 -188.257562 
L 193.025 -188.437213 
L 192.6375 -188.344424 
L 192.25 -188.248789 
L 191.8625 -188.298306 
L 191.475 -188.176926 
L 191.0875 -188.077732 
L 190.7 -188.138422 
L 190.3125 -188.324993 
L 189.925 -188.187791 
L 189.5375 -187.955579 
L 189.15 -188.057608 
L 188.7625 -188.09509 
L 188.375 -187.86841 
L 187.9875 -188.042202 
L 187.6 -187.899825 
L 187.2125 -188.136667 
L 186.825 -188.223251 
L 186.4375 -188.228833 
L 186.05 -188.472307 
L 185.6625 -188.520506 
L 185.275 -188.440138 
L 184.8875 -188.420301 
L 184.5 -188.235138 
L 184.1125 -188.190904 
L 183.725 -188.256789 
L 183.3375 -187.998315 
L 182.95 -188.089856 
L 182.5625 -188.133337 
L 182.175 -188.262608 
L 181.7875 -188.068374 
L 181.4 -188.085296 
L 181.0125 -187.999386 
L 180.625 -188.068255 
L 180.2375 -188.039694 
L 179.85 -188.171454 
L 179.4625 -188.295263 
L 179.075 -188.289077 
L 178.6875 -188.077385 
L 178.3 -187.745146 
L 177.9125 -188.136727 
L 177.525 -188.071298 
L 177.1375 -188.053851 
L 176.75 -188.074272 
L 176.3625 -187.83292 
L 175.975 -187.952258 
L 175.5875 -188.174646 
L 175.2 -187.9703 
L 174.8125 -187.956243 
L 174.425 -188.076721 
L 174.0375 -188.22452 
L 173.65 -188.272373 
L 173.2625 -188.200589 
L 172.875 -188.341598 
L 172.4875 -188.029662 
L 172.1 -188.071774 
L 171.7125 -188.185095 
L 171.325 -188.007128 
L 170.9375 -187.990365 
L 170.55 -188.10659 
L 170.1625 -187.841832 
L 169.775 -188.067392 
L 169.3875 -188.355388 
L 169 -188.480515 
L 168.6125 -188.551079 
L 168.225 -188.375403 
L 167.8375 -188.446453 
L 167.45 -188.430026 
L 167.0625 -188.561359 
L 166.675 -188.493502 
L 166.2875 -188.66776 
L 165.9 -188.996163 
L 165.5125 -188.733615 
L 165.125 -188.748307 
L 164.7375 -188.634699 
L 164.35 -188.546122 
L 163.9625 -188.779277 
L 163.575 -188.744927 
L 163.1875 -188.847759 
L 162.8 -188.935751 
L 162.4125 -189.064259 
L 162.025 -189.101037 
L 161.6375 -189.055396 
L 161.25 -188.917292 
L 160.8625 -188.962289 
L 160.475 -188.976544 
L 160.0875 -189.040526 
L 159.7 -188.865682 
L 159.3125 -188.627998 
L 158.925 -188.831382 
L 158.5375 -188.746206 
L 158.15 -188.910283 
L 157.7625 -188.966849 
L 157.375 -188.788308 
L 156.9875 -188.92548 
L 156.6 -188.766132 
L 156.2125 -188.910035 
L 155.825 -188.770077 
L 155.4375 -188.715603 
L 155.05 -188.749834 
L 154.6625 -188.627889 
L 154.275 -188.731722 
L 153.8875 -188.568616 
L 153.5 -188.830648 
L 153.1125 -188.733338 
L 152.725 -188.643076 
L 152.3375 -188.682234 
L 151.95 -188.792749 
L 151.5625 -188.898208 
L 151.175 -188.906476 
L 150.7875 -188.924439 
L 150.4 -188.820933 
L 150.0125 -188.72274 
L 149.625 -188.912355 
L 149.2375 -188.818564 
L 148.85 -189.026736 
L 148.4625 -189.010508 
L 148.075 -188.96444 
L 147.6875 -189.092324 
L 147.3 -189.145955 
L 146.9125 -189.01833 
L 146.525 -188.995211 
L 146.1375 -189.056407 
L 145.75 -189.063495 
L 145.3625 -189.285943 
L 144.975 -189.2428 
L 144.5875 -189.282097 
L 144.2 -189.358291 
L 143.8125 -189.39508 
L 143.425 -189.421331 
L 143.0375 -189.269338 
L 142.65 -189.281135 
L 142.2625 -189.207488 
L 141.875 -189.25994 
L 141.4875 -189.366906 
L 141.1 -189.31378 
L 140.7125 -189.421708 
L 140.325 -189.367511 
L 139.9375 -189.265551 
L 139.55 -189.490001 
L 139.1625 -189.244217 
L 138.775 -189.279846 
L 138.3875 -189.256312 
L 138 -189.416543 
L 137.6125 -189.359035 
L 137.225 -189.31605 
L 136.8375 -189.279876 
L 136.45 -189.319788 
L 136.0625 -189.422065 
L 135.675 -189.39966 
L 135.2875 -189.50621 
L 134.9 -189.54633 
L 134.5125 -189.671497 
L 134.125 -189.581651 
L 133.7375 -189.470343 
L 133.35 -189.33212 
L 132.9625 -189.460628 
L 132.575 -189.470026 
L 132.1875 -189.349686 
L 131.8 -189.399164 
L 131.4125 -189.487285 
L 131.025 -189.409058 
L 130.6375 -189.525363 
L 130.25 -189.410139 
L 129.8625 -189.359996 
L 129.475 -189.459141 
L 129.0875 -189.144875 
L 128.7 -189.198516 
L 128.3125 -189.355635 
L 127.925 -189.332784 
L 127.5375 -189.314414 
L 127.15 -189.230467 
L 126.7625 -189.258037 
L 126.375 -189.265254 
L 125.9875 -189.198011 
L 125.6 -189.2576 
L 125.2125 -189.335362 
L 124.825 -189.117365 
L 124.4375 -189.255895 
L 124.05 -189.080576 
L 123.6625 -189.119496 
L 123.275 -188.978378 
L 122.8875 -188.937694 
L 122.5 -189.075828 
L 122.1125 -189.200767 
L 121.725 -189.221565 
L 121.3375 -189.497863 
L 120.95 -188.97596 
L 120.5625 -188.993328 
L 120.175 -189.166298 
L 119.7875 -189.009368 
L 119.4 -189.105152 
L 119.0125 -189.116691 
L 118.625 -189.13851 
L 118.2375 -188.976217 
L 117.85 -189.154223 
L 117.4625 -189.195394 
L 117.075 -189.11217 
L 116.6875 -188.999573 
L 116.3 -189.076958 
L 115.9125 -189.060353 
L 115.525 -188.964311 
L 115.1375 -188.91289 
L 114.75 -188.622813 
L 114.3625 -188.817196 
L 113.975 -188.639091 
L 113.5875 -188.63112 
L 113.2 -188.552764 
L 112.8125 -188.748525 
L 112.425 -188.667215 
L 112.0375 -188.585211 
L 111.65 -188.506756 
L 111.2625 -188.444391 
L 110.875 -188.541989 
L 110.4875 -188.252387 
L 110.1 -188.364359 
L 109.7125 -188.336285 
L 109.325 -187.965095 
L 108.9375 -187.762078 
L 108.55 -187.87409 
L 108.1625 -187.843527 
L 107.775 -187.74702 
L 107.3875 -187.599983 
L 107 -187.939023 
L 106.6125 -187.861084 
L 106.225 -188.051432 
L 105.8375 -188.01961 
L 105.45 -187.918195 
L 105.0625 -188.324151 
L 104.675 -188.066113 
L 104.2875 -188.027778 
L 103.9 -188.261666 
L 103.5125 -188.100027 
L 103.125 -188.265364 
L 102.7375 -188.487673 
L 102.35 -188.472555 
L 101.9625 -188.5052 
L 101.575 -188.390015 
L 101.1875 -188.395537 
L 100.8 -188.656935 
L 100.4125 -188.747127 
L 100.025 -188.492114 
L 99.6375 -188.174824 
L 99.25 -188.636384 
L 98.8625 -188.436728 
L 98.475 -188.398571 
L 98.0875 -188.500451 
L 97.7 -188.590168 
L 97.3125 -188.443231 
L 96.925 -188.499331 
L 96.5375 -188.569191 
L 96.15 -188.669931 
L 95.7625 -188.354575 
L 95.375 -188.558286 
L 94.9875 -188.437977 
L 94.6 -188.422016 
L 94.2125 -188.489963 
L 93.825 -188.508669 
L 93.4375 -188.693159 
L 93.05 -188.744084 
L 92.6625 -188.911294 
L 92.275 -188.682918 
L 91.8875 -188.57156 
L 91.5 -188.659602 
L 91.1125 -188.351333 
L 90.725 -188.331695 
L 90.3375 -188.548046 
L 89.95 -188.557454 
L 89.5625 -188.709625 
L 89.175 -188.413203 
L 88.7875 -188.392216 
L 88.4 -188.542345 
L 88.0125 -188.353802 
L 87.625 -188.430254 
L 87.2375 -188.438591 
L 86.85 -188.387973 
L 86.4625 -188.487009 
L 86.075 -188.527862 
L 85.6875 -188.255252 
L 85.3 -188.603987 
L 84.9125 -188.635869 
L 84.525 -188.599368 
L 84.1375 -188.476788 
L 83.75 -188.922566 
L 83.3625 -188.638189 
L 82.975 -188.64837 
L 82.5875 -188.605514 
L 82.2 -188.533641 
L 81.8125 -188.601618 
L 81.425 -188.548254 
L 81.0375 -188.831114 
L 80.65 -188.873484 
L 80.2625 -189.152012 
L 79.875 -188.894025 
L 79.4875 -188.818336 
L 79.1 -188.874942 
L 78.7125 -188.813369 
L 78.325 -189.205297 
L 77.9375 -189.267365 
L 77.55 -189.118356 
L 77.1625 -189.10303 
L 76.775 -188.982998 
L 76.3875 -188.97822 
L 76 -188.814628 
L 75.6125 -188.889009 
L 75.225 -188.874951 
L 74.8375 -188.96675 
L 74.45 -189.071505 
L 74.0625 -188.898337 
L 73.675 -189.023336 
L 73.2875 -188.939062 
L 72.9 -188.912603 
L 72.5125 -188.709278 
L 72.125 -188.672757 
L 71.7375 -188.799669 
L 71.35 -188.740495 
L 70.9625 -188.624736 
L 70.575 -188.647468 
L 70.1875 -188.737977 
L 69.8 -188.780248 
L 69.4125 -188.803585 
L 69.025 -188.744837 
L 68.6375 -188.867338 
L 68.25 -188.829835 
L 67.8625 -188.746315 
L 67.475 -188.916241 
L 67.0875 -188.891428 
L 66.7 -189.055148 
L 66.3125 -189.100453 
L 65.925 -189.127516 
L 65.5375 -189.003479 
L 65.15 -189.026845 
L 64.7625 -189.009259 
L 64.375 -188.919027 
L 63.9875 -188.758072 
L 63.6 -188.791282 
L 63.2125 -188.764466 
L 62.825 -189.178749 
L 62.4375 -189.152538 
L 62.05 -189.203592 
L 61.6625 -189.066221 
L 61.275 -189.275861 
L 60.8875 -189.205 
L 60.5 -188.908181 
L 60.1125 -188.830549 
L 59.725 -188.617033 
L 59.3375 -188.778226 
L 58.95 -188.909351 
L 58.5625 -189.059123 
L 58.175 -188.904464 
L 57.7875 -189.014751 
L 57.4 -188.981878 
L 57.0125 -188.945694 
L 56.625 -188.829042 
L 56.2375 -188.819188 
L 55.85 -188.375809 
L 55.4625 -188.330079 
L 55.075 -188.688668 
L 54.6875 -188.740694 
L 54.3 -188.987092 
L 53.9125 -188.804834 
L 53.525 -188.551149 
L 53.1375 -188.664509 
L 52.75 -188.143349 
L 52.3625 -188.147691 
L 51.975 -187.75497 
L 51.5875 -188.286588 
L 51.2 -188.784471 
L 50.8125 -189.110981 
L 50.425 -188.942125 
L 50.0375 -188.89799 
L 49.65 -188.844834 
L 49.2625 -188.82243 
L 48.875 -188.811733 
L 48.4875 -188.767718 
L 48.1 -189.067252 
L 47.7125 -189.116899 
L 47.325 -189.101474 
L 46.9375 -188.828021 
L 46.55 -188.556085 
L 46.1625 -188.665837 
L 45.775 -189.038315 
L 45.3875 -188.504476 
z
" style="stroke: #440154; stroke-opacity: 0.1"/>
    </defs>
    <g clip-path="url(#pde74f8e82b)">
     <use xlink:href="#ma2b506b7ff" x="0" y="216" style="fill: #440154; fill-opacity: 0.1; stroke: #440154; stroke-opacity: 0.1"/>
    </g>
   </g>
   <g id="matplotlib.axis_1">
    <g id="xtick_1">
     <g id="line2d_1">
      <defs>
       <path id="md541837972" d="M 0 0 
L 0 3.5 
" style="stroke: #000000; stroke-width: 0.8"/>
      </defs>
      <g>
       <use xlink:href="#md541837972" x="45" y="192.24" style="stroke: #000000; stroke-width: 0.8"/>
      </g>
     </g>
     <g id="text_1">
      <text style="font: 6px 'sans-serif'; text-anchor: middle" x="45" y="203.799062" transform="rotate(-0, 45, 203.799062)">0</text>
     </g>
    </g>
    <g id="xtick_2">
     <g id="line2d_2">
      <g>
       <use xlink:href="#md541837972" x="83.75" y="192.24" style="stroke: #000000; stroke-width: 0.8"/>
      </g>
     </g>
     <g id="text_2">
      <text style="font: 6px 'sans-serif'; text-anchor: middle" x="83.75" y="203.799062" transform="rotate(-0, 83.75, 203.799062)">200</text>
     </g>
    </g>
    <g id="xtick_3">
     <g id="line2d_3">
      <g>
       <use xlink:href="#md541837972" x="122.5" y="192.24" style="stroke: #000000; stroke-width: 0.8"/>
      </g>
     </g>
     <g id="text_3">
      <text style="font: 6px 'sans-serif'; text-anchor: middle" x="122.5" y="203.799062" transform="rotate(-0, 122.5, 203.799062)">400</text>
     </g>
    </g>
    <g id="xtick_4">
     <g id="line2d_4">
      <g>
       <use xlink:href="#md541837972" x="161.25" y="192.24" style="stroke: #000000; stroke-width: 0.8"/>
      </g>
     </g>
     <g id="text_4">
      <text style="font: 6px 'sans-serif'; text-anchor: middle" x="161.25" y="203.799062" transform="rotate(-0, 161.25, 203.799062)">600</text>
     </g>
    </g>
    <g id="xtick_5">
     <g id="line2d_5">
      <g>
       <use xlink:href="#md541837972" x="200" y="192.24" style="stroke: #000000; stroke-width: 0.8"/>
      </g>
     </g>
     <g id="text_5">
      <text style="font: 6px 'sans-serif'; text-anchor: middle" x="200" y="203.799062" transform="rotate(-0, 200, 203.799062)">800</text>
     </g>
    </g>
    <g id="xtick_6">
     <g id="line2d_6">
      <g>
       <use xlink:href="#md541837972" x="238.75" y="192.24" style="stroke: #000000; stroke-width: 0.8"/>
      </g>
     </g>
     <g id="text_6">
      <text style="font: 6px 'sans-serif'; text-anchor: middle" x="238.75" y="203.799062" transform="rotate(-0, 238.75, 203.799062)">1000</text>
     </g>
    </g>
    <g id="xtick_7">
     <g id="line2d_7">
      <g>
       <use xlink:href="#md541837972" x="277.5" y="192.24" style="stroke: #000000; stroke-width: 0.8"/>
      </g>
     </g>
     <g id="text_7">
      <text style="font: 6px 'sans-serif'; text-anchor: middle" x="277.5" y="203.799062" transform="rotate(-0, 277.5, 203.799062)">1200</text>
     </g>
    </g>
    <g id="xtick_8">
     <g id="line2d_8">
      <g>
       <use xlink:href="#md541837972" x="316.25" y="192.24" style="stroke: #000000; stroke-width: 0.8"/>
      </g>
     </g>
     <g id="text_8">
      <text style="font: 6px 'sans-serif'; text-anchor: middle" x="316.25" y="203.799062" transform="rotate(-0, 316.25, 203.799062)">1400</text>
     </g>
    </g>
    <g id="text_9">
     <text style="font: 8px 'sans-serif'; text-anchor: middle" x="184.5" y="215.125625" transform="rotate(-0, 184.5, 215.125625)">Time (min)</text>
    </g>
   </g>
   <g id="matplotlib.axis_2">
    <g id="ytick_1">
     <g id="line2d_9">
      <defs>
       <path id="meb9b096b86" d="M 0 0 
L -3.5 0 
" style="stroke: #000000; stroke-width: 0.8"/>
      </defs>
      <g>
       <use xlink:href="#meb9b096b86" x="45" y="192.24" style="stroke: #000000; stroke-width: 0.8"/>
      </g>
     </g>
     <g id="text_10">
      <text style="font: 6px 'sans-serif'; text-anchor: end" x="38" y="194.519531" transform="rotate(-0, 38, 194.519531)">0.0</text>
     </g>
    </g>
    <g id="ytick_2">
     <g id="line2d_10">
      <g>
       <use xlink:href="#meb9b096b86" x="45" y="158.976" style="stroke: #000000; stroke-width: 0.8"/>
      </g>
     </g>
     <g id="text_11">
      <text style="font: 6px 'sans-serif'; text-anchor: end" x="38" y="161.255531" transform="rotate(-0, 38, 161.255531)">0.2</text>
     </g>
    </g>
    <g id="ytick_3">
     <g id="line2d_11">
      <g>
       <use xlink:href="#meb9b096b86" x="45" y="125.712" style="stroke: #000000; stroke-width: 0.8"/>
      </g>
     </g>
     <g id="text_12">
      <text style="font: 6px 'sans-serif'; text-anchor: end" x="38" y="127.991531" transform="rotate(-0, 38, 127.991531)">0.4</text>
     </g>
    </g>
    <g id="ytick_4">
     <g id="line2d_12">
      <g>
       <use xlink:href="#meb9b096b86" x="45" y="92.448" style="stroke: #000000; stroke-width: 0.8"/>
      </g>
     </g>
     <g id="text_13">
      <text style="font: 6px 'sans-serif'; text-anchor: end" x="38" y="94.727531" transform="rotate(-0, 38, 94.727531)">0.6</text>
     </g>
    </g>
    <g id="ytick_5">
     <g id="line2d_13">
      <g>
       <use xlink:href="#meb9b096b86" x="45" y="59.184" style="stroke: #000000; stroke-width: 0.8"/>
      </g>
     </g>
     <g id="text_14">
      <text style="font: 6px 'sans-serif'; text-anchor: end" x="38" y="61.463531" transform="rotate(-0, 38, 61.463531)">0.8</text>
     </g>
    </g>
    <g id="ytick_6">
     <g id="line2d_14">
      <g>
       <use xlink:href="#meb9b096b86" x="45" y="25.92" style="stroke: #000000; stroke-width: 0.8"/>
      </g>
     </g>
     <g id="text_15">
      <text style="font: 6px 'sans-serif'; text-anchor: end" x="38" y="28.199531" transform="rotate(-0, 38, 28.199531)">1.0</text>
     </g>
    </g>
    <g id="text_16">
     <text style="font: 8px 'sans-serif'; text-anchor: middle" x="22.794375" y="109.08" transform="rotate(-90, 22.794375, 109.08)">Cosine similarity φ</text>
    </g>
   </g>
   <g id="line2d_15">
    <path d="M 45.3875 28.35036 
L 45.775 28.042568 
L 46.55 28.050697 
L 47.325 27.633569 
L 47.7125 27.90832 
L 48.1 27.805398 
L 48.875 28.626876 
L 49.2625 27.893886 
L 49.65 27.901499 
L 50.0375 27.590168 
L 51.2 27.765824 
L 51.5875 28.009933 
L 51.975 28.721321 
L 52.3625 28.321909 
L 52.75 28.304193 
L 53.1375 28.019142 
L 53.525 27.879511 
L 53.9125 27.472554 
L 54.3 27.420846 
L 54.6875 27.683294 
L 55.075 27.757853 
L 55.4625 28.095644 
L 55.85 28.099114 
L 56.2375 27.703448 
L 57.0125 27.788486 
L 57.4 27.617449 
L 57.7875 27.673351 
L 58.175 27.525839 
L 58.5625 27.665193 
L 61.275 27.818881 
L 61.6625 27.411795 
L 62.05 27.36083 
L 62.4375 27.533294 
L 62.825 27.414888 
L 63.2125 27.736014 
L 63.6 27.809245 
L 63.9875 28.096963 
L 64.375 27.786265 
L 64.7625 27.61962 
L 65.925 27.414442 
L 66.7 27.266801 
L 67.0875 27.491301 
L 67.8625 27.444628 
L 68.25 27.517333 
L 68.6375 27.456554 
L 69.4125 27.684068 
L 69.8 27.583763 
L 70.9625 27.701277 
L 72.5125 27.641509 
L 72.9 27.459945 
L 76.3875 27.663359 
L 76.775 27.599228 
L 77.1625 27.696142 
L 77.9375 27.713193 
L 78.325 27.428727 
L 78.7125 27.699503 
L 79.1 27.728906 
L 79.4875 27.906287 
L 80.2625 27.533373 
L 80.65 27.850078 
L 81.425 27.999821 
L 81.8125 27.763236 
L 82.2 28.029056 
L 82.975 27.790865 
L 83.3625 27.969149 
L 83.75 27.728113 
L 84.1375 28.102891 
L 85.3 27.8945 
L 85.6875 28.353493 
L 86.075 28.253486 
L 86.4625 28.012788 
L 87.625 28.436954 
L 88.0125 28.397231 
L 88.4 28.118068 
L 88.7875 28.499795 
L 89.95 28.191448 
L 90.3375 28.575742 
L 90.725 28.640834 
L 91.1125 28.57374 
L 91.5 28.187641 
L 91.8875 28.31713 
L 92.275 28.281036 
L 92.6625 28.386019 
L 93.05 28.123818 
L 93.825 28.53704 
L 94.2125 28.517352 
L 94.9875 28.289819 
L 95.375 28.425544 
L 95.7625 28.992454 
L 96.15 28.725247 
L 96.5375 28.95624 
L 96.925 28.738055 
L 97.7 28.966203 
L 98.0875 29.026636 
L 98.475 29.338215 
L 98.8625 28.991711 
L 99.6375 29.184725 
L 100.025 28.63674 
L 100.4125 28.512029 
L 101.575 28.624864 
L 101.9625 28.965777 
L 103.5125 28.732583 
L 103.9 28.631317 
L 104.675 28.719775 
L 105.0625 28.607872 
L 108.1625 28.829051 
L 109.325 28.577864 
L 110.1 28.17059 
L 110.4875 28.363119 
L 110.875 28.157088 
L 111.2625 28.454729 
L 112.0375 28.508143 
L 112.425 28.09953 
L 112.8125 28.219067 
L 113.5875 28.210214 
L 113.975 28.309517 
L 114.75 28.283078 
L 115.1375 27.961872 
L 115.9125 27.623764 
L 116.3 27.704123 
L 116.6875 27.500966 
L 117.85 27.51086 
L 118.2375 27.698135 
L 118.625 27.53486 
L 119.7875 27.59672 
L 120.175 27.861112 
L 120.5625 27.770305 
L 120.95 27.81897 
L 122.1125 27.561161 
L 123.275 27.710784 
L 123.6625 27.514459 
L 125.2125 27.534196 
L 126.7625 27.314405 
L 128.7 27.271827 
L 129.0875 27.343521 
L 129.475 26.960069 
L 130.6375 27.135329 
L 131.025 27.020888 
L 133.35 27.22226 
L 133.7375 27.10998 
L 134.125 26.81794 
L 134.5125 26.765845 
L 136.0625 27.133376 
L 138.775 26.962686 
L 139.1625 27.126605 
L 139.55 26.9336 
L 140.325 27.105995 
L 141.4875 26.996174 
L 142.2625 27.283009 
L 143.0375 27.345335 
L 143.425 27.129014 
L 146.1375 27.523916 
L 146.525 27.737115 
L 147.6875 27.497804 
L 148.075 27.754067 
L 148.85 27.604433 
L 149.2375 27.852487 
L 149.625 27.646545 
L 150.0125 27.872552 
L 150.4 27.65398 
L 151.95 27.774716 
L 152.725 27.863035 
L 153.5 27.658759 
L 153.8875 27.880146 
L 154.275 27.634233 
L 155.05 27.62878 
L 155.825 27.670665 
L 156.2125 27.449734 
L 156.6 27.669683 
L 156.9875 27.44213 
L 157.375 27.541096 
L 157.7625 27.364161 
L 158.15 27.534167 
L 158.5375 27.569815 
L 158.925 27.488703 
L 159.3125 27.67121 
L 160.0875 27.373152 
L 162.8 27.570767 
L 164.35 27.999761 
L 165.125 27.749705 
L 165.5125 27.838549 
L 165.9 27.707463 
L 166.675 28.062831 
L 167.0625 27.8441 
L 167.45 28.162679 
L 167.8375 28.017982 
L 168.225 28.124056 
L 168.6125 27.883467 
L 170.1625 28.708345 
L 170.55 28.476142 
L 172.4875 28.517669 
L 172.875 28.289442 
L 173.2625 28.400641 
L 173.65 28.387605 
L 174.0375 28.558671 
L 174.425 28.576664 
L 174.8125 28.74436 
L 175.5875 28.610697 
L 176.3625 28.923397 
L 177.1375 28.536991 
L 177.525 28.76495 
L 177.9125 28.794641 
L 178.3 29.034428 
L 179.075 28.552981 
L 179.4625 28.546587 
L 179.85 28.757119 
L 180.2375 28.815202 
L 180.625 28.733118 
L 181.0125 28.913256 
L 181.7875 28.900219 
L 182.175 28.74205 
L 182.5625 28.755771 
L 183.3375 29.089189 
L 183.725 28.955437 
L 184.1125 29.067925 
L 184.8875 28.833264 
L 185.275 29.030621 
L 185.6625 28.901934 
L 186.825 29.106528 
L 187.2125 28.940061 
L 187.6 29.198733 
L 188.375 29.223893 
L 188.7625 28.999968 
L 189.15 29.209945 
L 189.925 28.662267 
L 190.3125 28.627659 
L 191.0875 28.887986 
L 191.8625 28.696448 
L 193.4125 28.707373 
L 193.8 29.173483 
L 194.9625 29.228602 
L 195.35 29.482704 
L 195.7375 29.219224 
L 196.125 29.433226 
L 196.5125 29.345085 
L 197.2875 29.529188 
L 197.675 29.416829 
L 198.0625 29.687396 
L 198.8375 29.140977 
L 199.6125 29.588321 
L 200.775 29.408442 
L 201.1625 29.306254 
L 201.55 29.595856 
L 202.7125 29.922672 
L 203.4875 29.536048 
L 203.875 29.460071 
L 204.2625 29.665597 
L 205.0375 29.679684 
L 205.425 29.984145 
L 205.8125 29.756741 
L 206.2 29.93439 
L 206.5875 29.987922 
L 206.975 30.471272 
L 207.3625 30.375479 
L 207.75 30.098775 
L 208.1375 30.024691 
L 208.525 29.71104 
L 208.9125 29.937116 
L 209.3 30.486033 
L 209.6875 30.420753 
L 210.075 30.523358 
L 210.85 30.353947 
L 211.2375 30.683589 
L 211.625 30.688178 
L 212.0125 31.35228 
L 212.4 31.540685 
L 212.7875 31.335863 
L 213.175 30.981071 
L 214.3375 30.698469 
L 215.8875 31.70273 
L 216.275 31.342783 
L 216.6625 31.810063 
L 217.05 31.691429 
L 217.4375 31.824973 
L 217.825 31.821166 
L 218.2125 31.310634 
L 218.6 31.7703 
L 218.9875 31.881767 
L 219.375 32.216286 
L 219.7625 31.803699 
L 220.15 31.765046 
L 220.5375 32.075535 
L 220.925 31.662323 
L 221.7 32.74959 
L 222.0875 32.700737 
L 222.475 32.17121 
L 222.8625 32.897856 
L 223.25 33.15851 
L 223.6375 33.169761 
L 224.4125 33.361874 
L 224.8 33.213103 
L 225.1875 33.623936 
L 225.575 33.756984 
L 225.9625 33.764885 
L 226.35 33.596515 
L 226.7375 34.147891 
L 227.125 33.948591 
L 227.5125 34.439555 
L 227.9 34.555324 
L 228.675 34.59008 
L 229.0625 35.301102 
L 229.8375 35.661526 
L 230.225 35.407831 
L 230.6125 35.713958 
L 231 35.84314 
L 231.775 36.990036 
L 232.1625 37.017843 
L 233.325 37.826622 
L 233.7125 37.637979 
L 234.1 38.151178 
L 234.4875 38.088773 
L 234.875 38.669294 
L 235.2625 38.109333 
L 235.65 38.636521 
L 236.0375 38.514674 
L 236.425 39.020201 
L 236.8125 39.123727 
L 237.2 39.497156 
L 237.5875 38.967233 
L 237.975 39.165056 
L 238.3625 40.345588 
L 238.75 40.17022 
L 239.525 39.54253 
L 239.9125 38.288469 
L 240.3 39.910933 
L 240.6875 39.827086 
L 241.075 39.114061 
L 241.4625 38.641358 
L 241.85 38.524171 
L 242.2375 38.285476 
L 242.625 39.331066 
L 243.0125 39.46576 
L 243.4 39.830169 
L 243.7875 39.780532 
L 244.175 39.532666 
L 244.5625 40.11983 
L 244.95 38.739491 
L 245.3375 39.082407 
L 245.725 39.720248 
L 246.5 40.291065 
L 246.8875 39.949427 
L 247.6625 40.004645 
L 248.05 38.904818 
L 248.4375 38.700472 
L 249.2125 39.65705 
L 249.6 39.635578 
L 249.9875 38.623593 
L 250.375 38.520008 
L 250.7625 39.408015 
L 251.15 39.508557 
L 251.5375 39.201418 
L 251.925 39.931553 
L 252.3125 39.942607 
L 252.7 39.734266 
L 253.0875 38.946742 
L 253.8625 38.513029 
L 254.25 39.352271 
L 254.6375 39.0214 
L 255.4125 38.678702 
L 255.8 39.915781 
L 256.575 41.308025 
L 256.9625 40.47022 
L 257.35 40.723092 
L 257.7375 40.551134 
L 258.125 39.532349 
L 258.5125 39.751109 
L 258.9 40.709719 
L 259.2875 39.247605 
L 259.675 39.322689 
L 260.0625 39.130636 
L 260.45 39.490177 
L 260.8375 40.968688 
L 261.225 39.014471 
L 261.6125 40.142046 
L 262 39.112207 
L 262.3875 40.991311 
L 262.775 39.979029 
L 263.1625 41.23304 
L 263.55 41.050087 
L 263.9375 39.947465 
L 264.325 40.456252 
L 264.7125 41.261809 
L 265.1 39.153239 
L 265.4875 39.735485 
L 265.875 38.929265 
L 266.2625 38.568901 
L 266.65 37.977386 
L 267.0375 39.007521 
L 267.425 36.552576 
L 267.8125 37.374965 
L 268.2 39.629877 
L 268.5875 38.571964 
L 268.975 38.759546 
L 269.75 36.987825 
L 270.1375 37.41457 
L 270.525 36.798826 
L 270.9125 37.69167 
L 271.3 37.206913 
L 271.6875 38.182475 
L 272.075 37.914108 
L 272.4625 39.934736 
L 272.85 36.806846 
L 273.2375 38.544752 
L 273.625 39.077976 
L 274.0125 38.325655 
L 274.4 36.534503 
L 274.7875 37.613959 
L 275.175 36.291465 
L 275.5625 36.559366 
L 276.3375 38.377363 
L 277.1125 37.797496 
L 277.5 38.16701 
L 277.8875 37.778641 
L 278.275 36.921167 
L 278.6625 36.589226 
L 279.4375 37.483488 
L 279.825 37.927818 
L 280.2125 36.083105 
L 280.6 35.909054 
L 280.9875 37.389142 
L 281.375 34.876698 
L 281.7625 37.085582 
L 282.15 34.84787 
L 282.5375 37.87266 
L 282.925 37.305413 
L 283.3125 35.033965 
L 283.7 35.644663 
L 284.0875 36.519009 
L 284.8625 34.782907 
L 285.25 36.353841 
L 285.6375 34.359861 
L 286.025 37.228088 
L 286.4125 34.144729 
L 286.8 33.490878 
L 287.1875 34.303572 
L 287.575 37.42707 
L 287.9625 34.0518 
L 288.35 33.93849 
L 288.7375 34.573773 
L 289.5125 33.410777 
L 289.9 35.191152 
L 290.2875 33.752474 
L 290.675 36.333062 
L 291.0625 33.460533 
L 291.45 35.773062 
L 291.8375 34.555562 
L 292.225 33.797967 
L 293 34.860926 
L 293.775 34.837788 
L 294.1625 34.237697 
L 294.55 35.853063 
L 294.9375 33.715834 
L 295.325 35.540304 
L 295.7125 36.807797 
L 296.1 35.970359 
L 296.4875 34.735967 
L 296.875 34.994103 
L 297.2625 35.567318 
L 297.65 33.9018 
L 298.0375 35.462077 
L 298.425 34.460056 
L 298.8125 32.422367 
L 299.2 35.136886 
L 299.5875 34.252181 
L 299.975 36.187662 
L 300.3625 33.029794 
L 301.525 32.637766 
L 301.9125 33.434867 
L 302.3 36.419111 
L 302.6875 33.910692 
L 303.075 33.132408 
L 303.4625 35.897555 
L 303.85 33.84909 
L 304.2375 32.781987 
L 304.625 33.032064 
L 305.0125 34.712611 
L 305.4 35.09404 
L 305.7875 32.225724 
L 306.175 33.684428 
L 306.5625 32.944241 
L 306.95 33.654549 
L 307.3375 33.40589 
L 307.725 34.213806 
L 308.1125 32.669341 
L 308.5 35.415831 
L 308.8875 32.307748 
L 309.6625 34.575706 
L 310.05 33.696294 
L 310.4375 31.828869 
L 311.2125 34.561094 
L 311.6 34.776751 
L 311.9875 34.368634 
L 312.375 34.584212 
L 312.7625 33.022408 
L 313.15 34.317927 
L 313.5375 34.667673 
L 313.925 33.43331 
L 314.3125 35.676118 
L 314.7 35.669149 
L 315.0875 32.007033 
L 315.475 34.659425 
L 315.8625 33.397672 
L 316.25 33.914043 
L 316.6375 37.263736 
L 317.025 33.577115 
L 317.4125 34.397086 
L 317.8 33.326116 
L 318.1875 34.439961 
L 318.575 34.443371 
L 318.9625 35.96335 
L 319.35 33.580694 
L 319.7375 34.131405 
L 320.125 34.480121 
L 320.9 33.37266 
L 321.2875 34.773638 
L 321.675 34.693051 
L 322.0625 33.064719 
L 322.45 32.42312 
L 322.8375 34.78256 
L 323.225 34.143212 
L 323.6125 36.342014 
L 324 36.726081 
L 324 36.726081 
" clip-path="url(#pde74f8e82b)" style="fill: none; stroke: #440154; stroke-linecap: square"/>
   </g>
   <g id="patch_3">
    <path d="M 45 192.24 
L 45 25.92 
" style="fill: none; stroke: #000000; stroke-width: 0.8; stroke-linejoin: miter; stroke-linecap: square"/>
   </g>
   <g id="patch_4">
    <path d="M 324 192.24 
L 324 25.92 
" style="fill: none; stroke: #000000; stroke-width: 0.8; stroke-linejoin: miter; stroke-linecap: square"/>
   </g>
   <g id="patch_5">
    <path d="M 45 192.24 
L 324 192.24 
" style="fill: none; stroke: #000000; stroke-width: 0.8; stroke-linejoin: miter; stroke-linecap: square"/>
   </g>
   <g id="patch_6">
    <path d="M 45 25.92 
L 324 25.92 
" style="fill: none; stroke: #000000; stroke-width: 0.8; stroke-linejoin: miter; stroke-linecap: square"/>
   </g>
   <g id="text_17">
    <text style="font: 8px 'sans-serif'; text-anchor: middle" x="184.5" y="19.92" transform="rotate(-0, 184.5, 19.92)">Nodal-inh._untreated</text>
   </g>
  </g>
 </g>
 <defs>
  <clipPath id="pde74f8e82b">
   <rect x="45" y="25.92" width="279" height="166.32"/>
  </clipPath>
 </defs>
</svg>
