<?xml version="1.0" encoding="utf-8" standalone="no"?>
<!DOCTYPE svg PUBLIC "-//W3C//DTD SVG 1.1//EN"
  "http://www.w3.org/Graphics/SVG/1.1/DTD/svg11.dtd">
<svg xmlns:xlink="http://www.w3.org/1999/xlink" width="360pt" height="216pt" viewBox="0 0 360 216" xmlns="http://www.w3.org/2000/svg" version="1.1">
 <metadata>
  <rdf:RDF xmlns:dc="http://purl.org/dc/elements/1.1/" xmlns:cc="http://creativecommons.org/ns#" xmlns:rdf="http://www.w3.org/1999/02/22-rdf-syntax-ns#">
   <cc:Work>
    <dc:type rdf:resource="http://purl.org/dc/dcmitype/StillImage"/>
    <dc:date>2023-05-16T18:35:20.619560</dc:date>
    <dc:format>image/svg+xml</dc:format>
    <dc:creator>
     <cc:Agent>
      <dc:title>Matplotlib v3.5.1, https://matplotlib.org/</dc:title>
     </cc:Agent>
    </dc:creator>
   </cc:Work>
  </rdf:RDF>
 </metadata>
 <defs>
  <style type="text/css">*{stroke-linejoin: round; stroke-linecap: butt}</style>
 </defs>
 <g id="figure_1">
  <g id="patch_1">
   <path d="M 0 216 
L 360 216 
L 360 0 
L 0 0 
z
" style="fill: #ffffff"/>
  </g>
  <g id="axes_1">
   <g id="patch_2">
    <path d="M 45 192.24 
L 324 192.24 
L 324 25.92 
L 45 25.92 
z
" style="fill: #ffffff"/>
   </g>
   <g id="PolyCollection_1">
    <defs>
     <path id="m240dfa989d" d="M 45.3875 -188.6483 
L 45.3875 -186.650979 
L 45.775 -186.726926 
L 46.1625 -186.939371 
L 46.55 -186.911445 
L 46.9375 -187.410627 
L 47.325 -187.848394 
L 47.7125 -187.588989 
L 48.1 -187.569381 
L 48.4875 -187.035869 
L 48.875 -186.671222 
L 49.2625 -187.418706 
L 49.65 -187.37129 
L 50.0375 -187.777008 
L 50.425 -187.574823 
L 50.8125 -187.931786 
L 51.2 -187.723525 
L 51.5875 -187.023675 
L 51.975 -185.75865 
L 52.3625 -186.297248 
L 52.75 -186.339013 
L 53.1375 -187.113788 
L 53.525 -187.192432 
L 53.9125 -187.93134 
L 54.3 -188.072468 
L 54.6875 -187.790946 
L 55.075 -187.541444 
L 55.4625 -186.917393 
L 55.85 -186.898944 
L 56.2375 -187.58546 
L 56.625 -187.413303 
L 57.0125 -187.353416 
L 57.4 -187.674166 
L 57.7875 -187.765905 
L 58.175 -187.883617 
L 58.5625 -187.689165 
L 58.95 -187.619007 
L 59.3375 -187.704243 
L 59.725 -187.427093 
L 60.1125 -187.478355 
L 60.5 -187.589862 
L 60.8875 -187.662587 
L 61.275 -187.513667 
L 61.6625 -187.867101 
L 62.05 -188.13636 
L 62.4375 -187.909818 
L 62.825 -187.957036 
L 63.2125 -187.397243 
L 63.6 -187.359513 
L 63.9875 -187.128887 
L 64.375 -187.443757 
L 64.7625 -187.739614 
L 65.15 -187.448902 
L 65.5375 -187.868519 
L 65.925 -187.927623 
L 66.3125 -188.013929 
L 66.7 -188.019728 
L 67.0875 -187.438037 
L 67.475 -187.537737 
L 67.8625 -187.64847 
L 68.25 -187.64157 
L 68.6375 -187.692 
L 69.025 -187.603007 
L 69.4125 -187.473478 
L 69.8 -187.612395 
L 70.1875 -187.273454 
L 70.575 -187.11017 
L 70.9625 -187.153353 
L 71.35 -187.240472 
L 71.7375 -187.366284 
L 72.125 -187.426567 
L 72.5125 -187.428867 
L 72.9 -187.866506 
L 73.2875 -187.71257 
L 73.675 -187.948381 
L 74.0625 -187.655181 
L 74.45 -187.600122 
L 74.8375 -187.702806 
L 75.225 -187.574357 
L 75.6125 -187.619047 
L 76 -187.583101 
L 76.3875 -187.692466 
L 76.775 -187.541811 
L 77.1625 -187.348568 
L 77.55 -187.545668 
L 77.9375 -187.354844 
L 78.325 -187.895463 
L 78.7125 -187.50531 
L 79.1 -187.24188 
L 79.4875 -187.17779 
L 79.875 -187.619642 
L 80.2625 -187.606149 
L 80.65 -187.14105 
L 81.0375 -187.22129 
L 81.425 -186.664263 
L 81.8125 -187.099999 
L 82.2 -187.222578 
L 82.5875 -187.233701 
L 82.975 -187.427281 
L 83.3625 -187.454454 
L 83.75 -187.920059 
L 84.1375 -187.103112 
L 84.525 -187.147008 
L 84.9125 -187.076434 
L 85.3 -187.378765 
L 85.6875 -186.786972 
L 86.075 -186.802308 
L 86.4625 -187.36333 
L 86.85 -187.044721 
L 87.2375 -187.075324 
L 87.625 -186.675822 
L 88.0125 -186.72759 
L 88.4 -186.928635 
L 88.7875 -186.281902 
L 89.175 -186.97501 
L 89.5625 -186.892272 
L 89.95 -186.980889 
L 90.3375 -186.462108 
L 90.725 -186.548821 
L 91.1125 -186.717895 
L 91.5 -187.103022 
L 91.8875 -187.072667 
L 92.275 -187.061971 
L 92.6625 -186.786486 
L 93.05 -187.117674 
L 93.4375 -187.07579 
L 93.825 -186.925443 
L 94.2125 -186.813738 
L 94.6 -186.860024 
L 94.9875 -186.785772 
L 95.375 -186.66572 
L 95.7625 -185.679501 
L 96.15 -186.307934 
L 96.5375 -186.019027 
L 96.925 -186.252498 
L 97.3125 -185.999805 
L 97.7 -185.86746 
L 98.0875 -185.895862 
L 98.475 -185.492782 
L 98.8625 -185.822344 
L 99.25 -185.521491 
L 99.6375 -185.490571 
L 100.025 -186.156417 
L 100.4125 -186.298189 
L 100.8 -186.276975 
L 101.1875 -186.048757 
L 101.575 -186.283359 
L 101.9625 -185.580664 
L 102.35 -185.922658 
L 102.7375 -185.503557 
L 103.125 -185.477941 
L 103.5125 -185.594375 
L 103.9 -185.555078 
L 104.2875 -185.642881 
L 104.675 -185.613418 
L 105.0625 -185.572297 
L 105.45 -185.352724 
L 105.8375 -185.210308 
L 106.225 -185.363153 
L 106.6125 -185.166699 
L 107 -185.029725 
L 107.3875 -184.921162 
L 107.775 -184.869553 
L 108.1625 -184.996693 
L 108.55 -184.86069 
L 108.9375 -184.826608 
L 109.325 -185.243805 
L 109.7125 -185.819757 
L 110.1 -186.006556 
L 110.4875 -185.831127 
L 110.875 -186.041421 
L 111.2625 -185.731071 
L 111.65 -186.003344 
L 112.0375 -185.820401 
L 112.425 -186.60736 
L 112.8125 -186.693488 
L 113.2 -186.839107 
L 113.5875 -186.784394 
L 113.975 -186.746356 
L 114.3625 -186.764924 
L 114.75 -186.638805 
L 115.1375 -187.1067 
L 115.525 -187.230817 
L 115.9125 -187.515124 
L 116.3 -187.48921 
L 116.6875 -187.81342 
L 117.075 -187.712352 
L 117.4625 -187.758717 
L 117.85 -187.917739 
L 118.2375 -187.691028 
L 118.625 -188.012611 
L 119.0125 -188.05274 
L 119.4 -188.063477 
L 119.7875 -187.959326 
L 120.175 -187.604107 
L 120.5625 -187.688431 
L 120.95 -187.594303 
L 121.3375 -187.825475 
L 121.725 -187.984407 
L 122.1125 -187.853906 
L 122.5 -187.674007 
L 122.8875 -187.504745 
L 123.275 -187.572037 
L 123.6625 -187.797638 
L 124.05 -187.942592 
L 124.4375 -187.84436 
L 124.825 -187.880008 
L 125.2125 -187.971153 
L 125.6 -188.051303 
L 125.9875 -188.054713 
L 126.375 -188.080845 
L 126.7625 -188.197596 
L 127.15 -188.210156 
L 127.5375 -188.338753 
L 127.925 -188.336265 
L 128.3125 -188.284289 
L 128.7 -188.278222 
L 129.0875 -188.20968 
L 129.475 -188.692663 
L 129.8625 -188.556591 
L 130.25 -188.529755 
L 130.6375 -188.436341 
L 131.025 -188.55673 
L 131.4125 -188.483767 
L 131.8 -188.270866 
L 132.1875 -188.182646 
L 132.575 -188.346535 
L 132.9625 -188.368969 
L 133.35 -188.296066 
L 133.7375 -188.362892 
L 134.125 -188.728827 
L 134.5125 -188.767262 
L 134.9 -188.507976 
L 135.2875 -188.3494 
L 135.675 -188.54524 
L 136.0625 -188.171583 
L 136.45 -188.070931 
L 136.8375 -188.322921 
L 137.225 -188.313533 
L 137.6125 -188.503852 
L 138 -188.424673 
L 138.3875 -188.225373 
L 138.775 -188.443548 
L 139.1625 -187.934988 
L 139.55 -188.394823 
L 139.9375 -188.197278 
L 140.325 -188.12832 
L 140.7125 -188.121093 
L 141.1 -187.980313 
L 141.4875 -188.270063 
L 141.875 -187.945804 
L 142.2625 -187.94736 
L 142.65 -187.962498 
L 143.0375 -187.997859 
L 143.425 -188.102635 
L 143.8125 -188.190388 
L 144.2 -187.915221 
L 144.5875 -187.822382 
L 144.975 -187.794118 
L 145.3625 -187.838491 
L 145.75 -187.4675 
L 146.1375 -187.349877 
L 146.525 -187.304216 
L 146.9125 -187.382819 
L 147.3 -187.645347 
L 147.6875 -187.584479 
L 148.075 -187.335344 
L 148.4625 -187.673234 
L 148.85 -187.253727 
L 149.2375 -187.02768 
L 149.625 -187.466231 
L 150.0125 -186.895028 
L 150.4 -187.306347 
L 150.7875 -187.346784 
L 151.175 -187.255184 
L 151.5625 -187.083136 
L 151.95 -186.507036 
L 152.3375 -186.416715 
L 152.725 -186.555027 
L 153.1125 -186.698098 
L 153.5 -186.909789 
L 153.8875 -186.693855 
L 154.275 -187.027928 
L 154.6625 -186.902404 
L 155.05 -186.682613 
L 155.4375 -186.80323 
L 155.825 -186.801971 
L 156.2125 -187.087468 
L 156.6 -186.712086 
L 156.9875 -187.32548 
L 157.375 -186.856713 
L 157.7625 -187.045951 
L 158.15 -186.776701 
L 158.5375 -186.639747 
L 158.925 -187.08038 
L 159.3125 -185.942713 
L 159.7 -187.290753 
L 160.0875 -186.979402 
L 160.475 -186.845481 
L 160.8625 -187.222261 
L 161.25 -187.471218 
L 161.6375 -187.411459 
L 162.025 -187.413303 
L 162.4125 -187.301182 
L 162.8 -187.099731 
L 163.1875 -186.899063 
L 163.575 -186.665988 
L 163.9625 -186.497608 
L 164.35 -186.433637 
L 164.7375 -186.571731 
L 165.125 -186.786248 
L 165.5125 -186.658176 
L 165.9 -187.01171 
L 166.2875 -186.624262 
L 166.675 -186.52839 
L 167.0625 -186.744156 
L 167.45 -186.058909 
L 167.8375 -185.938728 
L 168.225 -186.250218 
L 168.6125 -186.537084 
L 169 -186.284221 
L 169.3875 -185.594801 
L 169.775 -185.313031 
L 170.1625 -184.988822 
L 170.55 -185.409082 
L 170.9375 -185.506422 
L 171.325 -185.538681 
L 171.7125 -185.485862 
L 172.1 -185.421454 
L 172.4875 -185.194734 
L 172.875 -185.783702 
L 173.2625 -185.600541 
L 173.65 -185.43681 
L 174.0375 -185.745198 
L 174.425 -185.620268 
L 174.8125 -185.250695 
L 175.2 -185.578017 
L 175.5875 -185.472875 
L 175.975 -185.370856 
L 176.3625 -184.782047 
L 176.75 -185.089166 
L 177.1375 -185.400279 
L 177.525 -185.460781 
L 177.9125 -185.285283 
L 178.3 -184.902267 
L 178.6875 -185.329676 
L 179.075 -185.796341 
L 179.4625 -185.876848 
L 179.85 -185.396433 
L 180.2375 -185.126024 
L 180.625 -185.426589 
L 181.0125 -185.086667 
L 181.4 -185.095143 
L 181.7875 -185.166649 
L 182.175 -185.266091 
L 182.5625 -185.223185 
L 182.95 -185.081631 
L 183.3375 -184.656166 
L 183.725 -184.931195 
L 184.1125 -184.911804 
L 184.5 -185.043048 
L 184.8875 -185.206977 
L 185.275 -184.872438 
L 185.6625 -185.25589 
L 186.05 -184.808119 
L 186.4375 -184.521135 
L 186.825 -184.70266 
L 187.2125 -184.918397 
L 187.6 -184.712385 
L 187.9875 -184.86757 
L 188.375 -184.54925 
L 188.7625 -184.943497 
L 189.15 -184.639036 
L 189.5375 -184.943369 
L 189.925 -185.223949 
L 190.3125 -185.056124 
L 190.7 -184.945093 
L 191.0875 -184.818479 
L 191.475 -184.920786 
L 191.8625 -185.206789 
L 192.25 -185.168156 
L 192.6375 -185.158242 
L 193.025 -185.278255 
L 193.4125 -184.932652 
L 193.8 -184.573904 
L 194.1875 -184.18495 
L 194.575 -184.105534 
L 194.9625 -184.3052 
L 195.35 -184.068547 
L 195.7375 -184.487429 
L 196.125 -184.152553 
L 196.5125 -184.307768 
L 196.9 -184.144999 
L 197.2875 -183.675984 
L 197.675 -184.465511 
L 198.0625 -183.903091 
L 198.45 -184.457749 
L 198.8375 -184.759355 
L 199.225 -184.291401 
L 199.6125 -184.179785 
L 200 -184.529056 
L 200.3875 -184.163111 
L 200.775 -184.47475 
L 201.1625 -184.580933 
L 201.55 -184.282479 
L 201.9375 -184.323977 
L 202.325 -184.036635 
L 202.7125 -184.047391 
L 203.1 -183.92842 
L 203.4875 -184.270434 
L 203.875 -184.437763 
L 204.2625 -184.33385 
L 204.65 -184.368081 
L 205.0375 -184.454437 
L 205.425 -183.62259 
L 205.8125 -184.223028 
L 206.2 -183.638601 
L 206.5875 -183.716282 
L 206.975 -182.988566 
L 207.3625 -183.0007 
L 207.75 -183.467306 
L 208.1375 -183.559531 
L 208.525 -184.004119 
L 208.9125 -183.7876 
L 209.3 -183.083646 
L 209.6875 -183.243738 
L 210.075 -182.576008 
L 210.4625 -182.369928 
L 210.85 -182.547081 
L 211.2375 -182.281232 
L 211.625 -182.266223 
L 212.0125 -181.735537 
L 212.4 -180.886361 
L 212.7875 -181.329829 
L 213.175 -181.715085 
L 213.5625 -182.039899 
L 213.95 -181.952106 
L 214.3375 -182.004994 
L 214.725 -181.588381 
L 215.1125 -181.20257 
L 215.5 -180.93911 
L 215.8875 -180.30697 
L 216.275 -181.057982 
L 216.6625 -180.737233 
L 217.05 -180.736232 
L 217.4375 -180.683244 
L 217.825 -180.875387 
L 218.2125 -181.620005 
L 218.6 -180.741525 
L 218.9875 -180.072517 
L 219.375 -179.730671 
L 219.7625 -181.06967 
L 220.15 -180.821348 
L 220.5375 -180.543831 
L 220.925 -180.653018 
L 221.3125 -180.134049 
L 221.7 -179.310093 
L 222.0875 -179.715395 
L 222.475 -180.990402 
L 222.8625 -179.889098 
L 223.25 -179.68386 
L 223.6375 -179.286301 
L 224.025 -178.924064 
L 224.4125 -178.465458 
L 224.8 -178.132674 
L 225.1875 -177.516722 
L 225.575 -176.776197 
L 225.9625 -177.729365 
L 226.35 -178.203912 
L 226.7375 -177.620148 
L 227.125 -177.634563 
L 227.5125 -177.386806 
L 227.9 -177.42067 
L 228.2875 -177.427877 
L 228.675 -177.231403 
L 229.0625 -176.300451 
L 229.45 -176.061844 
L 229.8375 -175.910397 
L 230.225 -176.121216 
L 230.6125 -175.957327 
L 231 -175.787509 
L 231.3875 -175.132964 
L 231.775 -174.791773 
L 232.1625 -174.453675 
L 232.55 -173.859176 
L 232.9375 -173.190316 
L 233.325 -172.476994 
L 233.7125 -172.983551 
L 234.1 -172.43627 
L 234.4875 -172.111277 
L 234.875 -171.618351 
L 235.2625 -172.090062 
L 235.65 -171.623575 
L 236.0375 -171.979825 
L 236.425 -171.484916 
L 236.8125 -171.156166 
L 237.2 -170.342203 
L 237.5875 -170.759698 
L 237.975 -170.714443 
L 238.3625 -168.940531 
L 238.75 -169.434607 
L 239.1375 -169.732219 
L 239.525 -170.432287 
L 239.9125 -172.216092 
L 240.3 -169.924004 
L 240.6875 -169.481131 
L 241.075 -170.916697 
L 241.4625 -170.946685 
L 241.85 -170.923478 
L 242.2375 -170.783897 
L 242.625 -169.875488 
L 243.0125 -169.422116 
L 243.4 -169.029177 
L 243.7875 -169.180764 
L 244.175 -169.163633 
L 244.5625 -168.807741 
L 244.95 -170.979994 
L 245.3375 -170.364201 
L 245.725 -169.1858 
L 246.1125 -168.608381 
L 246.5 -168.604763 
L 246.8875 -168.316222 
L 247.275 -168.561243 
L 247.6625 -168.537807 
L 248.05 -169.858457 
L 248.4375 -170.518484 
L 248.825 -168.624441 
L 249.2125 -168.644119 
L 249.6 -168.286898 
L 249.9875 -170.582931 
L 250.375 -170.098342 
L 250.7625 -169.50651 
L 251.15 -168.945498 
L 251.5375 -169.33355 
L 251.925 -167.693648 
L 252.3125 -167.636864 
L 252.7 -167.922966 
L 253.0875 -169.556156 
L 253.475 -169.427797 
L 253.8625 -169.958523 
L 254.25 -169.246341 
L 254.6375 -169.98059 
L 255.025 -170.379002 
L 255.4125 -170.088657 
L 255.8 -168.146048 
L 256.1875 -167.51938 
L 256.575 -166.915413 
L 256.9625 -168.505272 
L 257.35 -167.571901 
L 257.7375 -167.45295 
L 258.125 -168.071429 
L 258.5125 -168.913745 
L 258.9 -167.923432 
L 259.2875 -169.796379 
L 259.675 -168.166787 
L 260.0625 -170.247877 
L 260.45 -168.401061 
L 260.8375 -166.722695 
L 261.225 -170.808839 
L 261.6125 -169.420124 
L 262 -170.489814 
L 262.3875 -167.684379 
L 262.775 -169.142141 
L 263.1625 -168.337853 
L 263.55 -168.799691 
L 263.9375 -170.496724 
L 264.325 -168.723496 
L 264.7125 -168.483551 
L 265.1 -171.215518 
L 265.4875 -169.345585 
L 265.875 -170.001617 
L 266.2625 -170.285726 
L 266.65 -171.082271 
L 267.0375 -170.087765 
L 267.425 -173.32494 
L 267.8125 -172.671982 
L 268.2 -169.329456 
L 268.5875 -169.300469 
L 268.975 -169.881168 
L 269.3625 -171.374163 
L 269.75 -172.415422 
L 270.1375 -172.475616 
L 270.525 -172.627093 
L 270.9125 -170.296304 
L 271.3 -171.821487 
L 271.6875 -171.055783 
L 272.075 -170.731167 
L 272.4625 -167.122227 
L 272.85 -171.483706 
L 273.2375 -167.181113 
L 273.625 -168.072322 
L 274.0125 -170.161471 
L 274.4 -171.683056 
L 274.7875 -170.071011 
L 275.175 -173.633021 
L 275.5625 -169.450945 
L 275.95 -169.88786 
L 276.3375 -170.292279 
L 276.725 -170.523153 
L 277.1125 -169.299329 
L 277.5 -168.335117 
L 277.8875 -169.281197 
L 278.275 -170.510593 
L 278.6625 -170.365926 
L 279.05 -170.563213 
L 279.4375 -169.725765 
L 279.825 -168.84905 
L 280.2125 -173.155569 
L 280.6 -172.059499 
L 280.9875 -168.965196 
L 281.375 -172.917091 
L 281.7625 -169.961497 
L 282.15 -172.849105 
L 282.5375 -170.508402 
L 282.925 -171.339476 
L 283.3125 -174.770261 
L 283.7 -172.0502 
L 284.0875 -172.282165 
L 284.475 -172.795642 
L 284.8625 -176.641186 
L 285.25 -174.11757 
L 285.6375 -175.70608 
L 286.025 -172.239091 
L 286.4125 -176.378638 
L 286.8 -176.807276 
L 287.1875 -175.542023 
L 287.575 -171.87277 
L 287.9625 -178.068831 
L 288.35 -177.447357 
L 288.7375 -174.330312 
L 289.125 -172.908328 
L 289.5125 -177.897814 
L 289.9 -173.73155 
L 290.2875 -174.534827 
L 290.675 -173.126325 
L 291.0625 -175.308571 
L 291.45 -173.13949 
L 291.8375 -174.131151 
L 292.225 -176.956731 
L 292.6125 -174.39353 
L 293 -173.852028 
L 293.3875 -173.185349 
L 293.775 -172.59766 
L 294.1625 -173.80832 
L 294.55 -170.683186 
L 294.9375 -175.06593 
L 295.325 -173.15091 
L 295.7125 -168.377894 
L 296.1 -170.315219 
L 296.4875 -171.661306 
L 296.875 -172.174703 
L 297.2625 -172.327816 
L 297.65 -173.41208 
L 298.0375 -171.688558 
L 298.425 -174.755173 
L 298.8125 -177.171486 
L 299.2 -174.084102 
L 299.5875 -174.274262 
L 299.975 -171.419101 
L 300.3625 -177.174827 
L 300.75 -174.6742 
L 301.1375 -173.764056 
L 301.525 -176.689068 
L 301.9125 -175.733689 
L 302.3 -170.141763 
L 302.6875 -173.174672 
L 303.075 -176.590875 
L 303.4625 -172.07771 
L 303.85 -174.310773 
L 304.2375 -177.709726 
L 304.625 -175.899056 
L 305.0125 -174.349634 
L 305.4 -171.460013 
L 305.7875 -178.334888 
L 306.175 -176.002324 
L 306.5625 -177.437929 
L 306.95 -175.086649 
L 307.3375 -176.31655 
L 307.725 -171.621662 
L 308.1125 -176.930272 
L 308.5 -172.839677 
L 308.8875 -177.496508 
L 309.275 -173.50476 
L 309.6625 -174.186062 
L 310.05 -174.590074 
L 310.4375 -178.309153 
L 310.825 -175.034613 
L 311.2125 -174.15425 
L 311.6 -173.700273 
L 311.9875 -174.966934 
L 312.375 -174.297757 
L 312.7625 -175.054024 
L 313.15 -173.627875 
L 313.5375 -173.778431 
L 313.925 -175.209457 
L 314.3125 -172.203165 
L 314.7 -171.857661 
L 315.0875 -176.576094 
L 315.475 -173.061748 
L 315.8625 -174.257369 
L 316.25 -175.249695 
L 316.6375 -167.770328 
L 317.025 -176.217822 
L 317.4125 -175.792208 
L 317.8 -176.460523 
L 318.1875 -174.982121 
L 318.575 -175.348027 
L 318.9625 -172.6859 
L 319.35 -176.751959 
L 319.7375 -176.351842 
L 320.125 -175.613548 
L 320.5125 -174.577197 
L 320.9 -177.38057 
L 321.2875 -174.629233 
L 321.675 -175.684469 
L 322.0625 -176.536599 
L 322.45 -176.997525 
L 322.8375 -176.47699 
L 323.225 -177.003988 
L 323.6125 -172.02045 
L 324 -173.392471 
L 324 -185.155348 
L 324 -185.155348 
L 323.6125 -187.295502 
L 323.225 -186.709587 
L 322.8375 -185.95791 
L 322.45 -190.156234 
L 322.0625 -189.333944 
L 321.675 -186.929507 
L 321.2875 -187.823492 
L 320.9 -187.87409 
L 320.5125 -189.532421 
L 320.125 -187.426191 
L 319.7375 -187.385288 
L 319.35 -188.086634 
L 318.9625 -187.387399 
L 318.575 -187.76525 
L 318.1875 -188.137936 
L 317.8 -188.887244 
L 317.4125 -187.413601 
L 317.025 -188.627988 
L 316.6375 -189.702179 
L 316.25 -188.922239 
L 315.8625 -190.947268 
L 315.475 -189.619402 
L 315.0875 -191.409849 
L 314.7 -188.804041 
L 314.3125 -188.444619 
L 313.925 -189.923943 
L 313.5375 -188.886243 
L 313.15 -189.736291 
L 312.7625 -190.90117 
L 312.375 -188.53386 
L 311.9875 -188.295818 
L 311.6 -188.746225 
L 311.2125 -188.723543 
L 310.825 -190.204374 
L 310.4375 -190.03309 
L 310.05 -190.017357 
L 309.6625 -188.662506 
L 309.275 -191.238247 
L 308.8875 -189.887957 
L 308.5 -188.328701 
L 308.1125 -189.731047 
L 307.725 -191.950726 
L 307.3375 -188.87167 
L 306.95 -189.604274 
L 306.5625 -188.67359 
L 306.175 -188.62882 
L 305.7875 -189.213664 
L 305.4 -190.351946 
L 305.0125 -188.225165 
L 304.625 -190.036797 
L 304.2375 -188.726299 
L 303.85 -189.991066 
L 303.4625 -188.12718 
L 303.075 -189.144329 
L 302.6875 -191.003993 
L 302.3 -189.020035 
L 301.9125 -189.396577 
L 301.525 -190.03536 
L 301.1375 -192.721616 
L 300.75 -191.584345 
L 300.3625 -188.765566 
L 299.975 -188.205596 
L 299.5875 -189.221377 
L 299.2 -187.642165 
L 298.8125 -189.98378 
L 298.425 -188.324716 
L 298.0375 -189.387288 
L 297.65 -190.78435 
L 297.2625 -188.537547 
L 296.875 -189.837111 
L 296.4875 -190.866751 
L 296.1 -189.744043 
L 295.7125 -190.006512 
L 295.325 -187.768482 
L 294.9375 -189.502403 
L 294.55 -189.610668 
L 294.1625 -189.716305 
L 293.775 -189.726784 
L 293.3875 -189.005819 
L 293 -188.4261 
L 292.6125 -189.052501 
L 292.225 -187.447336 
L 291.8375 -188.757665 
L 291.45 -187.314387 
L 291.0625 -189.770324 
L 290.675 -186.20759 
L 290.2875 -189.960206 
L 289.9 -187.886125 
L 289.5125 -187.280632 
L 289.125 -190.940586 
L 288.7375 -188.522142 
L 288.35 -186.675664 
L 287.9625 -185.827588 
L 287.575 -185.273149 
L 287.1875 -187.850813 
L 286.8 -188.210989 
L 286.4125 -187.331904 
L 286.025 -185.304753 
L 285.6375 -187.574198 
L 285.25 -185.174748 
L 284.8625 -185.793 
L 284.475 -188.184321 
L 284.0875 -186.679817 
L 283.7 -188.660474 
L 283.3125 -187.161829 
L 282.925 -186.049679 
L 282.5375 -185.746258 
L 282.15 -189.455156 
L 281.7625 -187.867359 
L 281.375 -189.329493 
L 280.9875 -188.256541 
L 280.6 -188.122412 
L 280.2125 -186.678221 
L 279.825 -187.295333 
L 279.4375 -187.307259 
L 279.05 -187.514113 
L 278.6625 -188.455623 
L 278.275 -187.647033 
L 277.8875 -187.161482 
L 277.5 -187.330883 
L 277.1125 -187.10562 
L 276.725 -185.30515 
L 276.3375 -184.952995 
L 275.95 -187.408446 
L 275.5625 -189.430342 
L 275.175 -185.784068 
L 274.7875 -186.701111 
L 274.4 -187.247917 
L 274.0125 -185.187239 
L 273.625 -185.771726 
L 273.2375 -187.729384 
L 272.85 -186.902602 
L 272.4625 -185.008302 
L 272.075 -185.440597 
L 271.6875 -184.579287 
L 271.3 -185.764707 
L 270.9125 -186.320376 
L 270.525 -185.775275 
L 270.1375 -184.695245 
L 269.75 -185.608927 
L 269.3625 -185.081502 
L 268.975 -184.599719 
L 268.5875 -185.555623 
L 268.2 -183.41075 
L 267.8125 -184.578108 
L 267.425 -185.569928 
L 267.0375 -183.897213 
L 266.65 -184.962958 
L 266.2625 -184.576432 
L 265.875 -184.139894 
L 265.4875 -183.183445 
L 265.1 -182.477944 
L 264.7125 -180.992811 
L 264.325 -182.364019 
L 263.9375 -181.608387 
L 263.55 -181.100134 
L 263.1625 -181.196067 
L 262.775 -182.899762 
L 262.3875 -182.333 
L 262 -183.285771 
L 261.6125 -182.295785 
L 261.225 -183.1622 
L 260.8375 -183.339968 
L 260.45 -184.618584 
L 260.0625 -183.490851 
L 259.675 -185.187814 
L 259.2875 -183.708391 
L 258.9 -182.65713 
L 258.5125 -183.584017 
L 258.125 -184.863932 
L 257.7375 -183.444783 
L 257.35 -182.981914 
L 256.9625 -182.554268 
L 256.575 -182.468517 
L 256.1875 -183.306877 
L 255.8 -184.02233 
L 255.4125 -184.553978 
L 255.025 -183.834857 
L 254.6375 -183.976609 
L 254.25 -184.049097 
L 253.8625 -185.015419 
L 253.475 -185.043217 
L 253.0875 -184.55036 
L 252.7 -184.608502 
L 252.3125 -184.477903 
L 251.925 -184.443245 
L 251.5375 -184.263614 
L 251.15 -184.037389 
L 250.7625 -183.677481 
L 250.375 -184.861622 
L 249.9875 -184.169882 
L 249.6 -184.441927 
L 249.2125 -184.04178 
L 248.825 -184.947978 
L 248.4375 -184.080572 
L 248.05 -184.331868 
L 247.6625 -183.452961 
L 247.275 -183.538514 
L 246.8875 -183.784903 
L 246.5 -182.813128 
L 246.1125 -183.426265 
L 245.725 -183.373723 
L 245.3375 -183.470964 
L 244.95 -183.541003 
L 244.5625 -182.9526 
L 244.175 -183.771034 
L 243.7875 -183.258172 
L 243.4 -183.310446 
L 243.0125 -183.646343 
L 242.625 -183.462399 
L 242.2375 -184.645132 
L 241.85 -184.028179 
L 241.4625 -183.770578 
L 241.075 -182.855161 
L 240.6875 -182.864678 
L 240.3 -182.254148 
L 239.9125 -183.206969 
L 239.525 -182.482634 
L 239.1375 -182.646979 
L 238.75 -182.224993 
L 238.3625 -182.368312 
L 237.975 -182.955445 
L 237.5875 -183.305856 
L 237.2 -182.663484 
L 236.8125 -182.59638 
L 236.425 -182.474703 
L 236.0375 -182.990826 
L 235.65 -183.103364 
L 235.2625 -183.691251 
L 234.875 -183.04308 
L 234.4875 -183.711137 
L 234.1 -183.261414 
L 233.7125 -183.740471 
L 233.325 -183.869762 
L 232.9375 -183.476863 
L 232.55 -183.575541 
L 232.1625 -183.510658 
L 231.775 -183.228134 
L 231.3875 -183.869128 
L 231 -184.526211 
L 230.6125 -184.614718 
L 230.225 -185.063103 
L 229.8375 -184.766552 
L 229.45 -184.888676 
L 229.0625 -185.097364 
L 228.675 -185.588436 
L 228.2875 -185.47125 
L 227.9 -185.468642 
L 227.5125 -185.734124 
L 227.125 -186.468274 
L 226.7375 -186.084089 
L 226.35 -186.603038 
L 225.9625 -186.740864 
L 225.575 -187.709834 
L 225.1875 -187.235406 
L 224.8 -187.44114 
L 224.4125 -186.810814 
L 224.025 -186.454475 
L 223.6375 -186.374176 
L 223.25 -185.99914 
L 222.8625 -186.315211 
L 222.475 -186.667158 
L 222.0875 -186.883152 
L 221.7 -187.190727 
L 221.3125 -187.582318 
L 220.925 -188.022356 
L 220.5375 -187.305098 
L 220.15 -187.648599 
L 219.7625 -187.322952 
L 219.375 -187.836736 
L 218.9875 -188.163929 
L 218.6 -187.717953 
L 218.2125 -187.758707 
L 217.825 -187.482321 
L 217.4375 -187.66683 
L 217.05 -187.880911 
L 216.6625 -187.642641 
L 216.275 -188.256432 
L 215.8875 -188.28755 
L 215.5 -188.406333 
L 215.1125 -188.369812 
L 214.725 -188.546192 
L 214.3375 -188.598069 
L 213.95 -188.274068 
L 213.5625 -188.183241 
L 213.175 -188.322733 
L 212.7875 -187.998385 
L 212.4 -188.032289 
L 212.0125 -187.559963 
L 211.625 -188.35742 
L 211.2375 -188.351611 
L 210.85 -188.745065 
L 210.4625 -188.738265 
L 210.075 -188.377316 
L 209.6875 -187.914755 
L 209.3 -187.944228 
L 208.9125 -188.338148 
L 208.525 -188.573801 
L 208.1375 -188.391106 
L 207.75 -188.335164 
L 207.3625 -188.248342 
L 206.975 -188.068889 
L 206.5875 -188.307932 
L 206.2 -188.492639 
L 205.8125 -188.26349 
L 205.425 -188.409119 
L 205.0375 -188.186175 
L 204.65 -188.291248 
L 204.2625 -188.334956 
L 203.875 -188.642114 
L 203.4875 -188.657431 
L 203.1 -188.730235 
L 202.7125 -188.107264 
L 202.325 -188.273503 
L 201.9375 -188.296512 
L 201.55 -188.52581 
L 201.1625 -188.806539 
L 200.775 -188.708366 
L 200.3875 -188.822291 
L 200 -188.378883 
L 199.6125 -188.643572 
L 199.225 -188.917252 
L 198.8375 -188.95867 
L 198.45 -188.768114 
L 198.0625 -188.722116 
L 197.675 -188.700832 
L 197.2875 -189.26562 
L 196.9 -189.035123 
L 196.5125 -189.002062 
L 196.125 -188.980996 
L 195.7375 -189.074122 
L 195.35 -188.966086 
L 194.9625 -189.237595 
L 194.575 -189.302974 
L 194.1875 -189.444251 
L 193.8 -189.079149 
L 193.4125 -189.652602 
L 193.025 -189.423026 
L 192.6375 -189.162759 
L 192.25 -189.396438 
L 191.8625 -189.400334 
L 191.475 -189.524946 
L 191.0875 -189.405569 
L 190.7 -189.542592 
L 190.3125 -189.688538 
L 189.925 -189.451517 
L 189.5375 -189.153985 
L 189.15 -188.941054 
L 188.7625 -189.056526 
L 188.375 -189.002944 
L 187.9875 -188.774657 
L 187.6 -188.890129 
L 187.2125 -189.201461 
L 186.825 -189.084284 
L 186.4375 -189.320134 
L 186.05 -189.236019 
L 185.6625 -188.940222 
L 185.275 -189.06634 
L 184.8875 -189.126495 
L 184.5 -189.072427 
L 184.1125 -188.952405 
L 183.725 -189.157931 
L 183.3375 -189.165475 
L 182.95 -189.050895 
L 182.5625 -189.265313 
L 182.175 -189.249809 
L 181.7875 -189.032932 
L 181.4 -189.075352 
L 181.0125 -189.086822 
L 180.625 -189.107214 
L 180.2375 -189.243613 
L 179.85 -189.089349 
L 179.4625 -189.029958 
L 179.075 -189.097677 
L 178.6875 -189.104458 
L 178.3 -189.028897 
L 177.9125 -189.125454 
L 177.525 -189.009318 
L 177.1375 -189.525759 
L 176.75 -189.562508 
L 176.3625 -189.371199 
L 175.975 -189.090301 
L 175.5875 -189.30571 
L 175.2 -189.103873 
L 174.8125 -189.260584 
L 174.425 -189.226403 
L 174.0375 -189.13742 
L 173.65 -189.78798 
L 173.2625 -189.598157 
L 172.875 -189.637434 
L 172.4875 -189.769947 
L 172.1 -189.508748 
L 171.7125 -189.425029 
L 171.325 -189.606246 
L 170.9375 -189.488177 
L 170.55 -189.638634 
L 170.1625 -189.594529 
L 169.775 -189.577656 
L 169.3875 -189.967324 
L 169 -189.567673 
L 168.6125 -189.695963 
L 168.225 -189.50165 
L 167.8375 -190.025327 
L 167.45 -189.615753 
L 167.0625 -189.567663 
L 166.675 -189.345969 
L 166.2875 -189.616259 
L 165.9 -189.573344 
L 165.5125 -189.664785 
L 165.125 -189.714323 
L 164.7375 -189.732871 
L 164.35 -189.56686 
L 163.9625 -189.65399 
L 163.575 -189.711755 
L 163.1875 -189.719874 
L 162.8 -189.758755 
L 162.4125 -189.647695 
L 162.025 -189.760906 
L 161.6375 -189.856174 
L 161.25 -189.617597 
L 160.8625 -189.849245 
L 160.475 -190.363901 
L 160.0875 -190.274323 
L 159.7 -189.722581 
L 159.3125 -190.714916 
L 158.925 -189.942193 
L 158.5375 -190.220652 
L 158.15 -190.154946 
L 157.7625 -190.225708 
L 157.375 -190.061115 
L 156.9875 -189.79024 
L 156.6 -189.948528 
L 156.2125 -190.013084 
L 155.825 -189.856719 
L 155.4375 -189.969306 
L 155.05 -190.059786 
L 154.6625 -189.737828 
L 154.275 -189.703646 
L 153.8875 -189.545854 
L 153.5 -189.772713 
L 153.1125 -189.704766 
L 152.725 -189.718923 
L 152.3375 -189.881503 
L 151.95 -189.943492 
L 151.5625 -189.626172 
L 151.175 -189.514398 
L 150.7875 -189.312045 
L 150.4 -189.385692 
L 150.0125 -189.359848 
L 149.625 -189.240698 
L 149.2375 -189.267306 
L 148.85 -189.537407 
L 148.4625 -189.050211 
L 148.075 -189.156523 
L 147.6875 -189.419953 
L 147.3 -189.363585 
L 146.9125 -189.274305 
L 146.525 -189.221535 
L 146.1375 -189.602271 
L 145.75 -189.552615 
L 145.3625 -189.482378 
L 144.975 -189.410426 
L 144.5875 -189.539767 
L 144.2 -189.546835 
L 143.8125 -189.449098 
L 143.425 -189.639357 
L 143.0375 -189.31147 
L 142.65 -189.493768 
L 142.2625 -189.486601 
L 141.875 -189.761075 
L 141.4875 -189.737609 
L 141.1 -189.868526 
L 140.7125 -189.807251 
L 140.325 -189.65967 
L 139.9375 -189.730055 
L 139.55 -189.737956 
L 139.1625 -189.811762 
L 138.775 -189.63106 
L 138.3875 -189.600824 
L 138 -189.765843 
L 137.6125 -189.598633 
L 137.225 -189.546131 
L 136.8375 -189.600923 
L 136.45 -189.714025 
L 136.0625 -189.561685 
L 135.675 -189.37101 
L 135.2875 -189.456573 
L 134.9 -189.732008 
L 134.5125 -189.701009 
L 134.125 -189.635293 
L 133.7375 -189.417167 
L 133.35 -189.259434 
L 132.9625 -189.44089 
L 132.575 -189.562736 
L 132.1875 -189.549214 
L 131.8 -189.562429 
L 131.4125 -189.409504 
L 131.025 -189.401474 
L 130.6375 -189.293021 
L 130.25 -189.32404 
L 129.8625 -189.366817 
L 129.475 -189.387199 
L 129.0875 -189.103258 
L 128.7 -189.178164 
L 128.3125 -189.338841 
L 127.925 -189.202323 
L 127.5375 -189.16149 
L 127.15 -189.203503 
L 126.7625 -189.173574 
L 126.375 -189.099848 
L 125.9875 -189.099114 
L 125.6 -189.036541 
L 125.2125 -188.960415 
L 124.825 -189.016902 
L 124.4375 -189.013531 
L 124.05 -188.998751 
L 123.6625 -189.173465 
L 123.275 -189.006394 
L 122.8875 -189.032189 
L 122.5 -189.115481 
L 122.1125 -189.023772 
L 121.725 -188.925589 
L 121.3375 -188.778038 
L 120.95 -188.767738 
L 120.5625 -188.770959 
L 120.175 -188.673649 
L 119.7875 -188.847233 
L 119.4 -188.894421 
L 119.0125 -188.868835 
L 118.625 -188.917649 
L 118.2375 -188.912722 
L 117.85 -189.060541 
L 117.4625 -189.250235 
L 117.075 -189.314662 
L 116.6875 -189.184647 
L 116.3 -189.102564 
L 115.9125 -189.237327 
L 115.525 -189.151903 
L 115.1375 -188.969555 
L 114.75 -188.795039 
L 114.3625 -188.663706 
L 113.975 -188.63461 
L 113.5875 -188.795158 
L 113.2 -188.794355 
L 112.8125 -188.868359 
L 112.425 -189.193579 
L 112.0375 -189.163294 
L 111.65 -188.994091 
L 111.2625 -189.359412 
L 110.875 -189.644423 
L 110.4875 -189.442615 
L 110.1 -189.652245 
L 109.7125 -189.50046 
L 109.325 -189.600487 
L 108.9375 -189.758804 
L 108.55 -189.665955 
L 108.1625 -189.345206 
L 107.775 -189.498279 
L 107.3875 -189.283931 
L 107 -189.285903 
L 106.6125 -189.511186 
L 106.225 -189.320898 
L 105.8375 -189.311222 
L 105.45 -189.356507 
L 105.0625 -189.211959 
L 104.675 -188.947032 
L 104.2875 -189.030127 
L 103.9 -189.182268 
L 103.5125 -188.940479 
L 103.125 -188.956926 
L 102.7375 -188.887492 
L 102.35 -188.222716 
L 101.9625 -188.487802 
L 101.575 -188.466934 
L 101.1875 -188.502414 
L 100.8 -188.590911 
L 100.4125 -188.677714 
L 100.025 -188.570063 
L 99.6375 -188.139998 
L 99.25 -188.25667 
L 98.8625 -188.194235 
L 98.475 -187.830788 
L 98.0875 -188.050847 
L 97.7 -188.200153 
L 97.3125 -188.187841 
L 96.925 -188.271371 
L 96.5375 -188.068513 
L 96.15 -188.241572 
L 95.7625 -188.33563 
L 95.375 -188.483192 
L 94.9875 -188.63461 
L 94.6 -188.410744 
L 94.2125 -188.151518 
L 93.825 -188.000496 
L 93.4375 -188.226166 
L 93.05 -188.634709 
L 92.6625 -188.441476 
L 92.275 -188.375958 
L 91.8875 -188.293032 
L 91.5 -188.521716 
L 91.1125 -188.134625 
L 90.725 -188.169531 
L 90.3375 -188.386447 
L 89.95 -188.636196 
L 89.5625 -188.504655 
L 89.175 -188.296076 
L 88.7875 -188.718567 
L 88.4 -188.835208 
L 88.0125 -188.477928 
L 87.625 -188.45025 
L 87.2375 -188.424147 
L 86.85 -188.605435 
L 86.4625 -188.611095 
L 86.075 -188.6907 
L 85.6875 -188.506042 
L 85.3 -188.832215 
L 84.9125 -188.886253 
L 84.525 -188.812645 
L 84.1375 -188.691087 
L 83.75 -188.623755 
L 83.3625 -188.607249 
L 82.975 -188.990968 
L 82.5875 -188.938397 
L 82.2 -188.719291 
L 81.8125 -189.373568 
L 81.425 -189.336075 
L 81.0375 -189.033666 
L 80.65 -189.158813 
L 80.2625 -189.327084 
L 79.875 -188.966244 
L 79.4875 -189.009635 
L 79.1 -189.300288 
L 78.7125 -189.095684 
L 78.325 -189.247062 
L 77.9375 -189.21877 
L 77.55 -189.107332 
L 77.1625 -189.259147 
L 76.775 -189.259712 
L 76.3875 -188.980817 
L 76 -188.924568 
L 75.6125 -188.984604 
L 75.225 -189.061096 
L 74.8375 -189.238259 
L 74.45 -189.320858 
L 74.0625 -189.169638 
L 73.675 -189.214705 
L 73.2875 -189.310836 
L 72.9 -189.213605 
L 72.5125 -189.288134 
L 72.125 -189.141336 
L 71.7375 -189.258324 
L 71.35 -189.338534 
L 70.9625 -189.444112 
L 70.575 -189.455354 
L 70.1875 -189.426833 
L 69.8 -189.220058 
L 69.4125 -189.158407 
L 69.025 -189.140186 
L 68.6375 -189.394872 
L 68.25 -189.323783 
L 67.8625 -189.462273 
L 67.475 -189.547886 
L 67.0875 -189.579361 
L 66.7 -189.44669 
L 66.3125 -189.342212 
L 65.925 -189.243513 
L 65.5375 -189.10536 
L 65.15 -189.38706 
L 64.7625 -189.021125 
L 64.375 -188.983712 
L 63.9875 -188.677188 
L 63.6 -189.021978 
L 63.2125 -189.130728 
L 62.825 -189.213208 
L 62.4375 -189.023613 
L 62.05 -189.14198 
L 61.6625 -189.309329 
L 61.275 -188.848552 
L 60.8875 -188.854064 
L 60.5 -188.847382 
L 60.1125 -188.930913 
L 59.725 -188.911274 
L 59.3375 -189.080745 
L 58.95 -189.010359 
L 58.5625 -188.98047 
L 58.175 -189.064705 
L 57.7875 -188.887413 
L 57.4 -189.090936 
L 57.0125 -189.069612 
L 56.625 -189.115799 
L 56.2375 -189.007663 
L 55.85 -188.902828 
L 55.4625 -188.891299 
L 55.075 -188.942868 
L 54.6875 -188.842465 
L 54.3 -189.08584 
L 53.9125 -189.123551 
L 53.525 -189.048526 
L 53.1375 -188.847947 
L 52.75 -189.05262 
L 52.3625 -189.058935 
L 51.975 -188.798707 
L 51.5875 -188.95648 
L 51.2 -188.744828 
L 50.8125 -188.897951 
L 50.425 -189.197575 
L 50.0375 -189.042677 
L 49.65 -188.825692 
L 49.2625 -188.793503 
L 48.875 -188.075026 
L 48.4875 -188.588354 
L 48.1 -188.819803 
L 47.7125 -188.594411 
L 47.325 -188.884468 
L 46.9375 -188.957481 
L 46.55 -188.987162 
L 46.1625 -189.010647 
L 45.775 -189.187899 
L 45.3875 -188.6483 
z
" style="stroke: #440154; stroke-opacity: 0.1"/>
    </defs>
    <g clip-path="url(#pc4217a5839)">
     <use xlink:href="#m240dfa989d" x="0" y="216" style="fill: #440154; fill-opacity: 0.1; stroke: #440154; stroke-opacity: 0.1"/>
    </g>
   </g>
   <g id="matplotlib.axis_1">
    <g id="xtick_1">
     <g id="line2d_1">
      <defs>
       <path id="mca94f01d43" d="M 0 0 
L 0 3.5 
" style="stroke: #000000; stroke-width: 0.8"/>
      </defs>
      <g>
       <use xlink:href="#mca94f01d43" x="45" y="192.24" style="stroke: #000000; stroke-width: 0.8"/>
      </g>
     </g>
     <g id="text_1">
      <text style="font: 6px 'sans-serif'; text-anchor: middle" x="45" y="203.799062" transform="rotate(-0, 45, 203.799062)">0</text>
     </g>
    </g>
    <g id="xtick_2">
     <g id="line2d_2">
      <g>
       <use xlink:href="#mca94f01d43" x="83.75" y="192.24" style="stroke: #000000; stroke-width: 0.8"/>
      </g>
     </g>
     <g id="text_2">
      <text style="font: 6px 'sans-serif'; text-anchor: middle" x="83.75" y="203.799062" transform="rotate(-0, 83.75, 203.799062)">200</text>
     </g>
    </g>
    <g id="xtick_3">
     <g id="line2d_3">
      <g>
       <use xlink:href="#mca94f01d43" x="122.5" y="192.24" style="stroke: #000000; stroke-width: 0.8"/>
      </g>
     </g>
     <g id="text_3">
      <text style="font: 6px 'sans-serif'; text-anchor: middle" x="122.5" y="203.799062" transform="rotate(-0, 122.5, 203.799062)">400</text>
     </g>
    </g>
    <g id="xtick_4">
     <g id="line2d_4">
      <g>
       <use xlink:href="#mca94f01d43" x="161.25" y="192.24" style="stroke: #000000; stroke-width: 0.8"/>
      </g>
     </g>
     <g id="text_4">
      <text style="font: 6px 'sans-serif'; text-anchor: middle" x="161.25" y="203.799062" transform="rotate(-0, 161.25, 203.799062)">600</text>
     </g>
    </g>
    <g id="xtick_5">
     <g id="line2d_5">
      <g>
       <use xlink:href="#mca94f01d43" x="200" y="192.24" style="stroke: #000000; stroke-width: 0.8"/>
      </g>
     </g>
     <g id="text_5">
      <text style="font: 6px 'sans-serif'; text-anchor: middle" x="200" y="203.799062" transform="rotate(-0, 200, 203.799062)">800</text>
     </g>
    </g>
    <g id="xtick_6">
     <g id="line2d_6">
      <g>
       <use xlink:href="#mca94f01d43" x="238.75" y="192.24" style="stroke: #000000; stroke-width: 0.8"/>
      </g>
     </g>
     <g id="text_6">
      <text style="font: 6px 'sans-serif'; text-anchor: middle" x="238.75" y="203.799062" transform="rotate(-0, 238.75, 203.799062)">1000</text>
     </g>
    </g>
    <g id="xtick_7">
     <g id="line2d_7">
      <g>
       <use xlink:href="#mca94f01d43" x="277.5" y="192.24" style="stroke: #000000; stroke-width: 0.8"/>
      </g>
     </g>
     <g id="text_7">
      <text style="font: 6px 'sans-serif'; text-anchor: middle" x="277.5" y="203.799062" transform="rotate(-0, 277.5, 203.799062)">1200</text>
     </g>
    </g>
    <g id="xtick_8">
     <g id="line2d_8">
      <g>
       <use xlink:href="#mca94f01d43" x="316.25" y="192.24" style="stroke: #000000; stroke-width: 0.8"/>
      </g>
     </g>
     <g id="text_8">
      <text style="font: 6px 'sans-serif'; text-anchor: middle" x="316.25" y="203.799062" transform="rotate(-0, 316.25, 203.799062)">1400</text>
     </g>
    </g>
    <g id="text_9">
     <text style="font: 8px 'sans-serif'; text-anchor: middle" x="184.5" y="215.125625" transform="rotate(-0, 184.5, 215.125625)">Time (min)</text>
    </g>
   </g>
   <g id="matplotlib.axis_2">
    <g id="ytick_1">
     <g id="line2d_9">
      <defs>
       <path id="m26f8f0aa3f" d="M 0 0 
L -3.5 0 
" style="stroke: #000000; stroke-width: 0.8"/>
      </defs>
      <g>
       <use xlink:href="#m26f8f0aa3f" x="45" y="192.24" style="stroke: #000000; stroke-width: 0.8"/>
      </g>
     </g>
     <g id="text_10">
      <text style="font: 6px 'sans-serif'; text-anchor: end" x="38" y="194.519531" transform="rotate(-0, 38, 194.519531)">0.0</text>
     </g>
    </g>
    <g id="ytick_2">
     <g id="line2d_10">
      <g>
       <use xlink:href="#m26f8f0aa3f" x="45" y="158.976" style="stroke: #000000; stroke-width: 0.8"/>
      </g>
     </g>
     <g id="text_11">
      <text style="font: 6px 'sans-serif'; text-anchor: end" x="38" y="161.255531" transform="rotate(-0, 38, 161.255531)">0.2</text>
     </g>
    </g>
    <g id="ytick_3">
     <g id="line2d_11">
      <g>
       <use xlink:href="#m26f8f0aa3f" x="45" y="125.712" style="stroke: #000000; stroke-width: 0.8"/>
      </g>
     </g>
     <g id="text_12">
      <text style="font: 6px 'sans-serif'; text-anchor: end" x="38" y="127.991531" transform="rotate(-0, 38, 127.991531)">0.4</text>
     </g>
    </g>
    <g id="ytick_4">
     <g id="line2d_12">
      <g>
       <use xlink:href="#m26f8f0aa3f" x="45" y="92.448" style="stroke: #000000; stroke-width: 0.8"/>
      </g>
     </g>
     <g id="text_13">
      <text style="font: 6px 'sans-serif'; text-anchor: end" x="38" y="94.727531" transform="rotate(-0, 38, 94.727531)">0.6</text>
     </g>
    </g>
    <g id="ytick_5">
     <g id="line2d_13">
      <g>
       <use xlink:href="#m26f8f0aa3f" x="45" y="59.184" style="stroke: #000000; stroke-width: 0.8"/>
      </g>
     </g>
     <g id="text_14">
      <text style="font: 6px 'sans-serif'; text-anchor: end" x="38" y="61.463531" transform="rotate(-0, 38, 61.463531)">0.8</text>
     </g>
    </g>
    <g id="ytick_6">
     <g id="line2d_14">
      <g>
       <use xlink:href="#m26f8f0aa3f" x="45" y="25.92" style="stroke: #000000; stroke-width: 0.8"/>
      </g>
     </g>
     <g id="text_15">
      <text style="font: 6px 'sans-serif'; text-anchor: end" x="38" y="28.199531" transform="rotate(-0, 38, 28.199531)">1.0</text>
     </g>
    </g>
    <g id="text_16">
     <text style="font: 8px 'sans-serif'; text-anchor: middle" x="22.794375" y="109.08" transform="rotate(-90, 22.794375, 109.08)">Cosine similarity φ</text>
    </g>
   </g>
   <g id="line2d_15">
    <path d="M 45.3875 28.35036 
L 45.775 28.042587 
L 46.55 28.050697 
L 47.325 27.633569 
L 47.7125 27.9083 
L 48.1 27.805408 
L 48.875 28.626876 
L 49.2625 27.893896 
L 49.65 27.901509 
L 50.0375 27.590158 
L 51.2 27.765824 
L 51.5875 28.009923 
L 51.975 28.721321 
L 52.3625 28.321909 
L 52.75 28.304183 
L 53.1375 28.019132 
L 53.525 27.879521 
L 53.9125 27.472554 
L 54.3 27.420846 
L 54.6875 27.683294 
L 55.075 27.757844 
L 55.4625 28.095654 
L 55.85 28.099114 
L 56.2375 27.703439 
L 57.0125 27.788486 
L 57.4 27.617449 
L 57.7875 27.673341 
L 58.175 27.525839 
L 58.5625 27.665183 
L 61.275 27.818891 
L 61.6625 27.411785 
L 62.05 27.36083 
L 62.4375 27.533284 
L 62.825 27.414878 
L 63.2125 27.736014 
L 63.6 27.809255 
L 63.9875 28.096963 
L 64.375 27.786265 
L 64.7625 27.61963 
L 65.925 27.414432 
L 66.7 27.266791 
L 67.0875 27.491301 
L 67.8625 27.444628 
L 68.25 27.517324 
L 68.6375 27.456564 
L 69.4125 27.684058 
L 69.8 27.583773 
L 70.9625 27.701268 
L 72.5125 27.641499 
L 72.9 27.459945 
L 76.3875 27.663359 
L 76.775 27.599238 
L 77.1625 27.696142 
L 77.9375 27.713193 
L 78.325 27.428737 
L 78.7125 27.699503 
L 79.1 27.728916 
L 79.4875 27.906287 
L 80.2625 27.533383 
L 80.65 27.850068 
L 81.425 27.999831 
L 81.8125 27.763217 
L 82.2 28.029065 
L 82.975 27.790875 
L 83.3625 27.969149 
L 83.75 27.728093 
L 84.1375 28.102901 
L 85.3 27.89451 
L 85.6875 28.353493 
L 86.075 28.253496 
L 86.4625 28.012788 
L 87.625 28.436964 
L 88.0125 28.397241 
L 88.4 28.118078 
L 88.7875 28.499766 
L 89.95 28.191458 
L 90.3375 28.575723 
L 90.725 28.640824 
L 91.1125 28.57374 
L 91.5 28.187631 
L 91.8875 28.31715 
L 92.275 28.281036 
L 92.6625 28.386019 
L 93.05 28.123808 
L 93.825 28.53703 
L 94.2125 28.517372 
L 94.9875 28.289809 
L 95.375 28.425544 
L 95.7625 28.992434 
L 96.15 28.725247 
L 96.5375 28.95623 
L 96.925 28.738065 
L 97.7 28.966193 
L 98.0875 29.026646 
L 98.475 29.338215 
L 98.8625 28.991711 
L 99.6375 29.184715 
L 100.025 28.63676 
L 100.4125 28.512049 
L 101.575 28.624854 
L 101.9625 28.965767 
L 103.5125 28.732573 
L 103.9 28.631327 
L 104.675 28.719775 
L 105.0625 28.607872 
L 108.1625 28.829051 
L 109.325 28.577854 
L 110.1 28.1706 
L 110.4875 28.363129 
L 110.875 28.157078 
L 111.2625 28.454759 
L 112.0375 28.508153 
L 112.425 28.09953 
L 112.8125 28.219076 
L 113.5875 28.210224 
L 113.975 28.309517 
L 114.75 28.283078 
L 115.1375 27.961872 
L 115.9125 27.623774 
L 116.3 27.704113 
L 116.6875 27.500966 
L 117.85 27.51086 
L 118.2375 27.698125 
L 118.625 27.53487 
L 119.7875 27.59672 
L 120.175 27.861122 
L 120.5625 27.770305 
L 120.95 27.81898 
L 122.1125 27.561161 
L 123.275 27.710784 
L 123.6625 27.514449 
L 125.2125 27.534216 
L 126.7625 27.314415 
L 128.7 27.271807 
L 129.0875 27.343531 
L 129.475 26.960069 
L 130.6375 27.135319 
L 131.025 27.020898 
L 133.35 27.22225 
L 133.7375 27.10997 
L 134.125 26.81794 
L 134.5125 26.765865 
L 136.0625 27.133366 
L 138.775 26.962696 
L 139.1625 27.126625 
L 139.55 26.93361 
L 140.325 27.106005 
L 141.4875 26.996164 
L 142.2625 27.283019 
L 143.0375 27.345335 
L 143.425 27.129004 
L 146.1375 27.523926 
L 146.525 27.737124 
L 147.6875 27.497784 
L 148.075 27.754067 
L 148.85 27.604433 
L 149.2375 27.852507 
L 149.625 27.646535 
L 150.0125 27.872562 
L 150.4 27.65398 
L 151.95 27.774736 
L 152.725 27.863025 
L 153.5 27.658749 
L 153.8875 27.880146 
L 154.275 27.634213 
L 155.05 27.6288 
L 155.825 27.670655 
L 156.2125 27.449724 
L 156.6 27.669693 
L 156.9875 27.44214 
L 157.375 27.541086 
L 157.7625 27.364171 
L 158.15 27.534176 
L 158.5375 27.569805 
L 158.925 27.488713 
L 159.3125 27.67118 
L 160.0875 27.373142 
L 162.8 27.570757 
L 164.35 27.999751 
L 165.125 27.749715 
L 165.5125 27.838519 
L 165.9 27.707473 
L 166.675 28.062821 
L 167.0625 27.844091 
L 167.45 28.162669 
L 167.8375 28.017972 
L 168.225 28.124066 
L 168.6125 27.883477 
L 170.1625 28.708325 
L 170.55 28.476142 
L 172.4875 28.51766 
L 172.875 28.289432 
L 173.2625 28.400651 
L 173.65 28.387605 
L 174.0375 28.558691 
L 174.425 28.576664 
L 174.8125 28.74436 
L 175.5875 28.610707 
L 176.3625 28.923377 
L 177.1375 28.536981 
L 177.525 28.76495 
L 177.9125 28.794631 
L 178.3 29.034418 
L 179.075 28.552991 
L 179.4625 28.546597 
L 179.85 28.757109 
L 180.2375 28.815182 
L 180.625 28.733098 
L 181.0125 28.913256 
L 181.7875 28.900209 
L 182.175 28.74205 
L 182.5625 28.755751 
L 183.3375 29.08918 
L 183.725 28.955437 
L 184.1125 29.067895 
L 184.8875 28.833264 
L 185.275 29.030611 
L 185.6625 28.901944 
L 186.825 29.106528 
L 187.2125 28.940071 
L 187.6 29.198743 
L 188.375 29.223903 
L 188.7625 28.999988 
L 189.15 29.209955 
L 189.925 28.662267 
L 190.3125 28.627669 
L 191.0875 28.887976 
L 191.8625 28.696439 
L 193.4125 28.707373 
L 193.8 29.173474 
L 194.9625 29.228602 
L 195.35 29.482684 
L 195.7375 29.219224 
L 196.125 29.433226 
L 196.5125 29.345085 
L 197.2875 29.529198 
L 197.675 29.416829 
L 198.0625 29.687396 
L 198.8375 29.140987 
L 199.6125 29.588321 
L 200.775 29.408442 
L 201.1625 29.306264 
L 201.55 29.595856 
L 202.7125 29.922672 
L 203.4875 29.536068 
L 203.875 29.460061 
L 204.2625 29.665597 
L 205.0375 29.679694 
L 205.425 29.984145 
L 205.8125 29.756741 
L 206.2 29.93438 
L 206.5875 29.987893 
L 206.975 30.471272 
L 207.3625 30.375479 
L 207.75 30.098765 
L 208.1375 30.024682 
L 208.525 29.71104 
L 208.9125 29.937126 
L 209.3 30.486063 
L 209.6875 30.420753 
L 210.075 30.523338 
L 210.85 30.353927 
L 211.2375 30.683579 
L 211.625 30.688178 
L 212.0125 31.35225 
L 212.4 31.540675 
L 212.7875 31.335893 
L 213.175 30.981091 
L 214.3375 30.698469 
L 215.8875 31.70274 
L 216.275 31.342793 
L 216.6625 31.810063 
L 217.05 31.691429 
L 217.4375 31.824963 
L 217.825 31.821146 
L 218.2125 31.310644 
L 218.6 31.770261 
L 218.9875 31.881777 
L 219.375 32.216296 
L 219.7625 31.803689 
L 220.15 31.765026 
L 220.5375 32.075535 
L 220.925 31.662313 
L 221.7 32.74959 
L 222.0875 32.700727 
L 222.475 32.17122 
L 222.8625 32.897846 
L 223.25 33.1585 
L 223.6375 33.169761 
L 224.4125 33.361864 
L 224.8 33.213093 
L 225.1875 33.623936 
L 225.575 33.756984 
L 225.9625 33.764885 
L 226.35 33.596525 
L 226.7375 34.147881 
L 227.125 33.948581 
L 227.5125 34.439535 
L 227.9 34.555344 
L 228.675 34.59008 
L 229.0625 35.301093 
L 229.8375 35.661526 
L 230.225 35.407841 
L 230.6125 35.713978 
L 231 35.84314 
L 231.775 36.990046 
L 232.1625 37.017833 
L 233.325 37.826622 
L 233.7125 37.637989 
L 234.1 38.151158 
L 234.4875 38.088793 
L 234.875 38.669284 
L 235.2625 38.109343 
L 235.65 38.63653 
L 236.0375 38.514674 
L 236.425 39.020191 
L 236.8125 39.123727 
L 237.2 39.497156 
L 237.5875 38.967223 
L 237.975 39.165056 
L 238.3625 40.345579 
L 238.75 40.1702 
L 239.525 39.54254 
L 239.9125 38.288469 
L 240.3 39.910924 
L 240.6875 39.827095 
L 241.075 39.114071 
L 241.4625 38.641368 
L 241.85 38.524171 
L 242.2375 38.285485 
L 242.625 39.331056 
L 243.0125 39.46577 
L 243.4 39.830188 
L 243.7875 39.780532 
L 244.175 39.532666 
L 244.5625 40.11983 
L 244.95 38.739501 
L 245.3375 39.082417 
L 245.725 39.720238 
L 246.5 40.291055 
L 246.8875 39.949437 
L 247.6625 40.004616 
L 248.05 38.904838 
L 248.4375 38.700472 
L 249.2125 39.65705 
L 249.6 39.635588 
L 249.9875 38.623593 
L 250.375 38.520018 
L 250.7625 39.408005 
L 251.15 39.508557 
L 251.5375 39.201418 
L 251.925 39.931553 
L 252.3125 39.942617 
L 252.7 39.734266 
L 253.0875 38.946742 
L 253.8625 38.513029 
L 254.25 39.352281 
L 254.6375 39.0214 
L 255.4125 38.678682 
L 255.8 39.915811 
L 256.575 41.308035 
L 256.9625 40.47023 
L 257.35 40.723092 
L 257.7375 40.551134 
L 258.125 39.532319 
L 258.5125 39.751119 
L 258.9 40.709719 
L 259.2875 39.247615 
L 259.675 39.322699 
L 260.0625 39.130636 
L 260.45 39.490177 
L 260.8375 40.968668 
L 261.225 39.014481 
L 261.6125 40.142046 
L 262 39.112207 
L 262.3875 40.991311 
L 262.775 39.979049 
L 263.1625 41.23304 
L 263.55 41.050087 
L 263.9375 39.947445 
L 264.325 40.456242 
L 264.7125 41.261819 
L 265.1 39.153269 
L 265.4875 39.735485 
L 265.875 38.929245 
L 266.2625 38.568921 
L 266.65 37.977386 
L 267.0375 39.007511 
L 267.425 36.552566 
L 267.8125 37.374955 
L 268.2 39.629897 
L 268.5875 38.571954 
L 268.975 38.759556 
L 269.75 36.987825 
L 270.1375 37.41457 
L 270.525 36.798816 
L 270.9125 37.69166 
L 271.3 37.206903 
L 271.6875 38.182465 
L 272.075 37.914118 
L 272.4625 39.934736 
L 272.85 36.806846 
L 273.2375 38.544752 
L 273.625 39.077976 
L 274.0125 38.325645 
L 274.4 36.534513 
L 274.7875 37.613939 
L 275.175 36.291456 
L 275.5625 36.559356 
L 276.3375 38.377363 
L 277.1125 37.797526 
L 277.5 38.167 
L 277.8875 37.778661 
L 278.275 36.921187 
L 278.6625 36.589226 
L 279.4375 37.483488 
L 279.825 37.927808 
L 280.2125 36.083105 
L 280.6 35.909044 
L 280.9875 37.389132 
L 281.375 34.876708 
L 281.7625 37.085572 
L 282.15 34.84787 
L 282.5375 37.87267 
L 282.925 37.305423 
L 283.3125 35.033955 
L 283.7 35.644663 
L 284.0875 36.519009 
L 284.8625 34.782907 
L 285.25 36.353841 
L 285.6375 34.359861 
L 286.025 37.228078 
L 286.4125 34.144729 
L 286.8 33.490868 
L 287.1875 34.303582 
L 287.575 37.427041 
L 287.9625 34.05179 
L 288.35 33.93849 
L 288.7375 34.573773 
L 289.5125 33.410777 
L 289.9 35.191162 
L 290.2875 33.752484 
L 290.675 36.333042 
L 291.0625 33.460553 
L 291.45 35.773062 
L 291.8375 34.555592 
L 292.225 33.797967 
L 293 34.860936 
L 293.775 34.837778 
L 294.1625 34.237687 
L 294.55 35.853073 
L 294.9375 33.715834 
L 295.325 35.540304 
L 295.7125 36.807797 
L 296.1 35.970369 
L 296.4875 34.735977 
L 296.875 34.994093 
L 297.2625 35.567318 
L 297.65 33.90179 
L 298.0375 35.462077 
L 298.425 34.460056 
L 298.8125 32.422367 
L 299.2 35.136866 
L 299.5875 34.252181 
L 299.975 36.187652 
L 300.3625 33.029803 
L 301.525 32.637786 
L 301.9125 33.434867 
L 302.3 36.419101 
L 302.6875 33.910672 
L 303.075 33.132398 
L 303.4625 35.897555 
L 303.85 33.84908 
L 304.2375 32.781987 
L 304.625 33.032074 
L 305.0125 34.712601 
L 305.4 35.094021 
L 305.7875 32.225724 
L 306.175 33.684428 
L 306.5625 32.944241 
L 306.95 33.654539 
L 307.3375 33.40589 
L 307.725 34.213806 
L 308.1125 32.669341 
L 308.5 35.415811 
L 308.8875 32.307768 
L 309.6625 34.575716 
L 310.05 33.696284 
L 310.4375 31.828879 
L 311.2125 34.561103 
L 311.6 34.776751 
L 311.9875 34.368624 
L 312.375 34.584192 
L 312.7625 33.022408 
L 313.15 34.317917 
L 313.5375 34.667663 
L 313.925 33.4333 
L 314.3125 35.676108 
L 314.7 35.669149 
L 315.0875 32.007033 
L 315.475 34.659425 
L 315.8625 33.397681 
L 316.25 33.914033 
L 316.6375 37.263746 
L 317.025 33.577095 
L 317.4125 34.397095 
L 317.8 33.326116 
L 318.1875 34.439971 
L 318.575 34.443362 
L 318.9625 35.96335 
L 319.35 33.580703 
L 319.7375 34.131435 
L 320.125 34.48013 
L 320.9 33.37267 
L 321.2875 34.773638 
L 321.675 34.693012 
L 322.0625 33.064729 
L 322.45 32.42312 
L 322.8375 34.78255 
L 323.225 34.143212 
L 323.6125 36.342024 
L 324 36.726091 
L 324 36.726091 
" clip-path="url(#pc4217a5839)" style="fill: none; stroke: #440154; stroke-linecap: square"/>
   </g>
   <g id="patch_3">
    <path d="M 45 192.24 
L 45 25.92 
" style="fill: none; stroke: #000000; stroke-width: 0.8; stroke-linejoin: miter; stroke-linecap: square"/>
   </g>
   <g id="patch_4">
    <path d="M 324 192.24 
L 324 25.92 
" style="fill: none; stroke: #000000; stroke-width: 0.8; stroke-linejoin: miter; stroke-linecap: square"/>
   </g>
   <g id="patch_5">
    <path d="M 45 192.24 
L 324 192.24 
" style="fill: none; stroke: #000000; stroke-width: 0.8; stroke-linejoin: miter; stroke-linecap: square"/>
   </g>
   <g id="patch_6">
    <path d="M 45 25.92 
L 324 25.92 
" style="fill: none; stroke: #000000; stroke-width: 0.8; stroke-linejoin: miter; stroke-linecap: square"/>
   </g>
   <g id="text_17">
    <text style="font: 8px 'sans-serif'; text-anchor: middle" x="184.5" y="19.92" transform="rotate(-0, 184.5, 19.92)">untreated_Nodal-inh.</text>
   </g>
  </g>
 </g>
 <defs>
  <clipPath id="pc4217a5839">
   <rect x="45" y="25.92" width="279" height="166.32"/>
  </clipPath>
 </defs>
</svg>
