<?xml version="1.0" encoding="utf-8" standalone="no"?>
<!DOCTYPE svg PUBLIC "-//W3C//DTD SVG 1.1//EN"
  "http://www.w3.org/Graphics/SVG/1.1/DTD/svg11.dtd">
<svg xmlns:xlink="http://www.w3.org/1999/xlink" width="360pt" height="216pt" viewBox="0 0 360 216" xmlns="http://www.w3.org/2000/svg" version="1.1">
 <metadata>
  <rdf:RDF xmlns:dc="http://purl.org/dc/elements/1.1/" xmlns:cc="http://creativecommons.org/ns#" xmlns:rdf="http://www.w3.org/1999/02/22-rdf-syntax-ns#">
   <cc:Work>
    <dc:type rdf:resource="http://purl.org/dc/dcmitype/StillImage"/>
    <dc:date>2023-05-16T18:35:19.909526</dc:date>
    <dc:format>image/svg+xml</dc:format>
    <dc:creator>
     <cc:Agent>
      <dc:title>Matplotlib v3.5.1, https://matplotlib.org/</dc:title>
     </cc:Agent>
    </dc:creator>
   </cc:Work>
  </rdf:RDF>
 </metadata>
 <defs>
  <style type="text/css">*{stroke-linejoin: round; stroke-linecap: butt}</style>
 </defs>
 <g id="figure_1">
  <g id="patch_1">
   <path d="M 0 216 
L 360 216 
L 360 0 
L 0 0 
z
" style="fill: #ffffff"/>
  </g>
  <g id="axes_1">
   <g id="patch_2">
    <path d="M 45 192.24 
L 324 192.24 
L 324 25.92 
L 45 25.92 
z
" style="fill: #ffffff"/>
   </g>
   <g id="PolyCollection_1">
    <defs>
     <path id="mea1c45c461" d="M 45.3875 -189.116879 
L 45.3875 -188.007803 
L 45.775 -187.731822 
L 46.1625 -187.912455 
L 46.55 -187.374413 
L 46.9375 -187.606606 
L 47.325 -188.033409 
L 47.7125 -188.029235 
L 48.1 -187.958434 
L 48.4875 -187.779109 
L 48.875 -187.831274 
L 49.2625 -188.143637 
L 49.65 -188.081152 
L 50.0375 -188.411428 
L 50.425 -188.254112 
L 50.8125 -188.818326 
L 51.2 -188.602312 
L 51.5875 -188.246756 
L 51.975 -186.962767 
L 52.3625 -187.012215 
L 52.75 -187.497726 
L 53.1375 -188.133099 
L 53.525 -187.876965 
L 53.9125 -188.227713 
L 54.3 -188.813577 
L 54.6875 -188.658779 
L 55.075 -188.234652 
L 55.4625 -187.940808 
L 55.85 -188.398739 
L 56.2375 -188.332349 
L 56.625 -188.312859 
L 57.0125 -188.329871 
L 57.4 -188.71139 
L 57.7875 -188.843278 
L 58.175 -188.549017 
L 58.5625 -188.388003 
L 58.95 -188.285746 
L 59.3375 -188.3288 
L 59.725 -188.060641 
L 60.1125 -188.023139 
L 60.5 -188.279044 
L 60.8875 -188.740267 
L 61.275 -188.593945 
L 61.6625 -188.560309 
L 62.05 -188.740148 
L 62.4375 -188.460351 
L 62.825 -188.338495 
L 63.2125 -187.726489 
L 63.6 -187.687162 
L 63.9875 -187.610729 
L 64.375 -187.643365 
L 64.7625 -188.014643 
L 65.15 -187.765409 
L 65.5375 -188.229299 
L 65.925 -188.400613 
L 66.3125 -188.471316 
L 66.7 -188.272095 
L 67.0875 -187.723029 
L 67.475 -187.565048 
L 67.8625 -187.545876 
L 68.25 -187.634274 
L 68.6375 -187.661942 
L 69.025 -187.803169 
L 69.4125 -187.813975 
L 69.8 -187.645645 
L 70.1875 -187.323319 
L 70.575 -187.131008 
L 70.9625 -187.236566 
L 71.35 -187.464159 
L 71.7375 -187.329812 
L 72.125 -187.30943 
L 72.5125 -187.27161 
L 72.9 -187.802237 
L 73.2875 -187.77451 
L 73.675 -188.074927 
L 74.0625 -187.715792 
L 74.45 -187.797092 
L 74.8375 -188.016388 
L 75.225 -188.032229 
L 75.6125 -188.12837 
L 76 -187.985973 
L 76.3875 -188.085613 
L 76.775 -187.903325 
L 77.1625 -187.836221 
L 77.55 -187.999793 
L 77.9375 -187.898011 
L 78.325 -188.219921 
L 78.7125 -187.775491 
L 79.1 -187.756873 
L 79.4875 -188.000804 
L 79.875 -188.149456 
L 80.2625 -188.159052 
L 80.65 -187.790936 
L 81.0375 -187.694419 
L 81.425 -187.379488 
L 81.8125 -187.615498 
L 82.2 -187.703946 
L 82.5875 -187.924996 
L 82.975 -187.879433 
L 83.3625 -187.831611 
L 83.75 -188.093623 
L 84.1375 -187.806054 
L 84.525 -187.910819 
L 84.9125 -187.650403 
L 85.3 -187.700545 
L 85.6875 -187.227694 
L 86.075 -187.716159 
L 86.4625 -187.733954 
L 86.85 -187.599805 
L 87.2375 -187.794703 
L 87.625 -187.67481 
L 88.0125 -187.528755 
L 88.4 -187.326323 
L 88.7875 -187.081312 
L 89.175 -186.917849 
L 89.5625 -187.61872 
L 89.95 -187.113412 
L 90.3375 -186.915619 
L 90.725 -186.816643 
L 91.1125 -186.908015 
L 91.5 -187.164743 
L 91.8875 -187.153363 
L 92.275 -187.167301 
L 92.6625 -186.971233 
L 93.05 -187.250386 
L 93.4375 -186.860728 
L 93.825 -186.735868 
L 94.2125 -186.469633 
L 94.6 -186.662994 
L 94.9875 -186.450212 
L 95.375 -186.334542 
L 95.7625 -186.186336 
L 96.15 -186.463853 
L 96.5375 -186.581407 
L 96.925 -186.716943 
L 97.3125 -185.920418 
L 97.7 -186.085189 
L 98.0875 -185.719859 
L 98.475 -185.270136 
L 98.8625 -186.014447 
L 99.25 -185.064352 
L 99.6375 -184.883164 
L 100.025 -185.406019 
L 100.4125 -185.430168 
L 100.8 -185.36928 
L 101.1875 -185.174877 
L 101.575 -185.477257 
L 101.9625 -184.675993 
L 102.35 -185.182114 
L 102.7375 -184.427275 
L 103.125 -184.17589 
L 103.5125 -184.364731 
L 103.9 -184.44955 
L 104.2875 -184.786003 
L 104.675 -184.638808 
L 105.0625 -184.615809 
L 105.45 -184.446011 
L 105.8375 -184.72097 
L 106.225 -185.098464 
L 106.6125 -184.937857 
L 107 -184.521898 
L 107.3875 -184.300105 
L 107.775 -184.526013 
L 108.1625 -184.935507 
L 108.55 -185.408696 
L 108.9375 -185.168949 
L 109.325 -185.68312 
L 109.7125 -186.162544 
L 110.1 -186.423555 
L 110.4875 -186.722009 
L 110.875 -187.079637 
L 111.2625 -186.861342 
L 111.65 -187.371478 
L 112.0375 -187.259813 
L 112.425 -187.62554 
L 112.8125 -187.536349 
L 113.2 -187.495317 
L 113.5875 -187.533643 
L 113.975 -187.574248 
L 114.3625 -188.0092 
L 114.75 -187.489349 
L 115.1375 -188.108533 
L 115.525 -188.417277 
L 115.9125 -188.392702 
L 116.3 -188.362228 
L 116.6875 -188.552695 
L 117.075 -188.293181 
L 117.4625 -188.297473 
L 117.85 -188.371358 
L 118.2375 -188.222994 
L 118.625 -188.522727 
L 119.0125 -188.350292 
L 119.4 -188.277498 
L 119.7875 -188.462453 
L 120.175 -188.482439 
L 120.5625 -188.337326 
L 120.95 -188.37799 
L 121.3375 -188.55445 
L 121.725 -188.599318 
L 122.1125 -188.564403 
L 122.5 -188.335392 
L 122.8875 -188.503128 
L 123.275 -188.746711 
L 123.6625 -188.723087 
L 124.05 -188.995548 
L 124.4375 -188.779862 
L 124.825 -188.990096 
L 125.2125 -189.124056 
L 125.6 -189.228207 
L 125.9875 -189.107283 
L 126.375 -189.079456 
L 126.7625 -189.124681 
L 127.15 -188.947597 
L 127.5375 -189.062484 
L 127.925 -189.195879 
L 128.3125 -189.185431 
L 128.7 -189.190853 
L 129.0875 -189.21641 
L 129.475 -189.404885 
L 129.8625 -189.254022 
L 130.25 -189.414243 
L 130.6375 -189.475349 
L 131.025 -189.398966 
L 131.4125 -189.4707 
L 131.8 -189.268079 
L 132.1875 -189.246527 
L 132.575 -189.325081 
L 132.9625 -189.39165 
L 133.35 -189.479929 
L 133.7375 -189.481971 
L 134.125 -189.510274 
L 134.5125 -189.461361 
L 134.9 -189.316952 
L 135.2875 -189.466447 
L 135.675 -189.49128 
L 136.0625 -189.36415 
L 136.45 -189.079426 
L 136.8375 -189.202541 
L 137.225 -189.319044 
L 137.6125 -189.342023 
L 138 -189.212118 
L 138.3875 -189.282374 
L 138.775 -189.211959 
L 139.1625 -188.96784 
L 139.55 -189.187919 
L 139.9375 -189.030811 
L 140.325 -189.114629 
L 140.7125 -188.977575 
L 141.1 -188.896315 
L 141.4875 -189.185589 
L 141.875 -189.01824 
L 142.2625 -189.257521 
L 142.65 -189.363397 
L 143.0375 -189.477015 
L 143.425 -189.313958 
L 143.8125 -189.518027 
L 144.2 -189.340507 
L 144.5875 -189.267157 
L 144.975 -189.313145 
L 145.3625 -189.213446 
L 145.75 -189.057339 
L 146.1375 -188.91635 
L 146.525 -189.230993 
L 146.9125 -189.284912 
L 147.3 -189.308764 
L 147.6875 -189.304164 
L 148.075 -189.276079 
L 148.4625 -189.437549 
L 148.85 -188.982929 
L 149.2375 -189.016307 
L 149.625 -189.271757 
L 150.0125 -188.808155 
L 150.4 -189.037225 
L 150.7875 -189.047118 
L 151.175 -188.767926 
L 151.5625 -188.625618 
L 151.95 -188.215975 
L 152.3375 -188.069573 
L 152.725 -188.242513 
L 153.1125 -188.279907 
L 153.5 -188.454284 
L 153.8875 -188.48795 
L 154.275 -188.534335 
L 154.6625 -188.508699 
L 155.05 -188.24285 
L 155.4375 -188.341588 
L 155.825 -188.35626 
L 156.2125 -188.43762 
L 156.6 -188.473417 
L 156.9875 -188.861251 
L 157.375 -188.474121 
L 157.7625 -188.407513 
L 158.15 -188.306316 
L 158.5375 -188.256987 
L 158.925 -188.611125 
L 159.3125 -187.593292 
L 159.7 -188.881633 
L 160.0875 -188.380875 
L 160.475 -188.256065 
L 160.8625 -188.752996 
L 161.25 -188.948539 
L 161.6375 -188.808412 
L 162.025 -188.963905 
L 162.4125 -188.920474 
L 162.8 -188.743737 
L 163.1875 -188.67925 
L 163.575 -188.608647 
L 163.9625 -188.620275 
L 164.35 -188.623596 
L 164.7375 -188.573375 
L 165.125 -188.630585 
L 165.5125 -188.603383 
L 165.9 -188.81672 
L 166.2875 -188.670844 
L 166.675 -188.859625 
L 167.0625 -188.753115 
L 167.45 -188.36202 
L 167.8375 -188.032715 
L 168.225 -188.623596 
L 168.6125 -188.594569 
L 169 -188.511703 
L 169.3875 -187.982989 
L 169.775 -188.101594 
L 170.1625 -187.809901 
L 170.55 -187.875964 
L 170.9375 -188.01383 
L 171.325 -187.825633 
L 171.7125 -188.094843 
L 172.1 -187.866923 
L 172.4875 -187.538203 
L 172.875 -187.805192 
L 173.2625 -187.514014 
L 173.65 -187.375513 
L 174.0375 -187.745156 
L 174.425 -187.891597 
L 174.8125 -187.748497 
L 175.2 -187.998563 
L 175.5875 -187.795417 
L 175.975 -187.911573 
L 176.3625 -187.569648 
L 176.75 -187.604206 
L 177.1375 -187.763952 
L 177.525 -188.002053 
L 177.9125 -187.924926 
L 178.3 -187.958344 
L 178.6875 -188.122481 
L 179.075 -188.091135 
L 179.4625 -188.257245 
L 179.85 -187.81685 
L 180.2375 -187.650106 
L 180.625 -187.930458 
L 181.0125 -187.854333 
L 181.4 -187.883101 
L 181.7875 -187.99552 
L 182.175 -187.707713 
L 182.5625 -187.763079 
L 182.95 -187.678081 
L 183.3375 -187.522371 
L 183.725 -187.697581 
L 184.1125 -187.710142 
L 184.5 -187.836697 
L 184.8875 -187.718925 
L 185.275 -187.603255 
L 185.6625 -188.029662 
L 186.05 -187.504636 
L 186.4375 -187.290357 
L 186.825 -187.421254 
L 187.2125 -187.575041 
L 187.6 -187.494365 
L 187.9875 -187.809296 
L 188.375 -187.446781 
L 188.7625 -187.307051 
L 189.15 -187.399752 
L 189.5375 -187.410537 
L 189.925 -187.324766 
L 190.3125 -187.113392 
L 190.7 -187.062913 
L 191.0875 -187.088697 
L 191.475 -187.210207 
L 191.8625 -187.170959 
L 192.25 -187.396401 
L 192.6375 -187.353258 
L 193.025 -187.140624 
L 193.4125 -186.60963 
L 193.8 -186.734569 
L 194.1875 -186.363985 
L 194.575 -186.220458 
L 194.9625 -186.624629 
L 195.35 -186.521163 
L 195.7375 -186.753236 
L 196.125 -186.472775 
L 196.5125 -186.387728 
L 196.9 -186.43896 
L 197.2875 -185.62007 
L 197.675 -186.610156 
L 198.0625 -186.121096 
L 198.45 -186.553114 
L 198.8375 -186.510545 
L 199.225 -186.257356 
L 199.6125 -186.356411 
L 200 -186.572068 
L 200.3875 -185.994521 
L 200.775 -186.286521 
L 201.1625 -186.22029 
L 201.55 -186.21223 
L 201.9375 -186.363172 
L 202.325 -186.161087 
L 202.7125 -186.371817 
L 203.1 -186.092347 
L 203.4875 -186.243467 
L 203.875 -186.219397 
L 204.2625 -186.588564 
L 204.65 -186.656213 
L 205.0375 -186.697354 
L 205.425 -186.089908 
L 205.8125 -186.700537 
L 206.2 -186.103767 
L 206.5875 -186.330012 
L 206.975 -186.27409 
L 207.3625 -186.020187 
L 207.75 -186.411044 
L 208.1375 -186.423595 
L 208.525 -186.524761 
L 208.9125 -186.38064 
L 209.3 -186.01979 
L 209.6875 -185.892551 
L 210.075 -185.168533 
L 210.4625 -184.688256 
L 210.85 -184.791861 
L 211.2375 -184.90086 
L 211.625 -184.477258 
L 212.0125 -184.90774 
L 212.4 -184.169366 
L 212.7875 -184.503717 
L 213.175 -184.639046 
L 213.5625 -184.808992 
L 213.95 -184.385202 
L 214.3375 -184.474383 
L 214.725 -184.101033 
L 215.1125 -183.526618 
L 215.5 -183.393719 
L 215.8875 -182.642795 
L 216.275 -183.450096 
L 216.6625 -183.771837 
L 217.05 -183.276334 
L 217.4375 -183.330223 
L 217.825 -183.302465 
L 218.2125 -183.698845 
L 218.6 -183.11065 
L 218.9875 -181.792995 
L 219.375 -181.904581 
L 219.7625 -183.306936 
L 220.15 -183.184525 
L 220.5375 -182.954652 
L 220.925 -182.418692 
L 221.3125 -182.608009 
L 221.7 -182.234996 
L 222.0875 -182.503363 
L 222.475 -183.656038 
L 222.8625 -183.290619 
L 223.25 -183.692867 
L 223.6375 -182.973062 
L 224.025 -182.588608 
L 224.4125 -182.107043 
L 224.8 -181.77866 
L 225.1875 -181.270398 
L 225.575 -180.61964 
L 225.9625 -182.17032 
L 226.35 -182.16003 
L 226.7375 -181.940963 
L 227.125 -181.86569 
L 227.5125 -182.221979 
L 227.9 -182.662037 
L 228.2875 -182.314462 
L 228.675 -182.187768 
L 229.0625 -182.01692 
L 229.45 -182.263983 
L 229.8375 -181.990828 
L 230.225 -181.810571 
L 230.6125 -182.23332 
L 231 -181.758674 
L 231.3875 -181.651778 
L 231.775 -182.640178 
L 232.1625 -182.504731 
L 232.55 -182.302556 
L 232.9375 -181.623643 
L 233.325 -181.051558 
L 233.7125 -181.379931 
L 234.1 -181.879212 
L 234.4875 -181.702515 
L 234.875 -181.465118 
L 235.2625 -181.854994 
L 235.65 -182.136634 
L 236.0375 -182.991332 
L 236.425 -183.153347 
L 236.8125 -182.817262 
L 237.2 -183.05452 
L 237.5875 -183.167653 
L 237.975 -182.950251 
L 238.3625 -182.594705 
L 238.75 -183.100578 
L 239.1375 -183.576334 
L 239.525 -183.84139 
L 239.9125 -183.93307 
L 240.3 -183.972406 
L 240.6875 -183.347611 
L 241.075 -183.598996 
L 241.4625 -183.560988 
L 241.85 -183.605807 
L 242.2375 -183.313311 
L 242.625 -184.298281 
L 243.0125 -184.091298 
L 243.4 -184.122169 
L 243.7875 -184.306003 
L 244.175 -183.617763 
L 244.5625 -184.481898 
L 244.95 -185.000381 
L 245.3375 -184.785745 
L 245.725 -184.218497 
L 246.1125 -184.379343 
L 246.5 -184.276214 
L 246.8875 -183.619031 
L 247.275 -183.758821 
L 247.6625 -184.263693 
L 248.05 -183.869148 
L 248.4375 -184.467959 
L 248.825 -183.002614 
L 249.2125 -183.253979 
L 249.6 -182.496324 
L 249.9875 -183.94676 
L 250.375 -183.162656 
L 250.7625 -183.216437 
L 251.15 -182.938622 
L 251.5375 -182.867335 
L 251.925 -182.486639 
L 252.3125 -181.941974 
L 252.7 -181.786849 
L 253.0875 -182.616733 
L 253.475 -182.577644 
L 253.8625 -182.869516 
L 254.25 -182.733493 
L 254.6375 -182.625328 
L 255.025 -182.982013 
L 255.4125 -182.723689 
L 255.8 -182.879707 
L 256.1875 -181.807181 
L 256.575 -182.170162 
L 256.9625 -183.130398 
L 257.35 -182.000949 
L 257.7375 -181.740087 
L 258.125 -181.670455 
L 258.5125 -182.363722 
L 258.9 -182.871171 
L 259.2875 -183.16331 
L 259.675 -181.327598 
L 260.0625 -183.582659 
L 260.45 -181.780325 
L 260.8375 -181.679317 
L 261.225 -182.504483 
L 261.6125 -183.256913 
L 262 -183.087413 
L 262.3875 -180.245328 
L 262.775 -182.88164 
L 263.1625 -182.428734 
L 263.55 -182.121982 
L 263.9375 -183.05913 
L 264.325 -181.57139 
L 264.7125 -180.874465 
L 265.1 -179.89346 
L 265.4875 -179.006107 
L 265.875 -178.556196 
L 266.2625 -179.523748 
L 266.65 -179.217502 
L 267.0375 -179.935681 
L 267.425 -181.257272 
L 267.8125 -179.918184 
L 268.2 -177.949404 
L 268.5875 -177.680561 
L 268.975 -178.804052 
L 269.3625 -179.96441 
L 269.75 -180.409712 
L 270.1375 -179.852775 
L 270.525 -181.019806 
L 270.9125 -178.107335 
L 271.3 -179.35054 
L 271.6875 -179.858584 
L 272.075 -179.147731 
L 272.4625 -177.235497 
L 272.85 -179.425258 
L 273.2375 -176.905786 
L 273.625 -177.564762 
L 274.0125 -179.790965 
L 274.4 -179.266355 
L 274.7875 -178.460154 
L 275.175 -183.122308 
L 275.5625 -178.498103 
L 275.95 -178.01509 
L 276.3375 -179.104935 
L 276.725 -177.867073 
L 277.1125 -179.52005 
L 277.5 -175.693699 
L 277.8875 -178.662418 
L 278.275 -180.282731 
L 278.6625 -177.813223 
L 279.05 -176.73805 
L 279.4375 -178.166855 
L 279.825 -177.437563 
L 280.2125 -178.766975 
L 280.6 -177.731774 
L 280.9875 -176.486685 
L 281.375 -177.505658 
L 281.7625 -174.915662 
L 282.15 -175.589122 
L 282.5375 -180.765298 
L 282.925 -178.790094 
L 283.3125 -179.421481 
L 283.7 -177.445414 
L 284.0875 -179.573533 
L 284.475 -178.855116 
L 284.8625 -181.731849 
L 285.25 -179.557642 
L 285.6375 -180.177103 
L 286.025 -179.696281 
L 286.4125 -180.292922 
L 286.8 -180.621553 
L 287.1875 -180.602182 
L 287.575 -176.500742 
L 287.9625 -181.698143 
L 288.35 -179.619066 
L 288.7375 -178.054665 
L 289.125 -175.617385 
L 289.5125 -180.693743 
L 289.9 -179.505765 
L 290.2875 -180.146243 
L 290.675 -178.138324 
L 291.0625 -178.487149 
L 291.45 -176.672324 
L 291.8375 -178.773637 
L 292.225 -180.488148 
L 292.6125 -177.785981 
L 293 -178.563799 
L 293.3875 -178.400039 
L 293.775 -176.581547 
L 294.1625 -177.244885 
L 294.55 -178.49615 
L 294.9375 -177.595533 
L 295.325 -178.338229 
L 295.7125 -174.633228 
L 296.1 -177.048282 
L 296.4875 -176.611842 
L 296.875 -177.286046 
L 297.2625 -176.820897 
L 297.65 -176.928398 
L 298.0375 -176.997227 
L 298.425 -178.520359 
L 298.8125 -178.885689 
L 299.2 -177.928209 
L 299.5875 -177.213271 
L 299.975 -178.017152 
L 300.3625 -178.752829 
L 300.75 -176.899659 
L 301.1375 -177.832009 
L 301.525 -180.573631 
L 301.9125 -178.622883 
L 302.3 -175.368042 
L 302.6875 -174.994949 
L 303.075 -178.945497 
L 303.4625 -175.325464 
L 303.85 -177.818407 
L 304.2375 -179.923121 
L 304.625 -179.28869 
L 305.0125 -175.137505 
L 305.4 -175.841577 
L 305.7875 -180.371764 
L 306.175 -177.638072 
L 306.5625 -180.666094 
L 306.95 -178.760076 
L 307.3375 -178.32669 
L 307.725 -172.875594 
L 308.1125 -179.479167 
L 308.5 -173.146161 
L 308.8875 -180.564223 
L 309.275 -174.570773 
L 309.6625 -179.40206 
L 310.05 -177.357184 
L 310.4375 -179.665738 
L 310.825 -177.999417 
L 311.2125 -174.850015 
L 311.6 -176.46199 
L 311.9875 -175.849677 
L 312.375 -176.088967 
L 312.7625 -176.130554 
L 313.15 -174.49894 
L 313.5375 -176.046845 
L 313.925 -178.578491 
L 314.3125 -175.05669 
L 314.7 -174.192644 
L 315.0875 -179.64037 
L 315.475 -174.806733 
L 315.8625 -175.271842 
L 316.25 -177.107058 
L 316.6375 -170.519069 
L 317.025 -179.446919 
L 317.4125 -176.014587 
L 317.8 -177.991744 
L 318.1875 -176.175056 
L 318.575 -176.674812 
L 318.9625 -175.777527 
L 319.35 -178.029167 
L 319.7375 -179.100246 
L 320.125 -176.086876 
L 320.5125 -176.795271 
L 320.9 -177.613784 
L 321.2875 -175.43696 
L 321.675 -176.280793 
L 322.0625 -177.141845 
L 322.45 -177.702747 
L 322.8375 -177.84334 
L 323.225 -176.47126 
L 323.6125 -171.334995 
L 324 -171.324269 
L 324 -179.668415 
L 324 -179.668415 
L 323.6125 -181.682668 
L 323.225 -183.125203 
L 322.8375 -183.190116 
L 322.45 -187.034173 
L 322.0625 -184.693233 
L 321.675 -181.599098 
L 321.2875 -182.601605 
L 320.9 -185.629617 
L 320.5125 -185.073136 
L 320.125 -184.193575 
L 319.7375 -184.976202 
L 319.35 -185.821967 
L 318.9625 -182.561832 
L 318.575 -184.950833 
L 318.1875 -184.949247 
L 317.8 -185.631064 
L 317.4125 -184.290747 
L 317.025 -186.21798 
L 316.6375 -182.970811 
L 316.25 -185.880913 
L 315.8625 -186.984239 
L 315.475 -185.995839 
L 315.0875 -189.84297 
L 314.7 -183.214157 
L 314.3125 -183.387354 
L 313.925 -186.003958 
L 313.5375 -184.656057 
L 313.15 -184.199721 
L 312.7625 -187.832067 
L 312.375 -184.784486 
L 311.9875 -185.683397 
L 311.6 -187.223491 
L 311.2125 -184.074178 
L 310.825 -186.59709 
L 310.4375 -187.943028 
L 310.05 -187.070338 
L 309.6625 -186.231155 
L 309.275 -186.472299 
L 308.8875 -187.994628 
L 308.5 -183.474801 
L 308.1125 -187.011819 
L 307.725 -186.637081 
L 307.3375 -187.573871 
L 306.95 -187.304057 
L 306.5625 -186.530531 
L 306.175 -184.94555 
L 305.7875 -186.768176 
L 305.4 -186.30617 
L 305.0125 -186.682088 
L 304.625 -188.161124 
L 304.2375 -187.147345 
L 303.85 -187.691821 
L 303.4625 -185.457757 
L 303.075 -186.320247 
L 302.6875 -187.45381 
L 302.3 -187.369218 
L 301.9125 -187.447336 
L 301.525 -187.700089 
L 301.1375 -188.743479 
L 300.75 -188.040705 
L 300.3625 -185.994184 
L 299.975 -186.843488 
L 299.5875 -185.634127 
L 299.2 -185.233684 
L 298.8125 -186.664253 
L 298.425 -187.061207 
L 298.0375 -187.206548 
L 297.65 -187.636544 
L 297.2625 -186.716854 
L 296.875 -187.975673 
L 296.4875 -188.973868 
L 296.1 -187.911196 
L 295.7125 -186.125091 
L 295.325 -187.522539 
L 294.9375 -186.561847 
L 294.55 -188.217214 
L 294.1625 -187.054873 
L 293.775 -187.130126 
L 293.3875 -188.99428 
L 293 -186.444928 
L 292.6125 -188.48689 
L 292.225 -186.54328 
L 291.8375 -186.715278 
L 291.45 -187.921546 
L 291.0625 -186.343018 
L 290.675 -186.108178 
L 290.2875 -188.303243 
L 289.9 -185.956939 
L 289.5125 -186.759165 
L 289.125 -187.327284 
L 288.7375 -186.970737 
L 288.35 -185.042572 
L 287.9625 -186.020762 
L 287.575 -186.972373 
L 287.1875 -187.853391 
L 286.8 -187.792106 
L 286.4125 -186.100614 
L 286.025 -187.329971 
L 285.6375 -186.212884 
L 285.25 -186.196914 
L 284.8625 -188.539669 
L 284.475 -187.434885 
L 284.0875 -186.234277 
L 283.7 -185.897518 
L 283.3125 -185.779548 
L 282.925 -185.381047 
L 282.5375 -187.697095 
L 282.15 -187.148039 
L 281.7625 -186.776662 
L 281.375 -187.470613 
L 280.9875 -185.881339 
L 280.6 -187.255442 
L 280.2125 -186.608807 
L 279.825 -187.270252 
L 279.4375 -186.987501 
L 279.05 -187.14796 
L 278.6625 -187.724863 
L 278.275 -187.748744 
L 277.8875 -188.252903 
L 277.5 -186.494674 
L 277.1125 -187.916302 
L 276.725 -187.382393 
L 276.3375 -187.845301 
L 275.95 -187.368623 
L 275.5625 -188.420509 
L 275.175 -188.530449 
L 274.7875 -186.711015 
L 274.4 -187.686161 
L 274.0125 -186.994074 
L 273.625 -188.116038 
L 273.2375 -187.769136 
L 272.85 -187.78473 
L 272.4625 -185.98433 
L 272.075 -185.673454 
L 271.6875 -185.885185 
L 271.3 -185.562443 
L 270.9125 -186.441964 
L 270.525 -186.144838 
L 270.1375 -186.656412 
L 269.75 -187.323071 
L 269.3625 -187.786991 
L 268.975 -185.774532 
L 268.5875 -185.25477 
L 268.2 -184.58009 
L 267.8125 -186.577739 
L 267.425 -188.008625 
L 267.0375 -185.999914 
L 266.65 -186.669755 
L 266.2625 -186.086627 
L 265.875 -184.500674 
L 265.4875 -185.333958 
L 265.1 -185.089532 
L 264.7125 -184.892681 
L 264.325 -186.248969 
L 263.9375 -187.019928 
L 263.55 -186.435738 
L 263.1625 -186.056361 
L 262.775 -186.993637 
L 262.3875 -186.341481 
L 262 -187.344405 
L 261.6125 -187.417467 
L 261.225 -186.778307 
L 260.8375 -186.826992 
L 260.45 -187.35073 
L 260.0625 -187.648619 
L 259.675 -187.355726 
L 259.2875 -186.954668 
L 258.9 -187.325817 
L 258.5125 -187.508958 
L 258.125 -187.396778 
L 257.7375 -187.130046 
L 257.35 -187.607379 
L 256.9625 -187.879235 
L 256.575 -187.629297 
L 256.1875 -187.187921 
L 255.8 -188.224976 
L 255.4125 -188.141049 
L 255.025 -187.980412 
L 254.6375 -187.649521 
L 254.25 -187.63016 
L 253.8625 -188.198151 
L 253.475 -188.353098 
L 253.0875 -188.604334 
L 252.7 -188.825513 
L 252.3125 -188.490994 
L 251.925 -188.687102 
L 251.5375 -188.614178 
L 251.15 -188.534484 
L 250.7625 -188.739296 
L 250.375 -188.686646 
L 249.9875 -188.634154 
L 249.6 -188.495425 
L 249.2125 -188.17765 
L 248.825 -188.296452 
L 248.4375 -188.538301 
L 248.05 -188.181238 
L 247.6625 -188.068691 
L 247.275 -188.522945 
L 246.8875 -188.687359 
L 246.5 -188.905634 
L 246.1125 -188.505061 
L 245.725 -188.979846 
L 245.3375 -188.567902 
L 244.95 -188.475479 
L 244.5625 -188.272878 
L 244.175 -188.725447 
L 243.7875 -188.437174 
L 243.4 -188.353881 
L 243.0125 -188.614704 
L 242.625 -188.638189 
L 242.2375 -188.848899 
L 241.85 -188.778444 
L 241.4625 -188.746354 
L 241.075 -189.012966 
L 240.6875 -188.594084 
L 240.3 -188.739702 
L 239.9125 -189.563212 
L 239.525 -188.959701 
L 239.1375 -188.889564 
L 238.75 -189.167586 
L 238.3625 -189.238973 
L 237.975 -189.151467 
L 237.5875 -188.962854 
L 237.2 -189.033953 
L 236.8125 -189.156315 
L 236.425 -189.135536 
L 236.0375 -188.982483 
L 235.65 -189.2118 
L 235.2625 -189.806429 
L 234.875 -189.548937 
L 234.4875 -189.558444 
L 234.1 -189.32982 
L 233.7125 -189.715195 
L 233.325 -189.631129 
L 232.9375 -189.750269 
L 232.55 -189.705658 
L 232.1625 -189.650401 
L 231.775 -189.837834 
L 231.3875 -190.342449 
L 231 -190.501143 
L 230.6125 -190.370623 
L 230.225 -190.255369 
L 229.8375 -190.33426 
L 229.45 -190.582413 
L 229.0625 -190.500171 
L 228.675 -190.356486 
L 228.2875 -190.504414 
L 227.9 -190.551384 
L 227.5125 -190.45334 
L 227.125 -190.625795 
L 226.7375 -190.412933 
L 226.35 -190.511235 
L 225.9625 -190.608168 
L 225.575 -190.894905 
L 225.1875 -190.817045 
L 224.8 -190.686881 
L 224.4125 -190.486907 
L 224.025 -190.407818 
L 223.6375 -190.265381 
L 223.25 -190.260008 
L 222.8625 -190.478719 
L 222.475 -190.377245 
L 222.0875 -190.300396 
L 221.7 -190.468052 
L 221.3125 -190.396854 
L 220.925 -190.414559 
L 220.5375 -190.387218 
L 220.15 -190.133334 
L 219.7625 -190.135694 
L 219.375 -190.605591 
L 218.9875 -190.702445 
L 218.6 -190.085314 
L 218.2125 -190.177191 
L 217.825 -190.18875 
L 217.4375 -190.066409 
L 217.05 -190.086999 
L 216.6625 -190.026864 
L 216.275 -189.884874 
L 215.8875 -190.169399 
L 215.5 -190.328649 
L 215.1125 -190.090746 
L 214.725 -190.140274 
L 214.3375 -190.318973 
L 213.95 -190.276802 
L 213.5625 -190.160557 
L 213.175 -190.180403 
L 212.7875 -190.102999 
L 212.4 -190.37897 
L 212.0125 -190.068203 
L 211.625 -190.0296 
L 211.2375 -190.288559 
L 210.85 -190.363366 
L 210.4625 -190.193608 
L 210.075 -189.834295 
L 209.6875 -189.693802 
L 209.3 -189.581869 
L 208.9125 -189.52677 
L 208.525 -189.5692 
L 208.1375 -189.782408 
L 207.75 -189.651531 
L 207.3625 -189.771038 
L 206.975 -189.61849 
L 206.5875 -189.742338 
L 206.2 -189.618836 
L 205.8125 -189.593636 
L 205.425 -189.783717 
L 205.0375 -189.717604 
L 204.65 -189.81777 
L 204.2625 -189.878202 
L 203.875 -189.957698 
L 203.4875 -189.792718 
L 203.1 -189.985356 
L 202.7125 -190.014849 
L 202.325 -189.733357 
L 201.9375 -189.825383 
L 201.55 -189.881374 
L 201.1625 -190.052153 
L 200.775 -190.064119 
L 200.3875 -189.9895 
L 200 -189.89557 
L 199.6125 -189.926956 
L 199.225 -189.984157 
L 198.8375 -189.854846 
L 198.45 -189.928007 
L 198.0625 -189.865661 
L 197.675 -189.905464 
L 197.2875 -189.96771 
L 196.9 -189.905315 
L 196.5125 -189.831857 
L 196.125 -189.868665 
L 195.7375 -189.927977 
L 195.35 -189.961207 
L 194.9625 -189.962783 
L 194.575 -189.973272 
L 194.1875 -189.963973 
L 193.8 -189.817928 
L 193.4125 -190.069165 
L 193.025 -189.903085 
L 192.6375 -189.874841 
L 192.25 -190.030264 
L 191.8625 -189.998769 
L 191.475 -190.031176 
L 191.0875 -189.816758 
L 190.7 -190.005461 
L 190.3125 -189.993902 
L 189.925 -189.738155 
L 189.5375 -189.781774 
L 189.15 -189.81655 
L 188.7625 -189.696548 
L 188.375 -189.603074 
L 187.9875 -189.664537 
L 187.6 -189.588125 
L 187.2125 -189.519563 
L 186.825 -189.411239 
L 186.4375 -189.618291 
L 186.05 -189.657776 
L 185.6625 -189.476926 
L 185.275 -189.669514 
L 184.8875 -189.652859 
L 184.5 -189.728043 
L 184.1125 -189.67344 
L 183.725 -189.572531 
L 183.3375 -189.667997 
L 182.95 -189.625697 
L 182.5625 -189.634539 
L 182.175 -189.614465 
L 181.7875 -189.555975 
L 181.4 -189.529249 
L 181.0125 -189.403051 
L 180.625 -189.4627 
L 180.2375 -189.391442 
L 179.85 -189.471146 
L 179.4625 -189.585825 
L 179.075 -189.592229 
L 178.6875 -189.509273 
L 178.3 -189.628958 
L 177.9125 -189.495355 
L 177.525 -189.522716 
L 177.1375 -189.636324 
L 176.75 -189.722432 
L 176.3625 -189.652463 
L 175.975 -189.604868 
L 175.5875 -189.579302 
L 175.2 -189.632795 
L 174.8125 -189.622237 
L 174.425 -189.567743 
L 174.0375 -189.573155 
L 173.65 -189.697143 
L 173.2625 -189.571054 
L 172.875 -189.675938 
L 172.4875 -189.703953 
L 172.1 -189.725376 
L 171.7125 -189.754631 
L 171.325 -189.798349 
L 170.9375 -189.752985 
L 170.55 -189.746829 
L 170.1625 -189.724563 
L 169.775 -189.777739 
L 169.3875 -189.850682 
L 169 -189.823648 
L 168.6125 -189.834583 
L 168.225 -189.770026 
L 167.8375 -189.832362 
L 167.45 -189.72262 
L 167.0625 -189.749634 
L 166.675 -189.713331 
L 166.2875 -189.750616 
L 165.9 -189.782726 
L 165.5125 -189.754809 
L 165.125 -189.775429 
L 164.7375 -189.785313 
L 164.35 -189.813566 
L 163.9625 -189.811851 
L 163.575 -189.784956 
L 163.1875 -189.763662 
L 162.8 -189.863361 
L 162.4125 -189.850434 
L 162.025 -189.958342 
L 161.6375 -189.887927 
L 161.25 -189.776312 
L 160.8625 -189.907754 
L 160.475 -190.04219 
L 160.0875 -190.104347 
L 159.7 -189.96089 
L 159.3125 -190.232608 
L 158.925 -189.993475 
L 158.5375 -190.074518 
L 158.15 -190.094057 
L 157.7625 -190.056396 
L 157.375 -190.006204 
L 156.9875 -189.713589 
L 156.6 -189.705698 
L 156.2125 -189.831192 
L 155.825 -189.759389 
L 155.4375 -189.67457 
L 155.05 -189.718526 
L 154.6625 -189.666252 
L 154.275 -189.756425 
L 153.8875 -189.720965 
L 153.5 -189.707879 
L 153.1125 -189.747394 
L 152.725 -189.701891 
L 152.3375 -189.878142 
L 151.95 -189.911095 
L 151.5625 -189.79366 
L 151.175 -189.822399 
L 150.7875 -189.840174 
L 150.4 -189.811722 
L 150.0125 -189.696221 
L 149.625 -189.741515 
L 149.2375 -189.848184 
L 148.85 -189.84746 
L 148.4625 -189.870707 
L 148.075 -189.795603 
L 147.6875 -189.938367 
L 147.3 -189.886242 
L 146.9125 -189.962456 
L 146.525 -189.855956 
L 146.1375 -189.87046 
L 145.75 -189.845379 
L 145.3625 -189.826711 
L 144.975 -189.843098 
L 144.5875 -189.839956 
L 144.2 -189.802156 
L 143.8125 -189.883218 
L 143.425 -189.891833 
L 143.0375 -189.779553 
L 142.65 -189.861944 
L 142.2625 -189.869557 
L 141.875 -189.924567 
L 141.4875 -189.923546 
L 141.1 -189.889979 
L 140.7125 -189.906485 
L 140.325 -189.860655 
L 139.9375 -189.841453 
L 139.55 -189.844665 
L 139.1625 -189.901766 
L 138.775 -189.784659 
L 138.3875 -189.881285 
L 138 -189.853755 
L 137.6125 -189.802661 
L 137.225 -189.794592 
L 136.8375 -189.720856 
L 136.45 -189.812902 
L 136.0625 -189.95517 
L 135.675 -189.862321 
L 135.2875 -189.919333 
L 134.9 -189.872085 
L 134.5125 -189.834384 
L 134.125 -189.857503 
L 133.7375 -189.88872 
L 133.35 -189.841532 
L 132.9625 -189.877964 
L 132.575 -189.879322 
L 132.1875 -189.8269 
L 131.8 -189.840382 
L 131.4125 -189.81087 
L 131.025 -189.73981 
L 130.6375 -189.760777 
L 130.25 -189.786156 
L 129.8625 -189.740851 
L 129.475 -189.80055 
L 129.0875 -189.692255 
L 128.7 -189.760519 
L 128.3125 -189.735666 
L 127.925 -189.611788 
L 127.5375 -189.724088 
L 127.15 -189.694833 
L 126.7625 -189.699562 
L 126.375 -189.650014 
L 125.9875 -189.588759 
L 125.6 -189.692236 
L 125.2125 -189.605176 
L 124.825 -189.559247 
L 124.4375 -189.500648 
L 124.05 -189.54852 
L 123.6625 -189.590534 
L 123.275 -189.514607 
L 122.8875 -189.502879 
L 122.5 -189.512634 
L 122.1125 -189.512862 
L 121.725 -189.473981 
L 121.3375 -189.538696 
L 120.95 -189.541849 
L 120.5625 -189.488197 
L 120.175 -189.469778 
L 119.7875 -189.379486 
L 119.4 -189.497565 
L 119.0125 -189.371853 
L 118.625 -189.49125 
L 118.2375 -189.286984 
L 117.85 -189.208529 
L 117.4625 -189.375818 
L 117.075 -189.179681 
L 116.6875 -189.153668 
L 116.3 -189.093761 
L 115.9125 -189.070385 
L 115.525 -189.154382 
L 115.1375 -189.01367 
L 114.75 -188.729719 
L 114.3625 -188.896454 
L 113.975 -188.623447 
L 113.5875 -188.723732 
L 113.2 -188.796635 
L 112.8125 -188.791807 
L 112.425 -188.967305 
L 112.0375 -188.73535 
L 111.65 -188.845469 
L 111.2625 -188.784927 
L 110.875 -189.024813 
L 110.4875 -188.562341 
L 110.1 -188.937307 
L 109.7125 -188.522994 
L 109.325 -188.628523 
L 108.9375 -188.446076 
L 108.55 -188.404658 
L 108.1625 -188.213725 
L 107.775 -188.236674 
L 107.3875 -187.859091 
L 107 -188.290792 
L 106.6125 -187.905347 
L 106.225 -188.143894 
L 105.8375 -188.28418 
L 105.45 -188.163354 
L 105.0625 -188.756476 
L 104.675 -188.370545 
L 104.2875 -188.322683 
L 103.9 -188.56476 
L 103.5125 -188.175935 
L 103.125 -188.352106 
L 102.7375 -188.873236 
L 102.35 -188.464495 
L 101.9625 -188.723236 
L 101.575 -188.421669 
L 101.1875 -188.565136 
L 100.8 -188.778652 
L 100.4125 -188.915755 
L 100.025 -188.952276 
L 99.6375 -188.847273 
L 99.25 -188.711449 
L 98.8625 -188.6403 
L 98.475 -188.496149 
L 98.0875 -188.654278 
L 97.7 -188.69417 
L 97.3125 -188.549305 
L 96.925 -188.80634 
L 96.5375 -188.706651 
L 96.15 -188.719558 
L 95.7625 -188.47769 
L 95.375 -188.756258 
L 94.9875 -188.910352 
L 94.6 -188.78576 
L 94.2125 -188.806172 
L 93.825 -188.911274 
L 93.4375 -188.963964 
L 93.05 -189.097399 
L 92.6625 -188.842515 
L 92.275 -188.982988 
L 91.8875 -188.804526 
L 91.5 -188.798856 
L 91.1125 -188.66095 
L 90.725 -188.7549 
L 90.3375 -188.528179 
L 89.95 -188.621088 
L 89.5625 -188.760749 
L 89.175 -188.641044 
L 88.7875 -188.524967 
L 88.4 -188.581979 
L 88.0125 -188.859814 
L 87.625 -188.782241 
L 87.2375 -188.79949 
L 86.85 -188.788665 
L 86.4625 -188.846738 
L 86.075 -188.721719 
L 85.6875 -188.718616 
L 85.3 -188.840591 
L 84.9125 -188.649837 
L 84.525 -188.895006 
L 84.1375 -188.879343 
L 83.75 -189.183785 
L 83.3625 -188.889891 
L 82.975 -188.817106 
L 82.5875 -188.911998 
L 82.2 -188.758875 
L 81.8125 -188.827099 
L 81.425 -188.812021 
L 81.0375 -188.932806 
L 80.65 -188.970438 
L 80.2625 -189.20841 
L 79.875 -189.117405 
L 79.4875 -188.959711 
L 79.1 -188.916072 
L 78.7125 -188.895254 
L 78.325 -189.000247 
L 77.9375 -188.833979 
L 77.55 -188.72617 
L 77.1625 -188.912008 
L 76.775 -188.958631 
L 76.3875 -189.013333 
L 76 -189.017883 
L 75.6125 -189.037671 
L 75.225 -189.155244 
L 74.8375 -189.070702 
L 74.45 -189.031911 
L 74.0625 -188.87053 
L 73.675 -189.050806 
L 73.2875 -189.009784 
L 72.9 -188.903859 
L 72.5125 -188.655349 
L 72.125 -188.526444 
L 71.7375 -188.594669 
L 71.35 -188.788179 
L 70.9625 -188.93815 
L 70.575 -188.996183 
L 70.1875 -189.076194 
L 69.8 -189.158416 
L 69.4125 -189.152488 
L 69.025 -189.089399 
L 68.6375 -189.195869 
L 68.25 -189.13049 
L 67.8625 -189.160439 
L 67.475 -189.41454 
L 67.0875 -189.339218 
L 66.7 -189.374986 
L 66.3125 -189.282493 
L 65.925 -189.384562 
L 65.5375 -189.226532 
L 65.15 -189.321483 
L 64.7625 -189.231003 
L 64.375 -189.127685 
L 63.9875 -188.884171 
L 63.6 -188.919562 
L 63.2125 -189.088596 
L 62.825 -189.378911 
L 62.4375 -189.330256 
L 62.05 -189.417673 
L 61.6625 -189.463721 
L 61.275 -189.34013 
L 60.8875 -189.332992 
L 60.5 -189.268624 
L 60.1125 -189.070137 
L 59.725 -189.15225 
L 59.3375 -189.218234 
L 58.95 -189.28397 
L 58.5625 -189.521942 
L 58.175 -189.469302 
L 57.7875 -189.514676 
L 57.4 -189.523162 
L 57.0125 -189.291633 
L 56.625 -189.229853 
L 56.2375 -189.19464 
L 55.85 -189.149901 
L 55.4625 -189.070762 
L 55.075 -189.296045 
L 54.6875 -189.341855 
L 54.3 -189.390778 
L 53.9125 -189.142684 
L 53.525 -189.002518 
L 53.1375 -188.977466 
L 52.75 -188.659364 
L 52.3625 -188.633797 
L 51.975 -188.594679 
L 51.5875 -189.185302 
L 51.2 -189.198011 
L 50.8125 -189.312491 
L 50.425 -189.188177 
L 50.0375 -189.072397 
L 49.65 -188.923993 
L 49.2625 -189.085513 
L 48.875 -189.137648 
L 48.4875 -188.946655 
L 48.1 -189.008545 
L 47.7125 -189.157941 
L 47.325 -189.079496 
L 46.9375 -188.796893 
L 46.55 -188.780655 
L 46.1625 -189.250314 
L 45.775 -189.51079 
L 45.3875 -189.116879 
z
" style="stroke: #c2df23; stroke-opacity: 0.1"/>
    </defs>
    <g clip-path="url(#p99a7e2577c)">
     <use xlink:href="#mea1c45c461" x="0" y="216" style="fill: #c2df23; fill-opacity: 0.1; stroke: #c2df23; stroke-opacity: 0.1"/>
    </g>
   </g>
   <g id="matplotlib.axis_1">
    <g id="xtick_1">
     <g id="line2d_1">
      <defs>
       <path id="mee04970e67" d="M 0 0 
L 0 3.5 
" style="stroke: #000000; stroke-width: 0.8"/>
      </defs>
      <g>
       <use xlink:href="#mee04970e67" x="45" y="192.24" style="stroke: #000000; stroke-width: 0.8"/>
      </g>
     </g>
     <g id="text_1">
      <text style="font: 6px 'sans-serif'; text-anchor: middle" x="45" y="203.799062" transform="rotate(-0, 45, 203.799062)">0</text>
     </g>
    </g>
    <g id="xtick_2">
     <g id="line2d_2">
      <g>
       <use xlink:href="#mee04970e67" x="83.75" y="192.24" style="stroke: #000000; stroke-width: 0.8"/>
      </g>
     </g>
     <g id="text_2">
      <text style="font: 6px 'sans-serif'; text-anchor: middle" x="83.75" y="203.799062" transform="rotate(-0, 83.75, 203.799062)">200</text>
     </g>
    </g>
    <g id="xtick_3">
     <g id="line2d_3">
      <g>
       <use xlink:href="#mee04970e67" x="122.5" y="192.24" style="stroke: #000000; stroke-width: 0.8"/>
      </g>
     </g>
     <g id="text_3">
      <text style="font: 6px 'sans-serif'; text-anchor: middle" x="122.5" y="203.799062" transform="rotate(-0, 122.5, 203.799062)">400</text>
     </g>
    </g>
    <g id="xtick_4">
     <g id="line2d_4">
      <g>
       <use xlink:href="#mee04970e67" x="161.25" y="192.24" style="stroke: #000000; stroke-width: 0.8"/>
      </g>
     </g>
     <g id="text_4">
      <text style="font: 6px 'sans-serif'; text-anchor: middle" x="161.25" y="203.799062" transform="rotate(-0, 161.25, 203.799062)">600</text>
     </g>
    </g>
    <g id="xtick_5">
     <g id="line2d_5">
      <g>
       <use xlink:href="#mee04970e67" x="200" y="192.24" style="stroke: #000000; stroke-width: 0.8"/>
      </g>
     </g>
     <g id="text_5">
      <text style="font: 6px 'sans-serif'; text-anchor: middle" x="200" y="203.799062" transform="rotate(-0, 200, 203.799062)">800</text>
     </g>
    </g>
    <g id="xtick_6">
     <g id="line2d_6">
      <g>
       <use xlink:href="#mee04970e67" x="238.75" y="192.24" style="stroke: #000000; stroke-width: 0.8"/>
      </g>
     </g>
     <g id="text_6">
      <text style="font: 6px 'sans-serif'; text-anchor: middle" x="238.75" y="203.799062" transform="rotate(-0, 238.75, 203.799062)">1000</text>
     </g>
    </g>
    <g id="xtick_7">
     <g id="line2d_7">
      <g>
       <use xlink:href="#mee04970e67" x="277.5" y="192.24" style="stroke: #000000; stroke-width: 0.8"/>
      </g>
     </g>
     <g id="text_7">
      <text style="font: 6px 'sans-serif'; text-anchor: middle" x="277.5" y="203.799062" transform="rotate(-0, 277.5, 203.799062)">1200</text>
     </g>
    </g>
    <g id="xtick_8">
     <g id="line2d_8">
      <g>
       <use xlink:href="#mee04970e67" x="316.25" y="192.24" style="stroke: #000000; stroke-width: 0.8"/>
      </g>
     </g>
     <g id="text_8">
      <text style="font: 6px 'sans-serif'; text-anchor: middle" x="316.25" y="203.799062" transform="rotate(-0, 316.25, 203.799062)">1400</text>
     </g>
    </g>
    <g id="text_9">
     <text style="font: 8px 'sans-serif'; text-anchor: middle" x="184.5" y="215.125625" transform="rotate(-0, 184.5, 215.125625)">Time (min)</text>
    </g>
   </g>
   <g id="matplotlib.axis_2">
    <g id="ytick_1">
     <g id="line2d_9">
      <defs>
       <path id="ma416a3a201" d="M 0 0 
L -3.5 0 
" style="stroke: #000000; stroke-width: 0.8"/>
      </defs>
      <g>
       <use xlink:href="#ma416a3a201" x="45" y="192.24" style="stroke: #000000; stroke-width: 0.8"/>
      </g>
     </g>
     <g id="text_10">
      <text style="font: 6px 'sans-serif'; text-anchor: end" x="38" y="194.519531" transform="rotate(-0, 38, 194.519531)">0.0</text>
     </g>
    </g>
    <g id="ytick_2">
     <g id="line2d_10">
      <g>
       <use xlink:href="#ma416a3a201" x="45" y="158.976" style="stroke: #000000; stroke-width: 0.8"/>
      </g>
     </g>
     <g id="text_11">
      <text style="font: 6px 'sans-serif'; text-anchor: end" x="38" y="161.255531" transform="rotate(-0, 38, 161.255531)">0.2</text>
     </g>
    </g>
    <g id="ytick_3">
     <g id="line2d_11">
      <g>
       <use xlink:href="#ma416a3a201" x="45" y="125.712" style="stroke: #000000; stroke-width: 0.8"/>
      </g>
     </g>
     <g id="text_12">
      <text style="font: 6px 'sans-serif'; text-anchor: end" x="38" y="127.991531" transform="rotate(-0, 38, 127.991531)">0.4</text>
     </g>
    </g>
    <g id="ytick_4">
     <g id="line2d_12">
      <g>
       <use xlink:href="#ma416a3a201" x="45" y="92.448" style="stroke: #000000; stroke-width: 0.8"/>
      </g>
     </g>
     <g id="text_13">
      <text style="font: 6px 'sans-serif'; text-anchor: end" x="38" y="94.727531" transform="rotate(-0, 38, 94.727531)">0.6</text>
     </g>
    </g>
    <g id="ytick_5">
     <g id="line2d_13">
      <g>
       <use xlink:href="#ma416a3a201" x="45" y="59.184" style="stroke: #000000; stroke-width: 0.8"/>
      </g>
     </g>
     <g id="text_14">
      <text style="font: 6px 'sans-serif'; text-anchor: end" x="38" y="61.463531" transform="rotate(-0, 38, 61.463531)">0.8</text>
     </g>
    </g>
    <g id="ytick_6">
     <g id="line2d_14">
      <g>
       <use xlink:href="#ma416a3a201" x="45" y="25.92" style="stroke: #000000; stroke-width: 0.8"/>
      </g>
     </g>
     <g id="text_15">
      <text style="font: 6px 'sans-serif'; text-anchor: end" x="38" y="28.199531" transform="rotate(-0, 38, 28.199531)">1.0</text>
     </g>
    </g>
    <g id="text_16">
     <text style="font: 8px 'sans-serif'; text-anchor: middle" x="22.794375" y="109.08" transform="rotate(-90, 22.794375, 109.08)">Cosine similarity φ</text>
    </g>
   </g>
   <g id="line2d_15">
    <path d="M 45.3875 27.437659 
L 46.1625 27.418615 
L 46.55 27.922466 
L 46.9375 27.798251 
L 47.325 27.443548 
L 47.7125 27.406412 
L 48.4875 27.637118 
L 49.2625 27.385425 
L 49.65 27.497427 
L 50.0375 27.258087 
L 50.425 27.278856 
L 50.8125 26.934591 
L 51.5875 27.283971 
L 51.975 28.221277 
L 52.3625 28.176994 
L 52.75 27.921455 
L 53.1375 27.444718 
L 53.525 27.560259 
L 53.9125 27.314802 
L 54.3 26.897823 
L 54.6875 26.999683 
L 55.4625 27.494215 
L 55.85 27.22568 
L 57.0125 27.189248 
L 57.4 26.882724 
L 57.7875 26.821023 
L 58.95 27.215142 
L 59.3375 27.226483 
L 60.1125 27.453362 
L 60.8875 26.96337 
L 61.275 27.032963 
L 62.05 26.921089 
L 62.4375 27.104696 
L 62.825 27.141297 
L 63.2125 27.592458 
L 63.9875 27.75255 
L 64.7625 27.377177 
L 65.15 27.456554 
L 65.925 27.107413 
L 66.7 27.17646 
L 67.0875 27.468877 
L 68.6375 27.571094 
L 69.8 27.597969 
L 70.575 27.936405 
L 71.35 27.873831 
L 72.125 28.082063 
L 72.5125 28.03652 
L 72.9 27.646952 
L 73.2875 27.607853 
L 73.675 27.437134 
L 74.0625 27.706839 
L 75.225 27.406263 
L 76.3875 27.450527 
L 77.1625 27.625886 
L 77.9375 27.634005 
L 78.325 27.389916 
L 78.7125 27.664627 
L 79.1 27.663527 
L 80.2625 27.316269 
L 80.65 27.619313 
L 81.0375 27.686387 
L 81.425 27.904245 
L 82.5875 27.581503 
L 83.3625 27.639249 
L 83.75 27.361296 
L 84.1375 27.657301 
L 84.525 27.597087 
L 84.9125 27.84988 
L 85.3 27.729432 
L 85.6875 28.026845 
L 86.075 27.781061 
L 86.4625 27.709654 
L 86.85 27.805765 
L 87.2375 27.702903 
L 88.0125 27.805716 
L 88.7875 28.19686 
L 89.175 28.220554 
L 89.5625 27.810266 
L 89.95 28.13275 
L 90.3375 28.278101 
L 92.275 27.924855 
L 92.6625 28.093126 
L 93.05 27.826108 
L 93.4375 28.087654 
L 94.6 28.275623 
L 95.375 28.4546 
L 95.7625 28.667987 
L 96.15 28.408294 
L 96.925 28.238358 
L 97.3125 28.765139 
L 97.7 28.61032 
L 98.475 29.116858 
L 98.8625 28.672626 
L 99.25 29.112099 
L 99.6375 29.134781 
L 100.025 28.820852 
L 100.8 28.926034 
L 101.1875 29.129993 
L 101.575 29.050537 
L 101.9625 29.300385 
L 102.35 29.176695 
L 102.7375 29.349744 
L 103.125 29.736002 
L 103.5125 29.729667 
L 103.9 29.492845 
L 105.0625 29.313858 
L 105.45 29.695317 
L 106.225 29.378821 
L 106.6125 29.578398 
L 107 29.593655 
L 107.3875 29.920402 
L 108.55 29.093323 
L 108.9375 29.192488 
L 109.325 28.844179 
L 109.7125 28.657231 
L 110.1 28.319569 
L 110.4875 28.357825 
L 110.875 27.947775 
L 111.2625 28.176865 
L 111.65 27.891526 
L 112.0375 28.002418 
L 112.425 27.703577 
L 113.2 27.854024 
L 113.975 27.901152 
L 114.3625 27.547173 
L 114.75 27.890466 
L 115.1375 27.438898 
L 115.525 27.21417 
L 116.3 27.272005 
L 116.6875 27.146818 
L 117.075 27.263569 
L 117.4625 27.163354 
L 118.2375 27.245011 
L 118.625 26.993011 
L 119.0125 27.138927 
L 122.1125 26.961368 
L 122.5 27.075987 
L 124.05 26.727966 
L 124.4375 26.859745 
L 125.6 26.539779 
L 125.9875 26.651979 
L 134.5125 26.352127 
L 134.9 26.405481 
L 135.675 26.3232 
L 136.0625 26.34034 
L 136.45 26.553836 
L 138.775 26.501691 
L 139.1625 26.565197 
L 139.55 26.483708 
L 139.9375 26.563868 
L 140.7125 26.55797 
L 141.1 26.606853 
L 141.4875 26.445432 
L 141.875 26.528596 
L 142.65 26.38733 
L 144.2 26.428669 
L 146.525 26.456526 
L 147.3 26.402497 
L 148.4625 26.345872 
L 148.85 26.584806 
L 149.625 26.493364 
L 150.0125 26.747812 
L 150.4 26.575527 
L 150.7875 26.556354 
L 151.95 26.936465 
L 152.725 27.027798 
L 154.6625 26.912524 
L 155.05 27.019312 
L 156.6 26.910442 
L 156.9875 26.71258 
L 158.5375 26.834248 
L 158.925 26.6977 
L 159.3125 27.08705 
L 159.7 26.578738 
L 160.475 26.850872 
L 160.8625 26.669625 
L 162.4125 26.614546 
L 163.575 26.803199 
L 165.125 26.796993 
L 165.5125 26.820904 
L 165.9 26.700277 
L 166.2875 26.78927 
L 167.0625 26.748625 
L 167.8375 27.067461 
L 168.225 26.803189 
L 169 26.832324 
L 169.3875 27.083164 
L 169.775 27.060334 
L 170.1625 27.232768 
L 171.7125 27.075263 
L 172.4875 27.378922 
L 172.875 27.259435 
L 173.2625 27.457466 
L 173.65 27.463672 
L 174.425 27.27033 
L 174.8125 27.314633 
L 175.2 27.184321 
L 175.5875 27.312641 
L 175.975 27.241779 
L 176.3625 27.388944 
L 178.6875 27.184123 
L 179.4625 27.078465 
L 179.85 27.356002 
L 180.2375 27.479226 
L 180.625 27.303421 
L 181.0125 27.371308 
L 181.7875 27.224252 
L 182.175 27.338911 
L 182.95 27.348111 
L 183.725 27.364944 
L 184.5 27.21763 
L 185.275 27.363616 
L 185.6625 27.246706 
L 186.4375 27.545676 
L 186.825 27.583754 
L 187.2125 27.452698 
L 187.6 27.458755 
L 187.9875 27.263083 
L 188.375 27.475072 
L 188.7625 27.498201 
L 189.15 27.391849 
L 191.8625 27.415136 
L 192.25 27.286667 
L 194.575 27.903135 
L 194.9625 27.706294 
L 195.35 27.758815 
L 195.7375 27.659393 
L 196.5125 27.890208 
L 196.9 27.827862 
L 197.2875 28.20611 
L 197.675 27.74219 
L 198.0625 28.006621 
L 198.45 27.75944 
L 199.6125 27.858316 
L 200 27.766181 
L 200.3875 28.00799 
L 200.775 27.82468 
L 202.325 28.052778 
L 202.7125 27.806667 
L 203.1 27.961148 
L 203.875 27.911452 
L 204.2625 27.766617 
L 205.0375 27.792521 
L 205.425 28.063188 
L 205.8125 27.852913 
L 206.2 28.138698 
L 206.5875 27.963825 
L 207.3625 28.104388 
L 208.1375 27.896999 
L 208.9125 28.046295 
L 209.3 28.19917 
L 209.6875 28.206823 
L 210.075 28.498586 
L 210.4625 28.559068 
L 210.85 28.422381 
L 211.2375 28.405291 
L 211.625 28.746571 
L 212.0125 28.512029 
L 212.4 28.725832 
L 213.175 28.590276 
L 213.5625 28.515221 
L 213.95 28.668998 
L 214.3375 28.603322 
L 215.1125 29.191318 
L 215.5 29.138816 
L 215.8875 29.593903 
L 216.6625 29.100649 
L 217.05 29.318329 
L 217.825 29.254397 
L 218.2125 29.061987 
L 218.9875 29.75228 
L 219.375 29.744914 
L 219.7625 29.278685 
L 220.5375 29.329065 
L 220.925 29.583375 
L 221.3125 29.497564 
L 221.7 29.648476 
L 222.0875 29.598116 
L 222.475 28.983363 
L 222.8625 29.115331 
L 223.25 29.023562 
L 223.6375 29.380774 
L 225.1875 29.956279 
L 225.575 30.242728 
L 225.9625 29.610756 
L 227.125 29.754253 
L 227.5125 29.662335 
L 227.9 29.393284 
L 228.675 29.727873 
L 229.0625 29.741454 
L 229.45 29.576802 
L 230.225 29.967025 
L 230.6125 29.698024 
L 231.3875 30.002882 
L 231.775 29.760994 
L 232.9375 30.313044 
L 233.325 30.658656 
L 233.7125 30.452437 
L 234.4875 30.369521 
L 234.875 30.492973 
L 235.2625 30.169289 
L 235.65 30.325783 
L 236.0375 30.013093 
L 236.425 29.855558 
L 236.8125 30.013212 
L 237.975 29.949141 
L 238.3625 30.083161 
L 239.1375 29.767051 
L 239.525 29.599454 
L 239.9125 29.251859 
L 240.6875 30.029152 
L 241.075 29.694019 
L 241.4625 29.846329 
L 241.85 29.807874 
L 242.2375 29.918895 
L 242.625 29.531765 
L 243.4 29.761975 
L 243.7875 29.628411 
L 244.175 29.828395 
L 244.5625 29.622612 
L 244.95 29.26207 
L 246.5 29.409076 
L 246.8875 29.846805 
L 248.05 29.974807 
L 248.4375 29.49687 
L 248.825 30.350467 
L 249.2125 30.284186 
L 249.6 30.504125 
L 249.9875 29.709543 
L 250.375 30.075349 
L 250.7625 30.022134 
L 251.15 30.263447 
L 251.5375 30.259244 
L 251.925 30.41313 
L 252.3125 30.783516 
L 252.7 30.693819 
L 253.0875 30.389467 
L 253.475 30.534629 
L 253.8625 30.466167 
L 254.25 30.818173 
L 254.6375 30.862576 
L 255.025 30.518787 
L 255.4125 30.567631 
L 255.8 30.447658 
L 256.1875 31.502449 
L 256.575 31.10027 
L 256.9625 30.495184 
L 257.35 31.195836 
L 257.7375 31.564933 
L 258.125 31.466384 
L 258.5125 31.06366 
L 258.9 30.901506 
L 259.2875 30.941011 
L 259.675 31.658338 
L 260.0625 30.384361 
L 260.45 31.434472 
L 260.8375 31.746845 
L 261.225 31.358605 
L 261.6125 30.66281 
L 262 30.784091 
L 262.3875 32.706595 
L 262.775 31.062361 
L 263.1625 31.757452 
L 263.55 31.72114 
L 263.9375 30.960471 
L 264.7125 33.116427 
L 265.4875 33.829967 
L 265.875 34.471565 
L 266.2625 33.194813 
L 267.0375 33.032203 
L 267.425 31.367051 
L 267.8125 32.752039 
L 268.2 34.735253 
L 268.5875 34.532335 
L 268.975 33.710708 
L 269.3625 32.1243 
L 269.75 32.133608 
L 270.1375 32.745407 
L 270.525 32.417678 
L 270.9125 33.725351 
L 271.3 33.543508 
L 271.6875 33.128115 
L 272.075 33.589407 
L 272.4625 34.390087 
L 272.85 32.395006 
L 273.2375 33.662539 
L 274.0125 32.607481 
L 274.4 32.523742 
L 274.7875 33.414415 
L 275.175 30.173621 
L 275.5625 32.540694 
L 275.95 33.308143 
L 276.3375 32.524882 
L 276.725 33.375267 
L 277.1125 32.281824 
L 277.5 34.905814 
L 277.8875 32.54234 
L 278.275 31.984262 
L 278.6625 33.230957 
L 279.05 34.056995 
L 279.4375 33.422822 
L 279.825 33.646093 
L 280.2125 33.312109 
L 280.6 33.506392 
L 280.9875 34.815988 
L 281.375 33.511865 
L 281.7625 35.153838 
L 282.15 34.63142 
L 282.5375 31.768803 
L 282.925 33.91443 
L 283.3125 33.399486 
L 283.7 34.328534 
L 284.0875 33.096095 
L 284.475 32.855 
L 284.8625 30.864241 
L 285.25 33.122722 
L 286.025 32.486874 
L 286.4125 32.803232 
L 286.8 31.793171 
L 287.1875 31.772214 
L 287.575 34.263442 
L 287.9625 32.140548 
L 288.35 33.669181 
L 288.7375 33.487299 
L 289.125 34.527665 
L 289.5125 32.273546 
L 289.9 33.268648 
L 290.2875 31.775257 
L 290.675 33.876749 
L 291.0625 33.584917 
L 291.45 33.703065 
L 291.8375 33.255542 
L 292.225 32.484286 
L 292.6125 32.863565 
L 293 33.495636 
L 293.3875 32.302841 
L 293.775 34.144164 
L 294.1625 33.850121 
L 294.55 32.643318 
L 294.9375 33.92131 
L 295.325 33.069616 
L 295.7125 35.620841 
L 296.1 33.520261 
L 296.4875 33.207145 
L 296.875 33.369141 
L 297.2625 34.231125 
L 297.65 33.717529 
L 298.0375 33.898112 
L 298.425 33.209217 
L 298.8125 33.225029 
L 299.2 34.419054 
L 299.5875 34.576301 
L 299.975 33.56968 
L 300.3625 33.626494 
L 300.75 33.529818 
L 301.525 31.86314 
L 301.9125 32.96489 
L 302.3 34.63137 
L 302.6875 34.775621 
L 303.075 33.367128 
L 303.4625 35.60839 
L 303.85 33.244886 
L 304.2375 32.464767 
L 304.625 32.275093 
L 305.0125 35.090204 
L 305.4 34.926126 
L 305.7875 32.43003 
L 306.175 34.708189 
L 306.5625 32.401688 
L 306.95 32.967934 
L 307.3375 33.04972 
L 307.725 36.243663 
L 308.1125 32.754507 
L 308.5 37.689519 
L 308.8875 31.720574 
L 309.275 35.478464 
L 309.6625 33.183392 
L 310.05 33.786239 
L 310.4375 32.195617 
L 310.825 33.701747 
L 311.2125 36.537904 
L 311.6 34.157259 
L 311.9875 35.233463 
L 312.375 35.563273 
L 312.7625 34.018689 
L 313.15 36.650669 
L 313.5375 35.648549 
L 313.925 33.708775 
L 314.3125 36.777978 
L 314.7 37.2966 
L 315.0875 31.25833 
L 315.475 35.598714 
L 315.8625 34.871959 
L 316.25 34.506014 
L 316.6375 39.25506 
L 317.025 33.167551 
L 317.4125 35.847333 
L 317.8 34.188596 
L 318.1875 35.437849 
L 318.575 35.187177 
L 318.9625 36.830321 
L 319.35 34.074433 
L 319.7375 33.961776 
L 320.125 35.859775 
L 320.9 34.3783 
L 321.2875 36.980718 
L 321.675 37.060055 
L 322.45 33.63154 
L 322.8375 35.483272 
L 323.225 36.201769 
L 323.6125 39.491168 
L 324 40.503658 
L 324 40.503658 
" clip-path="url(#p99a7e2577c)" style="fill: none; stroke: #c2df23; stroke-linecap: square"/>
   </g>
   <g id="patch_3">
    <path d="M 45 192.24 
L 45 25.92 
" style="fill: none; stroke: #000000; stroke-width: 0.8; stroke-linejoin: miter; stroke-linecap: square"/>
   </g>
   <g id="patch_4">
    <path d="M 324 192.24 
L 324 25.92 
" style="fill: none; stroke: #000000; stroke-width: 0.8; stroke-linejoin: miter; stroke-linecap: square"/>
   </g>
   <g id="patch_5">
    <path d="M 45 192.24 
L 324 192.24 
" style="fill: none; stroke: #000000; stroke-width: 0.8; stroke-linejoin: miter; stroke-linecap: square"/>
   </g>
   <g id="patch_6">
    <path d="M 45 25.92 
L 324 25.92 
" style="fill: none; stroke: #000000; stroke-width: 0.8; stroke-linejoin: miter; stroke-linecap: square"/>
   </g>
   <g id="text_17">
    <text style="font: 8px 'sans-serif'; text-anchor: middle" x="184.5" y="19.92" transform="rotate(-0, 184.5, 19.92)">untreated_untreated</text>
   </g>
  </g>
 </g>
 <defs>
  <clipPath id="p99a7e2577c">
   <rect x="45" y="25.92" width="279" height="166.32"/>
  </clipPath>
 </defs>
</svg>
