<?xml version="1.0" encoding="utf-8" standalone="no"?>
<!DOCTYPE svg PUBLIC "-//W3C//DTD SVG 1.1//EN"
  "http://www.w3.org/Graphics/SVG/1.1/DTD/svg11.dtd">
<svg xmlns:xlink="http://www.w3.org/1999/xlink" width="360pt" height="216pt" viewBox="0 0 360 216" xmlns="http://www.w3.org/2000/svg" version="1.1">
 <metadata>
  <rdf:RDF xmlns:dc="http://purl.org/dc/elements/1.1/" xmlns:cc="http://creativecommons.org/ns#" xmlns:rdf="http://www.w3.org/1999/02/22-rdf-syntax-ns#">
   <cc:Work>
    <dc:type rdf:resource="http://purl.org/dc/dcmitype/StillImage"/>
    <dc:date>2023-05-16T18:35:21.348183</dc:date>
    <dc:format>image/svg+xml</dc:format>
    <dc:creator>
     <cc:Agent>
      <dc:title>Matplotlib v3.5.1, https://matplotlib.org/</dc:title>
     </cc:Agent>
    </dc:creator>
   </cc:Work>
  </rdf:RDF>
 </metadata>
 <defs>
  <style type="text/css">*{stroke-linejoin: round; stroke-linecap: butt}</style>
 </defs>
 <g id="figure_1">
  <g id="patch_1">
   <path d="M 0 216 
L 360 216 
L 360 0 
L 0 0 
z
" style="fill: #ffffff"/>
  </g>
  <g id="axes_1">
   <g id="patch_2">
    <path d="M 45 192.24 
L 324 192.24 
L 324 25.92 
L 45 25.92 
z
" style="fill: #ffffff"/>
   </g>
   <g id="PolyCollection_1">
    <defs>
     <path id="mbb7e1f8177" d="M 45.3875 -188.84762 
L 45.3875 -185.411481 
L 45.775 -185.903704 
L 46.1625 -185.390088 
L 46.55 -184.660627 
L 46.9375 -185.359535 
L 47.325 -185.513897 
L 47.7125 -185.944002 
L 48.1 -186.346884 
L 48.4875 -186.394003 
L 48.875 -184.884602 
L 49.2625 -186.464339 
L 49.65 -186.15043 
L 50.0375 -186.934266 
L 50.425 -186.644208 
L 50.8125 -187.038753 
L 51.2 -186.550824 
L 51.5875 -186.352079 
L 51.975 -186.229202 
L 52.3625 -186.572752 
L 52.75 -186.166866 
L 53.1375 -186.286224 
L 53.525 -185.795429 
L 53.9125 -185.823028 
L 54.3 -186.092813 
L 54.6875 -185.922638 
L 55.075 -185.891441 
L 55.4625 -185.9774 
L 55.85 -185.78732 
L 56.2375 -186.288395 
L 56.625 -186.696551 
L 57.0125 -185.999428 
L 57.4 -186.300242 
L 57.7875 -186.344594 
L 58.175 -186.729751 
L 58.5625 -186.963203 
L 58.95 -186.629804 
L 59.3375 -186.801634 
L 59.725 -186.548722 
L 60.1125 -186.030269 
L 60.5 -185.356977 
L 60.8875 -185.424161 
L 61.275 -185.56048 
L 61.6625 -185.936587 
L 62.05 -186.450698 
L 62.4375 -185.975289 
L 62.825 -185.311742 
L 63.2125 -185.095094 
L 63.6 -185.199641 
L 63.9875 -185.253649 
L 64.375 -185.576094 
L 64.7625 -185.404245 
L 65.15 -185.585591 
L 65.5375 -185.869096 
L 65.925 -185.845274 
L 66.3125 -186.195466 
L 66.7 -185.922817 
L 67.0875 -185.395679 
L 67.475 -185.59832 
L 67.8625 -185.134589 
L 68.25 -185.918842 
L 68.6375 -186.197548 
L 69.025 -186.086825 
L 69.4125 -186.53057 
L 69.8 -186.110012 
L 70.1875 -186.045079 
L 70.575 -184.858371 
L 70.9625 -184.571029 
L 71.35 -184.693332 
L 71.7375 -185.119094 
L 72.125 -185.001382 
L 72.5125 -185.069259 
L 72.9 -185.570691 
L 73.2875 -186.165904 
L 73.675 -186.063816 
L 74.0625 -185.368854 
L 74.45 -185.84684 
L 74.8375 -185.993916 
L 75.225 -184.793338 
L 75.6125 -185.760207 
L 76 -186.030289 
L 76.3875 -185.986134 
L 76.775 -186.423228 
L 77.1625 -186.02443 
L 77.55 -186.307746 
L 77.9375 -185.684845 
L 78.325 -186.031468 
L 78.7125 -185.692319 
L 79.1 -186.176898 
L 79.4875 -186.074661 
L 79.875 -186.304673 
L 80.2625 -186.632312 
L 80.65 -186.340153 
L 81.0375 -186.245172 
L 81.425 -186.046775 
L 81.8125 -186.348857 
L 82.2 -186.36003 
L 82.5875 -186.83184 
L 82.975 -186.707684 
L 83.3625 -186.575181 
L 83.75 -186.774402 
L 84.1375 -186.66693 
L 84.525 -186.39322 
L 84.9125 -186.662608 
L 85.3 -186.496022 
L 85.6875 -186.402915 
L 86.075 -186.313486 
L 86.4625 -186.43322 
L 86.85 -186.055806 
L 87.2375 -186.215412 
L 87.625 -186.463506 
L 88.0125 -186.369199 
L 88.4 -185.966813 
L 88.7875 -186.055895 
L 89.175 -186.112758 
L 89.5625 -186.100436 
L 89.95 -186.025203 
L 90.3375 -185.920834 
L 90.725 -185.803915 
L 91.1125 -185.630479 
L 91.5 -185.919982 
L 91.8875 -185.496648 
L 92.275 -185.163596 
L 92.6625 -184.985659 
L 93.05 -185.071282 
L 93.4375 -184.697287 
L 93.825 -184.532317 
L 94.2125 -183.600553 
L 94.6 -184.10827 
L 94.9875 -183.332602 
L 95.375 -183.313965 
L 95.7625 -182.325743 
L 96.15 -182.046938 
L 96.5375 -181.103832 
L 96.925 -180.593349 
L 97.3125 -180.566811 
L 97.7 -180.503999 
L 98.0875 -180.331813 
L 98.475 -180.588779 
L 98.8625 -180.702437 
L 99.25 -180.298751 
L 99.6375 -180.501828 
L 100.025 -180.675244 
L 100.4125 -180.853577 
L 100.8 -180.483498 
L 101.1875 -180.424949 
L 101.575 -180.37331 
L 101.9625 -180.929336 
L 102.35 -181.018487 
L 102.7375 -180.458933 
L 103.125 -181.043489 
L 103.5125 -180.919819 
L 103.9 -180.705728 
L 104.2875 -181.646425 
L 104.675 -181.505178 
L 105.0625 -181.926053 
L 105.45 -182.583314 
L 105.8375 -182.582026 
L 106.225 -183.948118 
L 106.6125 -184.117569 
L 107 -184.067476 
L 107.3875 -184.369697 
L 107.775 -184.542489 
L 108.1625 -184.437565 
L 108.55 -184.53892 
L 108.9375 -184.556467 
L 109.325 -184.406337 
L 109.7125 -184.421822 
L 110.1 -185.39562 
L 110.4875 -185.566072 
L 110.875 -186.170009 
L 111.2625 -186.547285 
L 111.65 -185.975596 
L 112.0375 -186.854472 
L 112.425 -186.730951 
L 112.8125 -186.573783 
L 113.2 -186.581476 
L 113.5875 -186.94871 
L 113.975 -186.843607 
L 114.3625 -187.019085 
L 114.75 -187.032508 
L 115.1375 -187.165874 
L 115.525 -187.244319 
L 115.9125 -187.757914 
L 116.3 -187.711837 
L 116.6875 -187.268924 
L 117.075 -187.773181 
L 117.4625 -187.387161 
L 117.85 -187.958513 
L 118.2375 -187.815948 
L 118.625 -187.490479 
L 119.0125 -187.560885 
L 119.4 -187.198003 
L 119.7875 -187.255789 
L 120.175 -187.665739 
L 120.5625 -187.235178 
L 120.95 -187.338407 
L 121.3375 -187.104678 
L 121.725 -186.714762 
L 122.1125 -187.497181 
L 122.5 -187.457785 
L 122.8875 -187.061465 
L 123.275 -187.028136 
L 123.6625 -187.149249 
L 124.05 -187.550109 
L 124.4375 -187.183123 
L 124.825 -187.518495 
L 125.2125 -187.496249 
L 125.6 -186.790789 
L 125.9875 -186.963451 
L 126.375 -186.742133 
L 126.7625 -186.343028 
L 127.15 -186.788657 
L 127.5375 -186.424209 
L 127.925 -187.140912 
L 128.3125 -186.991129 
L 128.7 -186.990336 
L 129.0875 -186.420244 
L 129.475 -186.595018 
L 129.8625 -186.756647 
L 130.25 -186.706346 
L 130.6375 -187.015239 
L 131.025 -186.517842 
L 131.4125 -186.210852 
L 131.8 -186.406276 
L 132.1875 -185.936418 
L 132.575 -186.450093 
L 132.9625 -186.532127 
L 133.35 -186.93373 
L 133.7375 -186.66687 
L 134.125 -186.262214 
L 134.5125 -186.465727 
L 134.9 -186.453444 
L 135.2875 -186.23857 
L 135.675 -185.43795 
L 136.0625 -185.711016 
L 136.45 -186.220468 
L 136.8375 -185.769753 
L 137.225 -186.249445 
L 137.6125 -186.573496 
L 138 -186.427144 
L 138.3875 -186.133904 
L 138.775 -186.07253 
L 139.1625 -186.368952 
L 139.55 -186.30389 
L 139.9375 -187.632946 
L 140.325 -187.640728 
L 140.7125 -186.986192 
L 141.1 -187.071706 
L 141.4875 -185.226685 
L 141.875 -168.425845 
L 142.2625 -167.889548 
L 142.65 -170.106104 
L 143.0375 -183.522564 
L 143.425 -186.834963 
L 143.8125 -185.633354 
L 144.2 -182.568246 
L 144.5875 -183.528294 
L 144.975 -183.081505 
L 145.3625 -183.007699 
L 145.75 -184.039183 
L 146.1375 -184.049701 
L 146.525 -184.196787 
L 146.9125 -184.603496 
L 147.3 -184.216326 
L 147.6875 -184.21254 
L 148.075 -184.237967 
L 148.4625 -184.01659 
L 148.85 -184.426462 
L 149.2375 -184.627655 
L 149.625 -184.797036 
L 150.0125 -183.616434 
L 150.4 -183.657664 
L 150.7875 -183.858491 
L 151.175 -183.891621 
L 151.5625 -183.147181 
L 151.95 -181.973241 
L 152.3375 -182.673636 
L 152.725 -182.161319 
L 153.1125 -183.221512 
L 153.5 -183.101213 
L 153.8875 -182.969384 
L 154.275 -183.56191 
L 154.6625 -182.765533 
L 155.05 -182.794005 
L 155.4375 -181.625983 
L 155.825 -181.305858 
L 156.2125 -181.303538 
L 156.6 -180.426912 
L 156.9875 -180.897315 
L 157.375 -180.105033 
L 157.7625 -180.358688 
L 158.15 -180.287321 
L 158.5375 -180.495196 
L 158.925 -180.756514 
L 159.3125 -180.734606 
L 159.7 -180.244644 
L 160.0875 -179.694755 
L 160.475 -180.122609 
L 160.8625 -179.180624 
L 161.25 -177.83299 
L 161.6375 -177.502535 
L 162.025 -177.784196 
L 162.4125 -177.422603 
L 162.8 -178.113441 
L 163.1875 -177.425805 
L 163.575 -176.887208 
L 163.9625 -175.786835 
L 164.35 -176.8251 
L 164.7375 -175.111135 
L 165.125 -175.986452 
L 165.5125 -175.543817 
L 165.9 -176.343376 
L 166.2875 -176.877066 
L 166.675 -176.683298 
L 167.0625 -177.801911 
L 167.45 -177.329229 
L 167.8375 -176.9019 
L 168.225 -176.420324 
L 168.6125 -176.023796 
L 169 -174.924306 
L 169.3875 -175.304596 
L 169.775 -174.517845 
L 170.1625 -175.341791 
L 170.55 -174.898293 
L 170.9375 -172.947724 
L 171.325 -173.833897 
L 171.7125 -174.002643 
L 172.1 -174.573737 
L 172.4875 -173.568088 
L 172.875 -173.530069 
L 173.2625 -173.721548 
L 173.65 -173.705666 
L 174.0375 -173.402434 
L 174.425 -174.08668 
L 174.8125 -174.273697 
L 175.2 -173.557163 
L 175.5875 -172.210788 
L 175.975 -172.474694 
L 176.3625 -172.007692 
L 176.75 -171.741149 
L 177.1375 -172.777698 
L 177.525 -172.77406 
L 177.9125 -172.179135 
L 178.3 -170.999564 
L 178.6875 -173.285148 
L 179.075 -171.777343 
L 179.4625 -171.29658 
L 179.85 -169.431098 
L 180.2375 -171.384205 
L 180.625 -169.588395 
L 181.0125 -170.084285 
L 181.4 -169.734231 
L 181.7875 -169.801742 
L 182.175 -170.438205 
L 182.5625 -171.278835 
L 182.95 -169.197904 
L 183.3375 -169.062268 
L 183.725 -169.890834 
L 184.1125 -171.360125 
L 184.5 -172.176428 
L 184.8875 -174.194687 
L 185.275 -174.308919 
L 185.6625 -176.078152 
L 186.05 -175.508297 
L 186.4375 -174.587497 
L 186.825 -174.918854 
L 187.2125 -174.904519 
L 187.6 -175.965694 
L 187.9875 -175.040541 
L 188.375 -175.157609 
L 188.7625 -174.592483 
L 189.15 -174.839239 
L 189.5375 -174.22866 
L 189.925 -174.012953 
L 190.3125 -174.339026 
L 190.7 -173.302883 
L 191.0875 -172.941895 
L 191.475 -173.516557 
L 191.8625 -173.298174 
L 192.25 -172.95964 
L 192.6375 -171.484975 
L 193.025 -173.024632 
L 193.4125 -170.643611 
L 193.8 -171.594172 
L 194.1875 -172.241807 
L 194.575 -171.817502 
L 194.9625 -172.372486 
L 195.35 -172.838309 
L 195.7375 -171.817373 
L 196.125 -171.202809 
L 196.5125 -171.497922 
L 196.9 -170.32878 
L 197.2875 -170.558336 
L 197.675 -171.165663 
L 198.0625 -170.439117 
L 198.45 -170.836715 
L 198.8375 -169.693894 
L 199.225 -169.302431 
L 199.6125 -169.116991 
L 200 -168.785931 
L 200.3875 -167.923253 
L 200.775 -168.07365 
L 201.1625 -168.268281 
L 201.55 -169.375841 
L 201.9375 -163.52668 
L 202.325 -156.431816 
L 202.7125 -148.131973 
L 203.1 -148.567134 
L 203.4875 -147.554813 
L 203.875 -151.254708 
L 204.2625 -153.278578 
L 204.65 -149.045735 
L 205.0375 -149.303614 
L 205.425 -148.588894 
L 205.8125 -148.089603 
L 206.2 -147.100331 
L 206.5875 -145.724166 
L 206.975 -145.566057 
L 207.3625 -145.705707 
L 207.75 -144.892527 
L 208.1375 -143.795595 
L 208.525 -144.42611 
L 208.9125 -142.384515 
L 209.3 -142.222232 
L 209.6875 -142.141061 
L 210.075 -141.918375 
L 210.4625 -143.26924 
L 210.85 -142.659484 
L 211.2375 -143.032299 
L 211.625 -142.668377 
L 212.0125 -142.591151 
L 212.4 -141.718936 
L 212.7875 -142.28083 
L 213.175 -141.470545 
L 213.5625 -141.01987 
L 213.95 -141.801604 
L 214.3375 -140.530622 
L 214.725 -140.979403 
L 215.1125 -141.213817 
L 215.5 -142.25343 
L 215.8875 -141.218218 
L 216.275 -141.197261 
L 216.6625 -141.147476 
L 217.05 -140.557319 
L 217.4375 -141.679054 
L 217.825 -141.696145 
L 218.2125 -143.29446 
L 218.6 -140.004148 
L 218.9875 -141.749291 
L 219.375 -141.209355 
L 219.7625 -140.347163 
L 220.15 -140.673911 
L 220.5375 -141.508038 
L 220.925 -140.461386 
L 221.3125 -139.592711 
L 221.7 -140.096789 
L 222.0875 -139.385539 
L 222.475 -139.401887 
L 222.8625 -140.397425 
L 223.25 -140.791425 
L 223.6375 -139.404405 
L 224.025 -140.270295 
L 224.4125 -140.298825 
L 224.8 -139.414953 
L 225.1875 -138.179906 
L 225.575 -139.39348 
L 225.9625 -139.282103 
L 226.35 -139.186884 
L 226.7375 -140.274329 
L 227.125 -140.493525 
L 227.5125 -140.292263 
L 227.9 -139.81721 
L 228.2875 -140.341067 
L 228.675 -139.520779 
L 229.0625 -139.207385 
L 229.45 -138.97429 
L 229.8375 -139.252818 
L 230.225 -139.533607 
L 230.6125 -140.336348 
L 231 -140.10929 
L 231.3875 -139.967488 
L 231.775 -139.604468 
L 232.1625 -139.955503 
L 232.55 -139.27435 
L 232.9375 -139.334565 
L 233.325 -139.022103 
L 233.7125 -137.578299 
L 234.1 -138.38448 
L 234.4875 -137.560028 
L 234.875 -137.183972 
L 235.2625 -137.343885 
L 235.65 -139.370838 
L 236.0375 -137.982985 
L 236.425 -137.864133 
L 236.8125 -138.127404 
L 237.2 -137.373031 
L 237.5875 -138.380951 
L 237.975 -138.030411 
L 238.3625 -138.129298 
L 238.75 -137.556013 
L 239.1375 -138.323651 
L 239.525 -138.281271 
L 239.9125 -138.331602 
L 240.3 -138.19207 
L 240.6875 -138.441056 
L 241.075 -139.616632 
L 241.4625 -138.350506 
L 241.85 -137.48422 
L 242.2375 -138.547031 
L 242.625 -137.949746 
L 243.0125 -138.723906 
L 243.4 -139.239138 
L 243.7875 -138.089485 
L 244.175 -138.355057 
L 244.5625 -137.798635 
L 244.95 -139.361142 
L 245.3375 -138.8002 
L 245.725 -138.287368 
L 246.1125 -138.584533 
L 246.5 -138.889491 
L 246.8875 -139.830901 
L 247.275 -140.905826 
L 247.6625 -141.183967 
L 248.05 -141.435422 
L 248.4375 -140.876978 
L 248.825 -139.175493 
L 249.2125 -140.462318 
L 249.6 -138.999094 
L 249.9875 -140.283539 
L 250.375 -140.532862 
L 250.7625 -140.148667 
L 251.15 -140.265318 
L 251.5375 -141.070587 
L 251.925 -141.555563 
L 252.3125 -142.04726 
L 252.7 -141.163466 
L 253.0875 -142.174945 
L 253.475 -143.162919 
L 253.8625 -143.636752 
L 254.25 -144.194333 
L 254.6375 -143.42395 
L 255.025 -144.378991 
L 255.4125 -144.774042 
L 255.8 -144.990799 
L 256.1875 -145.902697 
L 256.575 -146.02496 
L 256.9625 -145.338543 
L 257.35 -146.60224 
L 257.7375 -146.416035 
L 258.125 -147.109045 
L 258.5125 -146.820613 
L 258.9 -147.224655 
L 259.2875 -149.608878 
L 259.675 -148.449015 
L 260.0625 -148.114417 
L 260.45 -148.082099 
L 260.8375 -146.608931 
L 261.225 -146.06732 
L 261.6125 -147.59401 
L 262 -147.620995 
L 262.3875 -147.277514 
L 262.775 -148.160623 
L 263.1625 -148.314381 
L 263.55 -151.340162 
L 263.9375 -151.768582 
L 264.325 -152.931567 
L 264.7125 -155.752815 
L 265.1 -154.332337 
L 265.4875 -151.951267 
L 265.875 -153.738512 
L 266.2625 -153.389747 
L 266.65 -153.914832 
L 267.0375 -153.653673 
L 267.425 -150.60054 
L 267.8125 -152.846986 
L 268.2 -152.031883 
L 268.5875 -152.84772 
L 268.975 -151.553718 
L 269.3625 -152.678031 
L 269.75 -152.203157 
L 270.1375 -150.161166 
L 270.525 -153.194462 
L 270.9125 -151.056618 
L 271.3 -151.513529 
L 271.6875 -153.562816 
L 272.075 -153.346098 
L 272.4625 -154.573839 
L 272.85 -150.893542 
L 273.2375 -153.019093 
L 273.625 -152.314743 
L 274.0125 -155.990807 
L 274.4 -153.930208 
L 274.7875 -152.078843 
L 275.175 -152.722592 
L 275.5625 -157.0201 
L 275.95 -157.614203 
L 276.3375 -151.500235 
L 276.725 -152.323596 
L 277.1125 -156.266906 
L 277.5 -154.618112 
L 277.8875 -155.182742 
L 278.275 -162.236336 
L 278.6625 -161.569449 
L 279.05 -156.154408 
L 279.4375 -162.382014 
L 279.825 -160.744046 
L 280.2125 -164.258421 
L 280.6 -160.994212 
L 280.9875 -162.487295 
L 281.375 -164.797455 
L 281.7625 -160.373114 
L 282.15 -159.260013 
L 282.5375 -159.528529 
L 282.925 -164.02951 
L 283.3125 -164.667599 
L 283.7 -164.846259 
L 284.0875 -162.42486 
L 284.475 -159.300569 
L 284.8625 -159.649939 
L 285.25 -162.955795 
L 285.6375 -162.527028 
L 286.025 -162.525977 
L 286.4125 -158.960766 
L 286.8 -157.068606 
L 287.1875 -158.835529 
L 287.575 -153.786126 
L 287.9625 -156.862437 
L 288.35 -152.572522 
L 288.7375 -153.699681 
L 289.125 -157.771152 
L 289.5125 -158.313834 
L 289.9 -155.745469 
L 290.2875 -157.580021 
L 290.675 -156.689645 
L 291.0625 -159.641482 
L 291.45 -153.653375 
L 291.8375 -159.631519 
L 292.225 -157.933297 
L 292.6125 -154.542611 
L 293 -158.156181 
L 293.3875 -154.559246 
L 293.775 -156.613411 
L 294.1625 -157.631373 
L 294.55 -157.152167 
L 294.9375 -158.424191 
L 295.325 -155.945929 
L 295.7125 -156.949675 
L 296.1 -155.878785 
L 296.4875 -155.591553 
L 296.875 -157.554375 
L 297.2625 -157.020586 
L 297.65 -154.004619 
L 298.0375 -157.140162 
L 298.425 -157.22278 
L 298.8125 -160.662339 
L 299.2 -157.857409 
L 299.5875 -158.900125 
L 299.975 -154.152894 
L 300.3625 -163.204592 
L 300.75 -157.882034 
L 301.1375 -164.350656 
L 301.525 -158.220281 
L 301.9125 -156.85636 
L 302.3 -154.558483 
L 302.6875 -158.462407 
L 303.075 -162.958273 
L 303.4625 -159.073571 
L 303.85 -160.172109 
L 304.2375 -159.755874 
L 304.625 -159.014209 
L 305.0125 -156.649625 
L 305.4 -157.236877 
L 305.7875 -161.034282 
L 306.175 -156.256011 
L 306.5625 -158.402163 
L 306.95 -156.821326 
L 307.3375 -156.855765 
L 307.725 -158.060447 
L 308.1125 -157.154467 
L 308.5 -158.647263 
L 308.8875 -155.901437 
L 309.275 -158.18371 
L 309.6625 -153.084175 
L 310.05 -155.617903 
L 310.4375 -156.731083 
L 310.825 -160.737652 
L 311.2125 -158.60635 
L 311.6 -150.909939 
L 311.9875 -153.415373 
L 312.375 -159.490778 
L 312.7625 -156.571705 
L 313.15 -160.301956 
L 313.5375 -160.891141 
L 313.925 -162.953178 
L 314.3125 -162.338504 
L 314.7 -161.8717 
L 315.0875 -159.395788 
L 315.475 -157.363631 
L 315.8625 -160.24075 
L 316.25 -157.885871 
L 316.6375 -158.255464 
L 317.025 -159.174916 
L 317.4125 -157.54923 
L 317.8 -159.82506 
L 318.1875 -156.980347 
L 318.575 -159.252251 
L 318.9625 -163.123203 
L 319.35 -158.437683 
L 319.7375 -163.050924 
L 320.125 -158.493436 
L 320.5125 -161.829935 
L 320.9 -159.232196 
L 321.2875 -160.960565 
L 321.675 -160.109169 
L 322.0625 -160.03917 
L 322.45 -159.520984 
L 322.8375 -158.945866 
L 323.225 -158.262393 
L 323.6125 -158.997327 
L 324 -156.889391 
L 324 -172.891733 
L 324 -172.891733 
L 323.6125 -174.227252 
L 323.225 -173.438747 
L 322.8375 -176.66133 
L 322.45 -175.534112 
L 322.0625 -175.960737 
L 321.675 -176.032124 
L 321.2875 -175.35568 
L 320.9 -174.324345 
L 320.5125 -175.070351 
L 320.125 -174.259501 
L 319.7375 -178.332677 
L 319.35 -175.524595 
L 318.9625 -177.140417 
L 318.575 -175.946392 
L 318.1875 -173.530585 
L 317.8 -175.53775 
L 317.4125 -172.919946 
L 317.025 -176.709024 
L 316.6375 -175.27092 
L 316.25 -173.23111 
L 315.8625 -175.399616 
L 315.475 -173.561366 
L 315.0875 -174.77838 
L 314.7 -176.018721 
L 314.3125 -176.575618 
L 313.925 -176.55591 
L 313.5375 -176.060238 
L 313.15 -173.323483 
L 312.7625 -172.634757 
L 312.375 -174.987058 
L 311.9875 -171.977783 
L 311.6 -170.544566 
L 311.2125 -173.02726 
L 310.825 -176.015539 
L 310.4375 -172.545625 
L 310.05 -171.452271 
L 309.6625 -171.289264 
L 309.275 -172.678653 
L 308.8875 -170.788298 
L 308.5 -171.71584 
L 308.1125 -171.706471 
L 307.725 -172.567345 
L 307.3375 -171.632368 
L 306.95 -172.969573 
L 306.5625 -173.874829 
L 306.175 -172.086949 
L 305.7875 -174.597579 
L 305.4 -171.815371 
L 305.0125 -170.087021 
L 304.625 -172.07313 
L 304.2375 -172.152775 
L 303.85 -172.396854 
L 303.4625 -171.330891 
L 303.075 -174.089703 
L 302.6875 -170.323011 
L 302.3 -167.784564 
L 301.9125 -171.274691 
L 301.525 -171.018062 
L 301.1375 -174.978126 
L 300.75 -170.351542 
L 300.3625 -174.464838 
L 299.975 -170.235277 
L 299.5875 -172.078087 
L 299.2 -170.949084 
L 298.8125 -173.600832 
L 298.425 -171.169312 
L 298.0375 -172.408829 
L 297.65 -169.138562 
L 297.2625 -171.413955 
L 296.875 -171.694754 
L 296.4875 -170.800958 
L 296.1 -169.527516 
L 295.7125 -170.211465 
L 295.325 -169.250168 
L 294.9375 -171.388518 
L 294.55 -171.125445 
L 294.1625 -171.473238 
L 293.775 -170.028899 
L 293.3875 -168.369487 
L 293 -173.242441 
L 292.6125 -169.057698 
L 292.225 -171.732871 
L 291.8375 -172.432611 
L 291.45 -168.383306 
L 291.0625 -172.756989 
L 290.675 -170.247014 
L 290.2875 -171.976345 
L 289.9 -171.809631 
L 289.5125 -175.535549 
L 289.125 -171.460747 
L 288.7375 -169.019244 
L 288.35 -168.849526 
L 287.9625 -172.344461 
L 287.575 -169.3473 
L 287.1875 -173.272459 
L 286.8 -171.320293 
L 286.4125 -173.292771 
L 286.025 -175.840804 
L 285.6375 -174.80707 
L 285.25 -174.092063 
L 284.8625 -172.653265 
L 284.475 -173.482108 
L 284.0875 -174.781949 
L 283.7 -175.929133 
L 283.3125 -175.279089 
L 282.925 -174.915146 
L 282.5375 -170.45826 
L 282.15 -169.723693 
L 281.7625 -171.345335 
L 281.375 -175.820749 
L 280.9875 -173.495184 
L 280.6 -173.298363 
L 280.2125 -175.58818 
L 279.825 -173.257132 
L 279.4375 -175.279703 
L 279.05 -171.616666 
L 278.6625 -176.675298 
L 278.275 -179.347834 
L 277.8875 -174.755113 
L 277.5 -174.131181 
L 277.1125 -177.662598 
L 276.725 -175.814454 
L 276.3375 -173.786134 
L 275.95 -175.733719 
L 275.5625 -178.892628 
L 275.175 -174.675895 
L 274.7875 -180.442813 
L 274.4 -179.064815 
L 274.0125 -181.18307 
L 273.625 -174.713041 
L 273.2375 -177.720126 
L 272.85 -180.529427 
L 272.4625 -183.97993 
L 272.075 -180.379982 
L 271.6875 -182.895925 
L 271.3 -180.087962 
L 270.9125 -181.428854 
L 270.525 -182.68 
L 270.1375 -181.869636 
L 269.75 -180.805051 
L 269.3625 -178.807849 
L 268.975 -177.403599 
L 268.5875 -180.026776 
L 268.2 -178.455098 
L 267.8125 -178.833851 
L 267.425 -178.791759 
L 267.0375 -178.714444 
L 266.65 -180.685356 
L 266.2625 -180.496178 
L 265.875 -179.448435 
L 265.4875 -178.868093 
L 265.1 -181.825848 
L 264.7125 -180.382431 
L 264.325 -179.28065 
L 263.9375 -179.018341 
L 263.55 -181.67326 
L 263.1625 -180.861686 
L 262.775 -179.59909 
L 262.3875 -178.933065 
L 262 -179.786692 
L 261.6125 -179.871611 
L 261.225 -178.670914 
L 260.8375 -179.406115 
L 260.45 -179.89692 
L 260.0625 -179.869023 
L 259.675 -178.723089 
L 259.2875 -179.423523 
L 258.9 -178.836786 
L 258.5125 -179.760193 
L 258.125 -179.608686 
L 257.7375 -178.940262 
L 257.35 -179.299456 
L 256.9625 -179.760441 
L 256.575 -179.402179 
L 256.1875 -180.064883 
L 255.8 -181.15213 
L 255.4125 -180.96781 
L 255.025 -180.295083 
L 254.6375 -180.458239 
L 254.25 -179.942809 
L 253.8625 -180.052462 
L 253.475 -180.460449 
L 253.0875 -180.265234 
L 252.7 -180.159249 
L 252.3125 -179.048834 
L 251.925 -178.75957 
L 251.5375 -178.544399 
L 251.15 -177.51005 
L 250.7625 -179.172822 
L 250.375 -178.404857 
L 249.9875 -177.995868 
L 249.6 -178.517811 
L 249.2125 -178.924659 
L 248.825 -178.626978 
L 248.4375 -179.698165 
L 248.05 -180.307307 
L 247.6625 -179.461779 
L 247.275 -179.353792 
L 246.8875 -178.440694 
L 246.5 -177.661765 
L 246.1125 -177.604168 
L 245.725 -177.889477 
L 245.3375 -177.559131 
L 244.95 -179.048547 
L 244.5625 -177.647807 
L 244.175 -178.69433 
L 243.7875 -177.91776 
L 243.4 -178.000309 
L 243.0125 -178.044335 
L 242.625 -178.119836 
L 242.2375 -178.455207 
L 241.85 -178.403211 
L 241.4625 -178.547977 
L 241.075 -178.058412 
L 240.6875 -177.523383 
L 240.3 -175.791346 
L 239.9125 -177.561897 
L 239.525 -178.165735 
L 239.1375 -177.575419 
L 238.75 -176.93852 
L 238.3625 -176.762883 
L 237.975 -176.153633 
L 237.5875 -175.817785 
L 237.2 -177.41722 
L 236.8125 -177.815741 
L 236.425 -177.775899 
L 236.0375 -177.816474 
L 235.65 -178.344038 
L 235.2625 -176.589963 
L 234.875 -177.427441 
L 234.4875 -178.047785 
L 234.1 -177.925225 
L 233.7125 -178.600747 
L 233.325 -177.97268 
L 232.9375 -178.783709 
L 232.55 -179.281206 
L 232.1625 -179.710101 
L 231.775 -180.766755 
L 231.3875 -181.085066 
L 231 -180.878787 
L 230.6125 -180.661068 
L 230.225 -182.435862 
L 229.8375 -181.029759 
L 229.45 -182.013747 
L 229.0625 -181.612996 
L 228.675 -181.852357 
L 228.2875 -182.382181 
L 227.9 -183.052438 
L 227.5125 -183.789245 
L 227.125 -183.295972 
L 226.7375 -183.40503 
L 226.35 -183.212134 
L 225.9625 -182.923167 
L 225.575 -183.74062 
L 225.1875 -184.228232 
L 224.8 -185.949692 
L 224.4125 -185.155516 
L 224.025 -184.570127 
L 223.6375 -185.792148 
L 223.25 -186.659961 
L 222.8625 -185.742115 
L 222.475 -185.693132 
L 222.0875 -185.886236 
L 221.7 -185.861849 
L 221.3125 -185.138445 
L 220.925 -184.586128 
L 220.5375 -185.613686 
L 220.15 -184.865865 
L 219.7625 -185.222829 
L 219.375 -183.412594 
L 218.9875 -183.41875 
L 218.6 -184.316869 
L 218.2125 -184.571942 
L 217.825 -184.677232 
L 217.4375 -185.286513 
L 217.05 -186.061199 
L 216.6625 -185.944507 
L 216.275 -187.328999 
L 215.8875 -185.41505 
L 215.5 -185.468652 
L 215.1125 -185.940027 
L 214.725 -186.403361 
L 214.3375 -186.342631 
L 213.95 -185.212201 
L 213.5625 -185.784009 
L 213.175 -187.0185 
L 212.7875 -186.819101 
L 212.4 -186.965463 
L 212.0125 -186.627306 
L 211.625 -186.362934 
L 211.2375 -186.482926 
L 210.85 -187.63244 
L 210.4625 -188.993635 
L 210.075 -188.114788 
L 209.6875 -188.313523 
L 209.3 -189.092799 
L 208.9125 -189.773615 
L 208.525 -188.966145 
L 208.1375 -189.321503 
L 207.75 -188.998295 
L 207.3625 -188.939052 
L 206.975 -188.961942 
L 206.5875 -189.759092 
L 206.2 -189.797457 
L 205.8125 -189.882762 
L 205.425 -190.058537 
L 205.0375 -190.526006 
L 204.65 -190.642965 
L 204.2625 -189.688716 
L 203.875 -190.538259 
L 203.4875 -192.0729 
L 203.1 -191.171926 
L 202.7125 -192.1897 
L 202.325 -188.278896 
L 201.9375 -186.143094 
L 201.55 -185.17914 
L 201.1625 -185.845254 
L 200.775 -186.398097 
L 200.3875 -186.167302 
L 200 -186.773718 
L 199.6125 -186.488478 
L 199.225 -187.315953 
L 198.8375 -187.593708 
L 198.45 -186.822502 
L 198.0625 -187.032181 
L 197.675 -187.192233 
L 197.2875 -187.405343 
L 196.9 -188.210889 
L 196.5125 -187.489637 
L 196.125 -187.31402 
L 195.7375 -187.715406 
L 195.35 -187.921298 
L 194.9625 -188.512209 
L 194.575 -188.492491 
L 194.1875 -188.714026 
L 193.8 -189.07671 
L 193.4125 -190.051776 
L 193.025 -188.728897 
L 192.6375 -189.94141 
L 192.25 -189.630703 
L 191.8625 -189.427983 
L 191.475 -189.810077 
L 191.0875 -190.047603 
L 190.7 -189.848541 
L 190.3125 -189.849661 
L 189.925 -189.472871 
L 189.5375 -190.15104 
L 189.15 -189.38589 
L 188.7625 -189.436915 
L 188.375 -189.054732 
L 187.9875 -189.705202 
L 187.6 -188.780803 
L 187.2125 -189.369008 
L 186.825 -189.320987 
L 186.4375 -190.16359 
L 186.05 -189.634341 
L 185.6625 -190.051172 
L 185.275 -190.940071 
L 184.8875 -191.375489 
L 184.5 -192.659994 
L 184.1125 -192.350774 
L 183.725 -193.056254 
L 183.3375 -193.65687 
L 182.95 -193.690258 
L 182.5625 -192.761151 
L 182.175 -193.042296 
L 181.7875 -193.451523 
L 181.4 -193.381217 
L 181.0125 -193.419225 
L 180.625 -193.638352 
L 180.2375 -192.328052 
L 179.85 -193.531029 
L 179.4625 -193.197818 
L 179.075 -193.066544 
L 178.6875 -192.690547 
L 178.3 -193.599808 
L 177.9125 -193.139467 
L 177.525 -193.048898 
L 177.1375 -192.933248 
L 176.75 -193.270622 
L 176.3625 -193.214572 
L 175.975 -193.227618 
L 175.5875 -193.812689 
L 175.2 -193.225695 
L 174.8125 -192.513989 
L 174.425 -193.178189 
L 174.0375 -193.708935 
L 173.65 -193.665475 
L 173.2625 -193.678461 
L 172.875 -193.88018 
L 172.4875 -193.554781 
L 172.1 -193.131715 
L 171.7125 -193.612101 
L 171.325 -193.787668 
L 170.9375 -194.252014 
L 170.55 -193.684033 
L 170.1625 -192.92155 
L 169.775 -193.478507 
L 169.3875 -192.935746 
L 169 -193.573914 
L 168.6125 -193.34307 
L 168.225 -193.432628 
L 167.8375 -192.931384 
L 167.45 -192.854654 
L 167.0625 -192.6249 
L 166.675 -192.846109 
L 166.2875 -193.232218 
L 165.9 -193.71643 
L 165.5125 -194.174372 
L 165.125 -193.617315 
L 164.7375 -194.091337 
L 164.35 -192.95359 
L 163.9625 -193.883848 
L 163.575 -193.664602 
L 163.1875 -193.472579 
L 162.8 -193.256843 
L 162.4125 -193.638847 
L 162.025 -193.80805 
L 161.6375 -193.809775 
L 161.25 -193.632681 
L 160.8625 -192.855923 
L 160.475 -192.430458 
L 160.0875 -192.367845 
L 159.7 -192.26869 
L 159.3125 -191.591681 
L 158.925 -191.925883 
L 158.5375 -191.783883 
L 158.15 -191.779581 
L 157.7625 -191.814159 
L 157.375 -191.837019 
L 156.9875 -191.913055 
L 156.6 -191.844038 
L 156.2125 -191.671286 
L 155.825 -191.457572 
L 155.4375 -190.898513 
L 155.05 -190.689974 
L 154.6625 -191.061689 
L 154.275 -190.588758 
L 153.8875 -190.785659 
L 153.5 -191.036984 
L 153.1125 -190.76036 
L 152.725 -191.248755 
L 152.3375 -190.752865 
L 151.95 -191.073327 
L 151.5625 -190.825233 
L 151.175 -190.508063 
L 150.7875 -190.70645 
L 150.4 -191.061411 
L 150.0125 -191.286645 
L 149.625 -191.054789 
L 149.2375 -190.926628 
L 148.85 -191.058298 
L 148.4625 -191.446667 
L 148.075 -191.038452 
L 147.6875 -191.462529 
L 147.3 -191.563131 
L 146.9125 -191.406716 
L 146.525 -191.263526 
L 146.1375 -191.658201 
L 145.75 -191.610656 
L 145.3625 -192.309672 
L 144.975 -192.168941 
L 144.5875 -191.960997 
L 144.2 -192.380891 
L 143.8125 -191.13487 
L 143.425 -190.577814 
L 143.0375 -192.034039 
L 142.65 -198.343312 
L 142.2625 -199.349031 
L 141.875 -199.185519 
L 141.4875 -190.946713 
L 141.1 -190.042468 
L 140.7125 -190.243235 
L 140.325 -190.010199 
L 139.9375 -189.828793 
L 139.55 -190.511631 
L 139.1625 -190.309853 
L 138.775 -190.608168 
L 138.3875 -190.442019 
L 138 -190.378851 
L 137.6125 -190.253961 
L 137.225 -190.357894 
L 136.8375 -190.466525 
L 136.45 -190.223626 
L 136.0625 -190.453261 
L 135.675 -190.559989 
L 135.2875 -190.29074 
L 134.9 -189.896542 
L 134.5125 -190.157602 
L 134.125 -190.190634 
L 133.7375 -189.802374 
L 133.35 -189.776351 
L 132.9625 -189.76274 
L 132.575 -189.627015 
L 132.1875 -189.921841 
L 131.8 -189.529903 
L 131.4125 -189.499042 
L 131.025 -189.600824 
L 130.6375 -189.343887 
L 130.25 -189.444915 
L 129.8625 -189.469104 
L 129.475 -189.546627 
L 129.0875 -189.488554 
L 128.7 -189.330325 
L 128.3125 -189.46267 
L 127.925 -189.241828 
L 127.5375 -189.503801 
L 127.15 -189.459299 
L 126.7625 -189.696548 
L 126.375 -189.46843 
L 125.9875 -189.427081 
L 125.6 -189.349032 
L 125.2125 -189.250949 
L 124.825 -189.08472 
L 124.4375 -189.263281 
L 124.05 -189.186303 
L 123.6625 -189.432632 
L 123.275 -189.505427 
L 122.8875 -189.530884 
L 122.5 -189.315069 
L 122.1125 -189.407997 
L 121.725 -189.673648 
L 121.3375 -189.513229 
L 120.95 -189.437202 
L 120.5625 -189.632111 
L 120.175 -189.547291 
L 119.7875 -189.39854 
L 119.4 -189.395021 
L 119.0125 -189.492718 
L 118.625 -189.455939 
L 118.2375 -189.348546 
L 117.85 -189.246805 
L 117.4625 -189.286974 
L 117.075 -189.157495 
L 116.6875 -189.254071 
L 116.3 -189.204623 
L 115.9125 -189.204365 
L 115.525 -189.159715 
L 115.1375 -189.098123 
L 114.75 -189.076065 
L 114.3625 -189.099541 
L 113.975 -188.899358 
L 113.5875 -189.06981 
L 113.2 -189.079287 
L 112.8125 -189.039455 
L 112.425 -189.023138 
L 112.0375 -188.770166 
L 111.65 -189.123412 
L 111.2625 -188.637951 
L 110.875 -188.870034 
L 110.4875 -188.656647 
L 110.1 -188.606485 
L 109.7125 -188.530529 
L 109.325 -188.549761 
L 108.9375 -188.191905 
L 108.55 -188.005889 
L 108.1625 -187.730375 
L 107.775 -187.828478 
L 107.3875 -187.379399 
L 107 -187.487436 
L 106.6125 -187.412223 
L 106.225 -187.28542 
L 105.8375 -187.041351 
L 105.45 -186.713414 
L 105.0625 -186.564276 
L 104.675 -186.59242 
L 104.2875 -186.495031 
L 103.9 -185.982139 
L 103.5125 -186.128283 
L 103.125 -185.54223 
L 102.7375 -185.243577 
L 102.35 -185.404136 
L 101.9625 -185.031975 
L 101.575 -185.184444 
L 101.1875 -184.546742 
L 100.8 -184.396255 
L 100.4125 -184.745318 
L 100.025 -184.808 
L 99.6375 -184.4061 
L 99.25 -184.871486 
L 98.8625 -184.633633 
L 98.475 -184.766225 
L 98.0875 -185.608204 
L 97.7 -185.953102 
L 97.3125 -185.778586 
L 96.925 -185.921132 
L 96.5375 -185.877968 
L 96.15 -186.501663 
L 95.7625 -186.281446 
L 95.375 -187.133615 
L 94.9875 -186.954162 
L 94.6 -187.4881 
L 94.2125 -187.273385 
L 93.825 -187.496259 
L 93.4375 -187.584518 
L 93.05 -187.842189 
L 92.6625 -187.901838 
L 92.275 -187.887632 
L 91.8875 -188.123552 
L 91.5 -188.312671 
L 91.1125 -188.044145 
L 90.725 -187.920832 
L 90.3375 -188.267842 
L 89.95 -188.317568 
L 89.5625 -188.639011 
L 89.175 -188.495951 
L 88.7875 -188.68268 
L 88.4 -188.617866 
L 88.0125 -188.806023 
L 87.625 -188.872691 
L 87.2375 -189.013422 
L 86.85 -189.273631 
L 86.4625 -189.055208 
L 86.075 -188.906962 
L 85.6875 -188.86829 
L 85.3 -189.153182 
L 84.9125 -188.754344 
L 84.525 -189.037334 
L 84.1375 -189.056526 
L 83.75 -189.536684 
L 83.3625 -189.061017 
L 82.975 -189.202779 
L 82.5875 -189.083897 
L 82.2 -189.04691 
L 81.8125 -188.989739 
L 81.425 -189.274612 
L 81.0375 -189.169658 
L 80.65 -189.088636 
L 80.2625 -189.106054 
L 79.875 -189.378852 
L 79.4875 -189.296927 
L 79.1 -189.316784 
L 78.7125 -189.165039 
L 78.325 -189.422521 
L 77.9375 -189.156513 
L 77.55 -188.988084 
L 77.1625 -189.172186 
L 76.775 -189.094604 
L 76.3875 -189.471245 
L 76 -189.570399 
L 75.6125 -189.496604 
L 75.225 -189.994011 
L 74.8375 -189.5303 
L 74.45 -189.685683 
L 74.0625 -189.471017 
L 73.675 -189.59318 
L 73.2875 -189.332219 
L 72.9 -189.754482 
L 72.5125 -189.734626 
L 72.125 -189.548223 
L 71.7375 -189.713976 
L 71.35 -189.781407 
L 70.9625 -189.643204 
L 70.575 -189.525105 
L 70.1875 -189.150188 
L 69.8 -189.259177 
L 69.4125 -189.214675 
L 69.025 -189.544 
L 68.6375 -189.587986 
L 68.25 -189.630455 
L 67.8625 -189.983988 
L 67.475 -189.898673 
L 67.0875 -190.029739 
L 66.7 -190.087039 
L 66.3125 -190.004767 
L 65.925 -190.130598 
L 65.5375 -189.89102 
L 65.15 -189.81201 
L 64.7625 -189.737669 
L 64.375 -189.376572 
L 63.9875 -189.500292 
L 63.6 -189.575872 
L 63.2125 -190.085571 
L 62.825 -190.140988 
L 62.4375 -189.914792 
L 62.05 -189.894926 
L 61.6625 -189.903907 
L 61.275 -189.94488 
L 60.8875 -189.818592 
L 60.5 -189.337959 
L 60.1125 -189.479057 
L 59.725 -189.514924 
L 59.3375 -189.725446 
L 58.95 -189.44893 
L 58.5625 -189.379248 
L 58.175 -189.683978 
L 57.7875 -189.796376 
L 57.4 -189.671407 
L 57.0125 -189.820783 
L 56.625 -189.396874 
L 56.2375 -189.800867 
L 55.85 -189.835554 
L 55.4625 -189.368591 
L 55.075 -189.827832 
L 54.6875 -190.135079 
L 54.3 -190.059896 
L 53.9125 -189.359709 
L 53.525 -189.078207 
L 53.1375 -189.43981 
L 52.75 -189.330385 
L 52.3625 -188.919126 
L 51.975 -188.778266 
L 51.5875 -189.15691 
L 51.2 -189.455403 
L 50.8125 -189.154203 
L 50.425 -188.975038 
L 50.0375 -189.257184 
L 49.65 -189.212455 
L 49.2625 -188.930328 
L 48.875 -189.313056 
L 48.4875 -188.824859 
L 48.1 -188.806172 
L 47.7125 -188.28643 
L 47.325 -187.993111 
L 46.9375 -188.36662 
L 46.55 -188.165089 
L 46.1625 -188.461551 
L 45.775 -188.708753 
L 45.3875 -188.84762 
z
" style="stroke: #2e6e8e; stroke-opacity: 0.1"/>
    </defs>
    <g clip-path="url(#p8320208ae6)">
     <use xlink:href="#mbb7e1f8177" x="0" y="216" style="fill: #2e6e8e; fill-opacity: 0.1; stroke: #2e6e8e; stroke-opacity: 0.1"/>
    </g>
   </g>
   <g id="matplotlib.axis_1">
    <g id="xtick_1">
     <g id="line2d_1">
      <defs>
       <path id="mb180ba8467" d="M 0 0 
L 0 3.5 
" style="stroke: #000000; stroke-width: 0.8"/>
      </defs>
      <g>
       <use xlink:href="#mb180ba8467" x="45" y="192.24" style="stroke: #000000; stroke-width: 0.8"/>
      </g>
     </g>
     <g id="text_1">
      <text style="font: 6px 'sans-serif'; text-anchor: middle" x="45" y="203.799062" transform="rotate(-0, 45, 203.799062)">0</text>
     </g>
    </g>
    <g id="xtick_2">
     <g id="line2d_2">
      <g>
       <use xlink:href="#mb180ba8467" x="83.75" y="192.24" style="stroke: #000000; stroke-width: 0.8"/>
      </g>
     </g>
     <g id="text_2">
      <text style="font: 6px 'sans-serif'; text-anchor: middle" x="83.75" y="203.799062" transform="rotate(-0, 83.75, 203.799062)">200</text>
     </g>
    </g>
    <g id="xtick_3">
     <g id="line2d_3">
      <g>
       <use xlink:href="#mb180ba8467" x="122.5" y="192.24" style="stroke: #000000; stroke-width: 0.8"/>
      </g>
     </g>
     <g id="text_3">
      <text style="font: 6px 'sans-serif'; text-anchor: middle" x="122.5" y="203.799062" transform="rotate(-0, 122.5, 203.799062)">400</text>
     </g>
    </g>
    <g id="xtick_4">
     <g id="line2d_4">
      <g>
       <use xlink:href="#mb180ba8467" x="161.25" y="192.24" style="stroke: #000000; stroke-width: 0.8"/>
      </g>
     </g>
     <g id="text_4">
      <text style="font: 6px 'sans-serif'; text-anchor: middle" x="161.25" y="203.799062" transform="rotate(-0, 161.25, 203.799062)">600</text>
     </g>
    </g>
    <g id="xtick_5">
     <g id="line2d_5">
      <g>
       <use xlink:href="#mb180ba8467" x="200" y="192.24" style="stroke: #000000; stroke-width: 0.8"/>
      </g>
     </g>
     <g id="text_5">
      <text style="font: 6px 'sans-serif'; text-anchor: middle" x="200" y="203.799062" transform="rotate(-0, 200, 203.799062)">800</text>
     </g>
    </g>
    <g id="xtick_6">
     <g id="line2d_6">
      <g>
       <use xlink:href="#mb180ba8467" x="238.75" y="192.24" style="stroke: #000000; stroke-width: 0.8"/>
      </g>
     </g>
     <g id="text_6">
      <text style="font: 6px 'sans-serif'; text-anchor: middle" x="238.75" y="203.799062" transform="rotate(-0, 238.75, 203.799062)">1000</text>
     </g>
    </g>
    <g id="xtick_7">
     <g id="line2d_7">
      <g>
       <use xlink:href="#mb180ba8467" x="277.5" y="192.24" style="stroke: #000000; stroke-width: 0.8"/>
      </g>
     </g>
     <g id="text_7">
      <text style="font: 6px 'sans-serif'; text-anchor: middle" x="277.5" y="203.799062" transform="rotate(-0, 277.5, 203.799062)">1200</text>
     </g>
    </g>
    <g id="xtick_8">
     <g id="line2d_8">
      <g>
       <use xlink:href="#mb180ba8467" x="316.25" y="192.24" style="stroke: #000000; stroke-width: 0.8"/>
      </g>
     </g>
     <g id="text_8">
      <text style="font: 6px 'sans-serif'; text-anchor: middle" x="316.25" y="203.799062" transform="rotate(-0, 316.25, 203.799062)">1400</text>
     </g>
    </g>
    <g id="text_9">
     <text style="font: 8px 'sans-serif'; text-anchor: middle" x="184.5" y="215.125625" transform="rotate(-0, 184.5, 215.125625)">Time (min)</text>
    </g>
   </g>
   <g id="matplotlib.axis_2">
    <g id="ytick_1">
     <g id="line2d_9">
      <defs>
       <path id="m924d8516bb" d="M 0 0 
L -3.5 0 
" style="stroke: #000000; stroke-width: 0.8"/>
      </defs>
      <g>
       <use xlink:href="#m924d8516bb" x="45" y="192.24" style="stroke: #000000; stroke-width: 0.8"/>
      </g>
     </g>
     <g id="text_10">
      <text style="font: 6px 'sans-serif'; text-anchor: end" x="38" y="194.519531" transform="rotate(-0, 38, 194.519531)">0.0</text>
     </g>
    </g>
    <g id="ytick_2">
     <g id="line2d_10">
      <g>
       <use xlink:href="#m924d8516bb" x="45" y="158.976" style="stroke: #000000; stroke-width: 0.8"/>
      </g>
     </g>
     <g id="text_11">
      <text style="font: 6px 'sans-serif'; text-anchor: end" x="38" y="161.255531" transform="rotate(-0, 38, 161.255531)">0.2</text>
     </g>
    </g>
    <g id="ytick_3">
     <g id="line2d_11">
      <g>
       <use xlink:href="#m924d8516bb" x="45" y="125.712" style="stroke: #000000; stroke-width: 0.8"/>
      </g>
     </g>
     <g id="text_12">
      <text style="font: 6px 'sans-serif'; text-anchor: end" x="38" y="127.991531" transform="rotate(-0, 38, 127.991531)">0.4</text>
     </g>
    </g>
    <g id="ytick_4">
     <g id="line2d_12">
      <g>
       <use xlink:href="#m924d8516bb" x="45" y="92.448" style="stroke: #000000; stroke-width: 0.8"/>
      </g>
     </g>
     <g id="text_13">
      <text style="font: 6px 'sans-serif'; text-anchor: end" x="38" y="94.727531" transform="rotate(-0, 38, 94.727531)">0.6</text>
     </g>
    </g>
    <g id="ytick_5">
     <g id="line2d_13">
      <g>
       <use xlink:href="#m924d8516bb" x="45" y="59.184" style="stroke: #000000; stroke-width: 0.8"/>
      </g>
     </g>
     <g id="text_14">
      <text style="font: 6px 'sans-serif'; text-anchor: end" x="38" y="61.463531" transform="rotate(-0, 38, 61.463531)">0.8</text>
     </g>
    </g>
    <g id="ytick_6">
     <g id="line2d_14">
      <g>
       <use xlink:href="#m924d8516bb" x="45" y="25.92" style="stroke: #000000; stroke-width: 0.8"/>
      </g>
     </g>
     <g id="text_15">
      <text style="font: 6px 'sans-serif'; text-anchor: end" x="38" y="28.199531" transform="rotate(-0, 38, 28.199531)">1.0</text>
     </g>
    </g>
    <g id="text_16">
     <text style="font: 8px 'sans-serif'; text-anchor: middle" x="22.794375" y="109.08" transform="rotate(-90, 22.794375, 109.08)">Cosine similarity φ</text>
    </g>
   </g>
   <g id="line2d_15">
    <path d="M 45.3875 28.870449 
L 45.775 28.693772 
L 46.55 29.587142 
L 46.9375 29.136923 
L 47.325 29.246496 
L 48.1 28.423472 
L 48.4875 28.390569 
L 48.875 28.901171 
L 49.2625 28.302667 
L 49.65 28.318558 
L 50.0375 27.904275 
L 50.425 28.190377 
L 50.8125 27.903522 
L 51.2 27.996886 
L 51.975 28.496266 
L 52.3625 28.254061 
L 52.75 28.251374 
L 53.1375 28.136983 
L 53.525 28.563182 
L 53.9125 28.408631 
L 54.3 27.923646 
L 54.6875 27.971141 
L 55.4625 28.327004 
L 56.625 27.953287 
L 57.0125 28.089894 
L 58.5625 27.828774 
L 58.95 27.960633 
L 59.3375 27.73646 
L 60.1125 28.245337 
L 60.5 28.652532 
L 60.8875 28.378623 
L 61.6625 28.079753 
L 62.05 27.827188 
L 63.6 28.612244 
L 64.375 28.523667 
L 65.15 28.301199 
L 65.925 28.012064 
L 66.3125 27.899883 
L 66.7 27.995072 
L 67.0875 28.287291 
L 67.475 28.251503 
L 67.8625 28.440711 
L 68.6375 28.107233 
L 69.025 28.184588 
L 69.4125 28.127377 
L 70.9625 28.892883 
L 71.7375 28.583465 
L 72.125 28.725197 
L 72.5125 28.598058 
L 72.9 28.337413 
L 73.675 28.171502 
L 74.0625 28.580065 
L 74.45 28.233738 
L 74.8375 28.237892 
L 75.225 28.606325 
L 76 28.199656 
L 77.1625 28.401692 
L 77.55 28.352085 
L 77.9375 28.579321 
L 78.325 28.273006 
L 78.7125 28.571321 
L 79.1 28.253159 
L 79.4875 28.314206 
L 79.875 28.158238 
L 80.2625 28.130817 
L 80.65 28.285606 
L 82.2 28.29653 
L 82.5875 28.042131 
L 82.975 28.044768 
L 83.3625 28.181901 
L 83.75 27.844457 
L 84.1375 28.138272 
L 84.525 28.284723 
L 84.9125 28.291524 
L 85.3 28.175398 
L 85.6875 28.364398 
L 86.075 28.389776 
L 86.4625 28.255786 
L 87.2375 28.385583 
L 87.625 28.331901 
L 88.0125 28.412389 
L 88.4 28.707661 
L 88.7875 28.630712 
L 89.175 28.695646 
L 89.5625 28.630276 
L 90.725 29.137627 
L 91.1125 29.162688 
L 91.5 28.883674 
L 92.275 29.474386 
L 93.05 29.543265 
L 93.4375 29.859097 
L 93.825 29.985712 
L 94.2125 30.563031 
L 94.6 30.201815 
L 94.9875 30.856618 
L 95.375 30.77621 
L 95.7625 31.696406 
L 96.15 31.7257 
L 96.5375 32.5091 
L 96.925 32.74276 
L 97.3125 32.827302 
L 97.7 32.771449 
L 98.475 33.322498 
L 99.25 33.414881 
L 99.6375 33.546036 
L 100.025 33.258378 
L 100.4125 33.200553 
L 100.8 33.560123 
L 101.1875 33.514155 
L 101.9625 33.019345 
L 102.35 32.788689 
L 102.7375 33.148745 
L 103.125 32.707141 
L 103.5125 32.475949 
L 103.9 32.656067 
L 104.2875 31.929272 
L 104.675 31.951201 
L 105.0625 31.754835 
L 105.45 31.351636 
L 105.8375 31.188312 
L 106.225 30.383231 
L 106.6125 30.235104 
L 107.3875 30.125452 
L 107.775 29.814517 
L 108.1625 29.91603 
L 108.9375 29.625814 
L 109.7125 29.523825 
L 110.1 28.998947 
L 110.4875 28.88864 
L 110.875 28.479979 
L 111.2625 28.407382 
L 111.65 28.450496 
L 112.0375 28.187681 
L 112.425 28.122956 
L 113.2 28.169618 
L 113.5875 27.99074 
L 113.975 28.128517 
L 114.3625 27.940687 
L 115.1375 27.868002 
L 115.525 27.797983 
L 115.9125 27.51886 
L 116.3 27.54177 
L 116.6875 27.738502 
L 117.075 27.534662 
L 117.4625 27.662932 
L 117.85 27.397341 
L 119.0125 27.473199 
L 119.4 27.703488 
L 119.7875 27.672836 
L 120.175 27.393485 
L 120.5625 27.566355 
L 121.725 27.805795 
L 122.1125 27.547411 
L 123.6625 27.70906 
L 124.05 27.631794 
L 124.4375 27.776798 
L 125.2125 27.626401 
L 125.6 27.93009 
L 125.9875 27.804734 
L 126.7625 27.980212 
L 127.15 27.876022 
L 127.5375 28.035995 
L 127.925 27.80863 
L 128.7 27.839669 
L 129.0875 28.045601 
L 129.8625 27.887125 
L 130.25 27.92437 
L 130.6375 27.820437 
L 131.4125 28.145053 
L 131.8 28.031911 
L 132.1875 28.07087 
L 133.35 27.644959 
L 134.125 27.773576 
L 134.5125 27.68833 
L 134.9 27.825007 
L 135.2875 27.73535 
L 135.675 28.00103 
L 136.45 27.777948 
L 136.8375 27.881861 
L 137.6125 27.586272 
L 139.55 27.592239 
L 139.9375 27.269131 
L 140.325 27.174536 
L 140.7125 27.385286 
L 141.1 27.442913 
L 141.4875 27.913296 
L 141.875 32.194318 
L 142.2625 32.380711 
L 142.65 31.775297 
L 143.0375 28.221704 
L 143.425 27.293607 
L 143.8125 27.615893 
L 144.2 28.525432 
L 144.5875 28.25536 
L 144.975 28.374777 
L 145.3625 28.341309 
L 145.75 28.175081 
L 146.1375 28.146054 
L 146.525 28.269843 
L 146.9125 27.994894 
L 148.075 28.36179 
L 148.85 28.25762 
L 149.2375 28.222863 
L 149.625 28.074082 
L 150.0125 28.548461 
L 151.5625 29.013788 
L 151.95 29.476716 
L 152.3375 29.286745 
L 152.725 29.294963 
L 153.1125 29.009069 
L 153.5 28.930901 
L 153.8875 29.122479 
L 154.275 28.924666 
L 155.05 29.258005 
L 155.4375 29.737757 
L 156.2125 29.512583 
L 156.6 29.86453 
L 156.9875 29.594815 
L 157.375 30.028974 
L 157.7625 29.913572 
L 158.15 29.966549 
L 158.925 29.658806 
L 159.3125 29.836861 
L 159.7 29.743328 
L 160.0875 29.9687 
L 160.475 29.723471 
L 161.25 30.267164 
L 161.6375 30.343845 
L 162.025 30.203877 
L 162.4125 30.46928 
L 162.8 30.314858 
L 163.575 30.724095 
L 163.9625 31.164658 
L 164.35 31.11066 
L 164.7375 31.398764 
L 165.125 31.198116 
L 165.5125 31.140906 
L 165.9 30.970097 
L 166.2875 30.945353 
L 166.675 31.235301 
L 167.0625 30.786589 
L 168.6125 31.316562 
L 169 31.75089 
L 169.775 32.001819 
L 170.55 31.708837 
L 170.9375 32.400131 
L 171.325 32.189213 
L 172.1 32.147269 
L 172.4875 32.438566 
L 172.875 32.29488 
L 173.65 32.314429 
L 174.0375 32.444315 
L 174.425 32.367566 
L 174.8125 32.606152 
L 175.2 32.608571 
L 175.5875 32.988256 
L 176.75 33.494119 
L 177.1375 33.144532 
L 177.525 33.088521 
L 178.3 33.700319 
L 178.6875 33.012158 
L 179.075 33.578057 
L 179.4625 33.752801 
L 179.85 34.518932 
L 180.2375 34.143876 
L 180.625 34.386627 
L 181.0125 34.248245 
L 181.4 34.442271 
L 182.175 34.259755 
L 182.5625 33.980007 
L 182.95 34.555919 
L 183.3375 34.640431 
L 183.725 34.526456 
L 184.1125 34.14455 
L 184.8875 33.214907 
L 185.275 33.375505 
L 185.6625 32.935338 
L 186.05 33.428681 
L 186.825 33.88008 
L 187.2125 33.863237 
L 187.6 33.626751 
L 187.9875 33.627128 
L 188.375 33.89383 
L 188.7625 33.985301 
L 189.5375 33.81015 
L 189.925 34.257088 
L 190.3125 33.905656 
L 190.7 34.424288 
L 191.0875 34.505251 
L 191.475 34.336683 
L 191.8625 34.636922 
L 192.25 34.704829 
L 192.6375 35.286807 
L 193.025 35.123235 
L 193.4125 35.652306 
L 193.8 35.664559 
L 194.1875 35.522083 
L 194.575 35.845004 
L 194.9625 35.557652 
L 195.35 35.620196 
L 196.125 36.741585 
L 196.5125 36.50622 
L 197.2875 37.018161 
L 197.675 36.821052 
L 198.0625 37.264351 
L 198.45 37.170391 
L 198.8375 37.356199 
L 199.225 37.690808 
L 199.6125 38.197266 
L 200 38.220176 
L 200.3875 38.954722 
L 200.775 38.764126 
L 201.1625 38.943233 
L 201.55 38.72251 
L 202.7125 45.839163 
L 203.1 46.13047 
L 203.4875 46.186144 
L 203.875 45.103516 
L 204.2625 44.516353 
L 204.65 46.15565 
L 205.0375 46.085185 
L 205.425 46.676284 
L 205.8125 47.013817 
L 206.975 48.736001 
L 207.3625 48.67762 
L 208.1375 49.441451 
L 208.525 49.303873 
L 209.3 50.342484 
L 209.6875 50.772708 
L 210.075 50.983418 
L 210.4625 49.868562 
L 210.85 50.854038 
L 211.625 51.484345 
L 212.0125 51.390772 
L 212.4 51.6578 
L 212.7875 51.450034 
L 213.175 51.755477 
L 213.5625 52.598061 
L 213.95 52.493097 
L 214.3375 52.563373 
L 214.725 52.308618 
L 215.1125 52.423078 
L 215.5 52.138959 
L 215.8875 52.683366 
L 216.275 51.73687 
L 216.6625 52.454008 
L 217.05 52.690741 
L 217.4375 52.517216 
L 217.825 52.813311 
L 218.2125 52.066799 
L 218.6 53.839492 
L 218.9875 53.415979 
L 219.375 53.689025 
L 219.7625 53.215004 
L 220.15 53.230112 
L 220.5375 52.439138 
L 220.925 53.476243 
L 221.3125 53.634422 
L 221.7 53.020681 
L 222.0875 53.364112 
L 222.475 53.452491 
L 223.25 52.274307 
L 223.6375 53.401724 
L 224.025 53.579789 
L 224.4125 53.272829 
L 224.8 53.317678 
L 225.1875 54.795931 
L 225.575 54.43295 
L 225.9625 54.897365 
L 226.35 54.800491 
L 226.7375 54.16032 
L 227.5125 53.959246 
L 227.9 54.565176 
L 228.2875 54.638376 
L 228.675 55.313432 
L 229.0625 55.589809 
L 229.45 55.505981 
L 229.8375 55.858711 
L 230.225 55.015266 
L 230.6125 55.501292 
L 231.3875 55.473723 
L 232.1625 56.167198 
L 232.55 56.722222 
L 232.9375 56.940863 
L 233.7125 57.910477 
L 234.1 57.845148 
L 235.2625 59.033076 
L 235.65 57.142562 
L 236.0375 58.10027 
L 236.425 58.179984 
L 236.8125 58.028427 
L 237.2 58.604874 
L 237.5875 58.900632 
L 237.975 58.907978 
L 238.3625 58.553909 
L 238.75 58.752733 
L 239.1375 58.050465 
L 239.525 57.776497 
L 239.9125 58.053251 
L 240.3 59.008292 
L 241.075 57.162478 
L 241.85 58.056284 
L 242.2375 57.498881 
L 242.625 57.965209 
L 243.4 57.380277 
L 243.7875 57.996377 
L 244.175 57.475307 
L 244.5625 58.276779 
L 244.95 56.795155 
L 245.3375 57.820334 
L 246.1125 57.905649 
L 246.5 57.724372 
L 247.275 55.870191 
L 247.6625 55.677127 
L 248.05 55.128636 
L 248.4375 55.712429 
L 248.825 57.098764 
L 249.2125 56.306512 
L 249.6 57.241548 
L 250.375 56.53114 
L 250.7625 56.339256 
L 251.15 57.112316 
L 251.5375 56.192507 
L 252.3125 55.451953 
L 252.7 55.338642 
L 253.475 54.188316 
L 253.8625 54.155393 
L 254.25 53.931429 
L 254.6375 54.058906 
L 255.8 52.928535 
L 256.1875 53.01621 
L 256.9625 53.450508 
L 257.35 53.049152 
L 257.7375 53.321851 
L 258.125 52.641135 
L 258.5125 52.709597 
L 258.9 52.969279 
L 259.2875 51.483799 
L 259.675 52.413948 
L 260.0625 52.00828 
L 260.45 52.010491 
L 260.8375 52.992477 
L 261.225 53.630883 
L 261.6125 52.26719 
L 262 52.296157 
L 262.3875 52.894711 
L 263.1625 51.411967 
L 263.55 49.493289 
L 263.9375 50.606539 
L 264.325 49.893891 
L 264.7125 47.932377 
L 265.1 47.920907 
L 265.4875 50.59032 
L 265.875 49.406526 
L 266.65 48.699906 
L 267.0375 49.815942 
L 267.425 51.303851 
L 267.8125 50.159581 
L 268.2 50.756509 
L 268.5875 49.562752 
L 268.975 51.521342 
L 269.3625 50.25706 
L 269.75 49.495896 
L 270.1375 49.984599 
L 270.525 48.062769 
L 270.9125 49.757264 
L 271.3 50.199255 
L 271.6875 47.77063 
L 272.075 49.13696 
L 272.4625 46.723115 
L 272.85 50.288516 
L 273.2375 50.630391 
L 273.625 52.486108 
L 274.0125 47.413061 
L 274.4 49.502488 
L 274.7875 49.739172 
L 275.175 52.300756 
L 275.5625 48.043636 
L 275.95 49.326039 
L 276.3375 53.356816 
L 276.725 51.930975 
L 277.1125 49.035248 
L 277.5 51.625353 
L 277.8875 51.031072 
L 278.275 45.207915 
L 278.6625 46.877626 
L 279.05 52.114463 
L 279.4375 47.169141 
L 279.825 48.999411 
L 280.2125 46.076699 
L 280.6 48.853713 
L 280.9875 48.00876 
L 281.375 45.690898 
L 281.7625 50.140775 
L 282.15 51.508147 
L 282.5375 51.006606 
L 282.925 46.527672 
L 283.7 45.612304 
L 284.475 49.608661 
L 284.8625 49.848398 
L 285.25 47.476071 
L 285.6375 47.332951 
L 286.025 46.816609 
L 286.4125 49.873231 
L 286.8 51.80555 
L 287.1875 49.946006 
L 287.575 54.433287 
L 287.9625 51.396551 
L 288.35 55.288976 
L 288.7375 54.640538 
L 289.125 51.38405 
L 289.5125 49.075308 
L 289.9 52.22245 
L 290.2875 51.221817 
L 290.675 52.53167 
L 291.0625 49.800764 
L 291.45 54.981659 
L 291.8375 49.967935 
L 292.225 51.166916 
L 292.6125 54.199845 
L 293 50.300689 
L 293.3875 54.535633 
L 293.775 52.678845 
L 294.1625 51.447695 
L 294.55 51.861194 
L 294.9375 51.093646 
L 295.325 53.401952 
L 295.7125 52.41943 
L 296.1 53.296849 
L 296.4875 52.803745 
L 296.875 51.375436 
L 297.2625 51.782729 
L 297.65 54.42841 
L 298.0375 51.225505 
L 298.425 51.803954 
L 298.8125 48.868415 
L 299.2 51.596753 
L 299.5875 50.510894 
L 299.975 53.805915 
L 300.3625 47.165285 
L 300.75 51.883212 
L 301.1375 46.335609 
L 301.525 51.380828 
L 301.9125 51.934474 
L 302.3 54.828477 
L 303.075 47.476012 
L 303.4625 50.797769 
L 303.85 49.715518 
L 304.625 50.45633 
L 305.0125 52.631677 
L 305.4 51.473876 
L 305.7875 48.18407 
L 306.175 51.82852 
L 306.5625 49.861504 
L 306.95 51.104551 
L 307.3375 51.755933 
L 307.725 50.686104 
L 308.1125 51.569531 
L 308.5 50.818449 
L 308.8875 52.655132 
L 309.275 50.568818 
L 309.6625 53.81328 
L 310.4375 51.361646 
L 310.825 47.623405 
L 311.2125 50.183195 
L 311.6 55.272748 
L 311.9875 53.303422 
L 312.375 48.761082 
L 312.7625 51.396769 
L 313.5375 47.52431 
L 313.925 46.245456 
L 314.3125 46.542939 
L 314.7 47.05479 
L 315.475 50.537502 
L 315.8625 48.179817 
L 316.25 50.44151 
L 317.025 48.05803 
L 317.4125 50.765412 
L 317.8 48.318595 
L 318.1875 50.744534 
L 318.9625 45.86819 
L 319.35 49.018861 
L 319.7375 45.308199 
L 320.125 49.623532 
L 320.5125 47.549857 
L 320.9 49.22173 
L 321.2875 47.841877 
L 322.0625 48.000046 
L 322.45 48.472452 
L 322.8375 48.196402 
L 323.225 50.14943 
L 323.6125 49.387711 
L 324 51.109438 
L 324 51.109438 
" clip-path="url(#p8320208ae6)" style="fill: none; stroke: #2e6e8e; stroke-linecap: square"/>
   </g>
   <g id="patch_3">
    <path d="M 45 192.24 
L 45 25.92 
" style="fill: none; stroke: #000000; stroke-width: 0.8; stroke-linejoin: miter; stroke-linecap: square"/>
   </g>
   <g id="patch_4">
    <path d="M 324 192.24 
L 324 25.92 
" style="fill: none; stroke: #000000; stroke-width: 0.8; stroke-linejoin: miter; stroke-linecap: square"/>
   </g>
   <g id="patch_5">
    <path d="M 45 192.24 
L 324 192.24 
" style="fill: none; stroke: #000000; stroke-width: 0.8; stroke-linejoin: miter; stroke-linecap: square"/>
   </g>
   <g id="patch_6">
    <path d="M 45 25.92 
L 324 25.92 
" style="fill: none; stroke: #000000; stroke-width: 0.8; stroke-linejoin: miter; stroke-linecap: square"/>
   </g>
   <g id="text_17">
    <text style="font: 8px 'sans-serif'; text-anchor: middle" x="184.5" y="19.92" transform="rotate(-0, 184.5, 19.92)">BMP-inh._untreated</text>
   </g>
  </g>
 </g>
 <defs>
  <clipPath id="p8320208ae6">
   <rect x="45" y="25.92" width="279" height="166.32"/>
  </clipPath>
 </defs>
</svg>
