<?xml version="1.0" encoding="utf-8" standalone="no"?>
<!DOCTYPE svg PUBLIC "-//W3C//DTD SVG 1.1//EN"
  "http://www.w3.org/Graphics/SVG/1.1/DTD/svg11.dtd">
<svg xmlns:xlink="http://www.w3.org/1999/xlink" width="360pt" height="216pt" viewBox="0 0 360 216" xmlns="http://www.w3.org/2000/svg" version="1.1">
 <metadata>
  <rdf:RDF xmlns:dc="http://purl.org/dc/elements/1.1/" xmlns:cc="http://creativecommons.org/ns#" xmlns:rdf="http://www.w3.org/1999/02/22-rdf-syntax-ns#">
   <cc:Work>
    <dc:type rdf:resource="http://purl.org/dc/dcmitype/StillImage"/>
    <dc:date>2023-05-16T18:35:20.892049</dc:date>
    <dc:format>image/svg+xml</dc:format>
    <dc:creator>
     <cc:Agent>
      <dc:title>Matplotlib v3.5.1, https://matplotlib.org/</dc:title>
     </cc:Agent>
    </dc:creator>
   </cc:Work>
  </rdf:RDF>
 </metadata>
 <defs>
  <style type="text/css">*{stroke-linejoin: round; stroke-linecap: butt}</style>
 </defs>
 <g id="figure_1">
  <g id="patch_1">
   <path d="M 0 216 
L 360 216 
L 360 0 
L 0 0 
z
" style="fill: #ffffff"/>
  </g>
  <g id="axes_1">
   <g id="patch_2">
    <path d="M 45 192.24 
L 324 192.24 
L 324 25.92 
L 45 25.92 
z
" style="fill: #ffffff"/>
   </g>
   <g id="PolyCollection_1">
    <defs>
     <path id="mdb7b5ee8d9" d="M 45.3875 -188.130908 
L 45.3875 -186.128214 
L 45.775 -185.824922 
L 46.1625 -185.617275 
L 46.55 -185.204994 
L 46.9375 -185.92365 
L 47.325 -185.998704 
L 47.7125 -186.578145 
L 48.1 -186.931183 
L 48.4875 -186.994093 
L 48.875 -186.50546 
L 49.2625 -187.226078 
L 49.65 -187.19152 
L 50.0375 -187.678587 
L 50.425 -187.356856 
L 50.8125 -187.811546 
L 51.2 -187.720055 
L 51.5875 -187.245786 
L 51.975 -186.55582 
L 52.3625 -186.914786 
L 52.75 -187.083245 
L 53.1375 -187.365064 
L 53.525 -186.865288 
L 53.9125 -187.157715 
L 54.3 -187.745542 
L 54.6875 -187.695727 
L 55.075 -187.341589 
L 55.4625 -187.040171 
L 55.85 -187.283219 
L 56.2375 -187.57169 
L 56.625 -187.469195 
L 57.0125 -187.35068 
L 57.4 -187.533762 
L 57.7875 -187.600915 
L 58.175 -187.715039 
L 58.5625 -187.573911 
L 58.95 -187.567943 
L 59.3375 -187.888445 
L 59.725 -187.470127 
L 60.1125 -187.061257 
L 60.5 -186.596316 
L 60.8875 -187.067949 
L 61.275 -187.101555 
L 61.6625 -187.217344 
L 62.05 -187.651067 
L 62.4375 -187.353684 
L 62.825 -187.022604 
L 63.2125 -186.793772 
L 63.6 -186.659207 
L 63.9875 -186.655837 
L 64.375 -186.66349 
L 64.7625 -186.838532 
L 65.15 -186.683019 
L 65.5375 -187.178216 
L 65.925 -187.212883 
L 66.3125 -187.292211 
L 66.7 -187.174855 
L 67.0875 -186.605258 
L 67.475 -186.693795 
L 67.8625 -186.608609 
L 68.25 -186.806035 
L 68.6375 -186.939669 
L 69.025 -186.982941 
L 69.4125 -186.967724 
L 69.8 -186.574953 
L 70.1875 -186.419619 
L 70.575 -186.01863 
L 70.9625 -186.032797 
L 71.35 -186.411302 
L 71.7375 -186.391306 
L 72.125 -186.105165 
L 72.5125 -186.059434 
L 72.9 -186.690425 
L 73.2875 -186.761732 
L 73.675 -187.117734 
L 74.0625 -186.581377 
L 74.45 -186.963332 
L 74.8375 -187.097292 
L 75.225 -186.732944 
L 75.6125 -186.92808 
L 76 -187.137065 
L 76.3875 -187.016716 
L 76.775 -186.607826 
L 77.1625 -186.418519 
L 77.55 -186.637834 
L 77.9375 -186.406851 
L 78.325 -186.979838 
L 78.7125 -186.69783 
L 79.1 -186.732378 
L 79.4875 -186.801545 
L 79.875 -187.251 
L 80.2625 -187.154681 
L 80.65 -186.877085 
L 81.0375 -186.626047 
L 81.425 -186.276132 
L 81.8125 -186.360525 
L 82.2 -186.915073 
L 82.5875 -187.045604 
L 82.975 -187.143211 
L 83.3625 -187.19381 
L 83.75 -187.700753 
L 84.1375 -187.071161 
L 84.525 -186.72873 
L 84.9125 -186.702202 
L 85.3 -187.03232 
L 85.6875 -186.707407 
L 86.075 -186.499928 
L 86.4625 -186.899509 
L 86.85 -186.869937 
L 87.2375 -186.773946 
L 87.625 -186.798115 
L 88.0125 -186.743749 
L 88.4 -186.196725 
L 88.7875 -186.057104 
L 89.175 -186.232067 
L 89.5625 -186.16295 
L 89.95 -185.855911 
L 90.3375 -185.586176 
L 90.725 -185.346826 
L 91.1125 -185.452662 
L 91.5 -185.705663 
L 91.8875 -185.30976 
L 92.275 -184.938451 
L 92.6625 -184.587218 
L 93.05 -184.830117 
L 93.4375 -184.33845 
L 93.825 -184.078916 
L 94.2125 -183.262078 
L 94.6 -183.463708 
L 94.9875 -182.4785 
L 95.375 -182.523735 
L 95.7625 -180.84978 
L 96.15 -181.195165 
L 96.5375 -180.118475 
L 96.925 -179.950482 
L 97.3125 -179.585231 
L 97.7 -179.67122 
L 98.0875 -179.356736 
L 98.475 -178.700793 
L 98.8625 -178.7642 
L 99.25 -178.666602 
L 99.6375 -178.642165 
L 100.025 -179.086198 
L 100.4125 -179.187355 
L 100.8 -178.564017 
L 101.1875 -178.336702 
L 101.575 -178.887027 
L 101.9625 -179.296066 
L 102.35 -179.47088 
L 102.7375 -179.045831 
L 103.125 -179.521765 
L 103.5125 -179.730751 
L 103.9 -179.581603 
L 104.2875 -180.566771 
L 104.675 -180.596977 
L 105.0625 -181.155541 
L 105.45 -181.410068 
L 105.8375 -181.854419 
L 106.225 -183.174899 
L 106.6125 -183.321242 
L 107 -183.446121 
L 107.3875 -183.321688 
L 107.775 -183.804472 
L 108.1625 -183.520393 
L 108.55 -184.039223 
L 108.9375 -184.242022 
L 109.325 -184.617652 
L 109.7125 -184.624195 
L 110.1 -185.36927 
L 110.4875 -185.691625 
L 110.875 -186.361467 
L 111.2625 -186.226971 
L 111.65 -186.157766 
L 112.0375 -186.609967 
L 112.425 -186.618542 
L 112.8125 -186.449498 
L 113.2 -186.59476 
L 113.5875 -186.732131 
L 113.975 -186.34399 
L 114.3625 -186.660119 
L 114.75 -186.685488 
L 115.1375 -186.828777 
L 115.525 -187.158914 
L 115.9125 -187.501285 
L 116.3 -187.43661 
L 116.6875 -187.278381 
L 117.075 -187.593797 
L 117.4625 -187.493562 
L 117.85 -187.762683 
L 118.2375 -187.688401 
L 118.625 -187.497617 
L 119.0125 -187.472982 
L 119.4 -187.196298 
L 119.7875 -187.214846 
L 120.175 -187.642611 
L 120.5625 -187.464546 
L 120.95 -187.171207 
L 121.3375 -187.153581 
L 121.725 -187.073024 
L 122.1125 -187.295859 
L 122.5 -187.364162 
L 122.8875 -187.196863 
L 123.275 -187.265583 
L 123.6625 -187.20298 
L 124.05 -187.458251 
L 124.4375 -187.290178 
L 124.825 -187.533999 
L 125.2125 -187.644643 
L 125.6 -187.432 
L 125.9875 -187.601907 
L 126.375 -187.423554 
L 126.7625 -187.363141 
L 127.15 -187.438176 
L 127.5375 -187.372559 
L 127.925 -187.448764 
L 128.3125 -187.57862 
L 128.7 -187.527804 
L 129.0875 -187.253617 
L 129.475 -187.48466 
L 129.8625 -187.412996 
L 130.25 -187.416624 
L 130.6375 -187.515719 
L 131.025 -187.362348 
L 131.4125 -187.219733 
L 131.8 -187.393714 
L 132.1875 -187.312236 
L 132.575 -187.532968 
L 132.9625 -187.599557 
L 133.35 -187.853797 
L 133.7375 -187.754108 
L 134.125 -187.786366 
L 134.5125 -187.885867 
L 134.9 -187.738672 
L 135.2875 -187.810247 
L 135.675 -187.466598 
L 136.0625 -187.659077 
L 136.45 -187.774658 
L 136.8375 -187.616093 
L 137.225 -187.841564 
L 137.6125 -188.012997 
L 138 -188.008883 
L 138.3875 -187.90499 
L 138.775 -187.95082 
L 139.1625 -187.85466 
L 139.55 -187.999912 
L 139.9375 -188.308269 
L 140.325 -188.479653 
L 140.7125 -188.173189 
L 141.1 -188.006425 
L 141.4875 -187.717606 
L 141.875 -183.404455 
L 142.2625 -183.28825 
L 142.65 -183.943459 
L 143.0375 -187.494455 
L 143.425 -188.370922 
L 143.8125 -188.028849 
L 144.2 -187.075195 
L 144.5875 -187.317926 
L 144.975 -187.136728 
L 145.3625 -187.182697 
L 145.75 -187.132475 
L 146.1375 -187.145422 
L 146.525 -187.046575 
L 146.9125 -187.426409 
L 147.3 -187.387974 
L 147.6875 -187.319641 
L 148.075 -187.024885 
L 148.4625 -187.31293 
L 148.85 -186.929339 
L 149.2375 -186.976715 
L 149.625 -187.297009 
L 150.0125 -186.518773 
L 150.4 -186.532266 
L 150.7875 -186.496161 
L 151.175 -186.235011 
L 151.5625 -185.951496 
L 151.95 -185.144274 
L 152.3375 -185.286136 
L 152.725 -185.522066 
L 153.1125 -185.819261 
L 153.5 -185.9305 
L 153.8875 -185.774928 
L 154.275 -185.957048 
L 154.6625 -185.825298 
L 155.05 -185.300629 
L 155.4375 -184.762993 
L 155.825 -185.060268 
L 156.2125 -185.115773 
L 156.6 -184.722358 
L 156.9875 -185.333522 
L 157.375 -184.45761 
L 157.7625 -184.521046 
L 158.15 -184.415497 
L 158.5375 -184.61904 
L 158.925 -185.093656 
L 159.3125 -184.093628 
L 159.7 -185.304852 
L 160.0875 -184.457154 
L 160.475 -184.687879 
L 160.8625 -184.858281 
L 161.25 -184.876651 
L 161.6375 -184.672038 
L 162.025 -184.769011 
L 162.4125 -184.578693 
L 162.8 -184.585156 
L 163.1875 -184.38538 
L 163.575 -184.07046 
L 163.9625 -183.589866 
L 164.35 -183.611983 
L 164.7375 -183.340087 
L 165.125 -183.57343 
L 165.5125 -183.633337 
L 165.9 -183.926408 
L 166.2875 -183.828205 
L 166.675 -183.640246 
L 167.0625 -184.068497 
L 167.45 -183.678542 
L 167.8375 -183.269127 
L 168.225 -183.559293 
L 168.6125 -183.327418 
L 169 -182.904004 
L 169.3875 -182.517658 
L 169.775 -182.512919 
L 170.1625 -182.424689 
L 170.55 -182.773791 
L 170.9375 -182.220165 
L 171.325 -182.490316 
L 171.7125 -182.441096 
L 172.1 -182.421894 
L 172.4875 -181.938306 
L 172.875 -182.14862 
L 173.2625 -182.152565 
L 173.65 -182.158999 
L 174.0375 -182.267948 
L 174.425 -182.16006 
L 174.8125 -181.726714 
L 175.2 -181.914296 
L 175.5875 -181.35031 
L 175.975 -181.244762 
L 176.3625 -180.922198 
L 176.75 -180.895927 
L 177.1375 -181.239507 
L 177.525 -181.493341 
L 177.9125 -181.180483 
L 178.3 -180.825631 
L 178.6875 -181.472027 
L 179.075 -180.974382 
L 179.4625 -180.953009 
L 179.85 -179.887809 
L 180.2375 -180.215885 
L 180.625 -180.019331 
L 181.0125 -180.185104 
L 181.4 -180.031901 
L 181.7875 -180.304323 
L 182.175 -180.502482 
L 182.5625 -180.686932 
L 182.95 -180.306067 
L 183.3375 -180.107293 
L 183.725 -180.257581 
L 184.1125 -180.972122 
L 184.5 -181.502997 
L 184.8875 -181.746193 
L 185.275 -181.514824 
L 185.6625 -181.89323 
L 186.05 -181.320718 
L 186.4375 -180.991443 
L 186.825 -180.626252 
L 187.2125 -180.57267 
L 187.6 -180.621979 
L 187.9875 -180.786671 
L 188.375 -180.396557 
L 188.7625 -180.559366 
L 189.15 -180.673836 
L 189.5375 -180.678952 
L 189.925 -180.189803 
L 190.3125 -180.739503 
L 190.7 -180.174932 
L 191.0875 -180.106579 
L 191.475 -180.290622 
L 191.8625 -179.67927 
L 192.25 -179.645326 
L 192.6375 -179.060681 
L 193.025 -178.998425 
L 193.4125 -178.597753 
L 193.8 -178.546282 
L 194.1875 -178.614209 
L 194.575 -178.118487 
L 194.9625 -178.478891 
L 195.35 -178.341718 
L 195.7375 -177.733885 
L 196.125 -176.979978 
L 196.5125 -177.08168 
L 196.9 -176.983398 
L 197.2875 -176.444731 
L 197.675 -176.786824 
L 198.0625 -176.083188 
L 198.45 -176.137414 
L 198.8375 -176.117013 
L 199.225 -175.794469 
L 199.6125 -174.882412 
L 200 -174.689923 
L 200.3875 -174.152118 
L 200.775 -174.07982 
L 201.1625 -173.88615 
L 201.55 -174.007382 
L 201.9375 -171.522438 
L 202.325 -168.806967 
L 202.7125 -166.938293 
L 203.1 -166.609315 
L 203.4875 -166.313399 
L 203.875 -167.392517 
L 204.2625 -168.09771 
L 204.65 -166.269344 
L 205.0375 -166.168018 
L 205.425 -165.783625 
L 205.8125 -165.524368 
L 206.2 -164.675391 
L 206.5875 -163.674153 
L 206.975 -163.228444 
L 207.3625 -163.109215 
L 207.75 -163.01241 
L 208.1375 -162.652414 
L 208.525 -162.740703 
L 208.9125 -162.000228 
L 209.3 -161.297166 
L 209.6875 -160.467461 
L 210.075 -160.092604 
L 210.4625 -161.404678 
L 210.85 -160.294947 
L 211.2375 -159.742699 
L 211.625 -159.168284 
L 212.0125 -159.277253 
L 212.4 -159.428284 
L 212.7875 -159.674187 
L 213.175 -159.267547 
L 213.5625 -158.316114 
L 213.95 -158.257437 
L 214.3375 -158.317958 
L 214.725 -158.858588 
L 215.1125 -158.291579 
L 215.5 -158.776138 
L 215.8875 -157.791723 
L 216.275 -159.089631 
L 216.6625 -158.342187 
L 217.05 -158.057621 
L 217.4375 -158.070985 
L 217.825 -157.715865 
L 218.2125 -158.555673 
L 218.6 -156.315264 
L 218.9875 -156.65471 
L 219.375 -156.304756 
L 219.7625 -156.911924 
L 220.15 -156.92965 
L 220.5375 -157.903071 
L 220.925 -156.651865 
L 221.3125 -156.484229 
L 221.7 -157.342971 
L 222.0875 -157.022955 
L 222.475 -156.92386 
L 222.8625 -157.575332 
L 223.25 -158.532455 
L 223.6375 -156.911915 
L 224.025 -156.782415 
L 224.4125 -157.10257 
L 224.8 -157.483831 
L 225.1875 -155.632307 
L 225.575 -156.09465 
L 225.9625 -155.273579 
L 226.35 -155.316693 
L 226.7375 -155.812722 
L 227.125 -156.102006 
L 227.5125 -156.332206 
L 227.9 -155.622622 
L 228.2875 -155.191575 
L 228.675 -154.282145 
L 229.0625 -153.974967 
L 229.45 -154.539578 
L 229.8375 -153.858475 
L 230.225 -154.795473 
L 230.6125 -154.366856 
L 231 -154.305501 
L 231.3875 -154.242085 
L 231.775 -153.887937 
L 232.1625 -153.321582 
L 232.55 -152.86715 
L 232.9375 -152.521964 
L 233.325 -151.817485 
L 233.7125 -151.179198 
L 234.1 -151.015199 
L 234.4875 -151.058908 
L 234.875 -150.207829 
L 235.2625 -150.404759 
L 235.65 -152.268328 
L 236.0375 -151.345734 
L 236.425 -151.135578 
L 236.8125 -151.427123 
L 237.2 -151.209077 
L 237.5875 -150.840663 
L 237.975 -150.618444 
L 238.3625 -151.081173 
L 238.75 -150.413731 
L 239.1375 -151.370715 
L 239.525 -151.699207 
L 239.9125 -151.690206 
L 240.3 -150.256345 
L 240.6875 -151.323934 
L 241.075 -152.059799 
L 241.4625 -152.129193 
L 241.85 -151.894492 
L 242.2375 -152.996699 
L 242.625 -152.855462 
L 243.0125 -153.406838 
L 243.4 -153.153738 
L 243.7875 -152.713283 
L 244.175 -153.362198 
L 244.5625 -152.296314 
L 244.95 -153.638525 
L 245.3375 -152.654685 
L 245.725 -152.836309 
L 246.1125 -152.757309 
L 246.5 -153.116364 
L 246.8875 -154.052401 
L 247.275 -154.654722 
L 247.6625 -155.420516 
L 248.05 -155.4796 
L 248.4375 -155.232359 
L 248.825 -153.250592 
L 249.2125 -153.831807 
L 249.6 -152.832453 
L 249.9875 -153.209025 
L 250.375 -153.51763 
L 250.7625 -153.388795 
L 251.15 -152.719866 
L 251.5375 -153.530786 
L 251.925 -154.179521 
L 252.3125 -154.174535 
L 252.7 -154.01019 
L 253.0875 -154.890692 
L 253.475 -155.259076 
L 253.8625 -155.821118 
L 254.25 -155.208805 
L 254.6375 -154.960245 
L 255.025 -155.319974 
L 255.4125 -156.767248 
L 255.8 -157.305389 
L 256.1875 -156.1565 
L 256.575 -156.220938 
L 256.9625 -156.251778 
L 257.35 -156.594129 
L 257.7375 -155.923802 
L 258.125 -158.085448 
L 258.5125 -157.429525 
L 258.9 -156.929858 
L 259.2875 -158.456528 
L 259.675 -158.033591 
L 260.0625 -158.361964 
L 260.45 -157.712019 
L 260.8375 -156.357961 
L 261.225 -154.292416 
L 261.6125 -156.788314 
L 262 -156.949149 
L 262.3875 -154.011607 
L 262.775 -157.423845 
L 263.1625 -157.273061 
L 263.55 -158.670926 
L 263.9375 -157.26747 
L 264.325 -157.44964 
L 264.7125 -158.209803 
L 265.1 -157.725987 
L 265.4875 -155.065922 
L 265.875 -156.139737 
L 266.2625 -157.480917 
L 266.65 -157.618059 
L 267.0375 -156.400569 
L 267.425 -156.226172 
L 267.8125 -156.875443 
L 268.2 -154.744964 
L 268.5875 -156.474563 
L 268.975 -155.63999 
L 269.3625 -157.147101 
L 269.75 -157.102649 
L 270.1375 -156.372365 
L 270.525 -158.400983 
L 270.9125 -156.754658 
L 271.3 -155.95384 
L 271.6875 -160.766985 
L 272.075 -157.652439 
L 272.4625 -159.409369 
L 272.85 -156.977105 
L 273.2375 -156.635785 
L 273.625 -156.317663 
L 274.0125 -159.470158 
L 274.4 -156.931712 
L 274.7875 -156.953442 
L 275.175 -157.250796 
L 275.5625 -161.531471 
L 275.95 -159.292271 
L 276.3375 -153.835604 
L 276.725 -155.047513 
L 277.1125 -159.298834 
L 277.5 -154.835871 
L 277.8875 -156.284225 
L 278.275 -163.01701 
L 278.6625 -160.009697 
L 279.05 -156.062164 
L 279.4375 -160.920109 
L 279.825 -158.105226 
L 280.2125 -160.901412 
L 280.6 -158.865557 
L 280.9875 -157.838643 
L 281.375 -162.712152 
L 281.7625 -156.511134 
L 282.15 -156.41195 
L 282.5375 -156.310089 
L 282.925 -161.584716 
L 283.3125 -160.918126 
L 283.7 -162.280798 
L 284.0875 -159.405889 
L 284.475 -160.034154 
L 284.8625 -159.710202 
L 285.25 -160.071409 
L 285.6375 -161.957035 
L 286.025 -162.670595 
L 286.4125 -156.351379 
L 286.8 -155.009614 
L 287.1875 -157.419215 
L 287.575 -152.560527 
L 287.9625 -154.61723 
L 288.35 -150.052079 
L 288.7375 -151.714682 
L 289.125 -156.355542 
L 289.5125 -158.575301 
L 289.9 -156.212997 
L 290.2875 -156.942904 
L 290.675 -154.749842 
L 291.0625 -157.720168 
L 291.45 -151.696957 
L 291.8375 -157.703067 
L 292.225 -156.51845 
L 292.6125 -152.66209 
L 293 -156.866372 
L 293.3875 -153.276159 
L 293.775 -154.97453 
L 294.1625 -155.694742 
L 294.55 -157.377886 
L 294.9375 -156.004706 
L 295.325 -152.693258 
L 295.7125 -153.90483 
L 296.1 -156.235907 
L 296.4875 -155.876069 
L 296.875 -155.731075 
L 297.2625 -156.040146 
L 297.65 -153.788258 
L 298.0375 -154.630177 
L 298.425 -155.933051 
L 298.8125 -158.516009 
L 299.2 -154.579073 
L 299.5875 -155.290739 
L 299.975 -154.296193 
L 300.3625 -160.435321 
L 300.75 -154.891069 
L 301.1375 -164.592148 
L 301.525 -157.667091 
L 301.9125 -155.403753 
L 302.3 -152.370001 
L 302.6875 -155.282422 
L 303.075 -159.760563 
L 303.4625 -155.491685 
L 303.85 -160.90625 
L 304.2375 -158.561898 
L 304.625 -158.511647 
L 305.0125 -153.583575 
L 305.4 -155.781514 
L 305.7875 -159.671163 
L 306.175 -153.86587 
L 306.5625 -157.508813 
L 306.95 -159.253371 
L 307.3375 -155.386751 
L 307.725 -155.496671 
L 308.1125 -156.514752 
L 308.5 -153.636701 
L 308.8875 -155.848569 
L 309.275 -156.318397 
L 309.6625 -153.294697 
L 310.05 -154.638702 
L 310.4375 -157.352418 
L 310.825 -160.845034 
L 311.2125 -154.536881 
L 311.6 -151.697641 
L 311.9875 -153.945068 
L 312.375 -157.906035 
L 312.7625 -157.351378 
L 313.15 -155.502371 
L 313.5375 -159.94067 
L 313.925 -164.325317 
L 314.3125 -160.956996 
L 314.7 -159.710411 
L 315.0875 -161.068057 
L 315.475 -157.447042 
L 315.8625 -159.115168 
L 316.25 -155.243938 
L 316.6375 -158.652497 
L 317.025 -160.774867 
L 317.4125 -155.264915 
L 317.8 -157.450641 
L 318.1875 -156.497424 
L 318.575 -160.596266 
L 318.9625 -159.960576 
L 319.35 -156.326109 
L 319.7375 -162.494036 
L 320.125 -155.895826 
L 320.5125 -160.721711 
L 320.9 -156.189671 
L 321.2875 -159.103886 
L 321.675 -158.799762 
L 322.0625 -159.426113 
L 322.45 -159.981831 
L 322.8375 -156.331433 
L 323.225 -155.084391 
L 323.6125 -155.554645 
L 324 -151.945755 
L 324 -177.835369 
L 324 -177.835369 
L 323.6125 -177.669954 
L 323.225 -176.616749 
L 322.8375 -179.275763 
L 322.45 -175.073246 
L 322.0625 -176.573794 
L 321.675 -177.341491 
L 321.2875 -177.212379 
L 320.9 -177.36691 
L 320.5125 -176.178575 
L 320.125 -176.857111 
L 319.7375 -178.889585 
L 319.35 -177.636169 
L 318.9625 -180.303004 
L 318.575 -174.602397 
L 318.1875 -174.013528 
L 317.8 -177.912189 
L 317.4125 -175.204242 
L 317.025 -175.109073 
L 316.6375 -174.873847 
L 316.25 -175.873043 
L 315.8625 -176.525238 
L 315.475 -173.477954 
L 315.0875 -173.106111 
L 314.7 -178.18001 
L 314.3125 -177.957106 
L 313.925 -175.18381 
L 313.5375 -177.01067 
L 313.15 -178.123087 
L 312.7625 -171.855064 
L 312.375 -176.571822 
L 311.9875 -171.448087 
L 311.6 -169.756824 
L 311.2125 -177.096729 
L 310.825 -175.908136 
L 310.4375 -171.92429 
L 310.05 -172.431471 
L 309.6625 -171.078742 
L 309.275 -174.543987 
L 308.8875 -170.841147 
L 308.5 -176.726382 
L 308.1125 -172.346206 
L 307.725 -175.13114 
L 307.3375 -173.101343 
L 306.95 -170.537488 
L 306.5625 -174.768179 
L 306.175 -174.477091 
L 305.7875 -175.960717 
L 305.4 -173.270754 
L 305.0125 -173.153091 
L 304.625 -172.575672 
L 304.2375 -173.34677 
L 303.85 -171.662753 
L 303.4625 -174.912777 
L 303.075 -177.287433 
L 302.6875 -173.502956 
L 302.3 -169.973026 
L 301.9125 -172.727299 
L 301.525 -171.571232 
L 301.1375 -174.736615 
L 300.75 -173.342507 
L 300.3625 -177.234109 
L 299.975 -170.091978 
L 299.5875 -175.687493 
L 299.2 -174.227401 
L 298.8125 -175.747142 
L 298.425 -172.459061 
L 298.0375 -174.918774 
L 297.65 -169.354923 
L 297.2625 -172.394395 
L 296.875 -173.518015 
L 296.4875 -170.516442 
L 296.1 -169.170414 
L 295.7125 -173.25627 
L 295.325 -172.502838 
L 294.9375 -173.808003 
L 294.55 -170.899725 
L 294.1625 -173.409849 
L 293.775 -171.667779 
L 293.3875 -169.652594 
L 293 -174.532269 
L 292.6125 -170.938239 
L 292.225 -173.147718 
L 291.8375 -174.361064 
L 291.45 -170.339745 
L 291.0625 -174.678324 
L 290.675 -172.186837 
L 290.2875 -172.613443 
L 289.9 -171.342103 
L 289.5125 -175.274082 
L 289.125 -172.876337 
L 288.7375 -171.004263 
L 288.35 -171.370009 
L 287.9625 -174.589668 
L 287.575 -170.572899 
L 287.1875 -174.688773 
L 286.8 -173.379286 
L 286.4125 -175.902139 
L 286.025 -175.696207 
L 285.6375 -175.377063 
L 285.25 -176.976469 
L 284.8625 -172.593001 
L 284.475 -172.748503 
L 284.0875 -177.80096 
L 283.7 -178.494633 
L 283.3125 -179.028542 
L 282.925 -177.35998 
L 282.5375 -173.676739 
L 282.15 -172.571776 
L 281.7625 -175.207315 
L 281.375 -177.906052 
L 280.9875 -178.143856 
L 280.6 -175.427017 
L 280.2125 -178.945189 
L 279.825 -175.895953 
L 279.4375 -176.741629 
L 279.05 -171.70891 
L 278.6625 -178.23503 
L 278.275 -178.56716 
L 277.8875 -173.65365 
L 277.5 -173.913462 
L 277.1125 -174.63067 
L 276.725 -173.090577 
L 276.3375 -171.450764 
L 275.95 -174.055631 
L 275.5625 -174.381258 
L 275.175 -170.147652 
L 274.7875 -175.568214 
L 274.4 -176.063311 
L 274.0125 -177.703739 
L 273.625 -170.710081 
L 273.2375 -174.103414 
L 272.85 -174.445883 
L 272.4625 -179.1444 
L 272.075 -176.073641 
L 271.6875 -175.691736 
L 271.3 -175.64767 
L 270.9125 -175.730834 
L 270.525 -177.473499 
L 270.1375 -175.658397 
L 269.75 -175.905539 
L 269.3625 -174.338779 
L 268.975 -173.317267 
L 268.5875 -176.399873 
L 268.2 -175.741997 
L 267.8125 -174.805414 
L 267.425 -173.166127 
L 267.0375 -175.967528 
L 266.65 -176.982149 
L 266.2625 -176.405008 
L 265.875 -177.047231 
L 265.4875 -175.753437 
L 265.1 -178.432238 
L 264.7125 -177.925423 
L 264.325 -174.762598 
L 263.9375 -173.519452 
L 263.55 -174.342516 
L 263.1625 -171.902966 
L 262.775 -170.335888 
L 262.3875 -172.198991 
L 262 -170.458518 
L 261.6125 -170.677327 
L 261.225 -170.445799 
L 260.8375 -169.657085 
L 260.45 -170.26698 
L 260.0625 -169.621496 
L 259.675 -169.138513 
L 259.2875 -170.575853 
L 258.9 -169.131603 
L 258.5125 -169.151281 
L 258.125 -168.632302 
L 257.7375 -169.432496 
L 257.35 -169.307586 
L 256.9625 -168.847186 
L 256.575 -169.206202 
L 256.1875 -169.811061 
L 255.8 -168.83758 
L 255.4125 -168.974584 
L 255.025 -169.3541 
L 254.6375 -168.921944 
L 254.25 -168.928318 
L 253.8625 -167.868055 
L 253.475 -168.364273 
L 253.0875 -167.549487 
L 252.7 -167.312506 
L 252.3125 -166.921579 
L 251.925 -166.135611 
L 251.5375 -166.0842 
L 251.15 -165.055522 
L 250.7625 -165.932713 
L 250.375 -165.420069 
L 249.9875 -165.070402 
L 249.6 -164.684432 
L 249.2125 -165.55513 
L 248.825 -164.551879 
L 248.4375 -165.342784 
L 248.05 -166.263128 
L 247.6625 -165.22523 
L 247.275 -165.604895 
L 246.8875 -164.219174 
L 246.5 -163.434872 
L 246.1125 -163.431412 
L 245.725 -163.340535 
L 245.3375 -163.704607 
L 244.95 -164.771164 
L 244.5625 -163.150128 
L 244.175 -163.687189 
L 243.7875 -163.293962 
L 243.4 -164.085689 
L 243.0125 -163.361403 
L 242.625 -163.214119 
L 242.2375 -164.005579 
L 241.85 -163.9929 
L 241.4625 -164.769291 
L 241.075 -165.615245 
L 240.6875 -164.640525 
L 240.3 -163.727071 
L 239.9125 -164.203293 
L 239.525 -164.747818 
L 239.1375 -164.528355 
L 238.75 -164.080782 
L 238.3625 -163.811008 
L 237.975 -163.5656 
L 237.5875 -163.358053 
L 237.2 -163.581194 
L 236.8125 -164.516022 
L 236.425 -164.504453 
L 236.0375 -164.453726 
L 235.65 -165.446528 
L 235.2625 -163.529089 
L 234.875 -164.403544 
L 234.4875 -164.548925 
L 234.1 -165.294485 
L 233.7125 -164.999848 
L 233.325 -165.177318 
L 232.9375 -165.59631 
L 232.55 -165.688386 
L 232.1625 -166.344061 
L 231.775 -166.483286 
L 231.3875 -166.810449 
L 231 -166.682556 
L 230.6125 -166.63052 
L 230.225 -167.173975 
L 229.8375 -166.424102 
L 229.45 -166.44844 
L 229.0625 -166.845354 
L 228.675 -167.09099 
L 228.2875 -167.531672 
L 227.9 -167.247047 
L 227.5125 -167.749302 
L 227.125 -167.687472 
L 226.7375 -167.866657 
L 226.35 -167.082306 
L 225.9625 -166.931671 
L 225.575 -167.03943 
L 225.1875 -166.775812 
L 224.8 -167.880814 
L 224.4125 -168.351732 
L 224.025 -168.058007 
L 223.6375 -168.284658 
L 223.25 -168.91893 
L 222.8625 -168.564207 
L 222.475 -168.171139 
L 222.0875 -168.24884 
L 221.7 -168.615688 
L 221.3125 -168.246947 
L 220.925 -168.395669 
L 220.5375 -169.218653 
L 220.15 -168.610106 
L 219.7625 -168.658067 
L 219.375 -168.317233 
L 218.9875 -168.513311 
L 218.6 -168.005753 
L 218.2125 -169.310749 
L 217.825 -168.657512 
L 217.4375 -168.894563 
L 217.05 -168.560896 
L 216.6625 -168.749757 
L 216.275 -169.436669 
L 215.8875 -168.841565 
L 215.5 -168.945944 
L 215.1125 -168.862304 
L 214.725 -168.524157 
L 214.3375 -168.555295 
L 213.95 -168.756349 
L 213.5625 -168.487764 
L 213.175 -169.221498 
L 212.7875 -169.425765 
L 212.4 -169.256136 
L 212.0125 -169.941204 
L 211.625 -169.863027 
L 211.2375 -169.772507 
L 210.85 -169.996918 
L 210.4625 -170.858178 
L 210.075 -169.94056 
L 209.6875 -169.987143 
L 209.3 -170.017865 
L 208.9125 -170.157882 
L 208.525 -170.651572 
L 208.1375 -170.464704 
L 207.75 -170.878411 
L 207.3625 -171.535544 
L 206.975 -171.299594 
L 206.5875 -171.809125 
L 206.2 -172.222377 
L 205.8125 -172.447997 
L 205.425 -172.863807 
L 205.0375 -173.661611 
L 204.65 -173.419356 
L 204.2625 -174.869584 
L 203.875 -174.40043 
L 203.4875 -173.314313 
L 203.1 -173.129745 
L 202.7125 -173.3834 
L 202.325 -175.903745 
L 201.9375 -178.147336 
L 201.55 -180.547579 
L 201.1625 -180.227365 
L 200.775 -180.391908 
L 200.3875 -179.938417 
L 200 -180.869726 
L 199.6125 -180.723057 
L 199.225 -180.823916 
L 198.8375 -181.170549 
L 198.45 -181.521783 
L 198.0625 -181.38813 
L 197.675 -181.571092 
L 197.2875 -181.518948 
L 196.9 -181.556272 
L 196.5125 -181.90584 
L 196.125 -181.536871 
L 195.7375 -181.798893 
L 195.35 -182.417849 
L 194.9625 -182.405844 
L 194.575 -182.191505 
L 194.1875 -182.341625 
L 193.8 -182.1246 
L 193.4125 -182.097615 
L 193.025 -182.755124 
L 192.6375 -182.365685 
L 192.25 -182.945016 
L 191.8625 -183.046927 
L 191.475 -183.035992 
L 191.0875 -182.882839 
L 190.7 -182.976472 
L 190.3125 -183.449224 
L 189.925 -183.295982 
L 189.5375 -183.700728 
L 189.15 -183.551313 
L 188.7625 -183.470052 
L 188.375 -183.815764 
L 187.9875 -183.959092 
L 187.6 -184.124518 
L 187.2125 -183.700877 
L 186.825 -183.613589 
L 186.4375 -183.759674 
L 186.05 -183.82194 
L 185.6625 -184.236094 
L 185.275 -183.734146 
L 184.8875 -183.824012 
L 184.5 -183.333395 
L 184.1125 -182.738777 
L 183.725 -182.689547 
L 183.3375 -182.611845 
L 182.95 -182.582075 
L 182.5625 -183.353034 
L 182.175 -182.978048 
L 181.7875 -182.948932 
L 181.4 -183.083596 
L 181.0125 -183.318406 
L 180.625 -183.207415 
L 180.2375 -183.496343 
L 179.85 -183.074367 
L 179.4625 -183.541429 
L 179.075 -183.869465 
L 178.6875 -184.503638 
L 178.3 -183.77377 
L 177.9125 -184.138119 
L 177.525 -184.329617 
L 177.1375 -184.471409 
L 176.75 -184.115814 
L 176.3625 -184.300065 
L 175.975 -184.45755 
L 175.5875 -184.673158 
L 175.2 -184.868542 
L 174.8125 -185.061021 
L 174.425 -185.104829 
L 174.0375 -184.843421 
L 173.65 -185.212162 
L 173.2625 -185.247444 
L 172.875 -185.26162 
L 172.4875 -185.184563 
L 172.1 -185.283588 
L 171.7125 -185.173638 
L 171.325 -185.131238 
L 170.9375 -184.979592 
L 170.55 -185.808535 
L 170.1625 -185.838602 
L 169.775 -185.483463 
L 169.3875 -185.722694 
L 169 -185.594196 
L 168.6125 -186.039458 
L 168.225 -186.293619 
L 167.8375 -186.564137 
L 167.45 -186.505341 
L 167.0625 -186.358305 
L 166.675 -185.889171 
L 166.2875 -186.281089 
L 165.9 -186.133398 
L 165.5125 -186.084852 
L 165.125 -186.030338 
L 164.7375 -185.862385 
L 164.35 -186.166678 
L 163.9625 -186.080798 
L 163.575 -186.48139 
L 163.1875 -186.513004 
L 162.8 -186.785128 
L 162.4125 -186.482788 
L 162.025 -186.823255 
L 161.6375 -186.640312 
L 161.25 -186.58902 
L 160.8625 -187.178285 
L 160.475 -187.865218 
L 160.0875 -187.605446 
L 159.7 -187.208491 
L 159.3125 -188.232669 
L 158.925 -187.588732 
L 158.5375 -187.660069 
L 158.15 -187.651365 
L 157.7625 -187.651811 
L 157.375 -187.484422 
L 156.9875 -187.476868 
L 156.6 -187.548582 
L 156.2125 -187.859061 
L 155.825 -187.703133 
L 155.4375 -187.761493 
L 155.05 -188.18336 
L 154.6625 -188.001934 
L 154.275 -188.19364 
L 153.8875 -187.980134 
L 153.5 -188.207737 
L 153.1125 -188.162621 
L 152.725 -187.887989 
L 152.3375 -188.140335 
L 151.95 -187.902333 
L 151.5625 -188.020928 
L 151.175 -188.164723 
L 150.7875 -188.06877 
L 150.4 -188.186839 
L 150.0125 -188.384325 
L 149.625 -188.554807 
L 149.2375 -188.577558 
L 148.85 -188.555441 
L 148.4625 -188.150358 
L 148.075 -188.251535 
L 147.6875 -188.355398 
L 147.3 -188.391453 
L 146.9125 -188.583803 
L 146.525 -188.413758 
L 146.1375 -188.56249 
L 145.75 -188.517364 
L 145.3625 -188.134685 
L 144.975 -188.113718 
L 144.5875 -188.171394 
L 144.2 -187.873961 
L 143.8125 -188.739385 
L 143.425 -189.041844 
L 143.0375 -188.062138 
L 142.65 -184.505928 
L 142.2625 -183.950309 
L 141.875 -184.206948 
L 141.4875 -188.455801 
L 141.1 -189.107769 
L 140.7125 -189.056258 
L 140.325 -189.171294 
L 139.9375 -189.15347 
L 139.55 -188.81561 
L 139.1625 -188.824115 
L 138.775 -188.729819 
L 138.3875 -188.670943 
L 138 -188.797101 
L 137.6125 -188.81442 
L 137.225 -188.765775 
L 136.8375 -188.620225 
L 136.45 -188.669446 
L 136.0625 -188.50515 
L 135.675 -188.531361 
L 135.2875 -188.719013 
L 134.9 -188.611313 
L 134.5125 -188.737452 
L 134.125 -188.666482 
L 133.7375 -188.715117 
L 133.35 -188.856265 
L 132.9625 -188.69527 
L 132.575 -188.54416 
L 132.1875 -188.546023 
L 131.8 -188.542504 
L 131.4125 -188.490161 
L 131.025 -188.756258 
L 130.6375 -188.843407 
L 130.25 -188.734656 
L 129.8625 -188.812754 
L 129.475 -188.657004 
L 129.0875 -188.6552 
L 128.7 -188.792858 
L 128.3125 -188.875179 
L 127.925 -188.933956 
L 127.5375 -188.555451 
L 127.15 -188.8098 
L 126.7625 -188.676395 
L 126.375 -188.787009 
L 125.9875 -188.788625 
L 125.6 -188.707801 
L 125.2125 -189.102574 
L 124.825 -189.069235 
L 124.4375 -189.156245 
L 124.05 -189.278181 
L 123.6625 -189.378921 
L 123.275 -189.26794 
L 122.8875 -189.395506 
L 122.5 -189.408711 
L 122.1125 -189.60932 
L 121.725 -189.315406 
L 121.3375 -189.464326 
L 120.95 -189.604402 
L 120.5625 -189.402783 
L 120.175 -189.57038 
L 119.7875 -189.439482 
L 119.4 -189.396765 
L 119.0125 -189.5806 
L 118.625 -189.448821 
L 118.2375 -189.476113 
L 117.85 -189.442615 
L 117.4625 -189.180573 
L 117.075 -189.336898 
L 116.6875 -189.244614 
L 116.3 -189.47985 
L 115.9125 -189.461034 
L 115.525 -189.2451 
L 115.1375 -189.4352 
L 114.75 -189.423086 
L 114.3625 -189.458467 
L 113.975 -189.398956 
L 113.5875 -189.286389 
L 113.2 -189.065964 
L 112.8125 -189.16376 
L 112.425 -189.135526 
L 112.0375 -189.014652 
L 111.65 -188.941223 
L 111.2625 -188.958224 
L 110.875 -188.678616 
L 110.4875 -188.531133 
L 110.1 -188.632875 
L 109.7125 -188.328136 
L 109.325 -188.338426 
L 108.9375 -188.50633 
L 108.55 -188.505586 
L 108.1625 -188.647527 
L 107.775 -188.566495 
L 107.3875 -188.427468 
L 107 -188.108811 
L 106.6125 -188.20857 
L 106.225 -188.058639 
L 105.8375 -187.768958 
L 105.45 -187.88664 
L 105.0625 -187.334789 
L 104.675 -187.500641 
L 104.2875 -187.574704 
L 103.9 -187.106244 
L 103.5125 -187.317311 
L 103.125 -187.063914 
L 102.7375 -186.656679 
L 102.35 -186.951723 
L 101.9625 -186.665264 
L 101.575 -186.670747 
L 101.1875 -186.634989 
L 100.8 -186.315716 
L 100.4125 -186.4115 
L 100.025 -186.397046 
L 99.6375 -186.265763 
L 99.25 -186.503636 
L 98.8625 -186.57185 
L 98.475 -186.654191 
L 98.0875 -186.58328 
L 97.7 -186.785881 
L 97.3125 -186.760126 
L 96.925 -186.563999 
L 96.5375 -186.863345 
L 96.15 -187.353436 
L 95.7625 -187.757409 
L 95.375 -187.923846 
L 94.9875 -187.808285 
L 94.6 -188.132682 
L 94.2125 -187.61184 
L 93.825 -187.9497 
L 93.4375 -187.943375 
L 93.05 -188.083373 
L 92.6625 -188.300299 
L 92.275 -188.112776 
L 91.8875 -188.31044 
L 91.5 -188.52699 
L 91.1125 -188.221963 
L 90.725 -188.377881 
L 90.3375 -188.6025 
L 89.95 -188.48684 
L 89.5625 -188.576477 
L 89.175 -188.376642 
L 88.7875 -188.681491 
L 88.4 -188.387953 
L 88.0125 -188.431493 
L 87.625 -188.538063 
L 87.2375 -188.454889 
L 86.85 -188.459538 
L 86.4625 -188.588958 
L 86.075 -188.72052 
L 85.6875 -188.563798 
L 85.3 -188.616865 
L 84.9125 -188.71475 
L 84.525 -188.701783 
L 84.1375 -188.652295 
L 83.75 -188.610332 
L 83.3625 -188.442368 
L 82.975 -188.767212 
L 82.5875 -188.870153 
L 82.2 -188.491846 
L 81.8125 -188.978091 
L 81.425 -189.045235 
L 81.0375 -188.788784 
L 80.65 -188.551684 
L 80.2625 -188.583685 
L 79.875 -188.432544 
L 79.4875 -188.570004 
L 79.1 -188.761343 
L 78.7125 -188.159528 
L 78.325 -188.474151 
L 77.9375 -188.434527 
L 77.55 -188.657976 
L 77.1625 -188.778117 
L 76.775 -188.909966 
L 76.3875 -188.440703 
L 76 -188.463643 
L 75.6125 -188.32875 
L 75.225 -188.054426 
L 74.8375 -188.426884 
L 74.45 -188.569191 
L 74.0625 -188.258533 
L 73.675 -188.539262 
L 73.2875 -188.736391 
L 72.9 -188.634729 
L 72.5125 -188.744431 
L 72.125 -188.44448 
L 71.7375 -188.441724 
L 71.35 -188.063397 
L 70.9625 -188.181417 
L 70.575 -188.364845 
L 70.1875 -188.775648 
L 69.8 -188.794216 
L 69.4125 -188.777562 
L 69.025 -188.647884 
L 68.6375 -188.845806 
L 68.25 -188.743281 
L 67.8625 -188.509948 
L 67.475 -188.803198 
L 67.0875 -188.82014 
L 66.7 -188.835 
L 66.3125 -188.908043 
L 65.925 -188.762969 
L 65.5375 -188.58192 
L 65.15 -188.714582 
L 64.7625 -188.303382 
L 64.375 -188.289176 
L 63.9875 -188.098144 
L 63.6 -188.116325 
L 63.2125 -188.386883 
L 62.825 -188.430115 
L 62.4375 -188.536397 
L 62.05 -188.694576 
L 61.6625 -188.62315 
L 61.275 -188.403805 
L 60.8875 -188.174785 
L 60.5 -188.09858 
L 60.1125 -188.448069 
L 59.725 -188.593538 
L 59.3375 -188.638615 
L 58.95 -188.510811 
L 58.5625 -188.76856 
L 58.175 -188.698671 
L 57.7875 -188.540075 
L 57.4 -188.437887 
L 57.0125 -188.469551 
L 56.625 -188.624211 
L 56.2375 -188.517572 
L 55.85 -188.339635 
L 55.4625 -188.305821 
L 55.075 -188.377743 
L 54.6875 -188.36199 
L 54.3 -188.407166 
L 53.9125 -188.024983 
L 53.525 -188.008348 
L 53.1375 -188.360989 
L 52.75 -188.414046 
L 52.3625 -188.577052 
L 51.975 -188.451667 
L 51.5875 -188.263183 
L 51.2 -188.286152 
L 50.8125 -188.38145 
L 50.425 -188.26239 
L 50.0375 -188.512883 
L 49.65 -188.171345 
L 49.2625 -188.168589 
L 48.875 -187.692198 
L 48.4875 -188.224828 
L 48.1 -188.221913 
L 47.7125 -187.652306 
L 47.325 -187.508284 
L 46.9375 -187.802545 
L 46.55 -187.620683 
L 46.1625 -188.234345 
L 45.775 -188.787554 
L 45.3875 -188.130908 
z
" style="stroke: #2e6e8e; stroke-opacity: 0.1"/>
    </defs>
    <g clip-path="url(#pada82fa843)">
     <use xlink:href="#mdb7b5ee8d9" x="0" y="216" style="fill: #2e6e8e; fill-opacity: 0.1; stroke: #2e6e8e; stroke-opacity: 0.1"/>
    </g>
   </g>
   <g id="matplotlib.axis_1">
    <g id="xtick_1">
     <g id="line2d_1">
      <defs>
       <path id="md22969f7e5" d="M 0 0 
L 0 3.5 
" style="stroke: #000000; stroke-width: 0.8"/>
      </defs>
      <g>
       <use xlink:href="#md22969f7e5" x="45" y="192.24" style="stroke: #000000; stroke-width: 0.8"/>
      </g>
     </g>
     <g id="text_1">
      <text style="font: 6px 'sans-serif'; text-anchor: middle" x="45" y="203.799062" transform="rotate(-0, 45, 203.799062)">0</text>
     </g>
    </g>
    <g id="xtick_2">
     <g id="line2d_2">
      <g>
       <use xlink:href="#md22969f7e5" x="83.75" y="192.24" style="stroke: #000000; stroke-width: 0.8"/>
      </g>
     </g>
     <g id="text_2">
      <text style="font: 6px 'sans-serif'; text-anchor: middle" x="83.75" y="203.799062" transform="rotate(-0, 83.75, 203.799062)">200</text>
     </g>
    </g>
    <g id="xtick_3">
     <g id="line2d_3">
      <g>
       <use xlink:href="#md22969f7e5" x="122.5" y="192.24" style="stroke: #000000; stroke-width: 0.8"/>
      </g>
     </g>
     <g id="text_3">
      <text style="font: 6px 'sans-serif'; text-anchor: middle" x="122.5" y="203.799062" transform="rotate(-0, 122.5, 203.799062)">400</text>
     </g>
    </g>
    <g id="xtick_4">
     <g id="line2d_4">
      <g>
       <use xlink:href="#md22969f7e5" x="161.25" y="192.24" style="stroke: #000000; stroke-width: 0.8"/>
      </g>
     </g>
     <g id="text_4">
      <text style="font: 6px 'sans-serif'; text-anchor: middle" x="161.25" y="203.799062" transform="rotate(-0, 161.25, 203.799062)">600</text>
     </g>
    </g>
    <g id="xtick_5">
     <g id="line2d_5">
      <g>
       <use xlink:href="#md22969f7e5" x="200" y="192.24" style="stroke: #000000; stroke-width: 0.8"/>
      </g>
     </g>
     <g id="text_5">
      <text style="font: 6px 'sans-serif'; text-anchor: middle" x="200" y="203.799062" transform="rotate(-0, 200, 203.799062)">800</text>
     </g>
    </g>
    <g id="xtick_6">
     <g id="line2d_6">
      <g>
       <use xlink:href="#md22969f7e5" x="238.75" y="192.24" style="stroke: #000000; stroke-width: 0.8"/>
      </g>
     </g>
     <g id="text_6">
      <text style="font: 6px 'sans-serif'; text-anchor: middle" x="238.75" y="203.799062" transform="rotate(-0, 238.75, 203.799062)">1000</text>
     </g>
    </g>
    <g id="xtick_7">
     <g id="line2d_7">
      <g>
       <use xlink:href="#md22969f7e5" x="277.5" y="192.24" style="stroke: #000000; stroke-width: 0.8"/>
      </g>
     </g>
     <g id="text_7">
      <text style="font: 6px 'sans-serif'; text-anchor: middle" x="277.5" y="203.799062" transform="rotate(-0, 277.5, 203.799062)">1200</text>
     </g>
    </g>
    <g id="xtick_8">
     <g id="line2d_8">
      <g>
       <use xlink:href="#md22969f7e5" x="316.25" y="192.24" style="stroke: #000000; stroke-width: 0.8"/>
      </g>
     </g>
     <g id="text_8">
      <text style="font: 6px 'sans-serif'; text-anchor: middle" x="316.25" y="203.799062" transform="rotate(-0, 316.25, 203.799062)">1400</text>
     </g>
    </g>
    <g id="text_9">
     <text style="font: 8px 'sans-serif'; text-anchor: middle" x="184.5" y="215.125625" transform="rotate(-0, 184.5, 215.125625)">Time (min)</text>
    </g>
   </g>
   <g id="matplotlib.axis_2">
    <g id="ytick_1">
     <g id="line2d_9">
      <defs>
       <path id="m9304f72946" d="M 0 0 
L -3.5 0 
" style="stroke: #000000; stroke-width: 0.8"/>
      </defs>
      <g>
       <use xlink:href="#m9304f72946" x="45" y="192.24" style="stroke: #000000; stroke-width: 0.8"/>
      </g>
     </g>
     <g id="text_10">
      <text style="font: 6px 'sans-serif'; text-anchor: end" x="38" y="194.519531" transform="rotate(-0, 38, 194.519531)">0.0</text>
     </g>
    </g>
    <g id="ytick_2">
     <g id="line2d_10">
      <g>
       <use xlink:href="#m9304f72946" x="45" y="158.976" style="stroke: #000000; stroke-width: 0.8"/>
      </g>
     </g>
     <g id="text_11">
      <text style="font: 6px 'sans-serif'; text-anchor: end" x="38" y="161.255531" transform="rotate(-0, 38, 161.255531)">0.2</text>
     </g>
    </g>
    <g id="ytick_3">
     <g id="line2d_11">
      <g>
       <use xlink:href="#m9304f72946" x="45" y="125.712" style="stroke: #000000; stroke-width: 0.8"/>
      </g>
     </g>
     <g id="text_12">
      <text style="font: 6px 'sans-serif'; text-anchor: end" x="38" y="127.991531" transform="rotate(-0, 38, 127.991531)">0.4</text>
     </g>
    </g>
    <g id="ytick_4">
     <g id="line2d_12">
      <g>
       <use xlink:href="#m9304f72946" x="45" y="92.448" style="stroke: #000000; stroke-width: 0.8"/>
      </g>
     </g>
     <g id="text_13">
      <text style="font: 6px 'sans-serif'; text-anchor: end" x="38" y="94.727531" transform="rotate(-0, 38, 94.727531)">0.6</text>
     </g>
    </g>
    <g id="ytick_5">
     <g id="line2d_13">
      <g>
       <use xlink:href="#m9304f72946" x="45" y="59.184" style="stroke: #000000; stroke-width: 0.8"/>
      </g>
     </g>
     <g id="text_14">
      <text style="font: 6px 'sans-serif'; text-anchor: end" x="38" y="61.463531" transform="rotate(-0, 38, 61.463531)">0.8</text>
     </g>
    </g>
    <g id="ytick_6">
     <g id="line2d_14">
      <g>
       <use xlink:href="#m9304f72946" x="45" y="25.92" style="stroke: #000000; stroke-width: 0.8"/>
      </g>
     </g>
     <g id="text_15">
      <text style="font: 6px 'sans-serif'; text-anchor: end" x="38" y="28.199531" transform="rotate(-0, 38, 28.199531)">1.0</text>
     </g>
    </g>
    <g id="text_16">
     <text style="font: 8px 'sans-serif'; text-anchor: middle" x="22.794375" y="109.08" transform="rotate(-90, 22.794375, 109.08)">Cosine similarity φ</text>
    </g>
   </g>
   <g id="line2d_15">
    <path d="M 45.3875 28.870439 
L 45.775 28.693762 
L 46.55 29.587162 
L 46.9375 29.136903 
L 47.325 29.246506 
L 48.1 28.423452 
L 48.4875 28.390539 
L 48.875 28.901171 
L 49.2625 28.302667 
L 49.65 28.318568 
L 50.0375 27.904265 
L 50.425 28.190377 
L 50.8125 27.903502 
L 51.2 27.996896 
L 51.975 28.496256 
L 52.3625 28.254081 
L 52.75 28.251355 
L 53.1375 28.136973 
L 53.525 28.563182 
L 53.9125 28.408651 
L 54.3 27.923646 
L 54.6875 27.971141 
L 55.4625 28.327004 
L 56.625 27.953297 
L 57.0125 28.089884 
L 58.5625 27.828764 
L 58.95 27.960623 
L 59.3375 27.73647 
L 60.1125 28.245337 
L 60.5 28.652552 
L 60.8875 28.378633 
L 61.6625 28.079753 
L 62.05 27.827178 
L 63.6 28.612234 
L 64.375 28.523667 
L 65.15 28.301199 
L 65.925 28.012074 
L 66.3125 27.899873 
L 66.7 27.995072 
L 67.0875 28.287301 
L 67.475 28.251503 
L 67.8625 28.440721 
L 68.6375 28.107263 
L 69.025 28.184588 
L 69.4125 28.127357 
L 70.9625 28.892893 
L 71.7375 28.583485 
L 72.125 28.725178 
L 72.5125 28.598067 
L 72.9 28.337423 
L 73.675 28.171502 
L 74.0625 28.580045 
L 74.45 28.233738 
L 74.8375 28.237912 
L 75.225 28.606315 
L 76 28.199646 
L 77.1625 28.401682 
L 77.55 28.352095 
L 77.9375 28.579311 
L 78.325 28.273006 
L 78.7125 28.571321 
L 79.1 28.253139 
L 79.4875 28.314226 
L 79.875 28.158228 
L 80.2625 28.130817 
L 80.65 28.285616 
L 82.2 28.29654 
L 82.5875 28.042122 
L 82.975 28.044788 
L 83.3625 28.181911 
L 83.75 27.844457 
L 84.1375 28.138272 
L 84.525 28.284743 
L 84.9125 28.291524 
L 85.3 28.175408 
L 85.6875 28.364398 
L 86.075 28.389776 
L 86.4625 28.255766 
L 87.2375 28.385583 
L 87.625 28.331911 
L 88.0125 28.412379 
L 88.4 28.707661 
L 88.7875 28.630703 
L 89.175 28.695646 
L 89.5625 28.630286 
L 90.725 29.137646 
L 91.1125 29.162688 
L 91.5 28.883674 
L 92.275 29.474386 
L 93.05 29.543255 
L 93.4375 29.859087 
L 93.825 29.985692 
L 94.2125 30.563041 
L 94.6 30.201805 
L 94.9875 30.856608 
L 95.375 30.77621 
L 95.7625 31.696406 
L 96.15 31.7257 
L 96.5375 32.50909 
L 96.925 32.74276 
L 97.3125 32.827321 
L 97.7 32.771449 
L 98.475 33.322508 
L 99.25 33.414881 
L 99.6375 33.546036 
L 100.025 33.258378 
L 100.4125 33.200572 
L 100.8 33.560133 
L 101.1875 33.514155 
L 101.9625 33.019335 
L 102.35 32.788699 
L 102.7375 33.148745 
L 103.125 32.70716 
L 103.5125 32.475969 
L 103.9 32.656077 
L 104.2875 31.929262 
L 104.675 31.951191 
L 105.0625 31.754835 
L 105.45 31.351646 
L 105.8375 31.188312 
L 106.225 30.383231 
L 106.6125 30.235094 
L 107.3875 30.125422 
L 107.775 29.814517 
L 108.1625 29.91604 
L 108.9375 29.625824 
L 109.7125 29.523834 
L 110.1 28.998928 
L 110.4875 28.888621 
L 110.875 28.479959 
L 111.2625 28.407402 
L 111.65 28.450506 
L 112.0375 28.187691 
L 112.425 28.122966 
L 113.2 28.169638 
L 113.5875 27.99074 
L 113.975 28.128527 
L 114.3625 27.940707 
L 115.1375 27.868012 
L 115.525 27.797993 
L 115.9125 27.51884 
L 116.3 27.54177 
L 116.6875 27.738502 
L 117.075 27.534652 
L 117.4625 27.662932 
L 117.85 27.397351 
L 119.0125 27.473209 
L 119.4 27.703468 
L 119.7875 27.672836 
L 120.175 27.393505 
L 120.5625 27.566336 
L 121.725 27.805785 
L 122.1125 27.547411 
L 123.6625 27.70905 
L 124.05 27.631784 
L 124.4375 27.776788 
L 125.2125 27.626391 
L 125.6 27.9301 
L 125.9875 27.804734 
L 126.7625 27.980232 
L 127.15 27.876012 
L 127.5375 28.035995 
L 127.925 27.80864 
L 128.7 27.839669 
L 129.0875 28.045591 
L 129.8625 27.887125 
L 130.25 27.92436 
L 130.6375 27.820437 
L 131.4125 28.145053 
L 131.8 28.031891 
L 132.1875 28.07087 
L 133.35 27.644969 
L 134.125 27.773576 
L 134.5125 27.68834 
L 134.9 27.825007 
L 135.2875 27.73537 
L 135.675 28.00102 
L 136.45 27.777948 
L 136.8375 27.881841 
L 137.6125 27.586291 
L 139.55 27.592239 
L 139.9375 27.269131 
L 140.325 27.174527 
L 140.7125 27.385276 
L 141.1 27.442903 
L 141.4875 27.913296 
L 141.875 32.194298 
L 142.2625 32.380721 
L 142.65 31.775307 
L 143.0375 28.221704 
L 143.425 27.293617 
L 143.8125 27.615883 
L 144.2 28.525422 
L 144.5875 28.25534 
L 144.975 28.374777 
L 145.3625 28.341309 
L 145.75 28.175081 
L 146.1375 28.146044 
L 146.525 28.269833 
L 146.9125 27.994894 
L 148.075 28.36179 
L 148.85 28.25761 
L 149.2375 28.222863 
L 149.625 28.074092 
L 150.0125 28.548451 
L 151.5625 29.013788 
L 151.95 29.476696 
L 152.3375 29.286764 
L 152.725 29.294973 
L 153.1125 29.009059 
L 153.5 28.930882 
L 153.8875 29.122469 
L 154.275 28.924656 
L 155.05 29.258005 
L 155.4375 29.737757 
L 156.2125 29.512583 
L 156.6 29.86453 
L 156.9875 29.594805 
L 157.375 30.028984 
L 157.7625 29.913572 
L 158.15 29.966569 
L 158.925 29.658806 
L 159.3125 29.836851 
L 159.7 29.743328 
L 160.0875 29.9687 
L 160.475 29.723452 
L 161.25 30.267164 
L 161.6375 30.343825 
L 162.025 30.203867 
L 162.4125 30.46926 
L 162.8 30.314858 
L 163.575 30.724075 
L 163.9625 31.164668 
L 164.35 31.11067 
L 164.7375 31.398764 
L 165.125 31.198116 
L 165.5125 31.140906 
L 165.9 30.970097 
L 166.2875 30.945353 
L 166.675 31.235292 
L 167.0625 30.786599 
L 168.6125 31.316562 
L 169 31.7509 
L 169.775 32.001809 
L 170.55 31.708837 
L 170.9375 32.400121 
L 171.325 32.189223 
L 172.1 32.147259 
L 172.4875 32.438566 
L 172.875 32.29488 
L 173.65 32.31442 
L 174.0375 32.444315 
L 174.425 32.367556 
L 174.8125 32.606133 
L 175.2 32.608581 
L 175.5875 32.988266 
L 176.75 33.494129 
L 177.1375 33.144542 
L 177.525 33.088521 
L 178.3 33.700299 
L 178.6875 33.012167 
L 179.075 33.578076 
L 179.4625 33.752781 
L 179.85 34.518912 
L 180.2375 34.143886 
L 180.625 34.386627 
L 181.0125 34.248245 
L 181.4 34.442251 
L 182.175 34.259735 
L 182.5625 33.980017 
L 182.95 34.555929 
L 183.3375 34.640431 
L 183.725 34.526436 
L 184.1125 34.14455 
L 184.8875 33.214897 
L 185.275 33.375515 
L 185.6625 32.935338 
L 186.05 33.428671 
L 186.825 33.88008 
L 187.2125 33.863227 
L 187.6 33.626751 
L 187.9875 33.627118 
L 188.375 33.893839 
L 188.7625 33.985291 
L 189.5375 33.81016 
L 189.925 34.257108 
L 190.3125 33.905636 
L 190.7 34.424298 
L 191.0875 34.505291 
L 191.475 34.336693 
L 191.8625 34.636902 
L 192.25 34.704829 
L 192.6375 35.286817 
L 193.025 35.123226 
L 193.4125 35.652316 
L 193.8 35.664559 
L 194.1875 35.522083 
L 194.575 35.845004 
L 194.9625 35.557633 
L 195.35 35.620216 
L 196.125 36.741576 
L 196.5125 36.50624 
L 197.2875 37.018161 
L 197.675 36.821042 
L 198.0625 37.264341 
L 198.45 37.170401 
L 198.8375 37.356219 
L 199.225 37.690808 
L 199.6125 38.197266 
L 200 38.220176 
L 200.3875 38.954732 
L 200.775 38.764136 
L 201.1625 38.943242 
L 201.55 38.72252 
L 202.7125 45.839153 
L 203.1 46.13047 
L 203.4875 46.186144 
L 203.875 45.103526 
L 204.2625 44.516353 
L 204.65 46.15565 
L 205.0375 46.085185 
L 205.425 46.676284 
L 205.8125 47.013817 
L 206.975 48.735981 
L 207.3625 48.67762 
L 208.1375 49.441441 
L 208.525 49.303863 
L 209.3 50.342484 
L 209.6875 50.772698 
L 210.075 50.983418 
L 210.4625 49.868572 
L 210.85 50.854068 
L 211.625 51.484345 
L 212.0125 51.390772 
L 212.4 51.65779 
L 212.7875 51.450024 
L 213.175 51.755477 
L 213.5625 52.598061 
L 213.95 52.493107 
L 214.3375 52.563373 
L 214.725 52.308628 
L 215.1125 52.423059 
L 215.5 52.138959 
L 215.8875 52.683356 
L 216.275 51.73685 
L 216.6625 52.454028 
L 217.05 52.690741 
L 217.4375 52.517226 
L 217.825 52.813311 
L 218.2125 52.066789 
L 218.6 53.839492 
L 218.9875 53.415989 
L 219.375 53.689005 
L 219.7625 53.215004 
L 220.15 53.230122 
L 220.5375 52.439138 
L 220.925 53.476233 
L 221.3125 53.634412 
L 221.7 53.020671 
L 222.0875 53.364102 
L 222.475 53.4525 
L 223.25 52.274307 
L 223.6375 53.401714 
L 224.025 53.579789 
L 224.4125 53.272849 
L 224.8 53.317678 
L 225.1875 54.795941 
L 225.575 54.43296 
L 225.9625 54.897375 
L 226.35 54.800501 
L 226.7375 54.16031 
L 227.5125 53.959246 
L 227.9 54.565166 
L 228.2875 54.638376 
L 228.675 55.313432 
L 229.0625 55.589839 
L 229.45 55.505991 
L 229.8375 55.858711 
L 230.225 55.015276 
L 230.6125 55.501312 
L 231.3875 55.473733 
L 232.1625 56.167178 
L 232.55 56.722232 
L 232.9375 56.940863 
L 233.7125 57.910477 
L 234.1 57.845158 
L 235.2625 59.033076 
L 235.65 57.142572 
L 236.0375 58.10027 
L 236.425 58.179984 
L 236.8125 58.028427 
L 237.2 58.604865 
L 237.5875 58.900642 
L 237.975 58.907978 
L 238.3625 58.553909 
L 238.75 58.752743 
L 239.1375 58.050465 
L 239.525 57.776487 
L 239.9125 58.053251 
L 240.3 59.008292 
L 241.075 57.162478 
L 241.85 58.056304 
L 242.2375 57.498861 
L 242.625 57.965209 
L 243.4 57.380286 
L 243.7875 57.996377 
L 244.175 57.475307 
L 244.5625 58.276779 
L 244.95 56.795155 
L 245.3375 57.820354 
L 246.1125 57.90564 
L 246.5 57.724382 
L 247.275 55.870191 
L 247.6625 55.677127 
L 248.05 55.128636 
L 248.4375 55.712429 
L 248.825 57.098764 
L 249.2125 56.306532 
L 249.6 57.241558 
L 250.375 56.53115 
L 250.7625 56.339246 
L 251.15 57.112306 
L 251.5375 56.192507 
L 252.3125 55.451943 
L 252.7 55.338652 
L 253.475 54.188326 
L 253.8625 54.155413 
L 254.25 53.931439 
L 254.6375 54.058906 
L 255.8 52.928515 
L 256.1875 53.01622 
L 256.9625 53.450518 
L 257.35 53.049142 
L 257.7375 53.321851 
L 258.125 52.641125 
L 258.5125 52.709597 
L 258.9 52.96927 
L 259.2875 51.483809 
L 259.675 52.413948 
L 260.0625 52.00827 
L 260.45 52.010501 
L 260.8375 52.992477 
L 261.225 53.630893 
L 261.6125 52.26718 
L 262 52.296167 
L 262.3875 52.894701 
L 263.1625 51.411986 
L 263.55 49.493279 
L 263.9375 50.606539 
L 264.325 49.893881 
L 264.7125 47.932387 
L 265.1 47.920888 
L 265.4875 50.59032 
L 265.875 49.406516 
L 266.65 48.699896 
L 267.0375 49.815952 
L 267.425 51.303851 
L 267.8125 50.159571 
L 268.2 50.756519 
L 268.5875 49.562782 
L 268.975 51.521371 
L 269.3625 50.25706 
L 269.75 49.495906 
L 270.1375 49.984619 
L 270.525 48.062759 
L 270.9125 49.757254 
L 271.3 50.199245 
L 271.6875 47.770639 
L 272.075 49.13696 
L 272.4625 46.723115 
L 272.85 50.288506 
L 273.2375 50.630401 
L 273.625 52.486128 
L 274.0125 47.413052 
L 274.4 49.502488 
L 274.7875 49.739172 
L 275.175 52.300776 
L 275.5625 48.043636 
L 275.95 49.326049 
L 276.3375 53.356816 
L 276.725 51.930955 
L 277.1125 49.035248 
L 277.5 51.625334 
L 277.8875 51.031062 
L 278.275 45.207915 
L 278.6625 46.877636 
L 279.05 52.114463 
L 279.4375 47.169131 
L 279.825 48.999411 
L 280.2125 46.076699 
L 280.6 48.853713 
L 280.9875 48.00875 
L 281.375 45.690898 
L 281.7625 50.140775 
L 282.15 51.508137 
L 282.5375 51.006586 
L 282.925 46.527652 
L 283.7 45.612284 
L 284.475 49.608671 
L 284.8625 49.848398 
L 285.25 47.476061 
L 285.6375 47.332951 
L 286.025 46.816599 
L 286.4125 49.873241 
L 286.8 51.80555 
L 287.1875 49.946006 
L 287.575 54.433287 
L 287.9625 51.396551 
L 288.35 55.288956 
L 288.7375 54.640528 
L 289.125 51.38406 
L 289.5125 49.075308 
L 289.9 52.22245 
L 290.2875 51.221827 
L 290.675 52.53166 
L 291.0625 49.800754 
L 291.45 54.981649 
L 291.8375 49.967935 
L 292.225 51.166916 
L 292.6125 54.199835 
L 293 50.300679 
L 293.3875 54.535624 
L 293.775 52.678845 
L 294.1625 51.447705 
L 294.55 51.861194 
L 294.9375 51.093646 
L 295.325 53.401952 
L 295.7125 52.41945 
L 296.1 53.29684 
L 296.4875 52.803745 
L 296.875 51.375455 
L 297.2625 51.782729 
L 297.65 54.42841 
L 298.0375 51.225524 
L 298.425 51.803944 
L 298.8125 48.868425 
L 299.2 51.596763 
L 299.5875 50.510884 
L 299.975 53.805915 
L 300.3625 47.165285 
L 300.75 51.883212 
L 301.1375 46.335619 
L 301.525 51.380838 
L 301.9125 51.934474 
L 302.3 54.828487 
L 303.075 47.476002 
L 303.4625 50.797769 
L 303.85 49.715499 
L 304.625 50.45634 
L 305.0125 52.631667 
L 305.4 51.473866 
L 305.7875 48.18406 
L 306.175 51.82852 
L 306.5625 49.861504 
L 306.95 51.10457 
L 307.3375 51.755953 
L 307.725 50.686094 
L 308.1125 51.569521 
L 308.5 50.818459 
L 308.8875 52.655142 
L 309.275 50.568808 
L 309.6625 53.81328 
L 310.4375 51.361646 
L 310.825 47.623415 
L 311.2125 50.183195 
L 311.6 55.272767 
L 311.9875 53.303422 
L 312.375 48.761072 
L 312.7625 51.396779 
L 313.5375 47.52433 
L 313.925 46.245436 
L 314.3125 46.542949 
L 314.7 47.05479 
L 315.475 50.537502 
L 315.8625 48.179797 
L 316.25 50.44151 
L 317.025 48.05803 
L 317.4125 50.765422 
L 317.8 48.318585 
L 318.1875 50.744524 
L 318.9625 45.86821 
L 319.35 49.018861 
L 319.7375 45.308189 
L 320.125 49.623532 
L 320.5125 47.549857 
L 320.9 49.22171 
L 321.2875 47.841868 
L 322.0625 48.000046 
L 322.45 48.472462 
L 322.8375 48.196402 
L 323.225 50.14943 
L 323.6125 49.387701 
L 324 51.109438 
L 324 51.109438 
" clip-path="url(#pada82fa843)" style="fill: none; stroke: #2e6e8e; stroke-linecap: square"/>
   </g>
   <g id="patch_3">
    <path d="M 45 192.24 
L 45 25.92 
" style="fill: none; stroke: #000000; stroke-width: 0.8; stroke-linejoin: miter; stroke-linecap: square"/>
   </g>
   <g id="patch_4">
    <path d="M 324 192.24 
L 324 25.92 
" style="fill: none; stroke: #000000; stroke-width: 0.8; stroke-linejoin: miter; stroke-linecap: square"/>
   </g>
   <g id="patch_5">
    <path d="M 45 192.24 
L 324 192.24 
" style="fill: none; stroke: #000000; stroke-width: 0.8; stroke-linejoin: miter; stroke-linecap: square"/>
   </g>
   <g id="patch_6">
    <path d="M 45 25.92 
L 324 25.92 
" style="fill: none; stroke: #000000; stroke-width: 0.8; stroke-linejoin: miter; stroke-linecap: square"/>
   </g>
   <g id="text_17">
    <text style="font: 8px 'sans-serif'; text-anchor: middle" x="184.5" y="19.92" transform="rotate(-0, 184.5, 19.92)">untreated_BMP-inh.</text>
   </g>
  </g>
 </g>
 <defs>
  <clipPath id="pada82fa843">
   <rect x="45" y="25.92" width="279" height="166.32"/>
  </clipPath>
 </defs>
</svg>
