<?xml version="1.0" encoding="utf-8" standalone="no"?>
<!DOCTYPE svg PUBLIC "-//W3C//DTD SVG 1.1//EN"
  "http://www.w3.org/Graphics/SVG/1.1/DTD/svg11.dtd">
<svg xmlns:xlink="http://www.w3.org/1999/xlink" width="360pt" height="216pt" viewBox="0 0 360 216" xmlns="http://www.w3.org/2000/svg" version="1.1">
 <metadata>
  <rdf:RDF xmlns:dc="http://purl.org/dc/elements/1.1/" xmlns:cc="http://creativecommons.org/ns#" xmlns:rdf="http://www.w3.org/1999/02/22-rdf-syntax-ns#">
   <cc:Work>
    <dc:type rdf:resource="http://purl.org/dc/dcmitype/StillImage"/>
    <dc:date>2023-05-16T18:35:22.029480</dc:date>
    <dc:format>image/svg+xml</dc:format>
    <dc:creator>
     <cc:Agent>
      <dc:title>Matplotlib v3.5.1, https://matplotlib.org/</dc:title>
     </cc:Agent>
    </dc:creator>
   </cc:Work>
  </rdf:RDF>
 </metadata>
 <defs>
  <style type="text/css">*{stroke-linejoin: round; stroke-linecap: butt}</style>
 </defs>
 <g id="figure_1">
  <g id="patch_1">
   <path d="M 0 216 
L 360 216 
L 360 0 
L 0 0 
z
" style="fill: #ffffff"/>
  </g>
  <g id="axes_1">
   <g id="patch_2">
    <path d="M 45 192.24 
L 324 192.24 
L 324 25.92 
L 45 25.92 
z
" style="fill: #ffffff"/>
   </g>
   <g id="PolyCollection_1">
    <defs>
     <path id="m51f8fcdfee" d="M 45.3875 -188.055506 
L 45.3875 -184.868472 
L 45.775 -184.879972 
L 46.1625 -184.573617 
L 46.55 -183.503252 
L 46.9375 -184.945956 
L 47.325 -185.247969 
L 47.7125 -185.542012 
L 48.1 -185.898152 
L 48.4875 -185.474045 
L 48.875 -183.512928 
L 49.2625 -185.703185 
L 49.65 -185.522829 
L 50.0375 -186.252151 
L 50.425 -185.862791 
L 50.8125 -185.84571 
L 51.2 -185.963383 
L 51.5875 -186.175392 
L 51.975 -186.392506 
L 52.3625 -186.786208 
L 52.75 -186.134737 
L 53.1375 -186.073709 
L 53.525 -185.862385 
L 53.9125 -185.998774 
L 54.3 -186.277411 
L 54.6875 -186.391227 
L 55.075 -186.245311 
L 55.4625 -186.194762 
L 55.85 -186.067077 
L 56.2375 -186.489658 
L 56.625 -186.748627 
L 57.0125 -186.025827 
L 57.4 -185.82162 
L 57.7875 -185.844074 
L 58.175 -186.624094 
L 58.5625 -186.908352 
L 58.95 -186.840465 
L 59.3375 -187.143102 
L 59.725 -186.739149 
L 60.1125 -186.245113 
L 60.5 -185.261283 
L 60.8875 -185.409221 
L 61.275 -185.6442 
L 61.6625 -186.408249 
L 62.05 -186.73561 
L 62.4375 -186.585075 
L 62.825 -186.018482 
L 63.2125 -186.068951 
L 63.6 -186.044564 
L 63.9875 -185.907629 
L 64.375 -186.532375 
L 64.7625 -186.400784 
L 65.15 -186.861917 
L 65.5375 -186.835478 
L 65.925 -186.697414 
L 66.3125 -186.943485 
L 66.7 -186.758709 
L 67.0875 -186.838839 
L 67.475 -186.559429 
L 67.8625 -186.474907 
L 68.25 -187.116108 
L 68.6375 -187.570412 
L 69.025 -187.278718 
L 69.4125 -187.728194 
L 69.8 -187.167787 
L 70.1875 -187.410339 
L 70.575 -186.390127 
L 70.9625 -185.561829 
L 71.35 -185.497837 
L 71.7375 -186.383633 
L 72.125 -186.239214 
L 72.5125 -186.406851 
L 72.9 -186.542754 
L 73.2875 -187.094338 
L 73.675 -186.837461 
L 74.0625 -186.248662 
L 74.45 -186.372253 
L 74.8375 -186.349918 
L 75.225 -185.185584 
L 75.6125 -186.532444 
L 76 -187.137372 
L 76.3875 -187.039299 
L 76.775 -187.522986 
L 77.1625 -187.266753 
L 77.55 -187.665987 
L 77.9375 -186.655946 
L 78.325 -186.795983 
L 78.7125 -186.110855 
L 79.1 -187.277727 
L 79.4875 -186.927297 
L 79.875 -186.789708 
L 80.2625 -186.939163 
L 80.65 -186.80891 
L 81.0375 -187.259645 
L 81.425 -187.429968 
L 81.8125 -187.847304 
L 82.2 -187.455792 
L 82.5875 -187.54886 
L 82.975 -187.724823 
L 83.3625 -187.699911 
L 83.75 -187.895573 
L 84.1375 -187.73556 
L 84.525 -187.865446 
L 84.9125 -187.843616 
L 85.3 -188.118863 
L 85.6875 -188.136737 
L 86.075 -187.742162 
L 86.4625 -187.657699 
L 86.85 -187.660901 
L 87.2375 -187.682701 
L 87.625 -187.684188 
L 88.0125 -187.817752 
L 88.4 -187.76187 
L 88.7875 -187.832007 
L 89.175 -188.038653 
L 89.5625 -187.596504 
L 89.95 -187.9268 
L 90.3375 -187.707088 
L 90.725 -187.767065 
L 91.1125 -187.476521 
L 91.5 -187.688391 
L 91.8875 -187.44804 
L 92.275 -187.186771 
L 92.6625 -186.981008 
L 93.05 -187.046625 
L 93.4375 -186.718212 
L 93.825 -186.743719 
L 94.2125 -186.569025 
L 94.6 -186.424348 
L 94.9875 -185.982605 
L 95.375 -186.015111 
L 95.7625 -186.087301 
L 96.15 -184.892027 
L 96.5375 -184.960083 
L 96.925 -184.366446 
L 97.3125 -184.647115 
L 97.7 -184.438467 
L 98.0875 -184.379066 
L 98.475 -184.712871 
L 98.8625 -184.95123 
L 99.25 -184.541368 
L 99.6375 -185.094787 
L 100.025 -184.469655 
L 100.4125 -184.192663 
L 100.8 -183.903845 
L 101.1875 -183.89981 
L 101.575 -182.910855 
L 101.9625 -183.957863 
L 102.35 -184.207484 
L 102.7375 -183.163509 
L 103.125 -183.64778 
L 103.5125 -183.230781 
L 103.9 -183.234192 
L 104.2875 -183.474414 
L 104.675 -183.724312 
L 105.0625 -184.11744 
L 105.45 -183.829534 
L 105.8375 -183.369292 
L 106.225 -184.345429 
L 106.6125 -184.2663 
L 107 -184.893137 
L 107.3875 -184.823852 
L 107.775 -184.755915 
L 108.1625 -184.432648 
L 108.55 -183.696188 
L 108.9375 -183.971742 
L 109.325 -183.984173 
L 109.7125 -183.774484 
L 110.1 -184.579406 
L 110.4875 -184.192861 
L 110.875 -184.686164 
L 111.2625 -184.97647 
L 111.65 -184.098882 
L 112.0375 -184.940672 
L 112.425 -185.498056 
L 112.8125 -185.398435 
L 113.2 -185.594959 
L 113.5875 -185.828709 
L 113.975 -185.832932 
L 114.3625 -185.608006 
L 114.75 -185.518527 
L 115.1375 -185.865061 
L 115.525 -185.557407 
L 115.9125 -186.312405 
L 116.3 -186.381284 
L 116.6875 -186.424883 
L 117.075 -187.011313 
L 117.4625 -186.909105 
L 117.85 -187.330387 
L 118.2375 -187.340311 
L 118.625 -186.508473 
L 119.0125 -186.687312 
L 119.4 -186.925354 
L 119.7875 -186.423951 
L 120.175 -186.311107 
L 120.5625 -186.411718 
L 120.95 -186.502862 
L 121.3375 -186.145413 
L 121.725 -186.252052 
L 122.1125 -187.114234 
L 122.5 -187.228655 
L 122.8875 -186.697483 
L 123.275 -186.738961 
L 123.6625 -186.932759 
L 124.05 -187.119152 
L 124.4375 -186.740904 
L 124.825 -186.919822 
L 125.2125 -187.082888 
L 125.6 -186.329308 
L 125.9875 -186.410747 
L 126.375 -186.097541 
L 126.7625 -186.09535 
L 127.15 -186.429582 
L 127.5375 -186.432249 
L 127.925 -187.122512 
L 128.3125 -186.731347 
L 128.7 -186.718252 
L 129.0875 -186.153552 
L 129.475 -186.34051 
L 129.8625 -186.378746 
L 130.25 -186.421949 
L 130.6375 -186.447466 
L 131.025 -186.10689 
L 131.4125 -185.945687 
L 131.8 -185.649295 
L 132.1875 -185.218001 
L 132.575 -185.832149 
L 132.9625 -186.015954 
L 133.35 -186.116426 
L 133.7375 -185.698604 
L 134.125 -185.136443 
L 134.5125 -185.324719 
L 134.9 -185.155833 
L 135.2875 -184.80465 
L 135.675 -183.739232 
L 136.0625 -184.018484 
L 136.45 -185.089245 
L 136.8375 -184.632602 
L 137.225 -184.970769 
L 137.6125 -185.531771 
L 138 -185.51589 
L 138.3875 -184.941921 
L 138.775 -184.92143 
L 139.1625 -185.471131 
L 139.55 -185.525605 
L 139.9375 -187.104192 
L 140.325 -187.089064 
L 140.7125 -186.489985 
L 141.1 -186.693092 
L 141.4875 -183.987712 
L 141.875 -165.949794 
L 142.2625 -165.585425 
L 142.65 -167.787855 
L 143.0375 -182.368916 
L 143.425 -186.533713 
L 143.8125 -185.886464 
L 144.2 -182.916922 
L 144.5875 -183.954572 
L 144.975 -183.880142 
L 145.3625 -183.994434 
L 145.75 -185.064541 
L 146.1375 -185.101657 
L 146.525 -185.673682 
L 146.9125 -185.556158 
L 147.3 -185.491404 
L 147.6875 -185.27534 
L 148.075 -186.02902 
L 148.4625 -185.576025 
L 148.85 -186.154821 
L 149.2375 -186.444512 
L 149.625 -186.699843 
L 150.0125 -185.693757 
L 150.4 -185.775642 
L 150.7875 -185.795112 
L 151.175 -185.763062 
L 151.5625 -185.037883 
L 151.95 -184.201407 
L 152.3375 -185.008133 
L 152.725 -184.570028 
L 153.1125 -185.235637 
L 153.5 -185.21006 
L 153.8875 -185.498908 
L 154.275 -185.981941 
L 154.6625 -185.269144 
L 155.05 -185.122604 
L 155.4375 -184.102669 
L 155.825 -183.733859 
L 156.2125 -183.22974 
L 156.6 -182.937819 
L 156.9875 -183.061579 
L 157.375 -182.813931 
L 157.7625 -182.423718 
L 158.15 -182.997359 
L 158.5375 -182.994088 
L 158.925 -183.229265 
L 159.3125 -183.26758 
L 159.7 -182.693046 
L 160.0875 -182.088336 
L 160.475 -182.387167 
L 160.8625 -181.669741 
L 161.25 -180.271985 
L 161.6375 -179.822995 
L 162.025 -180.288382 
L 162.4125 -179.926115 
L 162.8 -180.90367 
L 163.1875 -180.443835 
L 163.575 -180.214626 
L 163.9625 -178.995133 
L 164.35 -179.859477 
L 164.7375 -178.142855 
L 165.125 -178.753325 
L 165.5125 -178.319066 
L 165.9 -178.889 
L 166.2875 -179.316557 
L 166.675 -179.682888 
L 167.0625 -180.752272 
L 167.45 -180.359997 
L 167.8375 -179.907735 
L 168.225 -179.656221 
L 168.6125 -178.774817 
L 169 -177.990475 
L 169.3875 -178.079825 
L 169.775 -177.645676 
L 170.1625 -178.642304 
L 170.55 -178.279819 
L 170.9375 -176.38649 
L 171.325 -177.189201 
L 171.7125 -177.682742 
L 172.1 -178.325054 
L 172.4875 -177.210198 
L 172.875 -177.404511 
L 173.2625 -177.393002 
L 173.65 -177.300598 
L 174.0375 -177.636773 
L 174.425 -178.24421 
L 174.8125 -178.795546 
L 175.2 -178.204834 
L 175.5875 -176.734739 
L 175.975 -177.3829 
L 176.3625 -176.413167 
L 176.75 -175.78063 
L 177.1375 -176.876828 
L 177.525 -176.724756 
L 177.9125 -175.946343 
L 178.3 -175.254652 
L 178.6875 -177.130206 
L 179.075 -175.679959 
L 179.4625 -175.567044 
L 179.85 -173.933814 
L 180.2375 -175.739608 
L 180.625 -173.796731 
L 181.0125 -174.151989 
L 181.4 -174.152049 
L 181.7875 -173.806625 
L 182.175 -174.084281 
L 182.5625 -174.991232 
L 182.95 -173.545425 
L 183.3375 -173.22536 
L 183.725 -173.529029 
L 184.1125 -174.751465 
L 184.5 -175.222096 
L 184.8875 -176.854365 
L 185.275 -177.294184 
L 185.6625 -178.426835 
L 186.05 -177.661309 
L 186.4375 -176.282864 
L 186.825 -176.521213 
L 187.2125 -176.678718 
L 187.6 -177.676378 
L 187.9875 -176.819102 
L 188.375 -177.100297 
L 188.7625 -176.493485 
L 189.15 -176.643535 
L 189.5375 -175.79434 
L 189.925 -175.309146 
L 190.3125 -175.528798 
L 190.7 -174.619547 
L 191.0875 -174.077252 
L 191.475 -174.24588 
L 191.8625 -174.526321 
L 192.25 -174.433125 
L 192.6375 -173.620629 
L 193.025 -174.621034 
L 193.4125 -173.106518 
L 193.8 -174.303546 
L 194.1875 -174.815873 
L 194.575 -174.501914 
L 194.9625 -174.881431 
L 195.35 -175.728703 
L 195.7375 -174.787838 
L 196.125 -174.245077 
L 196.5125 -174.525211 
L 196.9 -173.67198 
L 197.2875 -174.044845 
L 197.675 -174.37758 
L 198.0625 -173.711337 
L 198.45 -173.912223 
L 198.8375 -173.733721 
L 199.225 -173.585981 
L 199.6125 -172.70767 
L 200 -172.174981 
L 200.3875 -172.118514 
L 200.775 -171.637117 
L 201.1625 -172.156284 
L 201.55 -173.373021 
L 201.9375 -166.076953 
L 202.325 -156.93759 
L 202.7125 -146.797257 
L 203.1 -147.733017 
L 203.4875 -147.286337 
L 203.875 -152.378308 
L 204.2625 -154.79249 
L 204.65 -149.882965 
L 205.0375 -150.509891 
L 205.425 -149.807504 
L 205.8125 -149.680007 
L 206.2 -148.659973 
L 206.5875 -147.038689 
L 206.975 -147.989021 
L 207.3625 -146.936551 
L 207.75 -147.422418 
L 208.1375 -145.538061 
L 208.525 -144.773695 
L 208.9125 -143.057509 
L 209.3 -142.462673 
L 209.6875 -141.627475 
L 210.075 -142.264295 
L 210.4625 -143.239411 
L 210.85 -141.739923 
L 211.2375 -142.471634 
L 211.625 -143.094308 
L 212.0125 -142.54311 
L 212.4 -141.860768 
L 212.7875 -142.11828 
L 213.175 -140.782641 
L 213.5625 -141.190203 
L 213.95 -143.045573 
L 214.3375 -141.234308 
L 214.725 -141.61314 
L 215.1125 -141.976418 
L 215.5 -143.221468 
L 215.8875 -142.802486 
L 216.275 -142.431118 
L 216.6625 -141.791374 
L 217.05 -141.456161 
L 217.4375 -142.07591 
L 217.825 -142.642731 
L 218.2125 -144.589364 
L 218.6 -142.320097 
L 218.9875 -144.299218 
L 219.375 -143.354853 
L 219.7625 -142.34731 
L 220.15 -142.643246 
L 220.5375 -143.508858 
L 220.925 -142.99094 
L 221.3125 -140.58924 
L 221.7 -140.869671 
L 222.0875 -140.402223 
L 222.475 -140.401896 
L 222.8625 -140.937707 
L 223.25 -140.600194 
L 223.6375 -138.871002 
L 224.025 -140.088621 
L 224.4125 -140.308372 
L 224.8 -139.538563 
L 225.1875 -139.115269 
L 225.575 -139.689714 
L 225.9625 -139.69699 
L 226.35 -140.603981 
L 226.7375 -141.50547 
L 227.125 -141.239116 
L 227.5125 -141.300272 
L 227.9 -140.489441 
L 228.2875 -142.454563 
L 228.675 -141.330805 
L 229.0625 -140.590291 
L 229.45 -140.184067 
L 229.8375 -141.456329 
L 230.225 -141.344902 
L 230.6125 -142.12054 
L 231 -141.501118 
L 231.3875 -141.414643 
L 231.775 -141.663124 
L 232.1625 -142.219109 
L 232.55 -141.312317 
L 232.9375 -142.51106 
L 233.325 -142.357818 
L 233.7125 -140.680225 
L 234.1 -141.151709 
L 234.4875 -140.15056 
L 234.875 -139.326981 
L 235.2625 -139.564259 
L 235.65 -142.193156 
L 236.0375 -141.305347 
L 236.425 -141.436492 
L 236.8125 -139.818965 
L 237.2 -139.107785 
L 237.5875 -140.123467 
L 237.975 -139.122387 
L 238.3625 -137.512295 
L 238.75 -137.641051 
L 239.1375 -137.455035 
L 239.525 -137.729231 
L 239.9125 -138.001979 
L 240.3 -138.315581 
L 240.6875 -136.475269 
L 241.075 -137.289104 
L 241.4625 -136.225966 
L 241.85 -136.263994 
L 242.2375 -136.324456 
L 242.625 -135.776461 
L 243.0125 -136.164681 
L 243.4 -136.80392 
L 243.7875 -136.896541 
L 244.175 -136.917022 
L 244.5625 -135.951473 
L 244.95 -137.111812 
L 245.3375 -137.049872 
L 245.725 -137.727407 
L 246.1125 -137.965002 
L 246.5 -137.59413 
L 246.8875 -139.235123 
L 247.275 -137.755839 
L 247.6625 -137.81637 
L 248.05 -137.895519 
L 248.4375 -138.428059 
L 248.825 -136.993752 
L 249.2125 -137.894766 
L 249.6 -136.237228 
L 249.9875 -136.814388 
L 250.375 -136.708771 
L 250.7625 -136.577061 
L 251.15 -136.212523 
L 251.5375 -136.626093 
L 251.925 -135.850613 
L 252.3125 -136.097924 
L 252.7 -135.187097 
L 253.0875 -135.446631 
L 253.475 -135.61164 
L 253.8625 -138.231396 
L 254.25 -136.943759 
L 254.6375 -136.060778 
L 255.025 -136.341824 
L 255.4125 -137.980457 
L 255.8 -136.749089 
L 256.1875 -136.542691 
L 256.575 -137.005103 
L 256.9625 -136.938197 
L 257.35 -137.638751 
L 257.7375 -136.306404 
L 258.125 -136.721153 
L 258.5125 -135.901568 
L 258.9 -136.934143 
L 259.2875 -140.457619 
L 259.675 -139.604607 
L 260.0625 -137.948169 
L 260.45 -135.010062 
L 260.8375 -134.731594 
L 261.225 -134.431038 
L 261.6125 -134.422859 
L 262 -135.895174 
L 262.3875 -133.269757 
L 262.775 -133.766391 
L 263.1625 -132.667961 
L 263.55 -136.72259 
L 263.9375 -138.353461 
L 264.325 -137.991412 
L 264.7125 -139.104325 
L 265.1 -139.885048 
L 265.4875 -138.577158 
L 265.875 -139.960559 
L 266.2625 -138.753121 
L 266.65 -139.785091 
L 267.0375 -138.216536 
L 267.425 -137.805505 
L 267.8125 -141.231165 
L 268.2 -137.656496 
L 268.5875 -138.486915 
L 268.975 -137.430955 
L 269.3625 -138.772789 
L 269.75 -137.857481 
L 270.1375 -136.455205 
L 270.525 -136.858702 
L 270.9125 -137.629085 
L 271.3 -137.484309 
L 271.6875 -138.854903 
L 272.075 -137.39724 
L 272.4625 -135.880532 
L 272.85 -138.356633 
L 273.2375 -139.164509 
L 273.625 -143.811902 
L 274.0125 -139.941822 
L 274.4 -142.325936 
L 274.7875 -139.447518 
L 275.175 -145.679347 
L 275.5625 -146.466445 
L 275.95 -152.005206 
L 276.3375 -147.73494 
L 276.725 -143.788358 
L 277.1125 -145.939248 
L 277.5 -148.543024 
L 277.8875 -148.627893 
L 278.275 -150.093745 
L 278.6625 -155.130588 
L 279.05 -155.642042 
L 279.4375 -154.882761 
L 279.825 -156.131945 
L 280.2125 -156.740452 
L 280.6 -154.497218 
L 280.9875 -155.169706 
L 281.375 -157.33619 
L 281.7625 -156.51964 
L 282.15 -159.188765 
L 282.5375 -159.561986 
L 282.925 -156.174275 
L 283.3125 -158.950139 
L 283.7 -158.211894 
L 284.0875 -157.473422 
L 284.475 -157.200693 
L 284.8625 -156.041901 
L 285.25 -156.908445 
L 285.6375 -158.431675 
L 286.025 -155.382805 
L 286.4125 -155.761638 
L 286.8 -155.072723 
L 287.1875 -153.838886 
L 287.575 -156.376589 
L 287.9625 -151.791402 
L 288.35 -150.49863 
L 288.7375 -152.414799 
L 289.125 -154.36864 
L 289.5125 -152.699514 
L 289.9 -150.074196 
L 290.2875 -150.539424 
L 290.675 -151.39544 
L 291.0625 -152.81103 
L 291.45 -153.709555 
L 291.8375 -152.267515 
L 292.225 -153.143219 
L 292.6125 -152.851933 
L 293 -156.767724 
L 293.3875 -154.065784 
L 293.775 -153.583277 
L 294.1625 -154.079227 
L 294.55 -153.557492 
L 294.9375 -153.752916 
L 295.325 -155.008553 
L 295.7125 -156.034664 
L 296.1 -153.433198 
L 296.4875 -155.087137 
L 296.875 -154.917647 
L 297.2625 -156.427643 
L 297.65 -155.041228 
L 298.0375 -156.342704 
L 298.425 -157.164717 
L 298.8125 -157.599313 
L 299.2 -156.976322 
L 299.5875 -157.247306 
L 299.975 -156.525498 
L 300.3625 -157.090783 
L 300.75 -155.31927 
L 301.1375 -158.709896 
L 301.525 -157.056225 
L 301.9125 -156.246822 
L 302.3 -160.424902 
L 302.6875 -156.505186 
L 303.075 -157.885811 
L 303.4625 -157.865082 
L 303.85 -159.605725 
L 304.2375 -157.215345 
L 304.625 -159.418668 
L 305.0125 -159.355717 
L 305.4 -155.266412 
L 305.7875 -157.230572 
L 306.175 -154.687853 
L 306.5625 -156.498603 
L 306.95 -157.724817 
L 307.3375 -156.80474 
L 307.725 -157.83209 
L 308.1125 -156.678988 
L 308.5 -155.920798 
L 308.8875 -154.663625 
L 309.275 -155.959143 
L 309.6625 -155.344748 
L 310.05 -155.882046 
L 310.4375 -157.08314 
L 310.825 -156.733017 
L 311.2125 -156.339473 
L 311.6 -156.356286 
L 311.9875 -154.274443 
L 312.375 -156.290242 
L 312.7625 -157.010722 
L 313.15 -157.06939 
L 313.5375 -156.740352 
L 313.925 -155.051815 
L 314.3125 -156.401779 
L 314.7 -157.370401 
L 315.0875 -156.968828 
L 315.475 -157.294236 
L 315.8625 -156.743555 
L 316.25 -156.021529 
L 316.6375 -156.000007 
L 317.025 -155.872649 
L 317.4125 -156.770757 
L 317.8 -157.811282 
L 318.1875 -156.980228 
L 318.575 -155.901992 
L 318.9625 -156.883403 
L 319.35 -157.835639 
L 319.7375 -158.345607 
L 320.125 -158.311217 
L 320.5125 -159.21571 
L 320.9 -157.343149 
L 321.2875 -157.285711 
L 321.675 -159.043394 
L 322.0625 -158.924374 
L 322.45 -157.510915 
L 322.8375 -157.19191 
L 323.225 -156.547833 
L 323.6125 -157.771499 
L 324 -158.028218 
L 324 -173.425879 
L 324 -173.425879 
L 323.6125 -171.903709 
L 323.225 -172.037749 
L 322.8375 -173.553356 
L 322.45 -171.701931 
L 322.0625 -173.621194 
L 321.675 -173.018714 
L 321.2875 -172.741366 
L 320.9 -173.003041 
L 320.5125 -171.444102 
L 320.125 -172.362454 
L 319.7375 -171.850097 
L 319.35 -172.46711 
L 318.9625 -171.870767 
L 318.575 -172.509332 
L 318.1875 -172.322691 
L 317.8 -173.083499 
L 317.4125 -171.840878 
L 317.025 -172.096238 
L 316.6375 -172.034963 
L 316.25 -171.338633 
L 315.8625 -171.998839 
L 315.475 -172.570517 
L 315.0875 -172.108303 
L 314.7 -172.332089 
L 314.3125 -170.60372 
L 313.925 -170.823273 
L 313.5375 -172.780742 
L 313.15 -171.431552 
L 312.7625 -171.44093 
L 312.375 -171.439076 
L 311.9875 -171.275088 
L 311.6 -171.955844 
L 311.2125 -170.908211 
L 310.825 -171.743895 
L 310.4375 -171.970774 
L 310.05 -170.164723 
L 309.6625 -170.923785 
L 309.275 -170.25213 
L 308.8875 -170.057162 
L 308.5 -170.259763 
L 308.1125 -172.443169 
L 307.725 -173.574541 
L 307.3375 -171.654545 
L 306.95 -171.984891 
L 306.5625 -172.039791 
L 306.175 -171.471097 
L 305.7875 -171.95981 
L 305.4 -171.123204 
L 305.0125 -172.410574 
L 304.625 -172.390608 
L 304.2375 -170.50973 
L 303.85 -171.22444 
L 303.4625 -169.529935 
L 303.075 -170.752431 
L 302.6875 -168.721563 
L 302.3 -172.058429 
L 301.9125 -170.071239 
L 301.525 -171.604799 
L 301.1375 -171.610063 
L 300.75 -169.462226 
L 300.3625 -171.571252 
L 299.975 -171.141088 
L 299.5875 -171.758606 
L 299.2 -171.369593 
L 298.8125 -173.03177 
L 298.425 -171.365528 
L 298.0375 -171.650669 
L 297.65 -169.921268 
L 297.2625 -171.543643 
L 296.875 -170.952623 
L 296.4875 -169.425963 
L 296.1 -168.849714 
L 295.7125 -170.766617 
L 295.325 -169.538054 
L 294.9375 -169.539839 
L 294.55 -169.604583 
L 294.1625 -169.359949 
L 293.775 -168.315845 
L 293.3875 -169.64619 
L 293 -171.660671 
L 292.6125 -169.097293 
L 292.225 -168.954866 
L 291.8375 -168.423952 
L 291.45 -169.723237 
L 291.0625 -170.249493 
L 290.675 -169.476769 
L 290.2875 -170.649123 
L 289.9 -169.610145 
L 289.5125 -172.73284 
L 289.125 -172.909438 
L 288.7375 -171.88413 
L 288.35 -170.851447 
L 287.9625 -170.215896 
L 287.575 -171.752956 
L 287.1875 -169.294818 
L 286.8 -170.465308 
L 286.4125 -170.562212 
L 286.025 -170.897961 
L 285.6375 -172.139273 
L 285.25 -170.567962 
L 284.8625 -170.390561 
L 284.475 -171.235851 
L 284.0875 -169.960298 
L 283.7 -170.818584 
L 283.3125 -170.226444 
L 282.925 -169.735609 
L 282.5375 -171.411745 
L 282.15 -169.973066 
L 281.7625 -168.553233 
L 281.375 -171.753253 
L 280.9875 -170.1765 
L 280.6 -170.278192 
L 280.2125 -169.137769 
L 279.825 -169.37242 
L 279.4375 -169.265088 
L 279.05 -170.910729 
L 278.6625 -171.025051 
L 278.275 -172.280827 
L 277.8875 -171.520575 
L 277.5 -172.72713 
L 277.1125 -174.801013 
L 276.725 -174.524358 
L 276.3375 -172.012192 
L 275.95 -173.016295 
L 275.5625 -175.05557 
L 275.175 -173.491397 
L 274.7875 -177.356788 
L 274.4 -175.75427 
L 274.0125 -176.997485 
L 273.625 -178.082938 
L 273.2375 -176.096214 
L 272.85 -178.382938 
L 272.4625 -176.699378 
L 272.075 -176.92936 
L 271.6875 -179.703925 
L 271.3 -178.552181 
L 270.9125 -178.925085 
L 270.525 -177.936645 
L 270.1375 -178.107632 
L 269.75 -176.834805 
L 269.3625 -176.691913 
L 268.975 -176.649156 
L 268.5875 -176.99809 
L 268.2 -177.458341 
L 267.8125 -179.572284 
L 267.425 -177.307389 
L 267.0375 -174.527758 
L 266.65 -176.468642 
L 266.2625 -176.066553 
L 265.875 -176.060922 
L 265.4875 -175.4015 
L 265.1 -177.926702 
L 264.7125 -175.274162 
L 264.325 -176.78849 
L 263.9375 -177.979878 
L 263.55 -177.214788 
L 263.1625 -177.300172 
L 262.775 -176.328556 
L 262.3875 -176.188627 
L 262 -177.475412 
L 261.6125 -177.26601 
L 261.225 -177.071439 
L 260.8375 -176.432914 
L 260.45 -177.213737 
L 260.0625 -178.313019 
L 259.675 -177.668962 
L 259.2875 -176.854394 
L 258.9 -177.05193 
L 258.5125 -177.992686 
L 258.125 -178.507888 
L 257.7375 -179.102783 
L 257.35 -179.922605 
L 256.9625 -179.393396 
L 256.575 -179.847838 
L 256.1875 -179.173179 
L 255.8 -179.477363 
L 255.4125 -180.987161 
L 255.025 -180.802354 
L 254.6375 -180.31955 
L 254.25 -180.42264 
L 253.8625 -180.679318 
L 253.475 -179.439454 
L 253.0875 -178.531115 
L 252.7 -177.797401 
L 252.3125 -177.780191 
L 251.925 -178.480368 
L 251.5375 -178.264978 
L 251.15 -177.065194 
L 250.7625 -177.907876 
L 250.375 -179.034956 
L 249.9875 -177.969399 
L 249.6 -179.332537 
L 249.2125 -179.784065 
L 248.825 -179.049697 
L 248.4375 -180.825244 
L 248.05 -181.169905 
L 247.6625 -180.825869 
L 247.275 -180.848729 
L 246.8875 -181.25863 
L 246.5 -179.610084 
L 246.1125 -179.386248 
L 245.725 -180.112953 
L 245.3375 -179.142893 
L 244.95 -180.06522 
L 244.5625 -179.618233 
L 244.175 -180.76736 
L 243.7875 -181.64347 
L 243.4 -181.734902 
L 243.0125 -182.473374 
L 242.625 -182.359836 
L 242.2375 -183.188461 
L 241.85 -181.493292 
L 241.4625 -181.70766 
L 241.075 -181.618518 
L 240.6875 -182.071047 
L 240.3 -181.683471 
L 239.9125 -181.352164 
L 239.525 -181.615673 
L 239.1375 -182.457473 
L 238.75 -182.343845 
L 238.3625 -182.048623 
L 237.975 -181.437033 
L 237.5875 -181.272093 
L 237.2 -181.733256 
L 236.8125 -181.997479 
L 236.425 -182.064683 
L 236.0375 -182.393779 
L 235.65 -182.836078 
L 235.2625 -181.295518 
L 234.875 -181.578022 
L 234.4875 -182.096882 
L 234.1 -182.837684 
L 233.7125 -182.229791 
L 233.325 -181.716473 
L 232.9375 -182.73385 
L 232.55 -182.888886 
L 232.1625 -182.818828 
L 231.775 -184.461347 
L 231.3875 -185.302136 
L 231 -185.174362 
L 230.6125 -185.045616 
L 230.225 -186.557723 
L 229.8375 -185.904209 
L 229.45 -186.965513 
L 229.0625 -186.400893 
L 228.675 -186.691218 
L 228.2875 -188.476044 
L 227.9 -187.016884 
L 227.5125 -188.609985 
L 227.125 -188.505686 
L 226.7375 -189.087069 
L 226.35 -189.386237 
L 225.9625 -187.754772 
L 225.575 -188.663081 
L 225.1875 -188.776055 
L 224.8 -190.334399 
L 224.4125 -190.089517 
L 224.025 -189.940855 
L 223.6375 -190.255468 
L 223.25 -191.177161 
L 222.8625 -190.311955 
L 222.475 -189.468271 
L 222.0875 -190.994258 
L 221.7 -189.831579 
L 221.3125 -189.946119 
L 220.925 -189.21757 
L 220.5375 -190.138132 
L 220.15 -189.340685 
L 219.7625 -189.508777 
L 219.375 -187.281821 
L 218.9875 -187.929139 
L 218.6 -188.60256 
L 218.2125 -189.553437 
L 217.825 -190.09836 
L 217.4375 -190.444478 
L 217.05 -191.326517 
L 216.6625 -191.577009 
L 216.275 -192.263892 
L 215.8875 -190.927699 
L 215.5 -189.976801 
L 215.1125 -190.204473 
L 214.725 -190.5221 
L 214.3375 -189.741624 
L 213.95 -189.332437 
L 213.5625 -189.561884 
L 213.175 -190.615703 
L 212.7875 -190.911778 
L 212.4 -190.275414 
L 212.0125 -190.179868 
L 211.625 -189.736886 
L 211.2375 -189.277764 
L 210.85 -190.138033 
L 210.4625 -191.22766 
L 210.075 -190.458932 
L 209.6875 -191.04664 
L 209.3 -191.79342 
L 208.9125 -192.392192 
L 208.525 -191.021401 
L 208.1375 -191.055701 
L 207.75 -191.068251 
L 207.3625 -191.694345 
L 206.975 -191.513207 
L 206.5875 -192.00184 
L 206.2 -192.282034 
L 205.8125 -192.505542 
L 205.425 -193.175513 
L 205.0375 -192.499436 
L 204.65 -192.963702 
L 204.2625 -191.972437 
L 203.875 -193.287733 
L 203.4875 -195.84449 
L 203.1 -194.868828 
L 202.7125 -196.642522 
L 202.325 -190.767458 
L 201.9375 -188.471068 
L 201.55 -186.512439 
L 201.1625 -186.633284 
L 200.775 -187.402508 
L 200.3875 -187.470791 
L 200 -187.226881 
L 199.6125 -187.365094 
L 199.225 -188.058956 
L 198.8375 -188.444817 
L 198.45 -186.639063 
L 198.0625 -187.247769 
L 197.675 -187.449646 
L 197.2875 -187.604593 
L 196.9 -188.284992 
L 196.5125 -187.787873 
L 196.125 -187.249176 
L 195.7375 -187.755773 
L 195.35 -187.612623 
L 194.9625 -187.861361 
L 194.575 -188.101435 
L 194.1875 -188.274207 
L 193.8 -188.762503 
L 193.4125 -189.788465 
L 193.025 -187.724665 
L 192.6375 -189.121747 
L 192.25 -188.405708 
L 191.8625 -188.801304 
L 191.475 -188.449962 
L 191.0875 -189.603094 
L 190.7 -188.995092 
L 190.3125 -189.412439 
L 189.925 -188.665768 
L 189.5375 -188.921703 
L 189.15 -187.720838 
L 188.7625 -188.405203 
L 188.375 -188.360741 
L 187.9875 -188.431394 
L 187.6 -188.201323 
L 187.2125 -188.642798 
L 186.825 -187.866417 
L 186.4375 -188.92661 
L 186.05 -188.450606 
L 185.6625 -188.88544 
L 185.275 -190.254001 
L 184.8875 -190.334141 
L 184.5 -190.640129 
L 184.1125 -190.849739 
L 183.725 -192.137139 
L 183.3375 -192.110333 
L 182.95 -192.903567 
L 182.5625 -191.749484 
L 182.175 -192.230206 
L 181.7875 -192.356305 
L 181.4 -192.965348 
L 181.0125 -192.688882 
L 180.625 -193.047709 
L 180.2375 -192.112732 
L 179.85 -193.204975 
L 179.4625 -192.799377 
L 179.075 -192.720069 
L 178.6875 -192.286376 
L 178.3 -193.047372 
L 177.9125 -192.907433 
L 177.525 -192.423261 
L 177.1375 -192.757919 
L 176.75 -193.08421 
L 176.3625 -192.543253 
L 175.975 -192.815159 
L 175.5875 -193.409569 
L 175.2 -192.812819 
L 174.8125 -192.292899 
L 174.425 -192.663999 
L 174.0375 -193.382565 
L 173.65 -193.107844 
L 173.2625 -193.407547 
L 172.875 -193.245977 
L 172.4875 -192.748818 
L 172.1 -192.149451 
L 171.7125 -192.550986 
L 171.325 -192.610407 
L 170.9375 -193.225873 
L 170.55 -192.323214 
L 170.1625 -191.801351 
L 169.775 -192.495193 
L 169.3875 -192.27559 
L 169 -193.172459 
L 168.6125 -193.078738 
L 168.225 -192.853683 
L 167.8375 -192.372821 
L 167.45 -192.015164 
L 167.0625 -192.03396 
L 166.675 -192.14505 
L 166.2875 -192.466384 
L 165.9 -192.938363 
L 165.5125 -193.379412 
L 165.125 -193.238027 
L 164.7375 -193.744822 
L 164.35 -192.722924 
L 163.9625 -193.209774 
L 163.575 -192.939057 
L 163.1875 -192.761388 
L 162.8 -192.790752 
L 162.4125 -193.011544 
L 162.025 -193.185208 
L 161.6375 -193.344121 
L 161.25 -193.423388 
L 160.8625 -192.541151 
L 160.475 -192.464798 
L 160.0875 -192.368915 
L 159.7 -192.016353 
L 159.3125 -191.765523 
L 158.925 -192.197095 
L 158.5375 -192.15994 
L 158.15 -192.264071 
L 157.7625 -192.531654 
L 157.375 -192.566827 
L 156.9875 -192.255763 
L 156.6 -192.512819 
L 156.2125 -192.292225 
L 155.825 -192.106665 
L 155.4375 -192.00182 
L 155.05 -191.613114 
L 154.6625 -191.5598 
L 154.275 -191.201766 
L 153.8875 -191.329451 
L 153.5 -191.525658 
L 153.1125 -191.348822 
L 152.725 -191.803651 
L 152.3375 -191.483308 
L 151.95 -191.836325 
L 151.5625 -191.587538 
L 151.175 -191.114052 
L 150.7875 -191.251769 
L 150.4 -191.518897 
L 150.0125 -191.390022 
L 149.625 -190.919986 
L 149.2375 -190.999928 
L 148.85 -191.135326 
L 148.4625 -191.410682 
L 148.075 -191.101818 
L 147.6875 -191.271636 
L 147.3 -191.318506 
L 146.9125 -191.235412 
L 146.525 -191.185309 
L 146.1375 -191.522723 
L 145.75 -191.587458 
L 145.3625 -192.06717 
L 144.975 -192.227212 
L 144.5875 -192.14045 
L 144.2 -192.483078 
L 143.8125 -191.098487 
L 143.425 -190.65843 
L 143.0375 -192.809112 
L 142.65 -199.647505 
L 142.2625 -200.729458 
L 141.875 -200.573619 
L 141.4875 -191.951182 
L 141.1 -190.644412 
L 140.7125 -190.683927 
L 140.325 -190.2976 
L 139.9375 -190.320183 
L 139.55 -190.999492 
L 139.1625 -190.929146 
L 138.775 -191.179242 
L 138.3875 -191.05356 
L 138 -190.76379 
L 137.6125 -190.772117 
L 137.225 -190.858959 
L 136.8375 -190.868773 
L 136.45 -190.476419 
L 136.0625 -190.879202 
L 135.675 -191.167426 
L 135.2875 -190.354979 
L 134.9 -190.103673 
L 134.5125 -190.270735 
L 134.125 -190.216885 
L 133.7375 -189.709426 
L 133.35 -189.421212 
L 132.9625 -189.647843 
L 132.575 -189.445262 
L 132.1875 -189.968821 
L 131.8 -189.762641 
L 131.4125 -189.612611 
L 131.025 -189.705054 
L 130.6375 -189.231518 
L 130.25 -189.389915 
L 129.8625 -189.439859 
L 129.475 -189.45581 
L 129.0875 -189.488098 
L 128.7 -189.188187 
L 128.3125 -189.274979 
L 127.925 -189.15568 
L 127.5375 -189.249174 
L 127.15 -189.293358 
L 126.7625 -189.433584 
L 126.375 -189.12019 
L 125.9875 -189.272461 
L 125.6 -189.096765 
L 125.2125 -188.780903 
L 124.825 -188.919681 
L 124.4375 -189.000713 
L 124.05 -188.864869 
L 123.6625 -189.26337 
L 123.275 -189.10758 
L 122.8875 -189.127843 
L 122.5 -188.801681 
L 122.1125 -188.794742 
L 121.725 -188.996827 
L 121.3375 -188.688787 
L 120.95 -188.549771 
L 120.5625 -189.002478 
L 120.175 -188.733695 
L 119.7875 -188.793284 
L 119.4 -188.897118 
L 119.0125 -189.04344 
L 118.625 -189.031564 
L 118.2375 -188.661674 
L 117.85 -188.626848 
L 117.4625 -188.535089 
L 117.075 -188.830648 
L 116.6875 -188.453868 
L 116.3 -188.534682 
L 115.9125 -188.666174 
L 115.525 -188.367988 
L 115.1375 -188.54641 
L 114.75 -188.565523 
L 114.3625 -188.545518 
L 113.975 -188.445263 
L 113.5875 -188.703449 
L 113.2 -188.760322 
L 112.8125 -188.615368 
L 112.425 -188.810494 
L 112.0375 -188.101098 
L 111.65 -188.419359 
L 111.2625 -188.308517 
L 110.875 -188.652038 
L 110.4875 -188.624449 
L 110.1 -188.631071 
L 109.7125 -188.774251 
L 109.325 -188.87057 
L 108.9375 -188.755415 
L 108.55 -188.436856 
L 108.1625 -188.467677 
L 107.775 -188.842733 
L 107.3875 -188.406115 
L 107 -188.764516 
L 106.6125 -188.40556 
L 106.225 -188.085296 
L 105.8375 -188.199578 
L 105.45 -188.159171 
L 105.0625 -188.125485 
L 104.675 -188.224897 
L 104.2875 -188.000219 
L 103.9 -187.849534 
L 103.5125 -187.966057 
L 103.125 -187.581871 
L 102.7375 -187.245469 
L 102.35 -187.700307 
L 101.9625 -187.427648 
L 101.575 -187.044345 
L 101.1875 -187.238202 
L 100.8 -187.158667 
L 100.4125 -187.436243 
L 100.025 -187.724417 
L 99.6375 -187.862224 
L 99.25 -187.814213 
L 98.8625 -187.688094 
L 98.475 -187.961527 
L 98.0875 -188.102198 
L 97.7 -188.304155 
L 97.3125 -188.377743 
L 96.925 -187.992962 
L 96.5375 -187.839998 
L 96.15 -188.042837 
L 95.7625 -188.438591 
L 95.375 -188.689699 
L 94.9875 -188.510791 
L 94.6 -188.781567 
L 94.2125 -188.712569 
L 93.825 -188.620077 
L 93.4375 -188.595382 
L 93.05 -188.875497 
L 92.6625 -188.691553 
L 92.275 -188.768937 
L 91.8875 -188.926452 
L 91.5 -188.861529 
L 91.1125 -188.615318 
L 90.725 -188.603264 
L 90.3375 -188.535337 
L 89.95 -188.864314 
L 89.5625 -188.699275 
L 89.175 -188.861628 
L 88.7875 -188.868696 
L 88.4 -188.704301 
L 88.0125 -188.850535 
L 87.625 -188.731583 
L 87.2375 -188.765705 
L 86.85 -188.778523 
L 86.4625 -188.921188 
L 86.075 -188.999722 
L 85.6875 -189.027103 
L 85.3 -189.213168 
L 84.9125 -189.179195 
L 84.525 -189.060115 
L 84.1375 -188.905485 
L 83.75 -189.144508 
L 83.3625 -189.198506 
L 82.975 -189.330167 
L 82.5875 -189.173415 
L 82.2 -189.106738 
L 81.8125 -189.426179 
L 81.425 -189.356527 
L 81.0375 -189.174248 
L 80.65 -189.356071 
L 80.2625 -189.160885 
L 79.875 -189.421827 
L 79.4875 -189.40889 
L 79.1 -189.52104 
L 78.7125 -189.697103 
L 78.325 -189.814706 
L 77.9375 -189.737223 
L 77.55 -189.525373 
L 77.1625 -189.627917 
L 76.775 -189.526651 
L 76.3875 -189.720231 
L 76 -189.785432 
L 75.6125 -189.931229 
L 75.225 -190.373953 
L 74.8375 -190.23467 
L 74.45 -190.131352 
L 74.0625 -190.230585 
L 73.675 -189.870578 
L 73.2875 -189.775707 
L 72.9 -190.170609 
L 72.5125 -190.447115 
L 72.125 -190.254516 
L 71.7375 -190.279141 
L 71.35 -190.541054 
L 70.9625 -190.387079 
L 70.575 -190.08914 
L 70.1875 -189.766467 
L 69.8 -189.671526 
L 69.4125 -189.369186 
L 69.025 -189.642857 
L 68.6375 -189.92763 
L 68.25 -189.933212 
L 67.8625 -190.383728 
L 67.475 -190.199576 
L 67.0875 -190.296133 
L 66.7 -190.263775 
L 66.3125 -190.011855 
L 65.925 -190.057615 
L 65.5375 -190.003438 
L 65.15 -190.066914 
L 64.7625 -190.132561 
L 64.375 -189.962803 
L 63.9875 -189.70438 
L 63.6 -189.764445 
L 63.2125 -189.9735 
L 62.825 -190.157285 
L 62.4375 -189.799747 
L 62.05 -189.623873 
L 61.6625 -189.843515 
L 61.275 -190.05822 
L 60.8875 -189.717049 
L 60.5 -189.283524 
L 60.1125 -189.312115 
L 59.725 -189.281413 
L 59.3375 -189.251692 
L 58.95 -188.965194 
L 58.5625 -188.590584 
L 58.175 -189.289423 
L 57.7875 -189.19815 
L 57.4 -189.06528 
L 57.0125 -189.029978 
L 56.625 -188.744362 
L 56.2375 -188.993556 
L 55.85 -188.559793 
L 55.4625 -188.952405 
L 55.075 -189.241333 
L 54.6875 -189.535336 
L 54.3 -189.55317 
L 53.9125 -189.256173 
L 53.525 -189.062682 
L 53.1375 -189.422511 
L 52.75 -188.935404 
L 52.3625 -189.155046 
L 51.975 -188.98053 
L 51.5875 -188.862847 
L 51.2 -188.83965 
L 50.8125 -188.772199 
L 50.425 -188.90945 
L 50.0375 -188.946606 
L 49.65 -188.480961 
L 49.2625 -188.429124 
L 48.875 -187.97834 
L 48.4875 -188.223261 
L 48.1 -188.406373 
L 47.7125 -188.187692 
L 47.325 -187.81111 
L 46.9375 -188.175518 
L 46.55 -187.839373 
L 46.1625 -187.731346 
L 45.775 -187.951653 
L 45.3875 -188.055506 
z
" style="stroke: #195387; stroke-opacity: 0.1"/>
    </defs>
    <g clip-path="url(#p4fe83988e7)">
     <use xlink:href="#m51f8fcdfee" x="0" y="216" style="fill: #195387; fill-opacity: 0.1; stroke: #195387; stroke-opacity: 0.1"/>
    </g>
   </g>
   <g id="matplotlib.axis_1">
    <g id="xtick_1">
     <g id="line2d_1">
      <defs>
       <path id="mbe6ca97a15" d="M 0 0 
L 0 3.5 
" style="stroke: #000000; stroke-width: 0.8"/>
      </defs>
      <g>
       <use xlink:href="#mbe6ca97a15" x="45" y="192.24" style="stroke: #000000; stroke-width: 0.8"/>
      </g>
     </g>
     <g id="text_1">
      <text style="font: 6px 'sans-serif'; text-anchor: middle" x="45" y="203.799062" transform="rotate(-0, 45, 203.799062)">0</text>
     </g>
    </g>
    <g id="xtick_2">
     <g id="line2d_2">
      <g>
       <use xlink:href="#mbe6ca97a15" x="83.75" y="192.24" style="stroke: #000000; stroke-width: 0.8"/>
      </g>
     </g>
     <g id="text_2">
      <text style="font: 6px 'sans-serif'; text-anchor: middle" x="83.75" y="203.799062" transform="rotate(-0, 83.75, 203.799062)">200</text>
     </g>
    </g>
    <g id="xtick_3">
     <g id="line2d_3">
      <g>
       <use xlink:href="#mbe6ca97a15" x="122.5" y="192.24" style="stroke: #000000; stroke-width: 0.8"/>
      </g>
     </g>
     <g id="text_3">
      <text style="font: 6px 'sans-serif'; text-anchor: middle" x="122.5" y="203.799062" transform="rotate(-0, 122.5, 203.799062)">400</text>
     </g>
    </g>
    <g id="xtick_4">
     <g id="line2d_4">
      <g>
       <use xlink:href="#mbe6ca97a15" x="161.25" y="192.24" style="stroke: #000000; stroke-width: 0.8"/>
      </g>
     </g>
     <g id="text_4">
      <text style="font: 6px 'sans-serif'; text-anchor: middle" x="161.25" y="203.799062" transform="rotate(-0, 161.25, 203.799062)">600</text>
     </g>
    </g>
    <g id="xtick_5">
     <g id="line2d_5">
      <g>
       <use xlink:href="#mbe6ca97a15" x="200" y="192.24" style="stroke: #000000; stroke-width: 0.8"/>
      </g>
     </g>
     <g id="text_5">
      <text style="font: 6px 'sans-serif'; text-anchor: middle" x="200" y="203.799062" transform="rotate(-0, 200, 203.799062)">800</text>
     </g>
    </g>
    <g id="xtick_6">
     <g id="line2d_6">
      <g>
       <use xlink:href="#mbe6ca97a15" x="238.75" y="192.24" style="stroke: #000000; stroke-width: 0.8"/>
      </g>
     </g>
     <g id="text_6">
      <text style="font: 6px 'sans-serif'; text-anchor: middle" x="238.75" y="203.799062" transform="rotate(-0, 238.75, 203.799062)">1000</text>
     </g>
    </g>
    <g id="xtick_7">
     <g id="line2d_7">
      <g>
       <use xlink:href="#mbe6ca97a15" x="277.5" y="192.24" style="stroke: #000000; stroke-width: 0.8"/>
      </g>
     </g>
     <g id="text_7">
      <text style="font: 6px 'sans-serif'; text-anchor: middle" x="277.5" y="203.799062" transform="rotate(-0, 277.5, 203.799062)">1200</text>
     </g>
    </g>
    <g id="xtick_8">
     <g id="line2d_8">
      <g>
       <use xlink:href="#mbe6ca97a15" x="316.25" y="192.24" style="stroke: #000000; stroke-width: 0.8"/>
      </g>
     </g>
     <g id="text_8">
      <text style="font: 6px 'sans-serif'; text-anchor: middle" x="316.25" y="203.799062" transform="rotate(-0, 316.25, 203.799062)">1400</text>
     </g>
    </g>
    <g id="text_9">
     <text style="font: 8px 'sans-serif'; text-anchor: middle" x="184.5" y="215.125625" transform="rotate(-0, 184.5, 215.125625)">Time (min)</text>
    </g>
   </g>
   <g id="matplotlib.axis_2">
    <g id="ytick_1">
     <g id="line2d_9">
      <defs>
       <path id="m7fd4ec4a6f" d="M 0 0 
L -3.5 0 
" style="stroke: #000000; stroke-width: 0.8"/>
      </defs>
      <g>
       <use xlink:href="#m7fd4ec4a6f" x="45" y="192.24" style="stroke: #000000; stroke-width: 0.8"/>
      </g>
     </g>
     <g id="text_10">
      <text style="font: 6px 'sans-serif'; text-anchor: end" x="38" y="194.519531" transform="rotate(-0, 38, 194.519531)">0.0</text>
     </g>
    </g>
    <g id="ytick_2">
     <g id="line2d_10">
      <g>
       <use xlink:href="#m7fd4ec4a6f" x="45" y="158.976" style="stroke: #000000; stroke-width: 0.8"/>
      </g>
     </g>
     <g id="text_11">
      <text style="font: 6px 'sans-serif'; text-anchor: end" x="38" y="161.255531" transform="rotate(-0, 38, 161.255531)">0.2</text>
     </g>
    </g>
    <g id="ytick_3">
     <g id="line2d_11">
      <g>
       <use xlink:href="#m7fd4ec4a6f" x="45" y="125.712" style="stroke: #000000; stroke-width: 0.8"/>
      </g>
     </g>
     <g id="text_12">
      <text style="font: 6px 'sans-serif'; text-anchor: end" x="38" y="127.991531" transform="rotate(-0, 38, 127.991531)">0.4</text>
     </g>
    </g>
    <g id="ytick_4">
     <g id="line2d_12">
      <g>
       <use xlink:href="#m7fd4ec4a6f" x="45" y="92.448" style="stroke: #000000; stroke-width: 0.8"/>
      </g>
     </g>
     <g id="text_13">
      <text style="font: 6px 'sans-serif'; text-anchor: end" x="38" y="94.727531" transform="rotate(-0, 38, 94.727531)">0.6</text>
     </g>
    </g>
    <g id="ytick_5">
     <g id="line2d_13">
      <g>
       <use xlink:href="#m7fd4ec4a6f" x="45" y="59.184" style="stroke: #000000; stroke-width: 0.8"/>
      </g>
     </g>
     <g id="text_14">
      <text style="font: 6px 'sans-serif'; text-anchor: end" x="38" y="61.463531" transform="rotate(-0, 38, 61.463531)">0.8</text>
     </g>
    </g>
    <g id="ytick_6">
     <g id="line2d_14">
      <g>
       <use xlink:href="#m7fd4ec4a6f" x="45" y="25.92" style="stroke: #000000; stroke-width: 0.8"/>
      </g>
     </g>
     <g id="text_15">
      <text style="font: 6px 'sans-serif'; text-anchor: end" x="38" y="28.199531" transform="rotate(-0, 38, 28.199531)">1.0</text>
     </g>
    </g>
    <g id="text_16">
     <text style="font: 8px 'sans-serif'; text-anchor: middle" x="22.794375" y="109.08" transform="rotate(-90, 22.794375, 109.08)">Cosine similarity φ</text>
    </g>
   </g>
   <g id="line2d_15">
    <path d="M 45.3875 29.538011 
L 45.775 29.584188 
L 46.1625 29.847518 
L 46.55 30.328687 
L 46.9375 29.439263 
L 47.325 29.470461 
L 48.1 28.847738 
L 48.4875 29.151347 
L 48.875 30.254366 
L 49.2625 28.933846 
L 49.65 28.998105 
L 50.0375 28.400621 
L 50.425 28.613879 
L 50.8125 28.691046 
L 51.975 28.313482 
L 52.3625 28.029373 
L 52.75 28.46493 
L 53.1375 28.25189 
L 53.525 28.537467 
L 53.9125 28.372527 
L 54.3 28.08471 
L 54.6875 28.036719 
L 55.85 28.686565 
L 56.2375 28.258393 
L 56.625 28.253506 
L 57.0125 28.472097 
L 57.4 28.55655 
L 57.7875 28.478888 
L 58.175 28.043242 
L 58.5625 28.250532 
L 58.95 28.097171 
L 59.3375 27.802603 
L 60.1125 28.221386 
L 60.5 28.727597 
L 61.6625 27.874118 
L 62.4375 27.807589 
L 63.9875 28.193995 
L 64.375 27.752411 
L 64.7625 27.733328 
L 65.15 27.535584 
L 65.925 27.622485 
L 67.0875 27.432514 
L 67.475 27.620493 
L 68.25 27.47534 
L 68.6375 27.250979 
L 69.025 27.539212 
L 69.4125 27.45131 
L 69.8 27.580343 
L 70.1875 27.411597 
L 70.9625 28.025546 
L 71.35 27.980549 
L 71.7375 27.668613 
L 72.125 27.753135 
L 72.5125 27.573017 
L 72.9 27.643314 
L 73.2875 27.564978 
L 74.45 27.748198 
L 74.8375 27.707711 
L 75.225 28.220236 
L 75.6125 27.768163 
L 76 27.538598 
L 76.3875 27.620235 
L 76.775 27.475182 
L 77.1625 27.552665 
L 77.55 27.40432 
L 77.9375 27.803416 
L 78.325 27.694655 
L 78.7125 28.096021 
L 79.1 27.600616 
L 79.4875 27.831907 
L 80.65 27.91751 
L 81.425 27.606753 
L 81.8125 27.363259 
L 82.2 27.718735 
L 83.75 27.47996 
L 84.1375 27.679478 
L 85.3 27.333984 
L 85.6875 27.41808 
L 86.075 27.629058 
L 87.2375 27.775797 
L 87.625 27.792114 
L 88.0125 27.665857 
L 88.4 27.766914 
L 89.175 27.549859 
L 89.5625 27.852111 
L 89.95 27.604443 
L 90.3375 27.878788 
L 90.725 27.814836 
L 91.1125 27.95408 
L 91.5 27.72504 
L 91.8875 27.812754 
L 92.6625 28.16372 
L 93.05 28.038939 
L 93.4375 28.343203 
L 94.2125 28.359203 
L 94.6 28.397043 
L 94.9875 28.753302 
L 95.375 28.647595 
L 95.7625 28.737054 
L 96.15 29.532568 
L 96.5375 29.59996 
L 96.925 29.820296 
L 97.3125 29.487571 
L 98.0875 29.759368 
L 98.8625 29.680338 
L 99.25 29.822209 
L 99.6375 29.521495 
L 100.4125 30.185547 
L 100.8 30.468744 
L 101.1875 30.430994 
L 101.575 31.0224 
L 101.9625 30.307244 
L 102.35 30.046104 
L 102.7375 30.795511 
L 103.125 30.385174 
L 103.9 30.458137 
L 105.0625 29.878538 
L 105.8375 30.215565 
L 106.225 29.784637 
L 106.6125 29.66407 
L 107 29.171174 
L 107.3875 29.385017 
L 107.775 29.200676 
L 108.55 29.933478 
L 108.9375 29.636421 
L 109.325 29.572628 
L 109.7125 29.725633 
L 110.1 29.394761 
L 110.4875 29.591345 
L 110.875 29.330899 
L 111.2625 29.357507 
L 111.65 29.740879 
L 112.0375 29.479115 
L 112.425 28.845725 
L 112.8125 28.993098 
L 113.5875 28.733921 
L 114.3625 28.923238 
L 114.75 28.957975 
L 115.1375 28.794264 
L 115.525 29.037302 
L 115.9125 28.51071 
L 116.6875 28.560624 
L 117.075 28.079019 
L 117.4625 28.277903 
L 117.85 28.021383 
L 118.2375 27.999008 
L 118.625 28.229981 
L 119.4 28.088764 
L 119.7875 28.391382 
L 120.175 28.477599 
L 120.5625 28.292902 
L 121.3375 28.5829 
L 122.5 27.984832 
L 123.275 28.076729 
L 123.6625 27.901935 
L 124.4375 28.129191 
L 125.2125 28.068105 
L 125.6 28.286964 
L 125.9875 28.158396 
L 126.375 28.391134 
L 127.15 28.13853 
L 127.5375 28.159289 
L 127.925 27.860904 
L 129.0875 28.179175 
L 129.8625 28.090697 
L 131.025 28.094028 
L 132.1875 28.406589 
L 132.575 28.361295 
L 132.9625 28.168102 
L 134.125 28.323336 
L 134.5125 28.202273 
L 135.2875 28.420181 
L 135.675 28.546666 
L 136.0625 28.551157 
L 136.45 28.217173 
L 136.8375 28.249312 
L 138 27.86016 
L 138.3875 28.00226 
L 139.55 27.737452 
L 139.9375 27.287808 
L 141.1 27.331248 
L 141.4875 28.030553 
L 141.875 32.738299 
L 142.2625 32.842558 
L 142.65 32.28232 
L 143.0375 28.410981 
L 143.425 27.403934 
L 143.8125 27.507529 
L 144.2 28.3 
L 144.5875 27.952494 
L 145.3625 27.969198 
L 145.75 27.674006 
L 146.1375 27.687805 
L 146.525 27.570509 
L 147.6875 27.726507 
L 148.075 27.434576 
L 148.4625 27.506647 
L 149.2375 27.277785 
L 149.625 27.190081 
L 150.0125 27.458111 
L 150.4 27.352731 
L 151.5625 27.68729 
L 151.95 27.981134 
L 152.3375 27.754275 
L 152.725 27.813161 
L 154.275 27.408147 
L 154.6625 27.585528 
L 155.05 27.632141 
L 155.4375 27.947755 
L 156.6 28.274681 
L 157.7625 28.522309 
L 158.15 28.369285 
L 158.5375 28.422986 
L 158.925 28.286815 
L 160.0875 28.771374 
L 160.475 28.574017 
L 161.6375 29.416442 
L 162.025 29.2632 
L 162.4125 29.53117 
L 162.8 29.152784 
L 163.1875 29.397389 
L 163.575 29.423154 
L 163.9625 29.897552 
L 164.35 29.7088 
L 164.7375 30.056167 
L 165.125 30.004319 
L 165.5125 30.150761 
L 166.2875 30.108529 
L 166.675 30.086026 
L 167.0625 29.606889 
L 167.45 29.812415 
L 167.8375 29.859722 
L 168.225 29.745043 
L 169.775 30.929561 
L 170.55 30.698479 
L 170.9375 31.193814 
L 171.325 31.100191 
L 172.1 30.762747 
L 172.4875 31.020497 
L 172.875 30.674756 
L 173.2625 30.599731 
L 173.65 30.795779 
L 174.0375 30.490336 
L 174.425 30.545891 
L 174.8125 30.455778 
L 175.2 30.491169 
L 175.5875 30.927846 
L 175.975 30.900971 
L 176.3625 31.52179 
L 176.75 31.56758 
L 177.1375 31.182621 
L 178.3 31.848993 
L 178.6875 31.291709 
L 179.075 31.799981 
L 179.4625 31.816794 
L 179.85 32.430605 
L 180.2375 32.07383 
L 180.625 32.57778 
L 181.0125 32.579565 
L 181.4 32.441302 
L 181.7875 32.918535 
L 182.175 32.842757 
L 182.5625 32.629647 
L 182.95 32.775504 
L 183.3375 33.332154 
L 183.725 33.166916 
L 184.1125 33.199393 
L 184.5 33.068892 
L 184.8875 32.405752 
L 185.275 32.225902 
L 185.6625 32.343862 
L 186.4375 33.395263 
L 186.825 33.806185 
L 187.2125 33.339242 
L 187.6 33.06115 
L 187.9875 33.374752 
L 188.375 33.269481 
L 189.15 33.817813 
L 189.5375 33.641978 
L 189.925 34.012543 
L 190.3125 33.529382 
L 190.7 34.19268 
L 191.0875 34.159827 
L 191.475 34.652079 
L 191.8625 34.336187 
L 192.25 34.580583 
L 192.6375 34.628812 
L 193.025 34.827151 
L 193.4125 34.552509 
L 194.1875 34.45496 
L 194.575 34.698325 
L 194.9625 34.628604 
L 195.35 34.329337 
L 196.125 35.252874 
L 196.5125 34.843458 
L 197.2875 35.175281 
L 197.675 35.086387 
L 198.0625 35.520447 
L 198.45 35.724357 
L 198.8375 34.910731 
L 199.225 35.177531 
L 199.6125 35.963618 
L 200 36.299069 
L 200.3875 36.205347 
L 200.775 36.480188 
L 201.1625 36.605216 
L 201.55 36.05727 
L 202.7125 44.280106 
L 203.1 44.699078 
L 203.4875 44.434587 
L 203.875 43.166975 
L 204.2625 42.617532 
L 204.65 44.576666 
L 205.425 44.508492 
L 205.8125 44.90723 
L 206.2 45.528992 
L 206.5875 46.47974 
L 206.975 46.248886 
L 207.3625 46.684552 
L 207.75 46.75466 
L 208.1375 47.703119 
L 208.525 48.102452 
L 208.9125 48.275145 
L 209.6875 49.662938 
L 210.075 49.638392 
L 210.4625 48.766465 
L 210.85 50.061022 
L 211.2375 50.125301 
L 211.625 49.584403 
L 212.0125 49.638511 
L 212.4 49.931909 
L 212.7875 49.484971 
L 213.175 50.300828 
L 213.5625 50.623957 
L 213.95 49.810995 
L 214.3375 50.512034 
L 214.725 49.932375 
L 215.1125 49.909554 
L 215.5 49.400866 
L 215.8875 49.134908 
L 216.275 48.6525 
L 216.6625 49.315808 
L 217.05 49.608661 
L 217.4375 49.739806 
L 217.825 49.62945 
L 218.2125 48.928599 
L 218.6 50.538671 
L 218.9875 49.885822 
L 219.375 50.681663 
L 219.7625 50.071956 
L 220.15 50.008034 
L 220.5375 49.176505 
L 221.3125 50.732321 
L 221.7 50.649375 
L 222.0875 50.30176 
L 222.475 51.064917 
L 222.8625 50.375169 
L 223.25 50.111323 
L 223.6375 51.43677 
L 224.025 50.985262 
L 224.4125 50.80106 
L 224.8 51.063519 
L 225.1875 52.054338 
L 225.575 51.823603 
L 225.9625 52.274119 
L 226.35 51.004891 
L 226.7375 50.70373 
L 227.125 51.127599 
L 227.5125 51.044872 
L 227.9 52.246837 
L 228.2875 50.534696 
L 228.675 51.988989 
L 229.0625 52.504408 
L 229.8375 52.319731 
L 230.225 52.048687 
L 231 52.66226 
L 231.3875 52.64161 
L 231.775 52.937765 
L 232.55 53.899398 
L 232.9375 53.377545 
L 233.7125 54.544992 
L 234.1 54.005304 
L 234.875 55.547499 
L 235.2625 55.570111 
L 235.65 53.485383 
L 236.0375 54.150437 
L 236.425 54.249412 
L 236.8125 55.091778 
L 237.2 55.57948 
L 237.5875 55.30222 
L 238.3625 56.219541 
L 238.75 56.007552 
L 239.1375 56.043746 
L 239.525 56.327548 
L 239.9125 56.322928 
L 240.3 56.000474 
L 240.6875 56.726842 
L 241.075 56.546189 
L 241.4625 57.033187 
L 241.85 57.121357 
L 242.2375 56.243541 
L 242.625 56.931852 
L 243.0125 56.680972 
L 243.7875 56.729994 
L 244.175 57.157809 
L 244.5625 58.215147 
L 244.95 57.411484 
L 245.3375 57.903617 
L 245.725 57.07982 
L 246.1125 57.324375 
L 246.5 57.397893 
L 246.8875 55.753123 
L 247.275 56.697716 
L 247.6625 56.678881 
L 248.4375 56.373348 
L 248.825 57.978275 
L 249.2125 57.160585 
L 249.6 58.215117 
L 249.9875 58.608106 
L 250.375 58.128137 
L 251.15 59.361141 
L 251.5375 58.554465 
L 252.7 59.507751 
L 253.475 58.474453 
L 253.8625 56.544643 
L 254.25 57.316801 
L 254.6375 57.809836 
L 255.025 57.427911 
L 255.4125 56.516191 
L 255.8 57.886774 
L 256.1875 58.142065 
L 256.575 57.573529 
L 256.9625 57.834203 
L 257.35 57.219322 
L 257.7375 58.295406 
L 258.125 58.38548 
L 258.5125 59.052873 
L 258.9 59.006964 
L 259.2875 57.343993 
L 259.675 57.363215 
L 260.0625 57.869406 
L 260.45 59.8881 
L 260.8375 60.417746 
L 261.6125 60.155565 
L 262 59.314707 
L 262.3875 61.270808 
L 262.775 60.952527 
L 263.1625 61.015933 
L 263.55 59.031311 
L 263.9375 57.833331 
L 264.325 58.610049 
L 264.7125 58.810757 
L 265.1 57.094125 
L 265.4875 59.010671 
L 265.875 57.989259 
L 266.2625 58.590163 
L 266.65 57.873133 
L 267.0375 59.627853 
L 267.425 58.443553 
L 267.8125 55.598275 
L 268.2 58.442581 
L 268.5875 58.257497 
L 268.975 58.959944 
L 269.3625 58.267649 
L 269.75 58.653857 
L 270.1375 58.718582 
L 270.525 58.602327 
L 270.9125 57.722915 
L 271.3 57.981755 
L 271.6875 56.720586 
L 272.075 58.8367 
L 272.4625 59.710045 
L 272.85 57.630214 
L 273.2375 58.369638 
L 273.625 55.05258 
L 274.0125 57.530346 
L 274.4 56.959897 
L 274.7875 57.597847 
L 275.5625 55.238992 
L 275.95 53.48925 
L 276.3375 56.126434 
L 276.725 56.843642 
L 277.1125 55.62987 
L 277.5 55.364923 
L 277.8875 55.925766 
L 278.275 54.812714 
L 278.6625 52.922181 
L 279.05 52.723614 
L 279.4375 53.926076 
L 279.825 53.247818 
L 280.2125 53.06089 
L 280.6 53.612295 
L 280.9875 53.326897 
L 281.375 51.455278 
L 281.7625 53.463564 
L 282.15 51.419084 
L 282.5375 50.513134 
L 282.925 53.045058 
L 283.3125 51.411709 
L 283.7 51.484761 
L 284.0875 52.28314 
L 284.475 51.781728 
L 284.8625 52.783769 
L 285.25 52.261797 
L 285.6375 50.714526 
L 286.025 52.859617 
L 286.4125 52.838075 
L 286.8 53.230984 
L 287.1875 54.433148 
L 287.575 51.935228 
L 287.9625 54.996351 
L 288.35 55.324962 
L 289.125 52.360961 
L 289.5125 53.283823 
L 289.9 56.15783 
L 290.2875 55.405727 
L 290.675 55.563896 
L 291.0625 54.469739 
L 291.45 54.283604 
L 291.8375 55.654267 
L 292.225 54.950957 
L 292.6125 55.025387 
L 293 51.785803 
L 293.3875 54.144013 
L 293.775 55.050439 
L 294.1625 54.280412 
L 294.55 54.418962 
L 294.9375 54.353623 
L 295.325 53.726696 
L 295.7125 52.599359 
L 296.1 54.858544 
L 296.4875 53.74345 
L 296.875 53.064865 
L 297.2625 52.014357 
L 297.65 53.518752 
L 298.0375 52.003313 
L 298.425 51.734877 
L 298.8125 50.684459 
L 299.2 51.827042 
L 299.5875 51.497044 
L 299.975 52.166707 
L 300.3625 51.668983 
L 300.75 53.609252 
L 301.1375 50.84002 
L 301.525 51.669488 
L 301.9125 52.84097 
L 302.3 49.758335 
L 302.6875 53.386626 
L 303.075 51.680879 
L 303.4625 52.302491 
L 303.85 50.584918 
L 304.2375 52.137462 
L 304.625 50.095362 
L 305.0125 50.116854 
L 305.4 52.805192 
L 305.7875 51.404809 
L 306.175 52.920525 
L 306.5625 51.730803 
L 306.95 51.145146 
L 307.3375 51.770357 
L 307.725 50.296684 
L 308.8875 53.639607 
L 309.275 52.894364 
L 309.6625 52.865734 
L 310.05 52.976615 
L 310.4375 51.473043 
L 310.825 51.761544 
L 311.2125 52.376158 
L 311.6 51.843935 
L 311.9875 53.225235 
L 312.375 52.135341 
L 312.7625 51.774174 
L 313.15 51.749529 
L 313.5375 51.239453 
L 313.925 53.062456 
L 314.3125 52.497251 
L 314.7 51.148755 
L 315.0875 51.461435 
L 315.475 51.067623 
L 316.25 52.319919 
L 316.6375 51.982515 
L 317.025 52.015557 
L 317.4125 51.694183 
L 317.8 50.55261 
L 318.1875 51.34854 
L 318.575 51.794338 
L 318.9625 51.622915 
L 319.35 50.848625 
L 319.7375 50.902148 
L 320.125 50.663164 
L 320.5125 50.670094 
L 321.2875 50.986462 
L 321.675 49.968946 
L 322.0625 49.727216 
L 322.45 51.393577 
L 322.8375 50.627367 
L 323.225 51.707209 
L 323.6125 51.162396 
L 324 50.272951 
L 324 50.272951 
" clip-path="url(#p4fe83988e7)" style="fill: none; stroke: #195387; stroke-linecap: square"/>
   </g>
   <g id="patch_3">
    <path d="M 45 192.24 
L 45 25.92 
" style="fill: none; stroke: #000000; stroke-width: 0.8; stroke-linejoin: miter; stroke-linecap: square"/>
   </g>
   <g id="patch_4">
    <path d="M 324 192.24 
L 324 25.92 
" style="fill: none; stroke: #000000; stroke-width: 0.8; stroke-linejoin: miter; stroke-linecap: square"/>
   </g>
   <g id="patch_5">
    <path d="M 45 192.24 
L 324 192.24 
" style="fill: none; stroke: #000000; stroke-width: 0.8; stroke-linejoin: miter; stroke-linecap: square"/>
   </g>
   <g id="patch_6">
    <path d="M 45 25.92 
L 324 25.92 
" style="fill: none; stroke: #000000; stroke-width: 0.8; stroke-linejoin: miter; stroke-linecap: square"/>
   </g>
   <g id="text_17">
    <text style="font: 8px 'sans-serif'; text-anchor: middle" x="184.5" y="19.92" transform="rotate(-0, 184.5, 19.92)">BMP-inh._Nodal-inh.</text>
   </g>
  </g>
 </g>
 <defs>
  <clipPath id="p4fe83988e7">
   <rect x="45" y="25.92" width="279" height="166.32"/>
  </clipPath>
 </defs>
</svg>
